<?xml version="1.0" encoding="utf-8"?>
<!-- Generator: Adobe Illustrator 16.0.0, SVG Export Plug-In . SVG Version: 6.00 Build 0)  -->
<!DOCTYPE svg PUBLIC "-//W3C//DTD SVG 1.1//EN" "http://www.w3.org/Graphics/SVG/1.1/DTD/svg11.dtd">
<svg version="1.1" id="Layer_1" xmlns="http://www.w3.org/2000/svg" xmlns:xlink="http://www.w3.org/1999/xlink" x="0px" y="0px"
	 width="398px" height="237.906px" viewBox="0 0 398 237.906" enable-background="new 0 0 398 237.906" xml:space="preserve">
<path fill="#5BC500" d="M199.959,237.906l37.198-20.649c0,0,11.888-5.474,15.724-15.493c3.615-9.443,3.119-22.207,3.119-22.207V0
	H142v179.557c0,0-0.077,12.764,3.538,22.207c3.836,10.02,16.143,15.493,16.143,15.493l37.447,20.642c0,0,0.116,0.102,0.417,0.102
	S199.959,237.906,199.959,237.906z"/>
<path fill="#F06400" d="M58.113,167.906l37.198-20.649c0,0,11.811-5.474,15.647-15.493c3.614-9.443,3.042-22.207,3.042-22.207V0H0
	v109.557c0,0,0,12.764,3.615,22.207c3.835,10.02,16.181,15.493,16.181,15.493l37.467,20.642c0,0,0.125,0.102,0.426,0.102
	S58.113,167.906,58.113,167.906z"/>
<path fill="#8A1538" d="M341.806,167.906l37.198-20.649c0,0,11.964-5.474,15.8-15.493c3.615-9.443,3.196-22.207,3.196-22.207V0H284
	v109.557c0,0-0.154,12.764,3.461,22.207c3.836,10.02,16.105,15.493,16.105,15.493l37.428,20.642c0,0,0.106,0.102,0.407,0.102
	C341.703,168,341.806,167.906,341.806,167.906z"/>
<line fill="none" stroke="#F1F6FA" stroke-width="6" stroke-miterlimit="10" x1="-248" y1="54" x2="-248" y2="55"/>
<line fill="none" stroke="#F1F6FA" stroke-width="6" stroke-miterlimit="10" x1="7" y1="-98" x2="8" y2="-97"/>
<g>
</g>
<g>
</g>
<g>
</g>
<g>
</g>
<g>
</g>
<g>
</g>
<g>
</g>
<g>
</g>
<g>
</g>
<g>
</g>
<g>
</g>
<g>
</g>
<g>
</g>
<g>
</g>
<g>
</g>
</svg>
