<?xml version="1.0" encoding="utf-8"?>
<!-- Generator: Adobe Illustrator 16.0.0, SVG Export Plug-In . SVG Version: 6.00 Build 0)  -->
<!DOCTYPE svg PUBLIC "-//W3C//DTD SVG 1.1//EN" "http://www.w3.org/Graphics/SVG/1.1/DTD/svg11.dtd">
<svg version="1.1" id="Layer_1" xmlns="http://www.w3.org/2000/svg" xmlns:xlink="http://www.w3.org/1999/xlink" x="0px" y="0px"
	 width="263px" height="149px" viewBox="0 0 263 149" enable-background="new 0 0 263 149" xml:space="preserve">
<path fill="#FFFFFF" d="M93.473,59.269c0,0,20.558-0.243,44.725,0.894c-6.908,3.803-12.287,6.773-15.104,8.344
	c-0.592,0.33-0.805,1.076-0.476,1.668c0.134,0.24,0.345,0.43,0.6,0.535l8.215,3.42c0.875,0.368,1.874,0.285,2.677-0.219
	c4.84-3.027,13.639-7.443,24.381-12.462c17.617,1.42,34.715,3.758,45.293,7.587c0.417,0.15,0.632,0.611,0.481,1.027
	c-0.077,0.211-0.238,0.381-0.446,0.468c-4.69,1.879-18.623,6.604-43.549,8.185c-31.404,1.995-50.845,2.492-66.797,2.492V59.269
	L93.473,59.269z"/>
<path fill="#5BC500" d="M276.419-2.35"/>
<path fill="#5BC500" d="M52.158,53.706c-30.747,3.125-41.669,9.815-44.944,12.412c-0.787,0.627-1.184,1.625-1.042,2.622
	c1.426,10.05,12.781,67.854,85.846,74.773h3.749h39.38c0.142,0.008,0.283,0.008,0.424,0c73.064-6.92,84.42-64.724,85.846-74.773
	c0.142-0.997-0.255-1.995-1.042-2.622c-3.275-2.597-14.197-9.287-44.944-12.412c35.781-16.032,79.938-34.157,81.558-34.805
	c0.437-0.161,0.839-0.4,1.188-0.708c0.561-0.549,0.569-1.448,0.021-2.01c-0.041-0.041-0.082-0.078-0.126-0.114
	c-1.995-1.64-10.789-8.749-12.548-9.63c-1.84-0.917-7.477-0.997-12.961,1.993c-3.29,1.78-48.114,26.346-79.972,43.817
	c-37.006-1.666-52.214-1.31-60.965-1.062C86.486,51.333,52.158,53.706,52.158,53.706z"/>
<path fill="#5BC500" d="M98.184,143.514c0.141,0.008,0.282,0.008,0.424,0"/>
<path fill="#FFFFFF" d="M140.947,60.162c-6.908,3.803-12.287,6.773-15.104,8.344c-0.592,0.33-0.805,1.076-0.476,1.668
	c0.134,0.24,0.345,0.43,0.6,0.535l8.215,3.42c0.875,0.368,1.874,0.285,2.677-0.219c4.84-3.027,13.639-7.443,24.381-12.462
	c17.617,1.42,34.715,3.758,45.293,7.587c0.417,0.15,0.632,0.611,0.481,1.027c-0.077,0.211-0.238,0.381-0.446,0.468
	c-4.69,1.879-18.623,6.604-43.549,8.185c-31.404,1.995-36.353,2.756-52.363,2.659c-27.532-0.167-48.891-2.659-48.891-2.659
	c-25.141-2.34-38.858-6.306-43.549-8.185c-0.208-0.087-0.369-0.257-0.446-0.468c-0.15-0.416,0.064-0.877,0.481-1.027
	c10.578-3.829,27.676-6.167,45.293-7.587c0,0,31.458-1.999,42.58-1.826S140.947,60.162,140.947,60.162z"/>
<path fill="#FFFFFF" d="M83.838,60.162"/>
<g>
</g>
<g>
</g>
<g>
</g>
<g>
</g>
<g>
</g>
<g>
</g>
<g>
</g>
<g>
</g>
<g>
</g>
<g>
</g>
<g>
</g>
<g>
</g>
<g>
</g>
<g>
</g>
<g>
</g>
</svg>
