<?xml version="1.0" encoding="utf-8"?>
<!-- Generator: Adobe Illustrator 16.0.0, SVG Export Plug-In . SVG Version: 6.00 Build 0)  -->
<!DOCTYPE svg PUBLIC "-//W3C//DTD SVG 1.1//EN" "http://www.w3.org/Graphics/SVG/1.1/DTD/svg11.dtd">
<svg version="1.1" id="Layer_1" xmlns="http://www.w3.org/2000/svg" xmlns:xlink="http://www.w3.org/1999/xlink" x="0px" y="0px"
	 width="1200px" height="500.712px" viewBox="0 349.644 1200 500.712" enable-background="new 0 349.644 1200 500.712"
	 xml:space="preserve">
<title>logo-svg</title>
<g id="Layer_2">
	<g id="Layer_1-2">
		<path fill="#5BC500" d="M896.988,612.756h33.983l-16.991-51.084L896.988,612.756z"/>
		<path fill="#5BC500" d="M645.276,767.604h33.983l-16.992-51.084L645.276,767.604z"/>
		<path fill="#5BC500" d="M659.736,434.64c7.199-3.107,10.355-9.239,9.492-18c-0.721-7.199-4.801-12.12-12.36-13.284
			c-6.72-1.02-13.608-0.972-20.832-1.415v34.956C644.196,436.788,652.152,437.916,659.736,434.64z"/>
		<path fill="#5BC500" d="M1035.348,557.652c-6.72-1.021-13.596-0.973-20.819-1.416v34.956c8.159-0.12,16.116,1.02,23.688-2.257
			c7.2-3.107,10.356-9.228,9.504-18C1047,563.7,1042.956,558.816,1035.348,557.652z"/>
		<path fill="#5BC500" d="M664.332,556.044c-13.692-1.572-25.128,3.984-31.032,14.832c-2.292,4.349-3.876,9.036-4.691,13.884
			c-1.47,8.362-1.543,16.91-0.216,25.296c0.588,3.984,1.199,7.944,2.22,11.832c3,12,11.628,18.96,23.735,20.232
			c14.076,1.488,25.776-3.685,31.104-14.592c8.052-16.477,7.488-33.721,3.072-50.977
			C685.488,564.588,676.608,557.388,664.332,556.044z"/>
		<path fill="#5BC500" d="M0,349.644v500.712h1200V349.644H0z M902.964,400.8c0-4.284,0.108-8.568,0-12.84
			c-0.108-3.444,1.597-5.34,4.8-5.484c5.473-0.24,10.98-0.288,16.465,0c3.768,0.18,4.884,2.748,4.871,6.384
			c-0.119,18.804-0.06,37.608-0.06,56.4c0,18.336-0.108,36.685,0.084,55.032c0,4.596-1.572,6.984-6.192,7.044
			c-4.619,0.061-9.144,0-13.716,0c-4.571,0-6.275-2.4-6.252-6.996C903.024,467.148,902.964,433.968,902.964,400.8z M773.436,395.04
			c0-10.164,2.545-12.684,12.805-12.696c3.516,0,7.031,0.06,10.56,0c7.296-0.12,12.528,3,15.912,9.6
			c12.8,24.705,25.628,49.38,38.484,74.028l2.004,3.912c0-4.548,0-8.22,0-11.892c0-22.956,0-45.912-0.181-68.868
			c0-4.584,2.017-6.54,6.133-6.732c4.115-0.192,7.955-0.18,11.928,0c3.6,0.168,5.436,2.016,5.436,5.892
			c-0.071,36.275,0,72.552-0.084,108.828c0,7.008-3.156,10.008-10.104,10.224c-2.748,0.084-5.521-0.204-8.256,0
			c-8.784,0.876-14.508-3.084-18.42-10.704c-13.952-27.2-27.98-54.348-42.084-81.444c-0.214-0.373-0.454-0.729-0.721-1.067v84.792
			c0,7.416-0.504,7.968-7.896,8.712c-14.136,1.416-15.528,0.168-15.528-13.872C773.424,460.88,773.428,427.976,773.436,395.04z
			 M760.332,536.64c3.996,0.132,5.832,2.088,5.796,6.433c-0.168,22.487-0.216,44.987,0,67.476
			c-0.069,5.49,0.671,10.962,2.196,16.236c3.6,11.448,14.063,16.908,27.492,15.348c11.111-1.284,19.199-9.672,20.399-21.384
			c0.37-3.5,0.555-7.017,0.552-10.536c0-22.332,0.133-44.676-0.06-67.008c0-4.596,1.86-6.517,6.06-6.612
			c4.74-0.096,9.48-0.107,14.209,0.084c3.6,0.145,5.315,1.992,5.256,5.916c-0.168,13.309,0,26.628,0,39.937H842.1
			c0,12.084,0.289,24.18-0.071,36.252c-0.756,25.764-16.86,42.744-42.648,44.399c-8.836,0.491-17.7-0.081-26.399-1.704
			c-18.181-3.432-30.181-17.399-32.017-36c-0.456-4.703-0.684-9.456-0.696-14.195c-0.071-22.645,0-45.288-0.107-67.92
			c0-4.452,1.644-6.685,6-6.805c4.704-0.12,9.443-0.144,14.172,0.024V536.64z M726.132,382.404c5.172-0.24,10.368-0.252,15.601-0.06
			c3.852,0.144,5.483,2.34,5.447,6.348c-0.132,18.66-0.06,37.308-0.06,55.957c0,18.647,0,36.995,0,55.5
			c0,5.748-0.685,6.731-6.444,7.199c-4.722,0.219-9.452,0.19-14.172-0.084c-3.6-0.132-5.436-1.956-5.424-5.844
			c0.056-37.768,0.056-75.528,0-113.28C721.02,384.372,722.796,382.56,726.132,382.404z M609.972,391.5
			c0-6.36,2.316-9.06,7.872-9.06c15.288,0,30.624-0.204,45.853,0.876c11.76,0.84,22.428,5.364,28.5,16.572
			c10.02,18.517,2.604,39.756-16.704,48.24l-2.521,1.2c9.528,5.376,13.561,13.956,17.305,22.704c3.672,8.567,7.416,17.1,10.8,25.752
			c3.06,7.691,2.016,9.191-6,9.852c-18,1.464-18,1.416-24.732-15.239c-3.023-7.5-5.939-15.072-9.372-22.393
			c-5.58-11.868-11.388-14.784-25.26-12.996v5.652c0,12.695-0.12,25.404,0.061,38.1c0,4.176-1.452,6.456-5.664,6.528
			c-5.028,0.084-10.068,0.084-15.097,0c-3.443-0.096-5.195-1.86-5.195-5.532C609.936,464.94,609.864,428.22,609.972,391.5z M27,585
			c0,0,49.488-0.588,107.664,2.148c-16.632,9.155-29.58,16.308-36.36,20.088c-1.425,0.793-1.937,2.59-1.144,4.015
			c0.323,0.58,0.831,1.034,1.443,1.289l19.776,8.232c2.106,0.884,4.511,0.688,6.444-0.528c11.652-7.284,32.832-17.916,58.692-30
			c42.408,3.42,83.568,9.048,109.032,18.264c1.003,0.364,1.521,1.472,1.158,2.475c-0.185,0.51-0.574,0.918-1.074,1.126
			c-11.292,4.523-44.832,15.899-104.832,19.703c-75.6,4.801-122.4,6-160.8,6V585z M467.4,763.332
			c0,31.407-25.461,56.868-56.868,56.868l0,0H83.868c-21.931,0.002-41.91-12.604-51.348-32.4h94.8c0.34,0.018,0.68,0.018,1.02,0
			c175.884-16.656,203.22-155.808,206.652-180c0.342-2.399-0.613-4.801-2.508-6.312c-7.885-6.252-34.176-22.356-108.192-29.88
			c86.136-38.593,192.432-82.225,196.332-83.784c1.05-0.385,2.019-0.963,2.856-1.704c1.35-1.321,1.373-3.486,0.052-4.837
			c-0.096-0.098-0.197-0.189-0.304-0.275c-4.801-3.948-25.969-21.06-30.204-23.184c-4.429-2.208-18-2.4-31.2,4.8
			c-7.92,4.284-115.824,63.42-192.516,105.479C29.388,563.412,27,564.6,27,564.6V436.668c0-31.407,25.46-56.868,56.868-56.868
			h326.664c31.407,0,56.868,25.461,56.868,56.868l0,0V763.332z M501.145,393.3c0-1.068,0-2.148,0-3.216
			c0.264-6.636,1.38-7.74,7.836-7.74h80.315c5.664,0,6.84,1.14,7.284,6.912c1.02,13.296,0.132,14.269-13.14,14.269H561.84v96.588
			c0,5.868-0.576,6.731-6.324,7.199c-4.392,0.349-8.844,0.12-13.26,0c-4.416-0.119-6.359-2.04-6.324-6.852
			c0.181-30.3,0.084-60.588,0.084-90.876v-6.06h-24.539C501.768,403.524,501.168,402.936,501.145,393.3z M505.944,642.612
			c0.155-8.988,1.067-12.96,11.22-6.708c8.567,5.555,18.865,7.799,28.968,6.312c2.863-0.434,5.616-1.411,8.112-2.88
			c7.775-4.704,9.132-15.204,2.244-21.06c-4.452-3.78-10.068-6.204-15.216-9.133c-7.032-3.983-14.713-7.079-21.036-12
			c-11.508-8.88-13.908-21.6-11.172-35.172c2.735-13.571,12-21.72,25.02-25.344c13.021-3.624,25.704-2.64,38.28,2.064
			c5.544,2.075,8.604,5.495,8.016,11.688c-0.228,2.4,0,4.896-0.192,7.344c-0.396,5.448-2.231,6.504-7.02,3.948
			c-7.488-3.984-15.156-7.392-23.904-6.804c-2.584,0.139-5.126,0.706-7.523,1.68c-7.824,3.372-10.068,12.78-4.176,18.948
			c3.186,3.056,6.829,5.594,10.8,7.523c6.72,3.601,13.836,6.469,20.544,10.093c13.848,7.5,19.896,19.403,18.516,34.968
			c-1.248,14.604-8.796,25.164-22.224,30.588c-1.2,0.504-2.484,0.948-3.744,1.356c-12.286,3.812-25.396,4.098-37.836,0.827
			c-2.22-0.552-4.428-1.199-6.588-1.896c-9.708-3.312-11.244-6.156-11.064-16.344H505.944z M584.544,814.968
			c-12.872,4.279-26.729,4.613-39.792,0.96c-16.8-4.584-27.876-15.672-33.012-32.124c-6.204-19.823-6.096-39.804,1.2-59.412
			c11.52-31.092,41.747-38.508,64.728-33.359c5.773,1.38,11.324,3.565,16.488,6.492c2.399,1.319,4.319,4.8,4.956,7.607
			c0.654,3.925,0.715,7.926,0.18,11.868c-0.456,5.136-3.168,6.336-7.464,3.396c-6.384-4.368-13.032-8.124-20.893-8.748
			c-17.615-1.429-30.252,8.495-33.756,26.579c-0.18,0.912-0.348,1.837-0.492,2.784c-1.85,11.287-1.128,22.847,2.112,33.816
			c0.521,1.748,1.138,3.467,1.849,5.147c6,14.221,22.332,19.969,38.58,14.4c4.728-1.608,9.107-4.26,13.535-6.624
			c4.717-2.508,6.336-1.776,6.937,3.444c1.644,14.688-1.104,19.248-15.132,23.771H584.544z M716.688,816.54
			c-2.892,0.156-5.796,0.36-8.688,0.54c-12.852-0.156-12.852-0.156-16.884-12.216c-1.548-4.645-3.181-9.252-4.62-13.92
			c-0.338-1.998-2.207-3.361-4.212-3.072c-13.2,0.132-26.316,0.168-39.48,0c-2.952,0-3.936,1.2-4.68,3.684
			c-2.016,6.564-4.356,13.044-6.276,19.633c-1.067,3.6-3.216,5.399-6.912,5.399c-4.728,0-9.468,0.072-14.195,0
			c-3.828-0.096-5.124-2.292-4.225-5.844c0.637-2.508,1.345-5.016,2.196-7.464c12-34.632,24.021-69.256,36.061-103.872
			c2.615-7.5,3.132-7.992,11.147-8.16c6.12-0.132,12.24,0.084,18.348,0.18c3.601,0.061,5.856,1.74,7.093,5.305
			c12.743,36.8,25.544,73.58,38.399,110.34c0.426,1.305,0.767,2.635,1.021,3.983c0.744,3.301-0.444,5.292-4.068,5.484H716.688z
			 M729.888,678.852c-0.216,3.721-2.075,5.473-6.06,4.801c-8.977-1.477-16.8-5.593-24.145-10.62
			c-4.978-3.54-9.694-7.434-14.111-11.652c-1.484-1.726-3.933-2.26-6-1.308c-15.469,5.184-31.08,4.716-46.464-0.132
			c-15.385-4.849-24.696-16.021-28.956-31.2c-4.992-17.308-5.244-35.638-0.732-53.076c6.372-24.528,24.984-39.684,50.34-40.8
			c8.242-0.36,16.499,0.18,24.624,1.607c17.712,3.181,30.145,13.633,35.532,30.805c7.344,23.388,7.008,46.739-3.948,69.216
			c-1.859,3.804-4.644,7.2-7.836,12c7.536,4.08,14.736,8.399,22.26,11.916c3.696,1.752,5.664,3.924,5.628,7.92
			c-0.035,3.492,0.049,7.02-0.155,10.523H729.888z M793.416,712.668H762v32.976h21.6c4.584,0,9.181,0.181,13.765-0.06
			c3.996-0.204,5.508,1.86,5.916,5.364c0,0.312,0,0.611,0,0.912c1.056,13.632,0.107,14.676-13.284,14.676h-28.225v25.656
			c0,6.12-0.084,12.239,0,18.359c0.072,3.601-1.512,5.641-4.991,5.772c-5.328,0.191-10.668,0.216-15.996,0
			c-3.42-0.132-5.088-2.124-5.076-5.725c0-36.563,0-73.128,0.072-109.68c0-7.08,2.496-9.348,9.491-9.372
			c18,0,36.097,0.084,54.156-0.084c4.116,0,5.893,1.74,6.336,5.484c0.072,0.612,0.168,1.2,0.217,1.824
			c1.031,12.72-0.024,13.896-12.588,13.896H793.416z M900.72,810.852c-0.372,3.708-2.004,5.593-6.216,5.545
			c-19.116-0.181-38.244-0.072-57.372-0.084c-8.184,0-10.355-2.053-10.368-10.297c-0.071-24.323,0-48.647,0-72.972
			c0-10.404,0-20.808,0-31.2c0.072-8.184,2.269-10.332,10.404-10.344c18.816,0,37.632,0.096,56.4-0.084
			c4.224,0,6.359,1.404,6.588,5.604c0,0.455,0.144,0.911,0.191,1.367c1.309,11.652-0.216,13.416-11.628,13.416h-36v29.7
			c1.668,0.084,3.276,0.229,4.884,0.24c10.104,0,20.196,0,30.288,0c4.908,0,5.772,1.644,5.748,10.104
			c0,7.944-0.936,9.505-5.868,9.528c-10.403,0.072-20.808,0.132-31.199,0c-3.145,0-4.284,0.828-4.225,4.116
			c0.18,10.044,0.061,20.1,0.061,30.563h38.16c9.852,0,10.283,0.421,10.271,10.225c0.029,1.525-0.019,3.051-0.144,4.571H900.72z
			 M968.855,661.644c-6.251,0.261-12.512,0.185-18.756-0.228c-1.775-0.168-4.115-2.556-4.8-4.452
			c-2.616-6.672-4.8-13.536-6.852-20.399c-0.804-2.616-2.076-3.601-4.8-3.48c-6.576,0.204-13.2,0-19.74,0s-12.853,0.132-19.272,0
			c-2.616-0.084-3.815,0.792-4.548,3.252c-1.98,6.576-4.368,13.032-6.24,19.645c-1.199,4.031-3.479,5.892-7.548,5.867
			c-4.584,0-9.168,0-13.739-0.107c-3.841-0.108-5.112-2.328-4.2-5.868c0.731-2.808,1.548-5.592,2.508-8.328
			c11.848-34.2,23.716-68.396,35.604-102.588c2.784-8.004,3.181-8.4,11.772-8.58c6-0.108,11.928,0.108,17.892,0.204
			c3.601,0.06,5.845,1.764,7.08,5.328c12.744,36.8,25.544,73.576,38.4,110.328c0.473,1.45,0.833,2.935,1.08,4.439
			C973.128,659.58,972,661.536,968.855,661.644z M977.893,500.292c0-30.296,0-60.588,0-90.876v-5.892h-27.984
			c-5.184,0-6.288-1.068-6.792-6.337c0-0.155,0-0.3,0-0.455c-0.996-13.464-0.156-14.4,13.092-14.4h74.808
			c5.929,0,7.116,1.2,7.513,7.2c0.876,13.2,0.107,14.027-12.937,14.027c-6.735,0-13.468,0.021-20.195,0.061
			c-0.564,0.09-1.122,0.218-1.668,0.384v5.052c0,30.288,0,60.58,0,90.876c0,6.204-0.469,6.937-6.553,7.416
			c-4.262,0.33-8.542,0.33-12.804,0c-5.88-0.504-6.479-1.319-6.479-7.115V500.292z M1074,661.776c-4.8,0.275-9.768,0-14.652-0.108
			c-3.336,0-5.195-1.788-6.371-4.884c-3.169-8.269-6.541-16.464-9.889-24.66c-1.2-2.832-2.4-5.628-3.744-8.4
			c-5.64-11.352-11.544-14.399-25.115-12.479v8.88c0,11.628-0.12,23.256,0.071,34.884c0.061,4.212-1.536,6.432-5.712,6.492
			c-5.027,0.084-10.068,0.084-15.096-0.06c-3.469-0.108-5.16-1.933-5.148-5.58c0-36.564,0-73.128,0.072-109.692
			c0-7.32,2.472-9.6,9.768-9.6c14.532,0.144,29.089-0.145,43.561,0.888c12,0.852,22.8,5.292,28.932,16.668
			c10.008,18.528,2.532,39.72-16.8,48.216l-2.399,1.2c9.035,5.16,13.199,13.104,16.716,21.492
			c3.863,9.144,7.907,18.216,11.567,27.443C1082.616,659.676,1081.524,661.356,1074,661.776z M1083.061,507.228
			c-3.948-0.084-5.593-2.136-5.532-6.18c0.168-11.472,0.3-22.956-0.072-34.428c-0.11-4.207-1.078-8.348-2.844-12.168
			c-9.732-20.064-19.812-39.948-29.856-59.892c-0.552-1.092-1.104-2.184-1.632-3.288c-3.444-7.32-2.532-8.952,5.353-9.216
			c4.128-0.144,8.268,0.132,12.396,0c5.172-0.192,8.016,2.244,10.008,6.948c6.168,14.64,12.72,29.04,19.08,43.632
			c0.348,0.805,0.84,1.561,1.128,2.088c6.804-15.516,13.729-30.983,20.4-46.583c1.836-4.308,4.62-6.18,9.107-6.096
			c5.053,0.108,10.092,0,15.145,0.18c3.72,0.108,4.8,2.292,3.744,5.568c-0.842,2.292-1.845,4.521-3,6.672
			c-10.332,20.64-20.725,41.232-30.96,61.908c-1.128,2.301-1.742,4.818-1.8,7.38c-0.177,12.24-0.177,24.48,0,36.72
			c0.071,4.38-1.5,6.732-6,6.792c-4.885,0.061-9.769,0.072-14.641-0.036H1083.061z M1160.064,661.464h-51.385
			c-7.655,0-9.983-2.1-10.008-9.72c-0.072-35.04-0.072-70.076,0-105.108c0-7.848,2.4-9.983,10.284-9.996
			c18.816,0,37.632,0.12,56.4-0.096c4.548-0.06,6.552,1.644,6.756,6c0,0.756,0.191,1.512,0.239,2.28
			c0.696,10.932-0.432,12.155-11.159,12.155h-36.505v29.904h31.824c8.292,0,8.94,0.648,9.049,9.108c0,0.924,0,1.836,0,2.76
			c-0.24,7.044-1.045,7.824-8.017,7.824h-32.94v34.668h5.185c12.396,0,24.792,0.096,37.2-0.072c3.54,0,5.004,1.596,5.544,4.692
			c0.107,0.6,0.155,1.2,0.204,1.812c0.96,12.769,0.072,13.788-12.648,13.788H1160.064z"/>
		<path fill="#FFFFFF" d="M292.632,612.096c0.985-0.41,1.451-1.541,1.042-2.525c-0.208-0.5-0.616-0.89-1.125-1.074
			c-25.464-9.216-66.624-14.844-109.032-18.264c-25.86,12.107-47.04,22.8-58.692,30c-1.934,1.215-4.338,1.412-6.444,0.527
			l-19.776-8.231c-1.505-0.628-2.216-2.356-1.589-3.861c0.255-0.612,0.709-1.12,1.289-1.443c6.78-3.779,19.728-10.932,36.36-20.088
			C76.488,584.4,27,584.988,27,584.988v52.8c38.4,0,85.2-1.2,160.8-6C247.8,628.044,281.34,616.62,292.632,612.096z"/>
		<path fill="#FFFFFF" d="M410.532,379.8H83.868C52.46,379.8,27,405.261,27,436.668V564.6c0,0,2.4-1.199,142.308,3.504
			C246,526.044,353.904,466.908,361.8,462.6c13.2-7.199,26.772-7.008,31.2-4.8c4.236,2.124,25.356,19.2,30.204,23.185
			c1.474,1.182,1.71,3.334,0.527,4.808c-0.085,0.106-0.178,0.208-0.275,0.304c-0.837,0.741-1.806,1.319-2.856,1.704
			c-3.899,1.561-110.195,45.192-196.332,83.784c74.016,7.524,100.308,23.628,108.192,29.88c1.896,1.511,2.85,3.912,2.508,6.312
			c-3.432,24.168-30.768,163.319-206.652,180c-0.34,0.018-0.68,0.018-1.02,0h-94.8c9.438,19.796,29.417,32.401,51.348,32.399
			h326.688c31.407,0,56.868-25.461,56.868-56.868l0,0v-326.64C467.4,405.261,441.939,379.8,410.532,379.8L410.532,379.8z"/>
		<path fill="#FFFFFF" d="M724.38,660.444c-7.523-3.601-14.724-7.836-22.26-11.916c3.192-4.801,6-8.16,7.836-12
			c10.956-22.477,11.292-45.828,3.948-69.216c-5.389-17.173-17.82-27.601-35.532-30.805c-8.125-1.429-16.382-1.968-24.624-1.607
			c-25.355,1.067-43.968,16.224-50.34,40.8c-4.513,17.438-4.26,35.769,0.731,53.076c4.261,15.228,13.536,26.399,28.956,31.199
			c15.42,4.801,30.996,5.316,46.465,0.133c2.067-0.952,4.516-0.419,6,1.308c4.417,4.219,9.134,8.112,14.111,11.652
			c7.32,5.027,15.168,9.144,24.145,10.619c3.983,0.66,5.844-1.092,6.06-4.8c0.204-3.504,0.12-7.031,0.144-10.548
			C730.044,664.308,728.076,662.136,724.38,660.444z M685.452,627.528c-5.328,10.907-17.028,16.08-31.104,14.592
			c-12.107-1.272-20.735-8.232-23.735-20.232c-0.973-3.888-1.632-7.848-2.22-11.832c-1.327-8.386-1.254-16.934,0.216-25.296
			c0.815-4.848,2.399-9.535,4.691-13.884c5.904-10.8,17.34-16.404,31.032-14.832c12.276,1.404,21.156,8.604,24.192,20.508
			c4.416,17.196,4.979,34.44-3.072,50.916V627.528z"/>
		<path fill="#FFFFFF" d="M788.952,507.624c7.392-0.744,7.896-1.296,7.896-8.712V414.12c0.267,0.338,0.507,0.694,0.721,1.067
			c14.056,27.137,28.084,54.284,42.084,81.444c3.912,7.62,9.6,11.58,18.42,10.704c2.736-0.264,5.508,0,8.256,0
			c6.948-0.216,10.092-3.216,10.104-10.224c0.072-36.276,0-72.553,0.084-108.828c0-3.876-1.848-5.724-5.436-5.892
			c-3.973-0.18-7.956-0.204-11.928,0c-3.973,0.204-6.181,2.148-6.133,6.732c0.181,22.92,0.181,45.852,0.181,68.808
			c0,3.672,0,7.345,0,11.893l-2.004-3.912c-12.84-24.672-25.668-49.348-38.484-74.028c-3.384-6.54-8.616-9.66-15.912-9.6
			c-3.528,0.06-7.044,0-10.56,0c-10.26,0-12.805,2.532-12.805,12.696c0,32.904,0,65.808,0,98.712
			C773.424,507.792,774.816,509.04,788.952,507.624z"/>
		<path fill="#FFFFFF" d="M615.072,507.192c5.027,0.132,10.067,0.132,15.096,0c4.212-0.072,5.725-2.4,5.664-6.528
			c-0.18-12.696-0.06-25.404-0.06-38.1v-5.604c13.872-1.788,19.68,1.128,25.26,12.996c3.432,7.32,6.348,14.892,9.372,22.392
			c6.731,16.656,6.768,16.704,24.731,15.24c8.004-0.66,9.048-2.16,6-9.852c-3.432-8.652-7.2-17.185-10.8-25.752
			c-3.744-8.748-7.776-17.328-17.304-22.704l2.52-1.2c19.26-8.4,26.725-29.725,16.704-48.24c-6.072-11.208-16.8-15.732-28.5-16.572
			c-15.228-1.08-30.563-0.84-45.852-0.876c-5.557,0-7.86,2.7-7.872,9.06c-0.108,36.72,0,73.439-0.097,110.16
			C609.876,505.332,611.628,507.096,615.072,507.192z M636,401.952c7.2,0.444,14.112,0.396,20.832,1.416
			c7.608,1.2,11.64,6,12.36,13.284c0.863,8.748-2.305,14.88-9.492,18c-7.584,3.275-15.54,2.147-23.7,2.256V401.952z"/>
		<path fill="#FFFFFF" d="M1068.204,625.068c-3.601-8.4-7.68-16.332-16.716-21.492l2.399-1.2
			c19.296-8.496,26.772-29.688,16.8-48.216c-6.155-11.376-16.979-15.816-28.932-16.668c-14.472-1.032-29.027-0.744-43.56-0.889
			c-7.296-0.071-9.744,2.221-9.769,9.601c-0.084,36.563,0,73.128-0.072,109.692c0,3.6,1.681,5.472,5.148,5.579
			c5.028,0.145,10.068,0.145,15.096,0.061c4.177-0.061,5.772-2.28,5.713-6.492c-0.192-11.628-0.072-23.256-0.072-34.884v-8.916
			c13.572-1.884,19.476,1.128,25.116,12.479c1.355,2.736,2.592,5.532,3.743,8.4c3.349,8.196,6.721,16.392,9.889,24.66
			c1.199,3.096,3.036,4.8,6.372,4.884c4.884,0.072,9.792,0.384,14.651,0.108c7.5-0.421,8.592-2.101,5.748-9.265
			C1076.112,643.284,1072.068,634.212,1068.204,625.068z M1038.204,588.936c-7.572,3.276-15.528,2.137-23.688,2.257v-34.956
			c7.2,0.443,14.101,0.396,20.82,1.416c7.608,1.199,11.652,6,12.372,13.296c0.864,8.76-2.292,14.88-9.492,17.987H1038.204z"/>
		<path fill="#FFFFFF" d="M971.496,652.176c-12.8-36.8-25.6-73.576-38.4-110.328c-1.199-3.6-3.455-5.268-7.08-5.328
			c-6-0.096-11.928-0.312-17.892-0.203c-8.592,0.168-8.988,0.575-11.772,8.58c-11.879,34.199-23.747,68.396-35.604,102.588
			c-0.96,2.735-1.775,5.52-2.508,8.327c-0.912,3.54,0.359,5.761,4.2,5.868c4.571,0.12,9.155,0.072,13.739,0.108
			c4.068,0,6.396-1.836,7.549-5.868c1.871-6.612,4.26-13.068,6.239-19.644c0.732-2.46,1.933-3.336,4.548-3.252
			c6.42,0.191,12.853,0,19.272,0s13.2,0.144,19.74,0c2.771-0.097,4.044,0.863,4.8,3.479c2.1,6.864,4.236,13.729,6.852,20.4
			c0.744,1.896,3.084,4.283,4.801,4.451c6.243,0.412,12.504,0.488,18.756,0.229c3.156,0,4.271-2.004,3.72-4.956
			C972.25,655.122,971.93,653.633,971.496,652.176z M896.988,612.756l16.992-51.084l16.991,51.084H896.988z"/>
		<path fill="#FFFFFF" d="M719.784,807.012c-12.8-36.8-25.601-73.58-38.4-110.34c-1.2-3.6-3.468-5.244-7.092-5.304
			c-6.108-0.096-12.228-0.312-18.348-0.181c-8.017,0.169-8.532,0.66-11.148,8.16c-12,34.616-24.02,69.24-36.06,103.872
			c-0.853,2.4-1.561,4.956-2.196,7.464c-0.899,3.601,0.396,5.748,4.224,5.845c4.729,0.12,9.469,0.06,14.196,0
			c3.696,0,5.844-1.752,6.912-5.4c1.92-6.588,4.26-13.068,6.276-19.632c0.744-2.4,1.728-3.732,4.68-3.685
			c13.2,0.181,26.316,0.145,39.48,0c2.005-0.288,3.874,1.075,4.212,3.072c1.439,4.668,3.071,9.276,4.62,13.92
			c4.031,12,4.031,12,16.884,12.216c2.892-0.18,5.796-0.384,8.688-0.54c3.601-0.191,4.8-2.184,4.092-5.544
			C720.548,809.607,720.207,808.297,719.784,807.012z M645.276,767.604l16.991-51.084l16.992,51.084H645.276z"/>
		<path fill="#FFFFFF" d="M740.16,543.36c0.156,22.632,0,45.275,0.107,67.92c0,4.739,0.24,9.492,0.696,14.195
			c1.836,18.601,13.836,32.568,32.052,35.893c8.7,1.622,17.564,2.194,26.4,1.704c25.788-1.608,41.892-18.588,42.648-44.4
			c0.359-12.072,0.071-24.168,0.071-36.252h0.132c0-13.308-0.107-26.628,0-39.936c0.061-3.925-1.644-5.772-5.256-5.916
			c-4.728-0.192-9.468-0.181-14.208-0.084c-4.2,0.096-6.096,2.016-6.06,6.611c0.191,22.332,0.107,44.676,0.06,67.008
			c0.003,3.52-0.182,7.037-0.552,10.536c-1.2,11.712-9.348,20.101-20.4,21.385c-13.428,1.56-23.844-3.9-27.492-15.349
			c-1.525-5.274-2.265-10.745-2.195-16.235c-0.24-22.488-0.192-44.988,0-67.477c0-4.344-1.8-6.3-5.796-6.432
			c-4.729-0.168-9.468-0.145-14.208,0C741.804,536.676,740.124,538.908,740.16,543.36z"/>
		<path fill="#FFFFFF" d="M1172.508,645.816c-0.54-3.097-2.004-4.74-5.544-4.692c-12.384,0.168-24.78,0.072-37.2,0.072h-5.184
			v-34.62h32.939c6.973,0,7.776-0.78,8.017-7.824c0-0.924,0-1.836,0-2.76c-0.108-8.4-0.756-9.096-9.048-9.108h-31.801v-29.939
			h36.541c10.728,0,11.855-1.2,11.159-12.156c0-0.769-0.204-1.524-0.239-2.28c-0.204-4.32-2.209-6-6.757-6
			c-18.815,0.216-37.632,0.072-56.399,0.096c-7.932,0-10.26,2.148-10.284,9.996c-0.056,35.032-0.056,70.068,0,105.108
			c0,7.62,2.4,9.708,10.008,9.72h51.408c12.72,0,13.608-0.972,12.624-13.836C1172.664,647.028,1172.616,646.416,1172.508,645.816z"
			/>
		<path fill="#FFFFFF" d="M890.568,796.044h-38.16c0-10.464,0.12-20.52-0.061-30.563c0-3.288,1.08-4.164,4.225-4.116
			c10.404,0.168,20.808,0.107,31.2,0c4.932,0,5.831-1.584,5.868-9.528c0-8.46-0.841-10.08-5.748-10.104
			c-10.093-0.072-20.185,0-30.288,0c-1.608,0-3.216-0.156-4.884-0.24v-29.7h36c11.411,0,12.936-1.764,11.627-13.416
			c0-0.456-0.18-0.912-0.191-1.368c-0.229-4.2-2.4-5.64-6.588-5.604c-18.816,0.18-37.632,0.06-56.4,0.084
			c-8.136,0-10.332,2.16-10.404,10.344c-0.071,10.404,0,20.808,0,31.2c0,24.324,0,48.647,0,72.972
			c0,8.244,2.185,10.296,10.369,10.296c19.127,0,38.256-0.096,57.371,0.084c4.213,0,5.844-1.836,6.217-5.544
			c0.125-1.524,0.174-3.055,0.144-4.584C900.852,796.464,900.42,796.044,890.568,796.044z"/>
		<path fill="#FFFFFF" d="M517.08,658.956c2.16,0.72,4.368,1.344,6.588,1.896c12.441,3.271,25.55,2.984,37.836-0.827
			c1.26-0.408,2.508-0.853,3.744-1.356c13.38-5.448,20.928-15.984,22.212-30.54c1.38-15.6-4.668-27.468-18.516-34.968
			c-6.708-3.601-13.824-6.492-20.544-10.092c-3.971-1.93-7.614-4.469-10.801-7.524c-5.892-6.168-3.6-15.6,4.177-18.948
			c2.397-0.973,4.939-1.541,7.523-1.68c8.748-0.588,16.416,2.82,23.904,6.804c4.8,2.557,6.624,1.5,7.02-3.948
			c0.181-2.399,0-4.907,0.192-7.344c0.588-6.191-2.472-9.6-8.016-11.688c-12.576-4.704-25.393-5.664-38.28-2.064
			c-12.888,3.601-22.272,11.712-25.021,25.344c-2.748,13.633-0.336,26.293,11.173,35.173c6.323,4.872,14.004,7.968,21.035,12
			c5.148,2.928,10.801,5.352,15.217,9.132c6.888,5.855,5.531,16.355-2.244,21.06c-2.496,1.469-5.249,2.446-8.112,2.88
			c-10.108,1.474-20.406-0.787-28.968-6.359c-10.152-6.252-11.064-2.28-11.22,6.708C505.788,652.8,507.324,655.644,517.08,658.956z"
			/>
		<path fill="#FFFFFF" d="M592.716,787.764c-4.428,2.4-8.808,5.017-13.536,6.624c-16.248,5.557-32.592-0.191-38.58-14.399
			c-0.71-1.681-1.326-3.399-1.848-5.148c-3.229-10.972-3.938-22.531-2.076-33.815c0.145-0.948,0.312-1.872,0.492-2.784
			c3.504-18.084,16.14-28.008,33.756-26.58c7.86,0.624,14.508,4.38,20.893,8.748c4.296,2.939,7.008,1.74,7.464-3.396
			c0.535-3.942,0.475-7.943-0.181-11.868c-0.636-2.819-2.58-6.287-4.955-7.607c-5.165-2.927-10.715-5.112-16.488-6.492
			c-22.98-5.147-53.208,2.269-64.729,33.36c-7.26,19.607-7.368,39.6-1.199,59.412c5.136,16.451,16.199,27.54,33.012,32.124
			c13.063,3.652,26.92,3.318,39.792-0.96c14.028-4.584,16.8-9.084,15.084-23.761C599.052,785.988,597.432,785.244,592.716,787.764z"
			/>
		<path fill="#FFFFFF" d="M805.8,696.9c-0.444-3.744-2.22-5.532-6.336-5.484c-18.06,0.168-36.108,0-54.156,0.084
			c-6.995,0-9.468,2.292-9.491,9.372c-0.097,36.552,0,73.116-0.072,109.68c0,3.601,1.656,5.592,5.076,5.725
			c5.328,0.204,10.668,0.18,15.996,0c3.479-0.133,5.063-2.196,4.991-5.772c-0.12-6.12,0-12.24,0-18.36v-25.668h28.345
			c13.392,0,14.399-1.044,13.283-14.676c0-0.3,0-0.6,0-0.912c-0.407-3.504-1.92-5.567-5.916-5.363
			c-4.584,0.239-9.18,0.06-13.764,0.06H762v-32.916h31.344c12.564,0,13.62-1.2,12.624-13.944
			C805.968,698.112,805.872,697.512,805.8,696.9z"/>
		<path fill="#FFFFFF" d="M1103.652,500.472c-0.192-12.239-0.192-24.479,0-36.72c0.059-2.562,0.672-5.079,1.8-7.38
			c10.236-20.676,20.628-41.269,30.96-61.908c1.156-2.15,2.158-4.38,3-6.672c1.092-3.276,0-5.46-3.744-5.568
			c-5.052-0.132-10.092-0.072-15.144-0.18c-4.488-0.084-7.272,1.788-9.108,6.096c-6.612,15.6-13.536,31.068-20.4,46.583
			c-0.287-0.527-0.779-1.283-1.128-2.088c-6.288-14.592-12.84-28.992-19.008-43.668c-1.992-4.704-4.8-7.2-10.008-6.948
			c-4.128,0.168-8.269-0.108-12.396,0c-7.885,0.264-8.797,1.896-5.353,9.216c0.528,1.104,1.08,2.196,1.632,3.288
			c9.996,19.944,20.124,39.828,29.88,59.892c1.766,3.82,2.733,7.961,2.845,12.168c0.371,11.472,0.239,22.956,0.071,34.428
			c-0.06,4.044,1.584,6.097,5.532,6.181c4.872,0.107,9.756,0.096,14.628,0C1102.152,507.204,1103.725,504.852,1103.652,500.472z"/>
		<path fill="#FFFFFF" d="M536.004,403.524v6.119c0,30.288,0.096,60.576-0.084,90.876c0,4.801,1.872,6.78,6.324,6.853
			s8.868,0.3,13.26,0c5.748-0.432,6.312-1.296,6.324-7.2v-96.647h21.6c13.272,0,14.16-0.973,13.141-14.269
			c-0.444-5.772-1.62-6.9-7.284-6.912h-80.269c-6.456,0-7.571,1.104-7.836,7.74c0,1.068,0,2.148,0,3.216
			c0,9.601,0.624,10.225,10.332,10.225H536.004z"/>
		<path fill="#FFFFFF" d="M997.2,507.312c6.084-0.479,6.552-1.199,6.552-7.415c0-30.297,0-60.589,0-90.877v-5.052
			c0.547-0.166,1.104-0.294,1.668-0.384c6.729,0,13.46-0.02,20.196-0.06c13.044,0,13.812-0.828,12.936-14.028
			c-0.396-6-1.584-7.2-7.512-7.2h-74.856c-13.199,0-14.088,0.924-13.092,14.4c0,0.155,0,0.3,0,0.456
			c0.504,5.268,1.608,6.323,6.792,6.336h27.996v5.832c0,30.288,0,60.58,0,90.876c0,5.796,0.601,6.636,6.444,7.067
			C988.608,507.613,992.913,507.63,997.2,507.312z"/>
		<path fill="#FFFFFF" d="M721.032,501.36c0,3.888,1.812,5.712,5.424,5.844c4.72,0.273,9.45,0.302,14.172,0.084
			c5.76-0.408,6.433-1.392,6.444-7.2c0-18.504,0-37.004,0-55.5c0-18.647-0.072-37.296,0.06-55.956c0-4.008-1.596-6.204-5.448-6.348
			c-5.184-0.192-10.38-0.18-15.6,0.06c-3.336,0.156-5.112,1.968-5.112,5.676C721.076,425.812,721.096,463.592,721.032,501.36z"/>
		<path fill="#FFFFFF" d="M909.145,507.312c4.567,0.049,9.14,0.049,13.716,0c4.62,0,6.228-2.399,6.191-7.044
			c-0.191-18.348-0.084-36.695-0.084-55.031c0-18.805,0-37.608,0.061-56.4c0-3.6-1.104-6.204-4.872-6.384
			c-5.484-0.252-10.992-0.204-16.464,0c-3.169,0.144-4.872,2.04-4.8,5.484c0.144,4.272,0,8.556,0,12.84
			c0,33.168,0,66.348-0.072,99.516C902.868,504.948,904.561,507.264,909.145,507.312z"/>
	</g>
</g>
</svg>
