<?xml version="1.0" encoding="utf-8"?>
<!-- Generator: Adobe Illustrator 16.0.0, SVG Export Plug-In . SVG Version: 6.00 Build 0)  -->
<!DOCTYPE svg PUBLIC "-//W3C//DTD SVG 1.1//EN" "http://www.w3.org/Graphics/SVG/1.1/DTD/svg11.dtd">
<svg version="1.1" id="Layer_1" xmlns="http://www.w3.org/2000/svg" xmlns:xlink="http://www.w3.org/1999/xlink" x="0px" y="0px"
	 width="596px" height="235.333px" viewBox="301.833 482.5 596 235.333" enable-background="new 301.833 482.5 596 235.333"
	 xml:space="preserve">
<title>Logo - white</title>
<path fill="#FFFFFF" d="M503.928,486h-168.24c-16.493,0.02-29.859,13.386-29.879,29.88v168.24c-0.007,4.132,0.852,8.22,2.52,12l0,0
	l0.408,0.852l0.168,0.349l0,0c5.06,10.173,15.422,16.626,26.783,16.68h168.24c16.494-0.02,29.86-13.386,29.88-29.88V515.88
	C533.788,499.386,520.422,486.02,503.928,486z M307.008,684.12v-64.056h13.2h1.056h1.98h0.96h1.104h0.996h1.08h1.08h1.2h1.02h1.297
	H333h1.32h1.044h1.416h1.044h1.428h1.092h1.452h1.2h1.476h1.2h1.68h1.104l1.764-0.072h1.104l1.788-0.084h1.2l1.979-0.097h1.044
	l2.4-0.107h0.684l2.484-0.12h0.779l2.593-0.132h0.743l2.568-0.145h0.888l2.484-0.132l1.08-0.06l3.084-0.181h0.528l3.132-0.191h0.636
	l7.848-0.48c2.536-0.168,4.98-0.355,7.332-0.563l1.465-0.132c12.197-1.021,24.275-3.159,36.084-6.385
	c1.248-0.359,2.399-0.708,3.455-1.044l1.057-0.336l0.18-0.06h0.061l1.619-0.552l0.312-0.108l1.2-0.444l0.264-0.107l1.128-0.433
	c0.825-0.31,1.243-1.229,0.933-2.055c-0.162-0.431-0.502-0.771-0.933-0.933c-11.556-4.176-30.504-7.356-56.304-9.444h-0.156
	l-0.144,0.072c-14.544,6.804-24.732,12-30.288,15.492c-0.83,0.527-1.867,0.612-2.772,0.228l-10.188-4.235
	c-0.471-0.198-0.691-0.74-0.493-1.211c0.079-0.188,0.219-0.345,0.396-0.445c3.492-1.944,10.164-5.628,18.721-10.344l1.872-1.021
	l-2.124-0.108l-2.652-0.119h-1.056l-1.536-0.072h-1.26h-1.345h-1.199h-1.356h-1.2h-1.308h-1.2h-1.2h-1.2h-1.199h-1.2h-1.26h-1.104
	h-1.32h-1.008h-1.548h-0.696h-2.244h-0.132h-2.004h-0.731h-1.393h-0.684h-1.393h-4.596h-1.5h-1.944c-6.443,0-10.907,0-12.468,0
	v-9.349c2.053-0.071,12.384-0.132,63.84,1.561l0,0l2.028,0.06h1.104l5.628,0.192h0.168l0.144-0.084
	c39.9-21.924,95.136-52.152,99.132-54.336c6.145-3.349,12.204-3.444,14.784-2.725c0.25,0.069,0.495,0.158,0.732,0.265
	c1.395,0.854,2.732,1.796,4.008,2.82c2.4,1.764,5.328,4.115,8.256,6.468l3.18,2.58c0.262,0.217,0.419,0.535,0.433,0.876
	c0.013,0.159-0.012,0.319-0.072,0.468c-0.058,0.146-0.148,0.277-0.264,0.384c-0.123,0.112-0.255,0.213-0.396,0.3l-0.156,0.108
	c-0.234,0.135-0.479,0.251-0.731,0.348c-0.948,0.385-5.064,2.076-11.376,4.692l-9.468,3.936l-1.524,0.637
	c-20.664,8.64-51.984,21.899-78.769,33.899l-2.039,0.912l2.231,0.229c37.428,3.804,51.216,11.939,55.404,15.264
	c0.809,0.647,1.215,1.675,1.067,2.7c0,0.216-0.06,0.443-0.096,0.684c-1.824,12-11.496,55.608-57.168,78.349
	c-0.936,0.464-1.884,0.92-2.844,1.367c-6.142,2.827-12.503,5.15-19.021,6.948c-8.762,2.382-17.716,3.987-26.76,4.8h-0.468H309.6
	C307.542,693.844,306.649,688.977,307.008,684.12z"/>
<g id="RVSw2a.tif">
	<path fill="#FFFFFF" d="M654.084,624.96c3.888,2.1,7.596,4.296,11.472,6.144c1.896,0.9,2.916,2.017,2.904,4.068
		c0,1.812,0,3.601-0.084,5.437s-1.068,2.819-3.12,2.483c-4.507-0.877-8.762-2.746-12.456-5.472c-2.562-1.826-4.992-3.831-7.271-6
		c-0.765-0.886-2.021-1.159-3.084-0.672c-7.771,2.557-16.161,2.531-23.916-0.072c-7.944-2.508-12.732-8.244-14.929-16.092
		c-2.563-8.915-2.691-18.354-0.371-27.336c3.287-12.636,12.863-20.4,25.932-20.988c4.241-0.188,8.49,0.091,12.672,0.828
		c9.132,1.644,15.528,7.02,18.312,15.864c3.768,12,3.6,24.071-2.041,35.651C656.884,620.932,655.541,622.987,654.084,624.96z
		 M616.236,592.116c-0.762,4.308-0.799,8.712-0.108,13.032c0.277,2.05,0.657,4.084,1.14,6.096c1.549,6.18,6,9.756,12.229,10.416
		c7.2,0.768,13.271-1.896,16.008-7.512c4.152-8.484,3.853-17.364,1.584-26.257c-1.56-6.132-6.132-9.84-12.456-10.56
		c-7.056-0.816-12.936,2.052-15.983,7.632C617.47,587.205,616.656,589.619,616.236,592.116z"/>
	<path fill="#FFFFFF" d="M702.876,504.264v43.668c0,3.828-0.252,4.104-4.068,4.488c-7.271,0.732-7.991,0.096-7.991-7.2V494.4
		c0-5.232,1.319-6.528,6.6-6.54c1.812,0,3.6,0,5.436,0c3.487-0.229,6.751,1.727,8.196,4.907
		c6.576,12.736,13.181,25.448,19.812,38.137c0.288,0.54,0.563,1.08,1.044,2.004V526.8c0-11.819,0-23.651-0.096-35.472
		c0-2.4,1.031-3.36,3.155-3.468c2.124-0.108,4.104-0.084,6.145,0c1.454-0.104,2.717,0.992,2.82,2.446
		c0.014,0.196,0.006,0.395-0.024,0.59c0,18.684,0,37.367,0,56.052c0,3.6-1.632,5.147-5.208,5.256c-1.416,0-2.845-0.096-4.248,0
		c-4.524,0.456-7.477-1.584-9.492-5.508c-7.2-14-14.424-28-21.672-42C703.157,504.544,703.021,504.399,702.876,504.264z"/>
	<path fill="#FFFFFF" d="M639.084,522.372c4.908,2.784,6.972,7.2,8.904,11.7c1.932,4.5,3.815,8.808,5.592,13.26
		c1.572,3.96,1.032,4.74-3.084,5.076c-9.252,0.756-9.276,0.731-12.732-7.849c-1.56-3.863-3.06-7.764-4.8-11.531
		c-2.868-6.108-5.855-7.608-13.008-6.696v2.868c0,6.54-0.06,13.08,0,19.62c0,2.147-0.744,3.324-2.916,3.359
		c-2.592,0-5.185,0-7.776,0c-1.358,0.131-2.566-0.865-2.696-2.225c-0.021-0.21-0.014-0.423,0.021-0.631c0-18.9,0-37.812,0-56.725
		c0-3.275,1.2-4.668,4.056-4.668c7.872,0,15.769-0.107,23.604,0.456c6.072,0.42,11.556,2.761,14.688,8.532
		c4.792,8.345,1.912,18.995-6.434,23.786c-0.698,0.401-1.423,0.753-2.17,1.054L639.084,522.372z M620.064,498v18
		c4.199,0,8.291,0.528,12.191-1.2c3.708-1.607,5.34-4.8,4.896-9.264c-0.081-3.568-2.819-6.513-6.372-6.853
		C627.324,498.204,623.784,498.24,620.064,498z"/>
	<path fill="#FFFFFF" d="M834,601.848c4.656,2.652,6.78,6.744,8.604,11.064c1.992,4.704,4.08,9.384,6,14.136
		c1.465,3.685,0.912,4.548-2.951,4.8c-2.508,0.145-5.04,0-7.549,0c-1.548,0.025-2.909-1.019-3.287-2.52
		c-1.633-4.26-3.372-8.484-5.088-12.696c-0.601-1.464-1.2-2.903-1.933-4.308c-2.903-5.844-5.94-7.404-12.936-6.432v4.571
		c0,6,0,12,0,18c0,2.172-0.78,3.312-2.94,3.349c-2.592,0-5.184,0-7.775,0c-1.776,0-2.652-0.984-2.652-2.868
		c0-18.828,0-37.656,0-56.496c0-3.769,1.2-4.944,5.027-4.908c7.477,0.072,14.977-0.072,22.429,0.456
		c6.155,0.444,11.735,2.724,14.903,8.58c5.148,9.54,1.309,20.4-8.64,24.84L834,601.848z M814.968,577.464v18
		c4.2-0.06,8.304,0.528,12.204-1.2c3.708-1.596,5.328-4.8,4.884-9.264c-0.075-3.564-2.811-6.506-6.359-6.84
		c-3.456-0.492-6.996-0.468-10.716-0.696H814.968z"/>
	<path fill="#FFFFFF" d="M763.104,617.04c-3.312,0-6.623,0.072-9.924,0c-1.089-0.197-2.132,0.525-2.329,1.614
		c-0.004,0.022-0.007,0.044-0.011,0.065c-1.02,3.385-2.256,6.708-3.216,10.116c-0.296,1.876-1.997,3.199-3.888,3.024
		c-2.4,0-4.717,0-7.068,0c-1.992-0.061-2.64-1.2-2.172-3.024c0.384-1.439,0.804-2.88,1.296-4.284
		c6.096-17.6,12.208-35.2,18.336-52.8c1.428-4.116,1.632-4.332,6-4.416c3.072-0.06,6.144,0,9.216,0.108
		c1.695-0.05,3.194,1.09,3.601,2.735c6.56,18.944,13.151,37.885,19.775,56.82c0.237,0.75,0.422,1.516,0.552,2.292
		c0.276,1.524-0.3,2.532-1.92,2.556c-3.199,0.126-6.404,0.086-9.6-0.119c-1.135-0.349-2.053-1.191-2.496-2.293
		c-1.355-3.432-2.4-6.972-3.54-10.5c-0.174-1.173-1.267-1.982-2.44-1.809c-0.019,0.003-0.037,0.006-0.056,0.009
		C769.884,617.112,766.5,617.04,763.104,617.04z M763.2,580.26l-8.748,26.305h17.496C769.044,597.816,766.212,589.332,763.2,580.26
		L763.2,580.26z"/>
	<path fill="#FFFFFF" d="M657.132,711.792c-6.624-0.072-6.624-0.072-8.7-6.288c-0.792-2.4-1.632-4.8-2.399-7.2
		c-0.172-1.031-1.138-1.735-2.172-1.584c-6.769,0-13.548,0.084-20.328,0c-1.524,0-2.028,0.637-2.4,1.896
		c-1.044,3.384-2.244,6.72-3.228,10.116c-0.309,1.713-1.864,2.916-3.601,2.783c-2.399,0-4.872,0-7.308,0
		c-1.968,0-2.64-1.199-2.184-3.012c0.336-1.296,0.695-2.58,1.14-3.84c6.176-17.848,12.368-35.684,18.576-53.508
		c1.344-3.853,1.607-4.104,5.735-4.188c3.145-0.071,6.301,0,9.456,0.084c1.695-0.049,3.194,1.091,3.601,2.736
		c6.567,18.944,13.16,37.884,19.775,56.82c0.213,0.674,0.389,1.358,0.528,2.052c0.36,1.74-0.252,2.76-2.112,2.855L657.132,711.792z
		 M633.6,660c-3.023,9.084-5.867,17.64-8.76,26.304h17.508C639.408,677.568,636.588,669.072,633.6,660z"/>
	<path fill="#FFFFFF" d="M726.192,590.964c0,6.229,0.155,12.456,0,18.672c-0.385,13.272-8.688,22.021-21.96,22.8
		c-4.551,0.249-9.115-0.045-13.597-0.875c-9.359-1.704-15.6-8.904-16.5-18.48c-0.239-2.4-0.359-4.884-0.359-7.32
		c0-11.651,0-23.315-0.061-34.979c0-2.292,0.853-3.444,3.072-3.504c2.399,0,4.884-0.072,7.32,0c2.052,0.071,3,1.08,2.987,3.312
		c-0.084,11.592-0.107,23.172,0,34.8c-0.04,2.841,0.34,5.671,1.128,8.4c1.872,5.892,7.2,8.7,14.16,7.908
		c5.718-0.634,10.158-5.276,10.536-11.017c0.192-1.8,0.276-3.6,0.288-5.424c0-11.508,0-23.004,0-34.512c0-2.4,0.96-3.36,3.12-3.408
		c2.399,0,4.884,0,7.32,0c1.859,0.072,2.735,1.021,2.712,3.048c-0.097,6.853,0,13.704,0,20.557L726.192,590.964z"/>
	<path fill="#FFFFFF" d="M869.268,603.384v17.832h2.677c6.384,0,12.768,0,19.2,0c1.363-0.199,2.631,0.745,2.83,2.109
		c0.015,0.096,0.022,0.193,0.025,0.291c0.054,0.31,0.09,0.622,0.108,0.936c0.504,6.624,0,7.128-6.505,7.128h-26.531
		c-3.948,0-5.148-1.08-5.16-5.016c0-18.04,0-36.08,0-54.12c0-4.044,1.2-5.147,5.292-5.147c9.696,0,19.38,0.06,29.076,0
		c2.399,0,3.372,0.84,3.479,3.06c0,0.396,0.096,0.792,0.12,1.2c0.36,5.628-0.228,6.264-5.748,6.264h-18.815v15.42h16.38
		c4.284,0,4.607,0.336,4.668,4.692c0,0.479,0,0.948,0,1.416c-0.132,3.6-0.54,4.032-4.128,4.032L869.268,603.384z"/>
	<path fill="#FFFFFF" d="M731.652,657.6V672.9c0.863,0,1.691,0.107,2.52,0.119c5.196,0,10.404,0,15.6,0
		c2.532,0,2.977,0.853,2.953,5.209c0,4.092-0.469,4.896-3.013,4.907c-5.364,0-10.716,0.061-16.08,0c-1.62,0-2.208,0.433-2.172,2.124
		c0.096,5.172,0,10.356,0,15.732h19.74c5.076,0,5.304,0.216,5.292,5.268c0.02,0.801-0.005,1.603-0.072,2.4
		c0.089,1.509-1.062,2.804-2.57,2.893c-0.212,0.013-0.425,0-0.634-0.037c-9.852-0.096-19.691,0-29.544,0
		c-4.212,0-5.328-1.056-5.34-5.291c0-12.528,0-25.057,0-37.584c0-5.364,0-10.717,0-16.08c0-4.213,1.2-5.316,5.352-5.328
		c9.685,0,19.381,0,29.076,0c2.172,0,3.276,0.72,3.385,2.88c0,0.24,0.071,0.468,0.096,0.708c0.684,6-0.108,6.912-6,6.912h-18.588
		V657.6z"/>
	<path fill="#FFFFFF" d="M581.676,630.912c-6.327,1.966-13.079,2.115-19.487,0.432c-1.141-0.288-2.28-0.611-3.396-0.983
		c-5.016-1.681-5.808-3.168-5.724-8.4c0.084-4.632,0.552-6.672,5.784-3.456c4.412,2.858,9.714,4.015,14.915,3.252
		c1.476-0.221,2.894-0.727,4.177-1.488c3.217-1.782,4.38-5.836,2.597-9.053c-0.363-0.657-0.836-1.248-1.396-1.747
		c-2.292-1.943-5.185-3.191-7.849-4.691c-3.6-2.053-7.572-3.601-10.8-6.168c-5.928-4.572-7.2-11.124-5.76-18.108
		c1.439-6.984,6.204-11.184,12.888-13.056c6.515-1.788,13.433-1.413,19.716,1.067c2.856,1.068,4.428,2.832,4.128,6
		c-0.12,1.2,0,2.521-0.096,3.78c-0.204,2.796-1.2,3.348-3.6,2.028c-3.864-2.053-7.812-3.805-12.312-3.504
		c-1.331,0.071-2.641,0.363-3.876,0.863c-3.091,1.195-4.627,4.67-3.432,7.761c0.289,0.748,0.726,1.431,1.283,2.008
		c1.641,1.568,3.515,2.872,5.557,3.864c3.468,1.859,7.128,3.336,10.584,5.207c7.14,3.853,10.248,9.984,9.54,18
		c-0.66,7.5-4.548,12.925-11.448,15.732C582.972,630.468,582.324,630.708,581.676,630.912z"/>
	<path fill="#FFFFFF" d="M568.884,672.624c-0.936,5.803-0.555,11.741,1.116,17.376c0.271,0.9,0.592,1.786,0.96,2.652
		c3.084,7.319,11.496,10.283,19.872,7.416c2.411-0.948,4.742-2.088,6.972-3.408c2.4-1.284,3.252-0.912,3.601,1.775
		c0.876,7.561-0.54,9.876-7.765,12.24c-6.631,2.2-13.767,2.371-20.495,0.492c-8.24-2.041-14.74-8.366-17.005-16.548
		c-3.273-9.974-3.062-20.763,0.601-30.601c5.928-16.008,21.504-19.823,33.336-17.172c2.972,0.712,5.827,1.839,8.483,3.349
		c1.319,0.931,2.234,2.33,2.557,3.912c0.344,2.019,0.376,4.079,0.096,6.107c-0.24,2.652-1.632,3.265-3.84,1.752
		c-3.288-2.256-6.72-4.176-10.8-4.512c-9.072-0.732-15.601,4.38-17.389,13.692L568.884,672.624z"/>
	<path fill="#FFFFFF" d="M684.816,685.74v13.2c0,3.144,0,6.3,0,9.456c0,1.836-0.769,2.903-2.568,2.964
		c-2.744,0.104-5.488,0.104-8.232,0c-1.764-0.072-2.628-1.093-2.628-2.952c0-18.828,0-37.656,0-56.484c0-3.6,1.284-4.8,4.885-4.8
		c9.3,0,18.588,0,27.888,0c1.522-0.259,2.966,0.765,3.226,2.287c0.03,0.18,0.043,0.362,0.038,0.545
		c0.048,0.312,0.084,0.624,0.108,0.936c0.516,6.576,0,7.2-6.492,7.2h-16.08v16.956h11.124c2.4,0,4.729,0.097,7.092,0
		c2.053-0.12,2.832,0.948,3.036,2.76c0,0.156,0,0.312,0,0.469c0.552,7.02,0.061,7.56-6.84,7.56L684.816,685.74z"/>
	<path fill="#FFFFFF" d="M856.225,514.884c3.516-7.992,7.079-15.96,10.476-24c0.638-2.016,2.585-3.32,4.692-3.144
		c2.604,0,5.207,0,7.8,0.096c1.92,0,2.495,1.2,1.932,2.868c-0.432,1.18-0.949,2.327-1.548,3.432
		c-5.316,10.632-10.68,21.24-15.948,31.884c-0.575,1.188-0.891,2.485-0.924,3.805c-0.097,6.3-0.108,12.6,0,18.912
		c0,2.256-0.78,3.468-3.06,3.492c-2.521,0-5.032,0-7.537,0c-2.039,0-2.879-1.104-2.844-3.192c0.084-5.904,0.156-11.82,0-17.724
		c-0.049-2.171-0.547-4.309-1.464-6.276c-5.016-10.332-10.235-20.568-15.384-30.84c-0.288-0.564-0.576-1.116-0.84-1.692
		c-1.776-3.768-1.309-4.607,2.76-4.8c2.124,0,4.248,0.072,6.372,0c2.664-0.096,4.14,1.2,5.16,3.6c3.18,7.536,6.528,15,9.828,22.488
		C855.828,514.224,856.08,514.608,856.225,514.884z"/>
	<path fill="#FFFFFF" d="M581.844,498.816v49.739c0,3.024-0.3,3.469-3.264,3.696c-2.256,0.168-4.548,0.061-6.828,0
		c-2.28-0.06-3.276-1.056-3.252-3.6c0.096-15.601,0-31.2,0-46.801v-3.119h-12.588c-5.004,0-5.304-0.301-5.316-5.269
		c0-0.552,0-1.104,0-1.656c0.133-3.42,0.708-3.983,4.032-3.983h41.364c2.916,0,3.527,0.588,3.756,3.6
		c0.528,6.853,0.06,7.356-6.768,7.356L581.844,498.816z"/>
	<path fill="#FFFFFF" d="M796.104,498.816h-14.399c-2.676,0-3.24-0.553-3.504-3.265c0.006-0.08,0.006-0.16,0-0.24
		c-0.504-6.936-0.072-7.403,6.744-7.403h38.532c3.047,0,3.6,0.588,3.863,3.684c0.456,6.792,0,7.2-6.66,7.2h-10.403
		c-0.292,0.05-0.581,0.118-0.864,0.204V548.4c0,3.191-0.24,3.6-3.372,3.815c-2.192,0.168-4.396,0.168-6.588,0
		c-3.024-0.228-3.324-0.66-3.324-3.6c0-15.601,0-31.2,0-46.8L796.104,498.816z"/>
	<path fill="#FFFFFF" d="M677.244,519.996v28.584c0,2.952-0.36,3.468-3.324,3.672c-2.43,0.132-4.865,0.132-7.296,0
		c-1.426,0.132-2.688-0.917-2.819-2.343c-0.021-0.22-0.013-0.44,0.023-0.657c0-19.456,0-38.904,0-58.344
		c0-1.908,0.912-2.844,2.628-2.916c2.664-0.132,5.34-0.132,8.016,0c1.98,0.072,2.82,1.2,2.809,3.275
		C677.208,500.784,677.244,510.384,677.244,519.996z"/>
	<path fill="#FFFFFF" d="M770.916,520.296c0,9.444,0,18.9,0,28.344c0,2.4-0.804,3.601-3.191,3.601c-2.389,0-4.705,0-7.068,0
		c-2.364,0-3.229-1.2-3.216-3.601c0.071-17.088,0-34.164,0-51.252c0-2.208,0.06-4.416,0-6.611c-0.232-1.306,0.638-2.552,1.942-2.783
		c0.15-0.027,0.304-0.04,0.457-0.037c2.82-0.132,5.664-0.156,8.484,0c1.932,0.096,2.508,1.416,2.508,3.288
		C770.893,500.928,770.916,510.612,770.916,520.296z"/>
</g>
</svg>
