<?xml version="1.0" encoding="utf-8"?>
<!-- Generator: Adobe Illustrator 16.0.0, SVG Export Plug-In . SVG Version: 6.00 Build 0)  -->
<!DOCTYPE svg PUBLIC "-//W3C//DTD SVG 1.1//EN" "http://www.w3.org/Graphics/SVG/1.1/DTD/svg11.dtd">
<svg version="1.1" xmlns="http://www.w3.org/2000/svg" xmlns:xlink="http://www.w3.org/1999/xlink" x="0px" y="0px"
	 width="51.033px" height="119.89px" viewBox="0 0 51.033 119.89" enable-background="new 0 0 51.033 119.89" xml:space="preserve">
<g id="BACKGROUND">
</g>
<g id="OBJECTS">
	<g>
		<g>
			<g>
				<path d="M31.586,118.969c-0.351-5.53-2.353-10.987-3.926-16.27c-1.702-5.717-2.836-11.495-3.507-17.421
					c-0.672-5.942-1.078-11.927-1.218-17.904c-0.065-2.793-0.108-5.585-0.067-8.379c0.043-2.903,0.576-5.809,0.557-8.702
					c-0.002-0.346-0.502,0.018-0.542,0.199c-0.568,2.57-0.571,5.32-0.708,7.941c-0.155,2.966-0.215,5.921-0.156,8.891
					c0.123,6.181,0.355,12.338,1.027,18.486c0.627,5.749,1.381,11.502,2.812,17.111c0.726,2.843,1.595,5.646,2.381,8.473
					c0.766,2.75,1.399,5.534,2.163,8.281C30.574,120.3,31.614,119.4,31.586,118.969L31.586,118.969z"/>
			</g>
		</g>
		<g>
			<g>
				<path d="M23.793,49.973c1.282-6.515-2.497-13.548-6.285-18.564c-2.22-2.94-4.949-5.536-8.025-7.565
					c-1.297-0.856-2.677-1.576-4.125-2.143c-0.701-0.273-1.426-0.485-2.161-0.649c-0.34-0.077-0.69-0.089-1.027-0.185
					c-0.501-0.143-0.847-0.579-1.268-0.861c-0.415-0.278-0.98,0.347-0.894,0.76c1.249,5.958,4.379,11.768,7.812,16.729
					c1.793,2.592,3.864,5.004,6.159,7.162c2.48,2.332,5.275,4.127,8.268,5.728c0.677,0.361,1.955-1.194,1.134-1.584
					c-3.01-1.426-5.8-3.033-8.316-5.229c-2.278-1.988-4.271-4.274-6.06-6.707c-1.868-2.538-3.434-5.295-4.792-8.136
					c-1.342-2.806-2.245-5.715-3.26-8.642c-0.271,0.271-0.542,0.541-0.812,0.812c0.562,0.288,1.085,0.645,1.641,0.941
					c0.574,0.306,1.421,0.368,2.046,0.577c1.564,0.525,3.029,1.333,4.397,2.245c2.878,1.917,5.283,4.449,7.433,7.136
					c4.157,5.196,7.366,11.75,7.162,18.531C22.804,50.934,23.727,50.311,23.793,49.973L23.793,49.973z"/>
			</g>
		</g>
		<g>
			<g>
				<path d="M22.204,39.491c0.463-8.009,1.784-15.844,6.307-22.656C33.675,9.057,41.958,4.396,50.489,1.117
					c-0.005-0.351-0.009-0.7-0.014-1.051c-1.16,0.562-1.515,2.078-1.797,3.215c-0.584,2.355-0.801,4.819-1.067,7.227
					c-0.636,5.729-1.54,11.208-3.617,16.616c-3.729,9.705-10.809,18.396-20.965,21.614c-0.489,0.155-0.938,0.556-1.066,1.066
					c-0.11,0.44,0.193,0.76,0.64,0.641c9.821-2.638,17.16-10.991,21.413-19.877c2.34-4.888,3.726-10.16,4.32-15.536
					c0.306-2.764,0.546-5.534,0.905-8.291c0.153-1.171,0.338-2.337,0.576-3.492c0.093-0.447,0.369-1.984,0.672-2.132
					c0.545-0.265,0.892-1.4-0.014-1.051C41.652,3.47,33.327,8.334,27.861,16.242c-4.709,6.813-7.216,15.501-6.768,23.784
					C21.132,40.749,22.178,39.951,22.204,39.491L22.204,39.491z"/>
			</g>
		</g>
		<g>
			<g>
				<path d="M23.289,49.202c1.236-0.135,1.738-1.458,2.079-2.486c0.606-1.835,0.789-3.789,1.36-5.645
					c1.615-5.24,3.72-10.416,6.591-15.099c2.631-4.289,5.809-8.208,8.67-12.339c1.39-2.007,2.744-4.069,3.869-6.237
					C47,5.198,47.86,2.857,49.989,1.407c0.51-0.347,0.387-1.169-0.264-0.713c-1.58,1.105-2.626,2.654-3.509,4.342
					c-1.11,2.122-2.182,4.186-3.52,6.182c-2.811,4.19-6.009,8.105-8.893,12.245c-2.986,4.288-5.253,8.873-7.091,13.76
					c-0.81,2.151-1.656,4.396-2.076,6.662c-0.231,1.249-0.209,3.735-1.263,4.626C23.259,48.608,22.833,49.251,23.289,49.202
					L23.289,49.202z"/>
			</g>
		</g>
		<g>
			<g>
				<path d="M1.234,21.924c3.865,3.406,5.854,8.208,8.807,12.318c1.869,2.603,4.107,4.852,6.398,7.077
					c1.153,1.12,2.294,2.266,3.234,3.575c1.002,1.396,1.72,3.012,2.439,4.564c0.359,0.774,1.83-0.427,1.49-1.066
					c-0.715-1.347-1.34-2.745-2.16-4.033c-0.879-1.383-1.958-2.552-3.109-3.71c-2.343-2.354-4.996-4.404-7.137-6.951
					c-1.774-2.11-3.073-4.594-4.518-6.929c-1.297-2.096-2.63-4.306-4.771-5.638C1.6,20.94,0.934,21.659,1.234,21.924L1.234,21.924z"
					/>
			</g>
		</g>
		<g>
			<g>
				<path d="M23.882,45.854c0.245-4.718,1.465-9.232,3.29-13.575c1.691-4.023,3.697-8.204,6.27-11.739
					c2.463-3.383,5.567-6.247,8.308-9.396c2.9-3.335,4.965-7.353,8.453-10.158c0.187-0.15,0.145-0.484-0.105-0.285
					c-3.348,2.669-5.367,6.424-8.058,9.674c-2.852,3.446-6.164,6.48-8.841,10.076c-2.742,3.684-4.831,8.011-6.602,12.23
					c-1.775,4.229-2.993,8.71-3.014,13.318C23.582,46.187,23.875,45.983,23.882,45.854L23.882,45.854z"/>
			</g>
		</g>
		<g>
			<g>
				<path d="M23.773,45.617c0.204-4.315,0.776-8.467,2.158-12.573c1.444-4.292,3.473-8.419,6.053-12.139
					c2.507-3.613,5.504-6.857,8.421-10.137c1.277-1.435,2.496-2.894,3.669-4.415c1.357-1.762,2.789-3.425,4.745-4.54
					c0.223-0.127,0.336-0.641-0.006-0.441c-3.548,2.075-5.698,5.816-8.353,8.837c-3.027,3.445-6.13,6.828-8.772,10.587
					c-4.98,7.082-8.503,16.188-8.163,24.94C23.531,45.896,23.768,45.722,23.773,45.617L23.773,45.617z"/>
			</g>
		</g>
		<g>
			<g>
				<path d="M23.628,43.689c0.186-8.686,3.375-17.266,8.253-24.414c2.394-3.508,5.308-6.639,8.164-9.768
					c2.649-2.902,4.859-6.167,8.606-7.715c0.167-0.068,0.347-0.519,0.053-0.422c-3.658,1.205-5.843,4.521-8.318,7.243
					c-2.991,3.288-6.005,6.556-8.571,10.195c-2.604,3.693-4.558,7.812-6.146,12.032c-1.564,4.157-2.474,8.536-2.333,12.988
					C23.341,44.016,23.626,43.816,23.628,43.689L23.628,43.689z"/>
			</g>
		</g>
		<g>
			<g>
				<path d="M23.334,42.588c-0.037-8.353,3.018-15.928,7.25-23.004c1.937-3.237,4.185-6.275,6.792-9.005
					c1.359-1.422,2.855-2.704,4.282-4.057c1.607-1.524,3.261-2.955,5.243-3.974c0.21-0.108,0.338-0.573-0.006-0.412
					c-1.717,0.804-3.172,1.982-4.571,3.247C40.759,6.8,39.191,8.237,37.69,9.721c-2.922,2.886-5.359,6.22-7.485,9.723
					c-4.251,7.008-7.689,14.97-7.241,23.322C22.976,43,23.335,42.75,23.334,42.588L23.334,42.588z"/>
			</g>
		</g>
		<g>
			<g>
				<path d="M23.055,41.852c0.061-3.856,0.341-7.663,1.32-11.406c0.98-3.748,2.784-7.21,4.729-10.538
					c3.9-6.674,9.243-12.168,15.529-16.63c0.257-0.183,0.207-0.597-0.137-0.369c-6.367,4.229-11.67,10.05-15.596,16.575
					c-1.944,3.232-3.677,6.619-4.777,10.235c-1.199,3.942-1.644,8.177-1.381,12.283C22.755,42.202,23.053,41.985,23.055,41.852
					L23.055,41.852z"/>
			</g>
		</g>
		<g>
			<g>
				<path d="M22.967,40.687c-0.171-3.553,0.062-7.098,0.874-10.565c0.806-3.445,2.311-6.628,4.012-9.711
					c1.718-3.113,3.746-6.06,6.086-8.739c2.494-2.857,5.589-4.834,8.511-7.194c0.173-0.14,0.154-0.438-0.1-0.268
					c-3.013,2.021-5.938,4.182-8.387,6.874c-2.37,2.605-4.368,5.525-6.131,8.567c-3.813,6.578-5.809,13.549-5.167,21.183
					C22.68,41.023,22.973,40.821,22.967,40.687L22.967,40.687z"/>
			</g>
		</g>
		<g>
			<g>
				<path d="M48.567,1.725c0.735-0.345,0.544,0.266,0.43,0.747c-0.116,0.485-0.248,0.965-0.39,1.443
					c-0.324,1.096-0.774,2.149-1.259,3.183c-1.032,2.198-2.357,4.253-3.725,6.255c-2.562,3.754-5.346,7.326-7.726,11.207
					c-2.575,4.196-4.843,8.576-7.008,12.996c-0.76,1.553-1.348,3.064-1.866,4.711c-0.489,1.557-0.948,3.883-2.279,4.971
					c-0.247,0.202-0.186,0.647,0.14,0.379c0.992-0.818,1.45-2.106,1.881-3.277c0.604-1.642,0.997-3.363,1.675-4.977
					c2.069-4.918,4.804-9.724,7.559-14.284c2.505-4.146,5.483-7.94,8.214-11.932c2.332-3.41,5.14-7.617,5.344-11.879
					c0.003-0.066-0.064-0.096-0.12-0.078c-0.34,0.106-0.588,0.256-0.887,0.447C48.507,1.665,48.495,1.759,48.567,1.725L48.567,1.725
					z"/>
			</g>
		</g>
		<g>
			<g>
				<path d="M49.647,2.274c-0.718,0.311-0.986,1.53-1.208,2.184c-0.526,1.544-0.864,3.131-1.551,4.615
					c-2.252,4.872-5.566,9.1-8.43,13.606c-2.564,4.038-4.84,8.253-6.809,12.612c-0.961,2.129-1.764,4.316-2.665,6.47
					c-1.021,2.438-2.389,4.372-4.479,6.003c-0.217,0.169-0.194,0.512,0.12,0.324c3.56-2.125,4.794-6.309,6.27-9.912
					c1.916-4.678,4.224-9.188,6.832-13.515c2.535-4.207,5.555-8.101,7.972-12.379c0.946-1.675,1.855-3.402,2.407-5.251
					c0.241-0.808,0.468-1.62,0.718-2.426c0.138-0.446,0.358-1.794,0.827-2.027C49.808,2.501,49.906,2.162,49.647,2.274L49.647,2.274
					z"/>
			</g>
		</g>
		<g>
			<g>
				<path d="M48.985,3.589c-0.975,8.713-7.473,15.129-10.968,22.853c-1.881,4.157-3.204,8.54-5.122,12.683
					c-1.748,3.774-3.858,7.338-7.833,8.999c-0.241,0.102-0.37,0.585,0.006,0.441c3.388-1.297,5.36-4.003,7.077-7.072
					c2.443-4.369,3.86-9.227,5.773-13.831c1.862-4.483,4.597-8.42,7.098-12.552c2.112-3.489,4.259-7.493,4.297-11.679
					C49.315,3.218,49,3.457,48.985,3.589L48.985,3.589z"/>
			</g>
		</g>
		<g>
			<g>
				<path d="M48.393,7.343c0.204,8.075-6.649,13.68-9.909,20.453c-1.766,3.67-2.845,7.629-4.47,11.359
					c-1.72,3.952-4.314,6.883-7.471,9.749c-0.177,0.161-0.058,0.433,0.16,0.254c2.871-2.351,5.332-5.059,6.997-8.396
					c2.02-4.047,3.173-8.45,5.029-12.566c3.133-6.944,10.557-12.768,10.009-21.02C48.724,6.959,48.39,7.19,48.393,7.343
					L48.393,7.343z"/>
			</g>
		</g>
		<g>
			<g>
				<path d="M47.657,14.008c-2.447,5.296-6.207,9.857-8.471,15.249c-2.206,5.253-3.373,11.211-7.516,15.358
					c-0.074,0.074-0.075,0.229,0.062,0.166c1.844-0.83,2.895-3.352,3.715-5.055c1.437-2.981,2.447-6.108,3.616-9.198
					c2.237-5.91,6.378-10.763,8.911-16.517C48.093,13.745,47.735,13.838,47.657,14.008L47.657,14.008z"/>
			</g>
		</g>
		<g>
			<g>
				<path d="M47.452,16.593c-2.232,4.405-4.681,8.693-6.933,13.088c-1.098,2.143-2.101,4.331-2.968,6.577
					c-0.843,2.178-1.544,4.336-2.853,6.293c-0.121,0.181,0.071,0.271,0.199,0.126c1.246-1.424,1.857-3.278,2.494-5.029
					c0.89-2.448,1.926-4.829,3.079-7.165c2.308-4.675,5.111-9.108,7.209-13.888C47.765,16.401,47.51,16.476,47.452,16.593
					L47.452,16.593z"/>
			</g>
		</g>
		<g>
			<g>
				<path d="M46.339,21.008c-1.478,2.985-3.039,5.894-4.662,8.804c-0.812,1.455-1.583,2.931-2.278,4.445
					c-0.735,1.6-1.266,3.195-2.181,4.717c-0.092,0.153,0.055,0.226,0.165,0.104c0.949-1.03,1.429-2.352,1.916-3.644
					c0.63-1.672,1.463-3.256,2.312-4.825c1.713-3.162,3.798-6.243,5.028-9.639C46.716,20.759,46.392,20.9,46.339,21.008
					L46.339,21.008z"/>
			</g>
		</g>
		<g>
			<g>
				<path d="M2.908,22.413c2.088,0.264,3.501,2.475,4.522,4.097c1.2,1.907,2.135,3.965,3.212,5.94
					c1.377,2.527,3.459,4.562,5.468,6.586c1.115,1.124,2.223,2.262,3.172,3.531c1.087,1.455,1.9,3.079,2.72,4.691
					c0.12,0.236,0.551-0.128,0.459-0.33c-1.405-3.069-3.263-5.618-5.618-8.024c-2.201-2.251-4.435-4.429-5.935-7.232
					c-1.093-2.042-2.086-4.128-3.358-6.069c-1.004-1.531-2.473-3.482-4.495-3.496C2.924,22.105,2.71,22.388,2.908,22.413
					L2.908,22.413z"/>
			</g>
		</g>
		<g>
			<g>
				<path d="M5.179,23.118c1.933,0.448,3.294,2.139,4.396,3.674c1.343,1.869,2.369,3.96,3.382,6.02
					c1.161,2.358,2.546,4.565,4.034,6.73c1.731,2.52,4.031,5.043,4.995,7.979c0.085,0.261,0.564-0.124,0.493-0.354
					c-0.833-2.699-2.923-5.047-4.517-7.331c-1.764-2.529-3.367-5.116-4.735-7.88c-1.005-2.03-2.068-4.037-3.394-5.878
					c-1.084-1.505-2.511-3.043-4.422-3.35C5.256,22.704,4.985,23.073,5.179,23.118L5.179,23.118z"/>
			</g>
		</g>
		<g>
			<g>
				<path d="M7.461,24.405c3.861,1.513,5.611,6.076,7.492,9.432c2.669,4.763,6.106,9.132,7.574,14.486
					c0.062,0.224,0.445-0.108,0.41-0.293c-0.515-2.682-2.05-5.338-3.351-7.715c-1.326-2.422-2.984-4.644-4.334-7.05
					c-1.873-3.337-3.64-7.821-7.582-9.151C7.537,24.069,7.306,24.345,7.461,24.405L7.461,24.405z"/>
			</g>
		</g>
		<g>
			<g>
				<path d="M1.57,22.005c3.516,4.622,6.192,9.794,9.365,14.644c1.585,2.422,3.337,4.722,5.327,6.827
					c1.992,2.107,4.446,3.718,6.342,5.912c0.158,0.184,0.581-0.229,0.423-0.422c-1.826-2.232-4.347-3.831-6.362-5.894
					c-2.021-2.067-3.733-4.424-5.323-6.831c-3.193-4.836-5.856-9.989-9.448-14.559C1.781,21.539,1.455,21.853,1.57,22.005
					L1.57,22.005z"/>
			</g>
		</g>
		<g>
			<g>
				<path d="M1.33,21.702c0.795,2.921,2.843,5.219,4.182,7.883c1.418,2.819,2.804,5.642,4.633,8.223
					c1.808,2.551,3.965,4.812,6.168,7.02c1.859,1.861,4.167,3.737,6.777,4.38c0.172,0.042,0.497-0.29,0.282-0.395
					c-1.286-0.622-2.546-1.136-3.739-1.943c-1.162-0.787-2.201-1.747-3.201-2.726c-2.141-2.097-4.152-4.283-5.91-6.714
					c-1.909-2.642-3.294-5.608-4.747-8.513c-1.273-2.546-3.251-4.69-4.142-7.432C1.581,21.322,1.292,21.562,1.33,21.702L1.33,21.702
					z"/>
			</g>
		</g>
	</g>
</g>
<g id="DESIGNED_BY_FREEPIK">
</g>
</svg>
