<?xml version="1.0" encoding="utf-8"?>
<!-- Generator: Adobe Illustrator 16.0.0, SVG Export Plug-In . SVG Version: 6.00 Build 0)  -->
<!DOCTYPE svg PUBLIC "-//W3C//DTD SVG 1.1//EN" "http://www.w3.org/Graphics/SVG/1.1/DTD/svg11.dtd">
<svg version="1.1" xmlns="http://www.w3.org/2000/svg" xmlns:xlink="http://www.w3.org/1999/xlink" x="0px" y="0px" width="24.52px"
	 height="53.278px" viewBox="0 0 24.52 53.278" enable-background="new 0 0 24.52 53.278" xml:space="preserve">
<g id="BACKGROUND">
</g>
<g id="OBJECTS">
	<g>
		<g>
			<g>
				<path d="M9.656,46.556c-2.738-0.838-6.908-3.636-5.485-6.954c0.774-1.804,2.799,1.506,3.136,2.069
					c1.025,1.716,1.502,3.674,2.062,5.579c0.129,0.437,0.916-0.207,0.82-0.587c-0.621-2.464-1.231-4.806-2.834-6.82
					c-0.852-1.071-2.253-2.177-3.402-0.866c-1.299,1.483-1.023,3.721-0.085,5.279c1.089,1.809,3.104,3.02,5.148,3.372
					C9.432,47.699,10.197,46.721,9.656,46.556L9.656,46.556z"/>
			</g>
		</g>
		<g>
			<g>
				<path d="M9.259,46.79c-1.285,0.402-2.648,1.407-2.693,2.89c-0.006,0.199,0.187,0.268,0.352,0.227
					c0.674-0.167,1.301-0.465,1.838-0.908c0.271-0.224,0.503-0.477,0.722-0.75c0.254-0.317,0.313-0.612,0.436-0.981
					c0.105-0.321-0.357-0.158-0.45-0.007c-0.524,0.858-1.339,1.514-2.32,1.747c0.099,0.151,0.196,0.303,0.294,0.455
					c0.159-0.407,0.244-0.822,0.537-1.163c0.309-0.358,0.756-0.552,1.187-0.716C9.483,47.46,9.812,46.616,9.259,46.79L9.259,46.79z"
					/>
			</g>
		</g>
		<g>
			<g>
				<path d="M9.302,47.501c-0.059,0.466-0.208,1.003-0.082,1.469c0.124,0.461,0.503,0.687,0.928,0.845
					c0.199,0.074,0.417-0.116,0.526-0.259c0.361-0.475,0.709-1.008,0.7-1.627c-0.008-0.56-0.456-1.005-0.842-1.351
					c-0.221-0.197-0.696,0.28-0.506,0.506c0.269,0.318,0.538,0.66,0.598,1.085c0.062,0.445-0.241,0.854-0.489,1.188
					c0.176-0.086,0.351-0.173,0.526-0.259c-0.377-0.133-0.708-0.305-0.756-0.736c-0.043-0.392,0.059-0.812,0.102-1.2
					c0.023-0.208-0.235-0.198-0.356-0.14C9.458,47.114,9.327,47.292,9.302,47.501L9.302,47.501z"/>
			</g>
		</g>
		<g>
			<g>
				<path d="M10.056,47.358c0.042-0.042,0.084-0.083,0.125-0.125c0.309-0.309,0.005-0.612-0.303-0.304
					c-0.042,0.042-0.084,0.083-0.125,0.125C9.444,47.363,9.748,47.667,10.056,47.358L10.056,47.358z"/>
			</g>
		</g>
		<g>
			<g>
				<path d="M9.877,47.984c0.455,0.551,1.264,0.927,1.875,1.27c0.549,0.308,1.576,0.902,2.189,0.416
					c0.758-0.599,0.398-1.625-0.224-2.198c-0.431-0.396-1.091-0.485-1.647-0.531c-0.747-0.062-1.705-0.158-2.425,0.052
					c-0.301,0.087-0.886,0.662-0.446,0.925c0.406,0.243,0.986,0.122,1.442,0.105c0.521-0.02,1.034-0.022,1.553,0.031
					c0.561,0.058,0.982,0.352,1.228,0.854c0.054,0.111,0.101,0.236,0.116,0.359c-0.043-0.338,0.499-0.202,0.011-0.247
					c-0.972-0.089-2.477-0.85-3.117-1.592C10.225,47.189,9.668,47.732,9.877,47.984L9.877,47.984z"/>
			</g>
		</g>
		<g>
			<g>
				<path d="M11.177,47.305c2.977-0.138,9.146-4.661,6.191-7.937C16,37.851,13.962,38.923,12.9,40.181
					c-1.701,2.017-2.471,4.527-2.013,7.146c0.09,0.515,1.142-0.227,1.033-0.74c-0.433-2.063-0.225-3.801,0.915-5.563
					c0.429-0.662,0.976-1.258,1.686-1.616c0.986-0.497,1.725,0.469,2.118,1.251c1.306,2.598-2.973,5.433-5.12,5.713
					C11.165,46.418,10.617,47.331,11.177,47.305L11.177,47.305z"/>
			</g>
		</g>
		<g>
			<g>
				<path d="M7.939,40.372c-0.302-0.587-0.576-1.215-0.291-1.859c0.257-0.582,1.06-0.779,1.625-0.813
					c1.625-0.099,3.27,1.316,2.979,3.035c-0.07,0.414,0.561,0.111,0.562-0.207c0.002-1.251,0.086-2.39-1.04-3.205
					c-0.778-0.564-1.753-0.626-2.662-0.415c-1.843,0.429-2.907,2.334-1.993,4.051C7.343,41.377,8.119,40.723,7.939,40.372
					L7.939,40.372z"/>
			</g>
		</g>
		<g>
			<g>
				<path d="M9.099,46.335c-0.113-0.24-0.558-0.36-0.77-0.54c-0.488-0.416-0.876-0.95-1.245-1.471
					c-0.68-0.959-1.128-2.228-1.905-3.101c-0.104-0.117-0.343,0.118-0.323,0.233c0.169,1.026,2.799,5.946,4.163,5.042
					C9.061,46.471,9.126,46.392,9.099,46.335L9.099,46.335z"/>
			</g>
		</g>
		<g>
			<g>
				<path d="M9.1,46.053c-0.235-0.336-0.457-0.682-0.665-1.036c-0.16-0.274-0.274-0.573-0.511-0.788
					c-0.078-0.071-0.234,0.074-0.222,0.159c0.107,0.701,0.687,1.4,1.091,1.971C8.891,46.498,9.205,46.203,9.1,46.053L9.1,46.053z"/>
			</g>
		</g>
		<g>
			<g>
				<path d="M11.918,46.255c0.337-1.775,1.211-3.07,2.431-4.354c0.075-0.079,0.084-0.278-0.071-0.188
					c-1.54,0.887-2.375,2.939-2.637,4.612C11.607,46.531,11.894,46.385,11.918,46.255L11.918,46.255z"/>
			</g>
		</g>
		<g>
			<g>
				<path d="M11.907,46.245c0.571-0.412,1.112-0.856,1.615-1.35c0.452-0.442,1.005-0.991,1.218-1.596
					c0.051-0.143-0.144-0.089-0.196-0.036c-0.438,0.444-0.771,0.991-1.208,1.444c-0.463,0.479-0.983,0.9-1.519,1.294
					C11.65,46.125,11.687,46.404,11.907,46.245L11.907,46.245z"/>
			</g>
		</g>
		<g>
			<g>
				<path d="M10.521,47.068c0.064-1.081-0.221-2.083-0.312-3.155c-0.09-1.054,0.117-2.116-0.006-3.166
					c-0.013-0.112-0.166,0.002-0.178,0.065c-0.169,0.924-0.182,1.872-0.185,2.811c-0.004,1.209,0.414,2.353,0.448,3.557
					C10.293,47.329,10.515,47.165,10.521,47.068L10.521,47.068z"/>
			</g>
		</g>
		<g>
			<g>
				<path d="M10.527,36.814c-0.951-2.179-0.333-4.297,0.778-6.273c0.091-0.162-0.135-0.126-0.201-0.035
					c-1.353,1.856-1.715,4.327-0.741,6.426C10.402,37.018,10.56,36.888,10.527,36.814L10.527,36.814z"/>
			</g>
		</g>
		<g>
			<g>
				<path d="M11.781,37.396c-0.043-0.493,0.023-0.939,0.224-1.394c0.14-0.315,0.377-0.577,0.491-0.901
					c0.038-0.106-0.104-0.06-0.141-0.026c-0.654,0.583-0.926,1.6-0.828,2.443C11.546,37.678,11.792,37.509,11.781,37.396
					L11.781,37.396z"/>
			</g>
		</g>
		<g>
			<g>
				<path d="M12.513,38.122c0.171-0.26,0.353-0.518,0.505-0.789c0.082-0.146-0.104-0.145-0.18-0.068
					c-0.222,0.227-0.371,0.511-0.542,0.776C12.165,38.244,12.41,38.279,12.513,38.122L12.513,38.122z"/>
			</g>
		</g>
		<g>
			<g>
				<path d="M9.072,37.438c0.047-0.896,0.018-1.907-0.45-2.703c-0.084-0.143-0.297,0.075-0.27,0.193
					c0.204,0.886,0.404,1.718,0.466,2.631C8.829,37.726,9.067,37.542,9.072,37.438L9.072,37.438z"/>
			</g>
		</g>
		<g>
			<g>
				<path d="M8.155,37.563c-0.015-0.978-1.116-1.925-2.1-1.671c-0.054,0.014-0.217,0.176-0.102,0.212
					c0.431,0.137,0.807,0.145,1.194,0.417c0.419,0.294,0.6,0.725,0.76,1.189C7.954,37.844,8.156,37.648,8.155,37.563L8.155,37.563z"
					/>
			</g>
		</g>
	</g>
	<g>
		<g>
			<g>
				<path d="M11.657,18.381c-1.925-0.365-3.688-1.037-4.979-2.57c-1.307-1.549-3.592-6.163,0.066-6.515
					c1.626-0.156,2.625,2.323,3.095,3.49c0.824,2.053,0.958,4.18,1.408,6.323c0.114,0.544,1.282-0.233,1.107-0.794
					c-0.705-2.272-2.089-12.222-6.655-9.256c-2.361,1.534-1.504,4.31-0.581,6.491c1.079,2.552,3.354,3.468,5.935,3.846
					C11.464,19.457,12.153,18.475,11.657,18.381L11.657,18.381z"/>
			</g>
		</g>
		<g>
			<g>
				<path d="M12.238,15.666c0.186-1.907,0.494-3.834,1.638-5.424c1.258-1.747,4.668-2.151,4.169,0.739
					c-0.267,1.544-1.349,2.977-2.312,4.16c-1.141,1.4-2.555,2.144-4.046,3.123c-0.771,0.505-0.579,1.735,0.395,1.063
					c1.106-0.764,2.161-1.412,3.075-2.412c0.716-0.784,1.38-1.623,1.988-2.491c1.048-1.497,2.434-3.603,1.716-5.508
					c-0.844-2.237-4.002-0.555-5.067,0.488c-1.688,1.655-1.977,4.289-2.096,6.521C11.68,16.261,12.216,15.896,12.238,15.666
					L12.238,15.666z"/>
			</g>
		</g>
		<g>
			<g>
				<path d="M9.702,10.103c0.074-1.023,0.567-1.432,1.589-1.511c0.839-0.066,1.735,0.232,2.188,0.971
					c0.299,0.488,1.148-0.263,0.979-0.7c-1.047-2.689-6.786-0.989-5.543,1.71C9.112,11.002,9.683,10.366,9.702,10.103L9.702,10.103z
					"/>
			</g>
		</g>
		<g>
			<g>
				<path d="M10.827,18.443c-1.547,0.384-2.694,2.218-2.662,3.742c0.005,0.216,0.138,0.298,0.33,0.33
					c2.047,0.339,3.315-1.885,3.691-3.586c0.147-0.669-0.741-0.213-0.893,0.112c-0.694,1.49,0.223,2.943,1.928,2.767
					c0.379-0.039,0.733-0.367,0.758-0.758c0.08-1.29-1.059-2.107-2.179-2.47c-0.414-0.134-1.15,0.664-0.666,0.932
					c0.85,0.47,1.899,0.879,1.821,2.03c0.253-0.253,0.505-0.505,0.758-0.758c-0.795,0.093-2.302-0.55-1.646-1.609
					c-0.258-0.045-0.516-0.09-0.773-0.135c-0.392,0.859-0.838,2.479-2.055,2.226c0.065,0.103,0.132,0.205,0.197,0.307
					c0.021-1.14,0.762-1.734,1.513-2.463C11.154,18.912,11.312,18.323,10.827,18.443L10.827,18.443z"/>
			</g>
		</g>
		<g>
			<g>
				<path d="M11.36,18.458c-1.351-0.642-2.537-1.491-3.579-2.561c-1.176-1.207-1.647-2.611-2.299-4.104
					c-0.056-0.128-0.246,0.058-0.243,0.145c0.093,3.163,3.186,5.754,5.877,6.861C11.268,18.863,11.538,18.543,11.36,18.458
					L11.36,18.458z"/>
			</g>
		</g>
		<g>
			<g>
				<path d="M11.607,18.463c-2.232-1.243-2.844-3.597-3.659-5.814c-0.061-0.165-0.298,0.078-0.301,0.179
					c-0.05,2.109,1.655,5.262,3.722,5.967C11.518,18.846,11.779,18.559,11.607,18.463L11.607,18.463z"/>
			</g>
		</g>
		<g>
			<g>
				<path d="M11.935,18.006c1.457-2.499,3.631-5.178,4.294-8.031c0.04-0.171-0.18-0.042-0.22,0.027
					c-0.718,1.262-1.283,2.611-1.992,3.883c-0.771,1.38-1.595,2.729-2.35,4.117C11.549,18.219,11.859,18.136,11.935,18.006
					L11.935,18.006z"/>
			</g>
		</g>
		<g>
			<g>
				<path d="M12.225,17.824c1.673-1.334,3.439-3.123,4.383-5.068c0.073-0.152-0.109-0.162-0.188-0.071
					c-1.453,1.658-2.55,3.462-4.292,4.875C11.955,17.7,11.993,18.008,12.225,17.824L12.225,17.824z"/>
			</g>
		</g>
		<g>
			<g>
				<path d="M11.447,15.559c0.106-1.542,0.508-3.306,0.232-4.834c-0.024-0.136-0.246,0.055-0.259,0.125
					c-0.27,1.546-0.345,3.284-0.267,4.851C11.164,15.892,11.439,15.679,11.447,15.559L11.447,15.559z"/>
			</g>
		</g>
		<g>
			<g>
				<path d="M9.3,9.445C9.365,8.75,9.383,8.052,9.443,7.357c0.08-0.925,0.512-1.743,0.83-2.598c0.322-0.866,0.362-1.813-0.581-2.24
					C9.608,2.481,9.431,2.661,9.516,2.728c1.244,0.97,0.311,2.278-0.072,3.452c-0.369,1.13-0.352,2.208-0.392,3.385
					C9.047,9.72,9.29,9.549,9.3,9.445L9.3,9.445z"/>
			</g>
		</g>
		<g>
			<g>
				<path d="M11.321,8.15c-0.356-0.607-0.345-1.183-0.098-1.832c0.065-0.172-0.133-0.133-0.201-0.035
					c-0.448,0.638-0.399,1.432,0.008,2.076C11.12,8.502,11.393,8.27,11.321,8.15L11.321,8.15z"/>
			</g>
		</g>
		<g>
			<g>
				<path d="M12.448,8.036c0.44-0.617,1.08-1.733,0.533-2.462c-0.037-0.049-0.122,0.048-0.12,0.086
					c0.018,0.375,0.065,0.706-0.001,1.083c-0.079,0.448-0.328,0.863-0.582,1.23C12.17,8.129,12.363,8.154,12.448,8.036L12.448,8.036
					z"/>
			</g>
		</g>
		<g>
			<g>
				<path d="M14.433,8.941c-0.309-1.979,0.795-3.95-1.062-5.443c-0.057-0.045-0.184,0.063-0.147,0.125
					c0.605,0.994,1.139,1.667,0.979,2.883c-0.116,0.885-0.186,1.702-0.027,2.59C14.195,9.221,14.449,9.048,14.433,8.941
					L14.433,8.941z"/>
			</g>
		</g>
		<g>
			<g>
				<path d="M8.914,9.454C8.134,8.419,8.005,7.352,8.168,6.1c0.023-0.184-0.203-0.036-0.234,0.059
					C7.524,7.384,7.914,8.692,8.688,9.68C8.766,9.78,8.995,9.561,8.914,9.454L8.914,9.454z"/>
			</g>
		</g>
		<g>
			<g>
				<path d="M14.5,8.954c0.527-0.455,1.048-1.035,1.194-1.736c0.043-0.205-0.228-0.067-0.273,0.035
					c-0.27,0.596-0.591,1.1-1.069,1.552C14.193,8.955,14.342,9.091,14.5,8.954L14.5,8.954z"/>
			</g>
		</g>
	</g>
</g>
<g id="DESIGNED_BY_FREEPIK">
</g>
</svg>
