<?xml version="1.0" encoding="utf-8"?>
<!-- Generator: Adobe Illustrator 16.0.0, SVG Export Plug-In . SVG Version: 6.00 Build 0)  -->
<!DOCTYPE svg PUBLIC "-//W3C//DTD SVG 1.1//EN" "http://www.w3.org/Graphics/SVG/1.1/DTD/svg11.dtd">
<svg version="1.1" xmlns="http://www.w3.org/2000/svg" xmlns:xlink="http://www.w3.org/1999/xlink" x="0px" y="0px"
	 width="32.138px" height="156.586px" viewBox="0 0 32.138 156.586" enable-background="new 0 0 32.138 156.586"
	 xml:space="preserve">
<g id="BACKGROUND">
</g>
<g id="OBJECTS">
	<g>
		<g>
			<g>
				<path d="M12.541,11.109c1.337,7.97-1.309,15.52-1.868,23.401c-0.582,8.193-0.45,16.427-0.395,24.634
					c0.053,7.937-0.013,15.854,0.467,23.782c0.459,7.582,1.296,15.137,2.445,22.645c1.287,8.409,2.989,16.752,4.973,25.022
					c2.084,8.687,4.416,17.373,7.428,25.786c0.221,0.618,1.265-0.304,1.136-0.814c-1.915-7.567-4.118-15.059-5.997-22.636
					c-1.82-7.338-3.438-14.725-4.76-22.169c-2.7-15.196-4.053-30.621-3.955-46.056c0.06-9.338-0.281-18.673,0.096-28.009
					c0.185-4.57,0.922-9.003,1.563-13.523c0.587-4.136,0.874-8.406-0.574-12.397C12.998,10.492,12.505,10.896,12.541,11.109
					L12.541,11.109z"/>
			</g>
		</g>
		<g>
			<g>
				<path d="M23.918,144.102c-0.015-7.167-0.908-14.663,1.032-21.667c0.391-1.41,1.066-2.949,2.326-3.786
					c1.079-0.716,2.823-0.604,3.51,0.578c0.805,1.386,0.383,3.403,0.084,4.866c-0.436,2.13-1.158,4.205-1.925,6.235
					c-1.744,4.613-3.966,9.036-5.729,13.637c-0.429,1.118,1.031,0.57,1.285-0.161c1.504-4.321,3.392-8.488,5.037-12.754
					c1.299-3.368,3.035-7.482,2.502-11.174c-0.411-2.85-3.528-3.135-5.48-1.509c-2.5,2.083-3.158,6.048-3.562,9.074
					c-0.758,5.675-0.365,11.39,0.07,17.068C23.109,145.054,23.918,144.47,23.918,144.102L23.918,144.102z"/>
			</g>
		</g>
		<g>
			<g>
				<path d="M19.665,133.478c-0.388-3.661-2.413-6.875-4.751-9.62c-1.272-1.493-2.743-2.825-4.276-4.046
					c-1.278-1.018-2.915-2.268-4.521-2.678c-0.128-0.033-0.416,0.204-0.277,0.325c1.18,1.025,2.622,1.818,3.853,2.802
					c1.432,1.144,2.744,2.433,3.964,3.797c2.439,2.729,4.821,6.027,5.332,9.744C19.046,134.229,19.696,133.779,19.665,133.478
					L19.665,133.478z"/>
			</g>
		</g>
		<g>
			<g>
				<path d="M3.726,116.213c-1.533-0.847-3.107-1.05-3.587,0.965c-0.445,1.869,0.227,4.243,1.351,5.749
					c1.937,2.595,5.327,3.739,8.178,4.974c1.704,0.737,3.266,1.568,4.684,2.778c0.767,0.655,1.462,1.393,2.135,2.144
					c0.652,0.728,1.194,1.823,2.1,2.219c0.398,0.174,1.062-0.45,0.996-0.852c-0.228-1.401-1.755-2.62-2.732-3.582
					c-1.061-1.044-2.216-1.92-3.519-2.635c-2.429-1.333-5.112-2.128-7.59-3.364c-2.196-1.096-3.972-2.63-4.708-5.006
					c-0.27-0.871-0.448-1.84-0.285-2.747c0.266-1.479,1.94-0.914,2.844-0.457C3.672,116.439,3.82,116.265,3.726,116.213
					L3.726,116.213z"/>
			</g>
		</g>
		<g>
			<g>
				<path d="M17.188,118.299c0.232-3.576,0.108-7.164,0.354-10.741c0.15-2.183,0.435-4.359,0.976-6.48
					c0.425-1.666,1.087-3.552,2.465-4.675c1.086-0.886,3.206-1.26,4.197-0.046c0.982,1.202,0.012,3.479-0.479,4.67
					c-1.317,3.196-3.264,6.391-5.415,9.104c-1.889,2.382-3.296,4.982-2.743,8.117c0.118,0.665,1.246-0.309,1.252-0.747
					c0.022-1.518,0.007-2.943,0.619-4.364c0.553-1.285,1.451-2.347,2.219-3.499c0.802-1.204,1.594-2.412,2.332-3.656
					c1.023-1.726,1.982-3.497,2.7-5.374c0.512-1.341,1.023-2.903,0.651-4.342c-0.356-1.378-1.912-1.69-3.137-1.57
					c-1.472,0.145-2.665,1.01-3.589,2.114c-2.428,2.902-2.815,7.388-3.089,10.995c-0.276,3.628-0.042,7.219-0.037,10.843
					C16.464,119.107,17.169,118.604,17.188,118.299L17.188,118.299z"/>
			</g>
		</g>
		<g>
			<g>
				<path d="M13.812,99.319c-0.206-3.441-2.266-6.445-4.288-9.106c-1.885-2.479-4.694-5.263-8.037-5.241
					c-0.232,0.001-0.416,0.213-0.485,0.415c-1.076,3.138-0.229,5.835,2.392,7.832c2.588,1.971,5.757,3.006,8.28,5.071
					c0.446,0.365,1.394-0.622,0.97-0.969C8.352,93.807-0.99,92.853,1.65,85.225c-0.162,0.139-0.323,0.276-0.485,0.415
					c3.268-0.009,5.902,2.785,7.755,5.176c1.947,2.512,3.482,5.793,4.265,8.877C13.269,100.021,13.825,99.549,13.812,99.319
					L13.812,99.319z"/>
			</g>
		</g>
		<g>
			<g>
				<path d="M12.502,82.475c0.312-3.082,3.638-17.338,8.652-13.532c3.209,2.436-1.871,6.51-3.67,8.004
					c-2.037,1.691-6.059,3.954-5.523,7.115c0.118,0.694,1.054-0.065,1.063-0.512c0.045-2.117,1.2-3.115,2.714-4.359
					c1.53-1.258,3.072-2.507,4.473-3.91c2.004-2.009,4.501-5.705,0.915-7.576c-3.054-1.593-5.463,2.553-6.492,4.746
					c-1.445,3.081-2.372,6.527-2.778,9.904c-0.018,0.149-0.031,0.3-0.041,0.45C11.791,83.229,12.473,82.766,12.502,82.475
					L12.502,82.475z"/>
			</g>
		</g>
		<g>
			<g>
				<path d="M11.261,65.931c0.284-3.445-1.219-7.394-2.997-10.271c-0.818-1.324-1.931-2.673-3.503-3.069
					c-1.228-0.309-2.954,0.031-3.879,0.92c-1.994,1.916,1.198,5.291,2.428,6.647c0.904,0.997,1.883,1.961,2.946,2.79
					c0.779,0.607,1.666,1.059,2.476,1.62c1.087,0.753,1.394,1.657,1.624,2.908c0.098,0.536,0.932-0.272,0.958-0.571
					c0.157-1.805-1.139-2.896-2.545-3.743c-1.132-0.682-2.131-1.374-3.107-2.258c-1.669-1.51-4.455-3.928-4.513-6.375
					c-0.033-1.38,2.495-1.203,3.325-0.896c1.475,0.545,2.49,2.142,3.212,3.443c1.491,2.688,2.658,6.171,2.706,9.272
					C10.399,66.911,11.231,66.287,11.261,65.931L11.261,65.931z"/>
			</g>
		</g>
		<g>
			<g>
				<path d="M11.422,50.545c0.628-2.87,1.607-5.732,2.674-8.464c0.647-1.658,1.364-3.314,2.315-4.824
					c0.611-0.971,1.562-2.399,2.871-2.31c1.489,0.102,2.437,1.934,2.114,3.24c-0.459,1.863-2.443,3.4-3.842,4.559
					c-2.513,2.08-6.893,4.715-6.7,8.487c0.038,0.743,1.063-0.104,1.111-0.534c0.285-2.521,1.952-4.095,3.799-5.628
					c1.655-1.374,3.358-2.728,4.781-4.35c0.939-1.071,2.057-2.645,1.678-4.165c-0.304-1.219-1.475-2.441-2.783-2.482
					c-2.982-0.094-4.839,4.686-5.747,6.825c-1.307,3.076-2.341,6.367-2.936,9.659c-0.01,0.054-0.019,0.108-0.027,0.162
					C10.643,51.237,11.354,50.862,11.422,50.545L11.422,50.545z"/>
			</g>
		</g>
		<g>
			<g>
				<path d="M11.794,32.835c0.616-4.873,0.208-14.472-6.152-15.379c-3.511-0.501-4.805,3.622-2.146,5.646
					c1.323,1.006,3.088,1.214,4.523,2.015c2.407,1.343,2.848,4.597,2.764,7.036c-0.02,0.564,0.855-0.01,0.914-0.335
					c0.591-3.276-1.063-6.923-4.242-8.106c-1.414-0.527-2.986-0.826-4.034-2.001c-0.646-0.725-0.897-2.088-0.356-2.922
					c0.546-0.843,1.965-0.456,2.722-0.232c2.722,0.803,3.892,4.001,4.499,6.474c0.64,2.611,0.813,5.406,0.736,8.088
					C11.009,33.584,11.757,33.125,11.794,32.835L11.794,32.835z"/>
			</g>
		</g>
		<g>
			<g>
				<path d="M13.084,11.476c0.361-0.711,0.101-1.53-0.018-2.284C12.9,8.14,12.753,7.084,12.704,6.019
					c-0.055-1.178,0.083-2.469,0.808-3.439c0.475-0.635,1.613-2.358,2.307-1.123c0.927,1.648-1.511,3.761-2.274,5.093
					c-0.886,1.547-1.661,4.449-0.665,6.076c0.281,0.459,1.007-0.24,0.894-0.64c-0.484-1.714-0.349-3.595,0.473-5.218
					c0.553-1.091,1.427-2.026,2.058-3.075c0.371-0.618,0.831-1.455,0.634-2.205c-0.231-0.884-0.635-1.697-1.668-1.439
					c-1.767,0.442-3.162,2.987-3.499,4.591c-0.277,1.319-0.137,2.73,0.06,4.049c0.115,0.772,0.086,2.635,0.792,3.068
					C12.787,11.857,13.024,11.595,13.084,11.476L13.084,11.476z"/>
			</g>
		</g>
		<g>
			<g>
				<path d="M28.127,118.125c-0.99,1.366-1.432,2.932-1.741,4.571c-0.369,1.958-0.655,3.939-0.995,5.902
					c-0.37,2.141-0.592,4.304-0.777,6.467c-0.193,2.252-0.707,4.527-0.725,6.789c-0.001,0.176,0.271,0.001,0.286-0.104
					c0.557-4.1,0.831-8.235,1.429-12.328c0.277-1.896,0.672-3.771,0.937-5.67c0.271-1.942,0.633-3.917,1.776-5.557
					C28.437,118.021,28.222,117.995,28.127,118.125L28.127,118.125z"/>
			</g>
		</g>
		<g>
			<g>
				<path d="M29.717,118.13c-1.327,4.035-2.29,8.166-3.204,12.311c-0.913,4.137-1.999,8.244-2.884,12.384
					c-0.05,0.235,0.267,0.047,0.31-0.078c1.37-3.99,2.065-8.278,2.944-12.397c0.882-4.131,1.824-8.252,3.093-12.283
					C30.034,117.883,29.754,118.017,29.717,118.13L29.717,118.13z"/>
			</g>
		</g>
		<g>
			<g>
				<path d="M23.231,95.055c-3.813,6.066-5.883,13.529-6.714,20.611c-0.02,0.168,0.256-0.006,0.279-0.103
					c0.818-3.481,1.353-6.999,2.359-10.44c1.028-3.516,2.496-6.856,4.33-10.023C23.601,94.901,23.312,94.926,23.231,95.055
					L23.231,95.055z"/>
			</g>
		</g>
		<g>
			<g>
				<path d="M25.358,95.618c-1.88,2.955-4.179,5.694-5.64,8.897c-1.491,3.271-2.654,6.96-3.048,10.541
					c-0.022,0.209,0.318-0.006,0.346-0.127c0.858-3.732,1.661-7.319,3.266-10.829c1.391-3.042,3.761-5.5,5.326-8.438
					C25.715,95.462,25.438,95.494,25.358,95.618L25.358,95.618z"/>
			</g>
		</g>
		<g>
			<g>
				<path d="M1.153,116.28c3.68,2.199,7.009,4.913,10.079,7.895c3.002,2.915,5.572,6.146,8.271,9.329
					c0.117,0.138,0.417-0.165,0.312-0.312c-4.8-6.797-11.195-13.086-18.4-17.276C1.265,115.827,0.97,116.171,1.153,116.28
					L1.153,116.28z"/>
			</g>
		</g>
		<g>
			<g>
				<path d="M0.389,117.618c3.31,2.19,6.411,4.675,9.316,7.377c1.514,1.408,2.955,2.893,4.347,4.421
					c1.314,1.442,2.478,3.053,3.99,4.299c0.165,0.136,0.516-0.23,0.359-0.359c-1.51-1.244-2.685-2.852-3.987-4.302
					c-1.382-1.537-2.838-3.008-4.341-4.426c-2.9-2.738-6.051-5.189-9.422-7.318C0.529,117.233,0.265,117.535,0.389,117.618
					L0.389,117.618z"/>
			</g>
		</g>
		<g>
			<g>
				<path d="M4.085,86.297c2.202,1.415,3.806,3.532,5.183,5.722c1.337,2.126,2.199,4.558,3.58,6.641
					c0.077,0.116,0.299-0.119,0.264-0.224c-0.816-2.44-2.276-4.854-3.64-7.023c-1.337-2.126-2.973-4.093-5.14-5.405
					C4.215,85.937,3.967,86.221,4.085,86.297L4.085,86.297z"/>
			</g>
		</g>
		<g>
			<g>
				<path d="M1.29,85.623c-0.038,2.615,2.439,4.518,4.32,5.939c1.106,0.838,2.249,1.613,3.317,2.501
					c1.463,1.214,2.549,2.689,3.864,4.028c0.091,0.093,0.303-0.111,0.252-0.215c-0.627-1.284-1.864-2.354-2.891-3.32
					c-1.072-1.009-2.257-1.893-3.428-2.781c-2.156-1.637-4.789-3.396-5.07-6.328C1.631,85.212,1.292,85.468,1.29,85.623L1.29,85.623
					z"/>
			</g>
		</g>
		<g>
			<g>
				<path d="M1.529,85.665c2.164,1.485,4.074,3.275,5.775,5.27c1.916,2.245,3.31,4.762,4.837,7.266
					c0.086,0.142,0.339-0.078,0.285-0.205C10.325,93.048,6.324,88.22,1.764,85.39C1.655,85.322,1.418,85.589,1.529,85.665
					L1.529,85.665z"/>
			</g>
		</g>
		<g>
			<g>
				<path d="M21.37,68.617c-2.358,1.799-4.081,4.254-5.904,6.56c-1.764,2.23-2.89,4.716-3.794,7.402
					c-0.078,0.23,0.279,0.092,0.333-0.042c0.996-2.459,1.81-4.835,3.471-6.954c1.844-2.353,3.611-4.885,5.973-6.754
					C21.588,68.718,21.56,68.472,21.37,68.617L21.37,68.617z"/>
			</g>
		</g>
		<g>
			<g>
				<path d="M21.908,69.893c0.152,0.303-1.7,1.793-1.913,1.99c-0.867,0.801-1.682,1.652-2.536,2.466
					c-1.94,1.849-4.985,4.296-5.25,7.189c-0.015,0.163,0.228,0.002,0.257-0.063c0.872-1.995,1.817-3.541,3.356-5.107
					c1.169-1.189,2.413-2.306,3.593-3.485c0.338-0.338,3.15-2.535,2.612-3.091C21.985,69.747,21.883,69.844,21.908,69.893
					L21.908,69.893z"/>
			</g>
		</g>
		<g>
			<g>
				<path d="M1.388,53.994c2.158,1.54,3.904,3.498,5.403,5.673c1.647,2.39,2.729,5.067,4.22,7.537c0.09,0.15,0.349-0.08,0.298-0.213
					c-1.91-4.968-5.159-10.278-9.627-13.29C1.537,53.604,1.255,53.899,1.388,53.994L1.388,53.994z"/>
			</g>
		</g>
		<g>
			<g>
				<path d="M3.413,53.094c1.652,1.989,3.283,3.982,4.627,6.197c0.638,1.051,1.181,2.157,1.654,3.291
					c0.518,1.241,0.722,2.607,1.254,3.827c0.041,0.093,0.173-0.043,0.174-0.104c0.04-2.508-1.436-5.206-2.672-7.307
					c-1.319-2.241-2.961-4.307-4.794-6.147C3.556,52.75,3.322,52.985,3.413,53.094L3.413,53.094z"/>
			</g>
		</g>
		<g>
			<g>
				<path d="M20.175,34.66c-4.209,2.813-6.562,7.998-8.636,12.435c-0.141,0.301,0.271,0.196,0.364,0.005
					c2.13-4.372,4.309-9.253,8.364-12.19C20.44,34.785,20.408,34.505,20.175,34.66L20.175,34.66z"/>
			</g>
		</g>
		<g>
			<g>
				<path d="M21.697,36.071c-2.271,0.743-3.913,2.952-5.285,4.788c-1.672,2.238-3.677,4.698-4.488,7.407
					c-0.069,0.232,0.274,0.087,0.327-0.041c1.004-2.439,2.506-4.556,4.042-6.687c1.442-2.002,3.062-4.139,5.367-5.178
					C21.769,36.311,21.901,36.004,21.697,36.071L21.697,36.071z"/>
			</g>
		</g>
		<g>
			<g>
				<path d="M2.903,19.366c2.243,0.354,3.787,1.852,5.054,3.635c1.098,1.544,1.931,3.478,3.327,4.785
					c0.109,0.103,0.336-0.134,0.251-0.251c-2.272-3.127-4.155-7.942-8.494-8.456C2.913,19.064,2.722,19.337,2.903,19.366
					L2.903,19.366z"/>
			</g>
		</g>
		<g>
			<g>
				<path d="M4.632,18.286c1.87,0.997,3.211,2.598,4.289,4.391c0.961,1.597,1.455,3.407,2.352,5.019
					c0.081,0.146,0.303-0.075,0.273-0.195c-0.491-1.964-1.582-3.977-2.655-5.68c-1.016-1.613-2.347-2.966-4.08-3.786
					C4.702,17.982,4.503,18.217,4.632,18.286L4.632,18.286z"/>
			</g>
		</g>
		<g>
			<g>
				<path d="M13.117,9.124c0.534-2.945,1.861-5.366,3.263-7.962c0.125-0.23-0.197-0.193-0.289-0.05
					c-1.604,2.48-2.806,5.155-3.265,8.084C12.792,9.412,13.092,9.26,13.117,9.124L13.117,9.124z"/>
			</g>
		</g>
		<g>
			<g>
				<path d="M15.153,0.596c-1.312,2.69-2.385,5.673-2.286,8.708c0.007,0.216,0.326-0.022,0.335-0.161
					c0.191-3.047,1.061-5.735,2.214-8.542C15.508,0.375,15.219,0.46,15.153,0.596L15.153,0.596z"/>
			</g>
		</g>
	</g>
</g>
<g id="DESIGNED_BY_FREEPIK">
</g>
</svg>
