<?xml version="1.0" encoding="utf-8"?>
<!-- Generator: Adobe Illustrator 16.0.0, SVG Export Plug-In . SVG Version: 6.00 Build 0)  -->
<!DOCTYPE svg PUBLIC "-//W3C//DTD SVG 1.1//EN" "http://www.w3.org/Graphics/SVG/1.1/DTD/svg11.dtd">
<svg version="1.1" xmlns="http://www.w3.org/2000/svg" xmlns:xlink="http://www.w3.org/1999/xlink" x="0px" y="0px"
	 width="67.904px" height="66.561px" viewBox="0 0 67.904 66.561" enable-background="new 0 0 67.904 66.561" xml:space="preserve">
<g id="BACKGROUND">
</g>
<g id="OBJECTS">
	<g>
		<g>
			<g>
				<path d="M24.246,25.209c5.845-5.717,18.819-7.617,21.842,1.977c1.548,4.918,0.214,10.855-3.833,14.172
					c-3.786,3.102-8.936,3.02-13.075,0.709c-2.735-1.525-5.018-4.002-5.969-7.004c-1.087-3.428-0.198-7.207,1.579-10.229
					c0.388-0.662-0.602-0.428-0.848-0.012c-3.045,5.143-3.001,11.518,1.377,15.861c3.322,3.295,8.036,4.859,12.614,3.664
					c4.025-1.049,7.338-4.273,8.712-8.168c1.495-4.234,1.203-9.711-1.824-13.225c-2.453-2.848-6.748-3.717-10.345-3.352
					c-3.98,0.406-7.885,2.297-10.658,5.178C23.394,25.223,23.807,25.639,24.246,25.209L24.246,25.209z"/>
			</g>
		</g>
		<g>
			<g>
				<path d="M24.312,25.148c3.427,1.289,5.63,4.438,8.096,6.969c0.016-0.127,0.03-0.254,0.046-0.381
					c-2.067,2.936-4.781,5.047-7.334,7.512c-0.514,0.496-0.027,0.961,0.492,0.492c2.646-2.383,5.297-4.883,7.332-7.822
					c0.068-0.098,0.15-0.275,0.045-0.381c-2.541-2.543-4.728-5.719-8.217-7.031C24.478,24.395,23.976,25.021,24.312,25.148
					L24.312,25.148z"/>
			</g>
		</g>
		<g>
			<g>
				<path d="M29.952,35.633c0.305-0.123,3.178-1.441,3.211-1.25c0.168,0.975,0.537,1.934,0.861,2.865
					c0.822,2.354,1.863,4.643,2.101,7.152c0.038,0.404,0.676-0.02,0.647-0.311c-0.342-3.613-2.173-6.945-3.227-10.379
					c-0.022-0.074-0.105-0.074-0.166-0.064c-1.227,0.199-2.34,0.904-3.435,1.461C29.679,35.242,29.5,35.816,29.952,35.633
					L29.952,35.633z"/>
			</g>
		</g>
		<g>
			<g>
				<path d="M34.41,37.066c0.488-1.559,0.703-3.166,0.744-4.795c-0.085,0.1-0.17,0.197-0.255,0.297
					c3.966-0.551,7.992,0.053,11.963-0.385c0.446-0.049,0.988-0.951,0.318-0.865c-4.051,0.518-8.141,0.24-12.182,0.852
					c-0.127,0.02-0.254,0.174-0.256,0.299c-0.024,1.611-0.474,3.129-0.755,4.703C33.93,37.496,34.355,37.242,34.41,37.066
					L34.41,37.066z"/>
			</g>
		</g>
		<g>
			<g>
				<path d="M36.679,32.188c0.075-0.357,0.011-0.484-0.085-0.838c-0.146-0.535,0.028-1.117,0.237-1.607
					c0.479-1.121,1.522-1.98,2.457-2.711c1.637-1.277,3.525-2.271,5.416-3.117c0.421-0.188,0.62-1.068-0.01-0.771
					c-2.355,1.109-4.641,2.463-6.599,4.188c-0.884,0.777-1.706,1.717-2.146,2.822c-0.231,0.58-0.463,2.104,0.336,2.32
					C36.452,32.518,36.646,32.344,36.679,32.188L36.679,32.188z"/>
			</g>
		</g>
		<g>
			<g>
				<path d="M30.788,30.072c0.532,0.408,1.123,0.709,1.691,1.062c0.142,0.088,0.384-0.117,0.45-0.223
					c2.148-3.389,3.948-7.074,5.31-10.85c0.074-0.205-0.254-0.084-0.304,0.039c-1.492,3.668-3.317,7.309-5.467,10.641
					c0.149-0.074,0.3-0.146,0.45-0.221c-0.547-0.322-1.12-0.574-1.642-0.938C31.042,29.42,30.568,29.904,30.788,30.072
					L30.788,30.072z"/>
			</g>
		</g>
		<g>
			<g>
				<path d="M34.66,27.047c-0.275,0.842-0.032,1.994,0.128,2.85c0.013,0.07,0.104,0.107,0.164,0.105
					c0.663-0.02,1.331-0.23,1.833-0.672c0.213-0.186,0.186-0.666-0.173-0.457c-0.422,0.248-0.836,0.428-1.333,0.447
					c0.056,0.035,0.11,0.07,0.165,0.105c-0.092-0.467-0.165-0.938-0.219-1.41c-0.042-0.377,0.015-0.824-0.154-1.168
					C34.967,26.637,34.698,26.93,34.66,27.047L34.66,27.047z"/>
			</g>
		</g>
		<g>
			<g>
				<path d="M31.289,20.395c0.167-1.439,0.104-2.887,0.309-4.33c0.184-1.297,0.702-2.48,1.048-3.734
					c0.055-0.199-0.212-0.088-0.271-0.004c-1.582,2.307-2.496,5.75-1.835,8.516C30.644,21.275,31.264,20.613,31.289,20.395
					L31.289,20.395z"/>
			</g>
		</g>
		<g>
			<g>
				<path d="M33.85,10.52c0.639-0.648,1.231-1.34,1.932-1.924c0.602-0.502,1.841,2.131,2.148,2.627
					c0.829,1.34,1.571,2.719,2.094,4.209c0.591,1.686,0.668,3.502,0.653,5.271c-0.005,0.631,1.059-0.016,1.044-0.502
					c-0.06-2-0.206-3.908-0.904-5.799c-0.65-1.758-1.726-3.344-2.745-4.904c-0.531-0.814-0.992-2.254-2.092-1.391
					c-0.846,0.664-1.525,1.502-2.265,2.277C33.583,10.525,33.714,10.658,33.85,10.52L33.85,10.52z"/>
			</g>
		</g>
		<g>
			<g>
				<path d="M41.187,20.604c2.012-1.254,3.867-2.168,6.235-2.551c1.478-0.24,4.54-0.814,4.87,1.285
					c0.224,1.426-0.562,2.959-1.201,4.18c-0.971,1.852-2.603,2.973-4.108,4.344c-0.323,0.293-0.3,0.996,0.265,0.699
					c3.017-1.584,6.526-6.221,5.788-9.885c-0.428-2.125-3.451-1.602-4.947-1.43c-2.463,0.283-5.377,1.146-7.109,3.029
					C40.768,20.504,40.873,20.801,41.187,20.604L41.187,20.604z"/>
			</g>
		</g>
		<g>
			<g>
				<path d="M47.268,28.625c1.054-0.65,2.35-0.551,3.537-0.506c1.231,0.047,2.381,0.201,3.533,0.658
					c2.088,0.828,3.86,2.578,5.229,4.309c0.046-0.182,0.091-0.363,0.137-0.547c-1.814,1.641-3.917,2.811-6.257,3.516
					c-2.451,0.736-4.74,0.426-7.235,0.352c-0.474-0.014-1.225,1-0.524,1.092c5.242,0.689,10.632-0.689,14.427-4.549
					c0.129-0.131,0.277-0.373,0.137-0.547c-1.679-2.068-3.73-3.977-6.328-4.775c-1.204-0.369-2.531-0.393-3.779-0.488
					c-1.208-0.09-2.277,0.188-3.196,0.979C46.564,28.445,46.804,28.912,47.268,28.625L47.268,28.625z"/>
			</g>
		</g>
		<g>
			<g>
				<path d="M45.997,37.531c1.999,1.303,4.047,2.82,5.002,5.082c1.153,2.729,0.485,6.555-0.354,9.279
					c0.27-0.162,0.539-0.324,0.81-0.486c-1.841-1.504-4.57-1.217-6.758-1.824c-2.959-0.824-5.115-2.74-5.545-5.869
					c-0.07-0.516-0.866,0.027-0.821,0.395c0.336,2.764,1.829,4.734,4.33,5.926c2.58,1.23,5.637,0.715,8.108,2.18
					c0.274,0.162,0.692-0.305,0.735-0.535c0.556-2.988,1.316-6.332,0.449-9.34c-0.74-2.57-3.241-4.201-5.44-5.414
					C46.267,36.787,45.749,37.369,45.997,37.531L45.997,37.531z"/>
			</g>
		</g>
		<g>
			<g>
				<path d="M37.976,43.953c-0.137,2.748-0.016,5.41-0.756,8.098c-0.394,1.426-1.051,2.762-1.883,3.982
					c-0.736,1.078-1.857,2.576-3.103,3.064c0.178,0.035,0.355,0.068,0.533,0.104c-0.488-1.256-1.577-2.035-2.503-2.961
					c-1.05-1.049-1.743-2.357-2.37-3.686c-0.692-1.467-1.132-3.096-1.224-4.713c-0.059-1.031,0.108-2.117,0.507-3.07
					c0.331-0.791,1.025-1.457,1.51-2.158c0.406-0.588-0.348-0.713-0.644-0.238c-0.861,1.381-1.699,2.445-2.028,4.074
					c-0.319,1.582-0.112,3.254,0.271,4.803c0.381,1.539,1.146,3.037,1.997,4.365c1.002,1.562,2.615,2.662,3.43,4.338
					c0.105,0.217,0.344,0.188,0.533,0.102c1.275-0.58,2.172-1.725,3.041-2.789c1.043-1.279,1.84-2.674,2.411-4.223
					c1.063-2.885,1.386-6.389,0.973-9.426C38.609,43.158,37.99,43.668,37.976,43.953L37.976,43.953z"/>
			</g>
		</g>
		<g>
			<g>
				<path d="M27.856,42.217c-1.464,2.129-3.161,3.77-5.707,4.508c-2.111,0.611-4.311,0.004-6.259-0.869
					c-2.419-1.086,0.426-4.91,1.335-6.238c0.692-1.012,1.459-1.928,2.437-2.678c0.962-0.736,1.993-1.357,2.91-2.154
					c0.545-0.475,0.035-0.959-0.497-0.498c-1.165,1.008-2.527,1.75-3.681,2.777c-1.098,0.977-1.951,2.326-2.716,3.564
					c-1.016,1.645-2.951,4.67-0.712,6.074c0.919,0.574,2.353,0.979,3.41,1.158c1.435,0.244,2.823,0.078,4.197-0.379
					c2.412-0.803,4.954-2.756,5.947-5.15C28.756,41.77,28.078,41.895,27.856,42.217L27.856,42.217z"/>
			</g>
		</g>
		<g>
			<g>
				<path d="M22.259,34.354c-1.08-0.271-2.185,0.125-3.216,0.451c-1.419,0.449-2.644,0.627-4.095,0.211
					c-2.434-0.697-4.741-2.105-6.244-4.152c-0.062,0.248-0.123,0.496-0.186,0.742c1.89-1.984,4.309-3.342,6.897-4.197
					c1.286-0.424,2.628-0.674,3.978-0.768c1.237-0.086,2.393,0.244,3.61,0.264c0.444,0.006,1.084-0.975,0.474-0.986
					c-0.722-0.014-1.425-0.229-2.147-0.279c-0.731-0.049-1.467-0.006-2.196,0.061c-1.434,0.129-2.837,0.475-4.196,0.939
					c-2.623,0.896-5.062,2.4-6.976,4.41c-0.181,0.191-0.367,0.496-0.186,0.742c1.575,2.146,3.862,3.508,6.358,4.361
					c2.617,0.896,5.139-0.469,7.705-0.932C22.075,35.18,22.72,34.469,22.259,34.354L22.259,34.354z"/>
			</g>
		</g>
		<g>
			<g>
				<path d="M23.303,25.992c-1.079-0.625-2.184-1.219-3.15-2.01c-1.021-0.838-1.646-2.012-2.147-3.209
					c-0.415-0.994-0.71-2.039-0.988-3.078c-0.404-1.506,0.162-3.074-0.036-4.604c-0.168,0.195-0.337,0.393-0.505,0.59
					c3.012-0.652,5.673,0.779,8.277,2.074c2.525,1.256,4.69,2.449,5.61,5.33c0.141,0.439,0.965-0.205,0.838-0.6
					c-0.904-2.805-3.013-4.195-5.538-5.387c-2.889-1.363-5.683-2.936-8.99-2.207c-0.221,0.049-0.541,0.338-0.506,0.59
					c0.201,1.426-0.242,2.898,0.045,4.305c0.271,1.326,0.666,2.635,1.142,3.902c0.988,2.631,2.896,3.98,5.409,5.057
					C23.096,26.891,23.683,26.213,23.303,25.992L23.303,25.992z"/>
			</g>
		</g>
		<g>
			<g>
				<path d="M21.65,13.201c-0.702-1.461-0.141-3.912,0.409-5.295c0.707-1.777,2.256-3.223,2.539-5.158
					c-0.181,0.131-0.36,0.264-0.541,0.395c3.672,1.963,7.231,3.574,9,7.607c0.219,0.5,1.19-0.285,0.95-0.68
					c-1.065-1.742-2.305-3.332-3.941-4.568c-1.676-1.268-3.641-2.164-5.559-2.988C24.293,2.422,24,2.715,23.966,2.906
					c-0.239,1.352-1.168,2.422-1.871,3.564c-0.502,0.812-0.901,1.664-1.195,2.572c-0.304,0.938-1.018,4.082-0.023,4.816
					C21.187,14.088,21.816,13.545,21.65,13.201L21.65,13.201z"/>
			</g>
		</g>
		<g>
			<g>
				<path d="M39.485,11.32c1.864-3.088,6.44-3.131,9.55-4.086c-0.084-0.055-0.168-0.109-0.252-0.164
					c-0.033,1.645,0.219,3.275,0.178,4.918c-0.045,1.748-0.592,4.135-1.775,5.492c-0.492,0.564-0.03,1.053,0.527,0.527
					c1.226-1.152,1.846-3.26,2.04-4.883c0.25-2.088-0.211-4.283-0.305-6.375c-0.006-0.131-0.126-0.205-0.252-0.162
					c-3.489,1.186-8.173,0.936-10.159,4.654C38.847,11.598,39.347,11.551,39.485,11.32L39.485,11.32z"/>
			</g>
		</g>
		<g>
			<g>
				<path d="M52.161,22.678c1.481-0.812,3.608-0.623,5.247-0.59c1.251,0.025,2.502,0.279,3.667,0.73
					c1.168,0.451,2.092,1.281,3.201,1.826c0.116-0.24,0.231-0.479,0.347-0.719c-1.054,0.363-1.521,1.443-1.953,2.393
					c-0.771,1.695-2.328,3.318-4.018,4.131c-0.508,0.244-0.703,1.32,0.012,0.924c1.509-0.834,2.66-2.047,3.817-3.305
					c0.922-1.002,1.013-2.734,2.151-3.514c0.146-0.1,0.447-0.508,0.156-0.625c-1.267-0.518-2.312-1.451-3.618-1.955
					c-1.366-0.527-2.768-0.73-4.227-0.736c-1.62-0.006-3.873-0.34-4.972,1.146C51.85,22.551,51.925,22.807,52.161,22.678
					L52.161,22.678z"/>
			</g>
		</g>
		<g>
			<g>
				<path d="M55.686,36.121c3.324,1.361,5.659,5.451,6.223,8.865c0.172-0.201,0.345-0.402,0.517-0.604
					c-3.372,0.805-6.504,2.832-10.051,1.994c-0.503-0.119-1.332,0.922-0.767,1.07c1.536,0.402,3.103,0.24,4.612-0.197
					c1.984-0.574,3.822-1.863,5.904-2.047c0.259-0.023,0.663-0.311,0.616-0.617c-0.559-3.604-3.035-7.832-6.694-8.967
					C55.819,35.549,55.416,36.012,55.686,36.121L55.686,36.121z"/>
			</g>
		</g>
		<g>
			<g>
				<path d="M45.581,50.789c1.056,2.023,0.693,4.383,0.006,6.463c-0.765,2.314-1.783,4.482-2.412,6.854
					c0.276-0.168,0.554-0.334,0.83-0.5c-1.292-1.16-2.753-2.074-4.162-3.078c-1.856-1.324-2.836-2.916-3.294-5.146
					c-0.082-0.4-0.865,0.18-0.782,0.561c0.412,1.891,1.5,3.51,2.845,4.873c1.368,1.387,3.144,2.303,4.614,3.57
					c0.307,0.264,0.757-0.229,0.831-0.5c0.397-1.461,0.835-2.904,1.41-4.307c0.445-1.088,0.961-2.121,1.302-3.25
					c0.615-2.039,0.786-4.35-0.413-6.197C46.148,49.812,45.416,50.473,45.581,50.789L45.581,50.789z"/>
			</g>
		</g>
		<g>
			<g>
				<path d="M26.945,53.404c-0.17,2.283-1.912,3.871-3.672,5.115c-0.838,0.592-1.734,1.105-2.628,1.611
					c-0.403,0.227-0.826,0.42-1.243,0.619c-0.51,0.246-0.85,0.732-1.432,0.826c0.108,0.07,0.217,0.141,0.326,0.211
					c-0.147-0.936-0.611-1.74-0.849-2.65c-0.362-1.389-0.153-2.902-0.291-4.318c-0.134-1.367-0.286-2.469,0.281-3.781
					c0.529-1.225,1.153-2.41,1.713-3.621c0.291-0.631-0.535-0.355-0.737-0.01c-1.242,2.127-2.533,4.502-2.246,7.014
					c0.164,1.436,0.17,2.873,0.313,4.309c0.126,1.26,0.718,2.346,0.97,3.562c0.039,0.191,0.306,0.129,0.42,0.082
					c2.221-0.941,4.538-2.287,6.465-3.744c1.814-1.373,3.418-3.252,3.45-5.629C27.794,52.469,26.972,53.049,26.945,53.404
					L26.945,53.404z"/>
			</g>
		</g>
		<g>
			<g>
				<path d="M15.088,41.818c-1.558,1.078-3.251,1.348-5.11,1.234c-1.604-0.098-3.292-1.172-4.849-0.441
					C5,42.672,4.753,42.955,4.962,43.064c0.786,0.416,1.824,0.465,2.682,0.764c0.965,0.336,1.876,0.48,2.896,0.488
					c1.845,0.014,3.38-0.734,4.771-1.896C15.689,42.104,15.655,41.426,15.088,41.818L15.088,41.818z"/>
			</g>
		</g>
		<g>
			<g>
				<path d="M4.425,42.648c-0.381-0.059-0.765-0.1-1.144-0.17c-0.935-0.176-0.003-1.297,0.31-1.625
					c0.827-0.869,1.815-1.596,2.771-2.316c1.706-1.289,3.215-2.725,4.83-4.115c0.454-0.391,0.135-1.074-0.397-0.627
					c-1.236,1.037-2.382,2.158-3.666,3.143c-1.315,1.008-2.652,1.969-3.862,3.107c-0.406,0.381-1.68,1.654-1.285,2.354
					c0.482,0.854,1.238,0.754,2.151,0.859C4.403,43.287,4.808,42.707,4.425,42.648L4.425,42.648z"/>
			</g>
		</g>
		<g>
			<g>
				<path d="M12.418,28.219c-0.745-0.133-1.439-0.35-2.104-0.715c-0.751-0.412-1.28-1.141-2.071-1.479
					c-0.15-0.064-0.336,0.168-0.304,0.305c0.389,1.621,2.371,2.479,3.845,2.773C12.22,29.191,12.863,28.299,12.418,28.219
					L12.418,28.219z"/>
			</g>
		</g>
		<g>
			<g>
				<path d="M7.801,25.4c-0.667-0.973-1.1-2.088-1.814-3.021c-0.415-0.543-0.838-1.02-1.079-1.672
					c-0.232-0.631-0.361-1.26-0.693-1.852c-0.202,0.279-0.404,0.557-0.605,0.834c2.229-0.584,4.493-0.965,6.8-1.039
					c1.111-0.035,2.198,0.08,3.285,0.309c0.974,0.207,2.097,0.383,2.975,0.863c0.38,0.207,1.105-0.65,0.646-0.904
					c-0.883-0.49-1.987-0.643-2.964-0.877c-1.143-0.273-2.302-0.369-3.476-0.359c-2.365,0.018-4.739,0.447-7.023,1.033
					c-0.253,0.066-0.798,0.514-0.605,0.834c0.581,0.969,0.767,1.979,1.573,2.814c1.023,1.061,1.664,2.307,2.542,3.477
					C7.51,26.037,7.946,25.613,7.801,25.4L7.801,25.4z"/>
			</g>
		</g>
		<g>
			<g>
				<path d="M9.784,17.754c-0.188-0.615-0.271-1.252-0.321-1.893c-0.042-0.533,0.035-1.164-0.178-1.66
					c-0.059-0.139-0.25,0.031-0.284,0.104c-0.553,1.191-0.377,2.752,0.112,3.93C9.264,18.596,9.876,18.055,9.784,17.754
					L9.784,17.754z"/>
			</g>
		</g>
		<g>
			<g>
				<path d="M10.333,11.32c0.208-0.758,0.44-1.508,0.657-2.264C11.257,8.125,11.291,6.854,11.747,6
					c-0.219,0.158-0.437,0.318-0.655,0.477c1.472-0.117,2.949,0.188,4.388,0.465c1.933,0.373,3.597,1.143,5.434,1.803
					c0.238,0.086,0.758-0.426,0.501-0.59c-1.676-1.068-3.309-1.742-5.237-2.188c-1.462-0.336-3.246-0.791-4.736-0.439
					c-0.259,0.061-0.845,0.59-0.53,0.881c0.801,0.74-0.71,4.096-0.971,5.01C9.86,11.697,10.284,11.502,10.333,11.32L10.333,11.32z"
					/>
			</g>
		</g>
		<g>
			<g>
				<path d="M30.62,5.936c0.641-1.568,1.955-2.24,3.45-2.834c1.277-0.508,2.449-1.049,3.608-1.791
					c0.201-0.129,1.268-1.008,1.487-0.445c0.089,0.227,0.273,0.488,0.403,0.691c0.393,0.615,0.905,1.164,1.386,1.709
					c1.273,1.449,1.651,3.102,2.05,4.939c0.08,0.373,0.904-0.158,0.764-0.547C43.3,6.375,43.267,4.945,42.49,3.775
					c-0.867-1.307-2.058-2.332-2.873-3.678c-0.047-0.08-0.125-0.119-0.22-0.086c-1.009,0.355-1.896,0.941-2.833,1.447
					c-0.873,0.473-1.879,0.727-2.803,1.086c-1.677,0.652-3.08,1.656-3.734,3.383C29.836,6.434,30.487,6.264,30.62,5.936L30.62,5.936
					z"/>
			</g>
		</g>
		<g>
			<g>
				<path d="M49.702,12.953c3.149-1.863,6.962-0.213,10.2,0.643c-0.027-0.139-0.054-0.279-0.08-0.418
					c-0.544,1.137-0.524,2.33-0.424,3.564c0.123,1.512,0.646,3.598-0.458,4.869c-0.579,0.666,0.128,0.996,0.622,0.393
					c2.085-2.545-0.141-6.006,1.014-8.816c0.075-0.184,0.08-0.416-0.171-0.436c-3.298-0.25-8.024-3.283-10.865-0.229
					C49.374,12.701,49.348,13.164,49.702,12.953L49.702,12.953z"/>
			</g>
		</g>
		<g>
			<g>
				<path d="M61.976,28.656c1.101,1.309,1.875,2.523,2.297,4.189c0.37,1.459,0.612,2.889,1.339,4.23
					c0.152-0.25,0.305-0.502,0.457-0.752c-1.502,0.83-3.099,2.676-4.864,2.826c-0.58,0.049-1.146,1.203-0.384,1.047
					c2.022-0.414,3.505-2.062,5.259-3.031c0.202-0.111,0.61-0.471,0.458-0.752c-1.478-2.736-0.965-6.693-4.158-8.232
					C62.176,28.082,61.819,28.471,61.976,28.656L61.976,28.656z"/>
			</g>
		</g>
		<g>
			<g>
				<path d="M56.746,47.135c1.082,1.506,1.135,3.416,1.041,5.199c-0.044,0.844-0.149,1.678-0.149,2.523
					c0,1.047,0.255,2.08,0.33,3.121c0.176-0.176,0.352-0.352,0.527-0.527c-3.663,0.375-8.117,0.34-11.374-1.584
					c-0.411-0.244-1.23,0.717-0.72,1.006c3.456,1.955,8.031,1.822,11.836,1.279c0.21-0.029,0.453-0.303,0.442-0.516
					c-0.052-1.061-0.193-2.113-0.226-3.172c-0.028-0.955,0.139-1.926,0.178-2.883c0.072-1.777-0.102-3.621-1.355-4.977
					C57.064,46.375,56.568,46.887,56.746,47.135L56.746,47.135z"/>
			</g>
		</g>
		<g>
			<g>
				<path d="M37.645,59.984c0.061,3.23-4.925,4.363-7.143,5.711c0.188-0.023,0.376-0.045,0.563-0.066
					c-2.384-2.227-6.215-3.766-6.984-7.248c-0.115-0.523-1.125,0.238-1.015,0.727c0.804,3.549,4.67,5.148,7.141,7.379
					c0.169,0.152,0.404,0.033,0.563-0.066c2.355-1.465,8.384-3.08,7.595-6.865C38.286,59.174,37.64,59.725,37.645,59.984
					L37.645,59.984z"/>
			</g>
		</g>
		<g>
			<g>
				<path d="M7.33,43.375c-1.264,1.217-1.722,3-2.061,4.664c-0.38,1.859-0.542,3.791-0.286,5.68c0.027,0.205,0.159,0.26,0.353,0.229
					c1.262-0.205,2.515-0.662,3.805-0.607c0.913,0.039,1.914,0.564,2.797,0.807c1.385,0.381,3.24,0.943,4.507-0.014
					c0.439-0.332,0.371-1.057-0.241-0.65c-1.261,0.838-3.789-0.225-5.093-0.662c-1.985-0.668-3.524-0.109-5.549,0.223
					c0.118,0.076,0.235,0.152,0.354,0.229c-0.209-1.52-0.104-3.035,0.006-4.557c0.12-1.662,0.549-3.756,1.772-4.977
					C8.063,43.369,7.705,43.016,7.33,43.375L7.33,43.375z"/>
			</g>
		</g>
		<g>
			<g>
				<path d="M6.41,23.676c-1.011-0.426-2.108,0.93-2.615,1.629c-1.279,1.77-3.117,2.812-4.779,4.178
					c-0.127,0.104-0.521,0.531-0.265,0.711c3.123,2.162,2.299,7.664,6.46,8.721c0.4,0.102,1.037-0.727,0.601-0.838
					c-4.005-1.02-3.234-6.523-6.29-8.654c-0.088,0.236-0.177,0.475-0.265,0.711c1.251-1.057,2.599-1.984,3.828-3.066
					c1.003-0.885,1.569-2.299,2.955-2.625C6.262,24.389,6.805,23.842,6.41,23.676L6.41,23.676z"/>
			</g>
		</g>
		<g>
			<g>
				<path d="M32.436,44.154c-0.503,4.213-0.529,8.676,0.128,12.873c0.039,0.25,0.413-0.014,0.396-0.189
					c-0.414-4.316-0.093-8.561-0.122-12.877C32.836,43.695,32.454,43.996,32.436,44.154L32.436,44.154z"/>
			</g>
		</g>
		<g>
			<g>
				<path d="M34.152,44.234c0.431,3.08-0.04,6.156,0.238,9.227c0.008,0.076,0.112-0.012,0.116-0.057
					c0.28-3.021,0.361-6.277-0.136-9.275C34.349,43.992,34.139,44.137,34.152,44.234L34.152,44.234z"/>
			</g>
		</g>
		<g>
			<g>
				<path d="M36.076,44.553c0.056,1.389,0.002,2.785,0.102,4.17c0.008,0.109,0.163-0.012,0.167-0.08
					c0.094-1.396,0.038-2.809-0.023-4.207C36.314,44.283,36.072,44.443,36.076,44.553L36.076,44.553z"/>
			</g>
		</g>
		<g>
			<g>
				<path d="M30.676,44.031c-0.228,1.492-0.263,3.018-0.407,4.52c-0.014,0.145,0.212-0.01,0.232-0.084
					c0.398-1.463,0.256-3.016,0.472-4.51C31.004,43.738,30.697,43.891,30.676,44.031L30.676,44.031z"/>
			</g>
		</g>
		<g>
			<g>
				<path d="M29.614,43.406c-0.588,2.211-1.211,4.707-1.02,7.014c0.01,0.129,0.195,0,0.206-0.076
					c0.328-2.369,0.498-4.682,1.107-7.012C29.963,43.123,29.65,43.273,29.614,43.406L29.614,43.406z"/>
			</g>
		</g>
		<g>
			<g>
				<path d="M42.799,41.539c0.333,0.59,0.945,0.99,1.457,1.424c0.777,0.656,1.544,1.324,2.29,2.018
					c1.501,1.393,2.915,2.791,3.897,4.607c0.072,0.133,0.312-0.072,0.261-0.188c-0.791-1.746-2.06-3.27-3.405-4.615
					c-0.726-0.725-1.522-1.385-2.305-2.047c-0.595-0.504-1.205-1.17-1.938-1.457C42.949,41.24,42.734,41.426,42.799,41.539
					L42.799,41.539z"/>
			</g>
		</g>
		<g>
			<g>
				<path d="M44.039,40.068c1.179,0.656,2.006,1.66,3.059,2.465c0.097,0.074,0.268-0.105,0.202-0.201
					c-0.721-1.07-1.915-1.975-3.065-2.537C44.116,39.738,43.9,39.992,44.039,40.068L44.039,40.068z"/>
			</g>
		</g>
		<g>
			<g>
				<path d="M45.38,38.779c0.712,0.354,1.273,0.867,1.792,1.461c0.478,0.547,0.864,1.205,1.402,1.691
					c0.05,0.045,0.162-0.057,0.132-0.111c-0.694-1.279-1.862-2.605-3.188-3.234C45.434,38.547,45.28,38.729,45.38,38.779
					L45.38,38.779z"/>
			</g>
		</g>
		<g>
			<g>
				<path d="M41.151,42.793c1.509,2.146,3.467,4.416,5.613,5.949c0.057,0.039,0.162-0.062,0.119-0.119
					c-0.82-1.068-1.917-1.961-2.854-2.928c-0.956-0.984-1.854-2.008-2.657-3.123C41.301,42.473,41.075,42.686,41.151,42.793
					L41.151,42.793z"/>
			</g>
		</g>
		<g>
			<g>
				<path d="M39.955,43.49c0.122,1.076,0.897,2.326,1.852,2.865c0.09,0.053,0.242-0.129,0.18-0.211
					c-0.705-0.92-1.561-1.586-1.798-2.795C40.166,43.234,39.944,43.396,39.955,43.49L39.955,43.49z"/>
			</g>
		</g>
		<g>
			<g>
				<path d="M46.977,32.406c3.494,0.672,7.307,1.193,10.812,0.359c0.131-0.031,0.287-0.334,0.072-0.291
					c-3.578,0.713-7.047-0.377-10.612-0.523C47.079,31.943,46.741,32.361,46.977,32.406L46.977,32.406z"/>
			</g>
		</g>
		<g>
			<g>
				<path d="M47.013,30.621c1.569,0.203,3.146,0.455,4.714,0.633c0.056,0.008,0.153-0.104,0.085-0.141
					c-1.336-0.746-3.197-0.605-4.677-0.746C47.021,30.357,46.853,30.602,47.013,30.621L47.013,30.621z"/>
			</g>
		</g>
		<g>
			<g>
				<path d="M47.145,29.357c2.354,0.172,4.618,0.984,6.967,1.127c0.038,0.004,0.116-0.09,0.062-0.104
					c-2.253-0.543-4.603-1.088-6.92-1.248C47.151,29.125,47.004,29.348,47.145,29.357L47.145,29.357z"/>
			</g>
		</g>
		<g>
			<g>
				<path d="M47.028,34.465c1.509,0.061,3.095,0.27,4.597,0.074c0.035-0.004,0.091-0.082,0.034-0.092
					c-1.457-0.244-3.069-0.311-4.54-0.172C47.044,34.281,46.903,34.459,47.028,34.465L47.028,34.465z"/>
			</g>
		</g>
		<g>
			<g>
				<path d="M44.521,23.406c0.805,0.338,2-0.855,2.531-1.293c1.201-0.986,2.39-2.055,3.485-3.156c0.1-0.1,0.104-0.346-0.09-0.236
					c-0.94,0.52-1.753,1.398-2.548,2.113c-0.814,0.732-2.012,2.113-3.183,2.244C44.613,23.088,44.335,23.328,44.521,23.406
					L44.521,23.406z"/>
			</g>
		</g>
		<g>
			<g>
				<path d="M45.325,24.729c0.913-0.494,1.697-1.16,2.625-1.635c0.073-0.037,0.186-0.234,0.026-0.209
					c-1.014,0.17-1.794,1.131-2.654,1.627C45.216,24.572,45.149,24.824,45.325,24.729L45.325,24.729z"/>
			</g>
		</g>
		<g>
			<g>
				<path d="M46.626,26.359c1.19-1.209,2.501-2.342,3.582-3.65c0.09-0.109-0.041-0.15-0.122-0.078
					c-1.258,1.135-2.496,2.352-3.586,3.648C46.409,26.389,46.544,26.443,46.626,26.359L46.626,26.359z"/>
			</g>
		</g>
		<g>
			<g>
				<path d="M43.353,21.836c1.219-1.115,2.845-1.574,4.285-2.312c0.092-0.047,0.152-0.246-0.002-0.182
					c-1.549,0.65-3.174,1.174-4.341,2.436C43.238,21.84,43.292,21.893,43.353,21.836L43.353,21.836z"/>
			</g>
		</g>
		<g>
			<g>
				<path d="M41.34,19.859c1.058-1.596,1.89-3.316,2.746-5.025c0.895-1.789,2.088-3.467,2.91-5.275
					c0.104-0.225-0.152-0.229-0.273-0.102c-1.213,1.26-1.996,3.047-2.779,4.592c-0.973,1.92-1.912,3.854-2.915,5.756
					C40.896,20.057,41.24,20.012,41.34,19.859L41.34,19.859z"/>
			</g>
		</g>
		<g>
			<g>
				<path d="M43.166,19.199c1.734-1.402,2.595-3.752,3.406-5.766c0.043-0.105-0.089-0.062-0.121-0.002
					c-1.063,1.961-1.606,4.119-3.372,5.631C42.979,19.148,43.048,19.297,43.166,19.199L43.166,19.199z"/>
			</g>
		</g>
		<g>
			<g>
				<path d="M46.203,17.49c0.109,0,0.265-0.242,0.116-0.242C46.21,17.248,46.055,17.49,46.203,17.49L46.203,17.49z"/>
			</g>
		</g>
		<g>
			<g>
				<path d="M41.38,16.09c0.636-1.953,1.616-3.494,2.811-5.139c0.047-0.064-0.008-0.125-0.074-0.072
					c-1.572,1.244-2.422,3.406-2.974,5.27C41.093,16.318,41.347,16.193,41.38,16.09L41.38,16.09z"/>
			</g>
		</g>
		<g>
			<g>
				<path d="M40.423,13.658c0.106-0.496,0.358-0.896,0.655-1.299c0.22-0.299,0.506-0.576,0.639-0.926
					c0.041-0.107-0.066-0.105-0.128-0.049c-0.613,0.582-1.236,1.471-1.363,2.322C40.203,13.855,40.403,13.748,40.423,13.658
					L40.423,13.658z"/>
			</g>
		</g>
		<g>
			<g>
				<path d="M35.853,19.77c0.569-1.807,0.723-3.748,0.845-5.627c0.065-1.018,0.08-2.037,0.074-3.055
					c-0.004-0.734,0.075-1.6-0.191-2.295c-0.075-0.197-0.371,0.07-0.389,0.188c-0.243,1.613,0.035,3.396-0.034,5.037
					c-0.082,1.961-0.34,3.887-0.611,5.828C35.513,20.084,35.812,19.895,35.853,19.77L35.853,19.77z"/>
			</g>
		</g>
		<g>
			<g>
				<path d="M37.909,17.516c0.016-1.439,0.088-2.895-0.354-4.283c-0.036-0.115-0.235,0.055-0.211,0.15
					c0.347,1.404,0.387,2.777,0.395,4.215C37.739,17.705,37.908,17.592,37.909,17.516L37.909,17.516z"/>
			</g>
		</g>
		<g>
			<g>
				<path d="M39.384,18.061c-0.016-0.154-0.007-0.309,0.024-0.463c0.022-0.131-0.146-0.023-0.169,0.043
					c-0.063,0.186-0.087,0.344-0.101,0.537C39.13,18.318,39.39,18.182,39.384,18.061L39.384,18.061z"/>
			</g>
		</g>
		<g>
			<g>
				<path d="M34.449,18.713c0.364-2.299,0.893-4.631,0.939-6.967c0.003-0.164-0.243,0.02-0.255,0.123
					c-0.255,2.316-0.769,4.611-0.938,6.938C34.184,18.959,34.434,18.809,34.449,18.713L34.449,18.713z"/>
			</g>
		</g>
		<g>
			<g>
				<path d="M32.121,18.404c0.209-1.248,0.659-2.371,1.065-3.562c0.052-0.152-0.177-0.051-0.214,0.027
					c-0.546,1.115-0.881,2.367-1.07,3.59C31.877,18.621,32.104,18.508,32.121,18.404L32.121,18.404z"/>
			</g>
		</g>
		<g>
			<g>
				<path d="M26.137,23.359c-0.675-1.803-1.622-3.475-2.777-5.016c-1.402-1.869-3.363-2.902-5.271-4.176
					c-0.135-0.09-0.382,0.145-0.279,0.279c0.608,0.793,1.494,1.283,2.326,1.814c0.859,0.549,1.57,1.219,2.243,1.98
					c1.4,1.59,2.42,3.514,3.382,5.387C25.861,23.824,26.199,23.527,26.137,23.359L26.137,23.359z"/>
			</g>
		</g>
		<g>
			<g>
				<path d="M26.933,21.291c-0.794-1.578-1.816-3.328-3.088-4.566c-0.064-0.062-0.215,0.078-0.177,0.148
					c0.871,1.609,2.19,2.936,3.047,4.574C26.773,21.559,26.979,21.385,26.933,21.291L26.933,21.291z"/>
			</g>
		</g>
		<g>
			<g>
				<path d="M28.47,19.953c-0.276-0.521-0.636-0.951-1.094-1.322c-0.104-0.084-0.325,0.135-0.229,0.229
					c0.404,0.391,0.767,0.803,1.031,1.303C28.257,20.311,28.536,20.076,28.47,19.953L28.47,19.953z"/>
			</g>
		</g>
		<g>
			<g>
				<path d="M24.294,24.803c-0.534-0.938-1.212-1.789-1.812-2.684c-0.744-1.113-1.228-2.307-1.85-3.479
					c-0.033-0.064-0.13,0.033-0.118,0.084c0.527,2.189,2.086,4.582,3.6,6.229C24.176,25.021,24.334,24.873,24.294,24.803
					L24.294,24.803z"/>
			</g>
		</g>
		<g>
			<g>
				<path d="M21.635,23.496c-0.271-0.393-0.552-0.781-0.835-1.164c-0.064-0.088-0.255,0.094-0.214,0.182
					c0.21,0.445,0.527,0.822,0.803,1.229C21.464,23.854,21.718,23.619,21.635,23.496L21.635,23.496z"/>
			</g>
		</g>
		<g>
			<g>
				<path d="M22.375,30.625c-2.039-0.414-4.235,0.232-6.238,0.588c-2.631,0.467-5.276,0.15-7.92,0.422
					C7.958,31.66,7.571,32.26,7.931,32.23c2.263-0.191,4.546,0.125,6.801-0.18c2.464-0.334,4.843-0.941,7.345-0.926
					C22.253,31.125,22.64,30.678,22.375,30.625L22.375,30.625z"/>
			</g>
		</g>
		<g>
			<g>
				<path d="M21.73,30.121c0.059,0,0.142-0.129,0.062-0.129C21.734,29.992,21.651,30.121,21.73,30.121L21.73,30.121z"/>
			</g>
		</g>
		<g>
			<g>
				<path d="M21.803,30c-2.185-0.867-4.957-0.193-7.235-0.121c-0.101,0.004-0.258,0.23-0.111,0.232
					c2.436,0.029,4.84-0.119,7.276,0.006C21.775,30.119,21.864,30.023,21.803,30L21.803,30z"/>
			</g>
		</g>
		<g>
			<g>
				<path d="M20.236,28.543c-1.64-0.115-3.392-0.127-5.013,0.166c-0.07,0.012-0.2,0.195-0.073,0.199
					c1.67,0.062,3.329-0.297,5.012-0.211C20.231,28.701,20.333,28.549,20.236,28.543L20.236,28.543z"/>
			</g>
		</g>
		<g>
			<g>
				<path d="M19.353,32.82c-2.388,0.705-4.52,1.07-6.994,0.727c-0.058-0.008-0.149,0.102-0.084,0.143
					c0.871,0.539,2.148,0.404,3.115,0.271c1.339-0.186,2.625-0.484,3.906-0.916C19.392,33.012,19.514,32.771,19.353,32.82
					L19.353,32.82z"/>
			</g>
		</g>
		<g>
			<g>
				<path d="M24.127,38.969c-1.444,0.195-2.685,1.68-3.667,2.629c-0.856,0.828-1.694,1.559-2.76,2.113
					c-0.983,0.512-2.003,0.939-2.952,1.518c-0.229,0.139-0.284,0.635,0.079,0.451c1.683-0.85,3.45-1.523,4.896-2.756
					c1.448-1.234,2.587-2.742,4.353-3.549C24.231,39.303,24.433,38.928,24.127,38.969L24.127,38.969z"/>
			</g>
		</g>
		<g>
			<g>
				<path d="M24.896,39.691c-1.646,1.771-3.282,3.441-5.354,4.715c-0.099,0.061-0.121,0.275,0.033,0.195
					c2.146-1.117,3.867-2.996,5.427-4.805C25.1,39.686,25.001,39.578,24.896,39.691L24.896,39.691z"/>
			</g>
		</g>
		<g>
			<g>
				<path d="M25.603,40.959c-1.399,2.004-2.978,3.438-5.092,4.641c-0.056,0.031-0.158,0.209-0.022,0.174
					c2.262-0.559,4.094-2.9,5.308-4.742C25.915,40.85,25.697,40.822,25.603,40.959L25.603,40.959z"/>
			</g>
		</g>
		<g>
			<g>
				<path d="M22.913,37.461c-2.15,1.518-4.217,3.248-5.957,5.229c-0.104,0.117-0.001,0.229,0.111,0.111
					c1.815-1.904,3.81-3.576,5.917-5.148C23.114,37.557,23.089,37.338,22.913,37.461L22.913,37.461z"/>
			</g>
		</g>
		<g>
			<g>
				<path d="M22.51,36.197c-0.554,0.238-1.149,0.533-1.569,0.977c-0.112,0.117-0.054,0.275,0.108,0.172
					c0.491-0.318,0.933-0.67,1.464-0.928C22.628,36.361,22.696,36.117,22.51,36.197L22.51,36.197z"/>
			</g>
		</g>
		<g>
			<g>
				<path d="M26.884,44.664c-2.384,1.314-3.626,3.926-4.625,6.34c-0.588,1.42-1.092,2.877-1.621,4.32
					c-0.602,1.639-1.498,3.119-2.137,4.73c-0.135,0.342,0.294,0.207,0.396,0.006c1.297-2.586,2.45-5.088,3.467-7.799
					c0.989-2.635,2.147-5.602,4.586-7.223C27.132,44.918,27.184,44.498,26.884,44.664L26.884,44.664z"/>
			</g>
		</g>
		<g>
			<g>
				<path d="M26.48,45.898c-0.927,1.424-1.773,2.939-2.348,4.543c-0.69,1.926-0.854,3.971-1.817,5.803
					c-0.061,0.115,0.102,0.068,0.142,0.002c0.838-1.414,1.031-3.033,1.478-4.592c0.579-2.018,1.714-3.916,2.752-5.721
					C26.779,45.773,26.547,45.795,26.48,45.898L26.48,45.898z"/>
			</g>
		</g>
		<g>
			<g>
				<path d="M26.46,50.398c-0.895,2.59-2.095,4.99-3.483,7.346c-0.082,0.139,0.119,0.113,0.178,0.031
					c1.572-2.246,2.665-4.846,3.534-7.434C26.741,50.182,26.494,50.299,26.46,50.398L26.46,50.398z"/>
			</g>
		</g>
		<g>
			<g>
				<path d="M21.963,47.578c-1.644,2.326-3.09,4.973-3.813,7.742c-0.019,0.068,0.08,0.025,0.095-0.012
					c1.098-2.697,2.305-5.227,3.94-7.648C22.323,47.455,22.073,47.424,21.963,47.578L21.963,47.578z"/>
			</g>
		</g>
		<g>
			<g>
				<path d="M19.652,48.119c-0.254,0.631-0.535,1.248-0.803,1.875c-0.072,0.17,0.146,0.098,0.198,0.002
					c0.331-0.596,0.571-1.242,0.822-1.875C19.943,47.938,19.701,47.998,19.652,48.119L19.652,48.119z"/>
			</g>
		</g>
		<g>
			<g>
				<path d="M39.065,45.592c0.029,0.23,0.089,0.73,0.123,0.131c0.014-0.227-0.317,0.021-0.349,0.127
					c-0.739,2.512,0.617,5.309,1.669,7.525c0.617,1.305,1.273,2.59,1.867,3.904c0.3,0.666,0.571,1.336,0.668,2.064
					c0.089,0.672,0.031,1.326,0.229,1.982c0.036,0.119,0.239-0.053,0.23-0.139c-0.122-1.184-0.19-2.346-0.451-3.51
					c-0.317-1.408-0.969-2.715-1.593-4.006c-0.579-1.199-1.157-2.393-1.617-3.645c-0.528-1.438-0.602-2.803-0.654-4.305
					c-0.109,0.078-0.22,0.158-0.329,0.236c0.061,0.076,0.12,0.152,0.181,0.23c0.009,0.02,0.026,0.029,0.049,0.029
					c0.041,0.002,0.082,0.002,0.124,0.004c0.07,0,0.176-0.098,0.146-0.174c-0.086-0.17-0.138-0.352-0.154-0.541
					C39.192,45.439,39.059,45.535,39.065,45.592L39.065,45.592z"/>
			</g>
		</g>
		<g>
			<g>
				<path d="M40.586,48.611c-0.297,3.111,2.344,5.877,3.386,8.645c0.041,0.109,0.235-0.053,0.205-0.146
					c-0.971-3.002-3.062-5.373-3.365-8.605C40.798,48.352,40.595,48.523,40.586,48.611L40.586,48.611z"/>
			</g>
		</g>
		<g>
			<g>
				<path d="M42.524,49.824c0.612,1.516,1.071,3.057,1.607,4.594c0.025,0.07,0.141-0.031,0.137-0.082
					c-0.133-1.613-0.89-3.201-1.521-4.672C42.698,49.547,42.484,49.725,42.524,49.824L42.524,49.824z"/>
			</g>
		</g>
		<g>
			<g>
				<path d="M38.077,51.65c-0.246,1.803,0.377,3.996,1.618,5.348c0.051,0.055,0.164-0.062,0.141-0.119
					c-0.726-1.797-1.776-3.229-1.515-5.289C38.344,51.408,38.093,51.533,38.077,51.65L38.077,51.65z"/>
			</g>
		</g>
		<g>
			<g>
				<path d="M37.013,54.709c0.122,0.414,0.223,0.951,0.491,1.293c0.05,0.064,0.151-0.061,0.152-0.109
					c0.005-0.463-0.26-0.922-0.396-1.361C37.22,54.4,36.978,54.592,37.013,54.709L37.013,54.709z"/>
			</g>
		</g>
		<g>
			<g>
				<path d="M31.074,58.416c-0.147,0.924-0.183,1.863-0.284,2.793c-0.109,1.01-0.48,2.104-0.387,3.117
					c0.019,0.205,0.276,0.01,0.32-0.08c0.78-1.588,1.016-4.236,0.731-5.969C31.416,58.041,31.097,58.273,31.074,58.416
					L31.074,58.416z"/>
			</g>
		</g>
		<g>
			<g>
				<path d="M32.506,59.65c0.061,0.344,0.102,0.689,0.13,1.037c0.023,0.287-0.007,0.598,0.105,0.865
					c0.037,0.088,0.152-0.033,0.166-0.078c0.179-0.623-0.014-1.387-0.141-2.012C32.739,59.328,32.484,59.527,32.506,59.65
					L32.506,59.65z"/>
			</g>
		</g>
		<g>
			<g>
				<path d="M34.347,58.193c0.358,1.295,0.582,2.574,0.426,3.918c-0.016,0.135,0.217-0.008,0.229-0.109
					c0.153-1.361-0.081-2.648-0.449-3.955C34.521,57.939,34.319,58.096,34.347,58.193L34.347,58.193z"/>
			</g>
		</g>
		<g>
			<g>
				<path d="M29.875,57.234c-0.397,0.457-1.106,1.279-1.021,1.932c0.013,0.096,0.133,0.027,0.164-0.021
					c0.161-0.244,0.243-0.52,0.368-0.785c0.174-0.369,0.408-0.701,0.667-1.014C30.178,57.193,29.986,57.105,29.875,57.234
					L29.875,57.234z"/>
			</g>
		</g>
		<g>
			<g>
				<path d="M28.227,55.494c-0.751,1.277-1.107,2.939-0.852,4.412c0.018,0.098,0.143-0.014,0.148-0.072
					c0.139-1.537,0.102-2.947,0.898-4.338C28.51,55.342,28.282,55.398,28.227,55.494L28.227,55.494z"/>
			</g>
		</g>
		<g>
			<g>
				<path d="M51.053,51.328c1.43,1.883,3.413,3.506,5.373,4.814c0.144,0.096,0.402-0.152,0.296-0.295
					c-1.428-1.91-3.646-3.174-5.252-4.936C51.307,50.732,50.906,51.135,51.053,51.328L51.053,51.328z"/>
			</g>
		</g>
		<g>
			<g>
				<path d="M51.549,49.492c0.729,0.195,1.348,0.559,1.939,1.023c0.551,0.432,0.933,1.037,1.467,1.473
					c0.049,0.041,0.14-0.049,0.12-0.102c-0.485-1.309-2.048-2.326-3.351-2.639C51.609,49.219,51.419,49.457,51.549,49.492
					L51.549,49.492z"/>
			</g>
		</g>
		<g>
			<g>
				<path d="M52.556,48.67c0.409,0.236,0.818,0.473,1.22,0.723c0.444,0.275,0.846,0.617,1.294,0.883
					c0.072,0.043,0.209-0.111,0.15-0.176c-0.642-0.715-1.678-1.188-2.502-1.656C52.623,48.391,52.441,48.605,52.556,48.67
					L52.556,48.67z"/>
			</g>
		</g>
		<g>
			<g>
				<path d="M48.776,51.574c0.419,0.992,0.938,2.229,1.736,2.98c0.049,0.047,0.155-0.055,0.13-0.109
					c-0.246-0.518-0.612-0.98-0.898-1.48c-0.284-0.5-0.526-1.02-0.747-1.549C48.948,51.301,48.734,51.475,48.776,51.574
					L48.776,51.574z"/>
			</g>
		</g>
		<g>
			<g>
				<path d="M47.438,52.404c0.246,0.416,0.479,0.838,0.713,1.26c0.233,0.42,0.454,0.928,0.814,1.252
					c0.092,0.082,0.27-0.098,0.231-0.197c-0.175-0.451-0.499-0.852-0.746-1.27c-0.245-0.414-0.484-0.832-0.739-1.24
					C47.626,52.074,47.371,52.293,47.438,52.404L47.438,52.404z"/>
			</g>
		</g>
		<g>
			<g>
				<path d="M47.668,38.275c2.403,0.631,4.734,1.277,7.005,2.309c2.464,1.117,4.564,2.701,6.786,4.213
					c0.237,0.162,0.696-0.332,0.48-0.48c-2.135-1.461-4.116-3.02-6.455-4.158c-2.34-1.139-4.948-2.076-7.552-2.326
					C47.766,37.816,47.439,38.215,47.668,38.275L47.668,38.275z"/>
			</g>
		</g>
		<g>
			<g>
				<path d="M53.237,38.553c1.539,0.305,2.766,1.207,4.221,1.703c0.057,0.02,0.18-0.094,0.12-0.141
					c-1.174-0.893-2.724-1.539-4.168-1.805C53.295,38.289,53.111,38.529,53.237,38.553L53.237,38.553z"/>
			</g>
		</g>
		<g>
			<g>
				<path d="M56.166,38.34c0.367,0.244,0.719,0.516,1.096,0.742c0.065,0.039,0.198-0.105,0.14-0.164
					c-0.304-0.305-0.689-0.529-1.045-0.77C56.262,38.086,56.08,38.283,56.166,38.34L56.166,38.34z"/>
			</g>
		</g>
		<g>
			<g>
				<path d="M50.219,40.455c1.348,0.24,2.198,1.316,3.319,2c1.198,0.73,2.929,1.139,4.311,1.307c0.06,0.006,0.171-0.137,0.092-0.156
					c-1.538-0.359-3.065-0.754-4.378-1.676c-1.048-0.734-1.832-1.613-3.165-1.775C50.276,40.139,50.071,40.428,50.219,40.455
					L50.219,40.455z"/>
			</g>
		</g>
		<g>
			<g>
				<path d="M51.798,44.057c0.669,0.314,1.346,0.674,2.058,0.881c0.116,0.033,0.327-0.195,0.187-0.26
					c-0.678-0.312-1.383-0.568-2.066-0.869C51.865,43.76,51.669,43.996,51.798,44.057L51.798,44.057z"/>
			</g>
		</g>
		<g>
			<g>
				<path d="M57.952,34.541c2.395,0.582,4.723,1.127,7.057,1.945c0.163,0.057,0.444-0.287,0.256-0.357
					c-2.31-0.869-4.562-2.074-7.105-1.936C58.047,34.199,57.757,34.494,57.952,34.541L57.952,34.541z"/>
			</g>
		</g>
		<g>
			<g>
				<path d="M60.764,32.496c0.358,0.041,0.688,0.127,1.018,0.271c0.292,0.131,0.511,0.363,0.799,0.494
					c0.058,0.025,0.166-0.078,0.136-0.137c-0.315-0.605-1.208-0.812-1.831-0.881C60.771,32.232,60.605,32.477,60.764,32.496
					L60.764,32.496z"/>
			</g>
		</g>
		<g>
			<g>
				<path d="M60.504,31.717c0.171,0.062,0.335,0.125,0.511,0.172c0.073,0.02,0.207-0.121,0.118-0.164
					c-0.161-0.076-0.321-0.141-0.489-0.203C60.554,31.488,60.401,31.68,60.504,31.717L60.504,31.717z"/>
			</g>
		</g>
		<g>
			<g>
				<path d="M58.243,36.17c0.432,0.229,0.877,0.414,1.338,0.578c0.399,0.141,0.847,0.344,1.272,0.314
					c0.04-0.004,0.143-0.08,0.091-0.125c-0.3-0.264-0.812-0.311-1.189-0.434c-0.465-0.15-0.915-0.338-1.35-0.561
					C58.308,35.895,58.127,36.109,58.243,36.17L58.243,36.17z"/>
			</g>
		</g>
		<g>
			<g>
				<path d="M48.096,27.521c2.643-0.045,5.268-0.803,7.827-1.395c1.377-0.318,2.756-0.625,4.143-0.9
					c1.148-0.229,2.369-0.213,3.447-0.697c0.076-0.033,0.175-0.246,0.025-0.205c-1.062,0.301-2.238,0.201-3.335,0.348
					c-1.388,0.186-2.757,0.498-4.12,0.812c-2.604,0.604-5.209,1.113-7.832,1.615C48.104,27.127,47.832,27.525,48.096,27.521
					L48.096,27.521z"/>
			</g>
		</g>
		<g>
			<g>
				<path d="M54.02,28.107c2.142,0.129,4.322-0.008,6.306-0.893c0.076-0.033,0.169-0.248,0.025-0.201
					c-2.055,0.654-4.063,0.945-6.223,0.869C54.027,27.879,53.878,28.1,54.02,28.107L54.02,28.107z"/>
			</g>
		</g>
		<g>
			<g>
				<path d="M56.891,29.365c0.456,0.053,1.28-0.172,1.385-0.703c0.008-0.035-0.016-0.07-0.058-0.057
					c-0.152,0.053-0.248,0.143-0.378,0.24c-0.244,0.188-0.568,0.23-0.861,0.281C56.893,29.143,56.741,29.348,56.891,29.365
					L56.891,29.365z"/>
			</g>
		</g>
		<g>
			<g>
				<path d="M51.423,25.1c2.085-0.557,4.196-0.592,6.317-0.895c0.064-0.008,0.171-0.176,0.063-0.174
					c-2.119,0.033-4.284,0.295-6.328,0.859C51.381,24.916,51.272,25.139,51.423,25.1L51.423,25.1z"/>
			</g>
		</g>
		<g>
			<g>
				<path d="M52.847,18.654c0.363-0.109,0.65-0.393,0.968-0.598c0.602-0.389,1.241-0.719,1.849-1.1
					c1.433-0.9,2.608-2.201,4.017-3.16c0.121-0.082,0.158-0.369-0.045-0.254c-1.489,0.834-2.725,2.008-4.152,2.93
					c-0.731,0.473-2.54,1.104-2.755,2.062C52.709,18.615,52.762,18.68,52.847,18.654L52.847,18.654z"/>
			</g>
		</g>
		<g>
			<g>
				<path d="M53.168,20.391c1.199-0.98,2.716-1.896,3.543-3.244c0.073-0.117-0.041-0.17-0.128-0.08
					c-1.098,1.143-2.271,2.131-3.478,3.156C52.999,20.312,53.021,20.512,53.168,20.391L53.168,20.391z"/>
			</g>
		</g>
		<g>
			<g>
				<path d="M54.552,20.957c1.169-0.287,2.509-0.605,3.432-1.428c0.043-0.039,0.039-0.129-0.035-0.092
					c-0.515,0.252-0.987,0.559-1.521,0.779c-0.59,0.246-1.215,0.406-1.832,0.564C54.517,20.803,54.426,20.988,54.552,20.957
					L54.552,20.957z"/>
			</g>
		</g>
		<g>
			<g>
				<path d="M52.203,16.312c0.388-0.432,0.831-0.773,1.332-1.062c0.382-0.219,0.852-0.344,1.189-0.623
					c0.036-0.031,0.125-0.16,0.02-0.164c-0.409-0.021-0.913,0.328-1.253,0.533c-0.536,0.326-1.013,0.705-1.422,1.182
					C51.946,16.32,52.072,16.457,52.203,16.312L52.203,16.312z"/>
			</g>
		</g>
		<g>
			<g>
				<path d="M50.665,15.717c0.32-0.434,0.621-0.881,0.892-1.346c0.094-0.162-0.131-0.113-0.196-0.035
					c-0.336,0.408-0.588,0.873-0.877,1.312C50.37,15.82,50.573,15.84,50.665,15.717L50.665,15.717z"/>
			</g>
		</g>
		<g>
			<g>
				<path d="M38.611,0.564c-0.68,0.842-0.992,1.941-1.271,2.971c-0.321,1.182-0.834,2.621-0.799,3.848
					c0.005,0.166,0.229,0.039,0.272-0.033c0.574-0.953,0.74-2.117,0.986-3.191c0.285-1.246,0.729-2.393,1.163-3.59
					C39.059,0.305,38.684,0.475,38.611,0.564L38.611,0.564z"/>
			</g>
		</g>
		<g>
			<g>
				<path d="M37.542,8.092c0.607-1.016,1.552-2.545,1.244-3.785c-0.024-0.096-0.164,0.043-0.175,0.084
					c-0.155,0.613-0.22,1.227-0.418,1.832c-0.212,0.641-0.529,1.246-0.857,1.834C37.246,8.217,37.479,8.199,37.542,8.092
					L37.542,8.092z"/>
			</g>
		</g>
		<g>
			<g>
				<path d="M39.201,7.559c0.183-0.342,0.419-0.65,0.587-1c0.066-0.139-0.108-0.1-0.163-0.029c-0.254,0.326-0.483,0.662-0.678,1.025
					C38.838,7.758,39.132,7.689,39.201,7.559L39.201,7.559z"/>
			</g>
		</g>
		<g>
			<g>
				<path d="M24.148,3.246c1.111,2.428,1.472,5.084,2.561,7.508c0.581,1.295,1.489,2.424,2.188,3.652
					c0.641,1.125,1.084,2.459,1.306,3.738c0.039,0.23,0.396-0.012,0.367-0.176c-0.475-2.744-1.984-4.844-3.161-7.295
					c-1.139-2.373-1.059-5.75-2.929-7.711C24.36,2.838,24.086,3.109,24.148,3.246L24.148,3.246z"/>
			</g>
		</g>
		<g>
			<g>
				<path d="M30.067,13.535c-1.079-2.641-2.068-5.572-3.623-7.973c-0.035-0.055-0.14,0.055-0.123,0.104
					c0.9,2.744,2.364,5.385,3.51,8.039C29.884,13.828,30.11,13.641,30.067,13.535L30.067,13.535z"/>
			</g>
		</g>
		<g>
			<g>
				<path d="M30.331,11.775c-0.15-0.662-0.398-1.908-1.072-2.24c-0.07-0.033-0.158,0.082-0.144,0.145
					c0.083,0.365,0.356,0.686,0.52,1.023c0.193,0.4,0.322,0.832,0.433,1.262C30.103,12.104,30.359,11.898,30.331,11.775
					L30.331,11.775z"/>
			</g>
		</g>
		<g>
			<g>
				<path d="M27.675,14.832c-0.597-0.621-1.15-1.275-1.673-1.959c-0.577-0.756-0.979-1.635-1.548-2.383
					c-0.043-0.057-0.155,0.055-0.146,0.105c0.132,0.764,0.664,1.461,1.105,2.082c0.603,0.846,1.322,1.625,2.06,2.355
					C27.557,15.115,27.756,14.916,27.675,14.832L27.675,14.832z"/>
			</g>
		</g>
		<g>
			<g>
				<path d="M24.817,13.312c-0.312-0.334-0.545-0.82-0.913-1.086c-0.075-0.053-0.191,0.068-0.17,0.145
					c0.121,0.451,0.525,0.854,0.846,1.18C24.677,13.648,24.912,13.414,24.817,13.312L24.817,13.312z"/>
			</g>
		</g>
		<g>
			<g>
				<path d="M16.631,14.344c-0.028-1.611-0.806-3.094-1.618-4.445c-0.676-1.125-1.636-2.74-2.815-3.389
					c-0.123-0.068-0.359,0.174-0.296,0.295c0.646,1.246,1.756,2.322,2.496,3.533c0.806,1.318,1.481,2.723,1.876,4.221
					C16.324,14.75,16.633,14.471,16.631,14.344L16.631,14.344z"/>
			</g>
		</g>
		<g>
			<g>
				<path d="M15.3,16.145c-1.02-1.412-1.71-2.967-2.594-4.449c-0.043-0.072-0.157,0.037-0.14,0.1
					c0.465,1.629,1.523,3.205,2.531,4.551C15.166,16.436,15.37,16.24,15.3,16.145L15.3,16.145z"/>
			</g>
		</g>
		<g>
			<g>
				<path d="M12.859,15.986c-0.248-0.68-0.461-1.391-0.779-2.041c-0.037-0.074-0.152,0.039-0.137,0.098
					c0.18,0.711,0.472,1.396,0.721,2.084C12.701,16.23,12.893,16.078,12.859,15.986L12.859,15.986z"/>
			</g>
		</g>
		<g>
			<g>
				<path d="M18.31,11.604c-0.424-0.939-1.041-2.027-1.896-2.637c-0.088-0.061-0.239,0.094-0.18,0.18
					c0.611,0.895,1.353,1.635,1.854,2.615C18.146,11.875,18.353,11.699,18.31,11.604L18.31,11.604z"/>
			</g>
		</g>
		<g>
			<g>
				<path d="M21.205,25.688c-2.657-0.928-5.413-1.555-8.071-2.49c-2.894-1.02-5.633-2.336-8.222-3.979
					c-0.143-0.09-0.433,0.176-0.301,0.301c2.021,1.943,5.082,3.166,7.663,4.137c2.793,1.051,5.761,1.924,8.708,2.404
					C21.125,26.082,21.395,25.752,21.205,25.688L21.205,25.688z"/>
			</g>
		</g>
		<g>
			<g>
				<path d="M18.397,23.143c-2.299-1.365-4.998-1.711-7.5-2.562c-0.092-0.031-0.255,0.154-0.146,0.205
					c2.418,1.131,5.146,1.227,7.5,2.562C18.336,23.395,18.5,23.203,18.397,23.143L18.397,23.143z"/>
			</g>
		</g>
		<g>
			<g>
				<path d="M13.722,26.188c-0.368-0.213-0.724-0.447-1.075-0.686c-0.323-0.221-0.634-0.5-1.022-0.576
					c-0.062-0.014-0.153,0.068-0.112,0.131c0.233,0.354,0.701,0.562,1.055,0.789c0.321,0.205,0.648,0.4,0.984,0.58
					C13.651,26.48,13.842,26.258,13.722,26.188L13.722,26.188z"/>
			</g>
		</g>
		<g>
			<g>
				<path d="M8.566,30.564c-0.884-0.746-2.395-0.838-3.511-1c-1.361-0.199-2.876-0.332-4.238-0.105
					c-0.168,0.027-0.45,0.41-0.167,0.453c1.205,0.184,2.459,0.111,3.676,0.25c1.338,0.15,2.638,0.695,3.96,0.791
					C8.418,30.963,8.717,30.693,8.566,30.564L8.566,30.564z"/>
			</g>
		</g>
		<g>
			<g>
				<path d="M10.944,28.748c-2.039,0.213-3.991-0.506-6.013-0.41c-0.077,0.002-0.217,0.17-0.091,0.189
					c1.966,0.312,4.027,0.727,6.017,0.459C10.951,28.975,11.082,28.734,10.944,28.748L10.944,28.748z"/>
			</g>
		</g>
		<g>
			<g>
				<path d="M7.287,27.373c-0.792-0.156-1.61-0.102-2.413-0.17c-0.075-0.008-0.229,0.168-0.122,0.205
					c0.759,0.256,1.599,0.158,2.386,0.213C7.233,27.629,7.414,27.396,7.287,27.373L7.287,27.373z"/>
			</g>
		</g>
		<g>
			<g>
				<path d="M8.002,34.572c-1.027,0-1.985-0.168-2.937-0.561c-0.864-0.355-1.548-0.99-2.361-1.424
					c-0.073-0.039-0.214,0.111-0.152,0.178c1.333,1.434,3.442,2.061,5.345,2.025C7.994,34.789,8.138,34.572,8.002,34.572
					L8.002,34.572z"/>
			</g>
		</g>
		<g>
			<g>
				<path d="M5.49,35.975c-0.226-0.104-0.435-0.219-0.64-0.359c-0.189-0.131-0.305-0.273-0.53-0.328
					c-0.07-0.016-0.161,0.07-0.142,0.141c0.117,0.426,0.73,0.672,1.104,0.836C5.411,36.32,5.64,36.045,5.49,35.975L5.49,35.975z"/>
			</g>
		</g>
		<g>
			<g>
				<path d="M20.261,35.496c-2.764,0.984-5.35,2.418-8.116,3.406c-2.771,0.99-5.738,1.549-8.628,2.074
					c-0.254,0.045-0.529,0.607-0.135,0.537c2.871-0.516,5.829-0.986,8.593-1.934c2.81-0.965,5.589-2.252,8.228-3.611
					C20.365,35.885,20.599,35.377,20.261,35.496L20.261,35.496z"/>
			</g>
		</g>
		<g>
			<g>
				<path d="M14.232,39.984c-1.732,0.494-3.314,1.352-5.116,1.594c-0.13,0.018-0.327,0.352-0.125,0.34
					c1.837-0.115,3.456-1.107,5.174-1.664C14.28,40.217,14.427,39.93,14.232,39.984L14.232,39.984z"/>
			</g>
		</g>
		<g>
			<g>
				<path d="M12.093,37.514c-1.261,0.131-2.522,0.477-3.708,0.922c-0.104,0.039-0.221,0.285-0.032,0.256
					c1.225-0.191,2.386-0.67,3.618-0.846C12.101,37.828,12.285,37.492,12.093,37.514L12.093,37.514z"/>
			</g>
		</g>
		<g>
			<g>
				<path d="M11.239,36.586c-0.581,0.127-1.281,0.254-1.767,0.617c-0.076,0.057-0.182,0.285,0.004,0.244
					c0.567-0.121,1.109-0.404,1.683-0.543C11.304,36.869,11.472,36.535,11.239,36.586L11.239,36.586z"/>
			</g>
		</g>
		<g>
			<g>
				<path d="M14.267,45.027c-1.602,1.031-3.021,2.371-4.475,3.596c-0.781,0.658-1.572,1.305-2.386,1.924
					c-0.611,0.465-1.352,0.844-1.88,1.4c-0.101,0.105-0.175,0.357,0.059,0.318c0.632-0.107,1.216-0.639,1.727-1
					c0.82-0.58,1.592-1.234,2.363-1.877c1.604-1.336,3.224-2.682,4.76-4.096C14.624,45.117,14.51,44.871,14.267,45.027
					L14.267,45.027z"/>
			</g>
		</g>
		<g>
			<g>
				<path d="M13.748,47.355c-0.624,0.682-1.322,1.289-1.938,1.979c-0.416,0.467-0.932,1.059-1.008,1.701
					c-0.011,0.092,0.124,0.012,0.145-0.018c0.431-0.645,0.793-1.262,1.33-1.836c0.531-0.566,1.105-1.092,1.623-1.674
					C14.044,47.348,13.897,47.193,13.748,47.355L13.748,47.355z"/>
			</g>
		</g>
		<g>
			<g>
				<path d="M13.52,49.264c-0.264,0.436-0.65,0.773-0.911,1.197c-0.056,0.09-0.03,0.197,0.092,0.145
					c0.499-0.217,0.821-0.846,1.077-1.297C13.892,49.109,13.601,49.131,13.52,49.264L13.52,49.264z"/>
			</g>
		</g>
		<g>
			<g>
				<path d="M11.485,46.41c-1.089,0.195-2.1,0.873-3.038,1.43c-0.099,0.059-0.288,0.406-0.041,0.326
					c1.068-0.348,1.894-1.191,3.006-1.463C11.544,46.672,11.705,46.371,11.485,46.41L11.485,46.41z"/>
			</g>
		</g>
		<g>
			<g>
				<path d="M12.674,43.846c-1.665,0.604-3.124,1.592-4.664,2.445c-0.143,0.078-0.222,0.406,0.004,0.283
					c1.531-0.84,2.979-1.836,4.625-2.445C12.758,44.084,12.862,43.777,12.674,43.846L12.674,43.846z"/>
			</g>
		</g>
		<g>
			<g>
				<path d="M30.26,42.783c-0.016-0.902,0.063-1.775,0.25-2.658c0.161-0.766,0.449-1.52,0.526-2.297
					c0.011-0.107-0.145,0.004-0.163,0.041c-0.815,1.58-1.354,3.428-1.235,5.213C29.664,43.475,30.265,43.057,30.26,42.783
					L30.26,42.783z"/>
			</g>
		</g>
		<g>
			<g>
				<path d="M31.376,43.154c0.458-1.561,1.136-3.289,0.893-4.943c-0.013-0.084-0.129,0-0.137,0.051
					c-0.266,1.688-0.548,3.291-0.984,4.949C31.104,43.375,31.346,43.254,31.376,43.154L31.376,43.154z"/>
			</g>
		</g>
		<g>
			<g>
				<path d="M33.049,43.746c0.262-0.541,0.659-1.521,0.406-2.113c-0.031-0.072-0.125,0.029-0.138,0.066
					c-0.104,0.318-0.091,0.658-0.143,0.988c-0.058,0.367-0.172,0.719-0.326,1.057C32.772,43.91,32.998,43.852,33.049,43.746
					L33.049,43.746z"/>
			</g>
		</g>
		<g>
			<g>
				<path d="M34.872,44.059c0.431-1.037,0.464-2.148,0.055-3.199c-0.046-0.117-0.221,0.059-0.205,0.146
					c0.186,1.047,0.323,2.027-0.07,3.051C34.579,44.242,34.821,44.18,34.872,44.059L34.872,44.059z"/>
			</g>
		</g>
		<g>
			<g>
				<path d="M28.324,41.338c0.105-0.484,0.227-0.963,0.404-1.428c0.16-0.42,0.475-0.766,0.612-1.186
					c0.024-0.074-0.063-0.064-0.102-0.039c-0.783,0.521-1.004,1.865-1.165,2.715C28.039,41.586,28.299,41.453,28.324,41.338
					L28.324,41.338z"/>
			</g>
		</g>
		<g>
			<g>
				<path d="M27.191,40.59c0.142-0.557,0.389-0.975,0.712-1.441c0.066-0.096-0.011-0.188-0.108-0.107
					c-0.479,0.389-0.704,1.025-0.838,1.607C26.917,40.82,27.164,40.697,27.191,40.59L27.191,40.59z"/>
			</g>
		</g>
		<g>
			<g>
				<path d="M22.584,32.609c2.558-0.059,5.071-0.129,7.583-0.674c0.09-0.02,0.257-0.271,0.096-0.26
					c-2.482,0.158-4.967,0.277-7.448,0.453C22.609,32.145,22.283,32.617,22.584,32.609L22.584,32.609z"/>
			</g>
		</g>
		<g>
			<g>
				<path d="M23.141,30.678c0.882-0.053,1.756,0.016,2.633-0.016c0.067-0.002,0.237-0.168,0.123-0.205
					c-0.813-0.264-1.804-0.09-2.64-0.021C23.152,30.445,22.993,30.688,23.141,30.678L23.141,30.678z"/>
			</g>
		</g>
		<g>
			<g>
				<path d="M23.389,29.006c1.398-0.518,2.725,0.094,4.098,0.361c0.104,0.021,0.313-0.189,0.176-0.244
					c-1.375-0.559-2.85-0.984-4.277-0.389C23.236,28.797,23.156,29.092,23.389,29.006L23.389,29.006z"/>
			</g>
		</g>
		<g>
			<g>
				<path d="M23.798,27.494c0.304,0.072,0.592,0.193,0.888,0.293c0.095,0.033,0.263-0.156,0.151-0.211
					c-0.282-0.137-0.555-0.258-0.861-0.33C23.856,27.217,23.669,27.463,23.798,27.494L23.798,27.494z"/>
			</g>
		</g>
		<g>
			<g>
				<path d="M22.891,34.615c1.039-0.018,2.147,0.285,3.086-0.295c0.06-0.037,0.124-0.219-0.002-0.178
					c-0.992,0.332-1.945,0.174-2.968,0.23C22.902,34.379,22.74,34.617,22.891,34.615L22.891,34.615z"/>
			</g>
		</g>
		<g>
			<g>
				<path d="M23.7,36.73c1.375-0.516,2.814-1.061,4.033-1.893c0.099-0.066,0.134-0.291-0.036-0.207c-1.326,0.66-2.617,1.334-4,1.877
					C23.573,36.557,23.511,36.803,23.7,36.73L23.7,36.73z"/>
			</g>
		</g>
		<g>
			<g>
				<path d="M43.152,40.916c-0.798-1.221-1.926-2.25-2.919-3.311c-1.119-1.195-2.052-2.432-3.043-3.727
					c-0.08-0.104-0.284,0.109-0.247,0.209c0.521,1.396,1.604,2.551,2.528,3.693c0.994,1.227,2.143,2.441,3.274,3.541
					C42.923,41.494,43.276,41.107,43.152,40.916L43.152,40.916z"/>
			</g>
		</g>
		<g>
			<g>
				<path d="M41.234,42.334c-1.719-1.596-2.598-3.52-3.438-5.66c-0.04-0.1-0.21,0.045-0.199,0.119c0.286,1.977,1.678,4.73,3.46,5.75
					C41.141,42.59,41.312,42.406,41.234,42.334L41.234,42.334z"/>
			</g>
		</g>
		<g>
			<g>
				<path d="M38.864,43.359c-0.538-1.268-0.562-2.809-1.269-3.986c-0.053-0.088-0.186,0.045-0.168,0.119
					c0.322,1.332,0.646,2.771,1.231,4.014C38.709,43.611,38.902,43.449,38.864,43.359L38.864,43.359z"/>
			</g>
		</g>
		<g>
			<g>
				<path d="M37.192,40.348c-0.393-1.262-0.478-2.594-0.854-3.846c-0.026-0.086-0.152,0.045-0.155,0.094
					c-0.081,1.303,0.36,2.701,0.773,3.922C36.998,40.641,37.226,40.457,37.192,40.348L37.192,40.348z"/>
			</g>
		</g>
		<g>
			<g>
				<path d="M42.692,37.375c-0.361-0.299-0.734-0.584-1.092-0.889c-0.405-0.348-0.71-0.752-1.054-1.152
					c-0.071-0.084-0.242,0.092-0.208,0.178c0.372,0.914,1.382,1.504,2.116,2.102C42.564,37.703,42.796,37.463,42.692,37.375
					L42.692,37.375z"/>
			</g>
		</g>
		<g>
			<g>
				<path d="M44.734,35.42c-0.428-0.234-0.882-0.496-1.367-0.578c-0.058-0.01-0.185,0.117-0.12,0.168
					c0.373,0.299,0.873,0.451,1.292,0.684C44.653,35.758,44.873,35.498,44.734,35.42L44.734,35.42z"/>
			</g>
		</g>
		<g>
			<g>
				<path d="M46.319,27.326c-3.283,0.832-6.591,1.363-9.467,3.264c-0.1,0.066-0.128,0.291,0.035,0.203
					c2.889-1.549,6.23-1.984,9.316-3.004C46.396,27.725,46.662,27.238,46.319,27.326L46.319,27.326z"/>
			</g>
		</g>
		<g>
			<g>
				<path d="M45.795,25.361c-1.408,0.379-2.865,0.953-4.116,1.705c-0.043,0.025-0.089,0.148,0.002,0.125
					c1.391-0.367,2.653-1.168,4.048-1.564C45.847,25.594,45.985,25.311,45.795,25.361L45.795,25.361z"/>
			</g>
		</g>
		<g>
			<g>
				<path d="M45.17,24.799c-0.521,0.191-1.105,0.301-1.597,0.555c-0.046,0.023-0.152,0.158-0.043,0.168
					c0.521,0.049,1.126-0.285,1.607-0.469C45.244,25.012,45.339,24.738,45.17,24.799L45.17,24.799z"/>
			</g>
		</g>
		<g>
			<g>
				<path d="M46.306,29.193c-0.848,0.223-1.812,0.215-2.608,0.596c-0.074,0.035-0.275,0.324-0.077,0.307
					c0.852-0.072,1.782-0.291,2.598-0.549C46.368,29.498,46.563,29.125,46.306,29.193L46.306,29.193z"/>
			</g>
		</g>
		<g>
			<g>
				<path d="M40.771,21.102c-1.628,1.115-2.46,2.934-3.584,4.49c-0.087,0.121,0.041,0.156,0.128,0.08
					c1.44-1.24,2.225-3.021,3.611-4.326C41.097,21.186,40.995,20.947,40.771,21.102L40.771,21.102z"/>
			</g>
		</g>
		<g>
			<g>
				<path d="M41.719,21.451c-0.77,0.771-1.646,1.723-2.085,2.73c-0.036,0.084,0.058,0.088,0.104,0.039
					c0.346-0.373,0.602-0.832,0.897-1.246c0.36-0.502,0.74-0.99,1.17-1.438C41.89,21.449,41.806,21.363,41.719,21.451L41.719,21.451
					z"/>
			</g>
		</g>
		<g>
			<g>
				<path d="M42.78,22.502c-0.269,0.213-0.516,0.449-0.774,0.674c-0.119,0.104-0.043,0.268,0.104,0.164
					c0.265-0.188,0.503-0.404,0.758-0.602C43.026,22.615,42.985,22.338,42.78,22.502L42.78,22.502z"/>
			</g>
		</g>
		<g>
			<g>
				<path d="M30.062,21.637c0.554,2.199,0.265,4.691,1.438,6.705c0.082,0.139,0.307-0.074,0.271-0.193
					c-0.66-2.229-0.53-4.605-1.312-6.797C30.383,21.137,30.018,21.459,30.062,21.637L30.062,21.637z"/>
			</g>
		</g>
		<g>
			<g>
				<path d="M31.786,21.168c0.001,1.139-0.064,2.371,0.174,3.488c0.013,0.059,0.102-0.029,0.104-0.062
					c0.095-1.16-0.069-2.357-0.078-3.521C31.985,20.947,31.786,21.078,31.786,21.168L31.786,21.168z"/>
			</g>
		</g>
		<g>
			<g>
				<path d="M34.353,20.707c-0.763,2.363-1.045,4.791-1.168,7.262c-0.005,0.096,0.149-0.006,0.154-0.074
					c0.156-2.441,0.469-4.896,1.207-7.236C34.589,20.521,34.38,20.621,34.353,20.707L34.353,20.707z"/>
			</g>
		</g>
		<g>
			<g>
				<path d="M35.947,20.783c-0.256,0.326-0.388,0.695-0.509,1.09c-0.146,0.473-0.336,0.984-0.391,1.477
					c-0.011,0.094,0.132,0.016,0.152-0.02c0.46-0.758,0.475-1.727,0.889-2.521C36.151,20.689,35.995,20.723,35.947,20.783
					L35.947,20.783z"/>
			</g>
		</g>
		<g>
			<g>
				<path d="M27.84,22.385c0.186,0.5,0.374,0.998,0.57,1.494c0.043,0.107,0.234-0.053,0.202-0.145
					c-0.179-0.504-0.365-1.004-0.555-1.506C28.015,22.115,27.804,22.285,27.84,22.385L27.84,22.385z"/>
			</g>
		</g>
		<g>
			<g>
				<path d="M26.645,23.799c0.245,0.299,0.49,0.588,0.774,0.852c0.079,0.072,0.256-0.104,0.185-0.186
					c-0.251-0.291-0.488-0.596-0.725-0.9C26.799,23.461,26.555,23.691,26.645,23.799L26.645,23.799z"/>
			</g>
		</g>
		<g>
			<g>
				<path d="M34.076,31.291c-0.053,0.004-0.478,0.725-0.116,0.465c0.07-0.049,0.131-0.117,0.168-0.195
					c0.052-0.107,0.049-0.279-0.109-0.279c-0.239,0-0.611,0.547-0.265,0.551C34.002,31.836,34.292,31.283,34.076,31.291
					L34.076,31.291z"/>
			</g>
		</g>
		<g>
			<g>
				<path d="M33.701,30.572c0.104-0.055,0.192-0.086,0.289-0.152c0.052-0.037,0.149-0.146,0.107-0.219
					c-0.01-0.018-0.02-0.035-0.03-0.053c-0.023-0.041-0.059-0.078-0.112-0.072c-0.134,0.014-0.214,0.039-0.318,0.127
					C33.491,30.326,33.387,30.736,33.701,30.572L33.701,30.572z"/>
			</g>
		</g>
		<g>
			<g>
				<path d="M34.537,31.076c0.185-0.008,0.581-0.396,0.198-0.412C34.536,30.654,34.296,31.086,34.537,31.076L34.537,31.076z"/>
			</g>
		</g>
		<g>
			<g>
				<path d="M33.943,32.893c0.086,0-0.015-0.684-0.134-0.207c-0.019,0.074-0.005,0.166,0.076,0.197
					c0.19,0.07,0.411-0.164,0.452-0.33C34.498,31.914,33.354,32.893,33.943,32.893L33.943,32.893z"/>
			</g>
		</g>
		<g>
			<g>
				<path d="M32.701,33.193c0.174-0.084,0.291-0.137,0.421-0.275c0.032-0.035,0.083-0.137-0.003-0.143
					c-0.17-0.008-0.271,0.066-0.422,0.146C32.56,32.994,32.476,33.301,32.701,33.193L32.701,33.193z"/>
			</g>
		</g>
		<g>
			<g>
				<path d="M34.234,33.557c0.206,0.004,0.515-0.379,0.18-0.373C34.249,33.186,34,33.553,34.234,33.557L34.234,33.557z"/>
			</g>
		</g>
		<g>
			<g>
				<path d="M35.623,31.67c0.011-0.012,0.021-0.021,0.032-0.031c0.237-0.223-0.004-0.463-0.226-0.227
					c-0.01,0.012-0.021,0.021-0.03,0.033C35.18,31.68,35.389,31.889,35.623,31.67L35.623,31.67z"/>
			</g>
		</g>
	</g>
</g>
<g id="DESIGNED_BY_FREEPIK">
</g>
</svg>
