<?xml version="1.0" encoding="utf-8"?>
<!-- Generator: Adobe Illustrator 16.0.0, SVG Export Plug-In . SVG Version: 6.00 Build 0)  -->
<!DOCTYPE svg PUBLIC "-//W3C//DTD SVG 1.1//EN" "http://www.w3.org/Graphics/SVG/1.1/DTD/svg11.dtd">
<svg version="1.1" xmlns="http://www.w3.org/2000/svg" xmlns:xlink="http://www.w3.org/1999/xlink" x="0px" y="0px"
	 width="41.183px" height="57.032px" viewBox="0 0 41.183 57.032" enable-background="new 0 0 41.183 57.032" xml:space="preserve">
<g id="BACKGROUND">
</g>
<g id="OBJECTS">
	<g>
		<g>
			<g>
				<path d="M1.077,56.399c3.485-10.641,9.528-20.615,17.751-28.256c3.926-3.648,8.539-6.471,12.69-9.845
					c3.897-3.169,7.397-7.008,9.581-11.573c0.366-0.765-0.693-0.504-0.932-0.012c-4.895,10.078-15.995,14.454-23.58,22.043
					C8.825,36.524,2.962,46.051,0.026,56.661C-0.185,57.425,0.931,56.845,1.077,56.399L1.077,56.399z"/>
			</g>
		</g>
		<g>
			<g>
				<path d="M40.235,6.572c-4.73,7.577-14.02,9.943-20.726,15.285c-3.983,3.174-7.702,6.726-10.571,10.958
					c-1.399,2.064-2.508,4.306-3.312,6.664c-0.832,2.443-1.473,5.268-1.069,7.845c0.135,0.862,1.432-0.101,1.3-0.775
					c-1.01-5.193,1.727-10.702,4.696-14.792c2.967-4.085,6.959-7.718,11.139-10.533c3.501-2.357,7.403-4.08,11.003-6.282
					c3.247-1.985,6.855-4.614,8.422-8.216C41.435,5.995,40.515,6.124,40.235,6.572L40.235,6.572z"/>
			</g>
		</g>
		<g>
			<g>
				<path d="M40.15,6.714c-1.626,3.891-2.688,7.998-4.417,11.845c-2.04,4.537-5.389,7.674-9.267,10.669
					c-3.882,2.999-8.032,5.633-12.019,8.485c-1.918,1.372-3.803,2.793-5.595,4.328c-1.539,1.318-2.701,3.021-4.331,4.212
					c-0.598,0.438-0.836,1.924,0.231,1.323c1.746-0.983,2.58-2.509,3.904-3.926c1.765-1.887,4.078-3.436,6.15-4.963
					c4.188-3.087,8.57-5.895,12.677-9.096c3.623-2.825,6.838-5.9,8.955-10.029c2.082-4.061,3.106-8.574,4.677-12.837
					C41.422,5.899,40.372,6.185,40.15,6.714L40.15,6.714z"/>
			</g>
		</g>
		<g>
			<g>
				<path d="M5.872,44.37c-0.27-4.123,0.039-8.208,1.064-12.215c1.048-4.091,2.866-7.966,4.904-11.647
					c2.004-3.62,4.322-7.021,6.905-10.251c2.596-3.246,5.434-6.282,7.563-9.871c-0.235-0.003-0.472-0.007-0.707-0.01
					c-1.395,3.112-2.12,6.57-3.158,9.815c-1.131,3.531-2.924,6.748-4.913,9.86c-1.885,2.947-3.954,5.773-5.94,8.652
					c-1.981,2.873-4.051,5.853-5.602,8.982c-0.371,0.749,0.618,0.601,0.913,0.16c2.02-3.025,3.916-6.14,5.98-9.134
					c2.072-3.006,4.218-5.96,6.167-9.049c1.789-2.835,3.347-5.759,4.431-8.937c0.58-1.702,0.992-3.451,1.407-5.199
					c0.42-1.768,1.004-3.488,1.459-5.245c0.146-0.564-0.613-0.152-0.744,0.093c-2.092,3.924-5.414,7.152-8.147,10.625
					c-2.547,3.233-4.898,6.647-6.896,10.246c-3.844,6.921-6.942,15.579-5.437,23.57C5.194,45.198,5.891,44.655,5.872,44.37
					L5.872,44.37z"/>
			</g>
		</g>
		<g>
			<g>
				<path d="M37.097,11.683c-3.218,2.53-6.54,4.919-9.915,7.233c-3.248,2.227-6.668,4.249-9.637,6.851
					c-2.812,2.465-5.208,5.411-7.162,8.592c-2.068,3.367-3.251,7.089-4.363,10.856c-0.104,0.348,0.411,0.08,0.48-0.121
					c1.314-3.786,2.353-7.497,4.469-10.945c1.93-3.144,4.376-5.961,7.146-8.39c2.924-2.564,6.376-4.539,9.575-6.734
					c3.261-2.238,6.448-4.575,9.501-7.09C37.353,11.801,37.32,11.507,37.097,11.683L37.097,11.683z"/>
			</g>
		</g>
		<g>
			<g>
				<path d="M38.977,9.998c-3.648,7.172-9.991,12.127-16.315,16.826c-6.356,4.724-11.549,10.567-16.094,17.02
					c-0.234,0.334,0.186,0.393,0.367,0.135c2.442-3.476,5.03-6.801,7.979-9.866c2.84-2.953,5.99-5.521,9.279-7.952
					c5.975-4.418,11.749-9.384,15.095-16.158C39.413,9.748,39.059,9.837,38.977,9.998L38.977,9.998z"/>
			</g>
		</g>
		<g>
			<g>
				<path d="M38.437,12.006C35.22,18.771,29.26,23.37,23.429,27.788c-2.753,2.085-5.506,4.174-8.051,6.514
					c-2.978,2.736-5.437,5.909-7.59,9.324c-0.205,0.326,0.177,0.373,0.346,0.129c2.416-3.505,4.863-6.787,8.027-9.66
					c2.784-2.528,5.84-4.742,8.825-7.021c5.44-4.152,10.836-8.692,13.714-15.063C38.799,11.791,38.503,11.867,38.437,12.006
					L38.437,12.006z"/>
			</g>
		</g>
		<g>
			<g>
				<path d="M37.554,14.565c-3.748,5.713-8.41,10.516-13.873,14.617c-5.456,4.097-11.412,7.957-15.218,13.789
					c-0.154,0.235,0.093,0.355,0.259,0.163c2.494-2.876,4.818-5.665,7.779-8.093c2.828-2.317,5.892-4.331,8.774-6.578
					c4.839-3.771,9.512-8.443,12.469-13.865C37.827,14.447,37.614,14.473,37.554,14.565L37.554,14.565z"/>
			</g>
		</g>
		<g>
			<g>
				<path d="M24.216,3.186c-2.46,6.16-5.032,12.226-8.766,17.741c-1.77,2.613-3.713,5.114-5.323,7.832
					c-1.731,2.923-2.924,6.003-3.87,9.258c-0.1,0.344,0.403,0.077,0.473-0.117c1.164-3.292,2.219-6.439,4.033-9.449
					c1.692-2.808,3.693-5.416,5.514-8.139c3.541-5.297,5.986-11.177,8.201-17.122C24.562,2.966,24.273,3.04,24.216,3.186
					L24.216,3.186z"/>
			</g>
		</g>
		<g>
			<g>
				<path d="M23.895,3.53c-2.702,6.465-6.722,12.207-10.531,18.048c-1.81,2.773-3.547,5.595-5.075,8.534
					c-1.477,2.84-2.802,6.016-2.795,9.274c0,0.286,0.418-0.037,0.438-0.211c0.789-6.949,4.735-12.812,8.488-18.536
					c3.613-5.511,7.327-10.964,9.806-17.105C24.337,3.256,23.97,3.349,23.895,3.53L23.895,3.53z"/>
			</g>
		</g>
		<g>
			<g>
				<path d="M23.126,4.407c-3.23,6.199-7.021,12.204-11.307,17.717c-1.975,2.541-3.539,5.195-4.703,8.2
					c-1.076,2.776-1.987,5.928-1.887,8.935c0.008,0.221,0.316-0.031,0.332-0.16c0.415-3.477,1.112-6.735,2.463-9.981
					c1.27-3.05,3.166-5.638,5.192-8.218c2.018-2.568,3.66-5.258,5.354-8.043c1.685-2.771,3.388-5.522,4.802-8.445
					C23.47,4.208,23.191,4.282,23.126,4.407L23.126,4.407z"/>
			</g>
		</g>
	</g>
</g>
<g id="DESIGNED_BY_FREEPIK">
</g>
</svg>
