<?xml version="1.0" encoding="utf-8"?>
<!-- Generator: Adobe Illustrator 16.0.0, SVG Export Plug-In . SVG Version: 6.00 Build 0)  -->
<!DOCTYPE svg PUBLIC "-//W3C//DTD SVG 1.1//EN" "http://www.w3.org/Graphics/SVG/1.1/DTD/svg11.dtd">
<svg version="1.1" xmlns="http://www.w3.org/2000/svg" xmlns:xlink="http://www.w3.org/1999/xlink" x="0px" y="0px"
	 width="85.759px" height="112.978px" viewBox="0 0 85.759 112.978" enable-background="new 0 0 85.759 112.978"
	 xml:space="preserve">
<g id="BACKGROUND">
</g>
<g id="OBJECTS">
	<g>
		<g>
			<g>
				<path d="M57.312,112.227c0.167-4.743-1.075-9.683-2.008-14.306c-1.047-5.185-2.197-10.348-3.326-15.516
					c-1.027-4.697-2.027-9.404-2.872-14.138c-0.411-2.305-0.665-4.613-0.943-6.936c-0.34-2.834-1.132-5.591-1.489-8.424
					c-0.106-0.843-1.416,0.042-1.344,0.646c0.322,2.694,0.948,5.34,1.309,8.028c0.309,2.3,0.458,4.623,0.766,6.925
					c0.644,4.833,1.592,9.619,2.587,14.391c1.08,5.178,2.247,10.337,3.33,15.514c0.525,2.507,1.021,5.021,1.52,7.533
					c0.45,2.271,0.777,4.656,1.513,6.854C56.532,113.33,57.301,112.542,57.312,112.227L57.312,112.227z"/>
			</g>
		</g>
		<g>
			<g>
				<path d="M46.2,53.346c-5.678-8.492-12.627-16.037-19.057-23.954c-3.203-3.944-6.349-7.937-9.249-12.111
					c-1.255-1.808-2.495-3.628-3.804-5.397c-1.379-1.863-2.876-3.854-4.768-5.225c-0.585-0.424-1.771,0.708-1.26,1.26
					c1.521,1.639,3.03,3.225,4.382,5.013c1.415,1.871,2.704,3.833,4.043,5.756c2.909,4.178,5.946,8.254,9.147,12.213
					c6.398,7.911,13.003,15.667,19.604,23.406C45.605,54.737,46.505,53.802,46.2,53.346L46.2,53.346z"/>
			</g>
		</g>
		<g>
			<g>
				<path d="M45.567,54.658c-0.008-0.224-0.36-0.214-0.319-0.452c0.028-0.164,0.016-0.321-0.154-0.397
					c-2.118-0.947-4.765-1.043-7.032-1.396c-2.68-0.416-5.259-0.874-7.859-1.646c-4.509-1.337-8.923-2.968-13.196-4.936
					c-4.125-1.899-7.527-4.816-11.472-7.002c-0.414-0.229-1.206,0.705-0.707,0.987c2.094,1.186,4.007,2.654,5.981,4.023
					c1.971,1.366,4.056,2.454,6.228,3.464c4.477,2.082,9.162,3.842,13.866,5.338c2.437,0.775,5.057,1.039,7.578,1.403
					c1.45,0.209,2.9,0.414,4.348,0.628c0.491,0.072,0.98,0.16,1.474,0.201c0.176,0.015,1.006-0.395,1.023-0.1
					C45.334,54.926,45.571,54.766,45.567,54.658L45.567,54.658z"/>
			</g>
		</g>
		<g>
			<g>
				<path d="M46.404,53.977c2.925-6.742,6.467-13.286,8.267-20.456c0.111-0.443-0.519-0.104-0.6,0.15
					c-2.263,7.087-6.625,13.311-8.792,20.446C45.036,54.921,46.219,54.405,46.404,53.977L46.404,53.977z"/>
			</g>
		</g>
		<g>
			<g>
				<path d="M50.12,76.559c-0.542-0.571-1.728-0.736-2.457-1.026c-1.105-0.44-2.177-0.973-3.237-1.511
					c-2.199-1.116-4.316-2.39-6.442-3.637c-2-1.173-4.009-2.341-6.096-3.354c-1.373-0.666-3.461-1.755-5.041-1.394
					c-0.246,0.056-0.835,0.656-0.406,0.841c0.66,0.283,1.482,0.288,2.181,0.502c0.975,0.299,1.909,0.73,2.824,1.176
					c2.097,1.021,4.069,2.289,6.044,3.523c2.082,1.301,4.16,2.608,6.318,3.78c0.948,0.515,1.92,0.972,2.918,1.38
					c0.865,0.354,1.88,0.826,2.824,0.664C49.86,77.451,50.424,76.879,50.12,76.559L50.12,76.559z"/>
			</g>
		</g>
		<g>
			<g>
				<path d="M50.12,77.303c1.44-3.553,2.814-7.125,4.458-10.591c0.856-1.807,1.785-3.583,2.787-5.313
					c0.46-0.794,0.965-1.558,1.463-2.328c0.428-0.661,1.05-1.292,1.323-2.033c0.137-0.371-0.155-0.479-0.448-0.288
					c-1.273,0.831-2.183,2.562-2.979,3.818c-1.1,1.736-2.075,3.546-2.985,5.388c-1.812,3.668-3.462,7.507-4.537,11.462
					C49.021,78.08,49.974,77.662,50.12,77.303L50.12,77.303z"/>
			</g>
		</g>
		<g>
			<g>
				<path d="M56.203,105.003c-6.604-6.031-13.832-11.49-21.026-16.791c-3.654-2.692-7.346-5.332-11.062-7.938
					c-3.619-2.538-7.224-5.175-11.02-7.445c-0.352-0.21-1.116,0.619-0.763,0.897c3.428,2.705,7.084,5.143,10.61,7.72
					c3.653,2.669,7.276,5.379,10.867,8.132c7.125,5.462,14.014,11.175,20.96,16.857C55.419,106.968,56.815,105.562,56.203,105.003
					L56.203,105.003z"/>
			</g>
		</g>
		<g>
			<g>
				<path d="M56.492,105.417c0.92-2.086,1.631-4.254,2.573-6.334c0.935-2.064,2.01-4.059,3.125-6.03
					c2.348-4.156,5.018-8.122,7.59-12.14c4.509-7.044,8.415-14.358,11.04-22.326c0.305-0.926-1.162-0.28-1.35,0.338
					c-1.106,3.627-2.45,7.288-4.127,10.688c-2.058,4.171-4.57,8.101-7.107,11.992c-2.463,3.778-4.967,7.529-7.23,11.433
					c-1.135,1.958-2.173,3.974-3.117,6.03c-0.938,2.043-1.926,4.23-2.29,6.461C55.49,106.199,56.341,105.758,56.492,105.417
					L56.492,105.417z"/>
			</g>
		</g>
		<g>
			<g>
				<path d="M57.975,100.958c0.324-0.743-0.228-1.486-0.426-2.234c-0.303-1.141-0.331-2.359-0.332-3.532
					c-0.001-1.161,0.077-2.321,0.168-3.477c0.073-0.921,0.308-1.988,0.079-2.896c-0.078-0.307-0.54,0.088-0.593,0.219
					c-0.738,1.806-0.765,4.103-0.851,6.027c-0.088,1.971-0.047,4.441,1.101,6.136c0.069,0.102,0.241,0.079,0.337,0.062
					C57.671,101.225,57.879,101.179,57.975,100.958L57.975,100.958z"/>
			</g>
		</g>
		<g>
			<g>
				<path d="M58.5,98.881c0.487-2.091,0.557-4.249,0.695-6.384c0.144-2.228,0.63-4.483,0.672-6.702
					c0.008-0.423-0.597-0.02-0.671,0.168c-0.742,1.877-0.802,4.05-0.933,6.046c-0.155,2.36-0.283,4.734-0.379,7.098
					C57.869,99.496,58.453,99.085,58.5,98.881L58.5,98.881z"/>
			</g>
		</g>
		<g>
			<g>
				<path d="M60.45,96.327c0.119-2.456,0.382-4.91,0.802-7.332c0.359-2.073,1.14-4.239,1.177-6.344
					c0.007-0.407-0.568-0.014-0.641,0.16c-0.889,2.133-1.205,4.614-1.577,6.884c-0.378,2.306-0.6,4.607-0.406,6.941
					C59.84,97.058,60.437,96.593,60.45,96.327L60.45,96.327z"/>
			</g>
		</g>
		<g>
			<g>
				<path d="M62.703,92.341c0.046-2.189,0.245-4.368,0.567-6.534c0.163-1.093,0.356-2.182,0.562-3.268
					c0.177-0.936,0.488-1.904,0.405-2.86c-0.032-0.366-0.499-0.018-0.575,0.144c-0.876,1.86-1.061,4.199-1.338,6.221
					c-0.304,2.214-0.444,4.435-0.395,6.67C61.94,93.2,62.695,92.679,62.703,92.341L62.703,92.341z"/>
			</g>
		</g>
		<g>
			<g>
				<path d="M64.184,89.732c-0.154-1.905-0.014-3.776,0.339-5.653c0.316-1.679,1.247-3.514,1.185-5.219
					c-0.01-0.264-0.363-0.063-0.434,0.053c-0.958,1.582-1.323,3.601-1.677,5.397c-0.378,1.919-0.43,3.851-0.18,5.79
					C63.479,90.585,64.211,90.073,64.184,89.732L64.184,89.732z"/>
			</g>
		</g>
		<g>
			<g>
				<path d="M65.757,86.846c0.042-2.186,0.301-4.336,0.736-6.478c0.372-1.831,1.087-3.663,1.25-5.524
					c0.041-0.463-0.657-0.01-0.738,0.185c-0.789,1.894-1.176,4.032-1.571,6.04c-0.396,2.011-0.579,4.056-0.342,6.097
					C65.143,87.598,65.751,87.125,65.757,86.846L65.757,86.846z"/>
			</g>
		</g>
		<g>
			<g>
				<path d="M67.678,84.118c0.132-2.296,0.408-4.576,0.781-6.845c0.347-2.112,1.108-4.286,1.192-6.421
					c0.016-0.399-0.558-0.011-0.629,0.157c-0.844,2.015-1.129,4.348-1.48,6.494c-0.379,2.317-0.592,4.656-0.669,7.002
					C66.856,85.001,67.658,84.47,67.678,84.118L67.678,84.118z"/>
			</g>
		</g>
		<g>
			<g>
				<path d="M69.713,81.241c0.467-1.439,0.563-3.05,0.69-4.552c0.147-1.735,0.372-3.569,0.223-5.308
					c-0.043-0.512-0.764,0.006-0.812,0.298c-0.247,1.505-0.229,3.057-0.32,4.578c-0.103,1.718-0.438,3.49-0.39,5.207
					C69.115,81.874,69.656,81.418,69.713,81.241L69.713,81.241z"/>
			</g>
		</g>
		<g>
			<g>
				<path d="M71.234,77.75c0.951-1.799,1-3.99,1.1-5.977c0.06-1.184,0.089-2.367,0.187-3.549c0.07-0.856,0.521-2.034,0.254-2.858
					c-0.076-0.235-0.407,0.024-0.478,0.12c-1.048,1.417-0.875,3.906-0.934,5.586c-0.08,2.3-0.139,4.516-0.729,6.753
					C70.513,78.28,71.128,77.95,71.234,77.75L71.234,77.75z"/>
			</g>
		</g>
		<g>
			<g>
				<path d="M73.304,74.729c0.124-1.839,0.277-3.68,0.543-5.504c0.111-0.765,0.249-1.523,0.405-2.28
					c0.155-0.752,0.461-1.507,0.386-2.278c-0.024-0.25-0.342-0.066-0.417,0.051c-0.862,1.36-1.043,3.163-1.27,4.731
					c-0.268,1.864-0.338,3.747-0.37,5.627C72.574,75.528,73.283,75.037,73.304,74.729L73.304,74.729z"/>
			</g>
		</g>
		<g>
			<g>
				<path d="M75.028,72.284c0.111-2.171,0.443-4.32,0.83-6.458c0.194-1.071,0.396-2.142,0.587-3.213
					c0.161-0.899,0.443-1.908,0.289-2.817c-0.061-0.355-0.516-0.049-0.593,0.148c-0.726,1.865-0.85,4.127-1.166,6.103
					c-0.347,2.168-0.581,4.329-0.553,6.528C74.427,72.96,75.015,72.542,75.028,72.284L75.028,72.284z"/>
			</g>
		</g>
		<g>
			<g>
				<path d="M77.443,66.248c0.34-1.683,0.53-3.387,0.723-5.091c0.115-1.015,0.266-2.026,0.46-3.029
					c0.143-0.736,0.427-1.441,0.466-2.191c0.015-0.285-0.388-0.049-0.456,0.056c-0.856,1.325-1.07,3.055-1.27,4.592
					c-0.251,1.945-0.328,3.906-0.644,5.843C76.638,66.962,77.376,66.58,77.443,66.248L77.443,66.248z"/>
			</g>
		</g>
		<g>
			<g>
				<path d="M80.2,60.091c0.486-1.19,0.809-2.432,1.131-3.675c0.274-1.057,0.977-2.435,0.834-3.522
					c-0.044-0.334-0.433-0.074-0.544,0.067c-0.718,0.911-0.908,2.148-1.174,3.256c-0.315,1.316-0.625,2.636-0.919,3.957
					C79.418,60.669,80.094,60.352,80.2,60.091L80.2,60.091z"/>
			</g>
		</g>
		<g>
			<g>
				<path d="M57.965,100.849c0.01,0.027,0.02,0.054,0.029,0.081c0.007,0.083,0.036,0.155,0.12,0.187
					c1.574,0.584,3.837-0.42,5.3-0.937c1.05-0.372,2.077-0.796,3.086-1.268c0.632-0.295,1.688-0.668,1.981-1.365
					c0.048-0.114,0.08-0.28-0.065-0.339c-0.469-0.191-1.292,0.458-1.698,0.65c-1.043,0.493-2.105,0.94-3.183,1.351
					c-1.614,0.616-3.512,1.313-5.26,1.21C58.091,100.407,57.85,100.676,57.965,100.849L57.965,100.849z"/>
			</g>
		</g>
		<g>
			<g>
				<path d="M61.351,97.976c0.114,0,0.275-0.251,0.121-0.251C61.358,97.725,61.196,97.976,61.351,97.976L61.351,97.976z"/>
			</g>
		</g>
		<g>
			<g>
				<path d="M58.631,98.647c1.884-0.119,3.828-0.738,5.642-1.232c1.739-0.473,4.021-0.956,5.392-2.187
					c0.095-0.085,0.254-0.453-0.01-0.434c-0.724,0.052-1.368,0.429-2.038,0.692c-1.019,0.399-2.068,0.72-3.119,1.024
					c-1.89,0.548-3.902,0.852-5.73,1.586C58.62,98.157,58.286,98.669,58.631,98.647L58.631,98.647z"/>
			</g>
		</g>
		<g>
			<g>
				<path d="M59.563,96.511c3.608-0.385,7.728-1.325,10.799-3.352c0.171-0.113,0.385-0.666-0.008-0.541
					c-1.657,0.529-3.219,1.343-4.877,1.893c-1.797,0.597-3.659,0.998-5.539,1.22C59.599,95.772,59.1,96.561,59.563,96.511
					L59.563,96.511z"/>
			</g>
		</g>
		<g>
			<g>
				<path d="M61.013,93.977c2.306-0.413,4.492-1.156,6.631-2.1c2.048-0.903,4.407-1.853,6.201-3.197
					c0.126-0.094,0.308-0.488-0.006-0.415c-2.009,0.469-3.964,1.886-5.824,2.773c-2.188,1.045-4.461,1.847-6.844,2.308
					C60.875,93.402,60.548,94.06,61.013,93.977L61.013,93.977z"/>
			</g>
		</g>
		<g>
			<g>
				<path d="M62.293,92.186c1.771-0.635,3.526-1.298,5.19-2.184c1.43-0.761,3.209-1.748,4.112-3.132
					c0.126-0.194,0.064-0.482-0.216-0.335c-1.496,0.781-2.739,2.045-4.247,2.864c-1.533,0.832-3.156,1.499-4.763,2.174
					C62.126,91.675,61.874,92.336,62.293,92.186L62.293,92.186z"/>
			</g>
		</g>
		<g>
			<g>
				<path d="M64.095,90.05c2.398-1.12,4.778-2.294,7.069-3.622c2.018-1.17,4.657-2.629,5.957-4.63
					c0.108-0.166,0.056-0.442-0.192-0.299c-0.997,0.576-1.829,1.435-2.751,2.125c-1.078,0.807-2.223,1.529-3.383,2.209
					c-2.195,1.288-4.499,2.376-6.707,3.64C63.812,89.631,63.605,90.278,64.095,90.05L64.095,90.05z"/>
			</g>
		</g>
		<g>
			<g>
				<path d="M64.661,88.313c1.893-1.316,3.849-2.537,5.744-3.852c1.663-1.154,3.547-2.47,4.709-4.155
					c0.176-0.255-0.023-0.471-0.281-0.281c-1.729,1.271-3.266,2.783-5.013,4.045c-1.762,1.273-3.588,2.455-5.349,3.73
					C64.116,88.057,64.188,88.642,64.661,88.313L64.661,88.313z"/>
			</g>
		</g>
		<g>
			<g>
				<path d="M67.27,84.457c1.752-1.754,4.229-2.372,6.239-3.757c1.068-0.736,2.052-1.62,2.969-2.533
					c0.886-0.881,1.954-1.938,2.442-3.104c0.133-0.317-0.197-0.29-0.367-0.139c-1.037,0.917-1.849,2.104-2.841,3.082
					c-1.054,1.039-2.214,2.013-3.503,2.746c-1.815,1.032-3.992,1.749-5.279,3.49C66.703,84.55,67.045,84.68,67.27,84.457
					L67.27,84.457z"/>
			</g>
		</g>
		<g>
			<g>
				<path d="M69.796,81.846c0.285-0.802,1.079-1.503,1.662-2.088c0.899-0.901,1.878-1.729,2.851-2.548
					c0.929-0.782,1.874-1.544,2.801-2.328c0.577-0.488,1.501-1.066,1.781-1.802c0.104-0.273-0.046-0.442-0.327-0.327
					c-0.848,0.35-1.626,1.292-2.326,1.869c-1.088,0.897-2.17,1.804-3.234,2.731c-0.972,0.848-1.963,1.731-2.776,2.739
					c-0.413,0.512-1.005,1.206-0.882,1.92C69.397,82.311,69.747,81.987,69.796,81.846L69.796,81.846z"/>
			</g>
		</g>
		<g>
			<g>
				<path d="M71.723,76.769c1.608-1.649,3.269-3.246,4.881-4.89c1.582-1.614,3.394-3.291,4.56-5.245
					c0.239-0.4-0.126-0.552-0.423-0.268c-1.633,1.569-3.059,3.383-4.639,5.011c-1.604,1.653-3.228,3.287-4.807,4.964
					C70.877,76.786,71.292,77.21,71.723,76.769L71.723,76.769z"/>
			</g>
		</g>
		<g>
			<g>
				<path d="M75.362,71.175c1.563-1.769,3.124-3.54,4.639-5.351c1.411-1.686,3.334-3.55,4.162-5.609
					c0.126-0.313-0.192-0.288-0.363-0.137c-1.619,1.426-2.84,3.456-4.198,5.13c-1.544,1.905-3.101,3.8-4.614,5.73
					C74.73,71.266,75.126,71.443,75.362,71.175L75.362,71.175z"/>
			</g>
		</g>
		<g>
			<g>
				<path d="M77.26,65.793c1.618-1.632,3.383-3.107,5.017-4.722c1.286-1.271,2.961-2.857,3.47-4.646
					c0.087-0.306-0.309-0.219-0.43-0.079c-1.298,1.507-2.383,3.12-3.807,4.533c-1.534,1.522-3.152,2.955-4.634,4.529
					C76.499,65.809,76.869,66.188,77.26,65.793L77.26,65.793z"/>
			</g>
		</g>
		<g>
			<g>
				<path d="M78.472,62.784c0.88-1.276,1.684-2.602,2.436-3.957c0.783-1.41,1.696-2.839,2.309-4.329
					c0.195-0.474-0.363-0.351-0.552-0.096c-1.857,2.502-2.941,5.594-4.637,8.218C77.76,63.035,78.255,63.098,78.472,62.784
					L78.472,62.784z"/>
			</g>
		</g>
		<g>
			<g>
				<path d="M52.909,102.834c-1.081-2.56-2.304-5.047-3.797-7.392c-0.726-1.139-1.524-2.235-2.381-3.279
					c-0.844-1.028-1.841-2.377-3.064-2.948c-0.272-0.127-0.779,0.364-0.639,0.639c0.565,1.113,1.675,2.001,2.479,2.956
					c0.871,1.035,1.687,2.112,2.453,3.227c1.602,2.33,2.918,4.844,4.094,7.411C52.257,103.894,53.07,103.216,52.909,102.834
					L52.909,102.834z"/>
			</g>
		</g>
		<g>
			<g>
				<path d="M50.861,102.054c-0.681-2.866-2.746-5.459-4.495-7.763c-0.954-1.256-1.954-2.476-2.956-3.694
					c-0.937-1.14-1.83-2.532-2.966-3.474c-0.279-0.231-0.851,0.297-0.71,0.604c0.578,1.259,1.648,2.362,2.518,3.431
					c0.994,1.221,1.997,2.434,2.978,3.666c1.931,2.425,3.385,5.114,5.174,7.621C50.553,102.653,50.902,102.228,50.861,102.054
					L50.861,102.054z"/>
			</g>
		</g>
		<g>
			<g>
				<path d="M46.634,97.785c-1.443-2.348-2.793-4.758-4.378-7.015c-1.423-2.027-3.406-4.849-5.834-5.721
					c-0.301-0.108-0.826,0.41-0.588,0.692c0.809,0.959,1.919,1.708,2.813,2.6c1.013,1.01,1.903,2.139,2.751,3.288
					c1.611,2.184,3.018,4.509,4.51,6.774C46.101,98.698,46.812,98.073,46.634,97.785L46.634,97.785z"/>
			</g>
		</g>
		<g>
			<g>
				<path d="M43.036,94.923c-1.474-2.508-3.156-4.87-5.004-7.116c-0.909-1.104-1.871-2.166-2.856-3.201
					c-0.969-1.019-2.011-2.311-3.281-2.945c-0.232-0.116-0.689,0.325-0.56,0.559c0.63,1.14,1.77,2.016,2.667,2.95
					c0.991,1.033,1.965,2.078,2.916,3.149c1.979,2.231,3.773,4.624,5.343,7.16C42.498,95.863,43.224,95.242,43.036,94.923
					L43.036,94.923z"/>
			</g>
		</g>
		<g>
			<g>
				<path d="M39.106,91.995c-1.833-2.305-3.646-4.625-5.522-6.894c-0.989-1.196-2.01-2.366-3.046-3.521
					c-0.934-1.04-1.898-2.217-3.094-2.957c-0.254-0.157-0.809,0.396-0.65,0.65c0.671,1.071,1.663,1.948,2.519,2.874
					c1.053,1.139,2.089,2.292,3.105,3.465c2.025,2.337,3.997,4.719,5.981,7.09C38.658,93.01,39.366,92.321,39.106,91.995
					L39.106,91.995z"/>
			</g>
		</g>
		<g>
			<g>
				<path d="M34.522,88.506c-1.612-1.883-3.197-3.788-4.866-5.621c-1.453-1.596-3.231-3.864-5.341-4.567
					c-0.166-0.056-0.524,0.228-0.41,0.41c0.548,0.875,1.378,1.502,2.13,2.196c0.967,0.893,1.902,1.818,2.816,2.765
					c1.718,1.781,3.334,3.659,4.985,5.501C34.1,89.485,34.784,88.813,34.522,88.506L34.522,88.506z"/>
			</g>
		</g>
		<g>
			<g>
				<path d="M28.752,84.148c-1.937-1.772-3.69-3.723-5.451-5.667c-1.676-1.85-3.517-4.318-5.843-5.354
					c-0.252-0.112-0.625,0.326-0.469,0.552c0.743,1.077,1.791,1.907,2.723,2.815c0.941,0.917,1.842,1.875,2.75,2.825
					c1.814,1.895,3.615,3.799,5.599,5.519C28.369,85.105,29.046,84.417,28.752,84.148L28.752,84.148z"/>
			</g>
		</g>
		<g>
			<g>
				<path d="M21.471,78.667c-1.58-1.629-3.029-3.378-4.614-5.002c-1.37-1.406-3.282-3.338-5.286-3.74
					c-0.283-0.057-0.978,0.475-0.638,0.751c0.746,0.606,1.651,1.024,2.434,1.595c0.931,0.68,1.779,1.479,2.604,2.281
					c1.625,1.583,3.084,3.324,4.688,4.927C20.993,79.812,21.8,79.006,21.471,78.667L21.471,78.667z"/>
			</g>
		</g>
		<g>
			<g>
				<path d="M52.243,103.03c-2.462,0.639-4.973,1.019-7.515,1.125c-1.336,0.055-2.677-0.002-4.008-0.131
					c-1.258-0.122-2.524-0.558-3.787-0.543c-0.162,0.002-0.51,0.295-0.336,0.467c0.713,0.704,1.881,0.885,2.834,1.05
					c1.445,0.25,2.899,0.306,4.363,0.268c2.765-0.072,5.539-0.538,8.205-1.26C52.44,103.885,52.944,102.848,52.243,103.03
					L52.243,103.03z"/>
			</g>
		</g>
		<g>
			<g>
				<path d="M50.652,101.396c-3.32,0.63-6.677,0.972-10.057,0.771c-1.737-0.104-3.455-0.398-5.129-0.869
					c-1.458-0.41-2.863-1.322-4.349-1.537c-0.218-0.031-0.518,0.325-0.375,0.521c0.898,1.233,3,1.732,4.398,2.127
					c1.612,0.456,3.289,0.681,4.957,0.792c3.452,0.229,6.939-0.208,10.322-0.873C50.856,102.242,51.336,101.267,50.652,101.396
					L50.652,101.396z"/>
			</g>
		</g>
		<g>
			<g>
				<path d="M49.21,99.751c-3.812,0.836-7.753,0.652-11.556-0.144c-1.772-0.372-3.512-0.906-5.208-1.537
					c-1.771-0.658-3.441-1.761-5.243-2.286c-0.235-0.068-0.706,0.344-0.484,0.569c1.192,1.21,3.107,1.89,4.652,2.529
					c1.928,0.797,3.933,1.389,5.974,1.814c3.84,0.8,7.814,0.853,11.64-0.045C49.398,100.555,49.867,99.608,49.21,99.751
					L49.21,99.751z"/>
			</g>
		</g>
		<g>
			<g>
				<path d="M46.219,98.084c-2.832,0.961-5.857,0.7-8.728,0.053c-1.431-0.322-2.826-0.795-4.198-1.31
					c-1.373-0.515-2.74-1.405-4.17-1.705c-0.257-0.054-0.771,0.356-0.529,0.622c0.88,0.966,2.419,1.474,3.599,1.967
					c1.6,0.668,3.264,1.167,4.957,1.537c2.973,0.651,6.093,0.72,8.969-0.361C46.452,98.762,46.767,97.898,46.219,98.084
					L46.219,98.084z"/>
			</g>
		</g>
		<g>
			<g>
				<path d="M45.277,96.738c-3.578,0.345-7.176,0.348-10.745-0.104c-1.976-0.25-3.915-0.714-5.789-1.384
					c-0.853-0.305-1.674-0.693-2.476-1.111c-0.763-0.398-1.446-1.072-2.262-1.322c-0.188-0.058-0.529,0.228-0.432,0.432
					c0.608,1.272,2.65,2.128,3.871,2.669c1.75,0.775,3.648,1.241,5.532,1.548c3.917,0.636,7.912,0.611,11.852,0.206
					C45.238,97.63,45.833,96.685,45.277,96.738L45.277,96.738z"/>
			</g>
		</g>
		<g>
			<g>
				<path d="M43.161,95.511c-2.515-0.075-5.037-0.073-7.543-0.322c-1.349-0.134-2.68-0.396-3.983-0.764
					c-1.412-0.399-2.672-1.136-4.044-1.615c-0.251-0.088-0.756,0.379-0.518,0.61c1.815,1.764,4.82,2.337,7.239,2.668
					c2.796,0.383,5.634,0.256,8.447,0.26C43.13,96.349,43.686,95.526,43.161,95.511L43.161,95.511z"/>
			</g>
		</g>
		<g>
			<g>
				<path d="M40.88,93.108c-2.915,0.427-5.773-0.011-8.57-0.872c-1.295-0.398-2.555-0.92-3.793-1.468
					c-1.229-0.544-2.416-1.325-3.73-1.632c-0.182-0.042-0.543,0.255-0.374,0.44c0.9,0.98,2.274,1.529,3.452,2.103
					c1.353,0.659,2.752,1.2,4.188,1.648c2.785,0.869,5.723,1.122,8.605,0.669C41.079,93.93,41.538,93.012,40.88,93.108L40.88,93.108
					z"/>
			</g>
		</g>
		<g>
			<g>
				<path d="M38.059,90.895c-2.54,0.014-5.001-0.465-7.421-1.21c-1.167-0.359-2.309-0.796-3.439-1.255
					c-0.991-0.403-1.985-0.994-3.045-1.15c-0.233-0.034-0.668,0.413-0.453,0.628c0.727,0.727,1.89,1.062,2.823,1.465
					c1.261,0.544,2.572,0.984,3.888,1.373c2.341,0.692,4.776,1.077,7.219,1.039C38.029,91.778,38.607,90.892,38.059,90.895
					L38.059,90.895z"/>
			</g>
		</g>
		<g>
			<g>
				<path d="M35.279,88.683c-2.82-0.333-5.557-1-8.227-1.962c-1.346-0.485-2.65-1.078-3.933-1.71
					c-1.266-0.625-2.524-1.607-3.88-1.986c-0.244-0.068-0.655,0.313-0.469,0.552c0.767,0.978,2.201,1.618,3.282,2.192
					c1.392,0.74,2.844,1.354,4.322,1.897c2.728,1.002,5.597,1.595,8.484,1.893C35.252,89.6,35.83,88.748,35.279,88.683
					L35.279,88.683z"/>
			</g>
		</g>
		<g>
			<g>
				<path d="M30.655,85.678c-2.221-0.317-4.375-0.896-6.477-1.679c-1.073-0.399-2.121-0.872-3.147-1.379
					c-0.958-0.474-1.959-1.286-2.998-1.506c-0.28-0.06-0.688,0.319-0.508,0.598c0.496,0.768,1.64,1.262,2.43,1.689
					c1.133,0.613,2.326,1.114,3.532,1.563c2.167,0.807,4.434,1.336,6.726,1.635C30.626,86.654,31.234,85.761,30.655,85.678
					L30.655,85.678z"/>
			</g>
		</g>
		<g>
			<g>
				<path d="M26.12,82.86c-1.579-0.737-3.159-1.471-4.725-2.235c-1.532-0.747-3.122-1.846-4.789-2.222
					c-0.209-0.047-0.611,0.285-0.424,0.499c1.018,1.16,2.744,1.804,4.109,2.463c1.715,0.828,3.457,1.6,5.193,2.383
					C25.877,83.925,26.581,83.075,26.12,82.86L26.12,82.86z"/>
			</g>
		</g>
		<g>
			<g>
				<path d="M20.211,78.04c-2.74-1.084-5.067-2.792-7.663-4.139c-0.233-0.121-0.675,0.354-0.479,0.563
					c1.98,2.115,4.793,3.497,7.466,4.519C19.966,79.147,20.707,78.235,20.211,78.04L20.211,78.04z"/>
			</g>
		</g>
		<g>
			<g>
				<path d="M51.512,73.57c-0.375-2.623-0.056-5.218,0.482-7.796c0.256-1.227,0.581-2.44,0.898-3.652
					c0.269-1.025,0.69-2.118,0.654-3.187c-0.014-0.408-0.557-0.012-0.635,0.159c-0.471,1.026-0.667,2.168-0.943,3.259
					c-0.346,1.361-0.681,2.725-0.957,4.102c-0.497,2.485-0.617,4.991-0.119,7.485C50.953,74.245,51.548,73.819,51.512,73.57
					L51.512,73.57z"/>
			</g>
		</g>
		<g>
			<g>
				<path d="M52.513,69.542c0.13-1.974,0.114-3.964,0.168-5.941c0.057-2.101,0.223-4.224,0.065-6.323
					c-0.046-0.615-0.887,0.081-0.921,0.443c-0.187,1.959-0.17,3.939-0.202,5.906c-0.034,2.082-0.11,4.208,0.128,6.279
					C51.811,70.412,52.492,69.848,52.513,69.542L52.513,69.542z"/>
			</g>
		</g>
		<g>
			<g>
				<path d="M54.045,66.46c0.078-2.694,0.036-5.342,0.416-8.022c0.186-1.31,0.463-2.607,0.807-3.885
					c0.31-1.153,0.943-2.311,1.056-3.497c0.031-0.326-0.439-0.132-0.542-0.012c-1.601,1.878-2.033,4.92-2.391,7.278
					c-0.418,2.759-0.686,5.79-0.222,8.559C53.265,67.456,54.035,66.826,54.045,66.46L54.045,66.46z"/>
			</g>
		</g>
		<g>
			<g>
				<path d="M55.823,63.207c-0.152-3.041,0.412-6.026,1.32-8.917c0.47-1.496,1.075-2.944,1.711-4.375
					c0.513-1.156,1.211-2.268,1.521-3.501c0.11-0.44-0.44-0.161-0.568-0.009c-1.868,2.216-2.91,5.431-3.77,8.162
					c-0.916,2.909-1.358,5.967-0.975,9.006C55.125,64.056,55.84,63.541,55.823,63.207L55.823,63.207z"/>
			</g>
		</g>
		<g>
			<g>
				<path d="M57.358,59.937c0.117,0,0.283-0.258,0.124-0.258C57.365,59.679,57.199,59.937,57.358,59.937L57.358,59.937z"/>
			</g>
		</g>
		<g>
			<g>
				<path d="M57.277,59.914c0.41-0.185,0.603-1.446,0.744-1.862c0.252-0.743,0.546-1.471,0.806-2.21
					c0.554-1.578,1.202-3.114,1.934-4.617c0.729-1.494,1.743-2.887,2.365-4.422c0.18-0.444-0.302-0.482-0.547-0.207
					c-2.36,2.66-3.682,6.462-4.788,9.784c-0.353,1.062-0.694,2.137-0.882,3.242c-0.044,0.262-0.048,0.902,0.373,0.676
					C57.472,60.195,57.603,59.767,57.277,59.914L57.277,59.914z"/>
			</g>
		</g>
		<g>
			<g>
				<path d="M59.286,58.358c0.902-1.234,1.79-2.478,2.692-3.712c0.858-1.173,2.157-2.393,2.667-3.759
					c0.118-0.317-0.134-0.411-0.384-0.247c-1.183,0.778-1.996,2.21-2.808,3.342c-0.975,1.36-1.916,2.744-2.881,4.111
					C58.11,58.748,58.926,58.849,59.286,58.358L59.286,58.358z"/>
			</g>
		</g>
		<g>
			<g>
				<path d="M51.398,73.744c1.527,0.521,3.575,0.035,5.086-0.361c1.804-0.473,3.555-1.294,4.942-2.55
					c0.375-0.341,0.146-0.839-0.331-0.523c-1.37,0.908-2.793,1.619-4.368,2.098c-1.642,0.5-3.261,0.466-4.934,0.672
					C51.597,73.104,51.013,73.612,51.398,73.744L51.398,73.744z"/>
			</g>
		</g>
		<g>
			<g>
				<path d="M52.053,71.174c2.29-0.805,4.611-1.519,6.866-2.422c2.019-0.81,4.706-1.926,6.012-3.751
					c0.123-0.172,0.047-0.373-0.178-0.277c-1.003,0.427-1.865,1.196-2.816,1.734c-0.979,0.554-1.994,1.031-3.029,1.47
					c-2.168,0.921-4.432,1.608-6.646,2.409C51.902,70.466,51.475,71.377,52.053,71.174L52.053,71.174z"/>
			</g>
		</g>
		<g>
			<g>
				<path d="M53.519,67.667c2.084-0.476,4.123-1.08,6.061-1.991c1.534-0.722,3.528-1.773,4.391-3.29
					c0.11-0.192-0.057-0.314-0.234-0.234c-0.733,0.327-1.329,0.917-1.979,1.383c-0.796,0.571-1.654,1.045-2.533,1.474
					c-1.742,0.851-3.625,1.386-5.501,1.847C53.351,66.945,52.927,67.801,53.519,67.667L53.519,67.667z"/>
			</g>
		</g>
		<g>
			<g>
				<path d="M55.318,64.476c4.959-2.124,10.06-4.072,14.17-7.676c0.375-0.329,0.127-0.879-0.331-0.523
					c-4.231,3.294-8.98,5.352-13.849,7.503C54.933,63.947,54.736,64.725,55.318,64.476L55.318,64.476z"/>
			</g>
		</g>
		<g>
			<g>
				<path d="M58.141,60.702c1.762-1.083,3.522-2.17,5.134-3.47c0.368-0.297,0.318-0.942-0.211-0.569
					c-1.685,1.188-3.407,2.315-5.159,3.4C57.432,60.356,57.537,61.073,58.141,60.702L58.141,60.702z"/>
			</g>
		</g>
		<g>
			<g>
				<path d="M61.147,56.819c2.459-1.935,5.105-3.686,7.432-5.778c0.319-0.288,0.125-0.681-0.275-0.435
					c-2.61,1.607-5.013,3.631-7.406,5.541C60.456,56.5,60.555,57.285,61.147,56.819L61.147,56.819z"/>
			</g>
		</g>
		<g>
			<g>
				<path d="M47.297,75.827c-1.308-2.629-2.625-5.246-4.182-7.739c-0.733-1.174-1.537-2.291-2.413-3.362
					c-0.785-0.96-1.726-2.206-2.864-2.745c-0.376-0.178-0.911,0.483-0.693,0.815c0.684,1.043,1.813,1.893,2.62,2.866
					c0.856,1.033,1.623,2.145,2.368,3.259c1.604,2.396,2.974,4.95,4.387,7.461C46.742,76.775,47.463,76.162,47.297,75.827
					L47.297,75.827z"/>
			</g>
		</g>
		<g>
			<g>
				<path d="M44.582,74.34c-1.217-1.856-2.41-3.725-3.784-5.47c-1.17-1.485-2.969-3.787-4.975-4.06
					c-0.226-0.031-0.555,0.345-0.396,0.55c0.558,0.726,1.51,1.222,2.205,1.827c0.864,0.751,1.636,1.603,2.371,2.479
					c1.421,1.694,2.625,3.561,3.867,5.387C44.089,75.376,44.813,74.694,44.582,74.34L44.582,74.34z"/>
			</g>
		</g>
		<g>
			<g>
				<path d="M40.275,71.619c-1.403-1.72-2.696-3.524-4.164-5.19c-1.408-1.599-3.239-3.488-5.43-3.87
					c-0.333-0.058-0.99,0.541-0.561,0.782c1.957,1.098,3.596,2.299,5.136,3.943c1.515,1.617,2.82,3.415,4.251,5.103
					C39.791,72.72,40.562,71.97,40.275,71.619L40.275,71.619z"/>
			</g>
		</g>
		<g>
			<g>
				<path d="M35.265,69.178c-1.785-1.749-3.529-3.541-5.453-5.14c-1.747-1.453-4.094-3.224-6.43-3.404
					c-0.209-0.016-0.742,0.465-0.47,0.652c0.878,0.604,1.921,0.953,2.859,1.461c1.124,0.61,2.175,1.366,3.186,2.146
					c1.98,1.528,3.755,3.309,5.58,5.014C34.848,70.198,35.567,69.474,35.265,69.178L35.265,69.178z"/>
			</g>
		</g>
		<g>
			<g>
				<path d="M28.279,65.796c-2.443-1.63-5.715-3.303-8.751-2.867c-0.2,0.029-0.707,0.607-0.339,0.704
					c1.31,0.345,2.666,0.408,3.977,0.806c1.549,0.469,3.003,1.239,4.357,2.115C27.9,66.797,28.623,66.025,28.279,65.796
					L28.279,65.796z"/>
			</g>
		</g>
		<g>
			<g>
				<path d="M46.322,76.01c-4.642,2.393-9.755,1.433-14.718,1.316c-0.272-0.006-0.883,0.646-0.464,0.778
					c2.363,0.745,5.121,0.741,7.574,0.646c2.63-0.102,5.316-0.615,7.619-1.933C46.724,76.594,46.986,75.667,46.322,76.01
					L46.322,76.01z"/>
			</g>
		</g>
		<g>
			<g>
				<path d="M43.46,74.567c-3.805,1.291-8.187,0.689-11.98-0.331c-0.355-0.096-1.009,0.621-0.573,0.801
					c3.735,1.547,8.645,1.773,12.448,0.375C43.709,75.282,44.035,74.373,43.46,74.567L43.46,74.567z"/>
			</g>
		</g>
		<g>
			<g>
				<path d="M39.659,72.191c-1.781,0.268-3.56,0.454-5.362,0.443c-2.03-0.013-3.885-0.567-5.856-0.93
					c-0.306-0.056-0.888,0.48-0.507,0.708c3.265,1.953,7.928,1.292,11.485,0.742C39.876,73.083,40.371,72.084,39.659,72.191
					L39.659,72.191z"/>
			</g>
		</g>
		<g>
			<g>
				<path d="M35.258,69.258c-1.787,0.008-3.571,0.021-5.355-0.073c-2.083-0.11-4.036-0.628-6.05-1.113
					c-0.242-0.058-0.841,0.447-0.543,0.64c3.291,2.125,7.825,1.57,11.537,1.403C35.218,70.098,35.794,69.256,35.258,69.258
					L35.258,69.258z"/>
			</g>
		</g>
		<g>
			<g>
				<path d="M28.457,66.24c-1.16-0.024-2.311-0.089-3.461-0.25c-1.158-0.162-2.27-0.673-3.433-0.721
					c-0.23-0.009-0.625,0.37-0.431,0.599c0.67,0.789,1.923,0.999,2.908,1.146c1.302,0.194,2.606,0.251,3.922,0.257
					C28.422,67.273,29.099,66.253,28.457,66.24L28.457,66.24z"/>
			</g>
		</g>
		<g>
			<g>
				<path d="M46.856,50.482c-0.327-0.985-0.833-1.887-1.126-2.893c-0.386-1.323-0.575-2.697-0.703-4.066
					c-0.121-1.295-0.145-2.602-0.14-3.901c0.004-0.972,0.229-2.102-0.03-3.046c-0.087-0.316-0.511,0.148-0.555,0.267
					c-0.366,1.003-0.322,2.174-0.352,3.229c-0.04,1.427,0.02,2.852,0.156,4.272c0.193,2.018,0.493,5.242,2.133,6.662
					C46.492,51.224,46.944,50.747,46.856,50.482L46.856,50.482z"/>
			</g>
		</g>
		<g>
			<g>
				<path d="M47.782,48.785c-0.349-1.656-0.569-3.321-0.702-5.007c-0.135-1.711-0.004-3.453-0.196-5.154
					c-0.048-0.423-0.632,0.003-0.672,0.247c-0.563,3.394,0.012,7.168,0.757,10.496C47.063,49.791,47.863,49.172,47.782,48.785
					L47.782,48.785z"/>
			</g>
		</g>
		<g>
			<g>
				<path d="M49.236,46.966c-0.623-2.754-0.845-5.551-0.822-8.371c0.012-1.406,0.123-2.811,0.302-4.205
					c0.152-1.188,0.611-2.481,0.509-3.677c-0.031-0.359-0.472-0.003-0.55,0.138c-1.272,2.301-1.244,5.671-1.282,8.235
					c-0.042,2.853,0.305,5.727,0.98,8.498C48.483,48.037,49.329,47.375,49.236,46.966L49.236,46.966z"/>
			</g>
		</g>
		<g>
			<g>
				<path d="M50.437,44.755c-0.134-2.247-0.257-4.493-0.305-6.744c-0.05-2.373,0.238-4.764,0.112-7.128
					c-0.024-0.452-0.634,0.032-0.692,0.254c-0.576,2.228-0.501,4.602-0.453,6.885c0.05,2.387,0.27,4.772,0.467,7.15
					C49.612,45.72,50.46,45.144,50.437,44.755L50.437,44.755z"/>
			</g>
		</g>
		<g>
			<g>
				<path d="M52.304,40.523c0-1.582-0.022-3.163,0.035-4.744c0.057-1.56,0.363-3.079,0.488-4.628c0.026-0.324-0.464-0.012-0.52,0.13
					c-1.182,2.981-0.846,6.501-0.833,9.642C51.475,41.436,52.304,40.898,52.304,40.523L52.304,40.523z"/>
			</g>
		</g>
		<g>
			<g>
				<path d="M53.767,36.285c0.134-1.827,0.45-3.608,0.955-5.368c0.455-1.584,1.35-3.064,1.718-4.658
					c0.1-0.432-0.438-0.178-0.568-0.009c-1.061,1.384-1.611,3.242-2.088,4.901c-0.52,1.805-0.776,3.677-0.879,5.548
					C52.875,37.227,53.739,36.664,53.767,36.285L53.767,36.285z"/>
			</g>
		</g>
		<g>
			<g>
				<path d="M47.082,51.385c1.608-0.293,3.158-0.746,4.698-1.291c1.425-0.504,3.136-0.938,4.353-1.845
					c0.143-0.106,0.471-0.614,0.077-0.622c-1.27-0.026-2.721,0.867-3.891,1.314c-1.63,0.623-3.296,1.149-5.004,1.512
					C46.886,50.545,46.393,51.511,47.082,51.385L47.082,51.385z"/>
			</g>
		</g>
		<g>
			<g>
				<path d="M48.076,49.408c2.163-0.299,4.204-1.09,6.076-2.207c1.921-1.147,4.015-2.543,5.358-4.366
					c0.199-0.27-0.026-0.455-0.288-0.288c-1.624,1.04-2.999,2.433-4.612,3.504c-1.912,1.271-4.049,2.162-6.321,2.507
					C47.886,48.619,47.445,49.495,48.076,49.408L48.076,49.408z"/>
			</g>
		</g>
		<g>
			<g>
				<path d="M48.8,46.735c2.661-0.237,5.152-1.007,7.498-2.281c2.226-1.208,4.817-2.952,6.292-5.051
					c0.248-0.353-0.031-0.629-0.383-0.383c-1.881,1.312-3.429,3.005-5.399,4.233c-2.295,1.43-4.921,2.323-7.602,2.638
					C48.845,45.933,48.288,46.781,48.8,46.735L48.8,46.735z"/>
			</g>
		</g>
		<g>
			<g>
				<path d="M50.032,44.784c2.002-0.593,3.86-1.708,5.563-2.896c1.474-1.027,3.586-2.44,4.414-4.07
					c0.128-0.252-0.066-0.436-0.314-0.315c-0.685,0.335-1.2,0.908-1.756,1.422c-0.74,0.684-1.519,1.319-2.316,1.935
					c-1.702,1.312-3.559,2.229-5.492,3.139C49.847,44.132,49.46,44.953,50.032,44.784L50.032,44.784z"/>
			</g>
		</g>
		<g>
			<g>
				<path d="M51.134,41.676c2.501-0.759,4.882-1.796,7.103-3.179c1.989-1.238,4.441-3.103,5.377-5.328
					c0.189-0.449-0.302-0.471-0.547-0.207c-0.768,0.828-1.412,1.748-2.22,2.545c-0.872,0.861-1.856,1.596-2.875,2.272
					c-2.028,1.346-4.314,2.316-6.626,3.052C50.975,40.95,50.537,41.857,51.134,41.676L51.134,41.676z"/>
			</g>
		</g>
		<g>
			<g>
				<path d="M52.017,40.066c1.563-0.694,2.997-1.588,4.333-2.653c1.195-0.952,2.773-2.108,3.468-3.492
					c0.111-0.221-0.06-0.418-0.289-0.289c-1.122,0.633-1.98,1.778-2.94,2.633c-1.378,1.228-2.914,2.26-4.581,3.049
					C51.61,39.502,51.389,40.345,52.017,40.066L52.017,40.066z"/>
			</g>
		</g>
		<g>
			<g>
				<path d="M53.083,38.563c1.61-1.888,3.188-3.803,4.754-5.729c1.619-1.991,3.492-3.973,4.824-6.168
					c0.279-0.461-0.147-0.632-0.487-0.308c-1.793,1.713-3.233,3.881-4.771,5.822c-1.604,2.026-3.203,4.056-4.848,6.05
					C52.186,38.68,52.756,38.946,53.083,38.563L53.083,38.563z"/>
			</g>
		</g>
		<g>
			<g>
				<path d="M52.618,37.216c1.342-1.882,2.527-3.859,3.612-5.899c0.57-1.071,1.086-2.171,1.593-3.274
					c0.379-0.826,0.888-1.719,0.932-2.64c0.016-0.338-0.441-0.041-0.522,0.064c-1.191,1.54-1.796,3.689-2.663,5.434
					c-1.048,2.11-2.213,4.151-3.548,6.093C51.643,37.546,52.321,37.632,52.618,37.216L52.618,37.216z"/>
			</g>
		</g>
		<g>
			<g>
				<path d="M41.041,53.319c-1.969-2.031-3.809-4.182-5.764-6.227c-1.788-1.869-3.827-4.125-6.293-5.062
					c-0.274-0.104-0.792,0.399-0.553,0.651c0.863,0.908,1.905,1.633,2.854,2.452c1.064,0.918,2.081,1.884,3.074,2.878
					c1.999,2.003,3.912,4.079,6.02,5.971C40.666,54.24,41.31,53.596,41.041,53.319L41.041,53.319z"/>
			</g>
		</g>
		<g>
			<g>
				<path d="M39.104,53.5c-0.771-1.439-1.382-2.937-1.914-4.478c-0.51-1.478-0.747-3.257-1.683-4.534
					c-0.157-0.214-0.512,0.207-0.509,0.367c0.034,1.51,0.664,2.975,1.165,4.381c0.593,1.663,1.303,3.275,2.183,4.806
					C38.565,54.423,39.275,53.82,39.104,53.5L39.104,53.5z"/>
			</g>
		</g>
		<g>
			<g>
				<path d="M39.33,52.714c-1.731,1.148-3.496,2.242-5.364,3.153c-1.955,0.954-3.934,1.252-6.003,1.785
					c-0.285,0.073-0.88,0.805-0.317,0.863c1.978,0.205,4.175-0.731,5.947-1.522c2.137-0.954,4.082-2.294,5.962-3.672
					C39.971,53.016,39.898,52.338,39.33,52.714L39.33,52.714z"/>
			</g>
		</g>
		<g>
			<g>
				<path d="M36.744,53.181c-1.293,0.39-2.532,0.94-3.807,1.387c-1.174,0.411-2.46,0.484-3.592,0.969
					c-0.134,0.058-0.388,0.359-0.173,0.468c1.009,0.512,2.553-0.187,3.538-0.528c1.344-0.466,2.649-1.072,3.952-1.642
					C36.91,53.728,37.212,53.04,36.744,53.181L36.744,53.181z"/>
			</g>
		</g>
		<g>
			<g>
				<path d="M35.047,52.509c-2.091,0.51-4.186,1-6.299,1.411c-2.306,0.45-4.71,0.452-6.99,0.964
					c-0.159,0.036-0.651,0.566-0.306,0.635c1.935,0.391,4.229-0.188,6.143-0.531c2.445-0.439,4.853-1.064,7.254-1.692
					C35.207,53.204,35.618,52.37,35.047,52.509L35.047,52.509z"/>
			</g>
		</g>
		<g>
			<g>
				<path d="M35.869,52.353c-0.683-1.208-1.409-2.381-2.245-3.49c-0.763-1.013-1.777-2.407-3.047-2.756
					c-0.202-0.056-0.601,0.253-0.479,0.479c0.561,1.047,1.73,1.818,2.52,2.712c0.981,1.111,1.818,2.35,2.611,3.598
					C35.396,53.157,36.016,52.612,35.869,52.353L35.869,52.353z"/>
			</g>
		</g>
		<g>
			<g>
				<path d="M33.415,50.909c-1.349-1.295-2.716-2.569-4.122-3.802c-1.377-1.208-2.828-2.603-4.498-3.389
					c-0.238-0.112-0.685,0.355-0.484,0.569c1.245,1.327,2.871,2.361,4.257,3.543c1.423,1.213,2.795,2.486,4.155,3.769
					C33.018,51.876,33.703,51.186,33.415,50.909L33.415,50.909z"/>
			</g>
		</g>
		<g>
			<g>
				<path d="M30.824,51.358c-2.144,0.401-4.257,0.866-6.433,1.069c-2.137,0.199-4.244-0.16-6.366-0.041
					c-0.23,0.013-0.731,0.471-0.389,0.651c1.774,0.933,4.276,0.691,6.204,0.534c2.302-0.188,4.608-0.665,6.786-1.427
					C30.938,52.036,31.434,51.243,30.824,51.358L30.824,51.358z"/>
			</g>
		</g>
		<g>
			<g>
				<path d="M30.542,51.206c-2.021-1.994-4.172-3.817-6.444-5.518c-1.087-0.813-2.206-1.579-3.347-2.313
					c-1.112-0.715-2.3-1.624-3.618-1.869c-0.21-0.04-0.61,0.277-0.424,0.499c0.812,0.965,2.159,1.535,3.206,2.207
					c1.141,0.734,2.257,1.51,3.358,2.302c2.299,1.653,4.501,3.462,6.596,5.366C30.16,52.145,30.821,51.48,30.542,51.206
					L30.542,51.206z"/>
			</g>
		</g>
		<g>
			<g>
				<path d="M26.4,49.433c-1.89,0.233-3.776,0.507-5.67,0.711c-1.731,0.187-3.755-0.065-5.404,0.47
					c-0.186,0.061-0.644,0.483-0.312,0.648c0.726,0.362,1.576,0.201,2.367,0.16c0.956-0.05,1.909-0.152,2.86-0.261
					c1.957-0.224,3.9-0.543,5.842-0.865C26.417,50.24,26.897,49.371,26.4,49.433L26.4,49.433z"/>
			</g>
		</g>
		<g>
			<g>
				<path d="M23.291,48.705c-1.598-1.289-3.066-2.711-4.49-4.187c-1.357-1.406-2.687-3.3-4.331-4.36
					c-0.292-0.188-0.958,0.312-0.751,0.638c0.993,1.568,2.638,2.918,3.948,4.232c1.551,1.558,3.161,3.054,4.906,4.394
					C22.909,49.681,23.607,48.959,23.291,48.705L23.291,48.705z"/>
			</g>
		</g>
		<g>
			<g>
				<path d="M19.206,47.04c-1.588,0.767-3.217,1.111-4.973,1.274c-1.679,0.156-3.517-0.184-5.158,0.154
					c-0.159,0.033-0.458,0.324-0.297,0.495c0.5,0.53,1.474,0.535,2.149,0.577c1.176,0.072,2.362-0.032,3.527-0.182
					c1.537-0.198,4.113-0.584,4.952-2.117C19.494,47.08,19.36,46.965,19.206,47.04L19.206,47.04z"/>
			</g>
		</g>
		<g>
			<g>
				<path d="M18.235,46.013c-0.974-1.525-1.96-3.04-3.081-4.464c-0.934-1.186-2.307-2.976-3.872-3.276
					c-0.279-0.054-0.713,0.325-0.518,0.61c0.418,0.613,1.103,1.014,1.656,1.505c0.686,0.609,1.304,1.3,1.898,1.997
					c1.168,1.371,2.168,2.881,3.17,4.374C17.718,47.099,18.473,46.385,18.235,46.013L18.235,46.013z"/>
			</g>
		</g>
		<g>
			<g>
				<path d="M15.802,45.575c-1.685-0.358-3.39-0.531-5.108-0.624c-1.817-0.099-3.808-0.453-5.612-0.237
					c-0.19,0.023-0.629,0.394-0.332,0.557c1.281,0.703,3.113,0.577,4.536,0.645c1.977,0.095,3.956,0.157,5.908,0.509
					C15.591,46.498,16.249,45.67,15.802,45.575L15.802,45.575z"/>
			</g>
		</g>
		<g>
			<g>
				<path d="M13.505,43.977c-0.65-1.549-1.799-3.018-2.752-4.394c-0.555-0.801-1.138-1.582-1.755-2.335
					c-0.607-0.742-1.241-1.646-2.154-2.001c-0.223-0.087-0.589,0.27-0.495,0.495c0.329,0.788,1.019,1.357,1.568,2
					c0.632,0.74,1.222,1.518,1.798,2.301c1.06,1.439,1.922,3.184,3.164,4.468C13.107,44.749,13.614,44.236,13.505,43.977
					L13.505,43.977z"/>
			</g>
		</g>
		<g>
			<g>
				<path d="M10.757,42.48c-1.724,0.26-3.432,0.288-5.161,0.076c-0.975-0.12-1.935-0.367-2.873-0.652
					c-0.774-0.235-1.467-0.594-2.28-0.627c-0.217-0.009-0.569,0.337-0.396,0.55c0.952,1.176,3.208,1.451,4.629,1.686
					c1.938,0.321,3.917,0.213,5.848-0.096C10.967,43.347,11.451,42.376,10.757,42.48L10.757,42.48z"/>
			</g>
		</g>
		<g>
			<g>
				<path d="M10.998,42.44c-1.412-1.697-2.783-3.429-4.37-4.969c-1.313-1.274-3.17-2.82-5.069-2.967
					c-0.209-0.016-0.721,0.445-0.461,0.64c0.794,0.598,1.764,0.938,2.598,1.49c0.856,0.566,1.64,1.23,2.39,1.928
					c1.52,1.412,2.831,3.04,4.189,4.602C10.546,43.477,11.271,42.769,10.998,42.44L10.998,42.44z"/>
			</g>
		</g>
		<g>
			<g>
				<path d="M8.248,40.677c-2.03-0.782-4.05-1.604-5.966-2.639c-0.341-0.184-0.984,0.574-0.578,0.807
					c1.896,1.086,3.899,1.904,5.939,2.676C8.03,41.667,8.691,40.848,8.248,40.677L8.248,40.677z"/>
			</g>
		</g>
		<g>
			<g>
				<path d="M6.721,39.233c-0.499-0.331-0.996-0.665-1.493-0.999c-0.505-0.34-1.052-0.769-1.638-0.939
					c-0.255-0.074-0.681,0.328-0.488,0.575c0.35,0.449,0.934,0.772,1.406,1.086c0.499,0.332,0.999,0.663,1.5,0.991
					C6.365,40.179,7.043,39.447,6.721,39.233L6.721,39.233z"/>
			</g>
		</g>
		<g>
			<g>
				<path d="M34.428,39.372c0.284-0.915,0.218-1.958,0.285-2.912c0.081-1.143,0.179-2.284,0.225-3.429
					c0.089-2.193,0.062-4.518-0.797-6.571c-0.221-0.529-1.026,0.271-0.943,0.676c0.467,2.297,0.655,4.538,0.583,6.88
					c-0.03,0.983-0.079,1.966-0.119,2.95c-0.034,0.833-0.229,1.939,0.143,2.707C33.96,39.991,34.373,39.55,34.428,39.372
					L34.428,39.372z"/>
			</g>
		</g>
		<g>
			<g>
				<path d="M32.547,37.246c-0.254-2.362-0.412-4.734-0.708-7.092c-0.146-1.161-0.337-2.318-0.6-3.458
					c-0.233-1.009-0.47-2.241-1.197-3.016c-0.252-0.268-0.761,0.268-0.736,0.53c0.091,0.978,0.506,1.904,0.767,2.848
					c0.325,1.175,0.561,2.376,0.762,3.578c0.39,2.317,0.599,4.662,0.926,6.988C31.831,38.119,32.585,37.597,32.547,37.246
					L32.547,37.246z"/>
			</g>
		</g>
		<g>
			<g>
				<path d="M30.497,35.017c-0.229-2.044-0.271-4.101-0.434-6.15c-0.126-1.594-0.222-4.337-1.472-5.478
					c-0.239-0.219-0.65,0.222-0.64,0.461c0.031,0.771,0.312,1.472,0.524,2.211c0.308,1.07,0.455,2.18,0.594,3.283
					c0.255,2.01,0.357,4.036,0.661,6.041C29.803,35.868,30.535,35.359,30.497,35.017L30.497,35.017z"/>
			</g>
		</g>
		<g>
			<g>
				<path d="M28.033,32.256c-0.35-2.64-0.461-5.231-0.529-7.893c-0.031-1.257-0.135-2.511-0.331-3.753
					c-0.164-1.041-0.343-2.521-1.198-3.223c-0.274-0.225-0.705,0.232-0.7,0.504c0.02,1.135,0.564,2.263,0.787,3.381
					c0.263,1.321,0.317,2.682,0.392,4.023c0.134,2.384,0.048,5.051,1.054,7.273C27.626,32.833,28.059,32.456,28.033,32.256
					L28.033,32.256z"/>
			</g>
		</g>
		<g>
			<g>
				<path d="M31.22,34.55c0.102,0,0.247-0.226,0.108-0.226C31.226,34.324,31.081,34.55,31.22,34.55L31.22,34.55z"/>
			</g>
		</g>
		<g>
			<g>
				<path d="M31.747,35.805c0.24-2.176,0.574-4.344,0.857-6.515c0.127-0.978,0.244-1.958,0.336-2.94
					c0.086-0.917,0.291-1.949-0.054-2.823c-0.167-0.422-0.72,0.175-0.785,0.379c-0.567,1.778-0.414,3.936-0.621,5.796
					c-0.239,2.155-0.474,4.282-0.461,6.453C31.022,36.63,31.715,36.094,31.747,35.805L31.747,35.805z"/>
			</g>
		</g>
		<g>
			<g>
				<path d="M33.806,37.858c-1.745-1.068-3.569-1.977-5.393-2.898c-0.907-0.459-1.804-0.938-2.691-1.434
					c-1.018-0.568-1.975-1.32-3.067-1.734c-0.239-0.091-0.598,0.303-0.443,0.522c1.126,1.6,3.423,2.56,5.119,3.418
					c1.957,0.99,3.956,1.896,5.862,2.983C33.548,38.918,34.23,38.118,33.806,37.858L33.806,37.858z"/>
			</g>
		</g>
		<g>
			<g>
				<path d="M30.274,35.797c-0.241-0.235-0.763-0.03-1.059-0.006c-0.782,0.065-1.589-0.031-2.364-0.131
					c-0.82-0.105-1.632-0.274-2.434-0.475c-0.634-0.16-1.291-0.465-1.951-0.426c-0.19,0.011-0.628,0.321-0.479,0.561
					c0.696,1.119,3.187,1.227,4.373,1.362c1.018,0.116,3.187,0.425,3.881-0.603C30.29,36.007,30.354,35.874,30.274,35.797
					L30.274,35.797z"/>
			</g>
		</g>
		<g>
			<g>
				<path d="M30.567,34.619c-2.188-0.765-4.196-1.856-6.09-3.188c-0.893-0.628-1.737-1.321-2.571-2.024
					c-0.828-0.699-1.621-1.655-2.62-2.092c-0.253-0.111-0.72,0.333-0.591,0.591c0.434,0.871,1.298,1.481,2.019,2.116
					c0.923,0.812,1.909,1.553,2.916,2.257c1.946,1.362,4.065,2.454,6.319,3.204C30.348,35.615,31.022,34.778,30.567,34.619
					L30.567,34.619z"/>
			</g>
		</g>
		<g>
			<g>
				<path d="M28.382,31.775c-2.062-1.194-4.138-2.364-6.096-3.726c-0.952-0.662-1.846-1.394-2.71-2.165
					c-0.827-0.738-1.457-1.689-2.292-2.401c-0.275-0.234-0.803,0.287-0.687,0.583c0.794,2.026,3.133,3.622,4.845,4.826
					c2.002,1.409,4.163,2.583,6.286,3.795C28.107,32.903,28.842,32.041,28.382,31.775L28.382,31.775z"/>
			</g>
		</g>
		<g>
			<g>
				<path d="M24.718,27.043c-2.148-0.26-4.267-0.627-6.303-1.378c-1.058-0.391-2.062-0.922-3.005-1.539
					c-0.879-0.574-1.642-1.33-2.575-1.81c-0.238-0.123-0.73,0.345-0.586,0.586c1.045,1.74,3.323,2.871,5.145,3.617
					c2.171,0.888,4.542,1.232,6.856,1.497C24.688,28.066,25.329,27.117,24.718,27.043L24.718,27.043z"/>
			</g>
		</g>
		<g>
			<g>
				<path d="M25.581,27.678c-0.229-2.377-0.203-4.761-0.184-7.146c0.015-2.026,0.281-4.664-0.487-6.571
					c-0.201-0.5-0.889,0.24-0.905,0.54c-0.057,1.082,0.157,2.188,0.224,3.271c0.067,1.09,0.075,2.182,0.102,3.273
					c0.058,2.354,0.1,4.704,0.4,7.043C24.799,28.623,25.617,28.058,25.581,27.678L25.581,27.678z"/>
			</g>
		</g>
		<g>
			<g>
				<path d="M24.159,26.309c-0.619-4.551-1.106-9.486-2.97-13.729c-0.212-0.482-0.965,0.246-0.875,0.627
					c1.064,4.51,2.19,8.945,2.975,13.52C23.383,27.272,24.212,26.697,24.159,26.309L24.159,26.309z"/>
			</g>
		</g>
		<g>
			<g>
				<path d="M22.144,24.165c-2.61-0.24-5.092-1.231-7.287-2.643c-1.002-0.645-1.911-1.425-2.735-2.282
					c-0.857-0.891-1.438-1.997-2.267-2.901c-0.198-0.216-0.639,0.217-0.604,0.435c0.409,2.552,2.958,4.555,4.996,5.858
					c2.222,1.421,4.805,2.296,7.436,2.493C22.114,25.157,22.747,24.22,22.144,24.165L22.144,24.165z"/>
			</g>
		</g>
		<g>
			<g>
				<path d="M21.503,21.76c-0.418-2.3-0.803-4.605-1.232-6.904c-0.23-1.235-0.483-2.467-0.757-3.693
					c-0.232-1.043-0.429-2.202-1.073-3.074c-0.156-0.21-0.487,0.205-0.491,0.354c-0.056,2.173,0.853,4.51,1.276,6.637
					c0.486,2.44,0.899,4.894,1.357,7.339C20.673,22.89,21.583,22.202,21.503,21.76L21.503,21.76z"/>
			</g>
		</g>
		<g>
			<g>
				<path d="M20.481,21.814c-1.855-0.812-3.663-1.711-5.407-2.744c-1.85-1.095-3.419-2.624-5.263-3.693
					c-0.298-0.173-0.751,0.409-0.573,0.675c1.092,1.631,3.109,2.775,4.764,3.77c1.862,1.12,3.841,2.043,5.844,2.879
					C20.244,22.868,20.945,22.017,20.481,21.814L20.481,21.814z"/>
			</g>
		</g>
		<g>
			<g>
				<path d="M19.613,20.82c-0.378-2.626-0.734-5.255-1.354-7.837c-0.547-2.281-1.418-5.558-3.416-7.001
					c-0.256-0.185-0.701,0.238-0.604,0.514c0.388,1.106,1.056,2.09,1.548,3.157c0.55,1.191,0.975,2.427,1.337,3.687
					c0.743,2.588,1.165,5.25,1.619,7.899C18.836,21.784,19.668,21.209,19.613,20.82L19.613,20.82z"/>
			</g>
		</g>
		<g>
			<g>
				<path d="M17.188,18.495c-1.753-0.862-3.314-2.008-4.796-3.272c-1.333-1.138-2.644-2.953-4.272-3.633
					c-0.211-0.089-0.585,0.269-0.484,0.484c0.736,1.571,2.634,2.869,3.945,3.959c1.549,1.289,3.22,2.404,5.065,3.22
					C16.98,19.4,17.581,18.688,17.188,18.495L17.188,18.495z"/>
			</g>
		</g>
		<g>
			<g>
				<path d="M16.9,15.563c-0.54-1.979-1.025-3.971-1.69-5.913c-0.594-1.736-1.375-3.81-2.839-4.997
					c-0.229-0.186-0.7,0.242-0.581,0.494c0.826,1.745,1.86,3.31,2.533,5.139c0.705,1.918,1.179,3.917,1.733,5.882
					C16.181,16.61,17.01,15.962,16.9,15.563L16.9,15.563z"/>
			</g>
		</g>
		<g>
			<g>
				<path d="M15.903,15.127c-1.961-1.374-3.942-2.725-5.761-4.287C9.151,9.989,8.229,9.062,7.415,8.039
					C6.688,7.124,6.323,5.852,5.544,5.024c-0.227-0.24-0.606,0.239-0.617,0.444c-0.116,2.285,2.532,4.65,4.095,5.979
					c1.951,1.659,4.148,2.99,6.307,4.354C15.594,15.968,16.175,15.317,15.903,15.127L15.903,15.127z"/>
			</g>
		</g>
		<g>
			<g>
				<path d="M14.099,11.97c-0.303-2.139-0.449-4.298-0.823-6.428c-0.279-1.592-0.652-4.639-2.203-5.514
					c-0.26-0.146-0.653,0.311-0.637,0.544C10.5,1.514,11.05,2.384,11.37,3.267c0.36,0.994,0.584,2.033,0.803,3.065
					c0.432,2.034,0.662,4.106,1.078,6.144C13.336,12.894,14.146,12.309,14.099,11.97L14.099,11.97z"/>
			</g>
		</g>
		<g>
			<g>
				<path d="M12.598,11.027c-0.767-1.803-1.615-3.562-2.611-5.25C9.214,4.466,8.208,2.474,6.833,1.764
					C6.562,1.624,6.144,2.105,6.236,2.36c0.252,0.697,0.792,1.208,1.24,1.794C8.121,5,8.711,5.891,9.268,6.796
					c0.95,1.545,1.745,3.182,2.486,4.835C11.951,12.072,12.758,11.404,12.598,11.027L12.598,11.027z"/>
			</g>
		</g>
		<g>
			<g>
				<path d="M12.115,11.004c-2.312-0.293-4.301-1.492-6.123-2.88C5.177,7.502,4.417,6.813,3.646,6.137
					C2.925,5.503,2.214,4.576,1.298,4.248C1.024,4.15,0.583,4.57,0.696,4.85C1.058,5.746,2.008,6.43,2.689,7.094
					c0.917,0.892,1.903,1.723,2.94,2.472c1.8,1.298,3.794,2.222,6.024,2.399C12.081,11.999,12.722,11.082,12.115,11.004
					L12.115,11.004z"/>
			</g>
		</g>
	</g>
</g>
<g id="DESIGNED_BY_FREEPIK">
</g>
</svg>
