<?xml version="1.0" encoding="utf-8"?>
<!-- Generator: Adobe Illustrator 16.0.0, SVG Export Plug-In . SVG Version: 6.00 Build 0)  -->
<!DOCTYPE svg PUBLIC "-//W3C//DTD SVG 1.1//EN" "http://www.w3.org/Graphics/SVG/1.1/DTD/svg11.dtd">
<svg version="1.1" xmlns="http://www.w3.org/2000/svg" xmlns:xlink="http://www.w3.org/1999/xlink" x="0px" y="0px"
	 width="45.559px" height="35.649px" viewBox="0 0 45.559 35.649" enable-background="new 0 0 45.559 35.649" xml:space="preserve">
<g id="BACKGROUND">
</g>
<g id="OBJECTS">
	<g>
		<g>
			<g>
				<path d="M17.086,34.246c1.467-2.606,2.471-5.451,3.77-8.141c1.443-2.99,3.469-5.309,6.219-7.167
					c2.475-1.672,5.355-2.713,8.197-3.568c3.168-0.954,6.412-2.277,9.732-2.505c-0.049-0.127-0.1-0.254-0.148-0.381
					c-3.016,5.239-7.223,9.755-11.932,13.514c-2.301,1.837-4.764,3.473-7.33,4.911c-2.486,1.392-5.525,3.295-8.445,3.254
					c-0.623-0.009-1.553,1.366-0.674,1.401c3.105,0.124,6.15-1.738,8.783-3.19c2.828-1.561,5.498-3.423,8.008-5.453
					c4.947-4,9.184-8.844,12.25-14.428c0.076-0.136,0.064-0.396-0.148-0.381c-3.516,0.241-6.934,1.626-10.287,2.632
					c-2.893,0.868-5.678,1.945-8.246,3.549c-2.66,1.662-5.033,4.042-6.629,6.748c-1.709,2.899-2.795,6.127-4.17,9.191
					C15.633,35.131,16.803,34.751,17.086,34.246L17.086,34.246z"/>
			</g>
		</g>
		<g>
			<g>
				<path d="M17.193,34.215c-0.5-2.816-0.496-5.467,0.301-8.234c0.846-2.936,2.436-5.629,4.197-8.1
					c1.68-2.353,3.662-4.458,5.801-6.396c2.463-2.232,5.395-3.812,8.088-5.731c-0.227-0.043-0.455-0.087-0.684-0.131
					c-0.463,4.129-1.742,7.641-4.629,10.697c-0.576,0.61,0.006,1.202,0.586,0.587c3.143-3.327,4.582-7.315,5.123-11.803
					c0.049-0.417-0.512-0.249-0.686-0.131c-2.859,1.94-5.881,3.533-8.52,5.791c-2.396,2.048-4.502,4.479-6.33,7.039
					c-1.844,2.578-3.332,5.447-4.213,8.496c-0.775,2.681-1.074,5.891,0.201,8.464C16.641,35.191,17.25,34.537,17.193,34.215
					L17.193,34.215z"/>
			</g>
		</g>
		<g>
			<g>
				<path d="M17.199,35.017c0.57-2.68-0.533-5.488-1.646-7.889c-1.215-2.616-2.197-5.058-2.68-7.928
					c-1.068-6.338,0.281-13.632,4.326-18.739c-0.209,0.026-0.418,0.051-0.627,0.077c-0.006,4.896,0.479,9.777,0.557,14.672
					c0.08,5.125-0.734,10.09-1.504,15.137c-0.104,0.676,0.758,0.141,0.871-0.218c0.707-2.235,0.895-4.687,1.24-7
					c0.367-2.458,0.453-4.943,0.402-7.424c-0.105-5.182-0.795-10.331-0.84-15.517c-0.002-0.402-0.52-0.059-0.627,0.077
					c-3.93,5.037-5.27,11.875-4.898,18.127c0.174,2.927,0.729,5.71,1.895,8.4c0.58,1.341,1.172,2.68,1.656,4.059
					c0.523,1.482,0.672,3.037,1.1,4.538C16.543,35.806,17.156,35.222,17.199,35.017L17.199,35.017z"/>
			</g>
		</g>
		<g>
			<g>
				<path d="M17.207,34.673c0.553-4.801-1.916-8.668-5.322-11.816c-1.771-1.637-3.771-3.01-5.744-4.389
					c-1.799-1.257-3.547-2.581-5.338-3.846c-0.316-0.223-0.939,0.309-0.777,0.661c0.994,2.165,1.607,4.524,2.502,6.737
					c0.889,2.198,1.898,4.402,3.182,6.399c1.207,1.878,2.713,3.496,4.666,4.6c1.885,1.064,4.082,1.507,6.059,2.37
					c0.471,0.205,1.303-0.808,0.754-1.052c-1.801-0.803-3.713-1.304-5.512-2.105c-2.059-0.918-3.598-2.573-4.893-4.372
					c-1.428-1.984-2.484-4.187-3.436-6.428c-0.926-2.176-1.916-4.444-2.5-6.738c-0.26,0.22-0.52,0.44-0.777,0.661
					c1.424,1.489,3.229,2.655,4.879,3.874c1.85,1.366,3.656,2.778,5.381,4.298c3.367,2.967,6.262,6.832,6.084,11.527
					C16.396,35.558,17.17,34.996,17.207,34.673L17.207,34.673z"/>
			</g>
		</g>
		<g>
			<g>
				<path d="M17.127,34.042c1.936-1.636,4.016-3.102,5.811-4.897c2.191-2.189,4.109-4.419,6.719-6.146
					c2.65-1.754,5.314-3.485,8.014-5.167c1.17-0.73,2.324-1.42,3.389-2.302c1.213-1.003,2.377-2.163,3.887-2.703
					c0.186-0.066,0.398-0.533,0.107-0.428c-2.301,0.824-3.83,2.858-5.859,4.126c-2.973,1.857-5.889,3.801-8.814,5.732
					c-2.568,1.698-4.645,3.597-6.779,5.809c-2.043,2.118-4.439,3.764-6.666,5.669C16.713,33.927,16.869,34.26,17.127,34.042
					L17.127,34.042z"/>
			</g>
		</g>
		<g>
			<g>
				<path d="M16.832,33.947c3.963-3.523,5.994-8.664,10.385-11.797c5.266-3.759,11.018-6.797,17.096-9.03
					c0.148-0.055,0.221-0.346-0.004-0.263c-5.973,2.22-11.584,5.17-16.805,8.815c-4.592,3.207-6.994,8.178-10.838,12.108
					C16.498,33.953,16.656,34.103,16.832,33.947L16.832,33.947z"/>
			</g>
		</g>
		<g>
			<g>
				<path d="M17.049,33.948c-0.084-0.008-0.166-0.017-0.25-0.025c-0.117-0.024-0.256,0.085-0.277,0.201
					c-0.002,0.011-0.004,0.021-0.006,0.032c-0.018,0.095,0.035,0.143,0.127,0.128c5.525-0.873,8.814-6.496,13.146-9.433
					c1.432-0.97,3.014-1.694,4.459-2.643c1.381-0.907,2.588-2.017,4.006-2.89c1.139-0.701,2.275-1.433,3.135-2.475
					c1.123-1.362,2.018-2.919,3.475-3.966c0.191-0.139,0.148-0.458-0.104-0.277c-0.986,0.71-1.719,1.628-2.43,2.603
					c-1.1,1.505-2.25,2.67-3.828,3.669c-1.277,0.809-2.451,1.644-3.627,2.59c-1.344,1.08-2.943,1.775-4.4,2.678
					c-2.293,1.421-4.215,3.282-6.186,5.106c-1.02,0.944-2.068,1.854-3.201,2.662c-0.646,0.46-1.336,0.85-2.045,1.199
					c-0.191,0.094-2.197,0.865-2.199,0.862c-0.066,0.092-0.133,0.185-0.201,0.277c0.115-0.015,0.225-0.046,0.33-0.094
					C17.029,34.131,17.188,33.952,17.049,33.948L17.049,33.948z"/>
			</g>
		</g>
		<g>
			<g>
				<path d="M17.307,31.838c0.531-5.418,4.377-9.819,7.615-13.93c1.82-2.312,3.695-4.574,5.809-6.625
					c1.742-1.689,3.393-3.018,4.49-5.229c0.129-0.259-0.236-0.173-0.32-0.004c-1.338,2.727-3.773,4.406-5.82,6.566
					c-1.92,2.024-3.631,4.23-5.375,6.403c-2.883,3.592-6.789,8.1-6.766,12.996C16.941,32.252,17.293,31.986,17.307,31.838
					L17.307,31.838z"/>
			</g>
		</g>
		<g>
			<g>
				<path d="M18.053,31.022c1.752-5.397,5.365-9.609,8.994-13.864c1.654-1.941,3.68-3.533,5.377-5.439
					c0.674-0.758,1.256-1.587,1.74-2.478c0.551-1.007,0.633-2.318,0.879-3.42c0.057-0.247-0.305-0.073-0.34,0.085
					c-0.273,1.217-0.438,2.534-1.041,3.641c-0.691,1.273-1.732,2.356-2.738,3.383c-1.715,1.751-3.508,3.36-5.064,5.262
					c-3.17,3.874-6.996,7.809-8.041,12.889C17.781,31.259,18.021,31.118,18.053,31.022L18.053,31.022z"/>
			</g>
		</g>
		<g>
			<g>
				<path d="M17.328,31.546c-0.143-2.714,0.42-5.294,1.615-7.729c1.275-2.598,3.27-4.613,5.213-6.708
					c1.92-2.069,3.803-4.166,5.85-6.112c1.803-1.716,4.035-3.117,5.441-5.207c0.17-0.252-0.141-0.296-0.273-0.101
					c-1.604,2.383-4.244,4.082-6.277,6.094c-2.117,2.097-4.109,4.318-6.174,6.467c-3.502,3.643-6.287,8.183-5.678,13.433
					C17.064,31.862,17.334,31.67,17.328,31.546L17.328,31.546z"/>
			</g>
		</g>
		<g>
			<g>
				<path d="M16.496,0.974c-0.432,2.242-1.455,4.288-2.234,6.417c-0.832,2.279-1.168,4.809-1.168,7.226
					c0.002,2.316,0.434,4.694,0.936,6.95c0.535,2.409,1.092,5.121,2.309,7.287c0.09,0.163,0.332-0.071,0.328-0.196
					c-0.143-4.648-0.781-9.259-1.008-13.902c-0.113-2.303-0.082-4.61,0.158-6.904c0.238-2.271,0.994-4.456,0.965-6.751
					c-0.002-0.2-0.311,0.016-0.316,0.151c-0.102,2.306-0.768,4.507-1.047,6.792c-0.279,2.285-0.254,4.606-0.154,6.902
					c0.199,4.636,0.883,9.236,1.066,13.873c0.111-0.065,0.221-0.131,0.33-0.196c-1.098-1.924-1.598-4.25-2.088-6.393
					c-0.586-2.56-1.023-5.189-1.045-7.821c-0.02-2.671,0.562-5.396,1.516-7.883c0.719-1.876,1.594-3.679,1.84-5.694
					C16.91,0.605,16.523,0.83,16.496,0.974L16.496,0.974z"/>
			</g>
		</g>
		<g>
			<g>
				<path d="M1.037,16.45c2.377,2.867,5.324,5.205,8.062,7.71c2.857,2.616,6.004,5.712,7.172,9.508
					c0.051,0.062,0.104,0.125,0.156,0.188c0.072-0.307-0.012-0.567-0.25-0.779c-0.248-0.372-0.506-0.737-0.762-1.104
					c-0.602-0.863-1.24-1.701-1.893-2.526c-1.32-1.667-2.729-3.262-4.174-4.82c-1.438-1.55-2.93-3.051-4.438-4.533
					c-0.701-0.689-1.453-1.34-2.078-2.1C2.26,17.3,1.801,16.523,1.209,15.842c-0.105-0.119-0.387,0.143-0.312,0.265
					c2.234,3.69,4.344,7.309,6.994,10.724c0.584,0.753,1.115,1.544,1.703,2.294c0.707,0.899,1.574,1.524,2.508,2.167
					c1.709,1.176,3.303,2.743,4.65,4.318c0.137,0.159,0.51-0.202,0.367-0.367c-1.258-1.47-2.742-2.937-4.324-4.053
					c-0.807-0.569-1.656-1.062-2.346-1.78c-0.75-0.783-1.354-1.711-1.992-2.583c-1.287-1.755-2.648-3.403-3.809-5.254
					c-1.178-1.878-2.25-3.82-3.422-5.702c-0.104,0.088-0.209,0.177-0.312,0.265c1.17,1.312,2.137,2.682,3.41,3.914
					c1.41,1.363,2.791,2.752,4.135,4.179c2.889,3.067,5.594,6.333,7.85,9.896c0.072,0.115,0.215,0.042,0.291-0.035
					c0.689-0.684-1.059-3.084-1.432-3.724c-1.033-1.778-2.523-3.363-3.945-4.834c-3.154-3.269-6.682-6.16-9.887-9.38
					C1.213,16.029,0.926,16.316,1.037,16.45L1.037,16.45z"/>
			</g>
		</g>
	</g>
</g>
<g id="DESIGNED_BY_FREEPIK">
</g>
</svg>
