<?xml version="1.0" encoding="utf-8"?>
<!-- Generator: Adobe Illustrator 16.0.0, SVG Export Plug-In . SVG Version: 6.00 Build 0)  -->
<!DOCTYPE svg PUBLIC "-//W3C//DTD SVG 1.1//EN" "http://www.w3.org/Graphics/SVG/1.1/DTD/svg11.dtd">
<svg version="1.1" xmlns="http://www.w3.org/2000/svg" xmlns:xlink="http://www.w3.org/1999/xlink" x="0px" y="0px"
	 width="53.525px" height="111.412px" viewBox="0 0 53.525 111.412" enable-background="new 0 0 53.525 111.412"
	 xml:space="preserve">
<g id="BACKGROUND">
</g>
<g id="OBJECTS">
	<g>
		<g>
			<g>
				<path d="M29.18,109.964c-0.779-15.541-2.656-30.984-2.721-46.56c-0.067-16,2.655-31.678,7.949-46.766
					c1.844-5.255,3.98-10.4,5.864-15.64c0.188-0.524-0.651-0.224-0.776,0.097c-2.863,7.303-5.777,14.628-8.054,22.139
					c-2.276,7.512-3.851,15.194-4.773,22.987c-1.833,15.481-1.399,31.162-0.61,46.701c0.305,6,0.765,11.99,1.158,17.984
					C27.298,112.136,29.224,110.845,29.18,109.964L29.18,109.964z"/>
			</g>
		</g>
		<g>
			<g>
				<path d="M39.859,1.345c0.07,7.262,2.126,14.501,4.296,21.374c2.224,7.049,4.611,14.078,6.37,21.262
					c3.258,13.296,3.107,27.928-3.182,40.335c-2.221,4.379-5.291,8.371-8.475,12.094c-3.047,3.561-6.662,6.883-11.381,7.871
					c-0.447,0.094-0.973,1.088-0.244,0.975c5.656-0.871,10.001-5.648,13.416-9.867c4.016-4.961,7.498-10.205,9.707-16.227
					c4.629-12.623,3.551-26.38,0.101-39.133c-1.746-6.454-4.027-12.746-5.831-19.183c-1.849-6.597-2.991-13.19-3.764-19.988
					C40.8,0.204,39.854,0.909,39.859,1.345L39.859,1.345z"/>
			</g>
		</g>
		<g>
			<g>
				<path d="M39.832,0.298c-8.226,9.903-18.118,18.264-26.31,28.187C9.52,33.333,6.078,38.609,3.686,44.438
					c-2.309,5.624-3.446,11.74-3.655,17.8c-0.318,9.233,1.831,18.623,6.443,26.646c4.366,7.598,11.775,16.023,21.127,16.615
					c0.796,0.051,2.003-1.662,0.863-1.797c-6.712-0.791-12.113-4.887-16.462-9.84c-4.15-4.729-6.993-10.438-8.755-16.449
					C-0.333,65.2,0.98,51.681,6.603,40.298c7.872-15.937,23.386-25.879,33.964-39.728C41.073-0.093,40.221-0.169,39.832,0.298
					L39.832,0.298z"/>
			</g>
		</g>
		<g>
			<g>
				<path d="M28.115,95.031c0.08-2.23,1.902-3.77,3.531-5.059c1.817-1.439,3.732-2.795,5.659-4.08
					c2.556-1.707,5.159-3.338,7.663-5.121c1.206-0.857,2.402-1.768,3.46-2.805c0.776-0.762,1.736-1.588,1.985-2.689
					c0.074-0.328-0.32-0.238-0.459-0.084c-2.108,2.328-4.46,4.197-7.124,5.875c-2.838,1.787-5.773,3.404-8.537,5.309
					c-1.864,1.285-3.728,2.555-5.349,4.148c-1.253,1.232-3.015,3.41-2.14,5.287C27.133,96.513,28.099,95.484,28.115,95.031
					L28.115,95.031z"/>
			</g>
		</g>
		<g>
			<g>
				<path d="M50.596,74.916c0.359-0.368,0.899-0.736,1.084-1.229c0.06-0.159-0.067-0.209-0.193-0.125
					c-0.439,0.294-0.756,0.824-1.046,1.257C50.344,74.96,50.492,75.023,50.596,74.916L50.596,74.916z"/>
			</g>
		</g>
		<g>
			<g>
				<path d="M26.938,75.712c0.175,0,0.424-0.387,0.186-0.387C26.949,75.326,26.7,75.712,26.938,75.712L26.938,75.712z"/>
			</g>
		</g>
		<g>
			<g>
				<path d="M27.031,77.455c2.722-4.399,7.055-6.999,11.537-9.341c2.299-1.201,4.704-2.202,6.945-3.51
					c1.01-0.59,2.012-1.244,3.059-1.764c0.858-0.427,1.88-1.181,2.18-2.128c0.064-0.206-0.175-0.178-0.281-0.109
					c-1.146,0.742-2.115,1.706-3.312,2.395c-1.094,0.63-2.261,1.109-3.402,1.642c-2.33,1.086-4.712,2.055-7.045,3.132
					c-4.307,1.989-8.938,4.895-10.786,9.49C25.554,78.183,26.679,78.025,27.031,77.455L27.031,77.455z"/>
			</g>
		</g>
		<g>
			<g>
				<path d="M51.448,60.329c0.846-0.58,1.523-1.34,2.038-2.224c0.074-0.128,0.05-0.33-0.13-0.333
					C53.158,57.77,53,57.94,52.91,58.097c-0.405,0.709-0.961,1.31-1.63,1.776C50.96,60.097,51.029,60.616,51.448,60.329
					L51.448,60.329z"/>
			</g>
		</g>
		<g>
			<g>
				<path d="M26.701,60.423c0.605-0.761,1.016-1.664,1.627-2.437c0.775-0.977,1.757-1.829,2.714-2.62
					c0.945-0.781,1.897-1.552,2.858-2.313c0.738-0.585,1.586-1.164,2.133-1.942c0.12-0.171,0.141-0.515-0.168-0.431
					c-0.949,0.26-1.832,0.973-2.645,1.505c-1.199,0.786-2.362,1.617-3.443,2.56c-0.981,0.854-1.882,1.762-2.688,2.783
					c-0.59,0.748-1.521,2.012-1.388,3.019C25.782,61.162,26.495,60.682,26.701,60.423L26.701,60.423z"/>
			</g>
		</g>
		<g>
			<g>
				<path d="M45.868,45.65c1.676-0.884,3.786-1.318,4.966-2.923c0.075-0.102,0.173-0.297,0.107-0.427
					c-0.013-0.024-0.025-0.049-0.037-0.073c-0.061-0.119-0.188-0.103-0.293-0.056c-0.341,0.15-0.482,0.435-0.729,0.699
					c-0.382,0.408-0.914,0.697-1.396,0.966c-0.886,0.493-1.82,0.893-2.688,1.419C45.598,45.377,45.555,45.816,45.868,45.65
					L45.868,45.65z"/>
			</g>
		</g>
		<g>
			<g>
				<path d="M28.965,39.261c4.509-5.314,11.011-8.326,16.348-12.686c0.511-0.418,0.229-1.02-0.333-0.527
					c-0.776,0.68-1.373,1.503-2.186,2.154c-0.651,0.522-1.415,0.926-2.125,1.361c-1.644,1.007-3.337,1.927-5.032,2.84
					c-2.953,1.592-5.944,3.713-7.631,6.69C27.552,39.895,28.646,39.638,28.965,39.261L28.965,39.261z"/>
			</g>
		</g>
		<g>
			<g>
				<path d="M27.447,94.958c-2.445-4.271-6.81-6.398-11.062-8.473c-2.148-1.047-4.305-2.066-6.355-3.297
					c-1.091-0.656-2.188-1.361-3.184-2.154c-1.122-0.891-2.328-1.688-3.078-2.936c-0.144-0.238-0.557,0.127-0.475,0.34
					c0.802,2.082,2.965,3.812,4.727,5.084c1.94,1.402,4.145,2.463,6.264,3.562c4.453,2.312,8.864,4.84,11.904,8.941
					C26.562,96.533,27.733,95.457,27.447,94.958L27.447,94.958z"/>
			</g>
		</g>
		<g>
			<g>
				<path d="M26.57,78.693c-1.102-4.316-6.614-5.434-10.142-6.938c-2.622-1.119-5.229-2.46-7.7-3.878
					c-1.404-0.805-2.724-1.738-3.946-2.798c-1.333-1.155-2.299-2.617-3.519-3.877c-0.126-0.129-0.349,0.142-0.317,0.27
					c0.719,2.863,3.685,5.058,6.023,6.605c2.435,1.611,5.118,2.76,7.669,4.16c1.943,1.067,3.997,1.875,6.004,2.815
					c1.991,0.932,4.156,2.146,5.016,4.293C25.857,79.845,26.674,79.097,26.57,78.693L26.57,78.693z"/>
			</g>
		</g>
		<g>
			<g>
				<path d="M26.344,59.71c-1.646-3.328-5.291-5.113-8.213-7.147c-3.788-2.636-7.742-4.828-11.083-8.062
					c-0.079-0.076-0.251,0.092-0.211,0.18c1.744,3.833,6.495,5.932,9.829,8.138c3.099,2.051,7.143,4.007,9.053,7.339
					C25.899,60.471,26.477,59.98,26.344,59.71L26.344,59.71z"/>
			</g>
		</g>
		<g>
			<g>
				<path d="M28.571,38.811c-1.986-2.329-4.337-4.312-6.259-6.717c-1.744-2.182-2.605-5.168-4.778-6.996
					c-0.226-0.189-0.705,0.286-0.506,0.506c1.875,2.055,2.646,4.727,4.269,6.946c1.811,2.478,4.042,5.182,6.528,7.007
					C28.173,39.812,28.859,39.15,28.571,38.811L28.571,38.811z"/>
			</g>
		</g>
		<g>
			<g>
				<path d="M27.959,99.021c2.356-5.311,7.038-8.488,11.738-11.582c2.158-1.42,4.302-2.861,6.269-4.543
					c1.02-0.871,1.907-1.854,2.814-2.834c0.88-0.953,1.742-1.979,2.085-3.252c0.065-0.242-0.289-0.061-0.334,0.084
					c-0.534,1.699-1.914,2.992-3.119,4.246c-0.967,1.004-2.028,1.908-3.128,2.764c-2.126,1.652-4.423,3.076-6.667,4.561
					c-4.034,2.668-8.406,5.824-10.033,10.604C27.495,99.33,27.896,99.164,27.959,99.021L27.959,99.021z"/>
			</g>
		</g>
		<g>
			<g>
				<path d="M27.654,101.957c1.825-1.148,2.948-3.094,4.635-4.43c1.945-1.539,4.019-2.951,6.075-4.336
					c2.022-1.363,4.023-2.729,5.885-4.307c1.397-1.188,2.997-2.623,3.377-4.494c0.053-0.26-0.323-0.078-0.355,0.088
					c-0.455,2.305-2.986,4.205-4.744,5.568c-1.695,1.316-3.522,2.459-5.329,3.613c-1.844,1.178-3.659,2.447-5.385,3.791
					c-1.596,1.244-2.567,3.182-4.236,4.297C27.426,101.847,27.456,102.082,27.654,101.957L27.654,101.957z"/>
			</g>
		</g>
		<g>
			<g>
				<path d="M27.943,103.929c4.353-3.99,9.881-6.51,14.065-10.684c0.124-0.125,0.006-0.24-0.121-0.121
					c-4.342,4.035-9.855,6.506-14.101,10.648C27.626,103.931,27.779,104.08,27.943,103.929L27.943,103.929z"/>
			</g>
		</g>
		<g>
			<g>
				<path d="M27.034,89.642c0.617-2.459,3.826-4.047,5.83-5.217c2.09-1.221,4.239-2.328,6.301-3.598
					c5.747-3.537,12.156-7.596,13.858-14.6c0.058-0.235-0.277-0.057-0.318,0.08c-0.617,2.023-1.415,3.957-2.703,5.655
					c-1.229,1.622-2.749,3.001-4.33,4.272c-2.578,2.074-5.443,3.98-8.374,5.52c-2.248,1.182-4.535,2.293-6.681,3.656
					c-1.488,0.945-3.652,2.4-3.923,4.314C26.657,89.986,26.997,89.792,27.034,89.642L27.034,89.642z"/>
			</g>
		</g>
		<g>
			<g>
				<path d="M27.214,85.638c0.277-1.043,1.423-1.834,2.233-2.449c1.05-0.795,2.177-1.49,3.305-2.168
					c2.242-1.35,4.546-2.594,6.811-3.906c2.811-1.627,5.548-3.323,7.984-5.486c1.248-1.108,2.436-2.332,3.594-3.534
					c0.965-1.002,1.728-2.144,1.961-3.531c0.037-0.226-0.284-0.07-0.307,0.076c-0.301,1.941-1.75,3.273-3.103,4.57
					c-1.357,1.302-2.643,2.618-4.135,3.775c-2.678,2.077-5.696,3.647-8.659,5.267c-2.075,1.135-4.162,2.236-6.142,3.533
					c-1.356,0.889-3.552,2.199-3.908,3.945C26.793,86.001,27.171,85.8,27.214,85.638L27.214,85.638z"/>
			</g>
		</g>
		<g>
			<g>
				<path d="M27.085,82.437c1.01-2.197,3.33-3.734,5.248-5.07c2.101-1.463,4.302-2.79,6.515-4.074
					c2.812-1.63,5.55-3.354,8.191-5.248c1.272-0.913,2.482-1.945,3.687-2.947c0.861-0.717,1.583-1.539,2.019-2.577
					c0.092-0.219-0.197-0.145-0.26-0.004c-0.664,1.502-1.985,2.445-3.229,3.444c-1.35,1.085-2.657,2.209-4.087,3.19
					c-2.781,1.909-5.789,3.463-8.706,5.146c-2.045,1.181-4.043,2.433-5.918,3.87c-1.436,1.102-3.205,2.498-3.748,4.305
					C26.734,82.681,27.037,82.542,27.085,82.437L27.085,82.437z"/>
			</g>
		</g>
		<g>
			<g>
				<path d="M25.992,80.386c3.429-2.119,6.164-5.234,9.424-7.596c3.08-2.229,6.747-3.648,9.573-6.232
					c0.067-0.062,0.022-0.166-0.062-0.098c-2.972,2.397-6.497,3.854-9.637,5.99c-3.341,2.273-6.202,5.217-9.386,7.701
					C25.748,80.273,25.766,80.527,25.992,80.386L25.992,80.386z"/>
			</g>
		</g>
		<g>
			<g>
				<path d="M46.804,65.412c2.194-1.44,5.099-2.713,6.384-5.142c0.136-0.255-0.226-0.157-0.312-0.004
					c-1.308,2.28-4.017,3.581-6.116,5.024C46.673,65.349,46.69,65.486,46.804,65.412L46.804,65.412z"/>
			</g>
		</g>
		<g>
			<g>
				<path d="M25.919,73.414c1.806-1.28,3.226-3.051,4.859-4.531c2.187-1.98,5.042-3.406,7.671-4.705
					c0.079-0.039,0.127-0.209-0.002-0.152c-2.387,1.051-4.85,2.198-6.948,3.765c-2.087,1.557-3.685,3.676-5.688,5.333
					C25.626,73.275,25.647,73.607,25.919,73.414L25.919,73.414z"/>
			</g>
		</g>
		<g>
			<g>
				<path d="M41.616,62.514c2.238-1.233,4.583-2.255,6.784-3.56c1.651-0.979,3.939-2.334,4.501-4.321
					c0.084-0.296-0.349-0.067-0.406,0.102c-0.745,2.169-3.355,3.543-5.216,4.62c-1.852,1.071-3.8,1.956-5.665,2.998
					C41.533,62.399,41.488,62.584,41.616,62.514L41.616,62.514z"/>
			</g>
		</g>
		<g>
			<g>
				<path d="M25.958,70.027c3.89-4.492,8.999-7.45,14.158-10.258c2.444-1.33,4.913-2.609,7.295-4.05
					c1.612-0.975,4.291-2.164,4.639-4.247c0.046-0.275-0.333-0.077-0.369,0.092c-0.312,1.46-1.679,2.183-2.823,2.953
					c-1.206,0.811-2.464,1.543-3.729,2.257c-2.433,1.373-4.926,2.636-7.385,3.962c-4.42,2.385-8.905,5.109-12.01,9.149
					C25.584,70.082,25.818,70.188,25.958,70.027L25.958,70.027z"/>
			</g>
		</g>
		<g>
			<g>
				<path d="M25.748,66.403c2.164-1.371,4.23-2.881,6.314-4.37c2.217-1.583,4.523-3.029,6.753-4.59
					c0.096-0.066,0.134-0.285-0.036-0.203c-2.302,1.103-4.415,2.683-6.486,4.158c-2.216,1.577-4.412,3.182-6.645,4.734
					C25.457,66.265,25.493,66.565,25.748,66.403L25.748,66.403z"/>
			</g>
		</g>
		<g>
			<g>
				<path d="M43.282,55.267c1.792-1.04,3.637-1.983,5.402-3.069c1.349-0.83,3.149-1.788,3.6-3.389
					c0.064-0.229-0.271-0.089-0.321,0.04c-0.604,1.562-2.33,2.481-3.696,3.344c-1.627,1.028-3.333,1.924-4.986,2.907
					C43.199,55.149,43.151,55.343,43.282,55.267L43.282,55.267z"/>
			</g>
		</g>
		<g>
			<g>
				<path d="M26.062,64.226c1.293-2.144,3.337-3.613,5.409-4.94c2.245-1.437,4.614-2.795,6.959-4.061
					c2.475-1.336,5.072-2.443,7.482-3.898c1.825-1.101,4.419-2.408,5.432-4.391c0.12-0.235-0.214-0.155-0.291-0.004
					c-0.688,1.343-2.18,2.109-3.336,3.008c-1.267,0.985-2.746,1.738-4.162,2.483c-2.57,1.352-5.179,2.595-7.701,4.038
					c-3.553,2.032-8.101,3.852-10.042,7.721C25.71,64.383,25.984,64.354,26.062,64.226L26.062,64.226z"/>
			</g>
		</g>
		<g>
			<g>
				<path d="M25.991,62.565c3.064-4.75,7.947-7.809,12.77-10.533c2.288-1.292,4.615-2.511,6.892-3.823
					c1.058-0.61,2.089-1.265,3.145-1.878c0.844-0.49,1.661-1.012,2.126-1.895c0.119-0.228-0.206-0.149-0.283-0.004
					c-0.655,1.248-2.4,1.933-3.578,2.644c-1.16,0.701-2.355,1.335-3.546,1.98c-2.334,1.266-4.69,2.489-6.984,3.827
					c-4.176,2.438-8.338,5.378-10.818,9.633C25.587,62.732,25.901,62.704,25.991,62.565L25.991,62.565z"/>
			</g>
		</g>
		<g>
			<g>
				<path d="M26.518,56.603c2.282-4.001,6.574-6.44,10.195-9.094c4.035-2.957,9.302-4.752,12.654-8.572
					c0.161-0.184-0.007-0.36-0.172-0.172c-3.598,4.082-9.279,5.812-13.531,9.087c-3.365,2.594-7.545,4.741-9.451,8.747
					C26.09,56.856,26.435,56.75,26.518,56.603L26.518,56.603z"/>
			</g>
		</g>
		<g>
			<g>
				<path d="M26.577,52.726c4.053-3.004,7.567-6.697,11.773-9.503c1.975-1.317,4.179-2.264,6.212-3.483
					c1.558-0.935,3.472-2.12,4.104-3.923c0.062-0.175-0.214-0.069-0.256,0.032c-0.926,2.229-3.713,3.599-5.73,4.688
					c-1.84,0.993-3.729,1.885-5.458,3.07c-3.831,2.628-7.25,5.897-10.779,8.905C26.287,52.645,26.389,52.866,26.577,52.726
					L26.577,52.726z"/>
			</g>
		</g>
		<g>
			<g>
				<path d="M26.83,49.149c4.22-2.776,7.98-6.289,12.351-8.826c3.086-1.791,7.14-3.348,8.478-6.971
					c0.08-0.216-0.2-0.146-0.254-0.003c-1.529,4.016-6.291,5.511-9.67,7.541c-3.878,2.329-7.278,5.437-11.002,7.997
					C26.548,49.014,26.586,49.309,26.83,49.149L26.83,49.149z"/>
			</g>
		</g>
		<g>
			<g>
				<path d="M27.356,45.676c3.399-3.119,7.14-5.446,11.155-7.691c1.776-0.993,3.524-2.031,5.211-3.17
					c1.339-0.904,2.922-1.928,3.589-3.463c0.081-0.188-0.173-0.127-0.227-0.003c-0.8,1.871-3.118,3.16-4.778,4.206
					c-1.906,1.201-3.919,2.232-5.897,3.307c-3.328,1.81-6.771,3.747-9.234,6.7C27.041,45.722,27.236,45.787,27.356,45.676
					L27.356,45.676z"/>
			</g>
		</g>
		<g>
			<g>
				<path d="M27.616,42.436c3.058-2.75,6.371-5.019,9.854-7.191c1.629-1.017,3.243-2.051,4.845-3.11
					c1.417-0.937,3.076-1.913,4.06-3.332c0.118-0.171-0.097-0.202-0.188-0.069c-1.142,1.681-3.252,2.855-4.963,3.89
					c-1.639,0.991-3.288,1.963-4.928,2.951c-3.141,1.895-6.384,3.938-8.851,6.691C27.282,42.448,27.435,42.6,27.616,42.436
					L27.616,42.436z"/>
			</g>
		</g>
		<g>
			<g>
				<path d="M28.99,35.297c2.777-2.226,5.545-4.464,8.336-6.672c1.344-1.062,2.699-2.107,4.087-3.111
					c1.154-0.835,2.423-1.501,3.238-2.702c0.15-0.222-0.124-0.261-0.24-0.089c-0.905,1.338-2.526,2.239-3.812,3.191
					c-1.367,1.011-2.732,2.026-4.086,3.057c-2.588,1.969-5.102,4.025-7.606,6.1C28.761,35.191,28.791,35.457,28.99,35.297
					L28.99,35.297z"/>
			</g>
		</g>
		<g>
			<g>
				<path d="M29.616,31.269c2.395-2.458,5.372-4.221,8.341-5.897c1.273-0.719,2.532-1.465,3.733-2.3
					c0.909-0.631,1.978-1.309,2.375-2.387c0.075-0.202-0.176-0.126-0.234-0.003c-0.712,1.494-2.494,2.467-3.852,3.329
					c-1.322,0.839-2.714,1.548-4.096,2.28c-2.373,1.257-4.662,2.772-6.438,4.807C29.287,31.28,29.443,31.448,29.616,31.269
					L29.616,31.269z"/>
			</g>
		</g>
		<g>
			<g>
				<path d="M30.961,26.886c2.446-2.911,6.113-4.288,8.993-6.687c0.021-0.017,0.019-0.055-0.012-0.032
					c-3.063,2.268-6.75,3.576-9.175,6.647C30.632,26.988,30.858,27.009,30.961,26.886L30.961,26.886z"/>
			</g>
		</g>
		<g>
			<g>
				<path d="M40.305,19.997c0.889-0.638,2.631-1.271,2.771-2.54c0.018-0.156-0.211,0.008-0.238,0.06
					c-0.315,0.594-0.64,1.005-1.188,1.408c-0.452,0.333-0.941,0.611-1.392,0.946C40.172,19.935,40.189,20.08,40.305,19.997
					L40.305,19.997z"/>
			</g>
		</g>
		<g>
			<g>
				<path d="M32.115,22.296c2.602-1.519,4.73-3.574,7.101-5.399c1.257-0.968,3.574-1.742,3.812-3.566
					c0.015-0.112-0.128-0.042-0.152,0.02c-0.795,1.981-3.067,3.026-4.729,4.238c-2.039,1.487-3.915,3.171-6.067,4.504
					C31.977,22.157,31.959,22.387,32.115,22.296L32.115,22.296z"/>
			</g>
		</g>
		<g>
			<g>
				<path d="M33.439,18.592c1.603-1.524,3.655-2.644,5.128-4.288c0.056-0.062,0.029-0.14-0.056-0.088
					c-1.854,1.128-3.766,2.612-5.223,4.226C33.145,18.602,33.281,18.743,33.439,18.592L33.439,18.592z"/>
			</g>
		</g>
		<g>
			<g>
				<path d="M41.032,12.266c0.429-0.221,1.263-0.814,1.084-1.393c-0.026-0.087-0.145,0.027-0.163,0.06
					c-0.098,0.172-0.139,0.347-0.223,0.527c-0.137,0.296-0.427,0.49-0.7,0.642C40.949,12.148,40.898,12.335,41.032,12.266
					L41.032,12.266z"/>
			</g>
		</g>
		<g>
			<g>
				<path d="M35.433,13.835c1.764-1.633,4.961-3.091,5.479-5.684c0.041-0.201-0.227-0.041-0.262,0.065
					c-0.843,2.519-3.584,3.696-5.354,5.482C35.158,13.838,35.29,13.967,35.433,13.835L35.433,13.835z"/>
			</g>
		</g>
		<g>
			<g>
				<path d="M36.836,10.156c0.738-0.793,1.616-1.438,2.392-2.192c0.558-0.543,1.29-1.334,1.314-2.157
					c0.003-0.115-0.154,0.002-0.176,0.044c-0.446,0.888-0.902,1.595-1.634,2.286c-0.672,0.636-1.393,1.214-2.006,1.91
					C36.624,10.163,36.728,10.272,36.836,10.156L36.836,10.156z"/>
			</g>
		</g>
		<g>
			<g>
				<path d="M37.978,6.68c0.438-0.319,0.857-0.63,1.231-1.026c0.283-0.3,0.666-0.742,0.656-1.177
					c-0.002-0.092-0.119-0.014-0.145,0.018c-0.282,0.361-0.464,0.767-0.781,1.107c-0.31,0.332-0.673,0.631-1.021,0.92
					C37.818,6.605,37.831,6.787,37.978,6.68L37.978,6.68z"/>
			</g>
		</g>
		<g>
			<g>
				<path d="M27.457,98.892c-0.747-3.24-4.942-4.277-7.467-5.709c-2.131-1.205-3.997-2.898-6.023-4.27
					c-1.949-1.318-4.108-2.152-6.301-2.969c-0.064-0.023-0.181,0.109-0.104,0.146c2.215,1.084,4.455,1.893,6.5,3.309
					c1.842,1.275,3.514,2.785,5.358,4.061c2.543,1.76,6.517,2.451,7.685,5.684C27.176,99.337,27.492,99.048,27.457,98.892
					L27.457,98.892z"/>
			</g>
		</g>
		<g>
			<g>
				<path d="M6.272,85.027c-0.36-0.365-0.727-0.725-1.063-1.113c-0.321-0.371-0.497-0.82-0.785-1.205
					c-0.038-0.049-0.135,0.051-0.129,0.094c0.135,0.949,1.188,1.746,1.829,2.373C6.186,85.236,6.334,85.089,6.272,85.027
					L6.272,85.027z"/>
			</g>
		</g>
		<g>
			<g>
				<path d="M27.604,100.445c-1.892-2.611-5.314-2.982-8.105-4.123c-2.134-0.871-4.097-2.309-5.988-3.602
					c-1.852-1.266-3.767-2.447-5.576-3.771c-0.065-0.049-0.202,0.086-0.141,0.141c1.538,1.35,3.382,2.465,5.059,3.643
					c1.8,1.262,3.642,2.459,5.553,3.545c2.884,1.641,6.735,1.678,8.887,4.48C27.399,100.896,27.713,100.595,27.604,100.445
					L27.604,100.445z"/>
			</g>
		</g>
		<g>
			<g>
				<path d="M27.5,102.162c-2.209-1.088-4.604-1.633-6.971-2.262c-2.528-0.67-4.656-1.584-6.808-3.072
					c-0.101-0.07-0.303,0.119-0.215,0.215c1.592,1.742,4.19,2.518,6.382,3.154c2.469,0.715,5.005,1.234,7.34,2.344
					C27.395,102.619,27.695,102.259,27.5,102.162L27.5,102.162z"/>
			</g>
		</g>
		<g>
			<g>
				<path d="M26.932,90.119c-1.227-1.803-3.298-2.709-5.294-3.387c-2.461-0.834-4.86-1.502-7.138-2.797
					c-2.442-1.391-4.633-3.205-6.742-5.047c-0.971-0.848-1.887-1.74-2.967-2.451c-0.957-0.629-1.928-1.211-2.588-2.175
					c-0.053-0.076-0.232,0.085-0.188,0.16c0.481,0.817,1.172,1.343,1.954,1.864c1.053,0.699,1.981,1.441,2.925,2.287
					c2.1,1.877,4.245,3.709,6.612,5.244c2.131,1.381,4.408,2.217,6.811,2.982c2.442,0.777,4.534,1.73,6.314,3.619
					C26.754,90.55,27.028,90.259,26.932,90.119L26.932,90.119z"/>
			</g>
		</g>
		<g>
			<g>
				<path d="M26.774,87.488c-0.958-1.781-2.907-2.57-4.733-3.172c-2.251-0.738-4.659-1.047-6.817-2.053
					c-2.57-1.197-4.528-3.42-6.432-5.449c-0.934-0.998-1.895-1.961-2.951-2.828c-1.298-1.062-2.752-1.799-3.926-3.02
					c-0.041-0.043-0.138,0.056-0.102,0.103c0.939,1.214,2.356,1.933,3.542,2.875c1.071,0.853,2.043,1.806,2.979,2.804
					c1.759,1.877,3.413,3.969,5.648,5.311c2.013,1.207,4.296,1.66,6.535,2.277c2.169,0.598,4.67,1.369,5.937,3.381
					C26.553,87.873,26.847,87.623,26.774,87.488L26.774,87.488z"/>
			</g>
		</g>
		<g>
			<g>
				<path d="M26.669,84.296c-3.321-3.238-8.071-3.469-11.975-5.66c-2.415-1.355-4.464-3.484-6.478-5.356
					c-2.01-1.866-4.289-3.377-6.318-5.214c-0.029-0.026-0.095,0.039-0.068,0.069c0.827,0.989,1.943,1.772,2.974,2.542
					c1.022,0.765,1.962,1.646,2.892,2.521c1.981,1.862,3.838,3.8,6.087,5.353c3.913,2.701,9.062,2.65,12.611,6.021
					C26.51,84.683,26.784,84.408,26.669,84.296L26.669,84.296z"/>
			</g>
		</g>
		<g>
			<g>
				<path d="M26.262,81.33c-1.257-3.586-5.792-4.26-8.925-5.338c-2.651-0.914-5.112-2.307-7.313-4.038
					c-1.925-1.514-3.436-3.44-5.536-4.74c-0.04-0.024-0.127,0.069-0.087,0.103c1.868,1.556,3.471,3.376,5.346,4.914
					c1.859,1.525,3.961,2.754,6.166,3.701c3.493,1.5,8.138,1.846,10.055,5.609C26.045,81.695,26.308,81.46,26.262,81.33
					L26.262,81.33z"/>
			</g>
		</g>
		<g>
			<g>
				<path d="M3.016,66.472c0.186,0,0.448-0.409,0.197-0.409C3.027,66.063,2.765,66.472,3.016,66.472L3.016,66.472z"/>
			</g>
		</g>
		<g>
			<g>
				<path d="M2.92,66.045c-0.312-0.344-0.638-0.653-0.991-0.953c-0.36-0.307-0.702-0.706-1.095-0.961
					c-0.045-0.029-0.139,0.044-0.111,0.095c0.196,0.376,0.607,0.642,0.931,0.905c0.398,0.325,0.806,0.648,1.155,1.024
					C2.853,66.203,2.963,66.093,2.92,66.045L2.92,66.045z"/>
			</g>
		</g>
		<g>
			<g>
				<path d="M26.193,74.272c-2.736-3.879-7.8-3.335-11.796-4.902c-2.58-1.012-4.709-2.924-6.604-4.893
					c-2.063-2.142-3.938-4.327-6.241-6.231c-0.095-0.078-0.3,0.131-0.209,0.21c4.018,3.5,7.019,8.164,11.741,10.81
					c4.098,2.296,9.72,1.213,12.784,5.33C25.978,74.741,26.303,74.428,26.193,74.272L26.193,74.272z"/>
			</g>
		</g>
		<g>
			<g>
				<path d="M26.08,71.756c-0.937-1.761-3.159-2.556-4.921-3.184c-2.225-0.792-4.647-1.342-6.568-2.781
					c-2.245-1.682-4.005-3.889-5.933-5.902c-0.964-1.007-1.984-1.933-3.132-2.727c-1.308-0.906-2.956-1.282-4.159-2.314
					c-0.08-0.068-0.247,0.116-0.172,0.171c1.182,0.863,2.6,1.307,3.82,2.126c1.142,0.767,2.159,1.753,3.117,2.733
					c1.954,2.002,3.671,4.208,5.867,5.964c3.554,2.842,8.742,2.581,11.831,6.126C25.914,72.064,26.133,71.856,26.08,71.756
					L26.08,71.756z"/>
			</g>
		</g>
		<g>
			<g>
				<path d="M26.188,68.777c-2.977-3.667-7.467-5.811-11.368-8.317c-2.248-1.444-4.474-2.921-6.635-4.491
					c-1.964-1.425-3.812-2.972-5.998-4.052c-0.088-0.043-0.249,0.152-0.145,0.202c2.307,1.103,4.183,2.887,6.23,4.384
					c2.158,1.577,4.398,3.042,6.643,4.494c3.8,2.458,7.876,4.716,10.958,8.095C25.996,69.226,26.305,68.919,26.188,68.777
					L26.188,68.777z"/>
			</g>
		</g>
		<g>
			<g>
				<path d="M26.425,66.541c-3.165-3.677-7.739-5.589-11.78-8.098c-2.188-1.358-4.005-3.213-5.928-4.904
					c-1.931-1.699-3.854-2.891-6.393-3.415c-0.059-0.013-0.148,0.109-0.086,0.121c4.954,0.963,7.838,5.592,11.809,8.277
					c4.095,2.769,8.614,4.677,12.091,8.306C26.253,66.948,26.534,66.667,26.425,66.541L26.425,66.541z"/>
			</g>
		</g>
		<g>
			<g>
				<path d="M26.182,63.451c-3.23-3.416-7.513-5.253-11.285-7.932c-1.827-1.296-3.438-2.882-5.079-4.398
					c-1.565-1.447-3.236-2.981-5.329-3.575c-0.052-0.016-0.14,0.092-0.08,0.111c2.124,0.681,3.927,2.449,5.533,3.935
					c1.649,1.525,3.202,3.131,5.037,4.44c1.752,1.25,3.695,2.242,5.493,3.429c1.928,1.271,3.706,2.733,5.409,4.291
					C26.011,63.87,26.303,63.578,26.182,63.451L26.182,63.451z"/>
			</g>
		</g>
		<g>
			<g>
				<path d="M4.129,47.572c-0.053-0.024-0.106-0.05-0.16-0.074c-0.014-0.02-0.055,0.021-0.041,0.041
					C4,47.646,3.959,47.614,4.102,47.629C4.128,47.633,4.165,47.575,4.129,47.572L4.129,47.572z"/>
			</g>
		</g>
		<g>
			<g>
				<path d="M26.314,61.568c-3.341-3.201-7.04-6.018-10.728-8.804c-1.857-1.404-3.728-2.794-5.607-4.169
					c-1.797-1.314-3.548-2.676-5.636-3.498c-0.079-0.031-0.216,0.137-0.125,0.174c2.126,0.857,3.721,2.189,5.519,3.567
					c1.847,1.414,3.708,2.808,5.562,4.214c3.691,2.801,7.276,5.72,10.783,8.748C26.185,61.888,26.411,61.661,26.314,61.568
					L26.314,61.568z"/>
			</g>
		</g>
		<g>
			<g>
				<path d="M26.744,56.555c-1.223-1.727-2.019-3.648-3.578-5.122c-1.508-1.426-3.608-2.333-5.314-3.493
					c-1.856-1.263-3.826-2.335-5.86-3.284c-1.995-0.931-4.619-1.223-6.28-2.733c-0.084-0.075-0.272,0.118-0.191,0.19
					c1.401,1.241,3.415,1.553,5.118,2.203c2.361,0.902,4.476,2.241,6.555,3.658c1.757,1.197,3.694,2.23,5.368,3.531
					c1.789,1.39,2.539,3.587,3.926,5.307C26.579,56.927,26.83,56.677,26.744,56.555L26.744,56.555z"/>
			</g>
		</g>
		<g>
			<g>
				<path d="M26.421,52.794c-2.204-3.099-5.589-5.068-8.768-7.025c-1.804-1.109-3.729-2.016-5.585-3.033
					c-0.947-0.52-1.863-1.09-2.76-1.694c-0.897-0.605-1.46-1.426-2.145-2.24c-0.098-0.115-0.365,0.145-0.266,0.266
					c2.522,3.062,5.997,4.559,9.389,6.459c3.652,2.047,7.065,4.41,9.854,7.548C26.25,53.196,26.514,52.925,26.421,52.794
					L26.421,52.794z"/>
			</g>
		</g>
		<g>
			<g>
				<path d="M26.885,49.05c-0.512-1.207-1.76-1.904-2.848-2.529c-1.557-0.896-3.318-1.555-4.694-2.731
					c-1.72-1.471-3.334-3.05-5.109-4.457c-1.764-1.398-3.956-2.318-5.589-3.845c-0.098-0.091-0.322,0.137-0.227,0.227
					c1.543,1.442,3.545,2.345,5.225,3.623c1.792,1.363,3.432,2.917,5.085,4.44c1.146,1.058,2.511,1.767,3.875,2.504
					c1.373,0.743,3.17,1.567,3.909,3.035C26.609,49.51,26.954,49.215,26.885,49.05L26.885,49.05z"/>
			</g>
		</g>
		<g>
			<g>
				<path d="M27.37,45.644c-1.58-2.743-5.501-3.017-7.906-4.739c-1.583-1.134-2.798-2.827-4.112-4.242
					c-1.479-1.593-3.411-2.59-4.89-4.158c-0.077-0.081-0.271,0.11-0.193,0.193c1.374,1.464,3.121,2.506,4.523,3.954
					c1.4,1.446,2.622,3.039,4.14,4.374c2.419,2.129,6.081,2.229,8.113,4.896C27.144,46.051,27.444,45.773,27.37,45.644L27.37,45.644
					z"/>
			</g>
		</g>
		<g>
			<g>
				<path d="M27.529,42.353c-2.613-1.763-5.491-3.097-8.124-4.838c-1.378-0.912-2.667-1.949-3.849-3.104
					c-1.229-1.202-2.017-2.617-3.013-3.989c-0.063-0.087-0.231,0.091-0.203,0.172c1.054,2.951,4.017,5.282,6.504,6.988
					c2.696,1.85,5.592,3.427,8.389,5.12C27.371,42.787,27.671,42.449,27.529,42.353L27.529,42.353z"/>
			</g>
		</g>
		<g>
			<g>
				<path d="M28.006,40.793c-2.457-2.098-5.256-3.744-7.654-5.917c-2.409-2.182-3.57-5.061-5.529-7.566
					c-0.086-0.111-0.335,0.13-0.248,0.248c1.893,2.578,3.18,5.33,5.577,7.519c2.376,2.168,5.047,4.014,7.573,5.998
					C27.854,41.177,28.129,40.898,28.006,40.793L28.006,40.793z"/>
			</g>
		</g>
		<g>
			<g>
				<path d="M29.001,34.298c-1.837-1.938-3.456-4.053-4.997-6.229c-1.508-2.132-3.645-3.762-4.934-6.056
					c-0.069-0.124-0.301,0.072-0.244,0.176c1.13,2.091,2.952,3.658,4.423,5.497c1.851,2.314,3.263,4.865,5.48,6.883
					C28.847,34.675,29.109,34.414,29.001,34.298L29.001,34.298z"/>
			</g>
		</g>
		<g>
			<g>
				<path d="M29.893,30.489c-1.435-1.55-2.961-2.959-4.213-4.68c-1.418-1.948-3.345-3.401-4.798-5.309
					c-0.068-0.09-0.272,0.104-0.201,0.201c1.423,1.935,3.442,3.312,4.798,5.308c1.111,1.639,2.438,3.729,4.213,4.718
					C29.788,30.781,29.975,30.577,29.893,30.489L29.893,30.489z"/>
			</g>
		</g>
		<g>
			<g>
				<path d="M31.486,26.479c-2.485-3.095-5.817-5.405-7.181-9.288c-0.04-0.113-0.247,0.054-0.215,0.153
					c1.272,3.847,4.632,6.376,7.153,9.378C31.333,26.829,31.576,26.591,31.486,26.479L31.486,26.479z"/>
			</g>
		</g>
		<g>
			<g>
				<path d="M32.332,21.921c-0.599-1.31-1.91-2.018-2.961-2.926c-1.215-1.049-1.561-2.788-2.852-3.8
					c-0.065-0.052-0.2,0.081-0.143,0.144c1.009,1.105,1.703,2.389,2.562,3.604c0.873,1.234,2.355,1.807,3.125,3.17
					C32.141,22.248,32.385,22.039,32.332,21.921L32.332,21.921z"/>
			</g>
		</g>
		<g>
			<g>
				<path d="M33.635,18.277c-0.285-1.229-1.25-1.9-2.262-2.544c-1.322-0.842-2.547-1.648-3.074-3.204
					c-0.036-0.107-0.229,0.051-0.201,0.145c0.826,2.793,4.487,3.054,5.33,5.752C33.463,18.539,33.657,18.371,33.635,18.277
					L33.635,18.277z"/>
			</g>
		</g>
		<g>
			<g>
				<path d="M35.055,13.869c-1.879-0.961-2.245-3.001-3.653-4.388c-0.101-0.1-0.326,0.131-0.24,0.24
					c1.094,1.396,1.839,3.857,3.681,4.445C34.974,14.208,35.212,13.949,35.055,13.869L35.055,13.869z"/>
			</g>
		</g>
		<g>
			<g>
				<path d="M35.518,10.712c0.025,0,0.063-0.058,0.027-0.058C35.52,10.655,35.481,10.712,35.518,10.712L35.518,10.712z"/>
			</g>
		</g>
		<g>
			<g>
				<path d="M35.595,10.726c0.51,0.048,0.448-0.556,0.346-0.878c-0.147-0.466-0.398-0.913-0.6-1.357
					c-0.106-0.236-0.2-0.478-0.283-0.724c-0.079-0.235-0.066-0.516-0.191-0.728c-0.041-0.07-0.142,0.01-0.163,0.061
					c-0.238,0.584,0.215,1.387,0.451,1.911c0.159,0.354,0.333,0.699,0.476,1.06c0.072,0.181,0.311,0.551,0.006,0.571
					C35.602,10.644,35.54,10.72,35.595,10.726L35.595,10.726z"/>
			</g>
		</g>
		<g>
			<g>
				<path d="M37.381,8.159c0.168-1.079,0.506-2.924-0.795-3.468c-0.053-0.021-0.165,0.075-0.131,0.131
					c0.35,0.561,0.685,0.986,0.775,1.667c0.075,0.57,0.01,1.177-0.053,1.745C37.165,8.351,37.369,8.237,37.381,8.159L37.381,8.159z"
					/>
			</g>
		</g>
	</g>
</g>
<g id="DESIGNED_BY_FREEPIK">
</g>
</svg>
