<?xml version="1.0" encoding="utf-8"?>
<!-- Generator: Adobe Illustrator 16.0.0, SVG Export Plug-In . SVG Version: 6.00 Build 0)  -->
<!DOCTYPE svg PUBLIC "-//W3C//DTD SVG 1.1//EN" "http://www.w3.org/Graphics/SVG/1.1/DTD/svg11.dtd">
<svg version="1.1" xmlns="http://www.w3.org/2000/svg" xmlns:xlink="http://www.w3.org/1999/xlink" x="0px" y="0px"
	 width="45.386px" height="182.277px" viewBox="0 0 45.386 182.277" enable-background="new 0 0 45.386 182.277"
	 xml:space="preserve">
<g id="BACKGROUND">
</g>
<g id="OBJECTS">
	<g>
		<g>
			<g>
				<path d="M44.985,181.048c-5.927-12.983-13.442-25.176-19.105-38.284c-5.84-13.516-8.561-28.229-10.706-42.729
					c-1.824-12.329-2.742-24.861-1.855-37.313c0.44-6.177,1.564-12.283,2.376-18.417C16.53,37.987,17.347,31.618,19,25.451
					c0.145-0.542-0.652-0.143-0.75,0.188c-2.184,7.378-3.084,15.001-4.145,22.599c-0.5,3.586-1.154,7.149-1.58,10.745
					c-0.43,3.628-0.658,7.279-0.763,10.93c-0.431,15.035,1.453,30.106,4.266,44.85c1.147,6.016,2.334,12.081,4.044,17.965
					c1.711,5.887,4.045,11.584,6.666,17.119c5.188,10.957,11.492,21.333,16.86,32.196C43.952,182.759,45.264,181.659,44.985,181.048
					L44.985,181.048z"/>
			</g>
		</g>
		<g>
			<g>
				<path d="M16.604,28.166c-3.438,0.678-5.09,4.967-7.313,7.216c-0.262,0.265-0.256,0.734,0.211,0.559
					c3.932-1.481,6.239-5.057,8.305-8.486c-0.217-0.003-0.435-0.006-0.651-0.01c-0.419,2.601-0.262,5.372-0.013,7.981
					c0.245,2.559,0.663,5.167,1.504,7.602c0.081,0.233,0.394,0.031,0.495-0.059c5.01-4.411,2.014-12.281-1.162-16.892
					c-0.269-0.391-1.17,0.429-0.959,0.815c2.385,4.372,6.646,11.511,1.777,15.732c0.164-0.02,0.33-0.039,0.495-0.059
					c-1.657-4.986-1.405-10.229-1.38-15.398c0.002-0.469-0.635-0.001-0.722,0.181c-1.537,3.197-4.324,6.605-7.699,7.889
					c0.07,0.186,0.141,0.373,0.211,0.559c2.477-2.18,3.806-5.226,6.801-6.826C16.773,28.824,17.223,28.043,16.604,28.166
					L16.604,28.166z"/>
			</g>
		</g>
		<g>
			<g>
				<path d="M18.522,26.658c3.304,1.647,7.798,3.252,9.296,6.965c0.174-0.24,0.348-0.479,0.521-0.719
					c-1.341,0.478-2.65,0.657-4.056,0.351c-1.577-0.344-2.142-1.443-3.069-2.589c-0.144-0.177-0.429,0.186-0.396,0.336
					c0.303,1.381,1.675,2.479,2.925,3.008c1.436,0.606,3.119,0.305,4.497-0.307c0.189-0.084,0.545-0.436,0.412-0.679
					c-2.086-3.817-5.835-5.37-9.649-7.038C18.707,25.857,18.176,26.485,18.522,26.658L18.522,26.658z"/>
			</g>
		</g>
		<g>
			<g>
				<path d="M15.694,29.118c-0.947-1.071-2.144-1.896-3.09-2.986c-1.14-1.313-1.991-2.829-2.651-4.432
					c-1.197-2.907-1.681-6.422-0.887-9.479c0.042-0.161-0.188-0.06-0.223,0.028c-1.281,3.208-0.985,6.501,0.168,9.701
					c0.571,1.588,1.397,3.076,2.316,4.487c0.879,1.349,2.067,2.943,3.589,3.595C15.308,30.2,16.011,29.475,15.694,29.118
					L15.694,29.118z"/>
			</g>
		</g>
		<g>
			<g>
				<path d="M10.054,10.107c0.211-0.275,0.427-1.195,0.588-0.586c0.116,0.437,0.364,0.866,0.557,1.272
					c0.368,0.778,0.734,1.558,1.1,2.337c0.836,1.789,1.594,3.62,2.254,5.482c0.688,1.939,1.203,3.941,1.449,5.985
					c0.104,0.858,0.124,1.723,0.096,2.586c-0.023,0.721-0.399,1.715-0.104,2.394c0.082,0.189,0.338-0.007,0.407-0.102
					c0.884-1.215,0.731-3.18,0.658-4.604c-0.103-1.979-0.567-3.941-1.132-5.833c-0.569-1.911-1.322-3.759-2.151-5.57
					c-0.727-1.586-1.45-3.477-2.621-4.795c-0.074-0.083-0.203-0.039-0.287-0.006c-0.522,0.202-0.795,0.895-1.1,1.333
					C9.582,10.267,9.906,10.299,10.054,10.107L10.054,10.107z"/>
			</g>
		</g>
		<g>
			<g>
				<path d="M21.274,27.15c5.94,0.141,10.485-4.196,13.304-8.991c-0.26,0.032-0.519,0.065-0.777,0.097
					c-0.635,2.111-1.038,4.148-2.195,6.073c-1.236,2.056-3.01,3.399-5.228,4.242c-0.366,0.14-0.742,1.096-0.112,0.902
					c2.344-0.721,4.264-2.332,5.695-4.288c1.426-1.947,2.679-4.785,2.669-7.233c-0.003-0.55-0.754,0.057-0.829,0.304
					c-1.458,4.791-7.498,7.938-12.192,8.199C21.315,26.471,20.828,27.14,21.274,27.15L21.274,27.15z"/>
			</g>
		</g>
		<g>
			<g>
				<path d="M17.758,26.319c-0.025-6.445,5.812-10.237,10.05-14.154c-0.182-0.033-0.363-0.067-0.545-0.1
					c-0.519,2.621-0.562,5.309-1.179,7.916c-0.323,1.364-0.851,2.651-1.71,3.765c-0.993,1.286-2.442,1.818-3.897,2.383
					c-0.338,0.131-0.726,0.939-0.105,0.839c6.929-1.118,7.168-9.79,7.615-15.169c0.029-0.354-0.446-0.107-0.556-0.012
					c-4.519,3.929-11.134,8.097-10.542,14.95C16.937,27.294,17.76,26.694,17.758,26.319L17.758,26.319z"/>
			</g>
		</g>
		<g>
			<g>
				<path d="M13.434,12.212c-0.205-4.404,2.787-8.166,5.235-11.539c-0.194-0.003-0.389-0.006-0.583-0.009
					c-1.239,5.861,4.558,11.542,1.405,17.212c-0.131,0.235,0.208,0.208,0.302,0.053c1.526-2.553,1.351-5.101,0.591-7.884
					c-0.837-3.071-2.358-6.314-1.63-9.548c0.1-0.442-0.449-0.186-0.583-0.009c-2.595,3.443-5.908,7.481-5.472,12.076
					C12.743,13.03,13.449,12.537,13.434,12.212L13.434,12.212z"/>
			</g>
		</g>
		<g>
			<g>
				<path d="M28.188,15.703c2.43-2.712,4.63-5.579,5.544-9.167c0.122-0.477-0.558-0.178-0.66,0.083
					c-0.833,2.118-0.902,4.179-0.567,6.411c0.391,2.609,0.515,4.993,0.272,7.619c-0.038,0.408,0.601-0.026,0.656-0.241
					c0.539-2.073,0.09-4.336-0.168-6.422c-0.304-2.449-0.445-5.007,0.434-7.358c-0.22,0.028-0.44,0.055-0.66,0.083
					c-0.815,3.396-2.892,6.11-5.163,8.68C27.58,15.722,27.885,16.041,28.188,15.703L28.188,15.703z"/>
			</g>
		</g>
		<g>
			<g>
				<path d="M23.394,15.412c0.869-1.997,1.119-3.881,1.379-5.996c0.27-2.193,0.452-4.742,0.03-6.922
					c-0.045-0.229-0.41,0.111-0.418,0.249c-0.102,1.988,0.159,3.997,0.057,5.998c-0.114,2.202-0.793,4.638-1.657,6.664
					C22.565,15.915,23.25,15.744,23.394,15.412L23.394,15.412z"/>
			</g>
		</g>
		<g>
			<g>
				<path d="M24.429,2.708c0.061,0,0.147-0.135,0.064-0.135C24.433,2.574,24.346,2.708,24.429,2.708L24.429,2.708z"/>
			</g>
		</g>
		<g>
			<g>
				<path d="M24.184,2.614c-1.438,0.771-2.865,1.404-4.024,2.588c-0.075,0.076-0.033,0.188,0.071,0.114
					c1.263-0.901,2.693-1.558,4.006-2.401C24.386,2.819,24.424,2.484,24.184,2.614L24.184,2.614z"/>
			</g>
		</g>
		<g>
			<g>
				<path d="M19.638,5.838c0.035,0,0.085-0.077,0.037-0.077C19.64,5.761,19.59,5.838,19.638,5.838L19.638,5.838z"/>
			</g>
		</g>
		<g>
			<g>
				<path d="M19.462,6.101c-0.026,0.025-0.053,0.051-0.079,0.076c-0.026,0.012-0.062,0.086-0.01,0.071
					c0.116-0.033,0.174-0.062,0.203-0.189C19.594,5.978,19.465,6.035,19.462,6.101L19.462,6.101z"/>
			</g>
		</g>
		<g>
			<g>
				<path d="M26.727,11.366c0.757-0.967,1.266-2.03,1.662-3.188c0.537-1.568,0.32-3.316,0.949-4.846
					c-0.149,0.038-0.3,0.075-0.45,0.112c-0.319,2.808,1.325,5.321,1.523,8.088c0.045,0.625,1.044-0.026,1.006-0.483
					c-0.227-2.721-1.536-5.216-2.058-7.885c-0.047-0.242-0.481,0.104-0.472,0.281c0.073,1.255-0.453,2.576-0.786,3.766
					c-0.402,1.435-0.881,2.804-1.787,4.004C26.034,11.583,26.513,11.64,26.727,11.366L26.727,11.366z"/>
			</g>
		</g>
		<g>
			<g>
				<path d="M19.242,3.321c0.594-0.675,1.831-1.011,2.674-1.207c-0.077-0.05-0.154-0.1-0.231-0.15
					c0.059,0.56,0.153,1.149,0.325,1.684c0.085,0.264,0.493-0.097,0.514-0.248c0.083-0.603-0.211-1.127-0.228-1.73
					c-0.002-0.09-0.064-0.161-0.158-0.159c-1.224,0.029-2.654,0.448-3.422,1.478C18.367,3.456,18.91,3.7,19.242,3.321L19.242,3.321z
					"/>
			</g>
		</g>
		<g>
			<g>
				<path d="M24.86,6.557c0.567-1.807,1.063-3.589,1.228-5.481c0.012-0.14-0.211,0.004-0.229,0.084
					c-0.408,1.867-0.971,3.7-1.524,5.528C24.223,7.059,24.787,6.789,24.86,6.557L24.86,6.557z"/>
			</g>
		</g>
		<g>
			<g>
				<path d="M25.822,0.277c0.368,2.086,1.787,3.785,1.866,5.961c0.015,0.424,0.7-0.018,0.686-0.33
					c-0.093-2.071-1.171-4.15-2.27-5.871C26.018-0.099,25.805,0.175,25.822,0.277L25.822,0.277z"/>
			</g>
		</g>
		<g>
			<g>
				<path d="M39.254,170.499c-0.774-6.07-3.06-11.923-4.74-17.779c-0.924-3.223-1.789-6.472-2.316-9.786
					c-0.579-3.64-0.562-7.381-0.502-11.057c0.134-8.063,1.046-16.098,1.82-24.118c0.774-8.025,1.126-16.007,1.031-24.068
					c-0.042-3.548-0.183-7.094-0.331-10.639c-0.007-0.156-0.105-0.26-0.264-0.264c-0.113-0.003-0.226-0.005-0.339-0.008
					c-0.361-0.009-0.768,0.406-0.764,0.764c0.071,6.835,2.506,13.42,4.666,19.817c1.14,3.376,2.265,6.757,3.103,10.223
					c0.875,3.618,1.135,7.272,1.447,10.968c0.667,7.891,1.255,15.789,1.512,23.705c0.249,7.692,0.333,15.541-0.662,23.188
					c-0.505,3.883-0.795,8.804-3.841,11.651c-0.948,0.887-0.035,1.784,0.9,0.9c2.032-1.921,3.042-4.537,3.674-7.207
					c0.695-2.94,1.054-6.05,1.287-9.06c0.609-7.855,0.527-15.756,0.181-23.622c-0.347-7.869-1.011-15.721-1.698-23.566
					c-0.618-7.041-2.857-13.56-5.238-20.173c-2.024-5.623-3.941-11.31-4.299-17.32c-0.254,0.255-0.509,0.509-0.764,0.764
					c0.115-0.003,0.231-0.005,0.347-0.008c-0.088-0.088-0.176-0.176-0.264-0.264c0.36,3.936,0.706,7.872,0.914,11.819
					c0.21,4.004,0.03,8.024-0.239,12.021c-0.549,8.13-1.729,16.206-2.525,24.312c-0.738,7.517-1.352,15.394-0.101,22.886
					c1.073,6.436,3.278,12.616,5.122,18.855c0.741,2.508,1.464,5.022,2.02,7.579C38.484,171.445,39.298,170.837,39.254,170.499
					L39.254,170.499z"/>
			</g>
		</g>
		<g>
			<g>
				<path d="M36.835,165.835c-4.545-3.913-9.169-7.681-13.168-12.176c-4.134-4.646-7.162-9.922-9.319-15.74
					c-3.689-9.955-4.997-21.571-13.195-29.151c-0.427-0.396-1.332,0.48-1.12,0.952c1.462,3.261,2.204,6.595,2.505,10.151
					c0.294,3.473,0.238,6.965,0.518,10.439c0.272,3.405,0.913,6.78,2.299,9.918c1.331,3.015,2.988,5.922,4.76,8.696
					c3.808,5.96,8.315,11.461,13.557,16.217c2.488,2.257,5.135,4.278,7.926,6.143c2.168,1.449,4.904,3.705,7.714,3.204
					c0.752-0.135,1.393-0.455,2.029-0.866c0.633-0.408,0.779-1.843-0.223-1.276c-2.897,1.638-6.224-0.959-8.594-2.475
					c-2.854-1.825-5.548-3.836-8.062-6.11c-5.198-4.706-9.7-10.234-13.395-16.187c-1.722-2.773-3.286-5.676-4.583-8.673
					c-1.437-3.32-1.869-6.951-2.1-10.527c-0.417-6.457,0.214-13.686-3.166-19.504c-0.373,0.317-0.747,0.635-1.12,0.952
					c4.35,3.226,6.619,8.509,8.415,13.468c1.855,5.124,3.112,10.449,5.068,15.537c4.392,11.419,12.346,20.936,22.334,27.928
					C36.349,167.059,37.241,166.186,36.835,165.835L36.835,165.835z"/>
			</g>
		</g>
		<g>
			<g>
				<path d="M35.026,83.528c0.555,7.424,1.887,14.733,1.9,22.201c0.014,7.881-0.419,15.759-0.28,23.64
					c0.134,7.624,1.139,15.184,2.001,22.749c0.406,3.563,0.72,7.137,1.187,10.694c0.431,3.292,0.815,6.701-0.217,9.923
					c-0.117,0.367,0.438,0.086,0.516-0.129c1.065-2.952,0.729-6.185,0.344-9.233c-0.442-3.504-0.819-7.011-1.234-10.519
					c-0.913-7.721-1.949-15.445-2.109-23.229c-0.164-7.898,0.355-15.829,0.455-23.729c0.095-7.535-0.991-15.147-2.114-22.584
					C35.431,83.029,35.012,83.331,35.026,83.528L35.026,83.528z"/>
			</g>
		</g>
		<g>
			<g>
				<path d="M35.344,84.658c5.324,13.749,2.766,28.797,2.399,43.125c-0.198,7.734,0.01,15.479,0.801,23.177
					c0.366,3.569,0.896,7.117,1.477,10.656c0.51,3.111,1.194,6.729-0.284,9.676c-0.216,0.429,0.389,0.283,0.527,0.008
					c1.317-2.622,0.997-5.687,0.597-8.493c-0.51-3.577-1.135-7.13-1.548-10.723c-0.902-7.847-1.107-15.751-0.94-23.643
					c0.3-14.235,3.167-29.588-2.371-43.203c-0.111-0.27-0.227-0.538-0.345-0.805C35.585,84.268,35.289,84.516,35.344,84.658
					L35.344,84.658z"/>
			</g>
		</g>
		<g>
			<g>
				<path d="M36.706,88.917c5.465,12.926,5.067,27.282,4.349,41.02c-0.366,7.007-0.852,14.012-0.8,21.031
					c0.024,3.281,0.235,6.541,0.55,9.806c0.34,3.533,0.624,7.263-0.676,10.645c-0.16,0.417,0.381,0.277,0.492,0.006
					c1.209-2.95,1.148-6.181,0.917-9.308c-0.251-3.397-0.603-6.763-0.676-10.173c-0.152-7.145,0.343-14.287,0.725-21.417
					c0.745-13.912,1.209-28.393-4.374-41.467c-0.057-0.128-0.112-0.257-0.169-0.385C36.967,88.498,36.642,88.765,36.706,88.917
					L36.706,88.917z"/>
			</g>
		</g>
		<g>
			<g>
				<path d="M33.829,84.167c4.088,13.439,1.682,27.933,1.405,41.702c-0.158,7.891-0.621,15.84,0.2,23.709
					c0.371,3.56,1.133,7.088,1.866,10.587c0.717,3.417,1.619,6.862,3.321,9.937c0.142,0.256,0.62-0.148,0.506-0.363
					c-1.588-2.99-2.511-6.223-3.234-9.517c-0.824-3.751-1.59-7.549-1.989-11.369c-0.819-7.833-0.256-15.8-0.097-23.654
					c0.275-13.64,2.675-28.014-1.637-41.275C34.112,83.743,33.781,84.008,33.829,84.167L33.829,84.167z"/>
			</g>
		</g>
		<g>
			<g>
				<path d="M34.053,84.812c1.132,2.119,1.338,4.671,1.483,7.027c0.18,2.892,0.083,5.803-0.061,8.693
					c-0.348,6.995-1.168,13.894-2.144,20.826c-1.069,7.602-1.79,15.27-1.047,22.938c0.626,6.462,2.829,12.44,4.777,18.578
					c0.776,2.449,1.534,5.683,3.447,7.535c0.201,0.195,0.676-0.279,0.48-0.48c-1.626-1.677-2.339-4.344-3.056-6.501
					c-0.8-2.408-1.489-4.846-2.359-7.229c-2.717-7.438-3.303-15.434-2.897-23.285c0.41-7.966,2.029-15.797,2.764-23.729
					c0.528-5.696,0.94-11.539,0.625-17.257c-0.136-2.468-0.385-5.202-1.619-7.399C34.335,84.33,33.964,84.645,34.053,84.812
					L34.053,84.812z"/>
			</g>
		</g>
		<g>
			<g>
				<path d="M2.292,111.569c6.759,10.883,6.015,24.443,11.107,35.995c2.483,5.635,6.226,10.729,10.663,14.977
					c4.562,4.367,10.369,8.136,16.365,10.154c0.258,0.087,0.682-0.455,0.395-0.549c-6.159-2.008-11.933-5.895-16.589-10.355
					c-4.515-4.325-8.153-9.602-10.61-15.347c-4.862-11.37-4.059-24.628-10.938-35.209C2.581,111.076,2.195,111.414,2.292,111.569
					L2.292,111.569z"/>
			</g>
		</g>
		<g>
			<g>
				<path d="M2.705,111.215c3.33,5.167,5.519,10.881,7.194,16.771c1.66,5.834,2.655,11.982,4.888,17.633
					c4.693,11.882,15.293,19.811,24.585,27.93c0.224,0.195,0.72-0.309,0.506-0.506c-4.755-4.38-9.973-8.248-14.419-12.958
					c-4.307-4.561-8.147-9.764-10.394-15.66c-2.11-5.54-3.072-11.548-4.729-17.233c-1.683-5.77-3.947-11.3-7.291-16.315
					C2.942,110.721,2.596,111.045,2.705,111.215L2.705,111.215z"/>
			</g>
		</g>
		<g>
			<g>
				<path d="M2.927,111.688c3.473,10.416,4.28,21.479,7.567,31.939c1.557,4.95,3.801,9.691,7.117,13.712
					c3.789,4.593,9.133,7.888,14.456,10.429c1.515,0.724,3.131,1.218,4.814,1.273c0.217,0.008,0.549-0.466,0.236-0.492
					c-3.654-0.309-6.73-2.426-9.82-4.209c-2.624-1.516-5.046-3.234-7.21-5.363c-3.854-3.794-6.463-8.608-8.292-13.654
					c-3.729-10.287-4.373-21.388-7.72-31.786c-0.23-0.718-0.49-1.427-0.753-2.134C3.245,111.193,2.865,111.505,2.927,111.688
					L2.927,111.688z"/>
			</g>
		</g>
		<g>
			<g>
				<path d="M17.205,24.51c0.072-2.736-0.296-5.443-0.591-8.156c-0.291-2.678-0.268-5.29,0.011-7.963
					c0.008-0.075-0.113,0.003-0.123,0.045c-0.573,2.477-0.398,5.071-0.234,7.586c0.189,2.894,0.408,5.787,0.527,8.684
					C16.807,24.967,17.2,24.685,17.205,24.51L17.205,24.51z"/>
			</g>
		</g>
		<g>
			<g>
				<path d="M17.693,23.108c0.281-3.26,0.311-6.763-0.471-9.963c-0.009-0.038-0.074,0.017-0.072,0.043
					c0.204,3.366,0.461,6.665,0.281,10.045C17.424,23.394,17.684,23.22,17.693,23.108L17.693,23.108z"/>
			</g>
		</g>
		<g>
			<g>
				<path d="M16.173,20.341c-0.843-2.713-1.31-5.68-0.798-8.499c0.018-0.094-0.11-0.024-0.125,0.031
					c-0.732,2.829-0.285,5.917,0.702,8.626C15.995,20.617,16.204,20.442,16.173,20.341L16.173,20.341z"/>
			</g>
		</g>
		<g>
			<g>
				<path d="M19.752,19.413c2.027-1.015,2.229-4.386,2.395-6.345c0.009-0.107-0.149,0.013-0.165,0.061
					c-0.609,1.862-0.42,4.897-2.268,6.07C19.607,19.266,19.578,19.5,19.752,19.413L19.752,19.413z"/>
			</g>
		</g>
		<g>
			<g>
				<path d="M22.515,9.196c0.075-1.655,0.08-3.278,0.884-4.774c0.068-0.127-0.105-0.102-0.157-0.027
					c-0.948,1.389-0.83,3.271-0.881,4.876C22.357,9.365,22.512,9.264,22.515,9.196L22.515,9.196z"/>
			</g>
		</g>
		<g>
			<g>
				<path d="M21.024,13.753c0.036-1.875,0.221-3.689,0.775-5.486c0.05-0.162-0.191-0.037-0.225,0.057
					c-0.642,1.771-0.741,3.646-0.725,5.514C20.852,13.946,21.023,13.831,21.024,13.753L21.024,13.753z"/>
			</g>
		</g>
		<g>
			<g>
				<path d="M20.769,8.977c0.013-0.336,0.066-0.65,0.162-0.971c0.077-0.255,0.243-0.471,0.285-0.733
					c0.017-0.102-0.092-0.069-0.139-0.025c-0.473,0.437-0.585,1.254-0.596,1.867C20.479,9.292,20.764,9.103,20.769,8.977
					L20.769,8.977z"/>
			</g>
		</g>
		<g>
			<g>
				<path d="M24.045,15.21c1.748-2.438,2.061-5.795,2.354-8.707c0.011-0.102-0.146-0.003-0.163,0.041
					c-1.146,2.818-0.723,5.908-2.406,8.586C23.702,15.334,23.938,15.359,24.045,15.21L24.045,15.21z"/>
			</g>
		</g>
		<g>
			<g>
				<path d="M26.697,8.387c0.07-0.375,0.225-0.753,0.209-1.136c-0.005-0.11-0.155-0.007-0.176,0.044
					c-0.146,0.371-0.227,0.769-0.303,1.16C26.391,8.65,26.673,8.514,26.697,8.387L26.697,8.387z"/>
			</g>
		</g>
		<g>
			<g>
				<path d="M27.886,14.735c0.838-1.696,1.532-3.775,1.245-5.689c-0.027-0.177-0.251,0.024-0.262,0.125
					c-0.206,1.972-0.404,3.736-1.255,5.561C27.51,14.956,27.815,14.876,27.886,14.735L27.886,14.735z"/>
			</g>
		</g>
		<g>
			<g>
				<path d="M29.375,12.389c0.032-0.164,0.055-0.327,0.088-0.491c0.026-0.134-0.151-0.026-0.176,0.044
					c-0.057,0.169-0.104,0.34-0.162,0.509C29.07,12.615,29.35,12.519,29.375,12.389L29.375,12.389z"/>
			</g>
		</g>
		<g>
			<g>
				<path d="M22.753,26.179c4.994-2.196,7.8-7.324,8.7-12.544c0.037-0.215-0.246-0.048-0.281,0.07
					c-0.711,2.382-1.337,4.688-2.635,6.838c-1.39,2.301-3.348,4.112-5.79,5.243C22.538,25.883,22.424,26.324,22.753,26.179
					L22.753,26.179z"/>
			</g>
		</g>
		<g>
			<g>
				<path d="M22.55,26.389c3.605,0.147,6.021-2.452,7.956-5.193c0.092-0.129-0.064-0.138-0.137-0.051
					c-2.106,2.522-4.085,4.965-7.669,4.932C22.562,26.075,22.354,26.381,22.55,26.389L22.55,26.389z"/>
			</g>
		</g>
		<g>
			<g>
				<path d="M30.509,20.384c0.39-0.527,0.754-1.11,0.957-1.736c0.04-0.125-0.143-0.039-0.173,0.021
					c-0.288,0.575-0.547,1.137-0.927,1.662C30.273,20.461,30.437,20.482,30.509,20.384L30.509,20.384z"/>
			</g>
		</g>
		<g>
			<g>
				<path d="M10.395,9.876c-0.236,3.878,0.359,7.731,1.264,11.494c0.39,1.622,0.841,3.242,1.432,4.803
					c0.412,1.087,0.996,2.283,2.104,2.789c0.11,0.05,0.27-0.108,0.285-0.207c0.055-0.354,0.064-0.278-0.032-0.618
					c-0.041-0.145-0.281,0.064-0.275,0.164c-0.008,0.179-0.018,0.358-0.026,0.537c0.096-0.069,0.19-0.138,0.285-0.207
					c-1.261-0.583-1.787-2.059-2.219-3.285c-0.485-1.381-0.851-2.808-1.201-4.228c-0.919-3.712-1.493-7.572-1.28-11.402
					C10.741,9.512,10.404,9.727,10.395,9.876L10.395,9.876z"/>
			</g>
		</g>
		<g>
			<g>
				<path d="M10.348,9.279c1.889,6.582,3.166,13.319,4.856,19.951c0.046,0.178,0.383-0.082,0.342-0.244
					c-1.667-6.635-2.936-13.363-4.894-19.924C10.604,8.901,10.307,9.136,10.348,9.279L10.348,9.279z"/>
			</g>
		</g>
		<g>
			<g>
				<path d="M10.146,9.587c-1.326,7.129-0.242,14.664,4.828,20.171c0.118,0.129,0.408-0.163,0.301-0.301
					c-1.068-1.382-2.124-2.693-2.944-4.248c-0.81-1.535-1.375-3.179-1.795-4.859c-0.886-3.545-0.672-7.278-0.058-10.847
					C10.521,9.259,10.176,9.432,10.146,9.587L10.146,9.587z"/>
			</g>
		</g>
		<g>
			<g>
				<path d="M26.966,12.398c-0.724,5.465-4.881,10.854-9.459,13.748c-0.219,0.139-0.169,0.477,0.111,0.299
					c4.652-2.955,9.114-8.538,9.671-14.166C27.308,12.092,26.982,12.271,26.966,12.398L26.966,12.398z"/>
			</g>
		</g>
		<g>
			<g>
				<path d="M26.797,13.456c-0.416,2.654-1.195,5.22-2.663,7.491c-1.484,2.298-3.674,4.058-6.011,5.43
					c-0.216,0.126-0.247,0.492,0.054,0.31c2.35-1.427,4.483-3.107,6.079-5.37c1.649-2.339,2.43-5.127,2.822-7.93
					C27.107,13.176,26.817,13.322,26.797,13.456L26.797,13.456z"/>
			</g>
		</g>
		<g>
			<g>
				<path d="M26.446,13.002c-3.034,4.536-6.886,8.552-9.419,13.416c-0.135,0.259,0.232,0.164,0.32,0.004
					c2.63-4.787,6.389-8.757,9.331-13.334C26.819,12.87,26.558,12.835,26.446,13.002L26.446,13.002z"/>
			</g>
		</g>
		<g>
			<g>
				<path d="M21.895,27.318c5.116,2.104,10.295-3.243,12.307-7.458c0.11-0.232-0.202-0.14-0.277-0.004
					c-2.205,4.005-6.706,9.044-11.818,7.167C21.972,26.974,21.739,27.254,21.895,27.318L21.895,27.318z"/>
			</g>
		</g>
		<g>
			<g>
				<path d="M18.101,28.868c0.031,4.318,0.054,8.637,0.088,12.955c0.001,0.231,0.372-0.013,0.373-0.18
					c0.029-4.307-0.067-8.614-0.162-12.92C18.396,28.537,18.1,28.733,18.101,28.868L18.101,28.868z"/>
			</g>
		</g>
		<g>
			<g>
				<path d="M18.248,30.387c0.816,4.024,0.782,8.046,0.562,12.125c-0.013,0.235,0.314-0.009,0.357-0.089
					c1.683-3.176,2.168-7.124,0.595-10.475c-0.068-0.145-0.314,0.073-0.273,0.195c1.067,3.193,1.452,7.311-0.626,10.227
					c0.109-0.014,0.219-0.027,0.328-0.041c0.377-4.048,0.295-8.166-0.688-12.125C18.469,30.068,18.224,30.269,18.248,30.387
					L18.248,30.387z"/>
			</g>
		</g>
		<g>
			<g>
				<path d="M17.888,26.64c3.547,1.541,6.267,4.326,8.725,7.231c0.102,0.121,0.375-0.148,0.275-0.276
					c-2.364-3.042-5.16-5.792-8.775-7.269C17.972,26.269,17.724,26.568,17.888,26.64L17.888,26.64z"/>
			</g>
		</g>
		<g>
			<g>
				<path d="M18.182,26.989c2.507,2.568,5.37,5.597,8.762,6.972c0.148,0.06,0.404-0.232,0.238-0.332
					c-3.252-1.95-6.02-4.266-8.738-6.903C18.334,26.62,18.074,26.88,18.182,26.989L18.182,26.989z"/>
			</g>
		</g>
		<g>
			<g>
				<path d="M16.358,6.47c-0.049,0.081-0.098,0.162-0.146,0.242c-0.29,0.482,0.345,0.471,0.498,0.087
					c0.034-0.083,0.067-0.167,0.1-0.25C16.958,6.173,16.501,6.234,16.358,6.47L16.358,6.47z"/>
			</g>
		</g>
		<g>
			<g>
				<path d="M17.106,5.089c0.152,0,0.37-0.338,0.162-0.338C17.116,4.751,16.898,5.089,17.106,5.089L17.106,5.089z"/>
			</g>
		</g>
		<g>
			<g>
				<path d="M16.982,8.442c0.005,0.009,0.01,0.018,0.014,0.027c0.02,0.038,0.054,0.068,0.1,0.064
					c0.024-0.002,0.049-0.004,0.073-0.006c0.12-0.01,0.288-0.149,0.244-0.286c-0.005-0.016-0.009-0.032-0.013-0.048
					C17.387,7.925,16.872,8.223,16.982,8.442L16.982,8.442z"/>
			</g>
		</g>
		<g>
			<g>
				<path d="M15.441,9.049c0.152-0.165,0.303-0.334,0.427-0.522c0.049-0.075,0.068-0.25-0.079-0.201
					c-0.267,0.087-0.417,0.258-0.605,0.467C14.939,9.063,15.188,9.322,15.441,9.049L15.441,9.049z"/>
			</g>
		</g>
		<g>
			<g>
				<path d="M17.64,10.586c0.011,0,0.021,0,0.031,0c0.211,0.002,0.499-0.461,0.221-0.458c-0.011,0-0.021,0-0.031,0
					C17.656,10.131,17.355,10.584,17.64,10.586L17.64,10.586z"/>
			</g>
		</g>
		<g>
			<g>
				<path d="M21.714,5.88c0-0.01-0.001-0.02-0.002-0.03c-0.021-0.28-0.411,0.033-0.424,0.204c-0.001,0.011-0.002,0.021-0.002,0.032
					C21.269,6.327,21.731,6.097,21.714,5.88L21.714,5.88z"/>
			</g>
		</g>
		<g>
			<g>
				<path d="M22.173,10.44c0.002,0.009,0.004,0.019,0.006,0.027c0.039,0.207,0.377-0.082,0.395-0.19
					c0.001-0.011,0.003-0.022,0.005-0.033C22.627,9.942,22.121,10.166,22.173,10.44L22.173,10.44z"/>
			</g>
		</g>
		<g>
			<g>
				<path d="M25.787,5.196c0.05,0.053,0.102,0.045,0.168,0.031c0.094-0.021,0.368-0.308,0.174-0.361
					c-0.073-0.02-0.126-0.009-0.193,0.026C25.854,4.935,25.689,5.094,25.787,5.196L25.787,5.196z"/>
			</g>
		</g>
		<g>
			<g>
				<path d="M26.537,5.667c0.166,0,0.402-0.367,0.176-0.367C26.547,5.299,26.311,5.667,26.537,5.667L26.537,5.667z"/>
			</g>
		</g>
		<g>
			<g>
				<path d="M28.518,17.97c0.063,0.013,0.111,0.017,0.174-0.004c0.134-0.046,0.461-0.342,0.225-0.464
					c-0.057-0.029-0.109-0.018-0.169-0.008C28.618,17.516,28.266,17.919,28.518,17.97L28.518,17.97z"/>
			</g>
		</g>
		<g>
			<g>
				<path d="M28.377,16.694c0.073-0.038,0.143-0.083,0.223-0.108c0.062-0.02,0.217-0.204,0.076-0.209
					c-0.074-0.002-0.146,0.004-0.22,0C28.204,16.362,28.127,16.822,28.377,16.694L28.377,16.694z"/>
			</g>
		</g>
		<g>
			<g>
				<path d="M29.963,15.751c0.187,0,0.452-0.412,0.199-0.412C29.976,15.339,29.71,15.751,29.963,15.751L29.963,15.751z"/>
			</g>
		</g>
		<g>
			<g>
				<path d="M31.243,16.98c0.027,0.011,0.056,0.022,0.083,0.033c0.121,0.048,0.314-0.145,0.267-0.267
					c-0.011-0.028-0.022-0.056-0.033-0.083C31.465,16.424,31.004,16.886,31.243,16.98L31.243,16.98z"/>
			</g>
		</g>
		<g>
			<g>
				<path d="M32.04,19.598c0.16,0,0.388-0.354,0.17-0.354C32.05,19.243,31.822,19.598,32.04,19.598L32.04,19.598z"/>
			</g>
		</g>
		<g>
			<g>
				<path d="M19.912,4.354c0.166,0,0.402-0.367,0.176-0.367C19.922,3.987,19.686,4.354,19.912,4.354L19.912,4.354z"/>
			</g>
		</g>
		<g>
			<g>
				<path d="M20.66,3.291c0.052,0,0.127-0.116,0.055-0.116C20.663,3.175,20.588,3.291,20.66,3.291L20.66,3.291z"/>
			</g>
		</g>
		<g>
			<g>
				<path d="M20.589,3.438c0.186,0,0.448-0.409,0.197-0.409C20.601,3.028,20.338,3.438,20.589,3.438L20.589,3.438z"/>
			</g>
		</g>
	</g>
</g>
<g id="DESIGNED_BY_FREEPIK">
</g>
</svg>
