<?xml version="1.0" encoding="utf-8"?>
<!-- Generator: Adobe Illustrator 16.0.0, SVG Export Plug-In . SVG Version: 6.00 Build 0)  -->
<!DOCTYPE svg PUBLIC "-//W3C//DTD SVG 1.1//EN" "http://www.w3.org/Graphics/SVG/1.1/DTD/svg11.dtd">
<svg version="1.1" xmlns="http://www.w3.org/2000/svg" xmlns:xlink="http://www.w3.org/1999/xlink" x="0px" y="0px"
	 width="50.695px" height="118.58px" viewBox="0 0 50.695 118.58" enable-background="new 0 0 50.695 118.58" xml:space="preserve">
<g id="BACKGROUND">
</g>
<g id="OBJECTS">
	<g>
		<g>
			<g>
				<path d="M12.821,117.407C11.067,94.95,8.417,71.172,17.03,49.685c2.457-6.129,5.893-11.59,10.303-16.489
					c0.421-0.468,0.016-0.891-0.442-0.442c-4.303,4.21-7.515,9.626-9.935,15.095c-3.529,7.976-5.462,16.606-6.524,25.235
					c-1.835,14.905-1.73,30.267,0.804,45.086C11.408,119.174,12.875,118.107,12.821,117.407L12.821,117.407z"/>
			</g>
		</g>
		<g>
			<g>
				<path d="M26.772,33.66c2.254,9.121-2.568,17.938-2.611,27.031c-0.002,0.506,0.655,0.21,0.838,0.019
					c6.743-7.075,9.541-19.224,2.79-27.251c-0.375-0.446-1.353,0.504-1.131,0.961c2.239,4.612,5.55,8.547,8.417,12.762
					c2.79,4.1,4.151,8.993,7.252,12.914c0.302,0.381,0.924-0.273,1.048-0.511c2.857-5.498,1.124-12.132-1.74-17.236
					c-2.87-5.115-8.049-10.08-14.251-10.163c-0.573-0.007-1.341,1.251-0.595,1.237c6.04-0.111,10.824,4.467,13.708,9.366
					c2.831,4.81,4.527,11.574,1.819,16.781c0.349-0.17,0.699-0.341,1.048-0.511c-3.01-3.805-4.363-8.539-7.013-12.557
					c-2.843-4.311-6.311-8.223-8.495-12.94c-0.377,0.32-0.754,0.641-1.131,0.961c6.084,7.522,4.149,18.934-2.294,25.616
					c0.279,0.006,0.559,0.012,0.838,0.019c0.116-9.177,5.078-17.98,2.473-27.192C27.596,32.452,26.661,33.209,26.772,33.66
					L26.772,33.66z"/>
			</g>
		</g>
		<g>
			<g>
				<path d="M27.161,32.636c-4.636,0.218-9.314,1.929-13.557,3.712c-4.623,1.943-8.993,4.507-13.128,7.332
					c-0.238,0.163-0.859,1.204-0.14,1.136c9.99-0.945,20.769-2.241,27.151-10.953c0.217-0.296,0.355-0.756-0.027-0.971
					c-7.95-4.47-17.139-4.1-25.953-4.029c-0.504,0.004-1.59,1.061-0.845,1.417c7.445,3.556,16.296,3.623,24.369,3.273
					c0.671-0.029,1.63-1.536,0.72-1.498C17.771,32.384,8.978,32.555,1.66,28.89c-0.282,0.472-0.563,0.945-0.845,1.417
					c4.31,0.028,8.628-0.098,12.923,0.327c4.495,0.445,8.588,1.823,12.636,3.777c-0.009-0.324-0.018-0.647-0.027-0.971
					C20.726,41.516,9.996,42.735,0.97,43.499c-0.046,0.378-0.093,0.757-0.14,1.136c3.936-2.645,8.043-5.002,12.392-6.903
					c4.407-1.927,8.923-2.973,13.573-4.096C27.124,33.556,27.793,32.606,27.161,32.636L27.161,32.636z"/>
			</g>
		</g>
		<g>
			<g>
				<path d="M24.34,32.276c-3.114-2.041-4.958-5.116-5.243-8.829c-0.298-3.881,1.322-7.282,4.234-9.762
					c0.188-0.16,0.162-0.537-0.145-0.383c-7.24,3.639-7.882,17.132,0.301,19.977C23.89,33.419,24.779,32.564,24.34,32.276
					L24.34,32.276z"/>
			</g>
		</g>
		<g>
			<g>
				<path d="M27.565,10.228c1.35-1.812,3.635-2.672,5.649-3.511c1.987-0.828,4.04-1.526,5.905-2.618
					c0.15-0.087,0.255-0.447-0.004-0.313c-3.789,1.955-9.487,2.376-11.942,6.297C26.94,10.456,27.366,10.495,27.565,10.228
					L27.565,10.228z"/>
			</g>
		</g>
		<g>
			<g>
				<path d="M41.344,3.252c0.734-0.474,1.538-0.82,2.3-1.246c-0.211-0.083-0.422-0.165-0.633-0.248
					c-0.262,2.965,0.926,5.722,1.763,8.502c0.955,3.17,1.021,6.275,0.688,9.548c-0.305,2.985-1.217,5.871-3.058,8.268
					c-2.151,2.8-5.219,4.256-8.443,5.424c-0.339,0.123-1.244,1.325-0.451,1.228c3.199-0.391,6.067-2.496,8.294-4.717
					c2.243-2.236,3.66-4.919,4.373-7.998c0.702-3.034,0.955-6.602,0.413-9.672c-0.661-3.75-2.402-7.322-2.326-11.185
					c0.009-0.454-0.568-0.337-0.794-0.152c-0.78,0.636-1.615,1.199-2.355,1.883C40.852,3.128,41.008,3.469,41.344,3.252
					L41.344,3.252z"/>
			</g>
		</g>
		<g>
			<g>
				<path d="M18.587,22.631c-0.278-2.103-0.458-4.125-0.084-6.23c0.394-2.217,1.325-4.318,2.495-6.23
					c1.139-1.862,2.554-3.533,4.112-5.054c1.534-1.498,3.341-3.22,5.202-4.288c-0.144-0.028-0.288-0.055-0.432-0.083
					c0.759,2.148,1.286,4.31,0.782,6.581c-0.14,0.631,0.785,0.191,0.872-0.218c0.51-2.401-0.04-4.688-0.8-6.975
					c-0.062-0.183-0.3-0.147-0.432-0.083c-2.058,1.014-3.862,2.62-5.539,4.169c-1.786,1.651-3.364,3.558-4.65,5.621
					c-2.321,3.724-4.033,8.942-2.248,13.218C18.019,23.427,18.623,22.904,18.587,22.631L18.587,22.631z"/>
			</g>
		</g>
		<g>
			<g>
				<path d="M18.769,26.229c0.669-2.119,0.969-4.192,2.06-6.177c0.928-1.688,2.316-3.115,3.785-4.34
					c3.116-2.599,6.752-4.5,9.985-6.944c-0.11-0.174-0.221-0.349-0.331-0.524c-1.044,1.019-0.258,3.279,0.02,4.464
					c0.505,2.155,1.145,4.026,0.958,6.268c-0.257,3.083-1.651,6.094-3.68,8.403c-2.235,2.543-4.956,3.49-8.118,4.337
					c-0.373,0.1-1.194,1.207-0.434,1.18c2.772-0.095,5.607-1.776,7.644-3.559c2.184-1.912,3.774-4.316,4.757-7.041
					c0.812-2.25,1.128-4.863,0.541-7.198c-0.276-1.099-0.588-2.188-0.854-3.291c-0.124-0.515-0.86-2.673-0.4-3.129
					c0.347-0.344,0.138-0.884-0.331-0.524c-3.484,2.679-7.507,4.651-10.833,7.531c-1.458,1.262-2.681,2.685-3.653,4.354
					c-1.042,1.787-2.01,4.338-1.775,6.431C18.161,26.908,18.705,26.432,18.769,26.229L18.769,26.229z"/>
			</g>
		</g>
		<g>
			<g>
				<path d="M35.795,20.275c2.425-2.295,4.455-5.277,6.242-8.08c-0.234,0.087-0.468,0.174-0.702,0.261
					c1.895,1.618,2.349,4.671,2.594,6.999c0.147,1.399,0.157,2.814,0.061,4.217c-0.072,1.043-0.507,2.176-0.407,3.216
					c0.026,0.27,0.349,0.054,0.434-0.053c0.678-0.867,0.781-2.019,0.9-3.077c0.178-1.582,0.136-3.19-0.011-4.771
					c-0.221-2.383-0.696-5.78-2.81-7.291c-0.289-0.207-0.638,0.135-0.77,0.375c-1.61,2.947-4.497,5.047-6.016,8.021
					C35.103,20.499,35.586,20.473,35.795,20.275L35.795,20.275z"/>
			</g>
		</g>
		<g>
			<g>
				<path d="M46.755,15.009c1.424-1.719,2.832-3.426,3.655-5.525c-0.319,0.08-0.639,0.16-0.958,0.24
					c0.733,4.891-0.143,9.927-2.365,14.332c-1.164,2.306-2.777,4.357-4.69,6.086c-2.052,1.854-4.965,3.774-7.794,3.823
					c-0.408,0.007-1.076,0.911-0.46,0.957c2.673,0.201,5.508-1.734,7.552-3.275c2.23-1.681,4.073-3.849,5.516-6.229
					c2.931-4.835,3.992-10.606,3.262-16.185c-0.078-0.593-0.831-0.055-0.958,0.24c-0.842,1.943-2.159,3.584-3.348,5.319
					C45.787,15.347,46.446,15.382,46.755,15.009L46.755,15.009z"/>
			</g>
		</g>
		<g>
			<g>
				<path d="M3.877,43.41c0.295-0.432,1.241-0.655,1.707-0.841c0.717-0.287,1.436-0.57,2.159-0.842c2-0.751,4.026-1.414,5.959-2.333
					c3.994-1.898,8.241-3.216,12.313-4.93c0.111-0.047,0.231-0.35,0.035-0.283c-4.46,1.527-8.886,3.353-13.178,5.295
					c-2.081,0.942-4.282,1.597-6.403,2.44c-0.829,0.33-2.298,0.617-2.826,1.406C3.499,43.54,3.764,43.576,3.877,43.41L3.877,43.41z"
					/>
			</g>
		</g>
		<g>
			<g>
				<path d="M28.848,37.852c0.054,3.642-0.225,7.262-0.941,10.836c-0.695,3.472-2.096,6.689-3.033,10.086
					c-0.072,0.262,0.309,0.062,0.359-0.09c1.158-3.488,2.433-6.917,3.144-10.534c0.675-3.438,0.896-6.954,0.791-10.452
					C29.161,37.5,28.846,37.709,28.848,37.852L28.848,37.852z"/>
			</g>
		</g>
		<g>
			<g>
				<path d="M27.792,33.511c2.928,3.701,6.225,7.108,8.889,11.015c1.462,2.144,2.536,4.435,3.459,6.851
					c0.854,2.235,1.402,4.688,2.526,6.803c0.101,0.19,0.358-0.087,0.364-0.217c0.23-4.657-1.617-9.485-3.677-13.576
					c-1.205-2.393-2.782-4.507-4.634-6.438c-0.965-1.006-2.003-2.003-3.146-2.805c-1.021-0.715-2.066-1.282-2.872-2.26
					c-0.108-0.131-0.387,0.153-0.293,0.293c0.631,0.939,1.589,1.493,2.523,2.092c1.042,0.669,1.943,1.527,2.833,2.382
					c2.041,1.962,3.741,4.197,5.068,6.697c2.172,4.091,4.056,9.099,3.827,13.793c0.122-0.073,0.243-0.145,0.364-0.217
					c-1.122-2.11-1.702-4.553-2.555-6.782c-0.885-2.311-1.905-4.504-3.238-6.592c-2.618-4.099-6.095-7.566-9.154-11.323
					C27.975,33.102,27.688,33.379,27.792,33.511L27.792,33.511z"/>
			</g>
		</g>
		<g>
			<g>
				<path d="M21.574,31.187c-0.248-2.267-0.231-4.53,0.303-6.757c0.565-2.359,1.834-4.32,3.343-6.178
					c0.065-0.081-0.03-0.111-0.09-0.057c-3.668,3.349-4.667,8.432-3.939,13.177C21.228,31.613,21.593,31.358,21.574,31.187
					L21.574,31.187z"/>
			</g>
		</g>
		<g>
			<g>
				<path d="M22.893,31.432c0.221-3.124,1.259-6.033,2.887-8.696c1.51-2.469,3.532-4.489,5.474-6.607
					c0.063-0.068,0.026-0.181-0.065-0.104c-4.599,3.848-8.336,9.438-8.604,15.555C22.575,31.771,22.883,31.566,22.893,31.432
					L22.893,31.432z"/>
			</g>
		</g>
		<g>
			<g>
				<path d="M23.474,31.5c2.95-1.208,4.057-5.392,5.286-8.015c0.065-0.139-0.113-0.11-0.167-0.029
					c-1.67,2.474-2.172,6.441-5.122,7.829C23.358,31.338,23.292,31.575,23.474,31.5L23.474,31.5z"/>
			</g>
		</g>
		<g>
			<g>
				<path d="M25.055,31.622c1.835-1.068,3.311-2.564,4.592-4.244c1.271-1.667,2.57-3.804,2.809-5.925
					c0.016-0.147-0.206,0.019-0.229,0.084c-1.381,3.971-3.585,7.564-7.209,9.874C24.912,31.478,24.892,31.717,25.055,31.622
					L25.055,31.622z"/>
			</g>
		</g>
		<g>
			<g>
				<path d="M28.408,32.774c2.441-0.723,4.444-2.329,6.235-4.087c1.795-1.761,3.726-3.924,4.8-6.217
					c0.072-0.155-0.12-0.109-0.181-0.032c-3.056,3.887-5.843,8.357-10.786,10.058C28.36,32.536,28.207,32.833,28.408,32.774
					L28.408,32.774z"/>
			</g>
		</g>
		<g>
			<g>
				<path d="M30.668,33.787c2.786-0.877,5.279-2.377,7.33-4.459c1.853-1.881,3.577-4.613,3.852-7.292
					c0.01-0.098-0.138,0.012-0.152,0.056c-0.903,2.682-1.905,4.967-3.879,7.058c-1.927,2.041-4.426,3.503-7.082,4.367
					C30.617,33.554,30.477,33.848,30.668,33.787L30.668,33.787z"/>
			</g>
		</g>
		<g>
			<g>
				<path d="M18.62,17.33c1.623-2.98,2.646-6.112,5.1-8.564c0.163-0.162,0.01-0.303-0.157-0.157c-2.633,2.29-3.65,5.703-5.18,8.719
					C18.284,17.521,18.556,17.448,18.62,17.33L18.62,17.33z"/>
			</g>
		</g>
		<g>
			<g>
				<path d="M22.071,14.417c0.711-2.821,2.859-4.896,5.052-6.649c0.091-0.072,0.142-0.316-0.038-0.217
					c-2.438,1.352-4.684,4.189-5.262,6.927C21.785,14.661,22.043,14.528,22.071,14.417L22.071,14.417z"/>
			</g>
		</g>
		<g>
			<g>
				<path d="M38.286,8.665c0.185,0,0.448-0.409,0.196-0.409C38.297,8.255,38.034,8.665,38.286,8.665L38.286,8.665z"/>
			</g>
		</g>
		<g>
			<g>
				<path d="M39.881,5.982c0.004-0.029,0.008-0.049,0.003-0.076c-0.009-0.049-0.026-0.066-0.075-0.075
					c-0.027-0.005-0.047-0.001-0.076,0.003c-0.121,0.018-0.348,0.25-0.225,0.374S39.864,6.103,39.881,5.982L39.881,5.982z"/>
			</g>
		</g>
		<g>
			<g>
				<path d="M40.74,9.514c0.136,0,0.329-0.3,0.145-0.3C40.749,9.214,40.556,9.514,40.74,9.514L40.74,9.514z"/>
			</g>
		</g>
		<g>
			<g>
				<path d="M41.978,7.38c0.147,0,0.356-0.325,0.156-0.325C41.987,7.055,41.777,7.38,41.978,7.38L41.978,7.38z"/>
			</g>
		</g>
		<g>
			<g>
				<path d="M37.412,6.738c0.128,0,0.311-0.283,0.137-0.283C37.42,6.455,37.238,6.738,37.412,6.738L37.412,6.738z"/>
			</g>
		</g>
		<g>
			<g>
				<path d="M37.71,11.279c0.097,0,0.236-0.216,0.104-0.216C37.717,11.063,37.578,11.279,37.71,11.279L37.71,11.279z"/>
			</g>
		</g>
		<g>
			<g>
				<path d="M39.597,8.13c0.162,0,0.392-0.357,0.172-0.357C39.607,7.773,39.377,8.13,39.597,8.13L39.597,8.13z"/>
			</g>
		</g>
		<g>
			<g>
				<path d="M39.581,10.312c-0.006-0.011-0.015-0.021-0.026-0.03c-0.067-0.062-0.17,0.043-0.198,0.097
					c-0.011,0.018-0.02,0.037-0.027,0.056C39.213,10.707,39.728,10.517,39.581,10.312L39.581,10.312z"/>
			</g>
		</g>
		<g>
			<g>
				<path d="M36.329,7.395c-0.004-0.007-0.008-0.013-0.012-0.02c-0.067-0.109-0.226,0.012-0.258,0.095
					c-0.004,0.01-0.007,0.019-0.011,0.028C35.93,7.798,36.439,7.575,36.329,7.395L36.329,7.395z"/>
			</g>
		</g>
		<g>
			<g>
				<path d="M36.514,10.001c0.117,0,0.283-0.258,0.124-0.258C36.521,9.744,36.355,10.001,36.514,10.001L36.514,10.001z"/>
			</g>
		</g>
		<g>
			<g>
				<path d="M36.686,8.415c0.112,0,0.272-0.248,0.119-0.248C36.693,8.167,36.533,8.415,36.686,8.415L36.686,8.415z"/>
			</g>
		</g>
		<g>
			<g>
				<path d="M38.306,12.914c0.146,0,0.353-0.322,0.155-0.322C38.315,12.592,38.108,12.914,38.306,12.914L38.306,12.914z"/>
			</g>
		</g>
		<g>
			<g>
				<path d="M41.524,10.376c0.148,0,0.36-0.329,0.158-0.329C41.534,10.047,41.322,10.376,41.524,10.376L41.524,10.376z"/>
			</g>
		</g>
		<g>
			<g>
				<path d="M40.788,8.064c0.152,0,0.37-0.338,0.162-0.338C40.798,7.727,40.58,8.064,40.788,8.064L40.788,8.064z"/>
			</g>
		</g>
		<g>
			<g>
				<path d="M40.68,6.613c-0.001,0-0.002-0.001-0.004-0.001c-0.122-0.033-0.228,0.06-0.299,0.147
					c0.192-0.233,0.035-0.042-0.004,0.005c-0.121,0.146-0.035,0.342,0.16,0.249C40.615,6.973,40.891,6.669,40.68,6.613L40.68,6.613z
					"/>
			</g>
		</g>
		<g>
			<g>
				<path d="M41.117,5.77c0.172,0,0.417-0.38,0.183-0.38C41.127,5.39,40.883,5.77,41.117,5.77L41.117,5.77z"/>
			</g>
		</g>
		<g>
			<g>
				<path d="M38.625,6.856c0.015,0.001,0.029,0.002,0.044,0.004c0.282,0.026,0.419-0.514,0.155-0.422
					c-0.017,0.006-0.035,0.012-0.052,0.018C38.655,6.497,38.354,6.831,38.625,6.856L38.625,6.856z"/>
			</g>
		</g>
		<g>
			<g>
				<path d="M37.96,10.126c0.016,0.003,0.03,0.01,0.042,0.02c0.266,0.163,0.595-0.587,0.153-0.415c-0.002,0-0.003,0-0.005,0
					C38.046,9.758,37.748,10.051,37.96,10.126L37.96,10.126z"/>
			</g>
		</g>
		<g>
			<g>
				<path d="M38.694,11.46c0.159,0,0.385-0.352,0.169-0.352C38.705,11.108,38.479,11.46,38.694,11.46L38.694,11.46z"/>
			</g>
		</g>
		<g>
			<g>
				<path d="M38.83,12.486c0.117,0,0.282-0.258,0.124-0.258C38.837,12.229,38.672,12.486,38.83,12.486L38.83,12.486z"/>
			</g>
		</g>
		<g>
			<g>
				<path d="M36.674,10.987c-0.003-0.023-0.006-0.047-0.009-0.07c-0.04-0.324-0.451,0.02-0.496,0.182
					c-0.008,0.027-0.015,0.055-0.022,0.082C36.049,11.538,36.715,11.316,36.674,10.987L36.674,10.987z"/>
			</g>
		</g>
		<g>
			<g>
				<path d="M36.395,12.67c0.129,0,0.314-0.287,0.138-0.287C36.403,12.383,36.219,12.67,36.395,12.67L36.395,12.67z"/>
			</g>
		</g>
		<g>
			<g>
				<path d="M37.518,13.474c0.141,0,0.342-0.312,0.15-0.312C37.527,13.162,37.326,13.474,37.518,13.474L37.518,13.474z"/>
			</g>
		</g>
		<g>
			<g>
				<path d="M49.252,11.603c-0.234,1.388-0.555,2.799-0.658,4.204c-0.012,0.154,0.227-0.009,0.248-0.091
					c0.339-1.371,0.589-2.813,0.706-4.221C49.562,11.319,49.271,11.494,49.252,11.603L49.252,11.603z"/>
			</g>
		</g>
	</g>
</g>
<g id="DESIGNED_BY_FREEPIK">
</g>
</svg>
