<?xml version="1.0" encoding="utf-8"?>
<!-- Generator: Adobe Illustrator 16.0.0, SVG Export Plug-In . SVG Version: 6.00 Build 0)  -->
<!DOCTYPE svg PUBLIC "-//W3C//DTD SVG 1.1//EN" "http://www.w3.org/Graphics/SVG/1.1/DTD/svg11.dtd">
<svg version="1.1" xmlns="http://www.w3.org/2000/svg" xmlns:xlink="http://www.w3.org/1999/xlink" x="0px" y="0px"
	 width="114.227px" height="99.702px" viewBox="0 0 114.227 99.702" enable-background="new 0 0 114.227 99.702"
	 xml:space="preserve">
<g id="BACKGROUND">
</g>
<g id="OBJECTS">
	<g>
		<g>
			<g>
				<path d="M101.646,0.886C92.623,25.61,76.307,47.307,56.813,64.787c-8.609,7.72-17.965,14.574-27.839,20.585
					c-4.727,2.878-9.61,5.509-14.535,8.028c-2.28,1.167-4.592,2.283-6.96,3.26c-1.989,0.82-4.329,1.776-6.527,1.676
					c-0.561-0.025-1.438,1.144-0.617,1.285c2.175,0.374,4.521-0.629,6.513-1.379c2.689-1.014,5.285-2.262,7.889-3.473
					c5.672-2.637,11.141-5.602,16.475-8.869c11.175-6.843,21.572-15.01,31.021-24.081C79.975,44.781,94.298,23.91,102.546,0.661
					C102.766,0.041,101.786,0.501,101.646,0.886L101.646,0.886z"/>
			</g>
		</g>
		<g>
			<g>
				<path d="M20.98,91.284c4.479-6.477,2.347-15.168,0.055-22.032c-1.284-3.849-2.843-7.59-4.332-11.362
					c-0.698-1.769-1.417-3.534-2.015-5.339c-0.837-2.529-1.065-4.979-0.748-7.617c0.03-0.258-0.406-0.001-0.438,0.16
					c-0.828,4.217,0.47,8.013,1.866,11.941c1.294,3.641,2.682,7.237,3.883,10.911c2.353,7.188,4.45,16.1,0.669,23.152
					C19.461,91.957,20.635,91.783,20.98,91.284L20.98,91.284z"/>
			</g>
		</g>
		<g>
			<g>
				<path d="M21.623,91.487c1.868-1.946,4.473-2.447,7.127-2.682c4.261-0.375,8.736-0.367,12.992,0.013
					c4.579,0.408,9.143,1.002,13.691,1.656c3.277,0.472,6.544,1.096,9.845,1.386c6.928,0.608,15.224-0.655,20.706-5.222
					c0.376-0.313,0.348-0.974-0.221-0.596c-3.125,2.082-6.355,3.519-10.045,4.267c-3.093,0.627-6.383,0.857-9.536,0.721
					c-3.142-0.137-6.284-0.726-9.391-1.176c-4.484-0.649-8.951-1.395-13.455-1.906c-4.289-0.487-8.567-1.166-12.896-0.878
					c-2.139,0.143-4.299,0.442-6.283,1.285c-1.189,0.504-3.064,1.646-2.975,3.122C21.199,91.736,21.518,91.597,21.623,91.487
					L21.623,91.487z"/>
			</g>
		</g>
		<g>
			<g>
				<path d="M54.266,68.953c3.255-3.035,7.453-4.605,11.748-5.495c4.882-1.011,9.89-1.385,14.857-1.685
					c4.518-0.273,8.992-0.708,13.479-1.27c4.317-0.54,9.437-1.113,12.175-4.944c0.282-0.394-0.204-0.437-0.426-0.158
					c-3.133,3.935-9.277,3.987-13.854,4.552c-4.545,0.56-9.165,0.431-13.735,0.59c-4.796,0.168-9.586,0.479-14.235,1.748
					c-3.996,1.09-7.978,2.946-10.464,6.374C53.505,69.087,53.96,69.237,54.266,68.953L54.266,68.953z"/>
			</g>
		</g>
		<g>
			<g>
				<path d="M54.626,68.052c3.556-2.334,3.951-7.456,3.178-11.226c-0.486-2.371-1.583-4.535-2.812-6.598
					c-0.553-0.93-1.146-1.839-1.81-2.693c-0.753-0.969-1.479-2.202-2.467-2.938c-0.17-0.127-0.488,0.165-0.413,0.352
					c0.386,0.961,1.113,1.743,1.617,2.643c0.516,0.922,1.022,1.852,1.519,2.785c1.029,1.935,1.876,3.999,2.493,6.103
					c0.556,1.896,0.829,3.789,0.676,5.765c-0.166,2.156-1.33,3.761-2.303,5.602C54.164,68.113,54.441,68.173,54.626,68.052
					L54.626,68.052z"/>
			</g>
		</g>
		<g>
			<g>
				<path d="M47.366,38.682c-0.19-1.361-0.302-2.72-0.306-4.094c-0.006-1.345,0.442-2.722,0.336-4.039
					c-0.019-0.232-0.314-0.01-0.363,0.091c-1.139,2.379-0.646,5.826-0.286,8.339C46.803,39.366,47.404,38.959,47.366,38.682
					L47.366,38.682z"/>
			</g>
		</g>
		<g>
			<g>
				<path d="M82.391,38.527c3.897-5.146,9.789-7.572,15.567-9.969c2.9-1.203,5.907-2.17,8.665-3.695
					c2.524-1.396,5.051-2.479,7.188-4.489c0.316-0.298,0.019-0.575-0.299-0.299c-2.439,2.126-5.077,3.853-8.093,5.032
					c-2.938,1.148-5.928,2.163-8.913,3.184c-5.683,1.943-11.283,4.919-14.696,10.021C81.445,38.857,82.095,38.919,82.391,38.527
					L82.391,38.527z"/>
			</g>
		</g>
		<g>
			<g>
				<path d="M82.436,36.498c1.358-3.938,1.94-8.141,1.338-12.28c-0.603-4.132-2.192-8.048-4.05-11.762
					c-0.119-0.237-0.538,0.124-0.457,0.326c1.55,3.837,3.12,7.74,3.563,11.889c0.438,4.093-0.322,8.062-1.229,12.036
					C81.457,37.339,82.32,36.834,82.436,36.498L82.436,36.498z"/>
			</g>
		</g>
		<g>
			<g>
				<path d="M101.637,0.354c-1.469,1.912-2.953,3.603-4.761,5.213c-1.759,1.566-3.569,3.082-5.035,4.938
					c-1.299,1.646-2.037,3.555-2.22,5.638c-0.201,2.295,0.271,5.444,2.426,6.703c0.307,0.18,0.9-0.514,0.533-0.744
					c-2.166-1.364-2.48-4.771-2.184-7.096c0.284-2.219,1.736-4.105,3.267-5.638c1.519-1.521,3.279-2.795,4.904-4.197
					c1.475-1.271,3.188-2.823,3.943-4.665C102.821-0.249,101.938-0.038,101.637,0.354L101.637,0.354z"/>
			</g>
		</g>
		<g>
			<g>
				<path d="M92.064,22.525c4.535,0.512,7.457-3.666,8.817-7.433c0.773-2.142,1.161-4.402,1.38-6.661c0.098-1,0.129-2.006,0.1-3.009
					c-0.052-1.753,0.039-3.466,0.058-5.215c0.005-0.465-0.681,0.062-0.715,0.344c-0.292,2.401,0.078,4.817-0.062,7.226
					c-0.117,2.011-0.496,4.031-1.093,5.955c-1.224,3.94-3.583,7.647-8.058,7.904C92.131,21.657,91.477,22.459,92.064,22.525
					L92.064,22.525z"/>
			</g>
		</g>
		<g>
			<g>
				<path d="M79.334,12.75c0.368,1.527,0.047,3.26-0.118,4.796c-0.226,2.097-0.492,4.188-0.507,6.301
					c-0.012,1.611,0.145,3.361,0.936,4.799c0.608,1.106,2.367,2.146,3.55,1.349c0.095-0.064,0.257-0.254,0.188-0.383
					c-0.251-0.476-1.195-0.425-1.68-0.623c-0.707-0.291-1.203-0.935-1.544-1.593c-0.785-1.518-0.655-3.543-0.577-5.194
					c0.091-1.924,0.344-3.839,0.514-5.757c0.119-1.348,0.257-2.825-0.139-4.142C79.856,11.968,79.265,12.463,79.334,12.75
					L79.334,12.75z"/>
			</g>
		</g>
		<g>
			<g>
				<path d="M79.545,13.113c2.098,2.195,3.998,4.347,5.058,7.252c0.553,1.516,0.782,3.163,0.564,4.767
					c-0.246,1.814-1.206,3.088-2.473,4.332c-0.488,0.479-0.171,1.269,0.465,0.736c2.671-2.236,3.542-5.657,2.876-8.987
					c-0.665-3.322-2.962-7.054-5.974-8.707C79.813,12.37,79.332,12.891,79.545,13.113L79.545,13.113z"/>
			</g>
		</g>
		<g>
			<g>
				<path d="M113.621,20.015c-1.485,1.097-2.617,2.579-3.682,4.068c-1.29,1.806-2.525,3.379-4.391,4.635
					c-1.793,1.206-3.849,2.111-5.956,2.575c-1.974,0.435-4.577,0.251-5.899-1.474c-0.377-0.491-1.555,0.604-1.119,1.119
					c1.303,1.541,3.504,1.616,5.371,1.358c2.297-0.317,4.5-1.264,6.512-2.387c1.915-1.069,3.472-2.393,4.943-4.012
					c1.583-1.74,2.853-3.683,4.61-5.268C114.447,20.237,114.172,19.608,113.621,20.015L113.621,20.015z"/>
			</g>
		</g>
		<g>
			<g>
				<path d="M93.161,30.537c0.646-4.086,4.753-5.762,8.255-6.923c1.868-0.62,3.786-1.062,5.713-1.453
					c2.079-0.42,4.348-0.497,6.33-1.231c0.418-0.155,0.607-0.99-0.01-0.738c-2.187,0.895-4.826,0.971-7.153,1.438
					c-2.229,0.447-4.447,0.968-6.585,1.749c-3.295,1.205-7.349,3.582-7.521,7.516C92.164,31.483,93.104,30.894,93.161,30.537
					L93.161,30.537z"/>
			</g>
		</g>
		<g>
			<g>
				<path d="M57.061,56.635c-2.668-2.043-5.753-3.468-8.451-5.482c-2.754-2.055-4.997-4.685-5.974-8.025
					c-1.259-4.305,0.04-8.715,1.814-12.641c1.813-4.012,5.17-7.181,7.435-10.924c0.128-0.212-0.121-0.248-0.225-0.082
					c-1.213,1.938-2.994,3.543-4.404,5.347c-1.384,1.77-2.513,3.686-3.594,5.648c-2.002,3.636-2.923,8.087-2.188,12.192
					c0.659,3.678,2.949,6.584,5.777,8.9c2.774,2.271,6.031,4.175,9.263,5.709C56.773,57.4,57.321,56.835,57.061,56.635
					L57.061,56.635z"/>
			</g>
		</g>
		<g>
			<g>
				<path d="M52.133,19.098c-1.8,6.585,3.11,11.874,5.431,17.596c1.315,3.246,1.81,6.731,1.624,10.217
					c-0.095,1.756-0.46,3.458-0.812,5.173c-0.303,1.467-0.562,3.004-1.718,4.06c-0.57,0.521-0.207,1.362,0.515,0.813
					c2.195-1.671,2.461-4.948,2.91-7.475c0.612-3.447,0.518-6.942-0.334-10.338c-0.904-3.604-2.872-6.613-4.718-9.778
					c-1.865-3.199-3.294-6.65-2.354-10.404C52.774,18.567,52.199,18.854,52.133,19.098L52.133,19.098z"/>
			</g>
		</g>
		<g>
			<g>
				<path d="M76.088,61.314c3.994-5.715,10.571-6.797,17.053-7.406c3.037-0.285,6.101-0.518,9.061-1.298
					c1.491-0.394,2.985-0.8,4.32-1.602c1.337-0.802,2.377-1.901,3.523-2.936c-0.234-0.043-0.47-0.086-0.704-0.129
					c-1.066,3.683-1.419,7.55-2.773,11.153c-1.407,3.746-4.149,6.537-7.842,8.035c-3.446,1.397-7.491,1.497-11.07,0.598
					c-1.822-0.457-3.53-1.256-4.995-2.435c-1.661-1.337-2.984-3.056-4.479-4.565c-0.519-0.524-1.788,0.743-1.268,1.268
					c1.598,1.609,3.021,3.384,4.797,4.808c1.525,1.224,3.396,1.951,5.274,2.422c3.882,0.971,8.046,0.586,11.757-0.852
					c3.835-1.486,6.697-4.57,8.399-8.252c1.791-3.871,2.229-8.28,3.119-12.41c0.11-0.51-0.486-0.354-0.704-0.129
					c-1.293,1.337-2.442,2.632-4.151,3.47c-1.564,0.766-3.289,1.014-4.986,1.294c-3.267,0.54-6.592,0.675-9.879,1.055
					c-5.966,0.689-11.613,2.417-15.054,7.688C75.118,61.655,75.792,61.738,76.088,61.314L76.088,61.314z"/>
			</g>
		</g>
		<g>
			<g>
				<path d="M23.226,77.79c1.999-3.163,3.736-6.836,4.128-10.601c0.437-4.197-1.05-7.951-3.176-11.501
					c-1.954-3.263-4.417-6.188-6.149-9.588c-0.948-1.86-1.689-3.853-2.032-5.914c-0.344-2.06-0.53-4.104-1.225-6.087
					c-0.056-0.157-0.316,0.067-0.304,0.181c0.437,3.867,0.528,7.856,2.116,11.469c1.381,3.138,3.602,5.887,5.515,8.704
					c2.325,3.426,4.163,7.043,4.261,11.262c0.101,4.33-2.036,8.157-3.807,11.958C22.294,78.227,23.012,78.127,23.226,77.79
					L23.226,77.79z"/>
			</g>
		</g>
		<g>
			<g>
				<path d="M14.198,33.104c-1.492,4.47-3.307,8.829-4.741,13.317c-1.298,4.057-2.141,8.128-1.394,12.383
					c0.689,3.923,2.351,7.528,4.62,10.783c2.152,3.089,5.208,6.797,9.069,7.599c0.873,0.181,2.05-1.511,0.979-1.642
					c-3.7-0.453-6.76-4.396-8.798-7.208c-2.296-3.166-3.927-6.885-4.551-10.752c-0.661-4.089,0.274-8.023,1.471-11.919
					c1.305-4.246,2.968-8.39,3.98-12.722C14.947,32.466,14.285,32.843,14.198,33.104L14.198,33.104z"/>
			</g>
		</g>
		<g>
			<g>
				<path d="M55.376,89.77c0.696-0.24,1.16-0.811,1.683-1.313c0.812-0.782,1.644-1.55,2.519-2.261
					c1.96-1.591,4.194-2.892,6.734-3.206c0.2-0.024,0.532-0.504,0.232-0.482c-2.371,0.167-4.449,0.839-6.446,2.129
					c-1.052,0.68-2.008,1.561-2.911,2.425c-0.732,0.7-1.746,1.45-2.092,2.428C55.029,89.672,55.193,89.833,55.376,89.77
					L55.376,89.77z"/>
			</g>
		</g>
		<g>
			<g>
				<path d="M70.938,83.549c6.994,0.51,14.459,1.27,20.133-3.694c0.263-0.229,0.089-0.613-0.23-0.364
					c-5.782,4.507-12.783,4.113-19.693,3.623C70.951,83.1,70.667,83.528,70.938,83.549L70.938,83.549z"/>
			</g>
		</g>
		<g>
			<g>
				<path d="M90.721,79.629c-1.026,1.299-1.356,2.694-1.464,4.321c-0.155,2.358-0.625,4.423-1.884,6.455
					c-2.128,3.434-5.818,5.618-9.644,6.639c-3.563,0.951-7.409,0.824-10.947-0.164c-1.854-0.518-3.604-1.313-5.096-2.541
					c-1.44-1.185-2.554-2.732-3.606-4.255c-0.478-0.692-2.096,0.789-1.549,1.549c1.164,1.62,2.396,3.164,3.969,4.408
					c1.604,1.269,3.52,2.021,5.476,2.553c3.812,1.037,7.92,0.951,11.72-0.084c3.828-1.042,7.213-3.307,9.624-6.451
					c1.19-1.554,2.044-3.367,2.491-5.27c0.566-2.414-0.217-4.82,1.309-7.012C91.378,79.405,90.927,79.368,90.721,79.629
					L90.721,79.629z"/>
			</g>
		</g>
		<g>
			<g>
				<path d="M51.684,19.46c-3.098,5.669-5.078,11.959-3.031,18.326c0.997,3.103,2.765,5.914,4.398,8.708
					c1.838,3.142,3.11,6.28,3.516,9.92c0.02,0.175,0.286-0.01,0.277-0.133c-0.467-6.357-4.672-11.199-7.142-16.832
					c-1.434-3.27-1.898-6.681-1.347-10.208c0.536-3.432,1.965-6.706,3.535-9.779C51.977,19.294,51.74,19.356,51.684,19.46
					L51.684,19.46z"/>
			</g>
		</g>
		<g>
			<g>
				<path d="M51.784,19.61c-1.07,2.522-1.801,5.137-1.977,7.88c-0.198,3.104,0.734,5.916,1.892,8.75
					c1.204,2.951,2.641,5.811,3.651,8.838c1.016,3.041,1.41,6.204,1.16,9.397c-0.014,0.173,0.271-0.015,0.283-0.137
					c0.613-5.699-1.694-11.094-3.91-16.2c-1.269-2.922-2.529-5.823-2.714-9.042c-0.185-3.23,0.693-6.481,1.806-9.484
					C52.037,19.448,51.828,19.505,51.784,19.61L51.784,19.61z"/>
			</g>
		</g>
		<g>
			<g>
				<path d="M51.367,19.704c-0.441,5.82,0.391,11.128,2.836,16.44c1.207,2.622,2.434,5.226,3.016,8.07
					c0.708,3.463,0.15,7.059-0.596,10.461c-0.054,0.247,0.301,0.069,0.338-0.084c0.745-3.05,1.145-6.217,0.812-9.351
					c-0.292-2.74-1.366-5.315-2.493-7.802c-1.243-2.74-2.439-5.425-3.094-8.377c-0.688-3.102-0.704-6.314-0.58-9.474
					C51.611,19.441,51.375,19.602,51.367,19.704L51.367,19.704z"/>
			</g>
		</g>
		<g>
			<g>
				<path d="M51.936,19.687c-1.07,5.775-0.303,11.821,1.367,17.416c0.817,2.737,1.955,5.364,2.561,8.165
					c0.632,2.926,0.478,6.238,0.036,9.176c-0.04,0.271,0.312,0.063,0.354-0.088c0.655-2.357,0.474-5.173,0.262-7.586
					c-0.248-2.836-1.374-5.564-2.292-8.23c-2.066-6.001-3.007-12.612-2.033-18.915C52.218,19.436,51.958,19.568,51.936,19.687
					L51.936,19.687z"/>
			</g>
		</g>
		<g>
			<g>
				<path d="M51.195,20.033c-0.677,2.558-1.354,5.109-1.588,7.752c-0.254,2.869,0.492,5.531,1.277,8.258
					c0.776,2.69,1.684,5.335,2.611,7.977c1.023,2.913,2.164,5.813,2.167,8.947c0,0.244,0.395-0.014,0.396-0.191
					c0.031-2.677-0.838-5.198-1.73-7.688c-0.946-2.641-1.843-5.295-2.659-7.979c-0.859-2.821-1.741-5.64-1.703-8.616
					c0.037-2.892,0.843-5.739,1.516-8.531C51.533,19.752,51.229,19.903,51.195,20.033L51.195,20.033z"/>
			</g>
		</g>
		<g>
			<g>
				<path d="M51.839,19.997c-1.031,5.921,1.724,11.069,4.515,16.083c1.534,2.755,2.225,5.903,2.259,9.04
					c0.036,3.298-1.001,6.438-1.607,9.639c-0.04,0.212,0.244,0.079,0.288-0.036c1.012-2.633,1.464-5.754,1.672-8.561
					c0.216-2.893-0.311-5.846-1.367-8.536c-1.102-2.806-2.883-5.323-4.063-8.106c-1.294-3.05-1.866-6.305-1.393-9.599
					C52.174,19.695,51.863,19.854,51.839,19.997L51.839,19.997z"/>
			</g>
		</g>
		<g>
			<g>
				<path d="M50.094,21.7c-2.974,5.299-6.427,11.813-4.102,17.981c1.021,2.711,2.92,5.052,4.635,7.348
					c2.118,2.835,4.316,5.82,5.801,9.04c0.087,0.188,0.438-0.1,0.363-0.26c-2.575-5.6-7.291-9.877-10.007-15.367
					c-3.118-6.303,0.614-13.142,3.577-18.738C50.477,21.486,50.168,21.567,50.094,21.7L50.094,21.7z"/>
			</g>
		</g>
		<g>
			<g>
				<path d="M48.834,23.54c-2.771,5.439-6.189,11.903-3.82,18.092c0.973,2.54,2.9,4.618,4.735,6.563
					c2.466,2.614,5.144,5.146,7.026,8.232c0.123,0.201,0.504-0.127,0.404-0.289c-3.09-5.02-8.348-8.378-11.202-13.541
					c-3.468-6.273,0.351-13.306,3.099-19.054C49.173,23.343,48.897,23.415,48.834,23.54L48.834,23.54z"/>
			</g>
		</g>
		<g>
			<g>
				<path d="M48.162,23.578c-3.105,5.636-6.539,13.512-3.592,19.873c1.131,2.439,3.303,4.246,5.212,6.058
					c1.191,1.132,2.341,2.263,3.628,3.289c1.317,1.051,2.597,2.104,3.562,3.502c0.105,0.152,0.457-0.173,0.34-0.34
					c-1.743-2.489-4.521-4.173-6.676-6.29c-1.912-1.878-4.036-3.596-5.396-5.946c-1.689-2.922-1.495-6.492-0.859-9.684
					c0.732-3.681,2.353-7.144,4.063-10.458C48.563,23.352,48.24,23.438,48.162,23.578L48.162,23.578z"/>
			</g>
		</g>
		<g>
			<g>
				<path d="M46.605,26.158c-2.672,5.607-4.94,12.585-2.129,18.581c1.102,2.351,3.065,4.175,5.049,5.783
					c2.689,2.181,5.378,4.126,7.564,6.854c0.132,0.165,0.507-0.198,0.373-0.373c-1.951-2.557-4.479-4.462-7.014-6.397
					c-2.061-1.573-4.038-3.291-5.341-5.566c-3.359-5.867-0.786-13.238,1.739-18.877C46.938,25.959,46.666,26.03,46.605,26.158
					L46.605,26.158z"/>
			</g>
		</g>
		<g>
			<g>
				<path d="M80.101,15.033c-0.269,2.925,1.22,5.852,1.446,8.747c0.144,1.843-0.098,4.92,1.803,5.994
					c0.156,0.089,0.481-0.259,0.334-0.394c-1.775-1.603-1.491-4.138-1.707-6.321c-0.128-1.3-0.5-2.603-0.797-3.87
					c-0.334-1.426-0.554-2.864-0.845-4.296C80.308,14.761,80.107,14.961,80.101,15.033L80.101,15.033z"/>
			</g>
		</g>
		<g>
			<g>
				<path d="M79.938,15.854c-0.012,2.455-0.172,4.887,0.029,7.341c0.13,1.58,0.368,5.061,2.351,5.543
					c0.166,0.04,0.482-0.282,0.273-0.383c-2.071-0.992-2.15-4.201-2.28-6.176c-0.142-2.157-0.026-4.315-0.064-6.474
					C80.244,15.514,79.938,15.717,79.938,15.854L79.938,15.854z"/>
			</g>
		</g>
		<g>
			<g>
				<path d="M80.755,14.141c0.927,4.895,4.522,8.979,3.048,14.18c-0.075,0.265,0.313,0.102,0.372-0.047
					c1.919-4.894-1.83-9.785-3.146-14.328C80.984,13.795,80.732,14.019,80.755,14.141L80.755,14.141z"/>
			</g>
		</g>
		<g>
			<g>
				<path d="M101.147,2.312c-1.335,3.255-3.819,5.842-5.494,8.911c-0.863,1.582-1.521,3.271-2.1,4.975
					c-0.501,1.478-1.241,3.159-0.901,4.737c0.042,0.197,0.407-0.094,0.375-0.27c-0.314-1.734,0.639-3.791,1.21-5.412
					c0.663-1.884,1.521-3.704,2.56-5.409c1.542-2.532,3.537-4.73,4.616-7.528C101.5,2.091,101.207,2.166,101.147,2.312
					L101.147,2.312z"/>
			</g>
		</g>
		<g>
			<g>
				<path d="M100.534,2.486c-1.489,3.647-4.396,6.431-6.615,9.619c-1.004,1.441-1.816,3.002-2.302,4.694
					c-0.556,1.936-0.146,3.509,0.636,5.315c0.084,0.195,0.39-0.1,0.354-0.254c-0.196-0.829-0.571-1.598-0.78-2.425
					c-0.283-1.113,0.069-2.336,0.409-3.398c0.578-1.813,1.679-3.431,2.805-4.944c2.068-2.778,4.515-5.305,5.748-8.604
					C100.869,2.273,100.591,2.347,100.534,2.486L100.534,2.486z"/>
			</g>
		</g>
		<g>
			<g>
				<path d="M100.424,2.139c-1.912,3.778-5.876,5.91-8.424,9.192c-1.027,1.324-1.698,2.88-1.824,4.556
					c-0.19,2.51,1.292,4.58,2.486,6.651c0.106,0.186,0.422-0.098,0.363-0.26c-0.379-1.041-1.024-1.951-1.555-2.918
					c-0.63-1.148-0.882-2.39-0.838-3.693c0.072-2.16,1.344-3.975,2.763-5.499c2.465-2.646,5.654-4.692,7.282-8.025
					C100.779,1.934,100.49,2.007,100.424,2.139L100.424,2.139z"/>
			</g>
		</g>
		<g>
			<g>
				<path d="M102.072,2.705c-0.828,3.313-1.681,6.642-3.05,9.78c-0.671,1.537-1.509,2.991-2.47,4.363
					c-0.478,0.682-1.036,1.286-1.543,1.941c-0.647,0.839-1.228,1.802-2.166,2.349c-0.17,0.099-0.294,0.503,0.004,0.355
					c1.308-0.645,2.117-2.146,3.023-3.228c1.208-1.441,2.2-3.053,3.047-4.729c1.729-3.424,2.616-7.192,3.457-10.909
					C102.426,2.408,102.106,2.567,102.072,2.705L102.072,2.705z"/>
			</g>
		</g>
		<g>
			<g>
				<path d="M101.752,2.493c-0.459,3.426-0.916,6.876-1.991,10.174c-0.58,1.781-1.409,3.471-2.479,5.007
					c-1.107,1.59-2.795,3.557-4.846,3.665c-0.114,0.007-0.41,0.3-0.211,0.354c1.406,0.384,2.812-1.032,3.717-1.924
					c1.454-1.435,2.547-3.163,3.397-5.011c1.776-3.858,2.286-8.185,2.688-12.367C102.043,2.231,101.767,2.385,101.752,2.493
					L101.752,2.493z"/>
			</g>
		</g>
		<g>
			<g>
				<path d="M93.733,29.7c1.796-2.59,5.826-2.816,8.554-3.854c1.952-0.742,3.821-1.673,5.744-2.484
					c1.695-0.715,3.628-0.945,5.17-1.986c0.164-0.11,0.133-0.36-0.084-0.229c-1.06,0.644-2.219,0.925-3.395,1.27
					c-1.005,0.294-1.971,0.741-2.926,1.164c-2.001,0.886-3.96,1.859-6.07,2.465c-2.434,0.698-5.749,1.246-7.208,3.575
					C93.392,29.823,93.628,29.852,93.733,29.7L93.733,29.7z"/>
			</g>
		</g>
		<g>
			<g>
				<path d="M93.803,28.964c0.503-0.471,0.852-1.204,1.367-1.708c0.701-0.684,1.535-1.232,2.388-1.706
					c1.598-0.888,3.376-1.435,5.134-1.9c3.473-0.918,6.995-1.358,10.374-2.633c0.185-0.069,0.273-0.434-0.004-0.328
					c-3.953,1.499-8.168,1.878-12.185,3.154c-2.961,0.94-6.142,2.518-7.549,5.453c-0.031,0.065-0.021,0.133,0.057,0.146
					c0.238,0.037,0.398-0.249,0.52-0.414C93.974,28.934,93.871,28.9,93.803,28.964L93.803,28.964z"/>
			</g>
		</g>
		<g>
			<g>
				<path d="M112.342,21.255c-2.634,2.27-5.365,4.427-8.423,6.102c-1.586,0.868-3.271,1.54-5.013,2.018
					c-1.444,0.396-3.062,0.734-4.398-0.097c-0.137-0.085-0.388,0.207-0.284,0.334c0.78,0.957,2.302,0.593,3.358,0.42
					c1.939-0.318,3.837-1.102,5.591-1.961c3.442-1.687,6.487-4.113,9.351-6.634C112.723,21.262,112.536,21.087,112.342,21.255
					L112.342,21.255z"/>
			</g>
		</g>
		<g>
			<g>
				<path d="M111.207,22.274c-2.404,2.085-4.559,4.484-7.21,6.27c-1.341,0.904-2.825,1.526-4.414,1.826
					c-2.108,0.399-3.979-0.037-5.953-0.751c-0.229-0.083-0.632,0.37-0.367,0.512c3.215,1.718,7.245,0.898,10.246-0.878
					c2.99-1.77,5.295-4.521,7.868-6.809C111.562,22.279,111.389,22.116,111.207,22.274L111.207,22.274z"/>
			</g>
		</g>
		<g>
			<g>
				<path d="M76.827,61.078c4.104-5.666,11.46-4.812,17.608-5.676c3.294-0.463,6.485-1.36,9.459-2.859
					c1.251-0.63,2.441-1.391,3.562-2.227c0.583-0.436,1.751-1.176,1.94-1.907c0.069-0.269-0.313-0.099-0.372,0.047
					c-2.039,5.083-8.724,6.771-13.539,7.851c-3.413,0.766-6.888,1.215-10.293,2.021c-2.476,0.585-4.99,1.402-6.848,3.215
					c-0.205,0.2-0.007,0.396,0.199,0.199c2.473-2.351,6.111-3.004,9.346-3.646c3.525-0.7,7.099-1.174,10.557-2.188
					c4.202-1.232,9.186-3.026,10.932-7.447c-0.124,0.016-0.248,0.031-0.372,0.047c-0.104,0.403-1.082,1.06-1.358,1.286
					c-0.599,0.491-1.248,0.921-1.899,1.339c-1.391,0.892-2.891,1.614-4.429,2.215c-3.528,1.378-7.377,1.855-11.129,2.128
					c-5.101,0.371-10.444,0.961-13.567,5.529C76.496,61.191,76.726,61.219,76.827,61.078L76.827,61.078z"/>
			</g>
		</g>
		<g>
			<g>
				<path d="M79.859,61.631c2.922-0.902,5.774-1.933,8.745-2.688c2.883-0.732,5.812-1.257,8.68-2.055
					c4.799-1.336,9.253-3.603,11.881-7.974c0.142-0.236-0.138-0.278-0.25-0.092c-2.883,4.796-7.979,6.874-13.201,8.197
					c-5.282,1.339-10.866,2.054-15.831,4.426C79.816,61.479,79.726,61.672,79.859,61.631L79.859,61.631z"/>
			</g>
		</g>
		<g>
			<g>
				<path d="M108.948,48.882c-0.708,1.524-1.455,3.027-2.479,4.367c-1.256,1.644-3.023,2.692-4.909,3.461
					c-2.036,0.829-4.158,1.429-6.3,1.909c-1.743,0.391-3.603,0.624-5.091,1.689c-0.207,0.148-0.166,0.486,0.111,0.299
					c2.016-1.364,4.727-1.532,7.035-2.136c2.078-0.544,4.198-1.234,6.091-2.263c2.939-1.597,4.526-4.367,5.846-7.323
					C109.366,48.632,109.023,48.719,108.948,48.882L108.948,48.882z"/>
			</g>
		</g>
		<g>
			<g>
				<path d="M109.375,49.166c-1.301,2.317-1.72,5.116-3.784,6.971c-0.201,0.182-0.011,0.365,0.188,0.188
					c1.966-1.772,3.003-4.736,3.823-7.187C109.657,48.971,109.415,49.094,109.375,49.166L109.375,49.166z"/>
			</g>
		</g>
		<g>
			<g>
				<path d="M78.999,61.609c2.797,2.102,5.786,3.938,9.205,4.815c3.285,0.845,6.768,0.428,9.932-0.697
					c2.731-0.971,5.192-2.661,6.976-4.952c0.931-1.197,1.509-2.565,1.995-3.987c0.72-2.103,1.37-4.213,2.147-6.296
					c0.098-0.259-0.224-0.16-0.299-0.004c-1.45,2.997-1.767,6.455-3.501,9.325c-1.683,2.784-4.565,4.637-7.573,5.706
					c-3.159,1.123-6.576,1.315-9.821,0.48c-3.236-0.832-6.129-2.713-8.807-4.645C79.131,61.268,78.886,61.524,78.999,61.609
					L78.999,61.609z"/>
			</g>
		</g>
		<g>
			<g>
				<path d="M80.268,61.229c5.438,2.345,11.512,3.792,17.261,1.724c2.454-0.884,4.726-2.294,6.714-3.97
					c1.924-1.623,2.838-3.456,3.711-5.776c0.088-0.234-0.204-0.146-0.271-0.004c-0.446,0.951-0.771,1.952-1.248,2.891
					c-0.65,1.281-1.8,2.253-2.895,3.146c-2.081,1.699-4.517,2.981-7.078,3.782c-5.298,1.655-11.03-0.069-15.971-2.103
					C80.351,60.86,80.105,61.158,80.268,61.229L80.268,61.229z"/>
			</g>
		</g>
		<g>
			<g>
				<path d="M107.595,53.309c-1.9,4.133-5.595,7.11-9.841,8.604c-3.829,1.348-8.687,1.464-12.055-1.065
					c-0.162-0.122-0.439,0.172-0.334,0.334c0.487,0.751,1.612,1.099,2.407,1.397c1.051,0.395,2.199,0.55,3.312,0.641
					c2.33,0.191,4.769-0.216,6.95-1.035c4.253-1.596,7.971-4.669,9.825-8.871C107.958,53.091,107.66,53.167,107.595,53.309
					L107.595,53.309z"/>
			</g>
		</g>
		<g>
			<g>
				<path d="M86.516,61.334c5.386,0.62,11.034,0.218,15.787-2.613c0.139-0.082,0.237-0.421-0.004-0.293
					c-2.54,1.34-5.062,2.248-7.926,2.588c-2.555,0.304-5.166,0.204-7.727,0.047C86.526,61.056,86.345,61.313,86.516,61.334
					L86.516,61.334z"/>
			</g>
		</g>
		<g>
			<g>
				<path d="M107.776,54.105c-1.77,5.182-5.735,8.344-10.815,10.071c-2.772,0.942-5.811,1.158-8.7,0.745
					c-1.454-0.207-2.872-0.646-4.221-1.218c-1.491-0.632-2.66-1.62-3.943-2.567c-0.144-0.107-0.428,0.168-0.309,0.309
					c1.868,2.228,5.089,3.359,7.862,3.833c3.163,0.54,6.648,0.216,9.659-0.895c5.115-1.889,9.03-5.069,10.779-10.356
					C108.161,53.81,107.822,53.97,107.776,54.105L107.776,54.105z"/>
			</g>
		</g>
		<g>
			<g>
				<path d="M55.96,89.693c0.007,0.207-0.021,0.212,0.094,0.342c0.023,0.026,0.072,0.029,0.104,0.02
					c0.231-0.081,0.377-0.229,0.55-0.401c0.551-0.546,1.179-0.991,1.796-1.459c1.504-1.143,3.112-1.956,4.927-2.487
					c3.506-1.027,7.374,0.059,10.932,0.297c3.233,0.217,6.41-0.026,9.456-1.179c2.229-0.843,4.831-1.775,6.13-3.923
					c0.159-0.263-0.129-0.277-0.271-0.1c-1.915,2.386-4.279,4.336-7.104,5.542c-3.269,1.396-6.877,1.221-10.352,1.151
					c-3.044-0.062-6.091-0.043-9.039,0.802c-1.898,0.544-3.911,1.484-4.893,3.287c-0.167,0.308,0.277,0.199,0.385,0.006
					c1.454-2.63,5.416-3.287,8.12-3.561c3.479-0.352,6.995,0.052,10.483-0.142c5.175-0.285,9.479-3.018,12.67-6.986
					c-0.091-0.033-0.181-0.066-0.271-0.1c-1.478,2.438-5.14,3.6-7.753,4.316c-3.386,0.93-7.019,0.596-10.459,0.223
					c-3.157-0.344-6.02-0.746-9.08,0.34c-1.209,0.43-2.319,1.021-3.366,1.756c-0.652,0.459-1.271,0.967-1.907,1.447
					c-0.132,0.1-0.808,0.864-0.822,0.65C56.274,89.328,55.955,89.547,55.96,89.693L55.96,89.693z"/>
			</g>
		</g>
		<g>
			<g>
				<path d="M57.809,90.527c2.236-1.923,4.723-3.434,7.605-4.147c2.891-0.716,5.739-0.261,8.654-0.065
					c2.771,0.186,5.536-0.061,8.177-0.943c2.695-0.9,5.082-2.56,7.331-4.257c0.186-0.141,0.142-0.458-0.102-0.273
					c-2.675,2.031-5.463,3.824-8.748,4.671c-3.127,0.806-6.354,0.479-9.52,0.145c-5.153-0.546-9.77,1.272-13.564,4.705
					C57.464,90.523,57.631,90.68,57.809,90.527L57.809,90.527z"/>
			</g>
		</g>
		<g>
			<g>
				<path d="M89.836,80.421c-2.715,2.211-6.13,3.154-9.555,3.549c-1.471,0.17-2.957,0.206-4.437,0.182
					c-1.955-0.032-3.85,0.191-5.794,0.364c-1.642,0.146-3.288-0.02-4.931,0.084c-1.393,0.088-2.668,0.604-3.929,1.158
					c-2.008,0.884-4.133,2.224-4.648,4.508c-0.07,0.31,0.366,0.077,0.418-0.105c0.825-2.896,4.484-4.493,7.224-5.018
					c1.537-0.295,3.184-0.099,4.739-0.132c1.857-0.04,3.69-0.415,5.55-0.455c5.409-0.115,11.087-0.185,15.458-3.879
					C90.094,80.539,90.061,80.237,89.836,80.421L89.836,80.421z"/>
			</g>
		</g>
		<g>
			<g>
				<path d="M90.167,80.713c-2.376,1.742-3.462,4.643-5.733,6.492c-2.813,2.289-6.669,2.721-10.102,3.383
					c-0.145,0.027-0.378,0.418-0.145,0.393c3.124-0.328,6.712-1.052,9.393-2.778c2.892-1.863,4.012-5.219,6.665-7.278
					C90.385,80.814,90.358,80.573,90.167,80.713L90.167,80.713z"/>
			</g>
		</g>
		<g>
			<g>
				<path d="M90.439,80.666c-1.88,2.535-3.001,5.499-5.276,7.75c-2.315,2.291-5.442,3.873-8.603,4.581
					c-3.049,0.683-6.281,0.53-9.355,0.12c-3.004-0.4-6.35-0.9-8.956-2.507c-0.176-0.108-0.561,0.311-0.384,0.452
					c1.162,0.931,2.624,1.293,4.058,1.576c1.553,0.308,3.113,0.611,4.678,0.851c3.382,0.519,6.896,0.579,10.245-0.179
					c2.869-0.649,5.727-2.197,7.916-4.149c2.669-2.38,3.868-5.562,5.904-8.411C90.813,80.543,90.555,80.512,90.439,80.666
					L90.439,80.666z"/>
			</g>
		</g>
		<g>
			<g>
				<path d="M60.07,91.234c2.113,0.098,4.12-0.398,6.143-0.965c2.417-0.679,4.834-1.153,7.314-1.542
					c2.618-0.411,5.25-0.677,7.877-1.013c1.756-0.224,3.397-0.68,4.6-2.055c0.146-0.167,0.01-0.31-0.156-0.156
					c-1.78,1.655-3.777,1.797-6.088,2.035c-2.208,0.227-4.407,0.526-6.6,0.864c-2.185,0.337-4.326,0.748-6.455,1.345
					c-2.145,0.601-4.254,1.088-6.49,1.184C60.088,90.938,59.875,91.226,60.07,91.234L60.07,91.234z"/>
			</g>
		</g>
		<g>
			<g>
				<path d="M89.831,81.91c-1.455,2.812-1.671,5.942-4.087,8.218c-2.655,2.5-6.437,3.729-9.918,4.507
					c-3.39,0.759-6.9,0.875-10.35,0.547c-1.307-0.125-2.596-0.322-3.802-0.859c-1.294-0.576-2.053-1.648-2.862-2.747
					c-0.113-0.155-0.452,0.168-0.378,0.321c1.167,2.419,3.489,3.337,6.006,3.659c3.916,0.501,7.89,0.261,11.731-0.625
					c3.328-0.767,6.849-2.061,9.452-4.342c1.17-1.025,2.01-2.104,2.62-3.536c0.714-1.675,1.043-3.484,1.815-5.139
					C90.148,81.723,89.891,81.794,89.831,81.91L89.831,81.91z"/>
			</g>
		</g>
		<g>
			<g>
				<path d="M89.64,83.474c-1.051,2.231-1.868,4.556-3.229,6.629c-1.591,2.425-3.987,4.065-6.624,5.172
					c-2.586,1.086-5.431,1.617-8.22,1.788c-3.084,0.189-5.878-0.948-8.892-1.295c-0.15-0.018-0.433,0.344-0.233,0.392
					c3.214,0.778,6.308,1.577,9.637,1.319c2.77-0.215,5.515-0.88,8.073-1.958c2.428-1.023,4.529-2.625,6.124-4.722
					c1.644-2.16,2.634-4.818,3.617-7.321C89.979,83.26,89.702,83.34,89.64,83.474L89.64,83.474z"/>
			</g>
		</g>
		<g>
			<g>
				<path d="M14.126,34.7c0.187,3.504,0.282,7.02,0.612,10.514c0.333,3.521,1.193,6.934,2.221,10.31
					c1.003,3.296,2.21,6.526,3.432,9.746c1.311,3.453,1.71,6.862,1.817,10.534c0.008,0.273,0.446-0.013,0.441-0.213
					c-0.083-3.154-0.32-6.281-1.357-9.283c-1.177-3.408-2.548-6.739-3.646-10.177c-1.11-3.477-2.028-7.011-2.441-10.643
					c-0.412-3.629-0.352-7.295-0.806-10.919C14.378,34.395,14.119,34.58,14.126,34.7L14.126,34.7z"/>
			</g>
		</g>
		<g>
			<g>
				<path d="M14.345,35.342c0.864,6.912,2.102,13.799,4.557,20.342c1.214,3.234,2.542,6.43,3.349,9.799
					c0.871,3.639,0.638,7.297-0.074,10.938c-0.046,0.234,0.27,0.053,0.309-0.078c2.014-6.682-0.317-13.489-2.704-19.701
					c-2.662-6.928-4.048-14.124-5.129-21.445C14.623,35.003,14.328,35.205,14.345,35.342L14.345,35.342z"/>
			</g>
		</g>
		<g>
			<g>
				<path d="M16.061,43.401c0.512,2.624,1.373,5.11,2.46,7.548c1.135,2.544,2.571,4.955,3.647,7.522
					c2.335,5.571,1.51,11.856,0.226,17.552c-0.053,0.232,0.283,0.065,0.318-0.08c1.33-5.402,1.86-11.069,0.239-16.477
					c-0.835-2.785-2.485-5.35-3.719-7.972c-1.246-2.65-2.311-5.401-2.926-8.27C16.278,43.098,16.038,43.285,16.061,43.401
					L16.061,43.401z"/>
			</g>
		</g>
		<g>
			<g>
				<path d="M18.227,48.817c1.76,4.161,4.592,7.767,5.781,12.173c1.335,4.947,0.716,10.411-0.442,15.303
					c-0.047,0.199,0.228,0.07,0.271-0.033c0.896-2.121,1.076-4.537,1.178-6.814c0.108-2.444,0.12-4.951-0.346-7.363
					c-0.969-5.013-4.137-8.896-6.157-13.47C18.446,48.464,18.172,48.689,18.227,48.817L18.227,48.817z"/>
			</g>
		</g>
		<g>
			<g>
				<path d="M13.855,35.315c0.406,2.043,0.353,4.094,0.217,6.162c-0.133,2.02-0.481,4.153-0.148,6.165
					c0.034,0.205,0.308-0.021,0.312-0.15c0.072-2.078,0.12-4.141,0.258-6.218c0.137-2.076,0.114-4.127-0.355-6.162
					C14.104,34.964,13.829,35.183,13.855,35.315L13.855,35.315z"/>
			</g>
		</g>
		<g>
			<g>
				<path d="M13.566,35.612c-0.063,3.743-0.434,7.474-0.532,11.216c-0.097,3.671,0.25,7.306,0.971,10.904
					c0.708,3.535,1.854,6.972,3.236,10.297c1.35,3.246,3.285,6.197,4.587,9.46c0.089,0.221,0.49-0.109,0.42-0.301
					c-1.164-3.142-3.086-5.961-4.422-9.034c-1.377-3.17-2.458-6.461-3.226-9.83c-0.839-3.684-1.192-7.445-1.144-11.219
					c0.051-3.887,0.439-7.758,0.432-11.647C13.889,35.258,13.568,35.47,13.566,35.612L13.566,35.612z"/>
			</g>
		</g>
		<g>
			<g>
				<path d="M13.261,36.892c0.02,3.724-0.609,7.399-1.028,11.089c-0.401,3.532-0.419,7.052,0.22,10.558
					c0.634,3.476,1.741,6.804,3.242,9.998c1.367,2.911,3.249,6.284,6.005,8.087c0.152,0.1,0.465-0.19,0.324-0.322
					c-2.531-2.372-4.408-4.916-5.929-8.051c-1.471-3.033-2.527-6.255-3.163-9.562c-0.699-3.633-0.654-7.255-0.262-10.917
					c0.396-3.68,1-7.323,0.919-11.037C13.585,36.529,13.26,36.744,13.261,36.892L13.261,36.892z"/>
			</g>
		</g>
		<g>
			<g>
				<path d="M12.655,38.354c-0.477,6.27-2.036,12.425-1.995,18.737c0.02,2.991,0.521,5.953,1.605,8.744
					c0.99,2.546,2.225,5.418,4.384,7.2c0.138,0.112,0.419-0.168,0.305-0.305c-3.917-4.628-5.829-10.226-5.872-16.288
					c-0.044-6.129,1.505-12.146,1.901-18.247C12.996,37.996,12.666,38.209,12.655,38.354L12.655,38.354z"/>
			</g>
		</g>
	</g>
</g>
<g id="DESIGNED_BY_FREEPIK">
</g>
</svg>
