<?xml version="1.0" encoding="utf-8"?>
<!-- Generator: Adobe Illustrator 16.0.0, SVG Export Plug-In . SVG Version: 6.00 Build 0)  -->
<!DOCTYPE svg PUBLIC "-//W3C//DTD SVG 1.1//EN" "http://www.w3.org/Graphics/SVG/1.1/DTD/svg11.dtd">
<svg version="1.1" xmlns="http://www.w3.org/2000/svg" xmlns:xlink="http://www.w3.org/1999/xlink" x="0px" y="0px" width="34.91px"
	 height="141.514px" viewBox="0 0 34.91 141.514" enable-background="new 0 0 34.91 141.514" xml:space="preserve">
<g id="BACKGROUND">
</g>
<g id="OBJECTS">
	<g>
		<g>
			<g>
				<path d="M13.148,24.895c-0.109,29.921,1.708,60.159,9.891,89.081c2.619,9.256,5.767,18.405,9.719,27.18
					c0.491,1.091,2.518-0.571,2.095-1.5c-6.245-13.729-10.736-28.297-13.878-43.033c-1.591-7.465-2.831-15.008-3.832-22.573
					c-0.989-7.475-1.932-14.958-2.396-22.486c-0.553-8.97-0.91-17.992-0.951-26.979C13.793,24.184,13.149,24.604,13.148,24.895
					L13.148,24.895z"/>
			</g>
		</g>
		<g>
			<g>
				<path d="M13.1,24.456c-1.535,1.941-3.525,3.247-5.608,4.542c-0.166,0.104-0.413,0.539-0.071,0.574
					c2.428,0.256,6.87-1.263,6.454-4.432c-0.063-0.479-0.682,0.02-0.743,0.273c-0.327,1.359-0.795,2.156-2.093,2.783
					c-0.999,0.483-2.203,0.639-3.297,0.709c-0.052,0.208-0.104,0.417-0.156,0.625c2.357-1.311,4.867-2.464,6.211-4.954
					C14.109,23.998,13.333,24.162,13.1,24.456L13.1,24.456z"/>
			</g>
		</g>
		<g>
			<g>
				<path d="M13.125,24.862c1.575,1.91,3.643,2.974,5.633,4.367c0.074-0.198,0.148-0.397,0.222-0.596
					c-2.264,1.474-4.529-1.64-5.152-3.488c-0.087-0.26-0.567,0.124-0.493,0.354c0.779,2.411,3.15,5.437,5.848,3.68
					c0.12-0.078,0.428-0.452,0.222-0.596c-1.939-1.357-3.966-2.681-5.7-4.301C13.456,24.05,12.91,24.602,13.125,24.862
					L13.125,24.862z"/>
			</g>
		</g>
		<g>
			<g>
				<path d="M13.078,26.989c-0.396,1.899-1.996,3.026-2.744,4.746c-0.157,0.361,0.165,0.449,0.432,0.277
					c1.527-0.985,3.229-2.735,3.178-4.697c-0.012-0.481-0.646,0.057-0.714,0.262c-0.544,1.645-1.145,2.925-2.666,3.889
					c0.144,0.093,0.288,0.186,0.432,0.277c0.984-1.694,2.562-2.95,2.767-5.005C13.804,26.326,13.128,26.745,13.078,26.989
					L13.078,26.989z"/>
			</g>
		</g>
		<g>
			<g>
				<path d="M13.403,26.986c0.443,1.646,0.814,3.595,2.193,4.737c0.265,0.22,0.702-0.228,0.689-0.497
					c-0.041-0.906-0.172-1.762-0.495-2.614c-0.117-0.31-0.681,0.151-0.587,0.42c0.293,0.84,0.356,1.669,0.339,2.552
					c0.23-0.166,0.459-0.331,0.689-0.497c-1.173-1.22-1.643-3.022-2.141-4.595C13.976,26.125,13.318,26.668,13.403,26.986
					L13.403,26.986z"/>
			</g>
		</g>
		<g>
			<g>
				<path d="M13.224,24.255c-3.2,0.688-5.793-1-7.99-3.17c-2.094-2.068-4.002-4.713-4.457-7.688
					C-0.247,6.705,6.794,1.356,12.862,0.899C19.09,0.431,24.029,5.79,24.593,11.7c0.303,3.173-0.925,6.154-3.012,8.501
					c-2.113,2.374-4.913,3.533-7.986,4.046c-0.372,0.062-0.963,1.049-0.367,0.999c5.436-0.445,10.513-5.133,11.806-10.347
					C26.358,9.555,23.38,3.434,18.5,1.002C13.192-1.644,6.31,1.318,2.74,5.557c-1.794,2.131-2.842,4.678-2.732,7.484
					c0.117,2.982,1.561,5.562,3.425,7.806c2.213,2.664,6.154,5.81,9.735,3.854C13.314,24.621,13.568,24.181,13.224,24.255
					L13.224,24.255z"/>
			</g>
		</g>
		<g>
			<g>
				<path d="M10.301,24.232c-0.373-0.144-0.75-0.238-1.115-0.411c-0.396-0.188-0.682-0.557-1.135-0.46
					c-0.116,0.024-0.241,0.146-0.264,0.264c-0.165,0.842,1.304,1.506,2,1.471C10.07,25.082,10.78,24.417,10.301,24.232
					L10.301,24.232z"/>
			</g>
		</g>
		<g>
			<g>
				<path d="M7.022,22.353c-0.28-0.525-1.131-2.239,0.129-2.311c0.794-0.045,1.622,0.709,2.132,1.229
					c0.543,0.553,0.821,1.312,1.022,2.043c0.113,0.412,0.118,1.12,0.461,1.405c0.378,0.315,1.146-0.555,0.796-0.795
					c-0.483-0.331-0.82-3.916-0.09-3.984c2.088-0.197,2.026,3.63,0.946,4.553c-0.538,0.46-0.028,0.967,0.492,0.492
					c1.545-1.409,1.429-5.525-1.103-5.744c-0.874-0.075-1.342,0.942-1.428,1.647c-0.073,0.602-0.055,1.209,0.042,1.806
					c0.083,0.513,0.412,1.233,0.292,1.74c0.283-0.17,0.565-0.34,0.848-0.51c-0.283-0.336-0.398-1.043-0.569-1.458
					c-0.196-0.477-0.423-0.923-0.707-1.353c-0.576-0.871-1.605-1.519-2.635-1.637c-0.516-0.06-1.148,0.221-1.4,0.689
					c-0.448,0.834-0.052,1.708,0.389,2.459C6.753,22.817,7.109,22.515,7.022,22.353L7.022,22.353z"/>
			</g>
		</g>
		<g>
			<g>
				<path d="M13.865,23.396c0.011-1.147,1.269-3.71,2.604-3.715c0.469-0.002,0.75,0.676,0.808,1.042
					c0.088,0.552-0.235,1.113-0.531,1.548c-0.585,0.862-1.63,1.174-2.31,1.906c-0.137,0.147-0.403,0.68,0.015,0.673
					c0.541-0.009,1.089-0.514,1.471-0.855c0.593-0.531,1.108-1.22,1.517-1.9c0.593-0.986,0.683-2.394-0.547-2.915
					c-0.931-0.395-1.906,0.68-2.416,1.302c-0.703,0.859-1.391,2.122-1.346,3.269C13.149,24.213,13.862,23.717,13.865,23.396
					L13.865,23.396z"/>
			</g>
		</g>
		<g>
			<g>
				<path d="M18.152,20.742c0.485-0.881,1.086-1.721,2.085-2.045c-0.093-0.036-0.186-0.072-0.278-0.108
					c0.298,1.014,0.138,1.883-0.47,2.744c-0.398,0.564-1.102,0.883-1.328,1.553c-0.031,0.091,0.021,0.202,0.127,0.197
					c0.826-0.038,1.583-1.232,1.954-1.872c0.585-1.009,0.833-2.024,0.46-3.155c-0.036-0.11-0.179-0.144-0.278-0.108
					c-1.342,0.473-2.147,1.542-2.748,2.789C17.487,21.133,18.024,20.976,18.152,20.742L18.152,20.742z"/>
			</g>
		</g>
		<g>
			<g>
				<path d="M20.877,18.742c0.417-0.885,1.377-1.168,2.288-1.24c-0.056-0.036-0.112-0.071-0.167-0.107
					c0.149,0.373,0.081,0.646-0.053,1.008c-0.131,0.354,0.257,0.248,0.402,0.07c0.392-0.482,0.575-0.962,0.318-1.557
					c-0.028-0.064-0.093-0.115-0.167-0.107c-1.269,0.13-2.562,0.651-3.045,1.928C20.315,19.102,20.772,18.965,20.877,18.742
					L20.877,18.742z"/>
			</g>
		</g>
		<g>
			<g>
				<path d="M6.662,19.909c0.383,0.399,0.61-0.565,0.494-0.823c-0.15-0.332-0.462-0.619-0.733-0.853
					c-0.164-0.142-0.338-0.246-0.528-0.349c-0.216-0.116-0.7-0.133-0.855-0.277c-0.44-0.408-1.139-0.936-1.783-0.784
					c-0.843,0.197-0.776,1.301-0.505,1.902c0.167,0.37,0.719-0.19,0.661-0.473c-0.062-0.3-0.168-0.579-0.151-0.89
					c0.005-0.093-0.135,0.066-0.071,0.059c0.093-0.011,0.192,0.004,0.283,0.021c0.367,0.072,1.283,0.351,1.419,0.702
					c0.193,0.498,0.676,0.897,1.084,1.229c0.159,0.129,0.304,0.273,0.468,0.396c0.415,0.312,0.026-0.028,0.385-0.205
					C6.735,19.612,6.553,19.796,6.662,19.909L6.662,19.909z"/>
			</g>
		</g>
		<g>
			<g>
				<path d="M5.334,17.901c-0.022,0.062-0.044,0.124-0.065,0.187c-0.39,0.515,0.39,0.589,0.596,0.104
					c0.157-0.371,0.151-0.824,0.175-1.222c0.055-0.909,1.435-1.282,2.167-0.994c0.686,0.27,1.128,1.034,1.299,1.706
					c0.23,0.903-0.096,1.605-0.486,2.388c-0.156,0.312,0.205,0.274,0.363,0.138c1.44-1.247,0.713-4.24-0.858-5.007
					c-1.221-0.595-2.335,0.366-3.098,1.216c-0.384,0.427-0.487,1.515-0.247,2.028c0.179-0.21,0.358-0.42,0.538-0.629
					c-0.02-0.036-0.04-0.071-0.061-0.106C5.615,17.527,5.341,17.799,5.334,17.901L5.334,17.901z"/>
			</g>
		</g>
		<g>
			<g>
				<path d="M10.22,17.913c0.114-0.416,0.329-1.477,0.834-1.644c0.342-0.112,0.662,0.311,0.806,0.558
					c0.571,0.977,0.577,2.271,0.004,3.241c-0.249,0.422,0.375,0.376,0.549,0.096c0.76-1.219,0.909-3.08-0.095-4.223
					c-0.384-0.437-0.961-0.51-1.445-0.193c-0.76,0.498-1.059,1.485-1.263,2.317C9.502,18.509,10.145,18.185,10.22,17.913
					L10.22,17.913z"/>
			</g>
		</g>
		<g>
			<g>
				<path d="M12.999,18.162c-0.008-0.224,0.002-0.434,0.061-0.65c0.039-0.143,0.087-0.156,0.117-0.171
					c0.25-0.12,0.61,0.059,0.821,0.178c0.36,0.203,0.625,0.579,0.792,0.945c0.234,0.511,0.164,0.995,0.179,1.532
					c0.014,0.479,0.647-0.053,0.714-0.262c0.379-1.186-0.298-2.736-1.497-3.146c-1.214-0.415-1.981,0.834-1.854,1.895
					C12.382,18.908,13.009,18.453,12.999,18.162L12.999,18.162z"/>
			</g>
		</g>
		<g>
			<g>
				<path d="M15.816,18.297c-0.026-1.405,0.658-2.345,2.113-2.292c1.256,0.046,2.023,1.068,1.894,2.271
					c-0.053,0.493,0.819-0.019,0.851-0.408c0.134-1.68-1.189-2.953-2.872-2.791c-1.844,0.179-2.96,1.84-2.787,3.604
					C15.064,19.195,15.823,18.645,15.816,18.297L15.816,18.297z"/>
			</g>
		</g>
		<g>
			<g>
				<path d="M20.453,15.937c-0.023-0.297-0.093-0.823,0.039-1.038c0.066-0.107-0.114,0.053,0.004,0.024
					c0.11-0.027,0.25,0.013,0.356,0.042c0.917,0.251,1.113,1.472,1.078,2.261c-0.018,0.396,0.613-0.036,0.638-0.307
					c0.09-1.008-0.232-2.757-1.499-2.925c-1.326-0.176-1.857,1.462-1.508,2.475C19.723,16.937,20.478,16.263,20.453,15.937
					L20.453,15.937z"/>
			</g>
		</g>
		<g>
			<g>
				<path d="M22.842,15.074c-0.023-0.543,0.18-0.93,0.719-1.062c0.498-0.123,0.925,0.192,1.084,0.646
					c0.132,0.375,0.812-0.18,0.708-0.506c-0.258-0.808-1.083-1.102-1.851-0.822c-0.856,0.311-1.432,1.163-1.346,2.074
					C22.196,15.839,22.854,15.377,22.842,15.074L22.842,15.074z"/>
			</g>
		</g>
		<g>
			<g>
				<path d="M1.263,14.298c0.102-0.32,0.199-0.666,0.394-0.944c-0.029,0.042,0.016,0.023,0.165,0.088
					c0.41,0.176,0.727,0.662,0.967,1.014c0.318,0.465,0.607,0.997,0.828,1.515c0.125,0.294,0.208,0.989,0.478,1.155
					c0.181,0.111,0.461-0.18,0.522-0.317c-0.245,0.259-0.294,0.322-0.146,0.191c0.059-0.055,0.113-0.118,0.146-0.191
					c0.063-0.141,0.076-0.237,0.049-0.387c-0.054-0.305-0.145-0.602-0.244-0.895c-0.272-0.805-0.605-1.561-1.091-2.261
					c-0.348-0.502-0.871-0.994-1.528-0.815c-0.869,0.236-1.255,1.278-1.402,2.062C0.277,15.174,1.149,14.652,1.263,14.298
					L1.263,14.298z"/>
			</g>
		</g>
		<g>
			<g>
				<path d="M4.431,14.777c-0.113-0.876,0.023-1.765,1.08-1.389c0.899,0.319,1.549,1.289,1.689,2.2
					c0.075,0.484,0.79-0.029,0.764-0.367c-0.105-1.358-0.987-2.674-2.443-2.767c-1.491-0.094-1.829,1.494-1.611,2.634
					C3.958,15.346,4.458,14.986,4.431,14.777L4.431,14.777z"/>
			</g>
		</g>
		<g>
			<g>
				<path d="M8.022,14.817c-0.052-1.116,0.576-1.718,1.69-1.46c1.103,0.257,1.623,1.234,1.511,2.304
					c-0.043,0.413,0.659,0.008,0.704-0.259c0.254-1.504-0.715-2.747-2.232-2.882c-1.518-0.136-2.545,1.226-2.388,2.641
					C7.358,15.616,8.037,15.132,8.022,14.817L8.022,14.817z"/>
			</g>
		</g>
		<g>
			<g>
				<path d="M11.356,15.564c-0.121,0.252-0.251,0.814-0.081,1.064c0.158,0.231,0.562-0.164,0.62-0.303
					c0.105-0.252,0.092-0.767-0.093-0.979C11.668,15.192,11.409,15.453,11.356,15.564L11.356,15.564z"/>
			</g>
		</g>
		<g>
			<g>
				<path d="M11.294,14.573c0.262,0.037,0.532-0.337,0.721-0.473c0.379-0.271,0.854-0.336,1.209-0.617
					c0.083-0.066,0.237-0.241,0.131-0.352c-0.258-0.269-0.788,0.046-1.062,0.179c-0.375,0.182-0.716,0.463-0.988,0.775
					c-0.1,0.114-0.228,0.297-0.111,0.444C11.221,14.564,11.254,14.568,11.294,14.573L11.294,14.573z"/>
			</g>
		</g>
		<g>
			<g>
				<path d="M14.498,15.442c0.08,0.411,0.13,0.835,0.231,1.24c0.068,0.274,0.619-0.122,0.54-0.387
					c-0.112-0.376-0.334-0.705-0.436-1.094C14.786,15.021,14.468,15.289,14.498,15.442L14.498,15.442z"/>
			</g>
		</g>
		<g>
			<g>
				<path d="M15.898,15.013c-0.089-0.397-0.232-1.072,0.072-1.425c0.203-0.235,0.609-0.212,0.886-0.182
					c0.771,0.086,1.58,0.689,1.714,1.479c0.017,0.1,0.06,0.171,0.173,0.173c0.786,0.009,0.375-0.975,0.132-1.312
					c-0.371-0.514-1.021-0.87-1.634-0.986c-0.601-0.112-1.181,0.049-1.617,0.481c-0.593,0.589-0.535,1.477-0.359,2.224
					C15.342,15.796,15.966,15.314,15.898,15.013L15.898,15.013z"/>
			</g>
		</g>
		<g>
			<g>
				<path d="M18.965,13.914c0.159-0.934,0.59-1.455,1.531-1.008c0.364,0.173,0.67,0.507,0.879,0.844
					c0.266,0.428,0.257,0.888,0.408,1.346c0.133,0.404,0.723-0.158,0.766-0.369c0.246-1.202-0.834-2.566-2.009-2.766
					c-1.345-0.229-2.127,0.983-2.184,2.177C18.338,14.51,18.927,14.136,18.965,13.914L18.965,13.914z"/>
			</g>
		</g>
		<g>
			<g>
				<path d="M22.189,13.067c0.008-0.679,0.179-1.363,0.649-1.874c0.474-0.515,1.185-0.379,1.737-0.096
					c0.307,0.157,0.871-0.505,0.514-0.717c-2.046-1.213-3.711,1.143-3.614,3.03C21.498,13.866,22.186,13.377,22.189,13.067
					L22.189,13.067z"/>
			</g>
		</g>
		<g>
			<g>
				<path d="M0.591,10.318c0.606,0.054,0.833,0.561,0.98,1.085c0.136,0.483,0.011,1.157,0.236,1.593
					c0.181,0.351,0.667-0.119,0.719-0.347c0.138-0.602-0.074-1.443-0.278-2.016c-0.213-0.6-0.708-0.969-1.342-0.974
					C0.623,9.659,0.169,10.28,0.591,10.318L0.591,10.318z"/>
			</g>
		</g>
		<g>
			<g>
				<path d="M2.832,11.245c-0.012-0.222,0-0.427,0.032-0.646c0.003-0.02-0.254,0.068,0.009,0.086
					c0.338,0.022,0.69,0.278,0.949,0.474c0.346,0.262,0.654,0.578,0.918,0.921c0.281,0.365,0.346,0.783,0.557,1.173
					c0.184,0.339,0.706-0.101,0.738-0.356c0.158-1.252-1.137-2.521-2.199-2.964c-1.17-0.487-2.105,0.584-1.659,1.703
					C2.314,11.979,2.844,11.481,2.832,11.245L2.832,11.245z"/>
			</g>
		</g>
		<g>
			<g>
				<path d="M5.827,11.823c0.192-1.087,0.681-1.813,1.825-1.317c0.948,0.412,1.415,1.367,1.692,2.297
					c0.102,0.339,0.68-0.146,0.655-0.391c-0.126-1.237-1.146-2.613-2.432-2.815c-1.506-0.237-2.259,1.195-2.406,2.472
					C5.115,12.456,5.782,12.075,5.827,11.823L5.827,11.823z"/>
			</g>
		</g>
		<g>
			<g>
				<path d="M9.99,12.075c0.178-0.38,0.349-0.755,0.813-0.771c0.327-0.012,0.682,0.174,0.947,0.347
					c0.287,0.188,0.508,0.45,0.745,0.693c0.36,0.37,0.532,0.605,0.599,1.136c0.025,0.197,0.315-0.013,0.31-0.148
					c-0.051-1.146-0.628-2.175-1.711-2.628c-1.044-0.437-1.999,0.477-2.211,1.436C9.397,12.521,9.904,12.26,9.99,12.075L9.99,12.075
					z"/>
			</g>
		</g>
		<g>
			<g>
				<path d="M13.78,12.919c0.118-0.683-0.151-2.088,0.908-2.029c0.427,0.024,0.755,0.29,1.036,0.589
					c0.33,0.35,0.458,1.119,0.888,1.285c0.142,0.054,0.294-0.123,0.329-0.239c0.196-0.65-0.451-1.47-0.914-1.894
					c-0.379-0.348-0.907-0.603-1.429-0.508c-1.204,0.219-2.02,2.009-1.379,3.066C13.372,13.441,13.746,13.117,13.78,12.919
					L13.78,12.919z"/>
			</g>
		</g>
		<g>
			<g>
				<path d="M16.93,11.822c0.013-0.626,0.585-0.561,1.07-0.426c0.253,0.07,0.491,0.197,0.699,0.355
					c0.215,0.163,0.313,0.451,0.526,0.594c0.261,0.175,0.566-0.187,0.592-0.427c0.098-0.884-1.31-1.363-1.981-1.383
					c-0.911-0.026-1.642,0.721-1.603,1.62C16.253,12.6,16.923,12.122,16.93,11.822L16.93,11.822z"/>
			</g>
		</g>
		<g>
			<g>
				<path d="M20.017,11.984c0.128-0.675,0.468-1.322,1.004-1.763c0.214-0.176,0.454-0.267,0.722-0.172
					c0.34,0.12,0.349,0.54,0.669,0.677c0.167,0.072,0.375-0.154,0.409-0.297c0.11-0.459-0.181-0.855-0.577-1.081
					c-0.345-0.196-0.812-0.038-1.131,0.126c-0.961,0.496-1.628,1.646-1.8,2.686C19.228,12.681,19.954,12.312,20.017,11.984
					L20.017,11.984z"/>
			</g>
		</g>
		<g>
			<g>
				<path d="M22.584,9.749c-0.114-0.405-0.138-0.828-0.057-1.242c0.105-0.536,0.378-0.447,0.814-0.266
					c0.299,0.125,0.81-0.462,0.48-0.67c-0.631-0.398-1.35-0.14-1.726,0.47c-0.396,0.641-0.385,1.484-0.183,2.188
					C22.015,10.581,22.672,10.065,22.584,9.749L22.584,9.749z"/>
			</g>
		</g>
		<g>
			<g>
				<path d="M3.052,6.935C3.125,6.707,3.16,6.508,2.981,6.326C2.942,6.288,2.879,6.285,2.83,6.299
					C2.788,6.311,2.746,6.322,2.704,6.335C2.594,6.365,2.488,6.48,2.511,6.6c0.037,0.188,0.152,0.237,0.1,0.444
					C2.529,7.37,2.992,7.119,3.052,6.935L3.052,6.935z"/>
			</g>
		</g>
		<g>
			<g>
				<path d="M2.492,6.482c0.166,0.873,0.046,1.669-0.183,2.516c-0.183,0.676-0.548,1.299-0.595,2.001
					c-0.027,0.401,0.539,0.058,0.633-0.078C3.296,9.544,3.574,7.6,3.171,5.996C3.08,5.63,2.433,6.171,2.492,6.482L2.492,6.482z"/>
			</g>
		</g>
		<g>
			<g>
				<path d="M3.458,7.743C3.664,7.38,4.079,6.486,4.595,6.484c0.379-0.002,0.65,0.576,0.773,0.854
					C5.59,7.839,5.689,8.392,5.741,8.933c0.056,0.577-0.079,1.163-0.012,1.727c0.05,0.423,0.567,0.02,0.662-0.166
					C6.754,9.784,6.696,8.879,6.6,8.106C6.512,7.395,6.323,6.686,5.914,6.089C5.575,5.592,5.028,5.513,4.498,5.717
					C3.691,6.027,3.208,7.01,2.873,7.735C2.643,8.232,3.298,8.023,3.458,7.743L3.458,7.743z"/>
			</g>
		</g>
		<g>
			<g>
				<path d="M6.484,8.659c0.09-0.431,0.204-1.379,0.642-1.628c0.296-0.168,0.691,0.293,0.847,0.479
					c0.712,0.849,0.946,2.07,0.932,3.144c-0.005,0.436,0.663-0.044,0.687-0.33c0.103-1.236-0.352-3.039-1.406-3.81
					C6.801,5.504,6.019,7.916,5.846,8.819C5.756,9.288,6.422,8.955,6.484,8.659L6.484,8.659z"/>
			</g>
		</g>
		<g>
			<g>
				<path d="M9.762,9.235c0.027-0.091,0.17-0.373,0.117-0.331c-0.07,0.057,0.096,0.053,0.186,0.093
					c0.283,0.128,0.508,0.423,0.694,0.659c0.444,0.567,0.73,1.234,0.857,1.939c0.031,0.173,0.286,0.122,0.386,0.074
					c0.211-0.102,0.369-0.305,0.392-0.538c0.091-0.917-0.727-2.086-1.372-2.664C10.148,7.685,9.258,8.43,9.068,9.409
					C8.966,9.934,9.675,9.53,9.762,9.235L9.762,9.235z"/>
			</g>
		</g>
		<g>
			<g>
				<path d="M12.213,10.633c-0.331-1.496,0.36-2.48,1.923-2.343c1.623,0.144,2.388,1.517,2.786,2.909
					c0.126,0.441,0.853-0.194,0.835-0.497c-0.118-1.987-1.981-3.589-3.974-3.317c-1.933,0.264-2.882,1.988-2.333,3.795
					C11.576,11.595,12.29,10.979,12.213,10.633L12.213,10.633z"/>
			</g>
		</g>
		<g>
			<g>
				<path d="M17.815,9.424c0.022-0.216,0.05-0.436,0.092-0.648c0.061-0.306-0.056,0.183-0.321,0.133
					c0.261,0.049,0.474,0.278,0.644,0.463c0.251,0.273,0.43,0.593,0.572,0.933c0.105,0.252,0.115,0.821,0.435,0.882
					c0.22,0.041,0.404-0.094,0.533-0.262c0.63-0.823-0.377-2.428-1.1-2.917c-0.444-0.3-0.959-0.202-1.339,0.165
					c-0.465,0.45-0.577,1.1-0.484,1.717C16.947,10.543,17.775,9.799,17.815,9.424L17.815,9.424z"/>
			</g>
		</g>
		<g>
			<g>
				<path d="M19.792,9.309c0.001-0.278-0.081-1.413,0.335-1.444c0.808-0.062,1.01,0.856,1.49,1.256
					c0.306,0.255,0.862-0.268,0.826-0.595c-0.105-0.942-1.309-1.879-2.254-1.578c-1.177,0.374-1.486,1.752-1.136,2.802
					C19.187,10.153,19.791,9.56,19.792,9.309L19.792,9.309z"/>
			</g>
		</g>
		<g>
			<g>
				<path d="M21.616,7.453c-0.119-0.497-0.41-0.916-0.476-1.431c-0.071-0.556,0.185-0.983,0.475-1.429
					c0.226-0.347-0.028-0.666-0.388-0.388c-1.005,0.777-1.636,3.133-0.099,3.734C21.372,8.035,21.669,7.676,21.616,7.453
					L21.616,7.453z"/>
			</g>
		</g>
		<g>
			<g>
				<path d="M5.45,3.537c0.489,0.317,0.644,0.757,0.516,1.318C5.829,5.451,5.296,5.78,5.132,6.331
					C5.094,6.459,5.159,6.628,5.317,6.616c0.793-0.06,1.308-1.194,1.506-1.854c0.23-0.767,0.041-1.688-0.834-1.858
					C5.756,2.858,5.147,3.342,5.45,3.537L5.45,3.537z"/>
			</g>
		</g>
		<g>
			<g>
				<path d="M6.906,5.078C8.1,3.4,8.273,6.466,8.032,7.272c0.315-0.115,0.631-0.231,0.946-0.347c-0.197-1.226,1.958,0,2.205,0.181
					c0.606,0.444,0.863,1.074,1.291,1.656c0.167,0.228,0.552-0.196,0.583-0.351c0.269-1.328-1.242-2.451-2.36-2.809
					C9.299,5.156,8.601,6.031,8.077,7.15C7.74,7.869,8.789,7.583,8.964,7.04c0.331-1.027,0.279-2.382-0.455-3.23
					C7.71,2.887,6.667,4.391,6.373,4.985C6.154,5.429,6.731,5.325,6.906,5.078L6.906,5.078z"/>
			</g>
		</g>
		<g>
			<g>
				<path d="M13.155,7.584c0.063-0.737,0.21-1.997,1.214-1.533c0.792,0.365,1.155,1.316,1.396,2.082
					c0.104,0.331,0.677-0.141,0.645-0.385c-0.144-1.092-0.828-2.402-2.023-2.578c-1.418-0.21-1.84,1.728-1.879,2.725
					C12.492,8.299,13.132,7.858,13.155,7.584L13.155,7.584z"/>
			</g>
		</g>
		<g>
			<g>
				<path d="M16.517,7.447c-0.021-0.307-0.058-0.611-0.072-0.918c-0.006-0.129-0.002-0.261,0.019-0.389
					c0.015-0.097,0.08-0.193-0.029-0.07c-0.174,0.197-0.151,0.06,0.089,0.104c0.198,0.036,0.387,0.12,0.568,0.202
					c0.409,0.186,0.781,0.445,1.141,0.71c0.326,0.24,0.678,0.644,1.104,0.658c0.223,0.009,0.522-0.269,0.501-0.5
					c-0.052-0.555-0.768-0.973-1.177-1.276c-0.475-0.352-1.027-0.729-1.625-0.815c-1.597-0.231-1.786,1.739-1.373,2.804
					C15.836,8.403,16.538,7.758,16.517,7.447L16.517,7.447z"/>
			</g>
		</g>
		<g>
			<g>
				<path d="M19.269,5.926c-0.236-0.656-0.243-1.396,0.022-2.047c0.036-0.088,0.146-0.405,0.25-0.438
					c0.25-0.076,0.471,0.456,0.539,0.604c0.037,0.081,0.1,0.115,0.188,0.12c0.034,0.002,0.068,0.004,0.102,0.006
					c0.153,0.009,0.298-0.139,0.361-0.263c0.235-0.46-0.088-1.09-0.56-1.282c-0.457-0.186-0.982,0.226-1.27,0.533
					c-0.81,0.866-1.162,2.453-0.459,3.469C18.69,6.986,19.389,6.258,19.269,5.926L19.269,5.926z"/>
			</g>
		</g>
		<g>
			<g>
				<path d="M7.995,4.169C8.679,3.985,9.267,3.62,9.691,3.048c0.375-0.505,0.666-1.457,0.255-2.006
					C9.688,0.696,9.173,1.378,9.156,1.61c-0.03,0.421,0.12,0.801-0.121,1.194C8.818,3.16,8.452,3.359,8.078,3.509
					C7.817,3.612,7.52,4.297,7.995,4.169L7.995,4.169z"/>
			</g>
		</g>
		<g>
			<g>
				<path d="M9.611,2.607c0.9,0.13,1.34,0.726,1.423,1.605c0.089,0.938-0.271,1.667-0.792,2.4c-0.3,0.423,0.041,0.772,0.465,0.465
					c1.564-1.133,1.932-5.731-0.89-5.032C9.625,2.094,9.249,2.556,9.611,2.607L9.611,2.607z"/>
			</g>
		</g>
		<g>
			<g>
				<path d="M11.669,5.738c0.17-0.503,0.614-0.906,1.161-0.908c0.225-0.001,0.401,0.104,0.545,0.269
					c0.211,0.242,0.108,0.63,0.346,0.835c0.194,0.168,0.478-0.111,0.562-0.273c0.229-0.446,0.088-0.985-0.233-1.354
					c-0.272-0.312-0.706-0.339-1.084-0.289c-0.94,0.124-1.728,1.021-1.971,1.89c-0.05,0.177,0.081,0.297,0.253,0.254
					C11.452,6.108,11.604,5.931,11.669,5.738L11.669,5.738z"/>
			</g>
		</g>
		<g>
			<g>
				<path d="M14.547,5.056c-0.001-0.695,0.074-1.827,1.037-1.598c0.848,0.202,1.134,0.971,1.607,1.588
					c0.231,0.302,0.697-0.312,0.651-0.554c-0.188-0.987-1.338-2.04-2.388-1.853c-1.301,0.231-1.69,1.644-1.672,2.783
					C13.791,5.896,14.547,5.397,14.547,5.056L14.547,5.056z"/>
			</g>
		</g>
		<g>
			<g>
				<path d="M17.838,3.496c-0.105-0.602-0.088-1.29,0.451-1.674c-0.147,0.037-0.294,0.073-0.441,0.11
					c0.13,0.067,0.173,0.21,0.276,0.306c0.115,0.105,0.264,0.057,0.392,0.009c0.632-0.242,0.488-0.943-0.033-1.201
					c-0.136-0.067-0.334,0.032-0.441,0.11c-0.952,0.697-1.249,1.717-0.883,2.826C17.284,4.365,17.889,3.789,17.838,3.496
					L17.838,3.496z"/>
			</g>
		</g>
		<g>
			<g>
				<path d="M11.516,3.679c0.798-0.554,1.738-1.252,2.057-2.213c0.138-0.415,0.084-0.833-0.274-1.111
					c-0.438-0.34-1.066-0.053-1.174,0.475c-0.018,0.089-0.037,0.258,0.059,0.319c0.45,0.295,0.476,0.437,0.169,0.875
					c-0.31,0.443-0.737,0.823-1.131,1.189C10.893,3.517,11.092,3.974,11.516,3.679L11.516,3.679z"/>
			</g>
		</g>
		<g>
			<g>
				<path d="M15.375,2.552c-0.202-0.338-0.568-0.524-0.829-0.817c-0.312-0.35-0.457-0.756-0.383-1.223
					c0.086-0.552-0.538-0.23-0.72-0.011c-0.439,0.53-0.484,1.16-0.152,1.754c0.286,0.513,0.902,1.033,1.52,0.959
					C15.032,3.187,15.551,2.846,15.375,2.552L15.375,2.552z"/>
			</g>
		</g>
		<g>
			<g>
				<path d="M16.433,20.404c-0.478,0.876-1.065,1.745-1.448,2.667c-0.063,0.152,0.115,0.107,0.175,0.03
					c0.635-0.805,1.079-1.797,1.569-2.693C16.858,20.173,16.516,20.253,16.433,20.404L16.433,20.404z"/>
			</g>
		</g>
		<g>
			<g>
				<path d="M17.656,17.656c0,0.52-0.045,1.04-0.028,1.559c0.005,0.158,0.216-0.017,0.238-0.088c0.161-0.53,0.141-1.09,0.142-1.639
					C18.008,17.272,17.656,17.498,17.656,17.656L17.656,17.656z"/>
			</g>
		</g>
		<g>
			<g>
				<path d="M18.978,19.703c-0.235,0.684-0.561,1.296-0.853,1.951c-0.071,0.162,0.108,0.164,0.195,0.074
					c0.549-0.572,0.789-1.382,1.032-2.119C19.439,19.348,19.033,19.541,18.978,19.703L18.978,19.703z"/>
			</g>
		</g>
		<g>
			<g>
				<path d="M8.095,21.976c0.328,0.397,0.62,0.82,0.957,1.21c0.086,0.1,0.302-0.12,0.227-0.227c-0.299-0.426-0.568-0.871-0.877-1.29
					C8.302,21.534,7.976,21.832,8.095,21.976L8.095,21.976z"/>
			</g>
		</g>
		<g>
			<g>
				<path d="M12.212,21.337c0.034,0.437,0.031,0.867-0.006,1.304c-0.03,0.352-0.197,0.758-0.073,1.098
					c0.034,0.094,0.172-0.003,0.201-0.05c0.418-0.697,0.355-1.765,0.284-2.547C12.595,20.887,12.198,21.154,12.212,21.337
					L12.212,21.337z"/>
			</g>
		</g>
		<g>
			<g>
				<path d="M11.139,17.954c-0.098,0.604-0.316,1.154-0.467,1.742c-0.06,0.233,0.249,0.058,0.303-0.038
					c0.31-0.546,0.454-1.184,0.548-1.8C11.567,17.574,11.169,17.772,11.139,17.954L11.139,17.954z"/>
			</g>
		</g>
		<g>
			<g>
				<path d="M6.99,17.032c0.323,0.638,0.693,1.27,1.123,1.843c0.089,0.118,0.338-0.129,0.288-0.244
					c-0.286-0.65-0.73-1.222-1.06-1.851C7.246,16.602,6.913,16.881,6.99,17.032L6.99,17.032z"/>
			</g>
		</g>
		<g>
			<g>
				<path d="M3.909,18.612c0.267,0.499,0.547,0.989,0.829,1.479c0.237,0.412,0.424,1.02,0.855,1.248
					c0.075,0.04,0.178-0.085,0.177-0.15c-0.007-0.505-0.396-0.947-0.652-1.369c-0.293-0.482-0.585-0.964-0.863-1.454
					C4.155,18.192,3.831,18.467,3.909,18.612L3.909,18.612z"/>
			</g>
		</g>
		<g>
			<g>
				<path d="M2.162,15.193c0.127,0.348,0.249,0.696,0.37,1.046c0.118,0.339,0.192,0.759,0.45,1.017
					c0.08,0.079,0.216-0.079,0.215-0.155c0-0.332-0.141-0.625-0.253-0.935c-0.146-0.406-0.291-0.812-0.443-1.215
					C2.434,14.773,2.106,15.038,2.162,15.193L2.162,15.193z"/>
			</g>
		</g>
		<g>
			<g>
				<path d="M5.502,14.447c-0.069,0.315-0.219,0.852,0.004,1.116c0.044,0.053,0.133-0.036,0.151-0.073
					c0.165-0.349,0.094-0.749,0.17-1.125C5.875,14.127,5.535,14.297,5.502,14.447L5.502,14.447z"/>
			</g>
		</g>
		<g>
			<g>
				<path d="M9.882,14.835c0.038,0.326,0.056,0.648,0.052,0.978c-0.002,0.269-0.074,0.513,0.02,0.768
					c0.046,0.123,0.215-0.032,0.243-0.09c0.269-0.551,0.165-1.257,0.084-1.847C10.247,14.393,9.861,14.656,9.882,14.835
					L9.882,14.835z"/>
			</g>
		</g>
		<g>
			<g>
				<path d="M13.472,14.665c-0.001,0.507-0.128,1.192,0.066,1.665c0.056,0.136,0.235-0.054,0.255-0.123
					c0.159-0.536,0.067-1.171,0.065-1.728C13.857,14.24,13.472,14.491,13.472,14.665L13.472,14.665z"/>
			</g>
		</g>
		<g>
			<g>
				<path d="M16.808,14.498c0.018,0.292,0.047,0.547,0.241,0.774c0.086,0.101,0.251-0.099,0.251-0.182
					c0.001-0.276-0.087-0.496-0.112-0.776C17.167,14.075,16.797,14.328,16.808,14.498L16.808,14.498z"/>
			</g>
		</g>
		<g>
			<g>
				<path d="M13.726,9.375c0.075,0.379,0.113,0.818,0.325,1.146c0.074,0.115,0.242-0.111,0.249-0.179
					c0.038-0.414-0.109-0.835-0.194-1.238C14.062,8.906,13.69,9.194,13.726,9.375L13.726,9.375z"/>
			</g>
		</g>
		<g>
			<g>
				<path d="M11.158,12.363c0.09,0.35,0.176,0.851,0.48,1.069c0.096,0.069,0.243-0.073,0.239-0.172
					c-0.013-0.396-0.26-0.766-0.372-1.146C11.451,11.93,11.116,12.202,11.158,12.363L11.158,12.363z"/>
			</g>
		</g>
		<g>
			<g>
				<path d="M7.151,11.618c0.147,0.292,0.255,0.591,0.342,0.905c0.096,0.347,0.064,0.782,0.248,1.09
					c0.094,0.158,0.327-0.046,0.349-0.168c0.119-0.666-0.251-1.517-0.578-2.085C7.408,11.18,7.073,11.463,7.151,11.618L7.151,11.618
					z"/>
			</g>
		</g>
		<g>
			<g>
				<path d="M7.327,8.361c0.079,0.431,0.128,0.896,0.291,1.305c0.056,0.141,0.269-0.064,0.266-0.159
					C7.87,9.042,7.764,8.572,7.669,8.117C7.631,7.938,7.298,8.201,7.327,8.361L7.327,8.361z"/>
			</g>
		</g>
		<g>
			<g>
				<path d="M4.457,8.672c0.065,0.465-0.081,0.863-0.125,1.314c-0.018,0.178,0.246,0.029,0.286-0.035
					c0.271-0.44,0.332-0.973,0.255-1.479C4.833,8.212,4.431,8.486,4.457,8.672L4.457,8.672z"/>
			</g>
		</g>
		<g>
			<g>
				<path d="M1.946,8.512c0,0.282-0.05,0.521,0.103,0.761c0.057,0.089,0.214-0.063,0.235-0.114c0.119-0.296,0.101-0.537,0.101-0.857
					C2.383,8.03,1.946,8.314,1.946,8.512L1.946,8.512z"/>
			</g>
		</g>
		<g>
			<g>
				<path d="M21.98,18.828c-0.019,0.316-0.073,0.623-0.288,0.873c-0.089,0.104-0.155,0.168-0.224,0.287
					c-0.028,0.047-0.021,0.133,0.051,0.13c0.634-0.025,0.826-0.979,0.831-1.468C22.353,18.418,21.989,18.669,21.98,18.828
					L21.98,18.828z"/>
			</g>
		</g>
		<g>
			<g>
				<path d="M20.909,16.195c0.101,0.163,0.087,0.157,0.255,0.243c0.082,0.042,0.215-0.096,0.204-0.175
					c-0.026-0.193-0.021-0.188-0.134-0.345C21.141,15.788,20.83,16.068,20.909,16.195L20.909,16.195z"/>
			</g>
		</g>
		<g>
			<g>
				<path d="M23.72,12.046c0.063,0.316,0.101,0.627,0.073,0.948c0,0.033,0.01,0.062,0.033,0.087
					c0.017,0.011,0.033,0.021,0.049,0.031c0.07,0.045,0.142,0,0.197-0.05c0.353-0.315,0.145-0.9,0.039-1.296
					C24.054,11.555,23.684,11.867,23.72,12.046L23.72,12.046z"/>
			</g>
		</g>
		<g>
			<g>
				<path d="M20.324,8.697c0.085,0.332,0.164,0.729,0.39,0.992c0.089,0.104,0.25-0.103,0.254-0.183
					c0.022-0.378-0.184-0.704-0.296-1.06C20.612,8.261,20.283,8.537,20.324,8.697L20.324,8.697z"/>
			</g>
		</g>
		<g>
			<g>
				<path d="M21.83,6.408c0.226,0.281,0.433,0.569,0.614,0.882c0.146,0.252,0.212,0.543,0.425,0.746
					c0.104,0.1,0.283-0.101,0.281-0.202c-0.011-0.635-0.592-1.297-0.983-1.764C22.043,5.924,21.705,6.252,21.83,6.408L21.83,6.408z"
					/>
			</g>
		</g>
		<g>
			<g>
				<path d="M15.54,4.506c0.01,0.318-0.003,0.72,0.146,1.005c0.076,0.146,0.267-0.053,0.293-0.142
					c0.103-0.352-0.007-0.701-0.022-1.062C15.945,4.047,15.534,4.319,15.54,4.506L15.54,4.506z"/>
			</g>
		</g>
		<g>
			<g>
				<path d="M9.946,4.044C9.789,4.561,9.48,5.078,9.41,5.615C9.376,5.869,9.674,5.688,9.737,5.574
					c0.28-0.507,0.479-1.086,0.647-1.64C10.477,3.627,10.006,3.849,9.946,4.044L9.946,4.044z"/>
			</g>
		</g>
		<g>
			<g>
				<path d="M7.943,3.007C7.592,3.271,7.235,3.521,6.926,3.834C6.844,3.917,6.838,4.114,7,4.029c0.379-0.2,0.711-0.467,1.054-0.724
					C8.257,3.152,8.21,2.807,7.943,3.007L7.943,3.007z"/>
			</g>
		</g>
	</g>
</g>
<g id="DESIGNED_BY_FREEPIK">
</g>
</svg>
