<?xml version="1.0" encoding="utf-8"?>
<!-- Generator: Adobe Illustrator 16.0.0, SVG Export Plug-In . SVG Version: 6.00 Build 0)  -->
<!DOCTYPE svg PUBLIC "-//W3C//DTD SVG 1.1//EN" "http://www.w3.org/Graphics/SVG/1.1/DTD/svg11.dtd">
<svg version="1.1" xmlns="http://www.w3.org/2000/svg" xmlns:xlink="http://www.w3.org/1999/xlink" x="0px" y="0px"
	 width="59.155px" height="143.473px" viewBox="0 0 59.155 143.473" enable-background="new 0 0 59.155 143.473"
	 xml:space="preserve">
<g id="BACKGROUND">
</g>
<g id="OBJECTS">
	<g>
		<g>
			<g>
				<path d="M18.494,142.682c3.405-15.741,5.707-31.686,7.86-47.637C28.5,79.152,30.162,63.184,31,47.166
					c0.294-5.614,0.495-11.232,0.438-16.854c-0.057-5.613-0.111-11.245,0.507-16.833c0.097-0.872-1.451,0.033-1.508,0.725
					c-0.654,7.965-0.052,15.963-0.258,23.941c-0.206,8.016-0.65,16.025-1.276,24.02c-1.276,16.279-3.414,32.489-6.141,48.586
					c-1.821,10.754-3.816,21.481-5.542,32.25C17.066,143.954,18.368,143.264,18.494,142.682L18.494,142.682z"/>
			</g>
		</g>
		<g>
			<g>
				<path d="M20.328,133.193c2.292-2.921,4.531-5.966,7.403-8.355c1.466-1.219,3.016-2.307,4.616-3.342
					c2.041-1.32,4.239-2.325,6.305-3.583c0.196-0.12,0.396-0.65-0.008-0.557c-2.218,0.512-4.288,2.048-6.208,3.219
					c-1.823,1.112-3.625,2.29-5.306,3.608c-3.143,2.465-5.843,5.28-7.661,8.86C19.102,133.768,20.041,133.559,20.328,133.193
					L20.328,133.193z"/>
			</g>
		</g>
		<g>
			<g>
				<path d="M40.566,116.973c2.96-1.561,6.225-2.49,9.128-4.146c0.389-0.221,0.66-1.138-0.01-0.805
					c-3.045,1.512-6.131,2.99-9.122,4.604C40.385,116.721,40.287,117.121,40.566,116.973L40.566,116.973z"/>
			</g>
		</g>
		<g>
			<g>
				<path d="M37.124,118.835c2.338-1.657,3.961-4.128,6.102-6c0.715-0.626-0.189-1.193-0.688-0.435
					c-1.533,2.329-3.724,4.112-5.587,6.16C36.78,118.747,36.866,119.018,37.124,118.835L37.124,118.835z"/>
			</g>
		</g>
		<g>
			<g>
				<path d="M22.534,119.024c0.873-6.512-1.706-13.312-4.056-19.246c-1.253-3.164-2.657-6.263-4.348-9.217
					c-1.663-2.905-3.322-6.134-5.705-8.523c-0.227-0.227-0.719,0.288-0.539,0.538c3.902,5.417,6.843,11.447,9.265,17.664
					c1.239,3.181,2.166,6.528,2.887,9.862c0.679,3.133,0.961,6.207,1.22,9.391C21.323,120.288,22.471,119.495,22.534,119.024
					L22.534,119.024z"/>
			</g>
		</g>
		<g>
			<g>
				<path d="M20.633,109.322c0.342-3.713-1.886-7.287-4.017-10.143c-2.205-2.956-5.025-6.032-8.288-7.813
					c-0.052-0.029-0.144,0.075-0.105,0.123c2.227,2.739,5.073,4.927,7.35,7.649c2.577,3.082,4.062,6.439,4.606,10.402
					C20.221,109.847,20.617,109.5,20.633,109.322L20.633,109.322z"/>
			</g>
		</g>
		<g>
			<g>
				<path d="M14.838,97.125c-0.941-0.73-1.974-0.99-3.135-1.153c-1.175-0.166-2.694-0.496-3.861-0.284
					c-0.123,0.022-0.455,0.329-0.276,0.459c0.754,0.55,2.181,0.368,3.083,0.437c1.286,0.098,2.744,0.235,3.861,0.928
					C14.66,97.605,14.991,97.243,14.838,97.125L14.838,97.125z"/>
			</g>
		</g>
		<g>
			<g>
				<path d="M22.047,117.494c0.189-1.984-1.21-3.643-2.821-4.638c-1.023-0.633-2.146-1.161-3.276-1.57
					c-0.847-0.307-1.898-0.766-2.815-0.696c-0.113,0.008-0.474,0.28-0.291,0.404c0.59,0.401,1.412,0.519,2.074,0.785
					c0.974,0.391,1.956,0.849,2.825,1.438c1.635,1.109,3.428,2.508,3.521,4.653C21.287,118.387,22.018,117.805,22.047,117.494
					L22.047,117.494z"/>
			</g>
		</g>
		<g>
			<g>
				<path d="M25.725,99.257c3.104-3.027,5.957-6.371,8.604-9.803c2.794-3.622,5.671-7.231,8.248-11.014
					c0.342-0.501-0.265-0.564-0.539-0.199c-2.65,3.527-5.237,7.064-8.132,10.4c-2.91,3.354-5.875,6.662-8.764,10.033
					C24.609,99.299,25.117,99.85,25.725,99.257L25.725,99.257z"/>
			</g>
		</g>
		<g>
			<g>
				<path d="M33.138,90.055c2.61-2.046,5.686-3.288,8.496-5.007c0.235-0.144,0.271-0.662-0.079-0.457
					c-2.864,1.677-5.961,2.961-8.575,5.037C32.698,89.852,32.761,90.35,33.138,90.055L33.138,90.055z"/>
			</g>
		</g>
		<g>
			<g>
				<path d="M27.056,85.731c-0.458-2.025-1.576-3.806-2.688-5.53c-0.683-1.057-1.465-2.049-2.164-3.098
					c-0.595-0.894-1.106-1.969-1.855-2.74c-0.15-0.154-0.453,0.173-0.396,0.336c0.287,0.82,0.906,1.548,1.4,2.252
					c0.722,1.029,1.387,2.08,2.072,3.132c1.215,1.866,2.52,3.856,3.092,6.034C26.591,86.404,27.113,85.983,27.056,85.731
					L27.056,85.731z"/>
			</g>
		</g>
		<g>
			<g>
				<path d="M19.33,73.343c0.153,0,0.371-0.338,0.163-0.338C19.339,73.005,19.122,73.343,19.33,73.343L19.33,73.343z"/>
			</g>
		</g>
		<g>
			<g>
				<path d="M29.802,62.286c0.361-0.73,0.77-1.435,1.188-2.134c0.347-0.578,0.896-1.144,1.06-1.803
					c0.052-0.208-0.178-0.211-0.299-0.116c-0.564,0.44-0.898,1.127-1.264,1.732c-0.448,0.743-0.816,1.519-1.159,2.314
					C29.155,62.682,29.681,62.531,29.802,62.286L29.802,62.286z"/>
			</g>
		</g>
		<g>
			<g>
				<path d="M29.819,62.679c1.989-1.045,3.783-2.668,5.536-4.062c1.712-1.361,3.382-2.857,4.68-4.627
					c0.246-0.336-0.138-0.507-0.377-0.238c-1.495,1.681-3.044,3.215-4.822,4.601c-1.688,1.314-3.68,2.36-5.18,3.896
					C29.476,62.433,29.461,62.867,29.819,62.679L29.819,62.679z"/>
			</g>
		</g>
		<g>
			<g>
				<path d="M30.48,52.818c-0.276-2.288-1.354-4.339-2.532-6.287c-1.356-2.241-3.063-4.422-4.86-6.324
					c-1.783-1.887-3.69-3.692-5.737-5.29c-2.231-1.742-4.646-2.93-7.23-4.086c-0.192-0.086-0.599,0.327-0.404,0.475
					c1.167,0.885,2.611,1.368,3.911,2.026c1.135,0.574,2.185,1.344,3.2,2.107c1.967,1.48,3.719,3.335,5.332,5.182
					c3.25,3.722,6.312,7.734,7.751,12.536C29.999,53.45,30.506,53.033,30.48,52.818L30.48,52.818z"/>
			</g>
		</g>
		<g>
			<g>
				<path d="M21.571,38.523c-1.146-2.197-2.039-4.463-3.84-6.232c-0.138-0.136-0.459,0.187-0.331,0.331
					c1.622,1.828,2.375,4.215,3.66,6.268C21.216,39.142,21.686,38.743,21.571,38.523L21.571,38.523z"/>
			</g>
		</g>
		<g>
			<g>
				<path d="M19.181,72.481c-1.978-3.29-3.384-6.899-5.5-10.108c-2.103-3.189-5.467-5.343-9.279-5.815
					c-0.188-0.023-0.519,0.427-0.283,0.475c1.963,0.396,3.796,0.928,5.464,2.083c1.403,0.972,2.545,2.466,3.495,3.86
					c2.143,3.144,3.499,6.757,5.592,9.939C18.807,73.122,19.304,72.685,19.181,72.481L19.181,72.481z"/>
			</g>
		</g>
		<g>
			<g>
				<path d="M14.176,62.734c-0.471-0.958-0.758-1.922-0.991-2.96c-0.197-0.875-0.453-1.885-1.042-2.583
					c-0.083-0.097-0.255,0.104-0.229,0.195c0.302,1.053,0.543,2.079,0.748,3.161c0.178,0.941,0.408,1.853,1.012,2.614
					C13.834,63.362,14.276,62.937,14.176,62.734L14.176,62.734z"/>
			</g>
		</g>
		<g>
			<g>
				<path d="M11.958,56.676c-0.129-0.57-0.473-1.199-1.036-1.442c-0.147-0.063-0.458,0.257-0.307,0.361
					c0.521,0.355,0.843,0.692,0.998,1.329C11.658,57.103,11.995,56.839,11.958,56.676L11.958,56.676z"/>
			</g>
		</g>
		<g>
			<g>
				<path d="M16.283,66.556c-0.308-2.395-0.872-4.846-0.15-7.218c0.147-0.483-0.603-0.145-0.693,0.174
					c-0.698,2.437-0.119,4.913,0.359,7.333C15.846,67.083,16.307,66.749,16.283,66.556L16.283,66.556z"/>
			</g>
		</g>
		<g>
			<g>
				<path d="M17.302,67.921c-0.043-0.501-0.018-0.986,0.095-1.479c0.083-0.364,0.413-0.76,0.376-1.132
					c-0.017-0.175-0.197-0.122-0.3-0.058c-0.855,0.531-0.843,2.063-0.702,2.924C16.825,68.514,17.322,68.157,17.302,67.921
					L17.302,67.921z"/>
			</g>
		</g>
		<g>
			<g>
				<path d="M31.207,43.486c0.151-1.57,0.387-3.013,1.071-4.446c0.642-1.343,1.673-2.508,2.641-3.622
					c2.127-2.45,4.318-4.849,6.456-7.291c2.343-2.677,4.622-5.406,6.897-8.139c2.19-2.63,4.19-5.384,6.256-8.11
					c0.248-0.328-0.126-0.474-0.365-0.23c-1.158,1.177-2.1,2.568-3.079,3.892c-1.075,1.454-2.223,2.844-3.37,4.241
					c-2.607,3.175-5.379,6.217-8.116,9.28c-2.162,2.419-4.545,4.685-6.576,7.213c-1.677,2.087-2.923,4.865-2.598,7.588
					C30.487,44.39,31.177,43.792,31.207,43.486L31.207,43.486z"/>
			</g>
		</g>
		<g>
			<g>
				<path d="M40.095,29.206c0.611-0.583,1.253-1.124,1.91-1.654c0.549-0.443,1.315-0.844,1.685-1.456
					c0.035-0.06,0.094-0.232-0.042-0.221c-0.678,0.056-1.326,0.748-1.837,1.153c-0.719,0.57-1.388,1.209-2.028,1.864
					C39.467,29.215,39.771,29.516,40.095,29.206L40.095,29.206z"/>
			</g>
		</g>
		<g>
			<g>
				<path d="M47.654,23.514c0.307-0.287,0.638-0.517,1.011-0.709c0.37-0.192,0.784-0.271,1.151-0.46
					c0.084-0.043,0.329-0.376,0.091-0.363c-0.879,0.049-1.831,0.754-2.433,1.354C47.292,23.518,47.466,23.688,47.654,23.514
					L47.654,23.514z"/>
			</g>
		</g>
		<g>
			<g>
				<path d="M40.786,28.868c3.928,0.067,7.818-0.614,11.752-0.505c0.286,0.008,0.689-0.62,0.303-0.628
					c-3.918-0.085-7.834,0.381-11.748,0.495C40.815,28.238,40.384,28.861,40.786,28.868L40.786,28.868z"/>
			</g>
		</g>
		<g>
			<g>
				<path d="M41.878,28.418c3.956-1.283,8.012-2.892,11.252-5.565c0.228-0.188,0.194-0.599-0.133-0.356
					c-3.328,2.468-7.104,4.078-10.998,5.435C41.792,28.003,41.535,28.529,41.878,28.418L41.878,28.418z"/>
			</g>
		</g>
		<g>
			<g>
				<path d="M31.106,30.475c0.347-3.218-1.238-6.672-3.034-9.254c-1.99-2.859-4.545-5.273-5.839-8.541
					c-0.069-0.174-0.357,0.075-0.341,0.204c0.17,1.36,1.069,2.4,1.863,3.463c0.512,0.685,0.812,1.55,1.253,2.288
					c0.479,0.802,0.946,1.608,1.402,2.423c1.787,3.198,3.273,6.173,3.865,9.818C30.366,31.437,31.071,30.797,31.106,30.475
					L31.106,30.475z"/>
			</g>
		</g>
		<g>
			<g>
				<path d="M29.344,23.474c-1.697-3.283-2.9-6.857-3.185-10.56c-0.284-3.703,0.136-7.508,0.645-11.174
					c0.049-0.354-0.445-0.108-0.479,0.119c-1.082,7.49-1.79,15.387,2.49,22.064C28.956,24.14,29.456,23.69,29.344,23.474
					L29.344,23.474z"/>
			</g>
		</g>
		<g>
			<g>
				<path d="M26.004,15.55c0.114,0,0.275-0.251,0.121-0.251C26.012,15.299,25.85,15.55,26.004,15.55L26.004,15.55z"/>
			</g>
		</g>
		<g>
			<g>
				<path d="M26.326,15.174c-0.243-2.979,2.542-5.588,4.394-7.595c0.298-0.323-0.004-0.634-0.309-0.309
					c-1.99,2.122-4.926,4.97-4.606,8.155C25.837,15.752,26.345,15.408,26.326,15.174L26.326,15.174z"/>
			</g>
		</g>
		<g>
			<g>
				<path d="M28.572,22.191c-0.626-0.186-1.432,0.082-2.072,0.134c-0.627,0.052-1.189,0.055-1.674,0.485
					c-0.075,0.066-0.12,0.169-0.1,0.268c0.011,0.053,0.022,0.106,0.033,0.16c0.023,0.06,0.065,0.102,0.125,0.125
					c1.09,0.195,2.576,0.03,3.531-0.544C28.551,22.737,28.873,22.28,28.572,22.191L28.572,22.191z"/>
			</g>
		</g>
		<g>
			<path d="M8.486,77.489c-0.457,0.063-0.881,0.228-1.123,0.442c-0.884,0.784-0.821,2.57,0.359,3.042
				c1.193,0.477,3.033-0.287,2.625-2.006C10.148,78.127,9.315,77.374,8.486,77.489z"/>
		</g>
		<g>
			<path d="M18.071,58.539c-0.457,0.063-0.881,0.228-1.123,0.442c-0.884,0.784-0.821,2.57,0.359,3.042
				c1.193,0.477,3.033-0.287,2.625-2.006C19.733,59.178,18.9,58.424,18.071,58.539z"/>
		</g>
		<g>
			<path d="M9.034,26.368c-0.457,0.063-0.881,0.228-1.123,0.442c-0.884,0.784-0.821,2.57,0.359,3.042
				c1.193,0.477,3.033-0.287,2.625-2.006C10.696,27.007,9.863,26.253,9.034,26.368z"/>
		</g>
		<g>
			<path d="M20.468,29.276c-0.457,0.063-0.881,0.228-1.123,0.442c-0.884,0.784-0.821,2.57,0.359,3.042
				c1.193,0.477,3.033-0.287,2.625-2.006C22.13,29.915,21.297,29.161,20.468,29.276z"/>
		</g>
		<g>
			<path d="M24.427,3.8c-0.457,0.063-0.881,0.228-1.123,0.442c-0.884,0.784-0.821,2.57,0.359,3.042
				c1.193,0.477,3.033-0.287,2.625-2.006C26.089,4.439,25.256,3.685,24.427,3.8z"/>
		</g>
		<g>
			<path d="M21.109,12.611c-0.457,0.063-0.881,0.228-1.123,0.442c-0.884,0.784-0.821,2.57,0.359,3.042
				c1.193,0.477,3.033-0.287,2.625-2.006C22.771,13.25,21.938,12.496,21.109,12.611z"/>
		</g>
		<g>
			<path d="M9.351,32.844c-0.457,0.063-0.881,0.228-1.123,0.442c-0.884,0.784-0.821,2.57,0.359,3.042
				c1.193,0.477,3.033-0.287,2.625-2.006C11.013,33.482,10.18,32.729,9.351,32.844z"/>
		</g>
		<g>
			<path d="M31.916,6.16c-0.457,0.063-0.882,0.228-1.123,0.442c-0.885,0.784-0.821,2.57,0.359,3.042
				c1.192,0.477,3.032-0.287,2.625-2.006C33.578,6.799,32.744,6.045,31.916,6.16z"/>
		</g>
		<g>
			<path d="M41.998,53.618c-0.457,0.063-0.883,0.228-1.123,0.442c-0.885,0.784-0.822,2.57,0.359,3.042
				c1.191,0.477,3.031-0.287,2.625-2.006C43.66,54.257,42.826,53.503,41.998,53.618z"/>
		</g>
		<g>
			<path d="M56.57,8.868c-0.457,0.063-0.881,0.228-1.121,0.442c-0.885,0.784-0.822,2.57,0.357,3.042
				c1.193,0.477,3.033-0.287,2.625-2.006C58.232,9.507,57.4,8.753,56.57,8.868z"/>
		</g>
		<g>
			<path d="M6.562,91.527c-0.457,0.063-0.881,0.228-1.123,0.442c-0.884,0.784-0.821,2.57,0.359,3.042
				c1.193,0.477,3.033-0.287,2.625-2.006C8.224,92.166,7.391,91.412,6.562,91.527z"/>
		</g>
		<g>
			<path d="M18.814,75.878c-0.457,0.063-0.881,0.228-1.123,0.442c-0.884,0.784-0.821,2.57,0.359,3.042
				c1.193,0.477,3.033-0.287,2.625-2.006C20.477,76.517,19.644,75.763,18.814,75.878z"/>
		</g>
		<g>
			<path d="M6.287,52.488c-0.457,0.063-0.881,0.228-1.123,0.442c-0.884,0.784-0.821,2.57,0.359,3.042
				c1.193,0.477,3.033-0.287,2.625-2.006C7.949,53.126,7.116,52.373,6.287,52.488z"/>
		</g>
		<g>
			<path d="M41.802,73.853c-0.457,0.063-0.881,0.228-1.121,0.442c-0.885,0.784-0.822,2.57,0.357,3.042
				c1.193,0.477,3.033-0.287,2.625-2.006C43.464,74.492,42.632,73.738,41.802,73.853z"/>
		</g>
		<g>
			<path d="M45.986,51.573c-0.457,0.063-0.881,0.228-1.123,0.442c-0.883,0.784-0.82,2.57,0.359,3.042
				c1.193,0.477,3.033-0.287,2.625-2.006C47.648,52.212,46.816,51.458,45.986,51.573z"/>
		</g>
		<g>
			<path d="M44.65,17.399c-0.457,0.063-0.883,0.228-1.123,0.442c-0.885,0.784-0.822,2.57,0.359,3.042
				c1.191,0.477,3.031-0.287,2.625-2.006C46.312,18.038,45.478,17.284,44.65,17.399z"/>
		</g>
		<g>
			<path d="M32.491,54.843c-0.457,0.063-0.882,0.228-1.122,0.442c-0.885,0.784-0.822,2.57,0.358,3.042
				c1.192,0.477,3.032-0.287,2.625-2.006C34.153,55.482,33.32,54.728,32.491,54.843z"/>
		</g>
		<g>
			<path d="M33.738,3.285c-0.457,0.063-0.881,0.228-1.123,0.442c-0.884,0.784-0.82,2.57,0.359,3.042
				c1.193,0.477,3.033-0.287,2.625-2.006C35.4,3.923,34.567,3.169,33.738,3.285z"/>
		</g>
		<g>
			<path d="M51.986,27.458c-0.457,0.063-0.881,0.228-1.123,0.442c-0.883,0.784-0.82,2.57,0.359,3.042
				c1.193,0.477,3.033-0.287,2.625-2.006C53.648,28.097,52.814,27.343,51.986,27.458z"/>
		</g>
		<g>
			<path d="M45.986,82.687c-0.457,0.063-0.881,0.228-1.123,0.442c-0.883,0.784-0.82,2.57,0.359,3.042
				c1.193,0.477,3.033-0.287,2.625-2.006C47.648,83.325,46.816,82.571,45.986,82.687z"/>
		</g>
		<g>
			<path d="M8.873,97.161c-0.29,0.04-0.558,0.145-0.71,0.28c-0.56,0.497-0.52,1.627,0.227,1.926c0.755,0.302,1.92-0.182,1.662-1.27
				C9.925,97.565,9.398,97.088,8.873,97.161z"/>
		</g>
		<g>
			<path d="M8.82,60.142c-0.29,0.04-0.558,0.145-0.71,0.28c-0.56,0.497-0.52,1.627,0.227,1.926c0.755,0.302,1.92-0.182,1.662-1.27
				C9.872,60.546,9.345,60.069,8.82,60.142z"/>
		</g>
		<g>
			<path d="M19.35,56.156c-0.29,0.04-0.558,0.145-0.71,0.28c-0.56,0.497-0.52,1.627,0.227,1.926c0.755,0.302,1.92-0.182,1.662-1.27
				C20.402,56.56,19.875,56.083,19.35,56.156z"/>
		</g>
		<g>
			<path d="M54.935,12.807c-0.289,0.04-0.559,0.145-0.711,0.28c-0.561,0.497-0.52,1.627,0.227,1.926
				c0.756,0.302,1.92-0.182,1.662-1.27C55.988,13.211,55.46,12.734,54.935,12.807z"/>
		</g>
		<g>
			<path d="M12.912,32.031c-0.29,0.04-0.558,0.145-0.71,0.28c-0.56,0.497-0.52,1.627,0.227,1.926c0.755,0.302,1.92-0.182,1.662-1.27
				C13.964,32.435,13.437,31.958,12.912,32.031z"/>
		</g>
		<g>
			<path d="M12.691,35.093c-0.29,0.04-0.558,0.145-0.71,0.28c-0.56,0.497-0.52,1.627,0.227,1.926c0.755,0.302,1.92-0.182,1.662-1.27
				C13.743,35.498,13.216,35.021,12.691,35.093z"/>
		</g>
		<g>
			<path d="M40.878,50.663c-0.289,0.04-0.559,0.145-0.711,0.28c-0.559,0.497-0.52,1.627,0.229,1.926
				c0.754,0.302,1.92-0.182,1.66-1.27C41.931,51.067,41.404,50.59,40.878,50.663z"/>
		</g>
		<g>
			<path d="M51.849,19.88c-0.289,0.04-0.559,0.145-0.711,0.28c-0.559,0.497-0.52,1.627,0.229,1.926
				c0.754,0.302,1.918-0.182,1.66-1.27C52.902,20.284,52.375,19.807,51.849,19.88z"/>
		</g>
		<g>
			<path d="M45.353,31.317c-0.289,0.04-0.559,0.145-0.711,0.28c-0.559,0.497-0.52,1.627,0.229,1.926
				c0.754,0.302,1.92-0.182,1.66-1.27C46.406,31.722,45.878,31.245,45.353,31.317z"/>
		</g>
		<g>
			<path d="M44.093,55.506c-0.289,0.04-0.557,0.145-0.709,0.28c-0.561,0.497-0.521,1.627,0.227,1.926
				c0.754,0.302,1.92-0.182,1.662-1.27C45.146,55.91,44.619,55.433,44.093,55.506z"/>
		</g>
		<g>
			<path d="M32.998,60.555c-0.289,0.04-0.558,0.145-0.71,0.28c-0.56,0.497-0.521,1.627,0.228,1.926
				c0.754,0.302,1.92-0.182,1.661-1.27C34.05,60.959,33.523,60.482,32.998,60.555z"/>
		</g>
		<g>
			<path d="M44.199,28.788c-0.289,0.04-0.557,0.145-0.709,0.28c-0.561,0.497-0.521,1.627,0.227,1.926
				c0.754,0.302,1.92-0.182,1.662-1.27C45.251,29.192,44.724,28.715,44.199,28.788z"/>
		</g>
		<g>
			<path d="M52.628,24.551c-0.289,0.04-0.559,0.145-0.711,0.28c-0.559,0.497-0.52,1.627,0.229,1.926
				c0.754,0.302,1.918-0.182,1.66-1.27C53.681,24.955,53.154,24.478,52.628,24.551z"/>
		</g>
		<g>
			<path d="M28.151,0.656c-0.289,0.04-0.559,0.145-0.711,0.28c-0.56,0.497-0.52,1.627,0.228,1.926
				c0.755,0.302,1.92-0.182,1.662-1.27C29.203,1.06,28.675,0.583,28.151,0.656z"/>
		</g>
		<g>
			<path d="M24.462,22.897c-0.29,0.04-0.558,0.145-0.71,0.28c-0.56,0.497-0.52,1.627,0.227,1.926c0.755,0.302,1.92-0.182,1.662-1.27
				C25.515,23.302,24.987,22.825,24.462,22.897z"/>
		</g>
		<g>
			<path d="M52.021,9.792c-0.289,0.04-0.557,0.145-0.709,0.28c-0.561,0.497-0.521,1.627,0.227,1.926
				c0.754,0.302,1.92-0.182,1.66-1.27C53.074,10.196,52.546,9.719,52.021,9.792z"/>
		</g>
		<g>
			<path d="M21.254,72.031c-0.29,0.04-0.558,0.145-0.71,0.28c-0.56,0.497-0.52,1.627,0.227,1.926c0.755,0.302,1.92-0.182,1.662-1.27
				C22.306,72.435,21.779,71.958,21.254,72.031z"/>
		</g>
		<g>
			<path d="M2.297,60.355c-0.29,0.04-0.558,0.145-0.71,0.28c-0.56,0.497-0.52,1.627,0.227,1.926c0.755,0.302,1.92-0.182,1.662-1.27
				C3.349,60.759,2.822,60.282,2.297,60.355z"/>
		</g>
		<g>
			<path d="M25.974,0.007c-0.29,0.04-0.558,0.145-0.71,0.28c-0.56,0.497-0.52,1.627,0.227,1.926c0.755,0.302,1.92-0.182,1.662-1.27
				C27.026,0.412,26.499-0.065,25.974,0.007z"/>
		</g>
		<g>
			<path d="M24.652,7.991c-0.29,0.04-0.558,0.145-0.71,0.28c-0.56,0.497-0.52,1.627,0.227,1.926c0.755,0.302,1.92-0.182,1.662-1.27
				C25.705,8.395,25.177,7.918,24.652,7.991z"/>
		</g>
		<g>
			<path d="M45.066,73.365c-0.289,0.04-0.559,0.145-0.711,0.28c-0.559,0.497-0.52,1.627,0.229,1.926
				c0.754,0.302,1.92-0.182,1.66-1.27C46.119,73.769,45.591,73.292,45.066,73.365z"/>
		</g>
		<g>
			<path d="M38.587,76.411c-0.291,0.04-0.559,0.145-0.711,0.28c-0.561,0.497-0.52,1.627,0.227,1.926
				c0.756,0.302,1.92-0.182,1.662-1.27C39.638,76.815,39.111,76.338,38.587,76.411z"/>
		</g>
		<g>
			<path d="M41.839,88.193c-0.291,0.04-0.559,0.145-0.711,0.28c-0.561,0.497-0.52,1.627,0.227,1.926
				c0.756,0.302,1.92-0.182,1.662-1.27C42.89,88.598,42.363,88.121,41.839,88.193z"/>
		</g>
		<g>
			<path d="M42.666,82.198c-0.289,0.04-0.559,0.145-0.711,0.28c-0.561,0.497-0.52,1.627,0.227,1.926
				c0.756,0.302,1.92-0.182,1.662-1.27C43.718,82.603,43.191,82.125,42.666,82.198z"/>
		</g>
		<g>
			<path d="M9.299,108.667c-0.457,0.063-0.881,0.228-1.123,0.442c-0.884,0.784-0.821,2.57,0.359,3.042
				c1.193,0.477,3.033-0.287,2.625-2.006C10.961,109.305,10.128,108.551,9.299,108.667z"/>
		</g>
		<g>
			<path d="M50.486,107.664c-0.457,0.063-0.881,0.228-1.121,0.442c-0.885,0.784-0.822,2.57,0.357,3.042
				c1.193,0.477,3.033-0.287,2.625-2.006C52.148,108.303,51.316,107.549,50.486,107.664z"/>
		</g>
		<g>
			<path d="M33.775,121.738c-0.457,0.063-0.881,0.228-1.123,0.442c-0.884,0.784-0.82,2.57,0.359,3.042
				c1.193,0.477,3.033-0.287,2.625-2.006C35.437,122.376,34.604,121.623,33.775,121.738z"/>
		</g>
		<g>
			<path d="M43.548,116.868c-0.457,0.063-0.881,0.228-1.121,0.442c-0.885,0.784-0.822,2.57,0.357,3.042
				c1.193,0.477,3.033-0.287,2.625-2.006C45.21,117.507,44.378,116.753,43.548,116.868z"/>
		</g>
		<g>
			<path d="M16.381,113.362c-0.457,0.063-0.881,0.228-1.123,0.442c-0.884,0.784-0.821,2.57,0.359,3.042
				c1.193,0.477,3.033-0.287,2.625-2.006C18.043,114.001,17.21,113.247,16.381,113.362z"/>
		</g>
		<g>
			<path d="M40.357,109.161c-0.457,0.063-0.881,0.228-1.123,0.442c-0.883,0.784-0.82,2.57,0.359,3.042
				c1.193,0.477,3.033-0.287,2.625-2.006C42.019,109.8,41.187,109.046,40.357,109.161z"/>
		</g>
		<g>
			<path d="M12.536,107.278c-0.298,0.042-0.576,0.149-0.733,0.289c-0.578,0.512-0.537,1.678,0.234,1.986
				c0.779,0.312,1.98-0.187,1.714-1.31C13.622,107.695,13.078,107.203,12.536,107.278z"/>
		</g>
		<g>
			<path d="M51.71,111.725c-0.299,0.042-0.576,0.149-0.734,0.289c-0.576,0.512-0.535,1.678,0.234,1.986
				c0.779,0.312,1.98-0.187,1.715-1.31C52.794,112.142,52.251,111.649,51.71,111.725z"/>
		</g>
		<g>
			<path d="M36.13,110.975c-0.299,0.042-0.576,0.149-0.733,0.289c-0.577,0.512-0.536,1.678,0.233,1.986
				c0.779,0.312,1.98-0.187,1.715-1.31C37.214,111.393,36.671,110.9,36.13,110.975z"/>
		</g>
		<g>
			<path d="M36.056,114.896c-0.299,0.042-0.576,0.149-0.733,0.289c-0.577,0.512-0.536,1.678,0.233,1.986
				c0.779,0.312,1.98-0.187,1.715-1.31C37.14,115.314,36.597,114.821,36.056,114.896z"/>
		</g>
		<g>
			<path d="M6.002,107.351c-0.298,0.042-0.576,0.149-0.733,0.289c-0.578,0.512-0.537,1.678,0.234,1.986
				c0.779,0.312,1.98-0.187,1.714-1.31C7.088,107.769,6.544,107.276,6.002,107.351z"/>
		</g>
		<g>
			<g>
				<path d="M6.105,80.445c-0.449-0.309-1.064,0.047-1.407,0.391c-0.413,0.414-0.652,0.884-0.695,1.466
					c-0.079,1.063,0.813,1.691,1.799,1.575c0.934-0.11,1.725-0.9,1.645-1.87c-0.038-0.459-0.443-0.881-0.694-1.249
					c-0.268-0.393-0.853-0.364-1.198-0.145c-0.192,0.121-0.364,0.399-0.228,0.611c0.229,0.359,0.961,0.131,1.148,0.553
					c0.104,0.235,0.095,0.646,0.046,0.901c-0.021,0.111-0.051,0.103-0.198,0.115c-0.499,0.041-0.854-0.227-1.003-0.684
					c-0.063-0.192-0.039-0.399,0.015-0.589c0.01-0.036-0.124,0.069,0.048-0.02c0.144-0.074,0.279-0.137,0.416-0.23
					C5.959,81.16,6.394,80.644,6.105,80.445z"/>
			</g>
		</g>
		<g>
			<g>
				<path d="M6.105,61.253c-0.449-0.309-1.064,0.047-1.407,0.391c-0.413,0.414-0.652,0.884-0.695,1.466
					c-0.079,1.063,0.813,1.691,1.799,1.575c0.934-0.11,1.725-0.9,1.645-1.87c-0.038-0.459-0.443-0.88-0.694-1.249
					C6.484,61.173,5.9,61.202,5.554,61.42c-0.192,0.121-0.364,0.399-0.228,0.611c0.229,0.359,0.961,0.131,1.148,0.553
					c0.104,0.235,0.095,0.646,0.046,0.901c-0.021,0.111-0.051,0.104-0.198,0.115c-0.499,0.041-0.854-0.227-1.003-0.684
					c-0.063-0.192-0.039-0.399,0.015-0.589c0.01-0.036-0.124,0.068,0.048-0.02c0.144-0.074,0.279-0.137,0.416-0.23
					C5.959,61.968,6.394,61.452,6.105,61.253z"/>
			</g>
		</g>
		<g>
			<g>
				<path d="M5.491,57.521c-0.449-0.309-1.064,0.047-1.407,0.391c-0.413,0.414-0.652,0.884-0.695,1.466
					c-0.079,1.063,0.813,1.691,1.799,1.575c0.934-0.11,1.725-0.9,1.645-1.87c-0.038-0.459-0.443-0.88-0.694-1.249
					C5.87,57.44,5.286,57.469,4.94,57.688c-0.192,0.121-0.364,0.399-0.228,0.611c0.229,0.359,0.961,0.131,1.148,0.553
					c0.104,0.235,0.095,0.646,0.046,0.901c-0.021,0.111-0.051,0.104-0.198,0.115c-0.499,0.041-0.854-0.227-1.003-0.684
					c-0.063-0.192-0.039-0.399,0.015-0.589c0.01-0.036-0.124,0.068,0.048-0.02c0.144-0.074,0.279-0.137,0.416-0.23
					C5.345,58.235,5.78,57.719,5.491,57.521z"/>
			</g>
		</g>
		<g>
			<g>
				<path d="M11.883,27.378c-0.449-0.309-1.064,0.047-1.407,0.391c-0.413,0.414-0.652,0.884-0.695,1.466
					c-0.079,1.063,0.813,1.691,1.799,1.575c0.934-0.11,1.725-0.9,1.645-1.87c-0.038-0.459-0.443-0.88-0.694-1.249
					c-0.268-0.393-0.853-0.364-1.198-0.146c-0.192,0.121-0.364,0.399-0.228,0.611c0.229,0.359,0.961,0.131,1.148,0.553
					c0.104,0.235,0.095,0.646,0.046,0.901c-0.021,0.111-0.051,0.104-0.198,0.115c-0.499,0.041-0.854-0.227-1.003-0.684
					c-0.063-0.192-0.039-0.399,0.015-0.589c0.01-0.036-0.124,0.068,0.047-0.02c0.145-0.074,0.28-0.137,0.416-0.23
					C11.737,28.093,12.172,27.577,11.883,27.378z"/>
			</g>
		</g>
		<g>
			<g>
				<path d="M37.48,51.708c-0.448-0.31-1.063,0.047-1.406,0.391c-0.414,0.414-0.652,0.884-0.695,1.466
					c-0.078,1.063,0.812,1.691,1.799,1.575c0.934-0.11,1.726-0.9,1.646-1.87c-0.038-0.46-0.443-0.88-0.694-1.249
					c-0.269-0.394-0.853-0.364-1.199-0.146c-0.191,0.12-0.364,0.4-0.228,0.611c0.23,0.358,0.961,0.131,1.148,0.553
					c0.104,0.235,0.096,0.646,0.047,0.901c-0.021,0.111-0.052,0.103-0.198,0.115c-0.499,0.041-0.854-0.227-1.004-0.684
					c-0.062-0.192-0.039-0.399,0.015-0.589c0.01-0.036-0.124,0.069,0.048-0.02c0.145-0.074,0.279-0.137,0.415-0.23
					C37.334,52.422,37.769,51.907,37.48,51.708z"/>
			</g>
		</g>
		<g>
			<g>
				<path d="M48.189,15.266c-0.448-0.31-1.063,0.048-1.406,0.391c-0.414,0.414-0.652,0.884-0.695,1.466
					c-0.078,1.063,0.812,1.692,1.799,1.575c0.934-0.11,1.726-0.9,1.646-1.87c-0.038-0.46-0.443-0.88-0.694-1.249
					c-0.269-0.394-0.853-0.364-1.199-0.146c-0.191,0.12-0.364,0.4-0.228,0.611c0.23,0.358,0.961,0.131,1.148,0.553
					c0.104,0.235,0.096,0.646,0.047,0.901c-0.021,0.111-0.052,0.103-0.198,0.115c-0.499,0.041-0.854-0.227-1.004-0.684
					c-0.062-0.192-0.039-0.399,0.015-0.589c0.01-0.036-0.124,0.069,0.048-0.02c0.145-0.074,0.279-0.137,0.415-0.23
					C48.043,15.98,48.478,15.465,48.189,15.266z"/>
			</g>
		</g>
		<g>
			<g>
				<path d="M54.599,19.277c-0.449-0.309-1.063,0.046-1.407,0.391c-0.412,0.414-0.651,0.884-0.695,1.466
					c-0.079,1.062,0.812,1.691,1.798,1.575c0.934-0.11,1.726-0.9,1.646-1.87c-0.039-0.459-0.443-0.881-0.694-1.249
					c-0.268-0.393-0.853-0.364-1.197-0.145c-0.192,0.122-0.363,0.399-0.228,0.611c0.229,0.358,0.96,0.132,1.146,0.553
					c0.104,0.235,0.096,0.646,0.047,0.901c-0.021,0.111-0.052,0.104-0.198,0.115c-0.499,0.041-0.854-0.227-1.003-0.684
					c-0.062-0.192-0.039-0.399,0.016-0.589c0.01-0.036-0.124,0.068,0.047-0.02c0.145-0.074,0.28-0.137,0.416-0.23
					C54.453,19.992,54.888,19.476,54.599,19.277z"/>
			</g>
		</g>
		<g>
			<g>
				<path d="M20.349,10.415c-0.449-0.309-1.064,0.047-1.407,0.391c-0.413,0.414-0.652,0.884-0.695,1.466
					c-0.079,1.063,0.813,1.691,1.798,1.575c0.934-0.11,1.726-0.9,1.645-1.87c-0.038-0.459-0.443-0.881-0.694-1.249
					c-0.268-0.393-0.853-0.364-1.198-0.145c-0.191,0.121-0.364,0.399-0.228,0.611c0.23,0.358,0.961,0.131,1.148,0.553
					c0.104,0.235,0.096,0.646,0.046,0.901c-0.021,0.111-0.052,0.103-0.198,0.115c-0.499,0.041-0.854-0.227-1.003-0.684
					c-0.063-0.192-0.039-0.399,0.015-0.589c0.01-0.036-0.124,0.069,0.048-0.02c0.144-0.074,0.279-0.137,0.416-0.23
					C20.203,11.129,20.638,10.613,20.349,10.415z"/>
			</g>
		</g>
		<g>
			<g>
				<path d="M48.974,31.229c-0.448-0.31-1.064,0.047-1.406,0.391c-0.414,0.414-0.652,0.884-0.695,1.466
					c-0.078,1.063,0.812,1.691,1.799,1.575c0.934-0.11,1.724-0.9,1.645-1.87c-0.038-0.46-0.442-0.88-0.694-1.249
					c-0.268-0.393-0.853-0.365-1.198-0.146c-0.192,0.122-0.363,0.399-0.228,0.611c0.229,0.359,0.961,0.131,1.148,0.553
					c0.104,0.234,0.095,0.646,0.046,0.901c-0.021,0.111-0.051,0.103-0.198,0.115c-0.498,0.041-0.854-0.228-1.003-0.684
					c-0.062-0.192-0.039-0.399,0.015-0.589c0.01-0.036-0.124,0.069,0.048-0.02c0.145-0.074,0.279-0.137,0.415-0.23
					C48.829,31.943,49.263,31.428,48.974,31.229z"/>
			</g>
		</g>
		<g>
			<g>
				<path d="M55.775,27.845c-0.448-0.31-1.063,0.048-1.406,0.391c-0.414,0.414-0.652,0.884-0.695,1.466
					c-0.078,1.063,0.812,1.692,1.799,1.575c0.934-0.11,1.724-0.9,1.645-1.87c-0.038-0.46-0.442-0.88-0.694-1.249
					c-0.268-0.393-0.853-0.365-1.198-0.146c-0.192,0.122-0.363,0.399-0.228,0.611c0.229,0.359,0.961,0.131,1.148,0.553
					c0.104,0.234,0.095,0.646,0.046,0.901c-0.021,0.111-0.051,0.103-0.198,0.115c-0.498,0.041-0.854-0.227-1.003-0.684
					c-0.062-0.192-0.039-0.399,0.015-0.589c0.01-0.036-0.124,0.069,0.048-0.02c0.145-0.074,0.279-0.137,0.415-0.23
					C55.629,28.56,56.064,28.044,55.775,27.845z"/>
			</g>
		</g>
		<g>
			<g>
				<path d="M40.287,86.48c-0.449-0.309-1.063,0.046-1.407,0.391c-0.413,0.414-0.651,0.884-0.695,1.466
					c-0.079,1.063,0.813,1.691,1.799,1.575c0.934-0.11,1.725-0.9,1.646-1.87c-0.038-0.46-0.442-0.881-0.694-1.249
					c-0.268-0.393-0.853-0.365-1.198-0.146c-0.192,0.122-0.363,0.399-0.228,0.611c0.229,0.359,0.961,0.131,1.148,0.553
					c0.104,0.234,0.095,0.646,0.046,0.901c-0.021,0.111-0.053,0.104-0.199,0.115c-0.499,0.041-0.854-0.227-1.003-0.684
					c-0.062-0.192-0.039-0.399,0.016-0.589c0.01-0.036-0.124,0.068,0.047-0.02c0.145-0.074,0.28-0.137,0.416-0.23
					C40.14,87.195,40.576,86.679,40.287,86.48z"/>
			</g>
		</g>
		<g>
			<g>
				<path d="M2.959,91.812c-0.449-0.309-1.064,0.047-1.407,0.391c-0.413,0.414-0.652,0.884-0.695,1.466
					c-0.079,1.063,0.813,1.691,1.799,1.575c0.934-0.11,1.725-0.9,1.645-1.87c-0.038-0.459-0.443-0.881-0.694-1.249
					c-0.268-0.393-0.853-0.364-1.198-0.145c-0.192,0.121-0.364,0.399-0.228,0.611c0.229,0.359,0.961,0.131,1.148,0.553
					c0.104,0.235,0.095,0.646,0.046,0.901c-0.021,0.111-0.051,0.103-0.198,0.115c-0.499,0.041-0.854-0.227-1.003-0.684
					c-0.063-0.192-0.039-0.399,0.015-0.589c0.01-0.036-0.124,0.069,0.048-0.02c0.144-0.074,0.279-0.137,0.416-0.23
					C2.813,92.527,3.249,92.011,2.959,91.812z"/>
			</g>
		</g>
		<g>
			<g>
				<path d="M17.275,72.729c-0.449-0.309-1.064,0.047-1.407,0.391c-0.413,0.414-0.652,0.884-0.695,1.466
					c-0.079,1.063,0.813,1.691,1.799,1.575c0.934-0.11,1.725-0.9,1.645-1.87c-0.038-0.459-0.443-0.88-0.694-1.249
					c-0.268-0.393-0.853-0.364-1.198-0.146c-0.192,0.121-0.364,0.399-0.228,0.611c0.229,0.359,0.961,0.131,1.148,0.553
					c0.104,0.235,0.095,0.646,0.046,0.901c-0.021,0.111-0.051,0.104-0.198,0.115c-0.499,0.041-0.854-0.227-1.003-0.684
					c-0.063-0.192-0.039-0.399,0.015-0.589c0.01-0.036-0.124,0.068,0.047-0.02c0.145-0.074,0.28-0.137,0.416-0.23
					C17.129,73.443,17.564,72.927,17.275,72.729z"/>
			</g>
		</g>
		<g>
			<g>
				<path d="M39.947,71.003c-0.448-0.31-1.063,0.047-1.406,0.391c-0.414,0.414-0.652,0.884-0.695,1.466
					c-0.078,1.063,0.812,1.691,1.799,1.575c0.934-0.11,1.726-0.9,1.646-1.87c-0.038-0.46-0.443-0.88-0.694-1.249
					c-0.269-0.394-0.853-0.364-1.199-0.146c-0.191,0.12-0.364,0.4-0.228,0.611c0.23,0.358,0.961,0.131,1.148,0.553
					c0.104,0.235,0.096,0.646,0.047,0.901c-0.021,0.111-0.052,0.103-0.198,0.115c-0.499,0.041-0.854-0.227-1.004-0.684
					c-0.062-0.192-0.039-0.399,0.015-0.589c0.01-0.036-0.124,0.069,0.048-0.02c0.145-0.074,0.279-0.137,0.415-0.23
					C39.801,71.717,40.236,71.202,39.947,71.003z"/>
			</g>
		</g>
		<g>
			<g>
				<path d="M9.942,105.854c-0.449-0.309-1.064,0.047-1.407,0.391c-0.413,0.414-0.652,0.884-0.695,1.466
					c-0.079,1.063,0.813,1.691,1.799,1.575c0.934-0.11,1.725-0.9,1.645-1.87c-0.038-0.459-0.443-0.88-0.694-1.249
					c-0.268-0.393-0.853-0.364-1.198-0.146c-0.192,0.121-0.364,0.399-0.228,0.611c0.229,0.359,0.961,0.131,1.148,0.553
					c0.104,0.235,0.095,0.646,0.046,0.901c-0.021,0.111-0.051,0.104-0.198,0.115c-0.499,0.041-0.854-0.227-1.003-0.684
					c-0.063-0.192-0.039-0.399,0.015-0.589c0.01-0.036-0.124,0.068,0.048-0.02c0.144-0.074,0.279-0.137,0.416-0.23
					C9.796,106.569,10.231,106.053,9.942,105.854z"/>
			</g>
		</g>
		<g>
			<g>
				<path d="M54.423,109.135c-0.448-0.31-1.063,0.048-1.406,0.391c-0.414,0.414-0.652,0.884-0.695,1.466
					c-0.078,1.063,0.812,1.692,1.799,1.575c0.934-0.11,1.724-0.9,1.645-1.87c-0.038-0.46-0.442-0.88-0.694-1.249
					c-0.268-0.393-0.853-0.365-1.198-0.146c-0.192,0.122-0.363,0.399-0.228,0.611c0.229,0.359,0.961,0.131,1.148,0.553
					c0.104,0.234,0.095,0.646,0.046,0.901c-0.021,0.111-0.051,0.103-0.198,0.115c-0.498,0.041-0.854-0.227-1.003-0.684
					c-0.062-0.192-0.039-0.399,0.015-0.589c0.01-0.036-0.124,0.069,0.048-0.02c0.145-0.074,0.279-0.137,0.415-0.23
					C54.278,109.85,54.712,109.334,54.423,109.135z"/>
			</g>
		</g>
		<g>
			<g>
				<path d="M6.394,95.812C5.64,95.181,4.6,96.626,4.569,97.3c-0.041,0.883,0.626,1.435,1.493,1.277
					c0.731-0.134,1.355-0.758,1.317-1.528c-0.01-0.204-0.111-0.323-0.221-0.486c-0.095-0.141-0.201-0.428-0.329-0.527
					c-0.314-0.245-0.656-0.319-0.986-0.056c-0.163,0.13-0.324,0.324-0.269,0.546c0.057,0.23,0.383,0.25,0.575,0.309
					c0.324,0.099,0.354,0.195,0.315,0.525c0.01,0.081,0.006,0.162-0.013,0.241c0.147-0.098,0.173-0.131,0.077-0.1
					c-0.291,0.076-0.547-0.166-0.645-0.403c-0.049-0.118-0.045-0.249-0.019-0.371c0.021-0.062,0.003-0.031-0.052,0.093
					c0.099-0.05,0.19-0.112,0.274-0.184C6.259,96.503,6.669,96.042,6.394,95.812z"/>
			</g>
		</g>
		<g>
			<g>
				<path d="M16.853,55.958c-0.754-0.631-1.794,0.814-1.825,1.488c-0.041,0.883,0.626,1.435,1.493,1.277
					c0.731-0.134,1.355-0.758,1.317-1.528c-0.01-0.205-0.111-0.324-0.221-0.487c-0.095-0.141-0.201-0.427-0.329-0.527
					c-0.314-0.245-0.656-0.319-0.986-0.056c-0.163,0.13-0.324,0.324-0.269,0.546c0.057,0.23,0.383,0.25,0.575,0.309
					c0.324,0.1,0.354,0.195,0.315,0.525c0.01,0.081,0.006,0.162-0.013,0.241c0.147-0.098,0.173-0.131,0.077-0.101
					c-0.291,0.077-0.547-0.165-0.645-0.402c-0.049-0.118-0.045-0.249-0.019-0.371c0.021-0.062,0.003-0.031-0.052,0.093
					c0.099-0.05,0.19-0.112,0.274-0.184C16.718,56.649,17.128,56.188,16.853,55.958z"/>
			</g>
		</g>
		<g>
			<g>
				<path d="M7.637,28.934c-0.754-0.631-1.794,0.814-1.825,1.488c-0.041,0.883,0.626,1.435,1.493,1.277
					c0.731-0.134,1.355-0.758,1.318-1.528c-0.01-0.205-0.112-0.324-0.222-0.487c-0.095-0.141-0.201-0.427-0.329-0.527
					c-0.314-0.245-0.656-0.319-0.986-0.056c-0.163,0.13-0.324,0.324-0.269,0.546c0.057,0.23,0.383,0.25,0.575,0.309
					c0.324,0.1,0.354,0.195,0.315,0.525c0.01,0.081,0.006,0.162-0.013,0.241c0.147-0.098,0.173-0.131,0.077-0.101
					c-0.291,0.077-0.547-0.165-0.645-0.402c-0.049-0.118-0.045-0.249-0.019-0.371c0.021-0.062,0.003-0.031-0.052,0.093
					c0.099-0.05,0.19-0.112,0.274-0.184C7.502,29.625,7.912,29.164,7.637,28.934z"/>
			</g>
		</g>
		<g>
			<g>
				<path d="M9.776,34.896c-0.754-0.631-1.794,0.814-1.825,1.488c-0.041,0.883,0.626,1.435,1.493,1.277
					c0.731-0.134,1.355-0.758,1.317-1.528c-0.01-0.205-0.111-0.324-0.221-0.487c-0.095-0.141-0.201-0.427-0.329-0.527
					c-0.314-0.245-0.656-0.319-0.986-0.056c-0.163,0.13-0.324,0.324-0.269,0.546c0.057,0.23,0.383,0.25,0.575,0.309
					c0.324,0.1,0.354,0.195,0.315,0.525c0.01,0.081,0.006,0.162-0.013,0.241c0.147-0.098,0.173-0.131,0.077-0.101
					c-0.291,0.077-0.547-0.165-0.645-0.402c-0.049-0.118-0.045-0.249-0.019-0.371c0.021-0.062,0.003-0.031-0.052,0.093
					c0.099-0.05,0.19-0.112,0.274-0.184C9.641,35.586,10.051,35.125,9.776,34.896z"/>
			</g>
		</g>
		<g>
			<g>
				<path d="M37.207,52.953c-0.752-0.633-1.793,0.816-1.824,1.488c-0.04,0.883,0.626,1.435,1.492,1.277
					c0.732-0.134,1.356-0.758,1.318-1.528c-0.01-0.204-0.11-0.324-0.221-0.486c-0.097-0.142-0.202-0.426-0.33-0.527
					c-0.313-0.246-0.656-0.318-0.986-0.056c-0.163,0.129-0.324,0.324-0.269,0.546c0.057,0.23,0.383,0.25,0.576,0.309
					c0.324,0.099,0.353,0.196,0.314,0.525c0.011,0.081,0.007,0.162-0.012,0.241c0.146-0.098,0.172-0.131,0.075-0.101
					c-0.29,0.077-0.546-0.165-0.644-0.402c-0.049-0.118-0.046-0.249-0.02-0.371c0.021-0.062,0.004-0.031-0.053,0.093
					c0.1-0.05,0.19-0.111,0.273-0.184C37.073,53.643,37.482,53.184,37.207,52.953z"/>
			</g>
		</g>
		<g>
			<g>
				<path d="M54.642,25.503c-0.755-0.63-1.793,0.813-1.824,1.488c-0.04,0.883,0.626,1.435,1.492,1.277
					c0.731-0.134,1.354-0.758,1.318-1.528c-0.01-0.204-0.111-0.324-0.222-0.486c-0.095-0.141-0.201-0.427-0.329-0.527
					c-0.313-0.245-0.656-0.319-0.986-0.056c-0.163,0.13-0.323,0.324-0.269,0.546c0.056,0.23,0.383,0.25,0.575,0.309
					c0.325,0.1,0.354,0.195,0.315,0.525c0.01,0.081,0.006,0.162-0.013,0.241c0.147-0.098,0.173-0.131,0.076-0.101
					c-0.29,0.077-0.546-0.166-0.644-0.402c-0.049-0.118-0.046-0.249-0.02-0.371c0.021-0.062,0.004-0.032-0.053,0.093
					c0.099-0.05,0.189-0.112,0.273-0.184C54.507,26.195,54.917,25.733,54.642,25.503z"/>
			</g>
		</g>
		<g>
			<g>
				<path d="M31.018,4.496c-0.753-0.631-1.794,0.814-1.825,1.488c-0.04,0.883,0.627,1.435,1.493,1.277
					c0.731-0.134,1.355-0.758,1.317-1.528c-0.01-0.204-0.111-0.323-0.222-0.486c-0.095-0.141-0.2-0.427-0.328-0.527
					C31.14,4.474,30.797,4.4,30.467,4.663c-0.163,0.13-0.324,0.324-0.269,0.546c0.057,0.23,0.382,0.25,0.575,0.309
					c0.324,0.099,0.354,0.196,0.315,0.525c0.01,0.081,0.006,0.162-0.013,0.241c0.147-0.098,0.173-0.131,0.076-0.1
					c-0.291,0.076-0.547-0.166-0.645-0.403c-0.049-0.118-0.046-0.249-0.02-0.371c0.021-0.062,0.004-0.031-0.052,0.093
					c0.099-0.05,0.19-0.112,0.273-0.184C30.883,5.187,31.293,4.726,31.018,4.496z"/>
			</g>
		</g>
		<g>
			<g>
				<path d="M24.183,21.167c-0.754-0.631-1.794,0.814-1.825,1.488c-0.041,0.883,0.626,1.435,1.493,1.277
					c0.731-0.134,1.355-0.758,1.318-1.528c-0.01-0.204-0.112-0.323-0.222-0.486c-0.095-0.141-0.201-0.428-0.329-0.527
					c-0.314-0.245-0.656-0.319-0.986-0.056c-0.163,0.13-0.324,0.324-0.269,0.546c0.057,0.23,0.383,0.25,0.575,0.309
					c0.324,0.099,0.354,0.195,0.315,0.525c0.01,0.081,0.006,0.162-0.013,0.241c0.147-0.098,0.173-0.131,0.077-0.1
					c-0.291,0.076-0.547-0.166-0.645-0.403c-0.049-0.118-0.045-0.249-0.019-0.371c0.021-0.062,0.003-0.031-0.052,0.093
					c0.099-0.05,0.19-0.112,0.274-0.184C24.048,21.858,24.458,21.397,24.183,21.167z"/>
			</g>
		</g>
		<g>
			<g>
				<path d="M22.393,11.151c-0.754-0.631-1.794,0.814-1.825,1.488c-0.041,0.883,0.626,1.435,1.493,1.277
					c0.731-0.134,1.355-0.758,1.317-1.528c-0.01-0.204-0.111-0.323-0.221-0.486c-0.095-0.141-0.201-0.428-0.329-0.527
					c-0.314-0.245-0.656-0.319-0.986-0.056c-0.163,0.13-0.324,0.324-0.269,0.546c0.057,0.23,0.383,0.25,0.575,0.309
					c0.324,0.099,0.354,0.195,0.315,0.525c0.01,0.081,0.006,0.162-0.013,0.241c0.147-0.098,0.173-0.131,0.077-0.1
					c-0.291,0.076-0.547-0.166-0.645-0.403c-0.049-0.118-0.045-0.249-0.019-0.371c0.021-0.062,0.003-0.031-0.052,0.093
					c0.099-0.05,0.19-0.112,0.274-0.184C22.258,11.842,22.668,11.381,22.393,11.151z"/>
			</g>
		</g>
		<g>
			<g>
				<path d="M16.261,29.193c-0.754-0.631-1.794,0.814-1.825,1.488c-0.041,0.883,0.626,1.435,1.493,1.277
					c0.731-0.134,1.355-0.758,1.318-1.528c-0.01-0.205-0.112-0.324-0.222-0.487c-0.095-0.141-0.201-0.427-0.329-0.527
					c-0.314-0.245-0.656-0.319-0.986-0.056c-0.163,0.13-0.324,0.324-0.269,0.546c0.057,0.23,0.383,0.25,0.575,0.309
					c0.324,0.1,0.354,0.195,0.315,0.525c0.01,0.081,0.006,0.162-0.013,0.241c0.147-0.098,0.173-0.131,0.077-0.101
					c-0.291,0.077-0.547-0.165-0.645-0.402c-0.049-0.118-0.045-0.249-0.019-0.371c0.021-0.062,0.003-0.031-0.052,0.093
					c0.099-0.05,0.19-0.112,0.274-0.184C16.126,29.884,16.536,29.423,16.261,29.193z"/>
			</g>
		</g>
		<g>
			<g>
				<path d="M55.031,8.061c-0.754-0.63-1.795,0.813-1.826,1.488c-0.04,0.883,0.628,1.435,1.494,1.276
					c0.731-0.134,1.355-0.758,1.317-1.528c-0.011-0.204-0.112-0.323-0.223-0.486c-0.095-0.141-0.2-0.428-0.327-0.527
					C55.152,8.04,54.81,7.965,54.48,8.229c-0.163,0.13-0.323,0.324-0.269,0.546c0.056,0.23,0.382,0.25,0.574,0.309
					c0.323,0.1,0.354,0.195,0.315,0.525c0.01,0.081,0.006,0.162-0.013,0.241c0.148-0.098,0.174-0.131,0.077-0.1
					c-0.29,0.076-0.548-0.166-0.646-0.403c-0.049-0.118-0.046-0.249-0.02-0.371c0.021-0.062,0.004-0.031-0.051,0.093
					c0.099-0.05,0.189-0.112,0.273-0.184C54.896,8.752,55.306,8.291,55.031,8.061z"/>
			</g>
		</g>
		<g>
			<g>
				<path d="M1.827,56.625c-0.754-0.631-1.794,0.814-1.825,1.488c-0.041,0.883,0.626,1.435,1.493,1.277
					c0.731-0.134,1.355-0.758,1.317-1.528c-0.01-0.205-0.111-0.324-0.221-0.487c-0.095-0.141-0.201-0.427-0.329-0.527
					c-0.314-0.245-0.656-0.319-0.986-0.056c-0.163,0.13-0.324,0.324-0.269,0.546c0.057,0.23,0.383,0.25,0.575,0.309
					c0.324,0.1,0.354,0.195,0.315,0.525c0.01,0.081,0.006,0.162-0.013,0.241c0.147-0.098,0.173-0.131,0.077-0.101
					c-0.291,0.077-0.547-0.165-0.645-0.402c-0.049-0.118-0.045-0.249-0.019-0.371c0.021-0.062,0.003-0.031-0.052,0.093
					c0.099-0.05,0.19-0.112,0.274-0.184C1.692,57.316,2.102,56.855,1.827,56.625z"/>
			</g>
		</g>
		<g>
			<g>
				<path d="M43.267,71.002c-0.752-0.633-1.793,0.816-1.824,1.488c-0.04,0.883,0.626,1.435,1.492,1.277
					c0.732-0.134,1.356-0.758,1.318-1.528c-0.01-0.204-0.11-0.324-0.221-0.486c-0.097-0.142-0.202-0.426-0.33-0.527
					c-0.313-0.246-0.656-0.318-0.986-0.056c-0.163,0.129-0.324,0.324-0.269,0.546c0.057,0.23,0.383,0.25,0.576,0.309
					c0.324,0.099,0.353,0.196,0.314,0.525c0.011,0.081,0.007,0.162-0.012,0.241c0.146-0.098,0.172-0.131,0.075-0.101
					c-0.29,0.077-0.546-0.165-0.644-0.402c-0.049-0.118-0.046-0.249-0.02-0.371c0.021-0.062,0.004-0.031-0.053,0.093
					c0.1-0.05,0.19-0.111,0.273-0.184C43.133,71.693,43.542,71.233,43.267,71.002z"/>
			</g>
		</g>
		<g>
			<g>
				<path d="M37.824,57.52c-0.754-0.63-1.795,0.813-1.826,1.488c-0.04,0.884,0.627,1.435,1.493,1.277
					c0.731-0.134,1.355-0.758,1.318-1.528c-0.011-0.204-0.112-0.323-0.223-0.486c-0.094-0.141-0.2-0.428-0.327-0.527
					c-0.314-0.244-0.656-0.318-0.986-0.055c-0.163,0.13-0.323,0.324-0.269,0.546c0.056,0.23,0.382,0.25,0.574,0.31
					c0.323,0.099,0.354,0.195,0.315,0.525c0.01,0.081,0.006,0.162-0.013,0.241c0.147-0.098,0.173-0.131,0.076-0.1
					c-0.291,0.076-0.547-0.165-0.645-0.403c-0.049-0.118-0.046-0.249-0.02-0.371c0.021-0.062,0.004-0.031-0.051,0.093
					c0.099-0.05,0.189-0.112,0.273-0.184C37.689,58.211,38.099,57.75,37.824,57.52z"/>
			</g>
		</g>
		<g>
			<g>
				<path d="M9.986,112.774c-0.754-0.631-1.794,0.814-1.825,1.488c-0.041,0.883,0.626,1.435,1.493,1.277
					c0.731-0.134,1.355-0.758,1.317-1.528c-0.01-0.204-0.111-0.323-0.221-0.486c-0.095-0.141-0.201-0.428-0.329-0.527
					c-0.314-0.245-0.656-0.319-0.986-0.056c-0.163,0.13-0.324,0.324-0.269,0.546c0.057,0.23,0.383,0.25,0.575,0.309
					c0.324,0.099,0.354,0.195,0.315,0.525c0.01,0.081,0.006,0.162-0.013,0.241c0.147-0.098,0.173-0.131,0.077-0.1
					c-0.291,0.076-0.547-0.166-0.645-0.403c-0.049-0.118-0.045-0.249-0.019-0.371c0.021-0.062,0.003-0.031-0.052,0.093
					c0.099-0.05,0.19-0.112,0.274-0.184C9.851,113.465,10.261,113.004,9.986,112.774z"/>
			</g>
		</g>
		<g>
			<g>
				<path d="M53.589,105.929c-0.755-0.63-1.793,0.813-1.824,1.488c-0.04,0.883,0.626,1.435,1.492,1.277
					c0.731-0.134,1.354-0.758,1.318-1.528c-0.01-0.204-0.111-0.324-0.222-0.486c-0.095-0.141-0.201-0.427-0.329-0.527
					c-0.313-0.245-0.656-0.319-0.986-0.056c-0.163,0.13-0.323,0.324-0.269,0.546c0.056,0.23,0.383,0.25,0.575,0.309
					c0.325,0.1,0.354,0.195,0.315,0.525c0.01,0.081,0.006,0.162-0.013,0.241c0.147-0.098,0.173-0.131,0.076-0.101
					c-0.29,0.077-0.546-0.166-0.644-0.402c-0.049-0.118-0.046-0.249-0.02-0.371c0.021-0.062,0.004-0.032-0.053,0.093
					c0.099-0.05,0.189-0.112,0.273-0.184C53.455,106.621,53.865,106.159,53.589,105.929z"/>
			</g>
		</g>
		<g>
			<g>
				<path d="M32.007,123.574c-0.754-0.63-1.795,0.813-1.826,1.488c-0.04,0.884,0.628,1.435,1.494,1.276
					c0.731-0.134,1.354-0.758,1.317-1.527c-0.011-0.205-0.112-0.323-0.223-0.486c-0.094-0.141-0.2-0.429-0.327-0.528
					c-0.314-0.244-0.656-0.318-0.986-0.055c-0.163,0.13-0.323,0.324-0.269,0.546c0.056,0.23,0.382,0.25,0.574,0.309
					c0.323,0.1,0.354,0.195,0.315,0.525c0.01,0.081,0.006,0.162-0.013,0.241c0.147-0.098,0.173-0.131,0.077-0.1
					c-0.291,0.076-0.548-0.166-0.646-0.403c-0.049-0.118-0.046-0.249-0.02-0.371c0.021-0.062,0.004-0.031-0.051,0.093
					c0.099-0.05,0.189-0.112,0.273-0.184C31.873,124.266,32.283,123.804,32.007,123.574z"/>
			</g>
		</g>
		<g>
			<g>
				<path d="M32.867,113.75c-0.754-0.63-1.795,0.813-1.826,1.488c-0.04,0.884,0.628,1.435,1.494,1.276
					c0.731-0.133,1.354-0.758,1.317-1.528c-0.011-0.204-0.112-0.323-0.223-0.486c-0.094-0.141-0.2-0.428-0.327-0.527
					c-0.314-0.244-0.656-0.318-0.986-0.055c-0.163,0.13-0.323,0.324-0.269,0.546c0.056,0.23,0.382,0.25,0.574,0.309
					c0.323,0.1,0.354,0.195,0.315,0.525c0.01,0.081,0.006,0.162-0.013,0.241c0.147-0.098,0.173-0.131,0.077-0.1
					c-0.291,0.076-0.548-0.166-0.646-0.403c-0.049-0.118-0.046-0.249-0.02-0.371c0.021-0.062,0.004-0.031-0.051,0.093
					c0.099-0.05,0.189-0.112,0.273-0.184C32.732,114.441,33.142,113.979,32.867,113.75z"/>
			</g>
		</g>
		<g>
			<g>
				<path d="M47.63,118.228c-0.754-0.63-1.795,0.813-1.826,1.488c-0.04,0.883,0.628,1.435,1.494,1.276
					c0.731-0.134,1.355-0.758,1.317-1.528c-0.011-0.204-0.112-0.323-0.223-0.486c-0.095-0.141-0.2-0.428-0.327-0.527
					c-0.314-0.244-0.656-0.318-0.986-0.055c-0.163,0.13-0.323,0.324-0.269,0.546c0.056,0.23,0.382,0.25,0.574,0.309
					c0.323,0.1,0.354,0.195,0.315,0.525c0.01,0.081,0.006,0.162-0.013,0.241c0.148-0.098,0.174-0.131,0.077-0.1
					c-0.29,0.076-0.548-0.166-0.646-0.403c-0.049-0.118-0.046-0.249-0.02-0.371c0.021-0.062,0.004-0.031-0.051,0.093
					c0.099-0.05,0.189-0.112,0.273-0.184C47.496,118.919,47.906,118.458,47.63,118.228z"/>
			</g>
		</g>
		<g>
			<g>
				<g>
					<path d="M38.617,77.307c-2.265-0.03-2.114,4.016,0.396,3.55c0.964-0.179,1.613-0.925,1.59-1.914
						c-0.024-1.038-1.026-1.805-2.038-1.587c-0.09,0.02-0.254,0.229-0.093,0.254c0.527,0.083,1.34,0.055,1.637,0.595
						c0.447,0.812,0.187,1.942-0.729,2.242c-0.713,0.233-1.493-0.074-1.817-0.739c-0.138-0.283-0.159-0.606-0.144-0.915
						c0.033-0.642,0.501-0.975,1.072-1.143C38.594,77.619,38.843,77.31,38.617,77.307z"/>
				</g>
			</g>
			<g>
				<g>
					<path d="M38.017,77.899c0.404-0.23,0.934,0.271,1.224,0.508c0.035,0.028,0.086-0.029,0.087-0.062
						c0.019-0.642-0.857-0.997-1.351-0.675C37.864,77.743,37.836,78.001,38.017,77.899L38.017,77.899z"/>
				</g>
			</g>
			<g>
				<g>
					<path d="M37.387,78.292c0.572,0.248,0.882,0.803,1.121,1.343c0.031,0.071,0.151-0.03,0.142-0.084
						c-0.105-0.629-0.47-1.278-1.101-1.485C37.448,78.033,37.266,78.24,37.387,78.292L37.387,78.292z"/>
				</g>
			</g>
			<g>
				<g>
					<path d="M38.633,79.979c0.039,0.154,0.068,0.309,0.1,0.464c0.014,0.066,0.133-0.028,0.13-0.077
						c-0.013-0.172-0.044-0.32-0.091-0.487C38.751,79.805,38.616,79.914,38.633,79.979L38.633,79.979z"/>
				</g>
			</g>
			<g>
				<g>
					<path d="M39.494,79.266c0.062,0.307,0.028,0.585,0.047,0.891c0.007,0.098,0.14,0.009,0.157-0.039
						c0.122-0.33,0.078-0.657-0.005-0.994C39.667,79.018,39.476,79.174,39.494,79.266L39.494,79.266z"/>
				</g>
			</g>
		</g>
		<g>
			<g>
				<g>
					<path d="M11.784,97.126c-1.656-0.09-1.682,2.959,0.205,2.649c0.713-0.117,1.219-0.65,1.24-1.379
						c0.022-0.754-0.751-1.425-1.497-1.221c-0.06,0.017-0.258,0.213-0.12,0.249c0.362,0.094,0.767,0.05,1.086,0.279
						c0.225,0.161,0.219,0.593,0.227,0.838c0.015,0.409-0.245,0.72-0.621,0.838c-0.483,0.151-1.007-0.064-1.234-0.505
						c-0.096-0.187-0.114-0.403-0.111-0.609c0.005-0.441,0.31-0.665,0.7-0.796C11.757,97.436,12.016,97.139,11.784,97.126z"/>
				</g>
			</g>
			<g>
				<g>
					<path d="M11.331,97.635c0.282-0.14,0.641,0.22,0.874,0.345c0.036,0.019,0.076-0.04,0.079-0.067
						c0.057-0.521-0.609-0.74-0.993-0.507C11.173,97.477,11.145,97.727,11.331,97.635L11.331,97.635z"/>
				</g>
			</g>
			<g>
				<g>
					<path d="M10.856,97.914c0.391,0.19,0.631,0.563,0.806,0.944c0.036,0.079,0.15-0.041,0.14-0.1
						c-0.083-0.469-0.313-0.913-0.784-1.071C10.917,97.654,10.737,97.856,10.856,97.914L10.856,97.914z"/>
				</g>
			</g>
			<g>
				<g>
					<path d="M11.752,99.104c0.027,0.11,0.052,0.221,0.074,0.332c0.014,0.066,0.134-0.027,0.129-0.077
						c-0.02-0.206-0.01-0.155-0.063-0.354C11.872,98.931,11.737,99.04,11.752,99.104L11.752,99.104z"/>
				</g>
			</g>
			<g>
				<g>
					<path d="M12.357,98.578c0.037,0.22,0.026,0.431,0.042,0.651c0.008,0.112,0.148-0.012,0.165-0.061
						c0.083-0.249,0.056-0.459-0.004-0.711C12.535,98.357,12.343,98.498,12.357,98.578L12.357,98.578z"/>
				</g>
			</g>
		</g>
		<g>
			<g>
				<g>
					<path d="M8.155,59.021c-1.656-0.09-1.682,2.959,0.205,2.649c0.713-0.117,1.219-0.65,1.24-1.379
						c0.022-0.754-0.751-1.425-1.497-1.221c-0.06,0.017-0.258,0.213-0.12,0.249c0.362,0.094,0.767,0.05,1.086,0.279
						c0.225,0.161,0.219,0.593,0.227,0.838c0.015,0.409-0.245,0.72-0.621,0.838c-0.483,0.151-1.007-0.064-1.234-0.505
						c-0.096-0.187-0.114-0.403-0.111-0.609c0.005-0.441,0.31-0.665,0.7-0.796C8.128,59.33,8.387,59.033,8.155,59.021z"/>
				</g>
			</g>
			<g>
				<g>
					<path d="M7.702,59.53c0.282-0.14,0.641,0.22,0.874,0.345c0.036,0.019,0.076-0.04,0.079-0.067
						c0.057-0.521-0.609-0.74-0.993-0.507C7.544,59.371,7.516,59.622,7.702,59.53L7.702,59.53z"/>
				</g>
			</g>
			<g>
				<g>
					<path d="M7.228,59.809c0.391,0.19,0.631,0.563,0.806,0.944c0.036,0.079,0.15-0.041,0.14-0.1
						C8.09,60.184,7.86,59.74,7.39,59.582C7.289,59.548,7.108,59.75,7.228,59.809L7.228,59.809z"/>
				</g>
			</g>
			<g>
				<g>
					<path d="M8.123,60.999c0.027,0.11,0.052,0.221,0.074,0.332c0.014,0.066,0.134-0.027,0.129-0.077
						c-0.02-0.206-0.01-0.155-0.063-0.354C8.243,60.825,8.108,60.934,8.123,60.999L8.123,60.999z"/>
				</g>
			</g>
			<g>
				<g>
					<path d="M8.728,60.472c0.037,0.22,0.026,0.431,0.042,0.651c0.008,0.112,0.148-0.012,0.165-0.061
						c0.083-0.249,0.056-0.459-0.004-0.711C8.906,60.251,8.714,60.392,8.728,60.472L8.728,60.472z"/>
				</g>
			</g>
		</g>
		<g>
			<g>
				<g>
					<path d="M13.78,36.961c-1.656-0.089-1.682,2.959,0.205,2.649c0.713-0.117,1.219-0.65,1.24-1.379
						c0.022-0.754-0.751-1.426-1.497-1.221c-0.06,0.017-0.258,0.213-0.12,0.249c0.362,0.094,0.767,0.05,1.086,0.279
						c0.225,0.161,0.219,0.593,0.227,0.838c0.015,0.409-0.245,0.72-0.621,0.838c-0.483,0.151-1.007-0.064-1.234-0.505
						c-0.096-0.187-0.114-0.403-0.111-0.609c0.005-0.441,0.31-0.665,0.7-0.796C13.753,37.27,14.012,36.973,13.78,36.961z"/>
				</g>
			</g>
			<g>
				<g>
					<path d="M13.327,37.469c0.282-0.139,0.641,0.221,0.874,0.345c0.036,0.019,0.076-0.04,0.079-0.067
						c0.057-0.522-0.609-0.74-0.993-0.507C13.169,37.311,13.141,37.561,13.327,37.469L13.327,37.469z"/>
				</g>
			</g>
			<g>
				<g>
					<path d="M12.853,37.749c0.391,0.19,0.631,0.563,0.806,0.944c0.036,0.079,0.15-0.041,0.14-0.1
						c-0.083-0.469-0.313-0.913-0.784-1.071C12.914,37.488,12.733,37.69,12.853,37.749L12.853,37.749z"/>
				</g>
			</g>
			<g>
				<g>
					<path d="M13.748,38.939c0.027,0.11,0.052,0.221,0.074,0.332c0.014,0.066,0.134-0.027,0.129-0.077
						c-0.02-0.206-0.01-0.155-0.063-0.354C13.868,38.765,13.733,38.874,13.748,38.939L13.748,38.939z"/>
				</g>
			</g>
			<g>
				<g>
					<path d="M14.353,38.413c0.037,0.22,0.026,0.43,0.042,0.651c0.008,0.111,0.148-0.013,0.165-0.061
						c0.083-0.249,0.056-0.459-0.004-0.711C14.531,38.191,14.339,38.332,14.353,38.413L14.353,38.413z"/>
				</g>
			</g>
		</g>
		<g>
			<g>
				<g>
					<path d="M30.064,8.46c-1.656-0.089-1.681,2.958,0.205,2.649c0.713-0.117,1.219-0.65,1.24-1.379
						c0.021-0.754-0.752-1.425-1.498-1.221c-0.06,0.017-0.258,0.213-0.12,0.249c0.361,0.094,0.768,0.05,1.087,0.279
						c0.225,0.161,0.219,0.594,0.228,0.838c0.015,0.409-0.246,0.72-0.622,0.838c-0.482,0.151-1.007-0.064-1.233-0.505
						c-0.096-0.187-0.113-0.403-0.111-0.609c0.006-0.442,0.309-0.665,0.699-0.796C30.037,8.769,30.295,8.472,30.064,8.46z"/>
				</g>
			</g>
			<g>
				<g>
					<path d="M29.611,8.968c0.282-0.139,0.641,0.221,0.874,0.345c0.036,0.019,0.076-0.04,0.079-0.067
						c0.057-0.522-0.609-0.74-0.993-0.507C29.454,8.81,29.425,9.06,29.611,8.968L29.611,8.968z"/>
				</g>
			</g>
			<g>
				<g>
					<path d="M29.137,9.248c0.391,0.19,0.631,0.563,0.807,0.944c0.036,0.079,0.149-0.041,0.139-0.1
						C30,9.623,29.769,9.179,29.299,9.021C29.199,8.987,29.017,9.189,29.137,9.248L29.137,9.248z"/>
				</g>
			</g>
			<g>
				<g>
					<path d="M30.032,10.438c0.027,0.11,0.052,0.221,0.074,0.332c0.014,0.066,0.135-0.027,0.13-0.077
						c-0.02-0.206-0.011-0.155-0.063-0.354C30.152,10.264,30.017,10.373,30.032,10.438L30.032,10.438z"/>
				</g>
			</g>
			<g>
				<g>
					<path d="M30.636,9.912c0.038,0.22,0.027,0.43,0.043,0.651c0.009,0.111,0.149-0.013,0.165-0.061
						c0.084-0.249,0.056-0.459-0.005-0.711C30.815,9.69,30.623,9.831,30.636,9.912L30.636,9.912z"/>
				</g>
			</g>
		</g>
		<g>
			<g>
				<g>
					<path d="M22.561,23.219c-1.656-0.09-1.682,2.959,0.205,2.649c0.713-0.117,1.219-0.65,1.24-1.379
						c0.022-0.754-0.751-1.425-1.497-1.221c-0.06,0.017-0.258,0.213-0.12,0.249c0.362,0.094,0.767,0.05,1.086,0.279
						c0.225,0.161,0.219,0.593,0.227,0.838c0.015,0.409-0.245,0.72-0.621,0.838c-0.483,0.151-1.007-0.064-1.234-0.505
						c-0.096-0.187-0.114-0.403-0.111-0.609c0.005-0.441,0.31-0.665,0.7-0.796C22.534,23.528,22.793,23.231,22.561,23.219z"/>
				</g>
			</g>
			<g>
				<g>
					<path d="M22.108,23.728c0.282-0.14,0.641,0.22,0.874,0.345c0.036,0.019,0.076-0.04,0.079-0.067
						c0.057-0.521-0.609-0.74-0.993-0.507C21.951,23.569,21.922,23.82,22.108,23.728L22.108,23.728z"/>
				</g>
			</g>
			<g>
				<g>
					<path d="M21.634,24.007c0.391,0.19,0.631,0.563,0.806,0.944c0.036,0.079,0.15-0.041,0.14-0.1
						c-0.083-0.469-0.313-0.913-0.784-1.071C21.695,23.747,21.514,23.949,21.634,24.007L21.634,24.007z"/>
				</g>
			</g>
			<g>
				<g>
					<path d="M22.529,25.197c0.027,0.11,0.052,0.221,0.074,0.332c0.014,0.066,0.134-0.027,0.129-0.077
						c-0.02-0.206-0.01-0.155-0.063-0.354C22.649,25.023,22.514,25.132,22.529,25.197L22.529,25.197z"/>
				</g>
			</g>
			<g>
				<g>
					<path d="M23.134,24.67c0.037,0.22,0.026,0.431,0.042,0.651c0.008,0.112,0.148-0.012,0.165-0.061
						c0.083-0.249,0.056-0.459-0.004-0.711C23.312,24.45,23.121,24.59,23.134,24.67L23.134,24.67z"/>
				</g>
			</g>
		</g>
		<g>
			<g>
				<g>
					<path d="M38.701,55.975c-1.656-0.09-1.683,2.959,0.204,2.649c0.713-0.117,1.218-0.651,1.239-1.379
						c0.022-0.754-0.75-1.425-1.496-1.221c-0.06,0.017-0.258,0.213-0.12,0.249c0.361,0.094,0.767,0.05,1.086,0.279
						c0.225,0.162,0.219,0.593,0.227,0.838c0.015,0.409-0.245,0.72-0.621,0.838c-0.482,0.151-1.007-0.064-1.233-0.505
						c-0.097-0.187-0.114-0.403-0.111-0.609c0.006-0.441,0.311-0.665,0.7-0.796C38.673,56.284,38.932,55.987,38.701,55.975z"/>
				</g>
			</g>
			<g>
				<g>
					<path d="M38.248,56.484c0.28-0.14,0.64,0.221,0.872,0.345c0.036,0.019,0.076-0.04,0.079-0.067
						c0.058-0.521-0.608-0.741-0.991-0.507C38.09,56.325,38.062,56.576,38.248,56.484L38.248,56.484z"/>
				</g>
			</g>
			<g>
				<g>
					<path d="M37.772,56.763c0.391,0.19,0.631,0.563,0.807,0.944c0.036,0.079,0.149-0.041,0.139-0.1
						c-0.083-0.469-0.313-0.913-0.783-1.071C37.833,56.502,37.652,56.705,37.772,56.763L37.772,56.763z"/>
				</g>
			</g>
			<g>
				<g>
					<path d="M38.668,57.953c0.026,0.11,0.051,0.221,0.072,0.332c0.014,0.066,0.134-0.027,0.13-0.077
						c-0.019-0.207-0.01-0.154-0.063-0.354C38.788,57.779,38.653,57.888,38.668,57.953L38.668,57.953z"/>
				</g>
			</g>
			<g>
				<g>
					<path d="M39.273,57.426c0.037,0.22,0.025,0.431,0.041,0.651c0.008,0.112,0.149-0.012,0.165-0.061
						c0.084-0.248,0.056-0.459-0.003-0.711C39.453,57.206,39.26,57.346,39.273,57.426L39.273,57.426z"/>
				</g>
			</g>
		</g>
		<g>
			<g>
				<g>
					<path d="M57.71,12.321c-1.656-0.09-1.683,2.959,0.204,2.649c0.713-0.117,1.219-0.651,1.239-1.379
						c0.022-0.754-0.75-1.426-1.496-1.221c-0.06,0.017-0.258,0.213-0.12,0.249c0.361,0.094,0.767,0.05,1.086,0.279
						c0.225,0.162,0.219,0.593,0.227,0.838c0.015,0.409-0.245,0.72-0.621,0.838c-0.482,0.151-1.007-0.064-1.233-0.505
						c-0.097-0.187-0.114-0.403-0.111-0.609c0.006-0.441,0.311-0.665,0.7-0.796C57.683,12.63,57.942,12.333,57.71,12.321z"/>
				</g>
			</g>
			<g>
				<g>
					<path d="M57.257,12.83c0.28-0.139,0.64,0.221,0.872,0.345c0.036,0.019,0.076-0.04,0.079-0.067
						c0.058-0.521-0.608-0.741-0.991-0.507C57.1,12.671,57.072,12.922,57.257,12.83L57.257,12.83z"/>
				</g>
			</g>
			<g>
				<g>
					<path d="M56.782,13.109c0.391,0.19,0.631,0.563,0.807,0.944c0.036,0.079,0.149-0.041,0.139-0.1
						c-0.083-0.469-0.313-0.913-0.783-1.071C56.843,12.848,56.662,13.051,56.782,13.109L56.782,13.109z"/>
				</g>
			</g>
			<g>
				<g>
					<path d="M57.678,14.299c0.026,0.11,0.051,0.221,0.072,0.332c0.014,0.066,0.134-0.027,0.13-0.077
						c-0.019-0.207-0.01-0.154-0.063-0.354C57.797,14.125,57.663,14.234,57.678,14.299L57.678,14.299z"/>
				</g>
			</g>
			<g>
				<g>
					<path d="M58.284,13.773c0.036,0.22,0.024,0.431,0.04,0.651c0.009,0.111,0.149-0.013,0.165-0.061
						c0.084-0.248,0.056-0.459-0.003-0.711C58.462,13.552,58.27,13.692,58.284,13.773L58.284,13.773z"/>
				</g>
			</g>
		</g>
		<g>
			<g>
				<g>
					<path d="M44.621,14.388c-1.656-0.09-1.683,2.959,0.205,2.649c0.712-0.117,1.218-0.65,1.239-1.379
						c0.021-0.754-0.751-1.426-1.497-1.221c-0.06,0.017-0.258,0.213-0.12,0.249c0.361,0.094,0.767,0.05,1.086,0.279
						c0.225,0.162,0.219,0.593,0.228,0.838c0.014,0.409-0.245,0.72-0.621,0.838c-0.483,0.151-1.008-0.064-1.234-0.505
						c-0.097-0.187-0.114-0.403-0.111-0.609c0.006-0.441,0.311-0.665,0.7-0.796C44.593,14.697,44.852,14.4,44.621,14.388z"/>
				</g>
			</g>
			<g>
				<g>
					<path d="M44.167,14.896c0.28-0.139,0.64,0.221,0.872,0.345c0.036,0.019,0.076-0.04,0.079-0.067
						c0.058-0.521-0.608-0.741-0.991-0.507C44.01,14.738,43.982,14.988,44.167,14.896L44.167,14.896z"/>
				</g>
			</g>
			<g>
				<g>
					<path d="M43.692,15.175c0.392,0.19,0.632,0.562,0.807,0.944c0.031,0.071,0.151-0.03,0.142-0.084
						c-0.082-0.474-0.309-0.926-0.786-1.086C43.753,14.915,43.572,15.117,43.692,15.175L43.692,15.175z"/>
				</g>
			</g>
			<g>
				<g>
					<path d="M44.588,16.366c0.026,0.11,0.052,0.221,0.074,0.332c0.014,0.066,0.135-0.027,0.13-0.077
						c-0.021-0.205-0.012-0.156-0.065-0.354C44.708,16.192,44.573,16.301,44.588,16.366L44.588,16.366z"/>
				</g>
			</g>
			<g>
				<g>
					<path d="M45.193,15.839c0.038,0.22,0.025,0.43,0.041,0.651c0.008,0.111,0.149-0.013,0.165-0.061
						c0.084-0.249,0.057-0.459-0.003-0.711C45.372,15.618,45.179,15.759,45.193,15.839L45.193,15.839z"/>
				</g>
			</g>
		</g>
		<g>
			<g>
				<g>
					<path d="M28.775,5.408c-1.658-0.09-1.682,2.959,0.204,2.649c0.713-0.117,1.219-0.65,1.239-1.379
						c0.022-0.754-0.75-1.425-1.496-1.221c-0.06,0.017-0.258,0.213-0.12,0.249c0.361,0.094,0.767,0.05,1.086,0.279
						c0.225,0.162,0.219,0.593,0.227,0.838c0.015,0.409-0.245,0.72-0.621,0.838c-0.482,0.151-1.007-0.064-1.233-0.505
						c-0.096-0.187-0.114-0.403-0.112-0.609c0.005-0.442,0.31-0.665,0.7-0.796C28.748,5.717,29.006,5.42,28.775,5.408z"/>
				</g>
			</g>
			<g>
				<g>
					<path d="M28.32,5.917c0.283-0.14,0.64,0.22,0.874,0.345c0.036,0.02,0.076-0.04,0.079-0.067c0.058-0.522-0.609-0.74-0.993-0.507
						C28.163,5.758,28.135,6.008,28.32,5.917L28.32,5.917z"/>
				</g>
			</g>
			<g>
				<g>
					<path d="M27.847,6.195c0.391,0.19,0.631,0.563,0.805,0.944c0.036,0.079,0.15-0.041,0.139-0.1
						c-0.082-0.469-0.312-0.913-0.782-1.071C27.908,5.935,27.728,6.137,27.847,6.195L27.847,6.195z"/>
				</g>
			</g>
			<g>
				<g>
					<path d="M28.743,7.386c0.026,0.11,0.051,0.221,0.073,0.332c0.014,0.066,0.134-0.027,0.13-0.077
						c-0.02-0.206-0.011-0.155-0.064-0.354C28.862,7.212,28.727,7.321,28.743,7.386L28.743,7.386z"/>
				</g>
			</g>
			<g>
				<g>
					<path d="M29.347,6.859c0.037,0.22,0.025,0.431,0.041,0.651c0.008,0.112,0.149-0.012,0.165-0.061
						c0.084-0.248,0.057-0.459-0.003-0.711C29.526,6.638,29.334,6.779,29.347,6.859L29.347,6.859z"/>
				</g>
			</g>
		</g>
		<g>
			<g>
				<g>
					<path d="M39.25,49.331c-1.656-0.089-1.681,2.958,0.205,2.649c0.713-0.117,1.219-0.65,1.24-1.379
						c0.022-0.754-0.752-1.425-1.498-1.221c-0.06,0.017-0.258,0.213-0.12,0.249c0.362,0.094,0.768,0.05,1.088,0.279
						c0.225,0.161,0.219,0.593,0.227,0.838c0.015,0.409-0.245,0.72-0.622,0.838c-0.482,0.151-1.007-0.064-1.233-0.505
						c-0.096-0.187-0.113-0.403-0.111-0.609c0.006-0.442,0.309-0.665,0.699-0.796C39.222,49.64,39.481,49.343,39.25,49.331z"/>
				</g>
			</g>
			<g>
				<g>
					<path d="M38.796,49.839c0.282-0.139,0.641,0.22,0.874,0.345c0.036,0.019,0.076-0.04,0.079-0.067
						c0.058-0.522-0.609-0.74-0.993-0.507C38.639,49.681,38.611,49.931,38.796,49.839L38.796,49.839z"/>
				</g>
			</g>
			<g>
				<g>
					<path d="M38.323,50.119c0.391,0.19,0.631,0.563,0.807,0.944c0.036,0.079,0.149-0.041,0.139-0.1
						c-0.083-0.469-0.313-0.913-0.783-1.071C38.384,49.858,38.203,50.061,38.323,50.119L38.323,50.119z"/>
				</g>
			</g>
			<g>
				<g>
					<path d="M39.219,51.309c0.025,0.11,0.05,0.221,0.072,0.332c0.014,0.066,0.134-0.027,0.13-0.077
						c-0.02-0.205-0.011-0.156-0.063-0.354C39.339,51.135,39.204,51.244,39.219,51.309L39.219,51.309z"/>
				</g>
			</g>
			<g>
				<g>
					<path d="M39.822,50.783c0.038,0.22,0.027,0.43,0.043,0.651c0.009,0.111,0.149-0.013,0.165-0.061
						c0.084-0.249,0.056-0.459-0.005-0.711C40,50.562,39.808,50.702,39.822,50.783L39.822,50.783z"/>
				</g>
			</g>
		</g>
		<g>
			<g>
				<g>
					<path d="M42.513,51.152c-1.656-0.09-1.683,2.959,0.205,2.649c0.712-0.117,1.218-0.651,1.239-1.379
						c0.021-0.753-0.751-1.425-1.497-1.221c-0.06,0.017-0.258,0.213-0.12,0.249c0.361,0.094,0.767,0.05,1.086,0.279
						c0.225,0.162,0.219,0.593,0.228,0.838c0.014,0.409-0.245,0.72-0.621,0.838c-0.483,0.151-1.008-0.064-1.234-0.505
						c-0.097-0.187-0.114-0.403-0.111-0.609c0.006-0.441,0.311-0.665,0.7-0.796C42.486,51.461,42.745,51.164,42.513,51.152z"/>
				</g>
			</g>
			<g>
				<g>
					<path d="M42.06,51.661c0.28-0.14,0.64,0.221,0.872,0.345c0.036,0.019,0.076-0.04,0.079-0.067
						c0.058-0.521-0.608-0.741-0.991-0.507C41.903,51.502,41.875,51.752,42.06,51.661L42.06,51.661z"/>
				</g>
			</g>
			<g>
				<g>
					<path d="M41.584,51.939c0.392,0.19,0.632,0.562,0.807,0.944c0.031,0.07,0.151-0.03,0.142-0.084
						c-0.082-0.474-0.309-0.926-0.786-1.086C41.646,51.679,41.464,51.881,41.584,51.939L41.584,51.939z"/>
				</g>
			</g>
			<g>
				<g>
					<path d="M42.481,53.13c0.026,0.11,0.052,0.221,0.074,0.332c0.014,0.066,0.135-0.027,0.13-0.077
						c-0.021-0.205-0.012-0.156-0.065-0.354C42.6,52.956,42.465,53.065,42.481,53.13L42.481,53.13z"/>
				</g>
			</g>
			<g>
				<g>
					<path d="M43.085,52.603c0.038,0.22,0.025,0.431,0.041,0.651c0.008,0.112,0.149-0.012,0.165-0.061
						c0.084-0.249,0.057-0.459-0.003-0.711C43.264,52.382,43.072,52.523,43.085,52.603L43.085,52.603z"/>
				</g>
			</g>
		</g>
		<g>
			<g>
				<g>
					<path d="M32.933,53.281c-1.656-0.09-1.681,2.958,0.205,2.649c0.713-0.117,1.219-0.65,1.24-1.379
						c0.021-0.754-0.752-1.425-1.498-1.221c-0.06,0.017-0.258,0.213-0.12,0.249c0.361,0.094,0.768,0.05,1.087,0.279
						c0.225,0.161,0.219,0.594,0.228,0.838c0.015,0.409-0.246,0.72-0.622,0.838c-0.482,0.151-1.007-0.064-1.233-0.505
						c-0.096-0.187-0.113-0.403-0.111-0.609c0.006-0.441,0.309-0.665,0.699-0.796C32.906,53.59,33.165,53.293,32.933,53.281z"/>
				</g>
			</g>
			<g>
				<g>
					<path d="M32.48,53.79c0.282-0.14,0.641,0.22,0.874,0.345c0.036,0.019,0.076-0.039,0.079-0.067
						c0.057-0.522-0.609-0.74-0.993-0.507C32.323,53.631,32.294,53.881,32.48,53.79L32.48,53.79z"/>
				</g>
			</g>
			<g>
				<g>
					<path d="M32.006,54.068c0.391,0.19,0.631,0.563,0.807,0.944c0.036,0.079,0.149-0.041,0.139-0.1
						c-0.083-0.469-0.313-0.913-0.783-1.071C32.068,53.808,31.886,54.01,32.006,54.068L32.006,54.068z"/>
				</g>
			</g>
			<g>
				<g>
					<path d="M32.901,55.259c0.027,0.11,0.052,0.221,0.074,0.332c0.014,0.066,0.135-0.027,0.13-0.077
						c-0.02-0.206-0.011-0.155-0.063-0.354C33.021,55.085,32.886,55.194,32.901,55.259L32.901,55.259z"/>
				</g>
			</g>
			<g>
				<g>
					<path d="M33.505,54.732c0.038,0.22,0.027,0.431,0.043,0.651c0.009,0.111,0.149-0.012,0.165-0.061
						c0.084-0.249,0.056-0.459-0.005-0.711C33.684,54.511,33.492,54.652,33.505,54.732L33.505,54.732z"/>
				</g>
			</g>
		</g>
		<g>
			<g>
				<g>
					<path d="M45.001,76.153c-1.656-0.09-1.681,2.959,0.205,2.649c0.713-0.117,1.219-0.65,1.239-1.379
						c0.021-0.754-0.751-1.425-1.497-1.221c-0.06,0.017-0.258,0.213-0.12,0.249c0.361,0.094,0.768,0.05,1.086,0.279
						c0.225,0.161,0.219,0.594,0.228,0.838c0.015,0.409-0.245,0.72-0.621,0.838c-0.482,0.151-1.007-0.064-1.233-0.505
						c-0.096-0.187-0.113-0.403-0.111-0.609c0.006-0.441,0.309-0.665,0.699-0.796C44.974,76.462,45.233,76.165,45.001,76.153z"/>
				</g>
			</g>
			<g>
				<g>
					<path d="M44.548,76.662c0.282-0.14,0.64,0.221,0.874,0.345c0.036,0.019,0.076-0.039,0.079-0.067
						c0.056-0.522-0.609-0.74-0.993-0.507C44.391,76.503,44.363,76.753,44.548,76.662L44.548,76.662z"/>
				</g>
			</g>
			<g>
				<g>
					<path d="M44.075,76.94c0.391,0.19,0.631,0.563,0.807,0.944c0.036,0.079,0.149-0.041,0.139-0.1
						c-0.083-0.469-0.313-0.913-0.783-1.071C44.136,76.68,43.955,76.882,44.075,76.94L44.075,76.94z"/>
				</g>
			</g>
			<g>
				<g>
					<path d="M44.969,78.131c0.027,0.11,0.053,0.221,0.074,0.332c0.014,0.066,0.135-0.027,0.13-0.077
						c-0.021-0.207-0.011-0.154-0.065-0.354C45.088,77.957,44.954,78.066,44.969,78.131L44.969,78.131z"/>
				</g>
			</g>
			<g>
				<g>
					<path d="M45.574,77.604c0.038,0.22,0.027,0.431,0.043,0.651c0.009,0.111,0.149-0.012,0.165-0.061
						c0.084-0.249,0.056-0.459-0.005-0.711C45.752,77.383,45.56,77.524,45.574,77.604L45.574,77.604z"/>
				</g>
			</g>
		</g>
		<g>
			<g>
				<g>
					<path d="M23.728,1.738c-1.656-0.09-1.682,2.959,0.205,2.649c0.713-0.117,1.219-0.65,1.24-1.379
						c0.022-0.754-0.751-1.425-1.497-1.221c-0.06,0.017-0.258,0.213-0.12,0.249c0.362,0.094,0.767,0.05,1.086,0.279
						c0.225,0.161,0.219,0.593,0.227,0.838c0.015,0.409-0.245,0.72-0.621,0.838c-0.483,0.151-1.007-0.064-1.234-0.505
						c-0.096-0.187-0.114-0.403-0.111-0.609c0.005-0.441,0.31-0.665,0.7-0.796C23.701,2.047,23.96,1.75,23.728,1.738z"/>
				</g>
			</g>
			<g>
				<g>
					<path d="M23.275,2.247c0.282-0.14,0.641,0.22,0.874,0.345c0.036,0.019,0.076-0.04,0.079-0.067
						c0.057-0.521-0.609-0.74-0.993-0.507C23.118,2.088,23.089,2.338,23.275,2.247L23.275,2.247z"/>
				</g>
			</g>
			<g>
				<g>
					<path d="M22.801,2.525c0.391,0.19,0.631,0.563,0.806,0.944c0.036,0.079,0.15-0.041,0.14-0.1
						c-0.083-0.469-0.313-0.913-0.784-1.071C22.862,2.265,22.681,2.467,22.801,2.525L22.801,2.525z"/>
				</g>
			</g>
			<g>
				<g>
					<path d="M23.696,3.716c0.027,0.11,0.052,0.221,0.074,0.332c0.014,0.066,0.134-0.027,0.129-0.077
						c-0.02-0.206-0.01-0.155-0.063-0.354C23.816,3.542,23.681,3.651,23.696,3.716L23.696,3.716z"/>
				</g>
			</g>
			<g>
				<g>
					<path d="M24.301,3.189c0.037,0.22,0.026,0.431,0.042,0.651c0.008,0.112,0.148-0.012,0.165-0.061
						c0.083-0.249,0.056-0.459-0.004-0.711C24.479,2.968,24.288,3.109,24.301,3.189L24.301,3.189z"/>
				</g>
			</g>
		</g>
		<g>
			<g>
				<g>
					<path d="M22.575,6.659c-1.656-0.089-1.681,2.959,0.205,2.649c0.713-0.117,1.219-0.65,1.24-1.379
						c0.022-0.754-0.751-1.426-1.497-1.221c-0.06,0.017-0.258,0.213-0.12,0.249c0.361,0.094,0.767,0.05,1.086,0.279
						c0.224,0.161,0.219,0.593,0.227,0.838c0.015,0.409-0.245,0.72-0.621,0.838c-0.483,0.151-1.007-0.064-1.233-0.505
						c-0.096-0.187-0.114-0.403-0.112-0.609c0.005-0.441,0.31-0.665,0.7-0.796C22.548,6.968,22.807,6.671,22.575,6.659z"/>
				</g>
			</g>
			<g>
				<g>
					<path d="M22.122,7.167c0.282-0.139,0.641,0.221,0.874,0.345c0.036,0.019,0.076-0.04,0.079-0.067
						c0.057-0.522-0.609-0.74-0.993-0.507C21.965,7.009,21.937,7.259,22.122,7.167L22.122,7.167z"/>
				</g>
			</g>
			<g>
				<g>
					<path d="M21.648,7.447c0.391,0.19,0.631,0.563,0.806,0.944c0.036,0.079,0.15-0.041,0.14-0.1
						C22.511,7.822,22.28,7.378,21.81,7.22C21.709,7.187,21.528,7.389,21.648,7.447L21.648,7.447z"/>
				</g>
			</g>
			<g>
				<g>
					<path d="M22.543,8.637c0.027,0.11,0.052,0.221,0.074,0.332c0.014,0.066,0.134-0.027,0.129-0.077
						c-0.02-0.206-0.01-0.155-0.063-0.354C22.663,8.463,22.528,8.572,22.543,8.637L22.543,8.637z"/>
				</g>
			</g>
			<g>
				<g>
					<path d="M23.148,8.111c0.038,0.22,0.026,0.43,0.042,0.651c0.008,0.111,0.149-0.013,0.165-0.061
						c0.083-0.249,0.056-0.459-0.004-0.711C23.327,7.89,23.135,8.03,23.148,8.111L23.148,8.111z"/>
				</g>
			</g>
		</g>
		<g>
			<g>
				<g>
					<path d="M28.174,2.464c-1.656-0.09-1.681,2.959,0.205,2.649c0.712-0.117,1.218-0.65,1.24-1.379
						c0.022-0.754-0.751-1.425-1.497-1.221c-0.06,0.017-0.258,0.213-0.12,0.249c0.362,0.094,0.767,0.05,1.087,0.279
						c0.225,0.161,0.219,0.593,0.227,0.838c0.015,0.409-0.245,0.72-0.621,0.838c-0.483,0.151-1.007-0.064-1.233-0.505
						c-0.096-0.187-0.114-0.403-0.112-0.609c0.005-0.441,0.31-0.665,0.7-0.796C28.147,2.773,28.406,2.477,28.174,2.464z"/>
				</g>
			</g>
			<g>
				<g>
					<path d="M27.721,2.973c0.282-0.14,0.64,0.221,0.874,0.345c0.036,0.019,0.076-0.039,0.079-0.067
						c0.057-0.521-0.609-0.74-0.993-0.507C27.564,2.814,27.535,3.065,27.721,2.973L27.721,2.973z"/>
				</g>
			</g>
			<g>
				<g>
					<path d="M27.247,3.252c0.392,0.19,0.632,0.563,0.806,0.944c0.036,0.079,0.15-0.041,0.14-0.1
						c-0.083-0.469-0.313-0.914-0.784-1.071C27.308,2.992,27.127,3.194,27.247,3.252L27.247,3.252z"/>
				</g>
			</g>
			<g>
				<g>
					<path d="M28.142,4.442c0.027,0.11,0.052,0.221,0.075,0.332c0.014,0.066,0.134-0.027,0.129-0.077
						c-0.02-0.206-0.01-0.155-0.064-0.354C28.261,4.269,28.126,4.377,28.142,4.442L28.142,4.442z"/>
				</g>
			</g>
			<g>
				<g>
					<path d="M28.747,3.916c0.037,0.22,0.026,0.431,0.042,0.651c0.008,0.111,0.149-0.012,0.165-0.061
						c0.084-0.249,0.056-0.459-0.004-0.711C28.925,3.695,28.733,3.835,28.747,3.916L28.747,3.916z"/>
				</g>
			</g>
		</g>
		<g>
			<g>
				<g>
					<path d="M43.648,20.413c-1.656-0.09-1.681,2.959,0.205,2.649c0.713-0.117,1.219-0.65,1.239-1.379
						c0.021-0.754-0.751-1.425-1.497-1.221c-0.06,0.017-0.258,0.213-0.12,0.249c0.361,0.094,0.768,0.05,1.086,0.279
						c0.225,0.161,0.219,0.594,0.228,0.838c0.015,0.409-0.245,0.72-0.621,0.838c-0.482,0.151-1.007-0.064-1.233-0.505
						c-0.096-0.187-0.113-0.403-0.111-0.609c0.006-0.441,0.309-0.665,0.699-0.796C43.621,20.722,43.879,20.425,43.648,20.413z"/>
				</g>
			</g>
			<g>
				<g>
					<path d="M43.195,20.921c0.282-0.14,0.64,0.221,0.874,0.345c0.036,0.019,0.076-0.039,0.079-0.067
						c0.056-0.522-0.609-0.74-0.993-0.507C43.038,20.763,43.009,21.013,43.195,20.921L43.195,20.921z"/>
				</g>
			</g>
			<g>
				<g>
					<path d="M42.721,21.2c0.391,0.19,0.631,0.563,0.807,0.944c0.036,0.079,0.149-0.041,0.139-0.1
						c-0.083-0.469-0.313-0.913-0.783-1.071C42.783,20.94,42.601,21.142,42.721,21.2L42.721,21.2z"/>
				</g>
			</g>
			<g>
				<g>
					<path d="M43.616,22.391c0.027,0.11,0.053,0.221,0.074,0.332c0.014,0.066,0.135-0.027,0.13-0.077
						c-0.021-0.207-0.011-0.154-0.065-0.354C43.735,22.217,43.6,22.326,43.616,22.391L43.616,22.391z"/>
				</g>
			</g>
			<g>
				<g>
					<path d="M44.22,21.864c0.038,0.22,0.027,0.431,0.043,0.651c0.009,0.111,0.149-0.012,0.165-0.061
						c0.084-0.249,0.056-0.459-0.005-0.711C44.399,21.643,44.207,21.784,44.22,21.864L44.22,21.864z"/>
				</g>
			</g>
		</g>
		<g>
			<g>
				<g>
					<path d="M42.601,84.864c-1.656-0.09-1.683,2.959,0.205,2.649c0.712-0.117,1.218-0.651,1.239-1.379
						c0.021-0.753-0.751-1.425-1.497-1.221c-0.06,0.017-0.258,0.213-0.12,0.249c0.361,0.094,0.767,0.05,1.086,0.279
						c0.225,0.162,0.219,0.593,0.228,0.838c0.014,0.409-0.245,0.72-0.621,0.838c-0.483,0.151-1.008-0.064-1.234-0.505
						c-0.097-0.187-0.114-0.403-0.111-0.609c0.006-0.441,0.311-0.665,0.7-0.796C42.574,85.173,42.833,84.876,42.601,84.864z"/>
				</g>
			</g>
			<g>
				<g>
					<path d="M42.148,85.373c0.28-0.14,0.64,0.221,0.872,0.345c0.036,0.019,0.076-0.04,0.079-0.067
						c0.058-0.521-0.608-0.741-0.991-0.507C41.991,85.214,41.962,85.464,42.148,85.373L42.148,85.373z"/>
				</g>
			</g>
			<g>
				<g>
					<path d="M41.672,85.651c0.392,0.19,0.632,0.562,0.807,0.944c0.031,0.07,0.151-0.03,0.142-0.084
						c-0.082-0.474-0.309-0.926-0.786-1.086C41.734,85.391,41.552,85.593,41.672,85.651L41.672,85.651z"/>
				</g>
			</g>
			<g>
				<g>
					<path d="M42.569,86.842c0.026,0.11,0.052,0.221,0.074,0.332c0.014,0.066,0.135-0.027,0.13-0.077
						c-0.021-0.205-0.012-0.156-0.065-0.354C42.688,86.668,42.553,86.777,42.569,86.842L42.569,86.842z"/>
				</g>
			</g>
			<g>
				<g>
					<path d="M43.173,86.315c0.038,0.22,0.025,0.431,0.041,0.651c0.008,0.112,0.149-0.012,0.165-0.061
						c0.084-0.249,0.057-0.459-0.003-0.711C43.352,86.094,43.16,86.235,43.173,86.315L43.173,86.315z"/>
				</g>
			</g>
		</g>
		<g>
			<g>
				<g>
					<path d="M14.522,112.697c-0.792-0.037-1.293,0.793-1.29,1.499c0.004,0.912,0.772,1.341,1.6,1.221
						c0.76-0.11,1.234-0.834,1.174-1.563c-0.06-0.72-0.825-1.3-1.536-1.108c-0.06,0.016-0.258,0.216-0.12,0.249
						c0.379,0.092,0.81,0.051,1.138,0.3c0.218,0.166,0.214,0.59,0.227,0.834c0.02,0.377-0.185,0.696-0.517,0.858
						c-0.515,0.253-1.169,0.01-1.42-0.479c-0.1-0.195-0.119-0.419-0.116-0.634c0.005-0.462,0.325-0.7,0.735-0.835
						C14.497,113.006,14.753,112.708,14.522,112.697z"/>
				</g>
			</g>
			<g>
				<g>
					<path d="M14.055,113.213c0.295-0.147,0.667,0.224,0.907,0.36c0.035,0.02,0.076-0.04,0.079-0.067
						c0.051-0.535-0.629-0.763-1.026-0.523C13.898,113.055,13.87,113.305,14.055,113.213L14.055,113.213z"/>
				</g>
			</g>
			<g>
				<g>
					<path d="M13.566,113.502c0.409,0.194,0.653,0.588,0.835,0.982c0.032,0.07,0.151-0.03,0.143-0.084
						c-0.081-0.486-0.327-0.963-0.816-1.124C13.627,113.243,13.446,113.446,13.566,113.502L13.566,113.502z"/>
				</g>
			</g>
			<g>
				<g>
					<path d="M14.495,114.74c0.028,0.114,0.054,0.229,0.076,0.344c0.014,0.065,0.134-0.027,0.129-0.077
						c-0.021-0.214-0.01-0.159-0.066-0.366C14.615,114.566,14.479,114.675,14.495,114.74L14.495,114.74z"/>
				</g>
			</g>
			<g>
				<g>
					<path d="M15.124,114.194c0.039,0.228,0.028,0.446,0.042,0.676c0.007,0.111,0.149-0.013,0.165-0.061
						c0.085-0.257,0.057-0.475-0.005-0.736C15.302,113.973,15.11,114.113,15.124,114.194L15.124,114.194z"/>
				</g>
			</g>
		</g>
		<g>
			<g>
				<g>
					<path d="M33.739,116.477c-0.792-0.037-1.294,0.793-1.29,1.499c0.004,0.912,0.772,1.341,1.6,1.221
						c0.761-0.11,1.234-0.834,1.174-1.563c-0.061-0.72-0.825-1.3-1.536-1.108c-0.06,0.016-0.258,0.216-0.12,0.249
						c0.38,0.092,0.81,0.051,1.138,0.3c0.218,0.166,0.214,0.59,0.227,0.835c0.02,0.376-0.185,0.695-0.517,0.858
						c-0.515,0.253-1.168,0.01-1.42-0.479c-0.1-0.195-0.119-0.419-0.116-0.634c0.006-0.462,0.325-0.7,0.735-0.835
						C33.712,116.786,33.969,116.487,33.739,116.477z"/>
				</g>
			</g>
			<g>
				<g>
					<path d="M33.271,116.993c0.295-0.146,0.667,0.225,0.907,0.361c0.035,0.02,0.076-0.04,0.079-0.067
						c0.05-0.535-0.63-0.763-1.026-0.523C33.114,116.834,33.085,117.085,33.271,116.993L33.271,116.993z"/>
				</g>
			</g>
			<g>
				<g>
					<path d="M32.782,117.282c0.409,0.194,0.654,0.588,0.836,0.982c0.032,0.071,0.15-0.03,0.142-0.084
						c-0.08-0.487-0.326-0.963-0.815-1.124C32.843,117.022,32.662,117.225,32.782,117.282L32.782,117.282z"/>
				</g>
			</g>
			<g>
				<g>
					<path d="M33.711,118.52c0.027,0.114,0.053,0.229,0.075,0.344c0.014,0.066,0.134-0.027,0.13-0.077
						c-0.021-0.214-0.011-0.159-0.066-0.366C33.831,118.346,33.696,118.455,33.711,118.52L33.711,118.52z"/>
				</g>
			</g>
			<g>
				<g>
					<path d="M34.339,117.973c0.039,0.229,0.028,0.447,0.042,0.676c0.007,0.111,0.149-0.012,0.165-0.061
						c0.085-0.257,0.057-0.475-0.004-0.736C34.519,117.752,34.326,117.893,34.339,117.973L34.339,117.973z"/>
				</g>
			</g>
		</g>
		<g>
			<g>
				<g>
					<path d="M51.917,112.784c-0.792-0.037-1.294,0.793-1.29,1.499c0.006,0.912,0.773,1.341,1.601,1.221
						c0.761-0.11,1.234-0.834,1.173-1.563c-0.061-0.72-0.825-1.3-1.536-1.108c-0.06,0.016-0.258,0.216-0.12,0.249
						c0.38,0.092,0.81,0.051,1.138,0.3c0.218,0.166,0.214,0.59,0.227,0.835c0.02,0.376-0.184,0.695-0.516,0.858
						c-0.515,0.253-1.168,0.01-1.42-0.479c-0.1-0.195-0.119-0.419-0.116-0.634c0.005-0.462,0.324-0.7,0.734-0.835
						C51.891,113.094,52.148,112.795,51.917,112.784z"/>
				</g>
			</g>
			<g>
				<g>
					<path d="M51.451,113.3c0.295-0.146,0.667,0.225,0.907,0.361c0.035,0.02,0.076-0.04,0.079-0.067
						c0.05-0.535-0.63-0.763-1.026-0.523C51.293,113.142,51.265,113.393,51.451,113.3L51.451,113.3z"/>
				</g>
			</g>
			<g>
				<g>
					<path d="M50.961,113.59c0.409,0.194,0.654,0.588,0.836,0.982c0.032,0.071,0.15-0.03,0.142-0.084
						c-0.08-0.487-0.326-0.963-0.815-1.124C51.023,113.33,50.841,113.533,50.961,113.59L50.961,113.59z"/>
				</g>
			</g>
			<g>
				<g>
					<path d="M51.891,114.827c0.027,0.114,0.053,0.229,0.074,0.344c0.013,0.066,0.134-0.027,0.13-0.077
						c-0.021-0.214-0.011-0.159-0.065-0.366C52.011,114.653,51.875,114.762,51.891,114.827L51.891,114.827z"/>
				</g>
			</g>
			<g>
				<g>
					<path d="M52.52,114.281c0.037,0.229,0.026,0.447,0.04,0.676c0.007,0.111,0.149-0.012,0.165-0.061
						c0.085-0.257,0.057-0.475-0.003-0.736C52.699,114.06,52.506,114.2,52.52,114.281L52.52,114.281z"/>
				</g>
			</g>
		</g>
		<g>
			<g>
				<g>
					<path d="M46.546,115.432c-0.792-0.037-1.294,0.793-1.291,1.499c0.004,0.912,0.772,1.341,1.6,1.221
						c0.761-0.11,1.235-0.834,1.175-1.563c-0.061-0.72-0.825-1.3-1.536-1.108c-0.06,0.016-0.258,0.216-0.12,0.249
						c0.38,0.092,0.81,0.051,1.138,0.3c0.218,0.166,0.214,0.589,0.227,0.834c0.02,0.377-0.186,0.696-0.517,0.858
						c-0.516,0.253-1.169,0.011-1.421-0.479c-0.1-0.195-0.118-0.419-0.116-0.634c0.006-0.462,0.326-0.701,0.736-0.835
						C46.52,115.742,46.777,115.443,46.546,115.432z"/>
				</g>
			</g>
			<g>
				<g>
					<path d="M46.08,115.949c0.294-0.147,0.667,0.224,0.905,0.36c0.035,0.02,0.076-0.04,0.079-0.067
						c0.052-0.534-0.629-0.764-1.024-0.523C45.922,115.79,45.894,116.041,46.08,115.949L46.08,115.949z"/>
				</g>
			</g>
			<g>
				<g>
					<path d="M45.59,116.238c0.409,0.194,0.652,0.588,0.836,0.982c0.032,0.07,0.151-0.03,0.142-0.084
						c-0.081-0.486-0.326-0.963-0.815-1.124C45.652,115.978,45.47,116.181,45.59,116.238L45.59,116.238z"/>
				</g>
			</g>
			<g>
				<g>
					<path d="M46.518,117.475c0.028,0.114,0.054,0.229,0.076,0.344c0.014,0.065,0.135-0.027,0.13-0.077
						c-0.021-0.214-0.011-0.159-0.067-0.366C46.637,117.301,46.502,117.41,46.518,117.475L46.518,117.475z"/>
				</g>
			</g>
			<g>
				<g>
					<path d="M47.146,116.929c0.04,0.228,0.029,0.446,0.043,0.676c0.007,0.111,0.149-0.013,0.165-0.061
						c0.085-0.257,0.057-0.475-0.005-0.736C47.325,116.708,47.132,116.848,47.146,116.929L47.146,116.929z"/>
				</g>
			</g>
		</g>
		<g>
			<g>
				<g>
					<path d="M35.437,111.984c-0.792-0.037-1.293,0.793-1.29,1.499c0.005,0.912,0.771,1.341,1.6,1.221
						c0.76-0.11,1.234-0.834,1.174-1.563c-0.061-0.72-0.825-1.3-1.536-1.108c-0.06,0.016-0.258,0.216-0.12,0.249
						c0.38,0.092,0.81,0.051,1.138,0.3c0.218,0.166,0.214,0.59,0.227,0.834c0.02,0.377-0.185,0.696-0.517,0.858
						c-0.515,0.253-1.169,0.01-1.42-0.479c-0.1-0.195-0.118-0.419-0.116-0.634c0.006-0.462,0.325-0.7,0.735-0.835
						C35.411,112.293,35.667,111.995,35.437,111.984z"/>
				</g>
			</g>
			<g>
				<g>
					<path d="M34.97,112.5c0.295-0.147,0.666,0.224,0.905,0.36c0.035,0.02,0.076-0.04,0.079-0.067
						c0.053-0.535-0.629-0.763-1.024-0.523C34.813,112.342,34.785,112.592,34.97,112.5L34.97,112.5z"/>
				</g>
			</g>
			<g>
				<g>
					<path d="M34.481,112.79c0.409,0.194,0.653,0.588,0.836,0.982c0.032,0.07,0.151-0.03,0.142-0.084
						c-0.081-0.486-0.326-0.963-0.815-1.124C34.542,112.53,34.361,112.733,34.481,112.79L34.481,112.79z"/>
				</g>
			</g>
			<g>
				<g>
					<path d="M35.409,114.027c0.028,0.114,0.054,0.229,0.076,0.344c0.014,0.065,0.135-0.027,0.13-0.077
						c-0.021-0.214-0.011-0.159-0.067-0.366C35.528,113.853,35.393,113.962,35.409,114.027L35.409,114.027z"/>
				</g>
			</g>
			<g>
				<g>
					<path d="M36.037,113.481c0.04,0.228,0.029,0.446,0.043,0.676c0.007,0.111,0.149-0.013,0.165-0.061
						c0.085-0.257,0.057-0.475-0.005-0.736C36.215,113.26,36.023,113.4,36.037,113.481L36.037,113.481z"/>
				</g>
			</g>
		</g>
		<g>
			<g>
				<g>
					<path d="M15.938,107.101c-2.042-0.071-1.963,3.652,0.341,3.22c0.875-0.164,1.469-0.845,1.446-1.743
						c-0.023-0.922-0.934-1.643-1.839-1.428c-0.061,0.014-0.256,0.225-0.12,0.249c0.466,0.084,0.998,0.065,1.386,0.379
						c0.269,0.217,0.272,0.783,0.272,1.09c0,0.51-0.34,0.896-0.806,1.048c-0.634,0.207-1.327-0.069-1.614-0.66
						c-0.123-0.252-0.142-0.541-0.127-0.816c0.029-0.564,0.438-0.843,0.936-0.996C15.915,107.412,16.167,107.108,15.938,107.101z"/>
				</g>
			</g>
			<g>
				<g>
					<path d="M15.392,107.662c0.365-0.196,0.824,0.252,1.093,0.447c0.036,0.026,0.085-0.028,0.087-0.062
						c0.029-0.6-0.764-0.902-1.22-0.614C15.237,107.505,15.209,107.76,15.392,107.662L15.392,107.662z"/>
				</g>
			</g>
			<g>
				<g>
					<path d="M14.819,108.013c0.507,0.226,0.789,0.717,1.006,1.198c0.032,0.071,0.151-0.03,0.143-0.084
						c-0.095-0.572-0.413-1.152-0.986-1.34C14.879,107.753,14.698,107.959,14.819,108.013L14.819,108.013z"/>
				</g>
			</g>
			<g>
				<g>
					<path d="M15.937,109.52c0.035,0.138,0.061,0.276,0.091,0.416c0.014,0.067,0.132-0.029,0.129-0.077
						c-0.01-0.155-0.038-0.288-0.081-0.438C16.055,109.346,15.92,109.455,15.937,109.52L15.937,109.52z"/>
				</g>
			</g>
			<g>
				<g>
					<path d="M16.707,108.882c0.051,0.275,0.028,0.522,0.043,0.796c0.006,0.112,0.148-0.014,0.165-0.061
						c0.104-0.296,0.063-0.577-0.009-0.878C16.879,108.633,16.689,108.791,16.707,108.882L16.707,108.882z"/>
				</g>
			</g>
		</g>
		<g>
			<g>
				<g>
					<path d="M56.376,106.727c-2.042-0.071-1.963,3.652,0.341,3.22c0.875-0.164,1.469-0.845,1.446-1.743
						c-0.022-0.922-0.934-1.643-1.84-1.428c-0.062,0.014-0.256,0.225-0.12,0.249c0.467,0.084,0.999,0.065,1.387,0.379
						c0.269,0.217,0.272,0.783,0.272,1.09c-0.001,0.51-0.341,0.896-0.807,1.048c-0.634,0.207-1.327-0.069-1.614-0.66
						c-0.123-0.252-0.142-0.541-0.127-0.816c0.03-0.563,0.438-0.843,0.936-0.996C56.353,107.038,56.605,106.734,56.376,106.727z"/>
				</g>
			</g>
			<g>
				<g>
					<path d="M55.83,107.288c0.365-0.196,0.823,0.251,1.093,0.447c0.036,0.026,0.085-0.028,0.087-0.062
						c0.029-0.601-0.763-0.902-1.22-0.614C55.674,107.131,55.647,107.386,55.83,107.288L55.83,107.288z"/>
				</g>
			</g>
			<g>
				<g>
					<path d="M55.256,107.639c0.508,0.226,0.79,0.717,1.008,1.198c0.031,0.071,0.151-0.03,0.142-0.084
						c-0.095-0.572-0.413-1.152-0.987-1.34C55.317,107.379,55.135,107.585,55.256,107.639L55.256,107.639z"/>
				</g>
			</g>
			<g>
				<g>
					<path d="M56.375,109.146c0.035,0.138,0.061,0.276,0.09,0.416c0.014,0.067,0.133-0.029,0.13-0.077
						c-0.01-0.155-0.038-0.287-0.081-0.438C56.494,108.972,56.358,109.081,56.375,109.146L56.375,109.146z"/>
				</g>
			</g>
			<g>
				<g>
					<path d="M57.144,108.508c0.052,0.275,0.028,0.522,0.043,0.796c0.006,0.112,0.148-0.014,0.165-0.061
						c0.104-0.296,0.063-0.577-0.009-0.878C57.317,108.259,57.127,108.417,57.144,108.508L57.144,108.508z"/>
				</g>
			</g>
		</g>
		<g>
			<g>
				<g>
					<path d="M38.925,111.737c-2.041-0.071-1.963,3.652,0.341,3.22c0.875-0.164,1.469-0.845,1.446-1.743
						c-0.022-0.922-0.934-1.643-1.84-1.428c-0.062,0.014-0.256,0.225-0.12,0.249c0.467,0.084,0.999,0.065,1.387,0.379
						c0.269,0.217,0.272,0.783,0.272,1.09c-0.001,0.51-0.341,0.896-0.807,1.048c-0.634,0.207-1.327-0.069-1.614-0.66
						c-0.123-0.252-0.142-0.541-0.127-0.816c0.03-0.563,0.438-0.843,0.936-0.996C38.902,112.048,39.154,111.745,38.925,111.737z"/>
				</g>
			</g>
			<g>
				<g>
					<path d="M38.378,112.298c0.365-0.196,0.823,0.251,1.093,0.447c0.036,0.026,0.085-0.028,0.087-0.062
						c0.029-0.601-0.763-0.902-1.22-0.614C38.223,112.142,38.196,112.396,38.378,112.298L38.378,112.298z"/>
				</g>
			</g>
			<g>
				<g>
					<path d="M37.805,112.65c0.508,0.226,0.79,0.717,1.008,1.198c0.031,0.071,0.151-0.03,0.142-0.084
						c-0.095-0.572-0.413-1.152-0.987-1.34C37.866,112.39,37.684,112.596,37.805,112.65L37.805,112.65z"/>
				</g>
			</g>
			<g>
				<g>
					<path d="M38.924,114.157c0.035,0.138,0.061,0.276,0.09,0.416c0.014,0.067,0.133-0.029,0.13-0.077
						c-0.01-0.155-0.038-0.287-0.081-0.438C39.042,113.983,38.907,114.091,38.924,114.157L38.924,114.157z"/>
				</g>
			</g>
			<g>
				<g>
					<path d="M39.693,113.519c0.052,0.275,0.028,0.522,0.043,0.796c0.006,0.112,0.148-0.014,0.165-0.061
						c0.104-0.296,0.063-0.577-0.009-0.878C39.866,113.27,39.676,113.427,39.693,113.519L39.693,113.519z"/>
				</g>
			</g>
		</g>
		<g>
			<g>
				<g>
					<path d="M5.612,89.167c-2.266-0.03-2.114,4.016,0.395,3.55c0.964-0.179,1.614-0.925,1.59-1.914
						c-0.025-1.038-1.026-1.805-2.038-1.587c-0.09,0.02-0.254,0.229-0.093,0.254c0.527,0.083,1.34,0.055,1.637,0.594
						c0.446,0.812,0.185,1.943-0.729,2.242c-0.713,0.233-1.494-0.074-1.818-0.739c-0.138-0.283-0.159-0.606-0.143-0.915
						c0.033-0.642,0.502-0.975,1.073-1.142C5.59,89.479,5.839,89.17,5.612,89.167z"/>
				</g>
			</g>
			<g>
				<g>
					<path d="M5.012,89.758c0.405-0.229,0.934,0.271,1.224,0.508c0.035,0.028,0.086-0.029,0.087-0.062
						c0.019-0.642-0.857-0.997-1.351-0.675C4.859,89.603,4.832,89.861,5.012,89.758L5.012,89.758z"/>
				</g>
			</g>
			<g>
				<g>
					<path d="M4.383,90.152c0.572,0.248,0.882,0.803,1.121,1.343c0.031,0.071,0.151-0.03,0.143-0.084
						c-0.106-0.629-0.471-1.278-1.101-1.485C4.443,89.893,4.262,90.1,4.383,90.152L4.383,90.152z"/>
				</g>
			</g>
			<g>
				<g>
					<path d="M5.628,91.839c0.039,0.154,0.068,0.309,0.1,0.464c0.013,0.066,0.133-0.028,0.129-0.077
						c-0.012-0.172-0.043-0.32-0.09-0.487C5.748,91.665,5.612,91.773,5.628,91.839L5.628,91.839z"/>
				</g>
			</g>
			<g>
				<g>
					<path d="M6.49,91.126c0.061,0.307,0.027,0.585,0.047,0.891c0.006,0.097,0.139,0.008,0.157-0.04
						c0.123-0.33,0.078-0.657-0.005-0.994C6.662,90.877,6.471,91.034,6.49,91.126L6.49,91.126z"/>
				</g>
			</g>
		</g>
	</g>
</g>
<g id="DESIGNED_BY_FREEPIK">
</g>
</svg>
