<?xml version="1.0" encoding="utf-8"?>
<!-- Generator: Adobe Illustrator 16.0.0, SVG Export Plug-In . SVG Version: 6.00 Build 0)  -->
<!DOCTYPE svg PUBLIC "-//W3C//DTD SVG 1.1//EN" "http://www.w3.org/Graphics/SVG/1.1/DTD/svg11.dtd">
<svg version="1.1" xmlns="http://www.w3.org/2000/svg" xmlns:xlink="http://www.w3.org/1999/xlink" x="0px" y="0px"
	 width="41.125px" height="28.342px" viewBox="0 0 41.125 28.342" enable-background="new 0 0 41.125 28.342" xml:space="preserve">
<g id="BACKGROUND">
</g>
<g id="OBJECTS">
	<g>
		<g>
			<g>
				<path d="M10.155,15.676c0.729,2.035,1.873,3.971,2.803,5.924c0.471,0.99,0.934,1.984,1.42,2.968
					c0.488,0.989,0.91,2.22,1.736,2.972c0.57,0.52,1.436-0.584,1.328-1.13c-0.211-1.069-0.898-2.071-1.381-3.047
					c-0.486-0.98-0.973-1.961-1.461-2.939c-0.955-1.911-1.891-4.089-3.355-5.674C10.845,14.315,9.995,15.23,10.155,15.676
					L10.155,15.676z"/>
			</g>
		</g>
		<g>
			<g>
				<path d="M17.026,27.316c0.543-0.577,0.697-1.132,0.982-1.881c0.369-0.97,0.797-1.916,1.213-2.865
					c0.848-1.93,1.812-3.807,2.791-5.673c0.908-1.735,1.84-3.458,2.742-5.197c0.879-1.692,1.93-3.475,2.443-5.319
					c0.295-1.051-1.129-0.254-1.373,0.172c-0.941,1.64-1.652,3.443-2.516,5.129c-0.963,1.876-1.969,3.73-2.943,5.6
					c-0.904,1.733-1.773,3.484-2.568,5.271c-0.387,0.867-0.717,1.758-1.043,2.65c-0.24,0.658-0.756,1.519-0.428,2.198
					C16.47,27.695,16.87,27.484,17.026,27.316L17.026,27.316z"/>
			</g>
		</g>
		<g>
			<g>
				<path d="M22.591,14.173c2.668-1.41,4.939-3.505,7.174-5.507c2.664-2.389,5.338-4.466,8.4-6.314
					c0.17-0.104,0.215-0.44-0.057-0.328c-2.793,1.158-5.195,3.354-7.43,5.336c-2.627,2.328-5.188,4.645-8.129,6.576
					C22.433,14.012,22.399,14.273,22.591,14.173L22.591,14.173z"/>
			</g>
		</g>
		<g>
			<g>
				<path d="M31.138,7.663c1.105,0.613,2.111,1.329,3.094,2.122c0.789,0.637,1.539,1.457,2.471,1.876
					c0.123,0.056,0.311-0.162,0.232-0.272c-0.643-0.903-1.715-1.602-2.584-2.277c-0.912-0.707-1.879-1.371-2.945-1.821
					C31.241,7.221,30.948,7.558,31.138,7.663L31.138,7.663z"/>
			</g>
		</g>
		<g>
			<g>
				<path d="M12.669,18.361c0.463-2.35,0.832-4.715,1.205-7.08c0.373-2.361,0.922-4.718,1.223-7.087
					c0.031-0.254-0.287-0.056-0.328,0.082c-0.686,2.288-0.939,4.746-1.289,7.104c-0.348,2.357-0.688,4.716-1.123,7.06
					C12.313,18.669,12.64,18.508,12.669,18.361L12.669,18.361z"/>
			</g>
		</g>
		<g>
			<g>
				<path d="M14.466,8.688c-0.545-0.971-1.186-1.877-1.838-2.777c-0.682-0.938-1.32-2.054-2.162-2.852
					c-0.092-0.088-0.271,0.103-0.236,0.202c0.352,1.007,1.111,1.891,1.736,2.742c0.727,0.99,1.434,1.99,2.119,3.009
					C14.188,9.167,14.552,8.841,14.466,8.688L14.466,8.688z"/>
			</g>
		</g>
		<g>
			<g>
				<path d="M10.804,15.363c-2.32-1.396-5.072-4.401-7.99-4.257C2.718,11.111,2.478,11.335,2.64,11.4
					c1.557,0.625,2.959,1.072,4.393,2.008c1.176,0.769,2.297,1.611,3.521,2.303C10.7,15.793,10.978,15.468,10.804,15.363
					L10.804,15.363z"/>
			</g>
		</g>
		<g>
			<path d="M36.155,11.662c-0.336,1.538,0.758,3.106,2.404,2.129c1.291-0.804,0.984-2.573-0.514-3.105
				C37.319,10.463,36.509,10.983,36.155,11.662"/>
		</g>
		<g>
			<path d="M37.909,0.362c-0.338,1.537,0.758,3.107,2.404,2.13c1.291-0.805,0.984-2.573-0.514-3.106
				C39.073-0.837,38.263-0.317,37.909,0.362"/>
		</g>
		<g>
			<path d="M13.767,2.192c-0.336,1.537,0.758,3.106,2.404,2.13c1.293-0.806,0.986-2.574-0.512-3.106
				C14.933,0.993,14.122,1.513,13.767,2.192"/>
		</g>
		<g>
			<path d="M7.993,1.022c-0.338,1.536,0.756,3.105,2.404,2.129c1.291-0.806,0.984-2.574-0.514-3.107
				C9.157-0.179,8.347,0.342,7.993,1.022"/>
		</g>
		<g>
			<path d="M0.061,10.06c-0.336,1.537,0.757,3.105,2.405,2.129c1.291-0.806,0.984-2.573-0.514-3.106
				C1.226,8.859,0.416,9.379,0.061,10.06"/>
		</g>
	</g>
</g>
<g id="DESIGNED_BY_FREEPIK">
</g>
</svg>
