<?xml version="1.0" encoding="utf-8"?>
<!-- Generator: Adobe Illustrator 16.0.0, SVG Export Plug-In . SVG Version: 6.00 Build 0)  -->
<!DOCTYPE svg PUBLIC "-//W3C//DTD SVG 1.1//EN" "http://www.w3.org/Graphics/SVG/1.1/DTD/svg11.dtd">
<svg version="1.1" xmlns="http://www.w3.org/2000/svg" xmlns:xlink="http://www.w3.org/1999/xlink" x="0px" y="0px"
	 width="142.615px" height="105.279px" viewBox="0 0 142.615 105.279" enable-background="new 0 0 142.615 105.279"
	 xml:space="preserve">
<g id="BACKGROUND">
</g>
<g id="OBJECTS">
	<g>
		<g>
			<g>
				<path d="M114.008,56.045c-13.235-1.598-26.577-1.393-39.651,1.373c-12.899,2.727-25.288,7.631-36.63,14.34
					c-6.933,4.102-13.429,8.869-19.492,14.166c-3.144,2.746-6.149,5.664-9.196,8.518c-3.143,2.943-6.26,5.994-8.734,9.537
					c-1.029,1.471,0.816,1.729,1.609,0.596c3.995-5.717,9.646-10.307,14.72-15.031c4.973-4.631,10.328-8.836,15.974-12.613
					c11.069-7.406,23.389-12.945,36.253-16.375c14.476-3.859,29.825-5.209,44.735-3.65
					C113.982,56.945,114.549,56.109,114.008,56.045L114.008,56.045z"/>
			</g>
		</g>
		<g>
			<g>
				<path d="M113.591,55.963c-1.838,1.492-2.229,4.207-4.287,5.42c0.124,0.049,0.248,0.098,0.372,0.145
					c-0.012-2.258,2.124-3.574,3.854-4.6c0.146-0.088,0.795-0.76,0.318-0.865c-2.045-0.449-3.994-1.117-5.979-1.77
					c-0.161,0.334-0.322,0.666-0.482,1c2.195-0.668,4.874-1.465,6.504,0.615c0.229-0.229,0.458-0.457,0.688-0.688
					c-1.546-1.375-2.857-2.947-4.108-4.588c-0.207,0.287-0.414,0.574-0.621,0.861c1.048,0.125,1.753,0.596,2.594,1.193
					c0.339,0.242,0.998-0.389,0.721-0.721c-0.731-0.871-1.76-1.27-2.868-1.4c-0.354-0.043-0.868,0.535-0.621,0.861
					c1.248,1.637,2.636,3.16,4.217,4.48c0.322,0.27,0.793-0.311,0.73-0.619c-0.58-2.852-5.183-1.506-6.983-1
					c-0.257,0.072-1.024,0.816-0.482,1c2.004,0.686,4.019,1.502,6.144,1.695c0.033-0.27,0.066-0.539,0.1-0.809
					c-2.057,1.314-4.447,3.006-4.457,5.705c-0.001,0.209,0.229,0.219,0.371,0.146c2.342-1.205,3.228-3.602,4.763-5.58
					C114.404,56.025,114.014,55.621,113.591,55.963L113.591,55.963z"/>
			</g>
		</g>
		<g>
			<g>
				<path d="M112.391,57.316c-1.005,0.053-2.016-0.174-3.004,0.084c0.091,0.059,0.183,0.117,0.274,0.178
					c0.034-0.338,0.09-0.658,0.176-0.986c0.073-0.279,0.229-0.521,0.245-0.811c0.018-0.301-0.377-0.098-0.476-0.012
					c-0.546,0.48-0.559,1.402-0.659,2.07c-0.028,0.186,0.066,0.305,0.264,0.264c0.934-0.199,1.9-0.02,2.846-0.092
					C112.36,57.988,112.817,57.295,112.391,57.316L112.391,57.316z"/>
			</g>
		</g>
		<g>
			<g>
				<path d="M115.046,54.973c-0.376-3.738,0.461-7.279,2.138-10.639c0.814-1.633,1.819-3.055,2.975-4.461
					c1.699-2.064,3.771-3.504,5.821-5.166c0.154-0.125,0.25-0.482-0.062-0.357c-2.204,0.883-4.121,2.857-5.687,4.584
					c-1.396,1.539-2.534,3.211-3.651,4.957c-1.161,1.814-2.041,3.885-2.671,5.939c-0.528,1.723-0.907,4.154,0.007,5.814
					C114.218,56.191,115.09,55.412,115.046,54.973L115.046,54.973z"/>
			</g>
		</g>
		<g>
			<g>
				<path d="M114.524,53.74c-0.458-1.561-0.757-3.104-0.74-4.734c0.015-1.439,0.479-2.801,0.643-4.215
					c0.053-0.459-0.627,0.02-0.708,0.178c-1.584,3.074-1.231,6.277-0.098,9.418C113.795,54.871,114.645,54.152,114.524,53.74
					L114.524,53.74z"/>
			</g>
		</g>
		<g>
			<g>
				<path d="M112.251,58.57c-0.603,1.4-2.167,4.857-0.086,5.791c0.181,0.08,0.408-0.205,0.368-0.367
					c-0.114-0.461-0.362-0.84-0.501-1.295c-0.167-0.555-0.028-1.189,0.103-1.73c0.204-0.848,0.594-1.641,0.812-2.486
					C113.079,57.975,112.365,58.305,112.251,58.57L112.251,58.57z"/>
			</g>
		</g>
		<g>
			<g>
				<path d="M112.532,57.605c-0.506,1.992,1.079,4.457,2.179,5.984c1.738,2.416,4.34,4.557,7.021,5.834
					c0.119,0.057,0.368-0.213,0.247-0.291c-2.439-1.578-4.385-3.441-6.011-5.857c-0.691-1.027-1.273-2.125-1.772-3.258
					c-0.395-0.895-0.448-1.936-0.86-2.799C113.142,56.814,112.593,57.365,112.532,57.605L112.532,57.605z"/>
			</g>
		</g>
		<g>
			<g>
				<path d="M113.745,55.975c1.681,1.693,5.138,2.646,7.335,1.41c0.13-0.072,0.411-0.416,0.116-0.463
					c-0.49-0.076-0.932,0.064-1.429,0.113c-0.72,0.072-1.453,0.012-2.161-0.113c-1.201-0.213-2.283-0.822-3.198-1.609
					C114.115,55.061,113.473,55.701,113.745,55.975L113.745,55.975z"/>
			</g>
		</g>
		<g>
			<g>
				<path d="M115.198,55.498c0.288-0.48,0.62-0.924,1.005-1.332c0.34-0.357,0.797-0.664,0.988-1.135
					c0.067-0.166,0.023-0.365-0.199-0.309c-0.564,0.145-0.983,0.699-1.348,1.121c-0.408,0.471-0.772,0.975-1.004,1.557
					C114.457,55.863,115.022,55.789,115.198,55.498L115.198,55.498z"/>
			</g>
		</g>
		<g>
			<g>
				<path d="M110.368,61.223c-2.67,4.83,0.115,10.463,3.364,14.266c0.109,0.127,0.414-0.154,0.334-0.285
					c-2.578-4.162-5.509-9.041-3.13-13.973C111.165,60.756,110.522,60.945,110.368,61.223L110.368,61.223z"/>
			</g>
		</g>
		<g>
			<g>
				<path d="M107.603,70.113c0.714,1.318,0.958,2.666,0.932,4.15c-0.001,0.068,0.101-0.004,0.108-0.041
					c0.312-1.451,0.119-3.125-0.765-4.344C107.797,69.768,107.543,70.004,107.603,70.113L107.603,70.113z"/>
			</g>
		</g>
		<g>
			<g>
				<path d="M110.656,75.695c0.331,1.406,1.75,2.201,2.953,2.795c1.202,0.592,2.711,1.211,4.074,1.246
					c0.078,0.004,0.235-0.191,0.126-0.211c-2.244-0.393-6.225-1.479-6.93-3.99C110.845,75.416,110.631,75.592,110.656,75.695
					L110.656,75.695z"/>
			</g>
		</g>
		<g>
			<g>
				<path d="M120.803,81.441c1.601,0.02,3.549-0.422,3.667-2.33c0.01-0.162-0.264,0.01-0.271,0.131
					c-0.095,1.693-1.915,1.967-3.28,1.957C120.811,81.199,120.654,81.439,120.803,81.441L120.803,81.441z"/>
			</g>
		</g>
		<g>
			<g>
				<path d="M128.777,77.986c2.769,0.58,3.658-1.746,5.556-3.193c0.816-0.621,1.982-0.971,2.645-1.791
					c0.734-0.908,0.534-2.016,0.088-3.023c-0.05-0.113-0.233,0.057-0.208,0.148c0.371,1.35,0.574,2.426-0.724,3.301
					c-0.701,0.475-1.45,0.836-2.122,1.355c-1.749,1.352-2.46,3.521-5.112,3.033C128.818,77.801,128.687,77.967,128.777,77.986
					L128.777,77.986z"/>
			</g>
		</g>
		<g>
			<g>
				<path d="M135.968,67.977c0.593-0.346,1.272-0.902,1.345-1.645c0.073-0.76-0.547-1.594-1.35-1.584
					c-0.06,0-0.183,0.105-0.121,0.168c0.415,0.424,0.934,0.486,1.143,1.121c0.252,0.766-0.473,1.416-1.047,1.768
					C135.849,67.859,135.835,68.055,135.968,67.977L135.968,67.977z"/>
			</g>
		</g>
		<g>
			<g>
				<path d="M135.298,60.207c-0.139-2.109-2.401-2.096-4.025-1.9c-1.228,0.146-2.435,0.463-3.627,0.779
					c-0.889,0.236-1.874,0.395-2.729,0.73c-0.047,0.02-0.128,0.139-0.037,0.148c0.622,0.072,1.405-0.273,1.998-0.434
					c0.996-0.268,1.993-0.529,3.003-0.738c1.647-0.342,4.965-0.939,5.214,1.512C135.108,60.432,135.304,60.297,135.298,60.207
					L135.298,60.207z"/>
			</g>
		</g>
		<g>
			<g>
				<path d="M132.492,56.842c1.628,0.059,2.867-0.676,3.604-2.121c0.024-0.047,0.027-0.109-0.026-0.137
					c-0.292-0.141-0.562-0.305-0.837-0.477c-0.358-0.227-0.578,0.006-0.16-0.346c0.411-0.346,0.878-0.637,1.321-0.939
					c0.998-0.684,1.991-1.365,2.908-2.156c1.247-1.076,2.586-2.834,0.909-4.168c-0.099-0.08-0.309,0.133-0.216,0.215
					c3.01,2.65-3.926,5.725-5.452,7.213c-0.057,0.055-0.133,0.195-0.029,0.244c0.197,0.094,1.332,0.559,1.197,0.855
					c-0.551,1.215-1.9,1.652-3.124,1.619C132.498,56.643,132.37,56.838,132.492,56.842L132.492,56.842z"/>
			</g>
		</g>
		<g>
			<g>
				<path d="M139.151,60.729c1.684-0.713,2.56-2.865,3.032-4.488c0.38-1.309,0.986-4.314-0.644-5.088
					c-0.089-0.041-0.261,0.137-0.182,0.215c1.186,1.189,1.02,2.865,0.676,4.398c-0.366,1.629-1.24,4.047-2.885,4.785
					C139.053,60.594,139.001,60.793,139.151,60.729L139.151,60.729z"/>
			</g>
		</g>
		<g>
			<g>
				<path d="M139.51,45.096c0.497-0.791,0.943-1.662,0.577-2.594c-0.358-0.912-1.542-1.418-2.283-1.957
					c-2.076-1.512-0.856-4.764-3.894-5.344c-0.11-0.021-0.282,0.207-0.164,0.23c2.628,0.502,1.939,2.809,3.067,4.57
					c1.262,1.969,4.348,2.02,2.53,5.033C139.25,45.191,139.433,45.217,139.51,45.096L139.51,45.096z"/>
			</g>
		</g>
		<g>
			<g>
				<path d="M132.902,35.168c-0.358-1.254-1.054-1.529-2.238-1.807c-1.768-0.414-1.766-2.82-2.366-4.189
					c-0.045-0.104-0.223,0.053-0.195,0.141c0.405,1.275,0.574,3.271,1.8,4.055c0.349,0.223,0.807,0.275,1.203,0.361
					c0.888,0.197,1.335,0.727,1.595,1.584C132.732,35.418,132.928,35.262,132.902,35.168L132.902,35.168z"/>
			</g>
		</g>
		<g>
			<g>
				<path d="M110.36,46.32c-0.43-0.916-0.729-1.803-0.779-2.824c-0.073-1.473,0.774-2.045,1.883-2.619
					c0.396-0.203,0.63-0.617,0.884-0.959c0.69-0.932,1.271-1.727,2.316-2.309c0.048-0.027,0.131-0.182,0.019-0.148
					c-0.721,0.215-1.215,0.713-1.683,1.285c-0.427,0.523-0.745,1.117-1.197,1.623c-0.396,0.443-0.858,0.41-1.3,0.699
					c-1.819,1.189-1.029,3.781-0.267,5.34C110.267,46.473,110.385,46.375,110.36,46.32L110.36,46.32z"/>
			</g>
		</g>
		<g>
			<g>
				<path d="M117.434,37.301c0.97-1.037,1.559-2.645,1.463-4.068c-0.005-0.068-0.101,0.002-0.108,0.041
					c-0.265,1.436-0.396,2.807-1.444,3.938C117.258,37.305,117.346,37.395,117.434,37.301L117.434,37.301z"/>
			</g>
		</g>
		<g>
			<g>
				<path d="M120.282,32.391c0.946,0.199,1.756,0.088,2.436-0.631c0.318-0.336,0.564-0.75,0.848-1.115
					c0.621-0.803,1.259-1.016,2.247-1.002c0.081,0.002,0.261-0.201,0.138-0.23c-0.831-0.195-1.654,0.127-2.19,0.783
					c-0.982,1.207-1.516,2.439-3.357,2.027C120.32,32.203,120.196,32.371,120.282,32.391L120.282,32.391z"/>
			</g>
		</g>
		<g>
			<g>
				<path d="M106.33,70.85c-4.686-1.375,1.476-5.889-1.687-7.941c-0.114-0.074-0.329,0.16-0.227,0.227
					c3.009,1.939-2.946,6.703,1.753,7.938C106.274,71.1,106.448,70.885,106.33,70.85L106.33,70.85z"/>
			</g>
		</g>
		<g>
			<g>
				<path d="M105.517,61.904c-0.104-0.385-0.164-0.77-0.179-1.168c-0.018-0.449,0.092-0.887,0.098-1.336
					c0.003-0.166-0.224,0.021-0.247,0.092c-0.278,0.814-0.255,1.795,0.086,2.586C105.332,62.209,105.546,62.012,105.517,61.904
					L105.517,61.904z"/>
			</g>
		</g>
		<g>
			<g>
				<path d="M106.611,52.949c0.441-0.502,0.72-1.008,0.812-1.674c0.108-0.785-0.058-1.469,0.48-2.145
					c0.106-0.133-0.058-0.207-0.153-0.096c-0.276,0.318-0.469,0.666-0.508,1.098c-0.096,1.033,0.011,1.846-0.736,2.711
					C106.411,52.957,106.51,53.062,106.611,52.949L106.611,52.949z"/>
			</g>
		</g>
		<g>
			<g>
				<path d="M137.21,46.312c-1.172-0.318-2.257,0.311-3.231,0.898c-1.697,1.025-3.092,2.229-5.086,2.631
					c-0.022,0.006-0.066,0.066-0.024,0.068c1.175,0.045,2.327-0.736,3.29-1.318c1.377-0.828,3.175-2.51,4.905-2.074
					C137.161,46.541,137.319,46.342,137.21,46.312L137.21,46.312z"/>
			</g>
		</g>
		<g>
			<g>
				<path d="M130.387,48.15c0.87-0.256,1.814-0.846,2.231-1.684c0.068-0.137-0.096-0.139-0.168-0.062
					c-0.612,0.652-1.103,1.203-1.995,1.471C130.333,47.912,130.193,48.209,130.387,48.15L130.387,48.15z"/>
			</g>
		</g>
		<g>
			<g>
				<path d="M127.979,72.055c0.43-0.732,0.168-1.543-0.232-2.23c-0.171-0.291-0.36-0.572-0.545-0.855
					c-0.09-0.137-0.188-0.211-0.056-0.213c0.237-0.002,0.475,0.088,0.709,0.121c0.078,0.012,0.227-0.162,0.123-0.205
					c-0.384-0.162-1.431-0.352-1.124,0.41c0.388,0.967,1.561,1.822,0.916,2.971C127.676,72.219,127.919,72.156,127.979,72.055
					L127.979,72.055z"/>
			</g>
		</g>
		<g>
			<g>
				<path d="M127.944,67.342c-0.138-0.434-0.421-0.705-0.887-0.721c-0.12-0.004-0.306,0.258-0.132,0.273
					c0.403,0.039,0.638,0.242,0.776,0.621C127.749,67.645,127.979,67.453,127.944,67.342L127.944,67.342z"/>
			</g>
		</g>
		<g>
			<g>
				<path d="M119.94,73.674c-0.15-1.016-0.63-2.08-1.521-2.658c-0.107-0.068-0.321,0.127-0.227,0.227
					c0.351,0.371,0.707,0.686,0.98,1.125c0.275,0.439,0.43,0.945,0.521,1.453C119.715,73.939,119.956,73.773,119.94,73.674
					L119.94,73.674z"/>
			</g>
		</g>
		<g>
			<g>
				<path d="M117.912,73.012c-0.017-0.361-0.154-0.887-0.47-1.094c-0.071-0.047-0.185,0.051-0.18,0.129
					c0.026,0.391,0.368,0.668,0.421,1.074C117.702,73.268,117.917,73.111,117.912,73.012L117.912,73.012z"/>
			</g>
		</g>
		<g>
			<g>
				<path d="M124.622,43.24c0.032,0,0.077-0.07,0.034-0.07C124.624,43.17,124.578,43.24,124.622,43.24L124.622,43.24z"/>
			</g>
		</g>
		<g>
			<g>
				<path d="M124.706,43.273c0.613-0.65,0.969-1.439,1.312-2.254c0.209-0.494,0.399-0.975,0.719-1.414
					c0.467-0.641,1.146-0.723,1.869-0.816c0.046-0.006,0.118-0.109,0.044-0.121c-2.526-0.422-2.836,3.135-4.077,4.471
					C124.441,43.279,124.573,43.414,124.706,43.273L124.706,43.273z"/>
			</g>
		</g>
		<g>
			<g>
				<path d="M130.399,38.582c0.748-0.393,1.538-1.172,1.872-1.957c0.033-0.078-0.052-0.078-0.095-0.035
					c-0.628,0.643-0.95,1.422-1.779,1.883C130.342,38.502,130.309,38.629,130.399,38.582L130.399,38.582z"/>
			</g>
		</g>
		<g>
			<g>
				<path d="M129.711,37.293c0.481-0.432,1.029-1.045,1.215-1.678c0.033-0.111-0.111-0.08-0.155-0.029
					c-0.438,0.508-0.687,1.104-1.195,1.57C129.43,37.289,129.568,37.42,129.711,37.293L129.711,37.293z"/>
			</g>
		</g>
		<g>
			<g>
				<path d="M115.342,41.807c0.284-0.723,0.711-1.338,1.075-2.018c0.09-0.166-0.118-0.168-0.203-0.076
					c-0.552,0.584-0.89,1.363-1.115,2.125C115.047,42.01,115.304,41.904,115.342,41.807L115.342,41.807z"/>
			</g>
		</g>
		<g>
			<g>
				<path d="M114.508,41.146c-0.057-0.182-0.044-0.354-0.114-0.529c-0.05-0.121-0.254,0.053-0.241,0.143
					c0.03,0.205,0.006,0.402,0.051,0.604C114.238,41.516,114.555,41.299,114.508,41.146L114.508,41.146z"/>
			</g>
		</g>
		<g>
			<g>
				<path d="M134.295,67.871c-1.264-0.531-2.386-1.092-3.517-1.887c-0.841-0.592-1.696-1.369-2.682-1.703
					c-0.048-0.018-0.154,0.082-0.102,0.119c1.057,0.756,2.148,1.467,3.208,2.225c0.894,0.639,1.86,1.314,2.977,1.439
					C134.252,68.072,134.394,67.912,134.295,67.871L134.295,67.871z"/>
			</g>
		</g>
		<g>
			<g>
				<path d="M129.105,64.258c0.84,0.277,1.776,0.406,2.659,0.365c0.074-0.004,0.206-0.164,0.087-0.18
					c-0.89-0.123-1.764-0.082-2.64-0.334C129.143,64.09,129.026,64.232,129.105,64.258L129.105,64.258z"/>
			</g>
		</g>
		<g>
			<g>
				<path d="M131.023,51.656c-1.142,0.541-2.28,0.584-3.506,0.758c-0.02,0.002-0.069,0.061-0.033,0.068
					c1.192,0.246,2.469-0.084,3.542-0.605C131.141,51.82,131.205,51.57,131.023,51.656L131.023,51.656z"/>
			</g>
		</g>
		<g>
			<g>
				<path d="M126.809,52.582c-1.471,0.1-3.326,0.266-4.359,1.457c-0.062,0.07-0.033,0.166,0.064,0.102
					c0.677-0.443,1.286-0.857,2.063-1.119c0.708-0.238,1.469-0.316,2.207-0.389C126.807,52.631,126.841,52.58,126.809,52.582
					L126.809,52.582z"/>
			</g>
		</g>
		<g>
			<g>
				<path d="M124.959,47.916c-0.526,0.648-1.249,1.021-1.966,1.416c-0.031,0.016-0.086,0.111-0.013,0.094
					c0.848-0.188,1.629-0.768,2.151-1.445C125.25,47.824,125.05,47.803,124.959,47.916L124.959,47.916z"/>
			</g>
		</g>
		<g>
			<g>
				<path d="M122.147,49.68c-0.016,0.061-0.021,0.08-0.003,0.137c0.016,0.055,0.09-0.006,0.105-0.025
					c0.045-0.053,0.056-0.072,0.081-0.135C122.394,49.5,122.175,49.564,122.147,49.68L122.147,49.68z"/>
			</g>
		</g>
		<g>
			<g>
				<path d="M122.675,48.051c0.33-0.156,0.673-0.295,0.971-0.508c0.045-0.033,0.111-0.188-0.003-0.154
					c-0.344,0.102-0.654,0.301-0.971,0.467C122.575,47.908,122.513,48.129,122.675,48.051L122.675,48.051z"/>
			</g>
		</g>
		<g>
			<g>
				<path d="M115.165,68.26c-0.08-0.512-0.172-1.059-0.5-1.477c-0.063-0.08-0.199,0.086-0.182,0.156
					c0.127,0.494,0.309,0.953,0.389,1.461C114.9,68.584,115.185,68.391,115.165,68.26L115.165,68.26z"/>
			</g>
		</g>
		<g>
			<g>
				<path d="M107.111,67.826c0.562-0.932,0.963-2.191,0.648-3.277c-0.021-0.072-0.129,0.033-0.13,0.076
					c-0.011,0.525,0.033,1.01-0.068,1.533c-0.112,0.574-0.352,1.125-0.626,1.639C106.861,67.936,107.056,67.916,107.111,67.826
					L107.111,67.826z"/>
			</g>
		</g>
		<g>
			<g>
				<path d="M106.908,65.258c0.256-0.352,0.507-0.791,0.547-1.232c0.013-0.145-0.192,0.01-0.218,0.055
					c-0.199,0.357-0.27,0.768-0.49,1.119C106.651,65.352,106.827,65.371,106.908,65.258L106.908,65.258z"/>
			</g>
		</g>
		<g>
			<g>
				<path d="M110.972,48.461c-0.404-0.336-0.751-0.711-1.05-1.145c-0.33-0.475-0.387-0.951-0.585-1.473
					c-0.03-0.078-0.136,0.039-0.14,0.084c-0.085,1.002,0.919,2.098,1.622,2.686C110.889,48.672,111.038,48.518,110.972,48.461
					L110.972,48.461z"/>
			</g>
		</g>
		<g>
			<g>
				<path d="M125.331,77.689c-0.103-1.17-0.562-2.236-1.629-2.824c-0.094-0.053-0.295,0.166-0.199,0.234
					c0.942,0.67,1.408,1.576,1.567,2.715C125.093,77.98,125.341,77.807,125.331,77.689L125.331,77.689z"/>
			</g>
		</g>
		<g>
			<g>
				<path d="M126.244,76.414c-0.321-0.668-0.803-1.145-1.386-1.592c-0.299-0.229-0.597-0.451-0.868-0.713
					c-0.341-0.326-0.491-0.738-0.716-1.141c-0.033-0.061-0.132,0.027-0.126,0.076c0.084,0.705,0.617,1.238,1.147,1.66
					c0.699,0.557,1.353,1.02,1.753,1.85C126.097,76.656,126.285,76.5,126.244,76.414L126.244,76.414z"/>
			</g>
		</g>
		<g>
			<g>
				<path d="M128.327,74.414c-0.429-0.32-0.899-0.564-1.308-0.914c-0.213-0.182-0.405-0.396-0.553-0.637
					c-0.129-0.209-0.156-0.453-0.271-0.668c-0.143-0.27-0.517,0.09-0.558,0.27c-0.261,1.162,1.297,2.156,2.205,2.518
					C128.073,75.074,128.566,74.592,128.327,74.414L128.327,74.414z"/>
			</g>
		</g>
		<g>
			<g>
				<path d="M130.088,74.068c-0.221-0.342-0.382-0.748-0.813-0.789c-0.137-0.012-0.285,0.16-0.286,0.287
					c-0.005,0.451,0.412,0.684,0.788,0.869C129.946,74.52,130.183,74.217,130.088,74.068L130.088,74.068z"/>
			</g>
		</g>
		<g>
			<g>
				<path d="M131.981,71.475c-0.241-0.633-0.928-1.652-1.723-1.285c-0.115,0.053-0.303,0.242-0.235,0.389
					c0.116,0.254,0.414,0.258,0.649,0.383c0.361,0.193,0.667,0.531,0.904,0.857C131.702,71.99,132.043,71.639,131.981,71.475
					L131.981,71.475z"/>
			</g>
		</g>
		<g>
			<g>
				<path d="M121.268,77.561c-0.147-0.498-0.366-0.85-0.758-1.195c-0.24-0.213-0.775,0.326-0.547,0.547
					c0.319,0.309,0.64,0.631,0.93,0.969C121.029,78.039,121.312,77.711,121.268,77.561L121.268,77.561z"/>
			</g>
		</g>
		<g>
			<g>
				<path d="M118.812,77.062c-0.166-0.338-0.388-0.645-0.59-0.961c-0.236-0.371-0.462-0.91-0.814-1.176
					c-0.233-0.176-0.544,0.207-0.505,0.43c0.065,0.371,0.35,0.695,0.564,1.002c0.268,0.381,0.57,0.762,0.94,1.049
					C118.567,77.529,118.899,77.238,118.812,77.062L118.812,77.062z"/>
			</g>
		</g>
		<g>
			<g>
				<path d="M116.12,76.789c-0.038-0.148-0.06-0.256-0.146-0.383c-0.128-0.188-0.491,0.193-0.431,0.367
					c0.049,0.139,0.122,0.209,0.217,0.322C115.89,77.252,116.157,76.93,116.12,76.789L116.12,76.789z"/>
			</g>
		</g>
		<g>
			<g>
				<path d="M110.212,73.672c-0.003-0.049-0.006-0.096-0.009-0.145c-0.01-0.162-0.218-0.037-0.264,0.031
					c-0.036,0.055-0.072,0.107-0.108,0.16C109.575,74.102,110.233,74.031,110.212,73.672L110.212,73.672z"/>
			</g>
		</g>
		<g>
			<g>
				<path d="M135.174,61.902c-0.883-1.051-2.789-1.506-4.01-0.84c-0.104,0.059-0.448,0.527-0.123,0.494
					c0.645-0.066,1.23-0.123,1.874,0.004c0.677,0.135,1.293,0.465,1.915,0.746C135.004,62.387,135.308,62.062,135.174,61.902
					L135.174,61.902z"/>
			</g>
		</g>
		<g>
			<g>
				<path d="M138.404,58.658c-0.503-0.432-1.307-0.957-1.989-0.75c-0.135,0.041-0.401,0.273-0.259,0.43
					c0.201,0.223,0.537,0.223,0.817,0.307c0.379,0.113,0.753,0.244,1.129,0.367C138.245,59.059,138.551,58.783,138.404,58.658
					L138.404,58.658z"/>
			</g>
		</g>
		<g>
			<g>
				<path d="M138.643,57.584c-0.21-0.172-0.336-0.258-0.604-0.195c-0.095,0.021-0.274,0.178-0.214,0.293
					c0.107,0.203,0.274,0.203,0.473,0.311C138.459,58.078,138.804,57.715,138.643,57.584L138.643,57.584z"/>
			</g>
		</g>
		<g>
			<g>
				<path d="M139.745,54.91c-0.595-0.23-1.162-0.225-1.758,0c-0.237,0.088-0.505,0.662-0.074,0.586
					c0.526-0.094,1.036-0.16,1.571-0.148C139.637,55.35,139.978,55,139.745,54.91L139.745,54.91z"/>
			</g>
		</g>
		<g>
			<g>
				<path d="M137.829,49.312c-0.438,0.332-0.912,0.609-1.396,0.867c-0.416,0.223-0.876,0.379-1.22,0.707
					c-0.085,0.082-0.239,0.422,0.009,0.406c0.48-0.031,0.959-0.379,1.373-0.605c0.529-0.291,1.003-0.635,1.432-1.061
					C138.234,49.42,138.111,49.1,137.829,49.312L137.829,49.312z"/>
			</g>
		</g>
		<g>
			<g>
				<path d="M135.857,48.838c-0.23,0.037-0.413,0.059-0.596,0.207c-0.059,0.049-0.183,0.186-0.099,0.266
					c0.164,0.154,0.384,0.025,0.58-0.016C135.952,49.25,136.198,48.785,135.857,48.838L135.857,48.838z"/>
			</g>
		</g>
		<g>
			<g>
				<path d="M137.084,43.438c-0.962-0.336-1.938-0.012-2.673,0.658c-0.268,0.244-0.106,0.568,0.23,0.365
					c0.683-0.414,1.309-0.787,2.14-0.602C136.969,43.902,137.317,43.52,137.084,43.438L137.084,43.438z"/>
			</g>
		</g>
		<g>
			<g>
				<path d="M135.563,41.865c-0.179,0.131-0.291,0.178-0.438,0.34c-0.053,0.059-0.147,0.244,0.006,0.248
					c0.262,0.008,0.419-0.137,0.611-0.303C135.95,41.971,135.817,41.68,135.563,41.865L135.563,41.865z"/>
			</g>
		</g>
		<g>
			<g>
				<path d="M134.769,40.092c-0.394,0.289-0.806,0.549-1.211,0.82c-0.321,0.215-0.654,0.398-0.837,0.748
					c-0.042,0.08-0.04,0.232,0.088,0.225c0.364-0.023,0.633-0.311,0.917-0.518c0.424-0.311,0.823-0.652,1.219-0.998
					C135.144,40.195,135.016,39.91,134.769,40.092L134.769,40.092z"/>
			</g>
		</g>
		<g>
			<g>
				<path d="M133.798,38.914c-0.269,0.291-0.63,0.504-0.83,0.848c-0.069,0.119,0.002,0.219,0.13,0.201
					c0.413-0.057,0.739-0.568,0.986-0.869C134.286,38.848,133.981,38.715,133.798,38.914L133.798,38.914z"/>
			</g>
		</g>
		<g>
			<g>
				<path d="M132.62,38.332c-0.347,0.369-0.716,0.705-1.1,1.035c-0.395,0.34-0.917,0.604-1.223,1.027
					c-0.1,0.139-0.098,0.355,0.123,0.316c0.49-0.088,0.934-0.59,1.295-0.912c0.435-0.385,0.812-0.842,1.17-1.299
					C133.067,38.266,132.791,38.148,132.62,38.332L132.62,38.332z"/>
			</g>
		</g>
		<g>
			<g>
				<path d="M129.321,35.404c-0.401,0.211-0.806,0.406-1.213,0.604c-0.392,0.189-0.796,0.338-1.078,0.676
					c-0.049,0.059-0.096,0.207,0.006,0.242c0.356,0.121,0.776-0.213,1.08-0.375c0.437-0.23,0.848-0.521,1.269-0.783
					C129.568,35.654,129.611,35.252,129.321,35.404L129.321,35.404z"/>
			</g>
		</g>
		<g>
			<g>
				<path d="M126.761,31.846c-0.123,0.375-0.403,0.707-0.489,1.088c-0.043,0.186,0.146,0.164,0.253,0.1
					c0.438-0.271,0.612-0.852,0.643-1.338C127.184,31.43,126.799,31.729,126.761,31.846L126.761,31.846z"/>
			</g>
		</g>
		<g>
			<g>
				<path d="M124.808,32.592c-0.178,0.299-0.344,0.604-0.508,0.908c-0.131,0.244-0.362,0.508-0.266,0.793
					c0.023,0.07,0.117,0.061,0.168,0.033c0.568-0.316,0.79-1.143,0.977-1.729C125.264,32.334,124.884,32.465,124.808,32.592
					L124.808,32.592z"/>
			</g>
		</g>
		<g>
			<g>
				<path d="M119.734,34.34c-0.153,0.318-0.299,0.639-0.451,0.955c-0.143,0.299-0.34,0.588-0.338,0.926
					c0,0.182,0.238,0.082,0.305,0.008c0.438-0.502,0.764-1.287,0.901-1.939C120.217,33.973,119.806,34.191,119.734,34.34
					L119.734,34.34z"/>
			</g>
		</g>
		<g>
			<g>
				<path d="M110.916,42.486c-0.263,0.715,0.008,1.75,0.879,1.846c0.125,0.014,0.377-0.209,0.296-0.346
					c-0.132-0.221-0.316-0.379-0.474-0.58c-0.236-0.301-0.259-0.662-0.269-1.027C111.34,42.109,110.962,42.357,110.916,42.486
					L110.916,42.486z"/>
			</g>
		</g>
		<g>
			<g>
				<path d="M108.614,49.223c-0.018,0.006-0.034,0.014-0.052,0.02c-0.119,0.041-0.348,0.215-0.271,0.373
					c0.08,0.162,0.23,0.143,0.385,0.105c0.126-0.029,0.321-0.225,0.217-0.359c-0.081-0.104-0.111-0.084-0.23-0.119
					c0.003,0.094,0.005,0.186,0.008,0.277c0.012-0.018,0.024-0.037,0.037-0.055C108.767,49.377,108.789,49.162,108.614,49.223
					L108.614,49.223z"/>
			</g>
		</g>
		<g>
			<g>
				<path d="M106.422,62.865c0.142-0.459,0.4-0.555,0.795-0.748c0.126-0.064,0.479-0.553,0.133-0.533
					c-0.738,0.041-1.229,0.713-1.355,1.389C105.933,63.299,106.368,63.043,106.422,62.865L106.422,62.865z"/>
			</g>
		</g>
		<g>
			<g>
				<path d="M106.74,61.117c0.114-0.055,0.186-0.098,0.286-0.178c0.095-0.074,0.243-0.381-0.005-0.324
					c-0.116,0.027-0.178,0.053-0.286,0.107C106.531,60.828,106.417,61.277,106.74,61.117L106.74,61.117z"/>
			</g>
		</g>
		<g>
			<g>
				<path d="M125.455,70.871c-0.094-0.344-0.278-0.611-0.507-0.881c-0.15-0.178-0.3-0.34-0.416-0.541
					c-0.084-0.145-0.123-0.295-0.232-0.422c-0.034-0.039-0.098,0.035-0.105,0.064c-0.216,0.762,0.812,1.287,1.034,1.941
					C125.27,71.156,125.483,70.975,125.455,70.871L125.455,70.871z"/>
			</g>
		</g>
		<g>
			<g>
				<path d="M124.749,68.631c-0.037-0.291-0.212-0.529-0.373-0.768c-0.127-0.186-0.247-0.387-0.336-0.594
					c-0.172-0.398,0.175-0.561,0.442-0.762c0.046-0.035,0.1-0.15-0.002-0.137c-0.425,0.053-0.796,0.443-0.745,0.881
					c0.067,0.58,0.719,0.908,0.805,1.48C124.559,68.863,124.76,68.725,124.749,68.631L124.749,68.631z"/>
			</g>
		</g>
		<g>
			<g>
				<path d="M124.984,66.158c-0.104-0.303-0.099-0.641-0.228-0.924c-0.05-0.107-0.205,0.021-0.231,0.086
					c-0.153,0.371-0.062,0.75,0.216,1.045C124.832,66.461,125.018,66.258,124.984,66.158L124.984,66.158z"/>
			</g>
		</g>
		<g>
			<g>
				<path d="M128.795,60.703c-0.712,0.873-1.821,0.209-2.688,0.676c-0.049,0.025-0.167,0.174-0.047,0.184
					c1.046,0.088,2.27,0.121,2.969-0.773C129.191,60.582,128.918,60.551,128.795,60.703L128.795,60.703z"/>
			</g>
		</g>
		<g>
			<g>
				<path d="M125.848,61.277c-0.119-0.408-0.304-0.654-0.744-0.68c-0.159-0.01-0.393,0.338-0.17,0.354
					c0.325,0.025,0.613,0.117,0.722,0.465C125.687,61.518,125.875,61.367,125.848,61.277L125.848,61.277z"/>
			</g>
		</g>
		<g>
			<g>
				<path d="M121.88,62.803c-0.115-0.734-0.824-1.061-1.432-1.348c-0.447-0.213-0.904-0.377-1.338-0.621
					c-0.472-0.268-0.665-0.658-1.047-0.994c-0.051-0.045-0.142,0.047-0.138,0.1c0.057,0.709,1.038,1.158,1.593,1.434
					c0.693,0.346,1.938,0.713,2.131,1.566C121.675,63.055,121.895,62.895,121.88,62.803L121.88,62.803z"/>
			</g>
		</g>
		<g>
			<g>
				<path d="M119.185,63.236c-0.205-0.066-0.407-0.137-0.529-0.33c-0.081-0.129-0.011-0.312-0.01-0.455
					c0.002-0.139-0.181-0.02-0.216,0.025c-0.405,0.533,0.042,0.906,0.577,1.008C119.117,63.504,119.324,63.279,119.185,63.236
					L119.185,63.236z"/>
			</g>
		</g>
		<g>
			<g>
				<path d="M123.873,51.465c0.068,0,0.165-0.15,0.072-0.15C123.876,51.314,123.779,51.465,123.873,51.465L123.873,51.465z"/>
			</g>
		</g>
		<g>
			<g>
				<path d="M124.285,51.309c0.732-0.301,1.444-0.777,2.093-1.227c0.248-0.174,0.438-0.334,0.602-0.588
					c0.34-0.533,0.236-1.225,0.569-1.77c0.038-0.064-0.005-0.127-0.072-0.072c-0.232,0.191-0.32,0.404-0.394,0.695
					c-0.16,0.637-0.191,1.172-0.759,1.588c-0.629,0.463-1.318,0.955-2.041,1.258C124.219,51.219,124.187,51.348,124.285,51.309
					L124.285,51.309z"/>
			</g>
		</g>
		<g>
			<g>
				<path d="M119.236,50.838c0.617-0.727,0.76-1.832,0.876-2.74c0.144-1.123-0.033-3.807,1.409-4.186
					c0.133-0.035,0.279-0.346,0.072-0.291c-1.012,0.271-1.122,1.324-1.385,2.178c-0.267,0.867-0.428,1.783-0.589,2.674
					c-0.133,0.74-0.171,1.652-0.647,2.268C118.788,50.979,119.095,51.004,119.236,50.838L119.236,50.838z"/>
			</g>
		</g>
		<g>
			<g>
				<path d="M119.23,45.988c0.223-0.473,0.428-1.053,0.303-1.578c-0.032-0.135-0.246,0.055-0.259,0.125
					c-0.084,0.5-0.083,0.971-0.281,1.449C118.91,46.188,119.171,46.113,119.23,45.988L119.23,45.988z"/>
			</g>
		</g>
		<g>
			<g>
				<path d="M128.085,44.275c0.845,0.057,1.656-0.605,1.853-1.43c0.037-0.156-0.167-0.074-0.213-0.004
					c-0.408,0.633-0.641,1.256-1.533,1.211C128.092,44.049,127.946,44.266,128.085,44.275L128.085,44.275z"/>
			</g>
		</g>
		<g>
			<g>
				<path d="M113.562,71.17c-0.139-0.426-0.413-0.791-0.675-1.15c-0.146-0.199-0.277-0.404-0.376-0.631
					c-0.147-0.34,0.008-0.57,0.146-0.873c0.036-0.078-0.036-0.094-0.092-0.059c-1.165,0.736,0.537,2.129,0.801,2.854
					C113.404,71.414,113.591,71.26,113.562,71.17L113.562,71.17z"/>
			</g>
		</g>
		<g>
			<g>
				<path d="M123.045,41.439c0.346-0.293,1.031-1.006,0.787-1.514c-0.049-0.102-0.185,0.023-0.213,0.08
					c-0.079,0.154-0.1,0.279-0.139,0.449c-0.077,0.34-0.28,0.602-0.53,0.834C122.847,41.387,122.918,41.547,123.045,41.439
					L123.045,41.439z"/>
			</g>
		</g>
		<g>
			<g>
				<path d="M119.233,54.986c0.542,0.223,1.293,0.082,1.524-0.523c0.03-0.078-0.015-0.154-0.104-0.105
					c-0.416,0.236-0.664,0.482-1.183,0.297C119.32,54.602,119.057,54.914,119.233,54.986L119.233,54.986z"/>
			</g>
		</g>
		<g>
			<g>
				<path d="M123.747,55.424c0.004-0.01,0.009-0.02,0.013-0.029c0.146-0.318-0.341-0.207-0.394,0.051
					c-0.002,0.01-0.004,0.018-0.006,0.027C123.3,55.764,123.681,55.568,123.747,55.424L123.747,55.424z"/>
			</g>
		</g>
		<g>
			<g>
				<path d="M124.586,55.42c-0.011,0-0.021-0.002-0.032-0.002c-0.184-0.023-0.481,0.324-0.271,0.453
					c0.009,0.004,0.017,0.01,0.025,0.016C124.525,56.018,124.904,55.459,124.586,55.42L124.586,55.42z"/>
			</g>
		</g>
		<g>
			<g>
				<path d="M125.203,57.221c0.011,0.012,0.021,0.023,0.03,0.035c0.195,0.225,0.705-0.406,0.334-0.465
					c-0.017-0.002-0.033-0.004-0.049-0.008C125.346,56.758,125.067,57.064,125.203,57.221L125.203,57.221z"/>
			</g>
		</g>
		<g>
			<g>
				<path d="M123.645,57.27c0.187,0,0.452-0.412,0.198-0.412C123.657,56.857,123.392,57.27,123.645,57.27L123.645,57.27z"/>
			</g>
		</g>
		<g>
			<g>
				<path d="M122.375,56.527c0.061-0.006,0.108-0.025,0.164-0.047c0.096-0.039,0.181-0.156,0.157-0.26
					c-0.008-0.039-0.01-0.059-0.037-0.088C122.45,55.9,122.095,56.551,122.375,56.527L122.375,56.527z"/>
			</g>
		</g>
		<g>
			<g>
				<path d="M126.434,55.26c0.014-0.027,0.028-0.053,0.043-0.078c0.165-0.307-0.32-0.211-0.405,0.049
					c-0.008,0.027-0.017,0.053-0.024,0.078C125.955,55.594,126.366,55.387,126.434,55.26L126.434,55.26z"/>
			</g>
		</g>
		<g>
			<g>
				<path d="M127.647,56.904c0.205,0,0.498-0.455,0.219-0.455C127.66,56.449,127.368,56.904,127.647,56.904L127.647,56.904z"/>
			</g>
		</g>
		<g>
			<g>
				<path d="M127.869,55.643c0.19,0,0.462-0.422,0.203-0.422C127.88,55.221,127.609,55.643,127.869,55.643L127.869,55.643z"/>
			</g>
		</g>
		<g>
			<g>
				<path d="M129.109,47.506c-0.001,0.006-0.002,0.01-0.003,0.016c0.394-0.467-0.639-0.43-0.483,0.121
					c-0.002-0.006-0.004-0.01-0.007-0.014C128.593,47.961,129.05,47.607,129.109,47.506L129.109,47.506z"/>
			</g>
		</g>
		<g>
			<g>
				<path d="M129.634,46.594c-0.003-0.014-0.005-0.027-0.008-0.039c-0.026-0.125-0.209,0.02-0.239,0.059
					c-0.014,0.018-0.027,0.035-0.041,0.053C129.127,46.945,129.704,46.92,129.634,46.594L129.634,46.594z"/>
			</g>
		</g>
		<g>
			<g>
				<path d="M127.213,46.309c0,0.01,0.001,0.02,0.002,0.029c0.004,0.057,0.035,0.09,0.091,0.092
					c0.021,0.002,0.042,0.002,0.063,0.004c0.095,0.004,0.193-0.105,0.195-0.195c0.001-0.02,0.002-0.041,0.003-0.061
					C127.623,45.926,127.198,46.098,127.213,46.309L127.213,46.309z"/>
			</g>
		</g>
		<g>
			<g>
				<path d="M128.205,47.061c0.188,0,0.455-0.416,0.199-0.416C128.216,46.645,127.949,47.061,128.205,47.061L128.205,47.061z"/>
			</g>
		</g>
		<g>
			<g>
				<path d="M124.311,45.643c0.291,0,0.706-0.645,0.31-0.645C124.33,44.998,123.915,45.643,124.311,45.643L124.311,45.643z"/>
			</g>
		</g>
		<g>
			<g>
				<path d="M122.423,44.973c0.011-0.002,0.022-0.006,0.034-0.008c0.085-0.018,0.266-0.174,0.202-0.279
					c-0.004-0.006-0.009-0.014-0.013-0.021C122.476,44.383,122.085,45.041,122.423,44.973L122.423,44.973z"/>
			</g>
		</g>
		<g>
			<g>
				<path d="M123.577,45.727c0.187,0,0.452-0.412,0.198-0.412C123.588,45.314,123.324,45.727,123.577,45.727L123.577,45.727z"/>
			</g>
		</g>
		<g>
			<g>
				<path d="M131.448,55.338c-0.008,0.008-0.015,0.016-0.022,0.023c0.596-0.633-0.678-0.477-0.445,0.053
					c0-0.008-0.001-0.014-0.001-0.02C130.995,55.684,131.366,55.459,131.448,55.338L131.448,55.338z"/>
			</g>
		</g>
		<g>
			<g>
				<path d="M132.06,54.76c0.004-0.01,0.007-0.02,0.01-0.029c0.091-0.277-0.339-0.076-0.396,0.098
					c-0.003,0.01-0.007,0.021-0.01,0.031C131.574,55.135,132.003,54.936,132.06,54.76L132.06,54.76z"/>
			</g>
		</g>
		<g>
			<g>
				<path d="M129.997,54.055c0.047,0,0.113-0.104,0.05-0.104C130,53.951,129.933,54.055,129.997,54.055L129.997,54.055z"/>
			</g>
		</g>
		<g>
			<g>
				<path d="M131.946,51.414c0.309,0,0.748-0.684,0.328-0.684C131.965,50.73,131.526,51.414,131.946,51.414L131.946,51.414z"/>
			</g>
		</g>
		<g>
			<g>
				<path d="M131.815,50.244c0.251,0,0.607-0.555,0.267-0.555C131.832,49.689,131.474,50.244,131.815,50.244L131.815,50.244z"/>
			</g>
		</g>
		<g>
			<g>
				<path d="M132.794,50.514c0.157,0,0.382-0.348,0.167-0.348C132.804,50.166,132.581,50.514,132.794,50.514L132.794,50.514z"/>
			</g>
		</g>
		<g>
			<g>
				<path d="M119.435,52.697c0.027-0.025,0.055-0.051,0.081-0.076c0.155-0.148,0.269-0.586-0.09-0.496
					c-0.232,0.059-0.522,0.369-0.367,0.609c0.011,0.016,0.021,0.033,0.031,0.049C119.167,52.9,119.376,52.752,119.435,52.697
					L119.435,52.697z"/>
			</g>
		</g>
		<g>
			<g>
				<path d="M117.201,51.271c0.029-0.02,0.058-0.037,0.087-0.057c0.067-0.033,0.134-0.107,0.115-0.188
					c-0.005-0.023-0.011-0.047-0.016-0.068c-0.025-0.109-0.184-0.043-0.236-0.008c-0.019,0.014-0.036,0.025-0.055,0.037
					C116.891,51.129,116.958,51.465,117.201,51.271L117.201,51.271z"/>
			</g>
		</g>
		<g>
			<g>
				<path d="M118.233,51.762c0.009-0.016,0.018-0.031,0.026-0.049c0.15-0.27-0.262-0.203-0.353-0.004
					c-0.007,0.016-0.015,0.033-0.021,0.049C117.751,52.055,118.139,51.932,118.233,51.762L118.233,51.762z"/>
			</g>
		</g>
		<g>
			<g>
				<path d="M120.325,51.738c0.271,0,0.659-0.602,0.289-0.602C120.341,51.137,119.954,51.738,120.325,51.738L120.325,51.738z"/>
			</g>
		</g>
		<g>
			<g>
				<path d="M120.341,52.736c0.172,0,0.416-0.381,0.183-0.381C120.352,52.355,120.107,52.736,120.341,52.736L120.341,52.736z"/>
			</g>
		</g>
		<g>
			<g>
				<path d="M117.1,60.969c-0.003-0.004-0.005-0.008-0.008-0.012c-0.087-0.135-0.324,0.035-0.392,0.098
					c-0.007,0.006-0.014,0.012-0.021,0.02c-0.146,0.133-0.244,0.535,0.083,0.453C116.975,61.475,117.244,61.189,117.1,60.969
					L117.1,60.969z"/>
			</g>
		</g>
		<g>
			<g>
				<path d="M115.981,60.746c0.021-0.016,0.043-0.029,0.064-0.045c0.115-0.08,0.247-0.385-0.006-0.34
					c-0.079,0.014-0.104,0.051-0.167,0.094C115.665,60.596,115.714,60.932,115.981,60.746L115.981,60.746z"/>
			</g>
		</g>
		<g>
			<g>
				<path d="M115.318,59.557c-0.028,0.029-0.056,0.057-0.084,0.084c0.076-0.041,0.163-0.129,0.137-0.225
					c-0.004-0.014-0.007-0.027-0.011-0.041c-0.051-0.18-0.312,0.055-0.347,0.129c-0.008,0.016-0.016,0.033-0.023,0.049
					C114.862,59.826,115.231,59.723,115.318,59.557L115.318,59.557z"/>
			</g>
		</g>
		<g>
			<g>
				<path d="M116.346,59.986c0.285,0,0.691-0.631,0.304-0.631C116.365,59.355,115.958,59.986,116.346,59.986L116.346,59.986z"/>
			</g>
		</g>
		<g>
			<g>
				<path d="M120.177,65.686c-0.26,0.492,0.327,0.449,0.501,0.086C120.871,65.369,120.318,65.416,120.177,65.686L120.177,65.686z"/>
			</g>
		</g>
		<g>
			<g>
				<path d="M121.156,66.809c0.157,0,0.382-0.348,0.167-0.348C121.166,66.461,120.942,66.809,121.156,66.809L121.156,66.809z"/>
			</g>
		</g>
		<g>
			<g>
				<path d="M121.208,64.854c0.159,0,0.385-0.352,0.169-0.352C121.219,64.502,120.993,64.854,121.208,64.854L121.208,64.854z"/>
			</g>
		</g>
		<g>
			<g>
				<path d="M116.009,70.242c0.021-0.016,0.044-0.029,0.065-0.045c0.131-0.09,0.408-0.541,0.067-0.545
					c-0.178-0.002-0.677,0.416-0.422,0.586c0.016,0.012,0.031,0.021,0.048,0.033C115.848,70.324,115.934,70.295,116.009,70.242
					L116.009,70.242z"/>
			</g>
		</g>
		<g>
			<g>
				<path d="M115.814,71.422c0.152,0,0.37-0.338,0.162-0.338C115.824,71.084,115.606,71.422,115.814,71.422L115.814,71.422z"/>
			</g>
		</g>
		<g>
			<g>
				<path d="M114.68,70.268c0.16,0,0.389-0.354,0.17-0.354C114.691,69.914,114.462,70.268,114.68,70.268L114.68,70.268z"/>
			</g>
		</g>
		<g>
			<g>
				<path d="M114.456,71.895c0.255,0,0.618-0.564,0.271-0.564C114.472,71.33,114.109,71.895,114.456,71.895L114.456,71.895z"/>
			</g>
		</g>
		<g>
			<g>
				<path d="M112.609,67.186c0.139,0,0.335-0.307,0.147-0.307C112.618,66.879,112.42,67.186,112.609,67.186L112.609,67.186z"/>
			</g>
		</g>
		<g>
			<g>
				<path d="M112.584,67.236c0.185,0,0.448-0.41,0.196-0.41C112.596,66.826,112.333,67.236,112.584,67.236L112.584,67.236z"/>
			</g>
		</g>
		<g>
			<g>
				<path d="M112.866,66.699c0.046-0.197,0.088-0.391-0.049-0.555c-0.108-0.129-0.306,0.113-0.333,0.201
					c-0.051,0.16-0.031,0.301-0.065,0.465C112.349,67.139,112.818,66.904,112.866,66.699L112.866,66.699z"/>
			</g>
		</g>
		<g>
			<g>
				<path d="M108.053,68.391c0.199,0,0.483-0.441,0.212-0.441C108.066,67.949,107.782,68.391,108.053,68.391L108.053,68.391z"/>
			</g>
		</g>
		<g>
			<g>
				<path d="M108.061,68.375c0.185,0,0.448-0.41,0.196-0.41C108.073,67.965,107.809,68.375,108.061,68.375L108.061,68.375z"/>
			</g>
		</g>
		<g>
			<g>
				<path d="M107.788,68.18c-0.157,0.127-0.286,0.199-0.429,0.338c-0.042,0.039-0.124,0.219,0.004,0.207
					c0.221-0.021,0.362-0.107,0.535-0.246C108.095,68.32,108.048,67.971,107.788,68.18L107.788,68.18z"/>
			</g>
		</g>
		<g>
			<g>
				<path d="M106,68.447c0.157,0,0.382-0.348,0.167-0.348C106.01,68.1,105.787,68.447,106,68.447L106,68.447z"/>
			</g>
		</g>
		<g>
			<g>
				<path d="M121.79,72.605c0.01-0.018,0.021-0.035,0.03-0.055c0.043-0.076,0.061-0.234-0.051-0.266
					c-0.019-0.006-0.037-0.01-0.056-0.016c-0.188-0.055-0.619,0.316-0.409,0.48c0.009,0.008,0.018,0.018,0.025,0.025
					C121.412,73.016,121.736,72.703,121.79,72.605L121.79,72.605z"/>
			</g>
		</g>
		<g>
			<g>
				<path d="M121.842,71.703c0.153,0,0.371-0.338,0.163-0.338C121.852,71.365,121.634,71.703,121.842,71.703L121.842,71.703z"/>
			</g>
		</g>
		<g>
			<g>
				<path d="M120.398,71.275c0.19,0,0.462-0.422,0.203-0.422C120.41,70.854,120.138,71.275,120.398,71.275L120.398,71.275z"/>
			</g>
		</g>
		<g>
			<g>
				<path d="M134.195,71.609c0.024-0.006,0.048-0.014,0.072-0.02c-0.495,0.057-0.68,0.896-0.164,0.652
					c0.021-0.01,0.043-0.02,0.064-0.029c0.183-0.086,0.504-0.459,0.228-0.617C134.333,71.559,134.256,71.582,134.195,71.609
					L134.195,71.609z"/>
			</g>
		</g>
		<g>
			<g>
				<path d="M133.384,73.242c0.124,0,0.301-0.273,0.132-0.273C133.392,72.969,133.216,73.242,133.384,73.242L133.384,73.242z"/>
			</g>
		</g>
		<g>
			<g>
				<path d="M134.621,71.273c0.169,0,0.409-0.373,0.18-0.373C134.631,70.9,134.39,71.273,134.621,71.273L134.621,71.273z"/>
			</g>
		</g>
		<g>
			<g>
				<path d="M133.75,70.283c-0.114-0.031-0.183-0.041-0.29,0.018c-0.098,0.053-0.199,0.154-0.198,0.273c0,0.01,0,0.02,0,0.029
					c0,0.053,0.025,0.096,0.073,0.115c0.026,0.012,0.053,0.021,0.079,0.033C133.644,70.844,133.985,70.346,133.75,70.283
					L133.75,70.283z"/>
			</g>
		</g>
		<g>
			<g>
				<path d="M120.145,79.465c0.075-0.076,0.155-0.148,0.171-0.26c0.062-0.434-0.576-0.107-0.578,0.213c0,0.012,0,0.025,0,0.037
					C119.737,79.705,120.055,79.555,120.145,79.465L120.145,79.465z"/>
			</g>
		</g>
		<g>
			<g>
				<path d="M121.194,79.844c0.148,0,0.36-0.328,0.158-0.328C121.204,79.516,120.992,79.844,121.194,79.844L121.194,79.844z"/>
			</g>
		</g>
		<g>
			<g>
				<path d="M122.694,79.143c0.037,0,0.091-0.082,0.04-0.082C122.696,79.061,122.643,79.143,122.694,79.143L122.694,79.143z"/>
			</g>
		</g>
		<g>
			<g>
				<path d="M138.569,53.273c-0.132-0.049-0.264-0.096-0.396-0.145c-0.135,0.096-0.431,0.568-0.071,0.572
					c0.231,0.004,0.574-0.311,0.479-0.561c-0.003-0.008-0.006-0.018-0.01-0.025c-0.044,0.119-0.089,0.238-0.133,0.357
					C138.496,53.42,138.553,53.352,138.569,53.273L138.569,53.273z"/>
			</g>
		</g>
		<g>
			<g>
				<path d="M139.659,53.049c0.16,0,0.388-0.354,0.17-0.354C139.668,52.695,139.44,53.049,139.659,53.049L139.659,53.049z"/>
			</g>
		</g>
		<g>
			<g>
				<path d="M140.355,56.512c0.166,0,0.402-0.367,0.177-0.367C140.366,56.145,140.129,56.512,140.355,56.512L140.355,56.512z"/>
			</g>
		</g>
		<g>
			<g>
				<path d="M139.117,56.283c0.153,0,0.371-0.338,0.163-0.338C139.126,55.945,138.909,56.283,139.117,56.283L139.117,56.283z"/>
			</g>
		</g>
		<g>
			<g>
				<path d="M132.066,44.695c0.273,0,0.663-0.605,0.291-0.605C132.083,44.09,131.693,44.695,132.066,44.695L132.066,44.695z"/>
			</g>
		</g>
		<g>
			<g>
				<path d="M130.812,44.299c0.024-0.02,0.05-0.037,0.074-0.057c0.071-0.053,0.182-0.295-0.004-0.244
					c-0.024,0.006-0.05,0.012-0.074,0.02C130.553,44.086,130.571,44.48,130.812,44.299L130.812,44.299z"/>
			</g>
		</g>
		<g>
			<g>
				<path d="M128.427,41.076c0.047,0.125,0.093,0.25,0.14,0.375C128.835,41.27,128.781,40.85,128.427,41.076
					c-0.202,0.129-0.271,0.58,0.073,0.414C128.813,41.34,128.82,40.826,128.427,41.076L128.427,41.076z"/>
			</g>
		</g>
		<g>
			<g>
				<path d="M126.977,41.424c0.163,0,0.396-0.361,0.174-0.361C126.988,41.062,126.755,41.424,126.977,41.424L126.977,41.424z"/>
			</g>
		</g>
		<g>
			<g>
				<path d="M126.966,41.447c0.185,0,0.448-0.41,0.196-0.41C126.978,41.037,126.714,41.447,126.966,41.447L126.966,41.447z"/>
			</g>
		</g>
		<g>
			<g>
				<path d="M127.018,41.764c0.109,0.127,0.195,0.26,0.267,0.412c0.127,0.27,0.656-0.16,0.484-0.41
					c-0.103-0.148-0.214-0.285-0.34-0.414C127.261,41.182,126.861,41.582,127.018,41.764L127.018,41.764z"/>
			</g>
		</g>
		<g>
			<g>
				<path d="M124.79,39.668c0.181,0,0.438-0.398,0.192-0.398C124.801,39.27,124.544,39.668,124.79,39.668L124.79,39.668z"/>
			</g>
		</g>
		<g>
			<g>
				<path d="M122.435,39.07c0.002-0.01,0.003-0.018,0.005-0.027c0.05-0.279-0.305-0.09-0.369,0.045
					c-0.004,0.01-0.009,0.02-0.014,0.031C121.916,39.42,122.39,39.322,122.435,39.07L122.435,39.07z"/>
			</g>
		</g>
		<g>
			<g>
				<path d="M122.138,39.324c0.185,0,0.448-0.408,0.196-0.408C122.15,38.916,121.886,39.324,122.138,39.324L122.138,39.324z"/>
			</g>
		</g>
		<g>
			<g>
				<path d="M122.298,39.541c0.106,0.033,0.212,0.061,0.313,0.105c0.088,0.039,0.224-0.107,0.192-0.191
					c-0.055-0.145-0.131-0.186-0.272-0.24C122.377,39.154,122.13,39.488,122.298,39.541L122.298,39.541z"/>
			</g>
		</g>
		<g>
			<g>
				<path d="M123.755,38.613c0.188,0,0.455-0.416,0.2-0.416C123.767,38.197,123.5,38.613,123.755,38.613L123.755,38.613z"/>
			</g>
		</g>
		<g>
			<g>
				<path d="M118.601,44.023c0.011,0,0.022,0,0.033,0.002c0.156,0.006,0.548-0.334,0.349-0.484
					c-0.007-0.006-0.015-0.012-0.022-0.018C118.659,43.293,118.262,44.01,118.601,44.023L118.601,44.023z"/>
			</g>
		</g>
		<g>
			<g>
				<path d="M114.899,43.129c-0.003-0.004-0.007-0.008-0.01-0.012c-0.081-0.084-0.243-0.023-0.317,0.039
					c-0.005,0.004-0.01,0.008-0.016,0.012c-0.108,0.092-0.405,0.521-0.064,0.525C114.696,43.695,115.1,43.338,114.899,43.129
					L114.899,43.129z"/>
			</g>
		</g>
		<g>
			<g>
				<path d="M113.842,42.93c0.155,0,0.378-0.344,0.166-0.344C113.852,42.586,113.63,42.93,113.842,42.93L113.842,42.93z"/>
			</g>
		</g>
		<g>
			<g>
				<path d="M115.6,42.986c0.157,0,0.382-0.348,0.167-0.348C115.61,42.639,115.386,42.986,115.6,42.986L115.6,42.986z"/>
			</g>
		</g>
		<g>
			<g>
				<path d="M119.056,37.309c-0.007-0.016-0.014-0.031-0.021-0.047c-0.202-0.457-0.85,0.596-0.328,0.451
					c0.023-0.006,0.046-0.012,0.069-0.02C118.908,37.658,119.127,37.469,119.056,37.309L119.056,37.309z"/>
			</g>
		</g>
		<g>
			<g>
				<path d="M118.57,37.973c-0.066-0.055-0.136-0.023-0.197,0.023c-0.068,0.051-0.23,0.299-0.038,0.303
					C118.44,38.299,118.703,38.08,118.57,37.973L118.57,37.973z"/>
			</g>
		</g>
		<g>
			<g>
				<path d="M121.683,34.34c-0.007,0.027-0.014,0.053-0.021,0.08c-0.083,0.33,0.381,0.119,0.453-0.057
					c0.012-0.027,0.022-0.055,0.034-0.082C122.311,33.891,121.756,34.051,121.683,34.34L121.683,34.34z"/>
			</g>
		</g>
		<g>
			<g>
				<path d="M49.396,66.637c4.23-3.143,8.269-6.547,12.134-10.129c3.993-3.703,7.395-7.895,10.713-12.197
					c3.511-4.553,6.952-9.158,10.29-13.84c3.252-4.559,6.539-9.133,10.475-13.137c0.357-0.363,0.018-0.693-0.354-0.354
					c-3.873,3.543-7.024,7.809-10.143,12.006c-3.434,4.623-6.784,9.303-10.316,13.852c-3.447,4.439-7.223,8.539-11.298,12.406
					C57.02,58.922,52.813,62.23,48.931,65.9C48.425,66.377,48.736,67.127,49.396,66.637L49.396,66.637z"/>
			</g>
		</g>
		<g>
			<g>
				<path d="M79.902,34.113c1.78-4.656,0.792-10.234-4.157-12.439c-0.146-0.064-0.447,0.236-0.307,0.361
					c1.716,1.52,3.202,3,3.992,5.205c0.8,2.229,0.492,4.74-0.181,6.955C79.111,34.652,79.8,34.377,79.902,34.113L79.902,34.113z"/>
			</g>
		</g>
		<g>
			<g>
				<path d="M91.951,17.389c-0.345,0.961-0.663,1.791-1.24,2.648c-0.554,0.824-1.182,1.594-1.733,2.416
					c0.271-0.068,0.543-0.135,0.813-0.203c-0.142-0.738-0.223-1.482-0.112-2.23c0.149-1.014,0.807-1.602,1.602-2.158
					c0.132-0.092,0.314-0.531-0.007-0.434c-2.478,0.75-2.824,3.281-2.411,5.488c0.077,0.414,0.719-0.062,0.813-0.205
					c1.056-1.561,3.307-3.602,3.18-5.654C92.817,16.441,92.042,17.135,91.951,17.389L91.951,17.389z"/>
			</g>
		</g>
		<g>
			<g>
				<path d="M91.759,16.85c-1.491,0.705-3.031,1.453-4.723,1.346c0.09,0.09,0.181,0.18,0.271,0.27
					c0.005-0.105,0.435-0.457,0.565-0.695c0.16-0.291-0.087-0.551-0.382-0.383c-0.676,0.385-1.167,0.756-1.226,1.578
					c-0.011,0.162,0.123,0.266,0.271,0.271c1.908,0.076,3.593-0.812,5.232-1.684C92.121,17.365,92.346,16.57,91.759,16.85
					L91.759,16.85z"/>
			</g>
		</g>
		<g>
			<g>
				<path d="M92.734,17.756c0.184,0,0.444-0.406,0.195-0.406C92.746,17.35,92.484,17.756,92.734,17.756L92.734,17.756z"/>
			</g>
		</g>
		<g>
			<g>
				<path d="M92.265,18.24c-0.187,0.59-0.275,1.217-0.168,1.83c0.093,0.525,0.329,1.432,0.997,1.371
					c0.129-0.012,0.29-0.125,0.309-0.264c0.064-0.484-0.289-0.859-0.444-1.314c-0.199-0.584-0.121-1.23,0.047-1.809
					C93.16,17.525,92.367,17.916,92.265,18.24L92.265,18.24z"/>
			</g>
		</g>
		<g>
			<g>
				<path d="M93.598,21.367c0.525-0.688,0.837-1.443,0.845-2.314c0.008-0.754-0.562-1.838-1.293-2.072
					c-0.254-0.082-0.698,0.305-0.575,0.576c0.262,0.572,0.754,0.939,0.97,1.566c0.249,0.725,0.127,1.484-0.275,2.123
					C93.072,21.561,93.429,21.59,93.598,21.367L93.598,21.367z"/>
			</g>
		</g>
		<g>
			<g>
				<path d="M91.696,16.219c-1.107-0.566-2.72-0.484-3.526,0.572c-0.114,0.15-0.18,0.465,0.092,0.479
					c0.456,0.021,0.896-0.279,1.342-0.369c0.535-0.105,1.133-0.045,1.668,0.031C91.548,16.971,92.042,16.396,91.696,16.219
					L91.696,16.219z"/>
			</g>
		</g>
		<g>
			<g>
				<path d="M92.427,17.141c0.567,1.316,2.795,1.674,4.051,1.834c1.748,0.221,3.828,0.002,5.37-0.893
					c0.207-0.119,0.598-0.777,0.083-0.66c-1.554,0.352-2.989,0.648-4.596,0.535c-0.771-0.055-1.518-0.246-2.251-0.482
					c-0.725-0.232-1.312-0.775-2.034-0.957C92.772,16.449,92.294,16.834,92.427,17.141L92.427,17.141z"/>
			</g>
		</g>
		<g>
			<g>
				<path d="M93.044,16.002c-2.803-0.656-5.085-1.732-6.818-4.094c-0.093-0.127-0.294,0.129-0.272,0.232
					c0.636,2.992,4.189,3.771,6.737,4.355C92.926,16.549,93.301,16.062,93.044,16.002L93.044,16.002z"/>
			</g>
		</g>
		<g>
			<g>
				<path d="M86.262,11.643c0.087-0.195,0.229-0.383,0.164-0.6c-0.047-0.152-0.256,0.021-0.302,0.076
					c-0.146,0.172-0.165,0.348-0.21,0.568C85.861,11.947,86.205,11.773,86.262,11.643L86.262,11.643z"/>
			</g>
		</g>
		<g>
			<g>
				<path d="M92.673,16.287c-0.448-0.635-0.921-1.252-1.311-1.928c-0.158-0.275-0.284-0.568-0.404-0.861
					c-0.152-0.375-0.146-0.789-0.354-1.133c-0.198-0.326-0.656,0.1-0.711,0.342c-0.348,1.562,1.257,3.117,2.143,4.219
					C92.265,17.209,92.888,16.59,92.673,16.287L92.673,16.287z"/>
			</g>
		</g>
		<g>
			<g>
				<path d="M92.303,16.566c0.716-0.029,1.81,0.033,2.312-0.551c0.078-0.09,0.211-0.256,0.146-0.389
					c-0.012-0.023-0.023-0.047-0.035-0.07c-0.07-0.143-0.203-0.17-0.35-0.137c-0.547,0.129-1.095,0.223-1.654,0.277
					c-0.257,0.023-0.479,0.197-0.591,0.43C92.052,16.289,92.05,16.576,92.303,16.566L92.303,16.566z"/>
			</g>
		</g>
		<g>
			<g>
				<path d="M95.512,21.238c1.101,0.623,2.184,0.539,3.387,0.299c1.302-0.262,2.381-0.414,3.691-0.242
					c1.667,0.219,2.376-0.76,2.765-2.299c0.04-0.156-0.188-0.039-0.216,0.055c-0.336,1.105-0.732,2.125-2.043,2.1
					c-0.602-0.012-1.196-0.162-1.801-0.182c-1.934-0.064-3.737,1.035-5.592,0.002C95.591,20.908,95.377,21.16,95.512,21.238
					L95.512,21.238z"/>
			</g>
		</g>
		<g>
			<g>
				<path d="M107.466,16.602c0.415-0.646,0.809-1.484,0.54-2.262c-0.271-0.781-1.251-0.672-1.863-0.455
					c-0.129,0.047-0.304,0.381-0.078,0.312c0.574-0.172,1.346-0.314,1.657,0.346c0.299,0.631-0.108,1.461-0.438,1.99
					C107.178,16.705,107.381,16.734,107.466,16.602L107.466,16.602z"/>
			</g>
		</g>
		<g>
			<g>
				<path d="M105.719,17.471c0.482,0.221,0.998,0.373,1.512,0.174c0.367-0.143,0.805-0.688,0.759-1.086
					c-0.012-0.107-0.138-0.023-0.172,0.021c-0.233,0.299-0.308,0.65-0.678,0.832c-0.395,0.195-0.896-0.004-1.266-0.158
					C105.778,17.213,105.606,17.418,105.719,17.471L105.719,17.471z"/>
			</g>
		</g>
		<g>
			<g>
				<path d="M105.725,12.639c1.547-1.52,0.651-3.516-1.247-4.16c-2.567-0.871-4.76,1.445-5.385,3.715
					c-0.049,0.176,0.204,0.062,0.244-0.031c0.89-2.092,2.374-4.238,4.945-3.41c1.642,0.529,2.648,2.373,1.323,3.768
					C105.489,12.645,105.603,12.76,105.725,12.639L105.725,12.639z"/>
			</g>
		</g>
		<g>
			<g>
				<path d="M99.393,9.877c-0.103-0.289,0.19-0.994-0.045-1.23c-0.126-0.127-0.265-0.197-0.452-0.209
					c-0.247-0.018,0.107-0.643,0.157-0.791c0.381-1.125-0.468-2.041-1.557-2.188c-0.05-0.008-0.142,0.1-0.077,0.129
					c0.469,0.223,0.923,0.361,1.28,0.764c0.537,0.604,0.192,1.576-0.197,2.146c-0.031,0.045-0.052,0.127,0.026,0.135
					c1.009,0.092,0.438,0.758,0.669,1.385C99.235,10.121,99.425,9.967,99.393,9.877L99.393,9.877z"/>
			</g>
		</g>
		<g>
			<g>
				<path d="M94.644,7.922c0.38-0.416,0.494-0.98-0.188-1.143c-0.086-0.021-0.243,0.135-0.14,0.195
					c0.369,0.217,0.602,0.396,0.212,0.832C94.418,7.93,94.53,8.047,94.644,7.922L94.644,7.922z"/>
			</g>
		</g>
		<g>
			<g>
				<path d="M103.727,7.225c-0.057-0.746-0.278-1.48-0.902-1.943c-0.536-0.398-1.364-0.457-1.962-0.18
					c-0.057,0.025-0.189,0.205-0.053,0.211c0.674,0.025,1.236-0.119,1.829,0.312c0.542,0.393,0.756,1.092,0.827,1.725
					C103.485,7.516,103.737,7.342,103.727,7.225L103.727,7.225z"/>
			</g>
		</g>
		<g>
			<g>
				<path d="M86.161,15.619c-1.112-1.303-1.548-2.541-1.153-4.227c0.25-1.068,0.833-2.057,0.969-3.152
					c0.013-0.107-0.151,0.016-0.169,0.062c-0.958,2.641-2.071,5.199,0.168,7.502C86.05,15.883,86.23,15.701,86.161,15.619
					L86.161,15.619z"/>
			</g>
		</g>
		<g>
			<g>
				<path d="M87.833,8.27c0.161-0.248,0.319-0.461,0.65-0.467c0.164-0.002,0.349,0.123,0.506,0.162
					c0.062,0.016,0.189-0.078,0.149-0.148c-0.415-0.734-1.218-0.047-1.494,0.42C87.559,8.383,87.773,8.363,87.833,8.27L87.833,8.27z
					"/>
			</g>
		</g>
		<g>
			<g>
				<path d="M92.247,7.262c-0.01-0.773-0.205-1.664-0.721-2.266c-0.079-0.092-0.274,0.104-0.232,0.197
					c0.331,0.742,0.691,1.336,0.728,2.178C92.027,7.512,92.248,7.363,92.247,7.262L92.247,7.262z"/>
			</g>
		</g>
		<g>
			<g>
				<path d="M87.945,5.992c0.25-1.197,0.793-2.256,1.769-3.018c0.944-0.738,1.994-0.695,3.102-0.889
					c0.039-0.006,0.134-0.107,0.064-0.133c-1.123-0.414-2.567,0.232-3.445,0.926c-0.984,0.779-1.517,1.969-1.736,3.176
					C87.665,6.236,87.921,6.107,87.945,5.992L87.945,5.992z"/>
			</g>
		</g>
		<g>
			<g>
				<path d="M95.402,4.461c-0.309-0.598-1.03-1.355-1.722-0.775c-0.031,0.027-0.127,0.168-0.02,0.164
					c0.26-0.008,0.464-0.105,0.73-0.031c0.365,0.102,0.615,0.5,0.784,0.805C95.24,4.738,95.452,4.559,95.402,4.461L95.402,4.461z"/>
			</g>
		</g>
		<g>
			<g>
				<path d="M99.789,3.539c-0.306-1.654-1.64-2.42-3.26-2.252c-0.806,0.084-0.664-0.756-1.3-1.082
					c-0.687-0.354-1.335-0.203-2.008,0.111c-0.127,0.059-0.2,0.324,0.003,0.24c1.225-0.514,2.138-0.162,2.502,1.125
					c0.014,0.047,0.072,0.055,0.111,0.043c1.685-0.461,3.327,0.172,3.722,1.979C99.585,3.824,99.809,3.646,99.789,3.539
					L99.789,3.539z"/>
			</g>
		</g>
		<g>
			<g>
				<path d="M85.434,5.918c-0.218-0.875-0.304-1.77-0.081-2.652c0.332-1.322,1.411-1.361,2.536-1.469
					c0.051-0.004,0.188-0.127,0.097-0.16c-0.97-0.365-2.081,0.156-2.604,0.996c-0.624,1-0.444,2.357-0.152,3.432
					C85.258,6.172,85.458,6.014,85.434,5.918L85.434,5.918z"/>
			</g>
		</g>
		<g>
			<g>
				<path d="M104.305,14.705c-0.509,0.084-0.995,0.295-1.511,0.344c-0.281,0.027-0.774,0.691-0.331,0.689
					c0.572-0.002,1.131-0.285,1.684-0.4C104.437,15.275,104.776,14.629,104.305,14.705L104.305,14.705z"/>
			</g>
		</g>
		<g>
			<g>
				<path d="M104.099,13.613c-0.326-0.082-0.594-0.041-0.821,0.217c-0.039,0.045-0.175,0.26-0.033,0.283
					c0.203,0.035,0.353-0.049,0.567-0.02C103.999,14.119,104.341,13.674,104.099,13.613L104.099,13.613z"/>
			</g>
		</g>
		<g>
			<g>
				<path d="M103.219,11.6c-0.408,0.307-1.136,0.869-1.059,1.453c0.032,0.242,0.307,0.047,0.389-0.049
					c0.308-0.363,0.514-0.75,0.882-1.07C103.674,11.725,103.516,11.377,103.219,11.6L103.219,11.6z"/>
			</g>
		</g>
		<g>
			<g>
				<path d="M104.108,17.07c-0.168-0.291-0.382-0.348-0.686-0.236c-0.089,0.033-0.175,0.152-0.15,0.248
					c0.058,0.227,0.236,0.207,0.367,0.387C103.775,17.658,104.216,17.258,104.108,17.07L104.108,17.07z"/>
			</g>
		</g>
		<g>
			<g>
				<path d="M96.456,9.477c-0.114,0.258-0.22,0.516-0.318,0.779c-0.034,0.094-0.071,0.203,0.007,0.287
					c0.019,0.02,0.036,0.039,0.055,0.059c0.057,0.061,0.175,0.018,0.227-0.027c0.364-0.307,0.416-0.703,0.513-1.158
					C97.014,9.057,96.536,9.297,96.456,9.477L96.456,9.477z"/>
			</g>
		</g>
		<g>
			<g>
				<path d="M96.586,9.684c0.185,0,0.448-0.408,0.196-0.408C96.598,9.275,96.334,9.684,96.586,9.684L96.586,9.684z"/>
			</g>
		</g>
		<g>
			<g>
				<path d="M96.349,9.193c-0.451-0.115-0.809,0.039-1.132,0.357c-0.062,0.061-0.181,0.225-0.12,0.322
					c0.039,0.061,0.057,0.072,0.129,0.082c0.294,0.041,0.399-0.348,0.768-0.266C96.225,9.742,96.613,9.262,96.349,9.193
					L96.349,9.193z"/>
			</g>
		</g>
		<g>
			<g>
				<path d="M92.747,4.031c-0.162,0.398-0.258,0.82-0.31,1.246c-0.04,0.334,0.474,0.004,0.532-0.133
					c0.164-0.377,0.155-0.766,0.218-1.168C93.237,3.65,92.818,3.857,92.747,4.031L92.747,4.031z"/>
			</g>
		</g>
		<g>
			<g>
				<path d="M94.07,5.254c-0.162,0.32-0.468,0.512-0.612,0.832c-0.024,0.053-0.031,0.168,0.062,0.156
					c0.482-0.057,0.848-0.6,0.958-1.039C94.554,4.896,94.14,5.113,94.07,5.254L94.07,5.254z"/>
			</g>
		</g>
		<g>
			<g>
				<path d="M98.125,3.635c-0.397-0.064-0.706,0.234-0.87,0.564c-0.038,0.074-0.063,0.191,0.006,0.26
					c0.014,0.014,0.027,0.027,0.042,0.041c0.06,0.057,0.154,0.012,0.21-0.025c0.197-0.133,0.284-0.309,0.505-0.41
					C98.15,4.002,98.389,3.678,98.125,3.635L98.125,3.635z"/>
			</g>
		</g>
		<g>
			<g>
				<path d="M97.917,4.068c0.185,0,0.448-0.41,0.196-0.41C97.928,3.658,97.665,4.068,97.917,4.068L97.917,4.068z"/>
			</g>
		</g>
		<g>
			<g>
				<path d="M98.233,4.506c0.291,0.127,0.42,0.34,0.732,0.389c0.102,0.016,0.261-0.141,0.243-0.244
					c-0.058-0.344-0.308-0.504-0.62-0.641C98.367,3.91,97.974,4.393,98.233,4.506L98.233,4.506z"/>
			</g>
		</g>
		<g>
			<g>
				<path d="M86.667,3.748c-0.433,0.164-0.717,1.014-0.372,1.352c0.119,0.117,0.312-0.08,0.363-0.178
					c0.101-0.191,0.122-0.273,0.135-0.488c0.013-0.197,0.102-0.406,0.086-0.602C86.87,3.707,86.758,3.715,86.667,3.748L86.667,3.748
					z"/>
			</g>
		</g>
		<g>
			<g>
				<path d="M87.8,3.057c-0.117,0.236-0.257,0.588,0.004,0.764c0.098,0.066,0.222-0.041,0.263-0.127
					C88.17,3.473,88.211,3.24,88.247,3C88.295,2.66,87.88,2.893,87.8,3.057L87.8,3.057z"/>
			</g>
		</g>
		<g>
			<g>
				<path d="M90.696,10.736c0.266,0,0.643-0.586,0.282-0.586C90.713,10.15,90.335,10.736,90.696,10.736L90.696,10.736z"/>
			</g>
		</g>
		<g>
			<g>
				<path d="M92.928,10.008c-0.142-0.186-0.225-0.223-0.446-0.184c-0.056,0.01-0.163,0.107-0.127,0.174
					c0.074,0.131,0.175,0.195,0.264,0.318C92.717,10.453,93.042,10.156,92.928,10.008L92.928,10.008z"/>
			</g>
		</g>
		<g>
			<g>
				<path d="M89.545,7.197c-0.029-0.047-0.059-0.092-0.089-0.139c-0.031-0.047-0.113-0.018-0.15-0.002
					c-0.184,0.07-0.178,0.244-0.118,0.396C89.261,7.641,89.638,7.346,89.545,7.197L89.545,7.197z"/>
			</g>
		</g>
		<g>
			<g>
				<path d="M99.946,13.619c-0.942,2.252-2.666-0.289-4.114-0.32c-0.083-0.002-0.217,0.172-0.093,0.193
					c1.086,0.18,1.844,1.152,2.92,1.371c0.832,0.168,1.301-0.598,1.517-1.271C100.227,13.43,99.984,13.531,99.946,13.619
					L99.946,13.619z"/>
			</g>
		</g>
		<g>
			<g>
				<path d="M96.498,11.836c-0.312,0.221-0.564,0.195-0.916,0.219c-0.043,0.004-0.16,0.092-0.102,0.141
					c0.339,0.281,0.779,0.049,1.088-0.17C96.701,11.932,96.67,11.715,96.498,11.836L96.498,11.836z"/>
			</g>
		</g>
		<g>
			<g>
				<path d="M98.825,20.555c0.568-0.197,1.188-0.438,1.633-0.855c0.039-0.037,0.036-0.113-0.031-0.084
					c-0.532,0.242-0.997,0.561-1.557,0.758C98.792,20.4,98.7,20.598,98.825,20.555L98.825,20.555z"/>
			</g>
		</g>
		<g>
			<g>
				<path d="M101.136,19.908c0.004,0,0.011-0.01,0.005-0.01C101.136,19.898,101.13,19.908,101.136,19.908L101.136,19.908z"/>
			</g>
		</g>
		<g>
			<g>
				<path d="M101.613,19.678c0.09-0.014,0.18-0.025,0.27-0.039c0.012,0,0.029-0.025,0.013-0.025
					c-0.11-0.008-0.181-0.002-0.282,0.039C101.598,19.658,101.591,19.688,101.613,19.678L101.613,19.678z"/>
			</g>
		</g>
		<g>
			<g>
				<path d="M100.887,14.916c-0.221,0.09-0.442,0.164-0.678,0.201c-0.062,0.01-0.235,0.172-0.142,0.234
					c0.272,0.184,0.56,0.049,0.823-0.102C101.049,15.158,101.178,14.795,100.887,14.916L100.887,14.916z"/>
			</g>
		</g>
		<g>
			<g>
				<path d="M101.425,7.982c0.513-0.193,1.218-0.867,0.935-1.48c-0.05-0.107-0.206,0.037-0.218,0.105
					c-0.097,0.541-0.128,0.938-0.72,1.184C101.318,7.834,101.261,8.043,101.425,7.982L101.425,7.982z"/>
			</g>
		</g>
		<g>
			<g>
				<path d="M100.251,7.316c0.269,0,0.649-0.594,0.285-0.594C100.269,6.723,99.887,7.316,100.251,7.316L100.251,7.316z"/>
			</g>
		</g>
		<g>
			<g>
				<path d="M94.218,2.395c0.039-0.021,0.077-0.045,0.116-0.066c0.164-0.096,0.298-0.477-0.004-0.348
					c-0.039,0.016-0.078,0.033-0.117,0.049C94,2.121,93.945,2.551,94.218,2.395L94.218,2.395z"/>
			</g>
		</g>
		<g>
			<g>
				<path d="M93.017,12.463c-0.005,0.02-0.01,0.039-0.014,0.059c-0.062,0.266,0.305,0.094,0.363-0.047
					c0.008-0.02,0.017-0.039,0.025-0.059C93.523,12.104,93.072,12.227,93.017,12.463L93.017,12.463z"/>
			</g>
		</g>
		<g>
			<g>
				<path d="M93.116,12.617c0.185,0,0.448-0.408,0.196-0.408C93.127,12.209,92.864,12.617,93.116,12.617L93.116,12.617z"/>
			</g>
		</g>
		<g>
			<g>
				<path d="M92.147,12.346c0.221,0,0.536-0.49,0.235-0.49C92.161,11.855,91.845,12.346,92.147,12.346L92.147,12.346z"/>
			</g>
		</g>
		<g>
			<g>
				<path d="M94.268,11.133c0.167,0,0.405-0.371,0.178-0.371C94.279,10.762,94.04,11.133,94.268,11.133L94.268,11.133z"/>
			</g>
		</g>
		<g>
			<g>
				<path d="M93.877,13.469c0.242,0,0.586-0.535,0.257-0.535C93.893,12.934,93.548,13.469,93.877,13.469L93.877,13.469z"/>
			</g>
		</g>
		<g>
			<g>
				<path d="M96.951,16.938c0.203,0,0.494-0.451,0.217-0.451C96.963,16.486,96.673,16.938,96.951,16.938L96.951,16.938z"/>
			</g>
		</g>
		<g>
			<g>
				<path d="M96.481,14.783c0.185,0,0.448-0.408,0.196-0.408C96.493,14.375,96.229,14.783,96.481,14.783L96.481,14.783z"/>
			</g>
		</g>
		<g>
			<g>
				<path d="M98.442,16.361c-0.003,0.012-0.006,0.021-0.01,0.033c-0.085,0.275,0.338,0.074,0.393-0.1
					c0.013-0.037,0.024-0.076,0.036-0.113c0.087-0.275-0.331-0.066-0.388,0.098c-0.014,0.037-0.027,0.076-0.041,0.115
					c0.131-0.033,0.262-0.066,0.393-0.1c0.004-0.01,0.008-0.021,0.011-0.031C98.927,15.996,98.498,16.18,98.442,16.361
					L98.442,16.361z"/>
			</g>
		</g>
		<g>
			<g>
				<path d="M98.541,16.518c0.185,0,0.448-0.41,0.196-0.41C98.552,16.107,98.289,16.518,98.541,16.518L98.541,16.518z"/>
			</g>
		</g>
		<g>
			<g>
				<path d="M102.502,10.076c0.115-0.549-0.503-0.416-0.727-0.104c-0.031,0.043-0.085,0.154-0.023,0.199
					c0.033,0.025,0.258,0.084,0.258,0.086C102.001,10.566,102.467,10.244,102.502,10.076L102.502,10.076z"/>
			</g>
		</g>
		<g>
			<g>
				<path d="M103.448,10.057c0.144,0,0.35-0.318,0.153-0.318C103.457,9.738,103.251,10.057,103.448,10.057L103.448,10.057z"/>
			</g>
		</g>
		<g>
			<g>
				<path d="M101.184,11.314c0.169,0,0.41-0.373,0.18-0.373C101.195,10.941,100.955,11.314,101.184,11.314L101.184,11.314z"/>
			</g>
		</g>
		<g>
			<g>
				<path d="M96.202,19.568c0.008,0.023,0.019,0.045,0.033,0.066c0.051,0.104,0.188,0.029,0.245-0.029
					c0.027-0.025,0.053-0.053,0.077-0.08C96.995,19.018,96.057,19.143,96.202,19.568L96.202,19.568z"/>
			</g>
		</g>
		<g>
			<g>
				<path d="M96.335,19.605c0.185,0,0.448-0.408,0.196-0.408C96.347,19.197,96.083,19.605,96.335,19.605L96.335,19.605z"/>
			</g>
		</g>
		<g>
			<g>
				<path d="M96.691,19.799c0.038,0,0.091-0.082,0.04-0.082C96.694,19.717,96.641,19.799,96.691,19.799L96.691,19.799z"/>
			</g>
		</g>
		<g>
			<g>
				<path d="M75.01,22.352c0.589,0.99,0.753,2.008,0.338,3.107c0.256-0.125,0.511-0.25,0.766-0.375
					c-1.01-0.852-0.928-1.955-0.624-3.137c-0.236,0.201-0.473,0.404-0.709,0.605c1.236,0.094,2.301-0.217,3.44-0.654
					c0.24-0.092,0.515-0.455,0.343-0.703c-0.704-1.018-1.734-0.953-2.758-0.457c-1.252,0.607-2.27,1.521-3.561,2.084
					c-0.252,0.109-0.83,0.93-0.233,0.934c2.167,0.014,3.699-3.639,5.855-1.865c0.115-0.234,0.229-0.469,0.344-0.703
					c-0.912,0.496-1.842,0.652-2.858,0.406c-0.371-0.088-0.705,0.27-0.811,0.59c-0.44,1.336-0.353,2.738,0.814,3.658
					c0.225,0.178,0.575-0.059,0.698-0.26c0.837-1.361,0.739-2.641-0.288-3.873C75.523,21.416,74.834,22.055,75.01,22.352
					L75.01,22.352z"/>
			</g>
		</g>
		<g>
			<g>
				<path d="M73.756,23.053c1.008-0.492,1.82-1.314,1.924-2.48c0.061-0.68-0.041-1.332-0.165-2
					c-0.102-0.547-0.145-1.525-0.591-1.883c-0.241-0.191-0.635,0.121-0.721,0.352c-0.66,1.783,1.559,4.021-0.559,5.371
					C73.326,22.615,73.233,23.311,73.756,23.053L73.756,23.053z"/>
			</g>
		</g>
		<g>
			<g>
				<path d="M74.216,21.047c-0.604-0.521-1.308-0.875-2.008-1.248c-0.411-0.219-0.811-0.457-1.179-0.742
					c-0.317-0.248-0.487-0.6-0.87-0.738c-0.185-0.068-0.434,0.184-0.425,0.363c0.075,1.5,2.959,2.141,3.942,2.904
					C73.926,21.779,74.45,21.25,74.216,21.047L74.216,21.047z"/>
			</g>
		</g>
		<g>
			<g>
				<path d="M11.669,94.078c3.111-2.59,7.569-2.934,11.453-2.961c4.112-0.031,8.213,0.406,12.312,0.684
					c4.906,0.336,10.031-0.016,14.767-1.379c5.049-1.451,9.24-4.648,13.14-8.053c0.272-0.238,0.403-0.883-0.143-0.775
					c-4.167,0.828-8.357-0.006-12.481-0.693c-4.354-0.725-8.478-0.891-12.815,0.055c-4.373,0.953-8.54,2.791-12.619,4.59
					c-4.113,1.812-8.675,3.314-12.229,6.145c-0.501,0.398-0.752,1.764,0.209,1.191c3.742-2.23,7.658-3.859,11.635-5.615
					c4.242-1.871,8.506-3.686,13.032-4.758c4.354-1.031,8.566-0.666,12.943-0.049c3.96,0.561,8.146,1.26,12.073,0.146
					c-0.047-0.258-0.095-0.516-0.142-0.773c-2.065,2.031-4.174,3.918-6.689,5.381c-2.353,1.367-5.078,2.213-7.718,2.82
					c-4.723,1.084-9.68,1.209-14.483,0.67c-4.071-0.459-8.146-0.961-12.253-0.76c-3.713,0.18-7.52,1.023-10.32,3.613
					C10.98,93.891,11.223,94.449,11.669,94.078L11.669,94.078z"/>
			</g>
		</g>
		<g>
			<g>
				<path d="M22.521,82.824c5.637-2.971,8.75-8.811,11.354-14.369c1.408-3.006,2.686-6.072,4.159-9.047
					c1.779-3.594,4.388-6.559,6.649-9.836c0.188-0.273,0.085-0.729-0.317-0.492c-6.134,3.609-11.941,8.164-16.418,13.727
					c-2.263,2.811-4.067,5.967-5.192,9.398c-0.874,2.666-2.251,8.092,1.114,9.58c0.439,0.195,1.188-0.609,0.859-1.012
					c-2.271-2.773-1.377-6.457-0.328-9.592c1.053-3.148,2.884-6.018,4.934-8.602c4.148-5.23,9.566-9.248,15.152-12.811
					c-0.143-0.143-0.285-0.285-0.428-0.428c-1.994,3.023-4.37,5.715-6.129,8.9c-1.546,2.799-2.853,5.707-4.185,8.609
					c-2.665,5.809-5.697,11.939-11.322,15.416C22.142,82.441,22.077,83.059,22.521,82.824L22.521,82.824z"/>
			</g>
		</g>
		<g>
			<g>
				<path d="M61.853,82.453c-1.036-0.023-2.084,0.705-3.036,1.029c-1.782,0.607-3.725,0.994-5.565,1.385
					c-4.007,0.852-8.19,0.279-12.243,0.311c-3.981,0.031-7.963,1.1-11.882,1.709c-1.974,0.307-3.846,0.594-5.75,1.221
					c-1.953,0.643-3.895,1.346-5.903,1.797c-0.314,0.072-0.913,0.959-0.339,0.924c1.797-0.111,3.429-0.68,5.118-1.27
					c1.857-0.648,3.686-1.045,5.632-1.311C31.987,87.686,36,87.08,40.15,86.961c4.021-0.113,7.938,0.033,11.909-0.777
					c1.887-0.385,3.755-0.879,5.629-1.32c0.604-0.143,1.163-0.318,1.734-0.557c0.568-0.234,1.293-0.721,1.91-0.771
					C61.774,83.498,62.555,82.469,61.853,82.453L61.853,82.453z"/>
			</g>
		</g>
		<g>
			<g>
				<path d="M25.392,80.789c0.144-2.838,1.433-5.479,2.65-7.99c1.201-2.479,2.53-4.912,3.878-7.314c1.626-2.9,3.667-5.508,5.734-8.1
					c1.018-1.273,2.013-2.553,3.062-3.805c0.839-1.002,2.024-2.055,2.466-3.301c0.092-0.26-0.235-0.252-0.37-0.145
					c-1.074,0.848-1.87,2.154-2.747,3.205c-1.136,1.361-2.258,2.75-3.359,4.139c-2.1,2.648-4.061,5.432-5.704,8.387
					c-1.429,2.568-2.951,5.064-4.411,7.615c-1.337,2.338-2.601,5.076-2.29,7.834C24.381,82.033,25.37,81.236,25.392,80.789
					L25.392,80.789z"/>
			</g>
		</g>
		<g>
			<g>
				<path d="M61.096,82.697c-2.891,1.523-5.796,2.934-8.933,3.885c-3.482,1.055-7.071,1.305-10.672,1.662
					c-7.665,0.758-15.316,1.578-23.027,1.65c-0.181,0.002-0.451,0.406-0.196,0.41c7.994,0.131,16.016-0.979,23.969-1.662
					c3.453-0.295,6.839-0.662,10.174-1.648c3.07-0.91,6.006-2.293,8.749-3.934C61.346,82.949,61.384,82.545,61.096,82.697
					L61.096,82.697z"/>
			</g>
		</g>
		<g>
			<g>
				<path d="M61.476,82.908c-2.734,0.922-4.938,2.811-7.432,4.197c-3.33,1.854-7.001,2.398-10.729,2.791
					c-3.418,0.357-6.851,0.498-10.284,0.338c-3.831-0.178-7.47-0.91-11.228-1.609c-0.122-0.021-0.36,0.23-0.202,0.283
					c6.778,2.24,14.504,2.098,21.518,1.396c3.438-0.344,6.636-0.916,9.831-2.275c3.01-1.281,5.427-3.605,8.486-4.809
					C61.564,83.172,61.691,82.836,61.476,82.908L61.476,82.908z"/>
			</g>
		</g>
		<g>
			<g>
				<path d="M62.046,82.18c-3.656,0.688-7.314,1.385-11.02,1.75c-3.668,0.363-7.288,0.004-10.957,0.053
					c-3.269,0.045-6.469,0.572-9.576,1.584c-3.296,1.072-6.727,2.318-9.758,4.006c-0.122,0.068-0.218,0.338,0.003,0.252
					c3.395-1.316,6.637-2.904,10.112-4.037c3.37-1.098,6.884-1.453,10.415-1.428c3.549,0.027,6.994,0.238,10.54-0.143
					c3.418-0.365,6.793-1.041,10.16-1.715C62.116,82.471,62.283,82.135,62.046,82.18L62.046,82.18z"/>
			</g>
		</g>
		<g>
			<g>
				<path d="M59.433,82.627c-3.646,0.174-7.279-0.27-10.92-0.387c-3.551-0.115-7.042,0.459-10.522,1.109
					c-3.174,0.594-6.166,1.648-9.197,2.729c-2.447,0.871-5.139,1.834-7.011,3.713c-0.129,0.129-0.047,0.342,0.125,0.197
					c2.208-1.848,4.816-2.85,7.503-3.799c2.943-1.041,5.841-1.982,8.917-2.559c3.479-0.65,6.938-1.119,10.482-1.01
					c3.498,0.109,6.971,0.521,10.475,0.314C59.421,82.928,59.622,82.617,59.433,82.627L59.433,82.627z"/>
			</g>
		</g>
		<g>
			<g>
				<path d="M26.115,79.963c1.072-2.031,1.469-4.334,2.455-6.406c1.235-2.592,2.533-5.16,3.874-7.697
					c2.678-5.07,5.701-9.852,9.313-14.299c0.13-0.16-0.065-0.242-0.184-0.117c-3.715,3.904-6.392,8.906-8.985,13.588
					c-1.393,2.514-2.688,5.084-3.972,7.654c-1.175,2.355-1.741,4.914-2.872,7.273C25.597,80.266,26.016,80.15,26.115,79.963
					L26.115,79.963z"/>
			</g>
		</g>
		<g>
			<g>
				<path d="M27.376,78.578c1.545-4.781,5.356-8.4,7.201-13.07c1.029-2.605,2.019-5.221,3.382-7.676
					c1.448-2.607,3.159-5.137,5.06-7.434c0.183-0.221-0.117-0.256-0.254-0.094c-3.722,4.402-6.264,9.459-8.353,14.789
					c-1.042,2.656-2.448,4.938-4.069,7.277c-1.358,1.957-2.603,3.969-3.258,6.279C27.027,78.859,27.336,78.701,27.376,78.578
					L27.376,78.578z"/>
			</g>
		</g>
		<g>
			<g>
				<path d="M42.483,50.613c-4.359,3.779-8.294,8.008-11.59,12.75c-3.488,5.018-5.152,10.719-7.606,16.246
					c-0.022,0.051-0.052,0.146,0.004,0.189c0.144,0.094,0.267,0.209,0.368,0.346c0.112,0.129,0.404-0.15,0.334-0.285
					c-0.48-0.912,0.751-2.752,1.107-3.656c0.552-1.402,1.032-2.83,1.578-4.234c1.123-2.885,2.538-5.574,4.274-8.137
					c3.291-4.857,7.328-9.154,11.718-13.031C42.875,50.621,42.683,50.439,42.483,50.613L42.483,50.613z"/>
			</g>
		</g>
		<g>
			<g>
				<path d="M24.28,79.756c-0.971-5.672,1.334-10.57,4.702-15.008c3.561-4.688,7.883-8.781,12.434-12.482
					c0.145-0.117,0.129-0.369-0.083-0.225c-2.54,1.723-4.738,3.963-6.889,6.135c-2.135,2.154-4.166,4.414-6.001,6.83
					c-3.313,4.365-5.608,9.369-4.454,14.924C24.018,80.072,24.299,79.875,24.28,79.756L24.28,79.756z"/>
			</g>
		</g>
		<g>
			<g>
				<path d="M70.472,24.492c-0.592-0.383-1.395-0.842-0.57-1.467c0.481-0.365,1.036-0.625,1.521-0.988
					c0.058-0.043,0.207-0.234,0.07-0.281c-0.346-0.119-0.674-0.275-0.982-0.473c-0.158-0.102-0.471,0.219-0.323,0.322
					c0.335,0.238,0.688,0.348,1.075,0.471c0.023-0.094,0.047-0.188,0.07-0.281c-0.653,0.496-1.505,0.783-2.015,1.451
					c-0.534,0.699,0.391,1.26,0.946,1.49C70.365,24.777,70.576,24.559,70.472,24.492L70.472,24.492z"/>
			</g>
		</g>
		<g>
			<g>
				<path d="M70.002,21.479c-0.315-0.262-0.551-0.812-0.689-1.189c-0.102-0.275-0.142-0.574-0.086-0.863
					c0.081-0.424,0.512-0.57,0.805-0.82c0.04-0.033,0.072-0.123-0.003-0.135c-0.763-0.102-1.261,0.891-1.225,1.52
					c0.038,0.67,0.48,1.338,1.041,1.672C69.917,21.705,70.074,21.537,70.002,21.479L70.002,21.479z"/>
			</g>
		</g>
		<g>
			<g>
				<path d="M69.705,18.174c-0.08-0.225-0.293-0.74-0.049-0.934c0.269-0.215,0.768-0.068,1.083-0.125
					c0.09-0.018,0.263-0.207,0.132-0.275c-0.375-0.195-1.112-0.117-1.419,0.211c-0.371,0.398-0.248,0.885-0.055,1.344
					C69.466,18.557,69.754,18.312,69.705,18.174L69.705,18.174z"/>
			</g>
		</g>
		<g>
			<g>
				<path d="M71.135,18.48c0.344,0.117,0.667,0.219,1.033,0.184c0.116-0.012,0.342-0.264,0.143-0.297
					c-0.323-0.055-0.631-0.109-0.944-0.209C71.217,18.111,70.965,18.424,71.135,18.48L71.135,18.48z"/>
			</g>
		</g>
		<g>
			<g>
				<path d="M72.773,17.33c0.186-0.381,0.553-0.189,0.829-0.203c0.078-0.004,0.209-0.109,0.17-0.199
					c-0.118-0.275-0.465-0.33-0.733-0.211c-0.303,0.135-0.455,0.346-0.562,0.65C72.402,17.578,72.721,17.438,72.773,17.33
					L72.773,17.33z"/>
			</g>
		</g>
		<g>
			<g>
				<path d="M69.535,22.186c-0.336-0.287-0.599-0.605-0.732-1.031c-0.155-0.494,0.1-0.887,0.353-1.285
					c0.088-0.139-0.01-0.264-0.155-0.154c-1.052,0.791-0.661,2.055,0.272,2.732C69.396,22.537,69.65,22.285,69.535,22.186
					L69.535,22.186z"/>
			</g>
		</g>
		<g>
			<g>
				<path d="M75.123,16.445c-0.578-0.967-2.012-0.869-2.601,0.053c-0.062,0.096-0.034,0.25,0.11,0.17
					c0.362-0.199,0.627-0.451,1.061-0.5c0.457-0.051,0.842,0.238,1.201,0.471C74.984,16.697,75.183,16.545,75.123,16.445
					L75.123,16.445z"/>
			</g>
		</g>
		<g>
			<g>
				<path d="M71.746,16.393c0.012-0.658,0.542-0.539,1.016-0.629c0.067-0.012,0.182-0.141,0.094-0.193
					c-0.689-0.41-1.431,0.262-1.396,0.961C71.467,16.713,71.743,16.516,71.746,16.393L71.746,16.393z"/>
			</g>
		</g>
		<g>
			<g>
				<path d="M71.548,23.875c-0.16-0.027-0.311,0.07-0.312,0.238c0,0.039,0.02,0.062,0.052,0.08c0.018,0.01,0.036,0.02,0.054,0.029
					C71.505,24.311,71.784,23.912,71.548,23.875L71.548,23.875z"/>
			</g>
		</g>
	</g>
</g>
<g id="DESIGNED_BY_FREEPIK">
</g>
</svg>
