<?xml version="1.0" encoding="utf-8"?>
<!-- Generator: Adobe Illustrator 16.0.0, SVG Export Plug-In . SVG Version: 6.00 Build 0)  -->
<!DOCTYPE svg PUBLIC "-//W3C//DTD SVG 1.1//EN" "http://www.w3.org/Graphics/SVG/1.1/DTD/svg11.dtd">
<svg version="1.1" xmlns="http://www.w3.org/2000/svg" xmlns:xlink="http://www.w3.org/1999/xlink" x="0px" y="0px" width="66.38px"
	 height="99.963px" viewBox="0 0 66.38 99.963" enable-background="new 0 0 66.38 99.963" xml:space="preserve">
<g id="BACKGROUND">
</g>
<g id="OBJECTS">
	<g>
		<g>
			<g>
				<path d="M48.13,98.853c-1.991-7.575-4.635-15.008-6.973-22.484c-2.349-7.511-4.6-15.051-6.459-22.7
					C31.268,39.554,29.019,25.226,27,10.853c-0.484-3.445-0.977-6.889-1.43-10.338c-0.083-0.636-1.075,0.031-1.015,0.488
					c1.733,13.197,3.693,26.425,6.193,39.5c2.975,15.556,6.509,31.117,11.357,46.204c1.419,4.414,2.849,8.814,4.787,13.032
					C47.201,100.413,48.273,99.396,48.13,98.853L48.13,98.853z"/>
			</g>
		</g>
		<g>
			<g>
				<path d="M43.316,85.239c-0.357-6.014,0.136-11.871,1.652-17.706c1.47-5.663,3.69-11.121,5.879-16.535
					c2.15-5.317,4.309-10.634,5.892-16.154c0.817-2.851,1.361-5.737,1.805-8.666c0.438-2.886,1.072-6.007,0.61-8.926
					c-0.377,0.225-0.754,0.45-1.131,0.674c3.862,10.881,7.598,22.115,6.835,33.831c-0.373,5.723-1.982,11.244-5.12,16.07
					c-1.696,2.608-3.806,4.9-6.144,6.943c-2.85,2.49-6.012,3.825-9.516,5.127c-0.681,0.252-1.354,0.519-2.024,0.798
					c-0.722,0.3-1.067,1.775,0.017,1.305c3.207-1.392,6.565-2.386,9.47-4.389c2.529-1.744,4.767-4.022,6.744-6.356
					c3.585-4.234,5.944-9.37,7.161-14.761c2.492-11.038-0.393-22.74-3.976-33.199c-0.712-2.08-1.492-4.134-2.336-6.164
					c-0.258-0.621-1.21,0.317-1.11,0.795c0.647,3.084-0.218,6.206-0.675,9.277c-0.437,2.934-1.09,5.82-1.941,8.661
					c-1.699,5.672-4.066,11.11-6.362,16.558c-4.387,10.415-8.995,21.978-6.848,33.484C42.303,86.478,43.341,85.664,43.316,85.239
					L43.316,85.239z"/>
			</g>
		</g>
		<g>
			<g>
				<path d="M41.253,79.335c-3.734-9.159-5.192-19.022-5.245-28.872c-0.027-4.937,0.386-9.855,1.03-14.747
					c0.658-4.999,1.71-9.899,2.037-14.94c-0.379,0.226-0.757,0.452-1.136,0.678c2.381,5.657,4.705,11.358,6.592,17.201
					c0.972,3.008,1.844,6.107,2.347,9.231c0.475,2.951,0.073,6.034,0.932,8.917c0.165,0.554,1.216-0.257,1.062-0.76
					c-0.46-1.496-0.523-3.032-0.59-4.584c-0.064-1.504-0.279-3.013-0.455-4.507c-0.355-3.019-0.894-5.985-1.718-8.916
					c-1.699-6.044-4.455-11.695-7.055-17.381c-0.282-0.616-1.114,0.293-1.136,0.678c-0.289,5.11-1.319,10.099-1.946,15.171
					c-0.61,4.936-0.945,9.918-1.008,14.891c-0.123,9.735,1.149,19.734,5.377,28.595C40.568,80.465,41.419,79.742,41.253,79.335
					L41.253,79.335z"/>
			</g>
		</g>
		<g>
			<g>
				<path d="M42.099,80.141c-2.528-1.535-5.09-3.003-7.477-4.758c-2.28-1.676-4.405-3.562-6.396-5.571
					c-4.071-4.108-7.479-8.841-10.424-13.806C11.865,45.997,7.712,34.96,3.968,23.979c-0.974-2.857-1.956-5.714-2.888-8.585
					c-0.303,0.303-0.605,0.605-0.908,0.908c5.058,2.413,9.128,6.506,12.667,10.765c3.796,4.569,7.03,9.58,10.222,14.58
					c3.752,5.878,7.402,11.762,10.423,18.059c1.606,3.347,3.02,6.784,4.219,10.296c1.173,3.438,2.112,6.953,3.35,10.368
					c0.269,0.741,1.578-0.36,1.388-0.994c-2.123-7.064-4.296-14.035-7.555-20.674c-3.107-6.332-6.959-12.198-10.755-18.125
					c-3.201-4.998-6.463-9.972-10.246-14.555c-3.577-4.333-7.75-8.476-12.954-10.778c-0.42-0.186-1.052,0.504-0.908,0.908
					C7.54,37.271,13.968,61.166,32.484,75.61c2.754,2.148,5.744,4.115,9.014,5.368C41.873,81.122,42.518,80.396,42.099,80.141
					L42.099,80.141z"/>
			</g>
		</g>
		<g>
			<g>
				<path d="M35.306,59.026c-0.958-4.789-3.663-9.132-5.844-13.449c-2.321-4.593-4.062-9.342-5.345-14.326
					c-1.319-5.126-2.02-10.438-1.71-15.731c0.157-2.687,0.678-5.333,1.124-7.983c0.191-1.136,0.421-2.263,0.709-3.379
					c0.165-0.637,0.372-1.263,0.605-1.879c0.102-0.26,0.212-0.517,0.33-0.771c0.06-0.125,0.121-0.25,0.181-0.375
					c0.299-0.46,0.258-0.491-0.125-0.094c-0.18-0.035-0.361-0.069-0.542-0.104c0.06,0.259,0.044,0.524,0.128,0.783
					c0.163,0.499,0.941-0.227,0.93-0.554c-0.011-0.341,0.091-0.658,0.013-0.995c-0.056-0.241-0.391-0.173-0.542-0.104
					c-0.651,0.3-0.921,1.216-1.187,1.813c-0.48,1.081-0.797,2.235-1.073,3.383c-0.617,2.572-1.017,5.259-1.375,7.879
					c-0.741,5.422-0.385,10.929,0.676,16.281c1.095,5.518,2.864,10.859,5.346,15.903c1.147,2.333,2.388,4.618,3.55,6.943
					c1.203,2.407,2.238,4.889,3.34,7.339C34.7,60.06,35.375,59.372,35.306,59.026L35.306,59.026z"/>
			</g>
		</g>
		<g>
			<g>
				<path d="M0.962,16.71C3.928,22.076,6.699,27.5,9.263,33.071c2.553,5.548,5.008,11.143,7.732,16.61
					c5.552,11.146,12.693,21.396,22.176,29.576c0.146,0.126,0.467-0.206,0.326-0.326c-9.624-8.213-16.675-18.666-22.277-29.904
					C11.848,38.253,7.727,26.69,1.297,16.47C1.194,16.305,0.884,16.569,0.962,16.71L0.962,16.71z"/>
			</g>
		</g>
		<g>
			<g>
				<path d="M1.471,16.564c8.076,9.388,16.419,18.478,22.988,29.037c3.2,5.145,6.097,10.474,8.63,15.978
					c2.631,5.718,4.652,11.642,6.646,17.604c0.082,0.244,0.538-0.116,0.466-0.334c-1.976-5.957-4.078-11.855-6.701-17.563
					c-2.529-5.503-5.467-10.814-8.652-15.962C18.35,34.824,10.19,25.265,1.737,16.299C1.631,16.188,1.37,16.446,1.471,16.564
					L1.471,16.564z"/>
			</g>
		</g>
		<g>
			<g>
				<path d="M1.452,16.541c2.032,4.703,5.856,8.583,8.821,12.705c3.932,5.468,7.934,10.893,11.393,16.679
					c3.401,5.689,6.749,11.437,9.901,17.269c1.574,2.911,3.021,5.876,4.421,8.873c1.344,2.875,2.957,5.614,4.098,8.582
					c0.096,0.249,0.559-0.123,0.475-0.34c-1.146-2.961-2.744-5.709-4.132-8.557c-1.449-2.973-2.876-5.944-4.443-8.858
					c-3.141-5.84-6.528-11.56-9.905-17.266c-3.285-5.55-7.117-10.754-10.888-15.979c-3.147-4.36-7.07-8.465-9.435-13.327
					C1.679,16.165,1.394,16.406,1.452,16.541L1.452,16.541z"/>
			</g>
		</g>
		<g>
			<g>
				<path d="M0.992,15.503c1.814,5.648,5.197,10.568,8.618,15.351c1.783,2.493,3.598,4.962,5.294,7.516
					c1.906,2.868,3.519,5.907,5.116,8.955c3.144,6.001,6.101,12.1,9.473,17.979c1.546,2.694,3.232,5.296,4.923,7.899
					c1.694,2.606,3.457,5.229,5.768,7.335c0.188,0.172,0.618-0.267,0.434-0.434c-2.215-2.011-3.917-4.492-5.555-6.976
					c-1.852-2.808-3.664-5.637-5.344-8.551c-3.383-5.867-6.335-11.971-9.503-17.955c-2.877-5.437-6.188-10.43-9.79-15.41
					c-3.583-4.954-7.209-10.054-9.158-15.908C1.22,15.159,0.951,15.374,0.992,15.503L0.992,15.503z"/>
			</g>
		</g>
		<g>
			<g>
				<path d="M58.777,20.255c0.95,5.229,1.267,10.412,0.742,15.708c-0.535,5.395-1.913,10.684-3.695,15.792
					c-1.792,5.133-4.091,10.078-6.625,14.882c-1.246,2.36-2.525,4.719-3.91,7.001c-1.148,1.892-2.347,3.713-2.923,5.877
					c-0.095,0.355,0.436,0.101,0.497-0.125c0.673-2.484,2.19-4.528,3.455-6.73c1.287-2.238,2.539-4.498,3.727-6.791
					c2.449-4.731,4.618-9.615,6.375-14.646c3.425-9.807,5.356-20.994,2.72-31.228C59.09,19.798,58.748,20.091,58.777,20.255
					L58.777,20.255z"/>
			</g>
		</g>
		<g>
			<g>
				<path d="M43.163,79.367c7.807-7.903,15.582-16.611,17.859-27.808c1.285-6.319,1.349-12.845,0.809-19.25
					c-0.215-2.549-0.281-5.113-0.549-7.657c-0.229-2.167-0.67-4.411-2.012-6.181c-0.104-0.137-0.406,0.157-0.304,0.304
					c2.659,3.818,2.134,9.278,2.512,13.705c0.531,6.234,0.409,12.551-0.735,18.712c-2.125,11.444-10.111,19.78-17.725,28.029
					C42.876,79.374,43.015,79.517,43.163,79.367L43.163,79.367z"/>
			</g>
		</g>
		<g>
			<g>
				<path d="M59.706,20.451c1.776,6.135,3.088,12.307,3.556,18.688c0.434,5.927,0.426,12.274-1.117,18.049
					c-1.31,4.902-4.213,9.04-7.81,12.544c-1.863,1.814-3.923,3.377-5.924,5.029c-2.078,1.716-4.263,4.246-7.17,4.267
					c-0.228,0.001-0.598,0.503-0.256,0.531c2.328,0.194,4.368-1.677,6.007-3.082c2.086-1.788,4.269-3.458,6.316-5.291
					c3.732-3.342,6.972-7.337,8.662-12.105c2.103-5.931,2.14-12.598,1.814-18.811c-0.354-6.73-1.481-13.66-3.833-19.994
					C59.902,20.143,59.674,20.339,59.706,20.451L59.706,20.451z"/>
			</g>
		</g>
		<g>
			<g>
				<path d="M58.551,19.496c0.202,5.227-0.022,10.466-0.828,15.638c-0.853,5.473-2.656,10.462-4.889,15.507
					c-2.198,4.966-4.458,9.906-6.206,15.055c-0.887,2.612-1.626,5.284-2.343,7.947c-0.737,2.736-1.488,5.543-1.856,8.356
					c-0.045,0.343,0.399,0.085,0.45-0.113c1.399-5.454,2.455-10.944,4.222-16.309c1.78-5.402,4.209-10.561,6.496-15.759
					c2.116-4.81,3.705-9.586,4.543-14.789c0.834-5.177,1.06-10.466,0.752-15.698C58.88,19.117,58.545,19.343,58.551,19.496
					L58.551,19.496z"/>
			</g>
		</g>
		<g>
			<g>
				<path d="M38.716,22.153c0.691,9.604,1.86,19.143,0.686,28.764c-0.588,4.822-0.858,9.662-0.733,14.519
					c0.118,4.604,0.75,9.036,1.759,13.522c0.058,0.259,0.554-0.118,0.5-0.357c-1.039-4.615-1.633-9.166-1.755-13.897
					c-0.125-4.859,0.215-9.701,0.803-14.521c1.141-9.362,0.145-18.894-0.858-28.223C39.091,21.705,38.703,21.973,38.716,22.153
					L38.716,22.153z"/>
			</g>
		</g>
		<g>
			<g>
				<path d="M38.795,22.291c1.943,4.629,3.155,9.375,3.524,14.389c0.352,4.773-0.032,9.572-0.504,14.322
					c-0.469,4.708-1.045,9.406-1.255,14.136c-0.104,2.328-0.128,4.655,0.142,6.972c0.272,2.344,0.712,4.664,0.584,7.033
					c-0.017,0.321,0.508-0.023,0.525-0.252c0.168-2.211-0.248-4.424-0.534-6.608c-0.322-2.459-0.296-4.919-0.2-7.393
					c0.188-4.873,0.807-9.717,1.285-14.566c0.938-9.523,1.136-19.482-3.243-28.264C39.035,21.892,38.735,22.147,38.795,22.291
					L38.795,22.291z"/>
			</g>
		</g>
		<g>
			<g>
				<path d="M39.362,23.94c2.817,8.866,6.166,17.631,5.485,27.102c-0.343,4.771-1.465,9.449-2.196,14.166
					c-0.709,4.575-0.379,9.089-0.631,13.687c-0.017,0.297,0.46-0.025,0.479-0.23c0.22-2.338,0.081-4.689,0.073-7.033
					c-0.009-2.513,0.319-4.989,0.708-7.468c0.722-4.601,1.736-9.15,2.053-13.806c0.628-9.22-2.681-18.076-5.677-26.627
					C39.603,23.573,39.319,23.805,39.362,23.94L39.362,23.94z"/>
			</g>
		</g>
		<g>
			<g>
				<path d="M38.052,22.403c1.856,8.608,0.209,17.19-0.794,25.787c-0.491,4.208-0.709,8.427-0.281,12.65
					c0.427,4.203,1.588,8.377,2.341,12.532c0.034,0.186,0.365-0.081,0.36-0.215c-0.148-4.234-1.728-8.346-2.228-12.545
					c-0.518-4.352-0.186-8.757,0.317-13.092c0.976-8.42,2.676-16.941,0.592-25.337C38.319,22.021,38.021,22.259,38.052,22.403
					L38.052,22.403z"/>
			</g>
		</g>
		<g>
			<g>
				<path d="M24.044,1.699c-1.819,9.333-0.555,19.037,1.435,28.235c2.125,9.823,5.347,19.361,8.327,28.945
					c0.067,0.216,0.439-0.104,0.397-0.284c-1.118-4.817-2.944-9.491-4.36-14.228c-1.374-4.594-2.649-9.217-3.707-13.895
					c-2.134-9.434-3.35-19.249-1.743-28.862C24.437,1.352,24.076,1.536,24.044,1.699L24.044,1.699z"/>
			</g>
		</g>
		<g>
			<g>
				<path d="M24.64,1.145c-0.956,9.433,0.263,18.937,2.124,28.186c1.959,9.743,4.697,19.332,7.723,28.792
					c0.067,0.209,0.419-0.102,0.382-0.273c-1.045-4.735-2.804-9.341-4.078-14.023c-1.254-4.609-2.412-9.246-3.395-13.921
					c-1.992-9.473-3.238-19.242-2.411-28.926C25.002,0.771,24.655,0.995,24.64,1.145L24.64,1.145z"/>
			</g>
		</g>
		<g>
			<g>
				<path d="M12.683,41.124c0.388,2.359,1.555,4.481,2.628,6.589c0.601,1.181,1.302,2.31,1.979,3.448
					c0.589,0.99,1.142,2.075,1.882,2.957c0.311,0.37,1.011-0.398,0.889-0.755c-0.726-2.124-2.227-4.169-3.381-6.087
					c-1.277-2.124-2.2-4.362-3.257-6.593C13.25,40.319,12.636,40.838,12.683,41.124L12.683,41.124z"/>
			</g>
		</g>
		<g>
			<g>
				<path d="M22.693,53.044c0.521,2.426,2.212,4.351,3.366,6.495c0.257,0.478,1.067-0.25,0.922-0.66
					c-0.817-2.313-2.954-3.884-3.692-6.261C23.188,52.292,22.636,52.777,22.693,53.044L22.693,53.044z"/>
			</g>
		</g>
		<g>
			<g>
				<path d="M23.506,19.99c0.204,0.985,0.347,1.983,0.468,2.982c0.078,0.641,0.009,1.522,0.464,2.016
					c0.233,0.253,0.643-0.219,0.697-0.42c0.213-0.779-0.024-1.665-0.124-2.458c-0.12-0.952-0.272-1.878-0.565-2.793
					C24.281,18.798,23.42,19.572,23.506,19.99L23.506,19.99z"/>
			</g>
		</g>
		<g>
			<g>
				<path d="M42.158,44.313c-0.114,3.228-0.498,6.511-1.002,9.7c-0.171,1.082,1.351,0.23,1.428-0.524
					c0.328-3.221,0.59-6.333,0.405-9.575C42.958,43.378,42.17,43.962,42.158,44.313L42.158,44.313z"/>
			</g>
		</g>
		<g>
			<g>
				<path d="M39.453,37.232c0.081,0.803,0.101,1.612,0.171,2.417c0.063,0.722,1.217-0.03,1.16-0.558
					c-0.089-0.825-0.125-1.633-0.373-2.43C40.256,36.164,39.417,36.876,39.453,37.232L39.453,37.232z"/>
			</g>
		</g>
		<g>
			<g>
				<path d="M58.521,41.753c-0.317,1.016-0.607,2.038-0.905,3.06c-0.302,1.035-0.732,2.085-0.824,3.162
					c-0.053,0.612,0.853,0.001,0.961-0.24c0.845-1.877,1.316-4.178,1.658-6.204C59.527,40.846,58.636,41.385,58.521,41.753
					L58.521,41.753z"/>
			</g>
		</g>
		<g>
			<g>
				<path d="M60.832,48.541c-0.13,1.16-0.324,2.324-0.53,3.473c-0.135,0.75-0.479,1.547-0.343,2.305
					c0.09,0.506,0.831-0.188,0.916-0.337c0.399-0.705,0.434-1.578,0.529-2.373c0.138-1.149,0.19-2.269,0.172-3.425
					C61.568,47.694,60.864,48.248,60.832,48.541L60.832,48.541z"/>
			</g>
		</g>
	</g>
</g>
<g id="DESIGNED_BY_FREEPIK">
</g>
</svg>
