<?xml version="1.0" encoding="utf-8"?>
<!-- Generator: Adobe Illustrator 16.0.0, SVG Export Plug-In . SVG Version: 6.00 Build 0)  -->
<!DOCTYPE svg PUBLIC "-//W3C//DTD SVG 1.1//EN" "http://www.w3.org/Graphics/SVG/1.1/DTD/svg11.dtd">
<svg version="1.1" xmlns="http://www.w3.org/2000/svg" xmlns:xlink="http://www.w3.org/1999/xlink" x="0px" y="0px"
	 width="72.707px" height="62.595px" viewBox="0 0 72.707 62.595" enable-background="new 0 0 72.707 62.595" xml:space="preserve">
<g id="BACKGROUND">
</g>
<g id="OBJECTS">
	<g>
		<g>
			<g>
				<path d="M6.659,59.412c6.439-1.175,12.232-4.283,17.479-8.106c2.727-1.986,5.225-4.227,7.799-6.398
					c2.594-2.188,5.263-4.283,7.895-6.424c5.139-4.179,10.156-8.593,14.258-13.82c2.062-2.628,3.85-5.435,5.138-8.521
					c1.342-3.217,2.296-6.578,3.921-9.676c0.3-0.573,0.641-1.121,0.994-1.662c0.508-0.775-0.436-0.909-0.832-0.309
					c-1.819,2.759-2.946,5.832-4.083,8.914c-1.236,3.351-2.73,6.4-4.816,9.31c-3.924,5.471-9.137,9.917-14.385,14.064
					c-2.545,2.012-5.104,4.005-7.646,6.019c-2.636,2.089-5.152,4.319-7.831,6.356c-5.293,4.022-11.085,6.979-17.508,8.726
					C6.377,58.064,5.508,59.622,6.659,59.412L6.659,59.412z"/>
			</g>
		</g>
		<g>
			<g>
				<path d="M63.692,4.024c-0.813,0.374-1.501,0.992-2.229,1.507c-0.937,0.662-1.913,1.266-2.89,1.866
					c-1.896,1.167-3.842,2.25-5.747,3.401c-3.683,2.228-6.957,4.81-9.66,8.176c-2.771,3.45-4.934,7.42-6.838,11.398
					c-0.874,1.827-1.702,3.694-2.397,5.597c-0.922,2.525-1.373,5.178-2.058,7.771c-0.275,1.044,1.271,0.289,1.453-0.363
					c0.642-2.31,1.103-4.666,1.854-6.945c0.642-1.945,1.524-3.837,2.39-5.691c1.861-3.987,4.049-7.851,6.736-11.343
					c2.594-3.371,5.974-5.791,9.576-7.98c1.79-1.087,3.609-2.124,5.387-3.232c1.599-0.998,3.622-2.12,4.728-3.685
					C64.201,4.212,64.081,3.845,63.692,4.024L63.692,4.024z"/>
			</g>
		</g>
		<g>
			<g>
				<path d="M63.779,4.803c0.315,4.417,0.204,8.787-0.97,13.083c-1.104,4.035-3.184,7.793-5.966,10.911
					c-2.81,3.15-6.339,5.555-10.16,7.31c-4.527,2.079-9.701,2.512-13.464,6.047c-0.927,0.87-0.039,1.734,0.881,0.88
					c2.137-1.986,4.91-2.733,7.642-3.53c2.244-0.655,4.422-1.525,6.509-2.581c3.953-1.999,7.438-4.78,10.302-8.154
					c5.662-6.675,8.03-16.062,6.347-24.633C64.787,3.565,63.749,4.376,63.779,4.803L63.779,4.803z"/>
			</g>
		</g>
		<g>
			<g>
				<path d="M38.565,39.487c0.491-1.436,0.769-2.944,1.242-4.391c0.481-1.468,1.048-2.905,1.444-4.4
					c0.372-1.404,0.547-2.757,0.668-4.196c0.141-1.693-0.26-3.396-0.002-5.077c0.092-0.599-0.74-0.178-0.807,0.201
					c-0.262,1.485,0.02,2.973-0.053,4.469c-0.08,1.675-0.676,3.387-1.229,4.959c-0.518,1.469-1.038,2.935-1.512,4.418
					c-0.433,1.353-1.019,2.963-0.799,4.401C37.625,40.569,38.454,39.812,38.565,39.487L38.565,39.487z"/>
			</g>
		</g>
		<g>
			<g>
				<path d="M49.896,28.952c1.611-4.643,2.724-11.194-0.864-15.189c-0.22-0.244-0.761,0.302-0.564,0.563
					c3.225,4.272,1.603,10.055,0.698,14.809C49.057,29.701,49.795,29.243,49.896,28.952L49.896,28.952z"/>
			</g>
		</g>
		<g>
			<g>
				<path d="M57.951,18.067c0.914-3.051-0.668-5.75-1.038-8.745c-0.059-0.472-0.742,0.034-0.734,0.353
					c0.067,2.903,1.683,5.638,1.032,8.578C57.088,18.806,57.856,18.384,57.951,18.067L57.951,18.067z"/>
			</g>
		</g>
		<g>
			<g>
				<path d="M57.673,18.073c2.1-0.258,3.762-0.707,5.84,0.002c0.4,0.137,1.097-0.626,0.641-0.894
					c-1.989-1.167-4.305-0.639-6.308,0.202C57.665,17.46,57.245,18.126,57.673,18.073L57.673,18.073z"/>
			</g>
		</g>
		<g>
			<g>
				<path d="M49.984,29.137c2.084-0.197,4.284-0.01,6.189,0.897c0.378,0.18,1.05-0.605,0.621-0.866
					c-2.083-1.262-4.123-1.428-6.479-0.936C49.995,28.299,49.438,29.188,49.984,29.137L49.984,29.137z"/>
			</g>
		</g>
		<g>
			<g>
				<path d="M36.766,39.708c0.172-1.959,0.439-3.878,0.795-5.812c0.325-1.763,0.868-3.51,1.092-5.286
					c0.023-0.183-0.204-0.04-0.234,0.059c-1.082,3.543-2.036,7.517-2.064,11.237C36.352,40.17,36.751,39.878,36.766,39.708
					L36.766,39.708z"/>
			</g>
		</g>
		<g>
			<g>
				<path d="M35.74,32.314c0.167,2.793-1.023,5.533,0.111,8.24c0.062,0.149,0.34-0.076,0.285-0.204
					c-1.127-2.685,0.174-5.4-0.109-8.174C36.009,31.996,35.732,32.188,35.74,32.314L35.74,32.314z"/>
			</g>
		</g>
		<g>
			<g>
				<path d="M40.32,37.263c1.045-2.727,2.432-5.38,3.032-8.255c0.271-1.296,0.389-2.615,0.278-3.935
					c-0.134-1.6-0.51-3.127-0.442-4.746c0.007-0.186-0.301,0.01-0.307,0.147c-0.054,1.304,0.198,2.571,0.405,3.853
					c0.263,1.625,0.193,3.163-0.237,4.757c-0.761,2.818-1.995,5.45-3.019,8.175C39.939,37.504,40.258,37.424,40.32,37.263
					L40.32,37.263z"/>
			</g>
		</g>
		<g>
			<g>
				<path d="M42.541,35.229c0.914-2.752,2.055-5.431,2.495-8.313c0.462-3.027-0.253-6.138-0.106-9.188
					c0.008-0.168-0.276,0.008-0.281,0.135c-0.112,3.044,0.464,6.113,0.043,9.14c-0.397,2.855-1.641,5.547-2.441,8.3
					C42.189,35.511,42.5,35.353,42.541,35.229L42.541,35.229z"/>
			</g>
		</g>
		<g>
			<g>
				<path d="M45.086,32.575c0.944-2.326,1.646-4.677,1.714-7.201c0.08-2.938-1.166-5.699-1.145-8.604
					c0.002-0.185-0.298,0.009-0.299,0.144c-0.036,2.642,0.909,5.221,1.024,7.869c0.117,2.712-0.611,5.291-1.598,7.789
					C44.683,32.826,45.018,32.742,45.086,32.575L45.086,32.575z"/>
			</g>
		</g>
		<g>
			<g>
				<path d="M47.309,31.231c1.039-4.567,0.856-9.763-0.893-14.146c-0.057-0.14-0.298,0.068-0.262,0.187
					c1.429,4.567,1.925,9.312,0.889,14.025C47,31.491,47.28,31.354,47.309,31.231L47.309,31.231z"/>
			</g>
		</g>
		<g>
			<g>
				<path d="M47.423,15.262c0.858,2.276,1.483,4.601,1.693,7.031c0.215,2.48-0.117,4.948-0.559,7.384
					c-0.044,0.24,0.294,0.069,0.324-0.081c1.05-5.059,0.757-9.734-1.16-14.548C47.659,14.892,47.372,15.126,47.423,15.262
					L47.423,15.262z"/>
			</g>
		</g>
		<g>
			<g>
				<path d="M50.439,13.104c0.448,1.971,1.456,3.728,1.963,5.675c0.616,2.368,0.18,5.448-1.06,7.529
					c-0.119,0.201,0.169,0.156,0.253,0.044c1.338-1.772,1.568-4.613,1.396-6.756c-0.191-2.362-1.622-4.46-2.241-6.715
					C50.704,12.715,50.407,12.959,50.439,13.104L50.439,13.104z"/>
			</g>
		</g>
		<g>
			<g>
				<path d="M52.354,12.567c1.155,3.602,2.439,7.515,1.221,11.278c-0.068,0.211,0.256,0.054,0.301-0.075
					c1.275-3.703,0.281-7.918-1.232-11.41C52.575,12.206,52.312,12.438,52.354,12.567L52.354,12.567z"/>
			</g>
		</g>
		<g>
			<g>
				<path d="M53.964,11.036c1.421,3.168,2.146,6.61,1.475,10.06c-0.045,0.229,0.283,0.068,0.312-0.078
					c0.697-3.513-0.021-6.969-1.502-10.186C54.181,10.684,53.907,10.909,53.964,11.036L53.964,11.036z"/>
			</g>
		</g>
		<g>
			<g>
				<path d="M57.54,9.146c0.762,1.796,1.126,3.573,1.173,5.522c0.005,0.187,0.282-0.02,0.291-0.14
					c0.127-1.94-0.426-3.809-1.216-5.561C57.729,8.839,57.493,9.035,57.54,9.146L57.54,9.146z"/>
			</g>
		</g>
		<g>
			<g>
				<path d="M58.793,8.407c0.508,1.488,0.564,2.901,0.672,4.447c0.01,0.15,0.229-0.001,0.241-0.089
					c0.222-1.527-0.123-3.122-0.634-4.559C59.02,8.061,58.749,8.278,58.793,8.407L58.793,8.407z"/>
			</g>
		</g>
		<g>
			<g>
				<path d="M60.012,7.52c0.014,1.116,0.065,2.243,0.119,3.357c0.008,0.17,0.26,0.001,0.273-0.1c0.141-1.114-0.096-2.263-0.139-3.38
					C60.26,7.237,60.01,7.406,60.012,7.52L60.012,7.52z"/>
			</g>
		</g>
		<g>
			<g>
				<path d="M60.96,7.249c-0.018,0.434-0.017,0.868-0.015,1.302c0.002,0.354-0.039,0.794,0.148,1.105
					c0.07,0.116,0.232-0.036,0.253-0.122c0.09-0.388,0.023-0.786,0.01-1.182c-0.015-0.426-0.014-0.852-0.035-1.277
					C61.31,6.843,60.967,7.097,60.96,7.249L60.96,7.249z"/>
			</g>
		</g>
		<g>
			<g>
				<path d="M60.844,9.854c1.229-0.505,2.512-1.034,3.686-1.657c0.095-0.05,0.248-0.35,0.035-0.285
					c-1.289,0.387-2.618,1.022-3.757,1.736C60.702,9.713,60.671,9.924,60.844,9.854L60.844,9.854z"/>
			</g>
		</g>
		<g>
			<g>
				<path d="M60.969,10.949c1.15,0.093,2.719,0.034,3.755-0.523c0.06-0.032,0.205-0.215,0.058-0.227
					c-0.473-0.04-0.975,0.156-1.438,0.246c-0.737,0.142-1.486,0.23-2.236,0.217C60.981,10.66,60.787,10.934,60.969,10.949
					L60.969,10.949z"/>
			</g>
		</g>
		<g>
			<g>
				<path d="M60.169,12.716c1.589,0.227,3.184-0.118,4.779-0.059c0.126,0.004,0.321-0.265,0.139-0.287
					c-1.604-0.194-3.192,0.278-4.799,0.098C60.177,12.455,60.013,12.693,60.169,12.716L60.169,12.716z"/>
			</g>
		</g>
		<g>
			<g>
				<path d="M59.926,14.37c1.629-0.265,3.096-0.112,4.707,0.168c0.1,0.017,0.285-0.215,0.154-0.26c-1.554-0.53-3.2-0.47-4.795-0.171
					C59.869,14.13,59.731,14.401,59.926,14.37L59.926,14.37z"/>
			</g>
		</g>
		<g>
			<g>
				<path d="M59.393,16.055c1.454-0.423,2.7,0.13,4.137,0.087c0.067-0.002,0.228-0.155,0.119-0.199
					c-1.248-0.504-2.906-0.559-4.186-0.169C59.338,15.812,59.192,16.113,59.393,16.055L59.393,16.055z"/>
			</g>
		</g>
		<g>
			<g>
				<path d="M56.189,20.789c1.983-0.855,4.158-1.121,6.298-1.016c0.086,0.004,0.263-0.205,0.14-0.234
					c-2.045-0.486-4.576,0.157-6.439,1.019C56.063,20.614,55.995,20.873,56.189,20.789L56.189,20.789z"/>
			</g>
		</g>
		<g>
			<g>
				<path d="M55.402,21.928c2.243-0.597,4.344-0.583,6.57,0.065c0.125,0.037,0.351-0.219,0.199-0.279
					c-2.157-0.869-4.505-0.683-6.701-0.062C55.348,21.688,55.204,21.979,55.402,21.928L55.402,21.928z"/>
			</g>
		</g>
		<g>
			<g>
				<path d="M54.554,23.101c1.206-0.373,2.457-0.491,3.716-0.483c1.403,0.009,2.397,0.444,3.617,1.028
					c0.096,0.046,0.234-0.124,0.177-0.208c-0.653-0.969-2.232-1.098-3.298-1.166c-1.379-0.088-2.84,0.134-4.147,0.569
					C54.507,22.879,54.369,23.157,54.554,23.101L54.554,23.101z"/>
			</g>
		</g>
		<g>
			<g>
				<path d="M54.154,24.559c2.087-0.263,4.732,0.006,6.433,1.319c0.127,0.099,0.38-0.15,0.275-0.276
					c-1.334-1.604-4.78-1.6-6.638-1.321C54.093,24.301,53.947,24.585,54.154,24.559L54.154,24.559z"/>
			</g>
		</g>
		<g>
			<g>
				<path d="M53.016,25.183c2.238,0.485,4.354,0.726,6.26,2.099c0.113,0.082,0.339-0.134,0.242-0.243
					c-1.489-1.693-4.241-1.739-6.299-2.138C53.085,24.875,52.868,25.151,53.016,25.183L53.016,25.183z"/>
			</g>
		</g>
		<g>
			<g>
				<path d="M52.742,26.062c1.048,0.196,2.079,0.433,3.098,0.75c1.168,0.364,2.161,0.998,3.26,1.503
					c0.076,0.035,0.22-0.113,0.155-0.182c-1.502-1.574-4.266-1.997-6.31-2.354C52.811,25.756,52.597,26.035,52.742,26.062
					L52.742,26.062z"/>
			</g>
		</g>
		<g>
			<g>
				<path d="M51.995,27.173c0.966,0.327,1.943,0.619,2.915,0.927c1.092,0.345,2.122,0.865,3.209,1.201
					c0.074,0.023,0.24-0.124,0.16-0.188c-1.629-1.276-4.156-1.587-6.091-2.211C52.063,26.862,51.853,27.124,51.995,27.173
					L51.995,27.173z"/>
			</g>
		</g>
		<g>
			<g>
				<path d="M39.607,37.735c2.767-0.112,5.559-0.603,8.191-1.467c0.141-0.047,0.348-0.398,0.086-0.344
					c-2.726,0.567-5.332,1.305-8.129,1.501C39.622,37.436,39.416,37.743,39.607,37.735L39.607,37.735z"/>
			</g>
		</g>
		<g>
			<g>
				<path d="M41.74,36.145c1.65,0.122,3.278-0.211,4.868-0.625c1.738-0.452,3.562-0.954,5.224-1.639
					c0.046-0.019,0.15-0.184,0.043-0.172c-1.462,0.154-2.908,0.752-4.315,1.166c-1.873,0.551-3.724,0.854-5.673,0.967
					C41.762,35.849,41.542,36.13,41.74,36.145L41.74,36.145z"/>
			</g>
		</g>
		<g>
			<g>
				<path d="M44.608,33.927c3.247,0.371,6.921-0.871,9.886-2.082c0.097-0.039,0.197-0.297,0.03-0.241
					c-3.236,1.089-6.362,1.895-9.789,2.06C44.627,33.668,44.435,33.907,44.608,33.927L44.608,33.927z"/>
			</g>
		</g>
		<g>
			<g>
				<path d="M46.881,32.099c3.132,0.389,6.746-0.083,9.639-1.364c0.111-0.049,0.175-0.271-0.002-0.206
					c-2.971,1.105-6.36,1.604-9.523,1.335C46.889,31.854,46.732,32.08,46.881,32.099L46.881,32.099z"/>
			</g>
		</g>
		<g>
			<g>
				<path d="M48.31,30.819c2.955,0.712,6.206,0.608,9.097-0.373c0.103-0.035,0.265-0.287,0.064-0.256
					c-3.084,0.482-5.841,1.008-8.958,0.347C48.38,30.509,48.161,30.783,48.31,30.819L48.31,30.819z"/>
			</g>
		</g>
		<g>
			<g>
				<path d="M48.959,30.301c2.508-0.099,5.012,0.585,7.507,0.396c0.117-0.009,0.337-0.266,0.141-0.293
					c-2.428-0.338-5.035-0.585-7.485-0.441C48.973,29.971,48.751,30.309,48.959,30.301L48.959,30.301z"/>
			</g>
		</g>
	</g>
</g>
<g id="DESIGNED_BY_FREEPIK">
</g>
</svg>
