<?xml version="1.0" encoding="utf-8"?>
<!-- Generator: Adobe Illustrator 16.0.0, SVG Export Plug-In . SVG Version: 6.00 Build 0)  -->
<!DOCTYPE svg PUBLIC "-//W3C//DTD SVG 1.1//EN" "http://www.w3.org/Graphics/SVG/1.1/DTD/svg11.dtd">
<svg version="1.1" xmlns="http://www.w3.org/2000/svg" xmlns:xlink="http://www.w3.org/1999/xlink" x="0px" y="0px" width="58.81px"
	 height="110.59px" viewBox="0 0 58.81 110.59" enable-background="new 0 0 58.81 110.59" xml:space="preserve">
<g id="BACKGROUND">
</g>
<g id="OBJECTS">
	<g>
		<g>
			<g>
				<path d="M25.093,106.037c0.715-6.221,1.092-12.441,1.537-18.686c0.518-7.28,1.312-14.443,2.709-21.615
					c1.439-7.389,3.271-14.702,5.129-21.994c1.613-6.328,1.949-13.13,4.945-19.033c0.41-0.806-0.738-0.541-1-0.013
					c-2.85,5.742-3.449,12.288-5.014,18.432c-1.891,7.429-3.705,14.874-5.115,22.412c-1.336,7.149-2.098,14.359-2.883,21.585
					c-0.713,6.549-1.512,13.059-1.826,19.642C23.53,107.722,25.021,106.661,25.093,106.037L25.093,106.037z"/>
			</g>
		</g>
		<g>
			<g>
				<path d="M26.159,97.177c0.865-5.468,3.547-10.184,6.885-14.536c3.379-4.403,7.711-8.477,12.516-11.285
					c-0.172-0.111-0.344-0.224-0.518-0.335c-0.846,5.303-3.652,10.007-6.939,14.16c-1.721,2.173-3.652,4.18-5.662,6.084
					c-2.064,1.954-4.311,4.095-6.814,5.463c-0.764,0.417-0.832,1.69,0.186,1.061c4.916-3.046,9.246-7.512,12.871-11.976
					c3.523-4.338,6.562-9.441,7.383-15.048c0.049-0.327-0.215-0.514-0.518-0.334c-5.018,2.976-9.361,7.141-13.047,11.633
					c-3.465,4.225-7.369,9.789-7.408,15.505C25.087,98.229,26.097,97.562,26.159,97.177L26.159,97.177z"/>
			</g>
		</g>
		<g>
			<g>
				<path d="M25.589,93.624c0.59-3.075-0.471-6.475-1.242-9.437c-0.764-2.927-1.494-5.86-2.666-8.655
					c-1.033-2.46-2.436-4.771-4.105-6.85c-0.756-0.942-1.619-1.679-2.611-2.359c-1.098-0.754-2.322-1.502-2.879-2.768
					c-0.184-0.415-0.891,0.178-0.836,0.498c0.486,2.851,1.475,5.557,2.469,8.262c1.064,2.9,1.99,5.83,3.205,8.674
					c1.129,2.641,1.662,5.706,3.225,8.134c1.088,1.688,2.568,3.808,4.713,4.093c0.457,0.062,1.094-0.946,0.479-0.995
					c-2.275-0.181-4.092-3.083-4.965-4.929c-0.541-1.139-0.875-2.377-1.254-3.574c-0.457-1.44-1.047-2.83-1.635-4.221
					c-1.082-2.562-1.906-5.214-2.879-7.818c-0.992-2.654-2.006-5.327-2.521-8.123c-0.273,0.196-0.547,0.392-0.82,0.587
					c0.916,2.106,3.381,2.927,4.904,4.51c1.971,2.046,3.123,4.777,4.176,7.371c1.08,2.662,1.773,5.398,2.506,8.168
					c0.438,1.654,0.859,3.312,1.189,4.992c0.316,1.604,0.363,3.25,0.717,4.842C24.856,94.47,25.546,93.844,25.589,93.624
					L25.589,93.624z"/>
			</g>
		</g>
		<g>
			<g>
				<path d="M28.446,68.339c1.994-3.593,3.986-7.153,6.814-10.171c2.803-2.992,6.463-5.573,10.225-7.203
					c-0.154-0.061-0.307-0.12-0.461-0.181c-0.012,0.694-0.811,1.795-1.137,2.408c-0.518,0.973-1.131,1.888-1.803,2.759
					c-1.334,1.732-2.943,3.243-4.592,4.669c-1.594,1.377-3.312,2.603-4.938,3.941c-1.506,1.24-3.227,2.279-4.561,3.713
					c-0.574,0.618-0.043,1.125,0.582,0.582c1.645-1.43,3.57-2.613,5.32-3.917c1.799-1.343,3.529-2.807,5.162-4.349
					c1.584-1.498,3.012-3.158,4.227-4.969c0.6-0.893,1.146-1.81,1.639-2.766c0.352-0.683,1.025-1.724,1.01-2.51
					c-0.004-0.261-0.277-0.266-0.459-0.18c-1.967,0.925-3.83,2.413-5.615,3.65c-1.764,1.223-3.389,2.525-4.938,4.014
					c-3.057,2.938-5.562,6.542-7.096,10.5C27.618,68.874,28.28,68.639,28.446,68.339L28.446,68.339z"/>
			</g>
		</g>
		<g>
			<g>
				<path d="M28.626,67.64c1.682-10.438-1.281-21.175-8.545-28.914c-0.291-0.311-0.766,0.308-0.783,0.564
					c-0.178,2.388,0.973,4.572,1.668,6.794c0.814,2.606,1.141,5.348,1.662,8.021c0.562,2.875,1.277,5.75,2.248,8.516
					c0.395,1.129,0.826,2.242,1.205,3.377c0.297,0.888,0.836,1.495,1.742,1.754c0.395,0.112,1.1-0.693,0.627-0.875
					c-1-0.386-1.256-1.276-1.486-2.232c-0.281-1.165-0.518-2.343-0.801-3.509c-0.645-2.662-1.49-5.291-2.314-7.903
					c-0.77-2.434-1.195-4.952-1.908-7.399c-0.666-2.289-1.961-4.498-1.799-6.949c-0.262,0.188-0.523,0.377-0.785,0.565
					c0.906,0.947,1.576,2.109,2.285,3.204c0.734,1.133,1.525,2.209,2.189,3.388c1.193,2.119,2.037,4.409,2.66,6.754
					c1.322,4.973,1.311,10.043,1.314,15.145C27.808,68.448,28.577,67.934,28.626,67.64L28.626,67.64z"/>
			</g>
		</g>
		<g>
			<g>
				<path d="M34.979,40.097c1.416-2.23,2.18-4.709,4.021-6.684c1.977-2.118,4.611-3.604,6.883-5.372
					c-0.162-0.104-0.324-0.208-0.486-0.312c-1.461,2.626-3.256,4.983-5.281,7.196c-1.764,1.928-3.629,3.93-5.641,5.602
					c-0.801,0.665-0.369,1.603,0.525,0.832c4.422-3.809,8.186-8.614,11.141-13.62c0.229-0.387-0.217-0.513-0.484-0.312
					c-2.48,1.848-5.281,3.58-7.461,5.78c-1.785,1.803-3.203,4.422-3.807,6.88C34.284,40.52,34.853,40.297,34.979,40.097
					L34.979,40.097z"/>
			</g>
		</g>
		<g>
			<g>
				<path d="M35.042,40.322c0.191-3.423-0.527-6.787-2.104-9.829c-0.764-1.474-1.715-2.855-2.709-4.181
					c-1.119-1.491-2.912-2.647-3.756-4.304c-0.176-0.345-0.699,0.149-0.684,0.407c0.188,3.204,2.68,5.765,4.201,8.426
					c0.857,1.501,1.557,3.116,2.145,4.74c0.635,1.753,0.951,3.754,1.924,5.354c0.359,0.591,1.469-0.353,1.191-0.854
					c-0.852-1.55-1.041-3.4-1.666-5.051c-0.598-1.574-1.365-3.026-2.328-4.405c-1.812-2.595-4.568-5.199-4.771-8.545
					c-0.227,0.137-0.455,0.272-0.684,0.408c0.676,1.468,1.898,2.396,2.924,3.597c1.225,1.434,2.281,3.062,3.146,4.734
					c1.605,3.104,2.143,6.428,2.396,9.874C34.306,41.201,35.024,40.641,35.042,40.322L35.042,40.322z"/>
			</g>
		</g>
		<g>
			<g>
				<path d="M39.128,24.632c0.451-1.526,0.885-2.99,1.609-4.416c0.691-1.361,1.604-2.596,2.5-3.826
					c1.721-2.36,3.039-4.982,5.545-6.648c-0.193-0.075-0.387-0.15-0.58-0.226c-1.004,2.885-2.508,5.535-4.205,8.063
					c-1.59,2.369-3.299,4.725-5.318,6.743c-0.773,0.772-0.01,1.537,0.76,0.761c4.242-4.277,7.994-9.979,9.672-15.795
					c0.115-0.399-0.355-0.409-0.58-0.225c-2.385,1.96-4.186,4.596-6.002,7.063c-1.752,2.382-4.27,5.562-3.98,8.718
					C38.583,25.229,39.075,24.812,39.128,24.632L39.128,24.632z"/>
			</g>
		</g>
		<g>
			<g>
				<path d="M28.903,67.221c2.805-2.141,4.793-5.113,7.174-7.676c1.291-1.39,2.758-2.616,4.182-3.866
					c0.646-0.569,1.303-1.137,1.9-1.757c0.783-0.812,1.436-1.726,2.447-2.279c0.182-0.099,0.279-0.511-0.004-0.355
					c-1.322,0.723-2.156,1.988-3.238,3c-1.5,1.403-3.102,2.695-4.59,4.114c-2.826,2.699-4.936,6.052-7.969,8.558
					C28.64,67.097,28.667,67.4,28.903,67.221L28.903,67.221z"/>
			</g>
		</g>
		<g>
			<g>
				<path d="M35.472,39.341c2.197-4.45,6.625-7.026,9.717-10.759c0.211-0.254-0.135-0.3-0.293-0.109
					c-3.074,3.72-7.682,6.301-9.658,10.865C35.151,39.536,35.413,39.462,35.472,39.341L35.472,39.341z"/>
			</g>
		</g>
		<g>
			<g>
				<path d="M19.909,39.811c1.502,4.36,3.416,8.563,4.846,12.958c0.713,2.193,1.336,4.415,1.865,6.66
					c0.576,2.438,0.877,4.924,1.404,7.37c0.047,0.211,0.453-0.097,0.41-0.293c-0.498-2.293-0.801-4.621-1.311-6.913
					c-0.5-2.252-1.131-4.474-1.83-6.672c-1.422-4.482-3.043-9.076-5.117-13.302C20.106,39.479,19.868,39.691,19.909,39.811
					L19.909,39.811z"/>
			</g>
		</g>
		<g>
			<g>
				<path d="M26.099,96.364c1.404-1.057,2.246-2.913,3.166-4.365c1.312-2.074,2.961-3.887,4.211-6.013
					c1.594-2.705,3.533-4.954,5.666-7.244c2.002-2.149,3.83-4.447,5.812-6.616c0.189-0.208-0.012-0.411-0.197-0.197
					c-1.836,2.101-3.619,4.265-5.502,6.323c-1.824,1.997-3.723,3.926-5.229,6.185c-0.814,1.221-1.549,2.489-2.391,3.693
					c-0.705,1.011-1.533,1.927-2.234,2.94c-1.113,1.609-1.955,3.752-3.465,5.038C25.751,96.268,25.872,96.533,26.099,96.364
					L26.099,96.364z"/>
			</g>
		</g>
		<g>
			<g>
				<path d="M12.763,65.576c2.039,4.509,3.965,9.088,6.168,13.52c1.066,2.146,2.256,4.227,3.166,6.444
					c1.002,2.445,1.439,5.083,2.789,7.394c0.129,0.22,0.527-0.122,0.438-0.313c-2.074-4.393-3.781-8.938-5.879-13.326
					c-2.197-4.595-3.898-9.485-6.371-13.94C12.985,65.196,12.7,65.439,12.763,65.576L12.763,65.576z"/>
			</g>
		</g>
	</g>
</g>
<g id="DESIGNED_BY_FREEPIK">
</g>
</svg>
