<?xml version="1.0" encoding="utf-8"?>
<!-- Generator: Adobe Illustrator 16.0.0, SVG Export Plug-In . SVG Version: 6.00 Build 0)  -->
<!DOCTYPE svg PUBLIC "-//W3C//DTD SVG 1.1//EN" "http://www.w3.org/Graphics/SVG/1.1/DTD/svg11.dtd">
<svg version="1.1" xmlns="http://www.w3.org/2000/svg" xmlns:xlink="http://www.w3.org/1999/xlink" x="0px" y="0px"
	 width="23.647px" height="40.888px" viewBox="0 0 23.647 40.888" enable-background="new 0 0 23.647 40.888" xml:space="preserve">
<g id="BACKGROUND">
</g>
<g id="OBJECTS">
	<g>
		<g>
			<g>
				<path d="M9.461,9.896c2.08,5.192,4.212,10.363,6.37,15.522c2.149,5.136,4.251,10.308,6.744,15.288
					c0.276,0.551,1.22-0.285,1.053-0.754c-1.881-5.282-4.157-10.417-6.328-15.585c-2.166-5.155-4.302-10.323-6.386-15.511
					C10.608,8.095,9.197,9.236,9.461,9.896L9.461,9.896z"/>
			</g>
		</g>
		<g>
			<g>
				<path d="M18.922,28.859c-1.916-4.107-6.684-6.247-9.511-9.634c-0.248-0.297-0.93,0.366-0.68,0.68
					c1.394,1.751,3.066,3.208,4.744,4.676c1.747,1.529,3.162,3.191,4.619,4.981C18.365,29.894,19.078,29.193,18.922,28.859
					L18.922,28.859z"/>
			</g>
		</g>
		<g>
			<path d="M0.848,28.57c-0.736,1.389-0.103,3.195,1.746,2.693c1.459-0.43,1.639-2.214,0.338-3.129
				C2.291,27.726,1.371,28.008,0.848,28.57"/>
		</g>
		<g>
			<path d="M0.299,14.274c-0.735,1.39-0.102,3.195,1.748,2.693c1.458-0.429,1.636-2.214,0.336-3.129
				C1.742,13.431,0.823,13.713,0.299,14.274"/>
		</g>
		<g>
			<path d="M13.823,0.629c-0.735,1.39-0.102,3.195,1.748,2.694c1.458-0.43,1.636-2.215,0.336-3.129
				C15.267-0.215,14.348,0.067,13.823,0.629"/>
		</g>
		<g>
			<path d="M18.977,5.726C18.24,7.116,18.874,8.92,20.723,8.42c1.46-0.43,1.639-2.215,0.338-3.129
				C20.42,4.882,19.5,5.165,18.977,5.726"/>
		</g>
		<g>
			<g>
				<path d="M12.972,14.186c0.674-1.723,1.05-3.619,1.456-5.419c0.404-1.789,0.985-3.893,0.803-5.741
					c-0.024-0.239-0.349,0.007-0.375,0.137c-0.386,1.893-0.521,3.831-0.926,5.728c-0.378,1.768-0.998,3.54-1.237,5.33
					C12.664,14.428,12.927,14.3,12.972,14.186L12.972,14.186z"/>
			</g>
		</g>
		<g>
			<g>
				<path d="M14.094,8.832c1.51-0.222,3.182-0.667,4.54-1.373c0.124-0.064,0.323-0.423,0.046-0.363
					c-1.517,0.327-2.975,1.009-4.496,1.374C14.022,8.508,13.819,8.872,14.094,8.832L14.094,8.832z"/>
			</g>
		</g>
		<g>
			<g>
				<path d="M11.733,22.643c-2.729,1.883-6.154,3.256-8.45,5.689c-0.126,0.134-0.061,0.311,0.122,0.194
					c1.35-0.862,2.613-1.852,3.976-2.701c1.506-0.938,3.018-1.865,4.456-2.905C12.028,22.781,11.99,22.466,11.733,22.643
					L11.733,22.643z"/>
			</g>
		</g>
		<g>
			<g>
				<path d="M8.555,24.95c-1.312-1.102-2.37-2.167-3.319-3.616c-0.967-1.477-1.624-3.349-2.825-4.647
					c-0.085-0.092-0.271,0.103-0.234,0.199c0.593,1.557,1.608,3.102,2.504,4.502c0.883,1.383,2.026,3.254,3.681,3.792
					C8.452,25.208,8.651,25.03,8.555,24.95L8.555,24.95z"/>
			</g>
		</g>
	</g>
</g>
<g id="DESIGNED_BY_FREEPIK">
</g>
</svg>
