<?xml version="1.0" encoding="utf-8"?>
<!-- Generator: Adobe Illustrator 16.0.0, SVG Export Plug-In . SVG Version: 6.00 Build 0)  -->
<!DOCTYPE svg PUBLIC "-//W3C//DTD SVG 1.1//EN" "http://www.w3.org/Graphics/SVG/1.1/DTD/svg11.dtd">
<svg version="1.1" xmlns="http://www.w3.org/2000/svg" xmlns:xlink="http://www.w3.org/1999/xlink" x="0px" y="0px"
	 width="41.365px" height="38.712px" viewBox="0 0 41.365 38.712" enable-background="new 0 0 41.365 38.712" xml:space="preserve">
<g id="BACKGROUND">
</g>
<g id="OBJECTS">
	<g>
		<g>
			<g>
				<path d="M41.332,37.666c-1.014-2.308-3.646-4.119-5.552-5.646c-2.369-1.899-4.851-3.671-6.982-5.846
					c-2.451-2.501-4.615-5.242-7.153-7.673c-2.329-2.23-4.929-4.09-7.423-6.123c-0.458-0.374-1.438,0.631-1.003,1.003
					c2.333,1.992,4.677,3.864,6.776,6.115c2.407,2.581,4.671,5.307,6.988,7.969c1.879,2.158,4.364,3.878,6.649,5.572
					c1.165,0.864,2.313,1.747,3.432,2.669c1.104,0.908,2.037,2.032,3.143,2.917C40.656,38.983,41.548,38.159,41.332,37.666
					L41.332,37.666z"/>
			</g>
		</g>
		<g>
			<g>
				<path d="M29.983,28.987c-3.673,1.605-7.126-0.221-10.854-0.151c-0.114,0.002-0.387,0.294-0.202,0.338
					c1.85,0.442,3.808,0.731,5.699,0.942c1.82,0.202,3.726,0.097,5.36-0.793C30.152,29.233,30.271,28.861,29.983,28.987
					L29.983,28.987z"/>
			</g>
		</g>
		<g>
			<g>
				<path d="M23.049,29.861c-0.002,0.9-0.018,1.788-0.101,2.685c-0.079,0.843-0.336,1.707-0.29,2.554
					c0.01,0.179,0.254,0.014,0.287-0.072c0.597-1.57,0.705-3.693,0.468-5.341C23.379,29.45,23.049,29.707,23.049,29.861
					L23.049,29.861z"/>
			</g>
		</g>
		<g>
			<g>
				<path d="M15.53,14.941c-4.001,1.499-8.137,1.248-12.289,1.863c-0.165,0.024-0.433,0.455-0.163,0.444
					c4.129-0.166,8.662-0.156,12.456-1.994C15.697,15.176,15.801,14.84,15.53,14.941L15.53,14.941z"/>
			</g>
		</g>
		<g>
			<g>
				<path d="M7.531,16.791c-0.311,0.851-0.643,1.693-1.008,2.522c-0.325,0.739-0.795,1.442-1.029,2.213
					c-0.059,0.192,0.197,0.069,0.251,0.004c1.071-1.312,1.623-3.233,2.14-4.827C7.966,16.452,7.585,16.645,7.531,16.791
					L7.531,16.791z"/>
			</g>
		</g>
		<g>
			<g>
				<path d="M7.599,16.764c-0.161-0.606-0.468-1.138-0.824-1.648c-0.36-0.517-0.88-1.208-1.498-1.411
					c-0.1-0.032-0.296,0.129-0.237,0.237c0.252,0.471,0.749,0.829,1.1,1.234c0.475,0.547,0.817,1.175,1.13,1.823
					C7.356,17.177,7.637,16.908,7.599,16.764L7.599,16.764z"/>
			</g>
		</g>
		<g>
			<g>
				<path d="M19.379,17.283c-0.374-2.169-0.803-4.322-1.311-6.464c-0.551-2.329-1.041-4.977-2.158-7.107
					c-0.086-0.165-0.328,0.087-0.301,0.216c0.471,2.271,1.341,4.49,1.915,6.743c0.572,2.248,1.064,4.519,1.567,6.783
					C19.123,17.596,19.399,17.398,19.379,17.283L19.379,17.283z"/>
			</g>
		</g>
		<g>
			<g>
				<path d="M17.45,8.354c-0.888-0.697-1.708-1.468-2.509-2.263c-0.769-0.764-1.534-1.763-2.511-2.256
					c-0.114-0.058-0.278,0.148-0.212,0.249c0.587,0.899,1.571,1.64,2.343,2.387c0.814,0.787,1.663,1.528,2.587,2.184
					C17.292,8.757,17.584,8.459,17.45,8.354L17.45,8.354z"/>
			</g>
		</g>
		<g>
			<g>
				<path d="M17.625,8.497c0.915-0.515,1.621-1.412,2.291-2.201c1.003-1.184,2.058-2.414,2.809-3.778
					c0.132-0.239-0.197-0.181-0.294-0.051c-1.532,2.042-2.975,4.145-4.859,5.89C17.509,8.415,17.513,8.562,17.625,8.497
					L17.625,8.497z"/>
			</g>
		</g>
		<g>
			<g>
				<path d="M27.92,25.68c0.213-2.057,0.288-4.133,0.469-6.193c0.192-2.187,0.562-4.463,0.42-6.658
					c-0.015-0.224-0.341,0-0.359,0.131c-0.285,2.072-0.331,4.194-0.502,6.28c-0.179,2.172-0.464,4.406-0.331,6.586
					C27.63,26.027,27.908,25.798,27.92,25.68L27.92,25.68z"/>
			</g>
		</g>
		<g>
			<g>
				<path d="M28.442,17.837c-1.107-1.975-1.733-4.104-2.658-6.151c-0.059-0.131-0.26,0.066-0.236,0.169
					c0.498,2.15,1.501,4.284,2.64,6.165C28.264,18.146,28.502,17.943,28.442,17.837L28.442,17.837z"/>
			</g>
		</g>
		<g>
			<g>
				<path d="M28.509,17.685c0.738-0.264,1.344-0.815,1.929-1.321c0.712-0.615,1.555-1.267,2.112-2.027
					c0.084-0.114,0.033-0.289-0.129-0.2c-0.631,0.344-1.132,0.941-1.646,1.435c-0.718,0.687-1.484,1.276-2.27,1.88
					C28.442,17.499,28.334,17.747,28.509,17.685L28.509,17.685z"/>
			</g>
		</g>
		<g>
			<path d="M21.931,0.52c-0.717,1.229-0.209,2.887,1.484,2.501c1.335-0.335,1.562-1.943,0.419-2.819
				C23.268-0.191,22.426,0.031,21.931,0.52"/>
		</g>
		<g>
			<path d="M14.587,1.268c-0.717,1.23-0.21,2.887,1.482,2.501c1.336-0.334,1.562-1.943,0.42-2.818
				C15.924,0.558,15.082,0.779,14.587,1.268"/>
		</g>
		<g>
			<path d="M10.185,1.793c-0.717,1.23-0.209,2.887,1.484,2.502c1.335-0.335,1.562-1.944,0.419-2.819
				C11.522,1.083,10.68,1.305,10.185,1.793"/>
		</g>
		<g>
			<path d="M4.686,11.63c-1.415,0.157-2.444,1.551-1.126,2.681c1.064,0.874,2.493,0.098,2.514-1.342
				C6.052,12.28,5.373,11.735,4.686,11.63"/>
		</g>
		<g>
			<path d="M1.735,15.562c-1.415,0.156-2.444,1.553-1.126,2.682c1.065,0.873,2.492,0.097,2.514-1.343
				C3.103,16.212,2.422,15.669,1.735,15.562"/>
		</g>
		<g>
			<path d="M4.998,21.043c-1.416,0.156-2.444,1.552-1.125,2.682c1.063,0.873,2.492,0.097,2.514-1.343
				C6.366,21.693,5.685,21.149,4.998,21.043"/>
		</g>
		<g>
			<path d="M16.654,27.624c-0.716,1.229-0.209,2.887,1.483,2.501c1.336-0.335,1.562-1.944,0.419-2.819
				C17.992,26.912,17.149,27.135,16.654,27.624"/>
		</g>
		<g>
			<path d="M23.714,9.581c-0.487,1.337,0.309,2.878,1.905,2.196c1.254-0.567,1.191-2.191-0.09-2.848
				C24.904,8.643,24.115,9.012,23.714,9.581"/>
		</g>
		<g>
			<path d="M32.224,12.382c-0.487,1.338,0.308,2.878,1.904,2.197c1.255-0.567,1.192-2.191-0.089-2.849
				C33.413,11.444,32.624,11.812,32.224,12.382"/>
		</g>
		<g>
			<path d="M28.21,10.79c-0.487,1.338,0.308,2.878,1.905,2.196c1.254-0.566,1.191-2.19-0.09-2.849
				C29.4,9.852,28.61,10.221,28.21,10.79"/>
		</g>
		<g>
			<path d="M21.678,35.318c-0.718,1.229-0.209,2.887,1.483,2.501c1.336-0.336,1.562-1.944,0.419-2.82
				C23.015,34.606,22.173,34.829,21.678,35.318"/>
		</g>
	</g>
</g>
<g id="DESIGNED_BY_FREEPIK">
</g>
</svg>
