<?xml version="1.0" encoding="utf-8"?>
<!-- Generator: Adobe Illustrator 16.0.0, SVG Export Plug-In . SVG Version: 6.00 Build 0)  -->
<!DOCTYPE svg PUBLIC "-//W3C//DTD SVG 1.1//EN" "http://www.w3.org/Graphics/SVG/1.1/DTD/svg11.dtd">
<svg version="1.1" xmlns="http://www.w3.org/2000/svg" xmlns:xlink="http://www.w3.org/1999/xlink" x="0px" y="0px"
	 width="68.764px" height="171.237px" viewBox="0 0 68.764 171.237" enable-background="new 0 0 68.764 171.237"
	 xml:space="preserve">
<g id="BACKGROUND">
</g>
<g id="OBJECTS">
	<g>
		<g>
			<g>
				<path d="M10.413,166.828c4.967-11.118,10.984-21.731,16.887-32.37c2.978-5.367,5.921-10.754,8.663-16.247
					c1.332-2.666,2.596-5.368,3.799-8.095c1.206-2.734,2.455-5.516,3.137-8.435c0.19-0.816-0.893-0.239-1.08,0.135
					c-1.35,2.694-2.415,5.521-3.626,8.279c-1.198,2.73-2.484,5.421-3.805,8.095c-2.713,5.497-5.65,10.88-8.608,16.248
					c-5.829,10.579-11.773,21.114-16.196,32.38C9.305,167.525,10.214,167.274,10.413,166.828L10.413,166.828z"/>
			</g>
		</g>
		<g>
			<g>
				<path d="M42.283,101.859c0.553-6.406-0.082-12.968-0.748-19.341c-0.327-3.132-0.721-6.257-1.129-9.38
					c-0.214-1.641-0.467-3.275-0.709-4.912c-0.209-1.4-0.288-3.075-1.017-4.32c-0.188-0.32-0.658,0.095-0.701,0.338
					c-0.246,1.4-0.057,2.827,0.113,4.229c0.2,1.653,0.387,3.311,0.606,4.962c0.438,3.284,0.854,6.571,1.209,9.866
					c0.69,6.384,0.867,12.746,1.139,19.152C41.081,103.266,42.24,102.356,42.283,101.859L42.283,101.859z"/>
			</g>
		</g>
		<g>
			<g>
				<path d="M38.379,64.828c3.483-7.942,5.263-16.645,6.889-25.125c0.82-4.273,1.529-8.566,2.213-12.863
					c0.348-2.183,0.681-4.367,1.01-6.553c0.3-1.994,0.711-4.012,0.673-6.036c-0.013-0.657-0.889,0.075-0.98,0.36
					c-1.305,4.025-1.651,8.464-2.323,12.634c-0.692,4.296-1.415,8.587-2.215,12.864c-1.57,8.405-3.777,16.591-6.068,24.819
					C37.414,65.512,38.247,65.13,38.379,64.828L38.379,64.828z"/>
			</g>
		</g>
		<g>
			<g>
				<path d="M43.09,47.316c-1.55-4.38-3.56-8.586-5.421-12.838c-0.934-2.13-1.825-4.277-2.653-6.451c-0.381-1-0.735-2.01-1.088-3.02
					c-0.384-1.095-0.659-2.33-1.232-3.338c-0.256-0.449-0.922,0.194-0.911,0.543c0.067,2.132,1,4.363,1.724,6.347
					c0.796,2.183,1.705,4.322,2.633,6.452c1.911,4.39,3.919,8.733,5.766,13.152C42.168,48.789,43.278,47.852,43.09,47.316
					L43.09,47.316z"/>
			</g>
		</g>
		<g>
			<g>
				<path d="M42.577,89.112c2.562-4.159,5.373-8.164,8.215-12.135c1.437-2.006,2.881-4.006,4.3-6.024
					c1.315-1.871,2.942-3.826,3.809-5.958c0.212-0.52-0.352-0.561-0.639-0.241c-1.574,1.757-2.781,3.91-4.13,5.844
					c-1.41,2.023-2.853,4.023-4.285,6.03c-2.855,4-5.649,8.033-7.997,12.357C41.538,89.56,42.35,89.481,42.577,89.112L42.577,89.112
					z"/>
			</g>
		</g>
		<g>
			<g>
				<path d="M22.073,142.464c-0.173-4.21-1.324-8.329-2.624-12.313c-0.697-2.14-1.446-4.263-2.146-6.402
					c-0.666-2.038-1.045-4.327-1.942-6.268c-0.179-0.387-0.746,0.174-0.74,0.441c0.046,1.935,0.76,3.922,1.311,5.762
					c0.648,2.163,1.37,4.304,2.057,6.455c1.348,4.22,2.525,8.452,2.935,12.878C20.99,143.746,22.094,142.972,22.073,142.464
					L22.073,142.464z"/>
			</g>
		</g>
		<g>
			<g>
				<path d="M14.941,117.897c0.097-1.005-0.616-1.985-1.132-2.8c-0.73-1.152-1.521-2.267-2.334-3.361
					c-0.913-1.229-1.846-2.444-2.766-3.669c-0.72-0.959-1.446-2.261-2.479-2.903c-0.266-0.165-0.605,0.339-0.56,0.56
					c0.232,1.105,1.16,2.154,1.815,3.047c0.903,1.231,1.844,2.436,2.763,3.655c0.805,1.07,1.609,2.142,2.381,3.236
					c0.551,0.783,1.093,2.093,1.983,2.515C14.766,118.248,14.93,118.02,14.941,117.897L14.941,117.897z"/>
			</g>
		</g>
		<g>
			<g>
				<path d="M11.128,111.396c0.651-1.993,1.086-4.07,1.694-6.08c0.607-2.004,1.291-3.983,1.945-5.971
					c0.656-1.994,1.291-3.993,1.851-6.017c0.483-1.75,1.327-4.034,1.007-5.858c-0.066-0.381-0.659,0.124-0.721,0.266
					c-0.779,1.824-0.998,3.979-1.512,5.898c-0.541,2.025-1.188,4.021-1.837,6.014c-0.645,1.978-1.286,3.957-1.873,5.953
					c-0.572,1.943-1.233,4.044-1.326,6.078C10.334,112.188,11.056,111.616,11.128,111.396L11.128,111.396z"/>
			</g>
		</g>
		<g>
			<g>
				<path d="M28.525,131.704c2.084,0.141,4.172,0.173,6.258,0.272c1.116,0.053,2.229,0.146,3.341,0.267
					c1.017,0.11,2.018,0.345,3.026,0.136c0.209-0.043,0.712-0.504,0.441-0.732c-0.648-0.549-1.543-0.555-2.361-0.668
					c-1.107-0.154-2.23-0.21-3.346-0.266c-2.305-0.115-4.612-0.082-6.914,0.063C28.592,130.801,27.917,131.663,28.525,131.704
					L28.525,131.704z"/>
			</g>
		</g>
		<g>
			<g>
				<path d="M15.277,156.699c6.687,0.125,13.352-0.281,20.021-0.723c3.402-0.225,6.804-0.447,10.21-0.617
					c1.616-0.081,3.233-0.144,4.852-0.192c1.637-0.049,3.433,0.148,5.028-0.236c0.229-0.055,0.897-0.732,0.424-0.878
					c-1.339-0.412-2.996-0.143-4.386-0.109c-1.617,0.039-3.233,0.104-4.85,0.178c-3.403,0.156-6.804,0.379-10.203,0.601
					c-6.878,0.448-13.762,0.911-20.654,1.06C15.317,155.79,14.7,156.688,15.277,156.699L15.277,156.699z"/>
			</g>
		</g>
		<g>
			<g>
				<path d="M43.158,155.33c1.541,1.641,3.255,3.12,4.798,4.769c0.717,0.766,1.415,1.55,2.112,2.333
					c0.701,0.787,1.36,1.869,2.38,2.228c0.354,0.125,0.812-0.381,0.719-0.719c-0.255-0.93-1.072-1.563-1.717-2.255
					c-0.817-0.875-1.64-1.747-2.476-2.605c-1.562-1.604-3.264-3.329-5.203-4.472C43.48,154.438,42.91,155.065,43.158,155.33
					L43.158,155.33z"/>
			</g>
		</g>
		<g>
			<g>
				<path d="M39.366,109.559c4.435-3.529,9.169-6.721,13.994-9.689c2.532-1.559,5.12-3.025,7.739-4.434
					c2.406-1.294,4.963-2.377,7.296-3.797c0.314-0.19,0.646-1.161-0.014-0.933c-2.533,0.874-4.94,2.312-7.298,3.574
					c-2.603,1.394-5.161,2.87-7.684,4.405c-5.02,3.054-9.78,6.446-14.271,10.236C38.728,109.262,38.801,110.008,39.366,109.559
					L39.366,109.559z"/>
			</g>
		</g>
		<g>
			<g>
				<path d="M63.305,93.062c-1.595-0.504-3.042-1.48-4.267-2.602c-0.645-0.591-1.243-1.271-1.628-2.062
					c-0.38-0.777-0.332-2.138,0.806-2.19c1.413-0.065,2.347,2.633,2.762,3.616c0.558,1.318,0.921,2.785,1.644,4.025
					c0.312,0.535,1.1-0.28,1.004-0.719c-0.553-2.525-1.621-4.885-1.467-7.522c-0.264,0.264-0.528,0.528-0.792,0.792
					c3.05-0.129,1.978,5.402,1.955,7.229c0.368-0.177,0.735-0.353,1.104-0.529c-0.148-1.812-0.133-4.577,0.903-6.132
					c0.244-0.365,0.956,0.568,1.04,0.731c0.333,0.648-0.022,1.466-0.313,2.054c-0.544,1.097-1.582,2.312-2.689,2.876
					c-0.621,0.315-1.026,1.66,0.016,1.221c1.666-0.703,3.003-2.517,3.783-4.083c0.589-1.183,0.889-3.856-1.089-3.985
					c-2.917-0.189-2.91,6.053-2.754,7.848c0.062,0.711,1.1-0.058,1.104-0.529c0.015-2.171,0.993-7.857-2.545-7.771
					c-0.399,0.01-0.763,0.406-0.792,0.792c-0.202,2.666,0.824,5.202,1.533,7.728c0.316-0.269,0.633-0.537,0.948-0.806
					c-1.183-1.764-2.715-9.728-6.19-7.249c-3.817,2.722,2.459,8.131,5.405,8.14C63.083,93.936,63.78,93.212,63.305,93.062
					L63.305,93.062z"/>
			</g>
		</g>
		<g>
			<g>
				<path d="M50.529,101.232c-0.312,2.268-0.924,6.186,1.974,7.025c0.324,0.094,0.73-0.217,0.841-0.512
					c1.04-2.765,0.314-4.911-1.422-7.18c-0.282,0.282-0.565,0.565-0.848,0.848c0.91,1.152,2.498,1.948,3.787,2.583
					c0.874,0.431,2.798,1.465,3.674,0.491c0.903-1.004-0.079-2.212-1.062-2.681c-1.832-0.876-4.083-0.854-6.054-1.186
					c-0.556-0.095-1.368,1.126-0.594,1.236c1.451,0.208,2.914,0.29,4.356,0.567c0.673,0.13,1.418,0.295,2.002,0.671
					c0.238,0.153,0.37,0.387,0.5,0.63c0.05,0.097,0.091,0.197,0.124,0.301c0.121,0.33,0.569-0.238,0.231-0.232
					c-1.104,0.019-2.367-0.766-3.309-1.259c-0.975-0.511-2.097-1.106-2.81-1.97c-0.309-0.375-1.143,0.448-0.848,0.848
					c1.444,1.963,2.242,3.927,1.328,6.32c0.28-0.171,0.561-0.341,0.841-0.512c-2.513-0.747-1.985-4.34-1.762-6.34
					C51.542,100.337,50.581,100.856,50.529,101.232L50.529,101.232z"/>
			</g>
		</g>
		<g>
			<g>
				<path d="M51.844,73.73c-1.877,0.295-5.146-0.248-5.203-2.659c-0.046-1.952,2.046-0.261,2.654,0.272
					c0.793,0.695,1.491,1.505,2.152,2.322c0.303,0.373,1.166-0.456,0.852-0.852c-1.212-1.521-2.088-3.189-2.087-5.172
					c-0.229,0.229-0.458,0.457-0.687,0.687c2.684-0.176,2.211,4.297,2.512,5.991c0.084,0.474,0.965-0.198,0.939-0.561
					c-0.139-1.99-0.148-6.403-3.006-6.358c-0.34,0.006-0.67,0.354-0.687,0.687c-0.106,2.127,0.846,3.971,2.163,5.578
					c0.284-0.284,0.567-0.567,0.852-0.852c-1.271-1.514-4.749-5.577-6.36-2.333c-1.738,3.499,3.396,4.937,5.814,3.981
					C52.046,74.347,52.387,73.646,51.844,73.73L51.844,73.73z"/>
			</g>
		</g>
		<g>
			<g>
				<path d="M57.827,66.944c0.578-0.674,1.442-1.166,2.177-1.646c1.032-0.674,2.173-1.394,3.395-1.649
					c0.382-0.08,0.729,0.01,0.769,0.438c0.089,0.955-0.908,1.144-1.634,1.29c-1.355,0.273-2.819,0.123-4.143,0.544
					c-0.473,0.149-1.15,1.315-0.285,1.139c1.706-0.349,4.649-0.362,6.106,0.696c0.396,0.288,0.393,0.646,0.133,1.029
					c-0.499,0.735-1.856-0.104-2.376-0.398c-1.176-0.669-2.308-1.819-3.722-1.914c-0.377-0.024-1.127,0.776-0.606,1.016
					c1.675,0.77,3.187,2.027,3.201,4.008c0.175-0.241,0.35-0.481,0.525-0.722c-2.692,1.159-3.122-2.648-2.497-4.408
					c0.234-0.66-0.854-0.224-0.994,0.248c-0.75,2.542,0.163,6.451,3.503,5.092c0.27-0.109,0.521-0.427,0.525-0.722
					c0.039-2.202-1.688-3.651-3.549-4.492c-0.202,0.338-0.404,0.677-0.606,1.016c1.979,0.136,3.218,2.432,5.205,2.647
					c1.34,0.146,2.844-1.115,2.733-2.528c-0.102-1.284-2.041-1.542-2.999-1.683c-1.39-0.204-2.905-0.239-4.298-0.023
					c-0.095,0.38-0.19,0.759-0.285,1.139c1.881-0.503,3.905-0.142,5.678-1.102c0.801-0.434,2.285-2.518,0.957-3.212
					c-1.141-0.598-2.939,0.584-3.875,1.131c-1.23,0.718-2.651,1.604-3.529,2.757C57.008,67.065,57.521,67.301,57.827,66.944
					L57.827,66.944z"/>
			</g>
		</g>
		<g>
			<g>
				<path d="M47.242,23.675c-1.858,0.95-6.567,3.544-6.367-0.426c-0.165,0.228-0.331,0.454-0.496,0.682
					c2.132-1.043,4.128,0.406,6.038,1.271c0.221-0.308,0.441-0.616,0.662-0.924c-0.901-0.231-1.752-0.762-2.543-1.233
					c-0.845-0.503-2.491-1.415-2.604-2.534c-0.076-0.761,1.168,0.057,1.304,0.167c0.519,0.424,0.936,0.986,1.345,1.512
					c0.51,0.657,1.203,2.062,2.111,2.229c0.371,0.068,1.094-0.696,0.613-0.857c-1.604-0.536-3.85-6.432-5.978-3.354
					c-1.407,2.034,3.666,4.621,5.09,4.994c0.406,0.106,1.164-0.693,0.662-0.924c-2.218-1.017-4.272-2.396-6.712-1.229
					c-0.26,0.124-0.479,0.388-0.496,0.682c-0.295,4.782,5.33,2.074,7.512,0.748C47.793,24.229,47.888,23.345,47.242,23.675
					L47.242,23.675z"/>
			</g>
		</g>
		<g>
			<g>
				<path d="M49.208,14c-0.539-1.113-0.663-2.529-0.845-3.733c-0.216-1.436-0.458-3.068-0.121-4.503
					c0.159-0.675,0.743-0.031,1.068,0.289c0.717,0.709,0.592,1.972,0.517,2.884c-0.169,2.059-0.96,4.084-0.927,6.156
					c0.315-0.151,0.63-0.304,0.945-0.455c-0.059-2.595,0.175-5.721,2.528-7.307c-0.177,0.021-0.354,0.042-0.53,0.063
					c1.759,2.529-2.162,5.168-3.19,7.215c-0.349,0.692,0.59,0.584,0.858,0.149c0.496-0.805,0.982-1.614,1.565-2.361
					c0.367-0.471,2.581-2.516,2.689-1.126c0.146,1.876-3.08,2.622-4.443,2.792c-0.68,0.085-1.522,1.471-0.489,1.333
					c2.517-0.336,6.848-2.287,5.782-5.51c-0.033-0.101-0.144-0.164-0.247-0.158c-2.734,0.154-4.271,2.682-5.635,4.743
					c0.287,0.05,0.572,0.1,0.858,0.149c1.479-2.572,4.724-4.66,3.109-7.956c-0.121-0.246-0.406-0.125-0.58-0.016
					c-2.773,1.738-3.374,5.422-3.222,8.443c0.03,0.589,0.964-0.028,0.945-0.455c-0.113-2.593,1.084-5.093,0.739-7.709
					c-0.144-1.092-1.403-2.972-2.604-1.874C46.947,6,47.336,8.315,47.453,9.504c0.156,1.587,0.326,3.539,1.085,4.977
					C48.719,14.823,49.35,14.291,49.208,14L49.208,14z"/>
			</g>
		</g>
		<g>
			<g>
				<path d="M45.354,38.372c0.871-1.203,2.05-1.768,3.469-2.073c0.629-0.135,1.278-0.134,1.917-0.104
					c0.44,0.02,0.075,0.876-0.172,0.993c-1.346,0.636-3.19,0.121-4.63,0.271c-0.575,0.06-1.415,1.388-0.631,1.312
					c1.408-0.134,3.66-0.051,4.776,0.914c0.143,0.124,0.311,0.524,0.053,0.613c-0.52,0.18-1.323-0.44-1.695-0.708
					c-0.824-0.591-1.455-1.443-2.296-1.998c-0.497-0.327-1.451,0.557-1.045,1.045c0.916,1.097,2.101,2.216,3.401,2.828
					c1.255,0.592,2.736-0.347,3.062-1.637c0.615-2.442-4.168-2.529-5.625-2.37c-0.21,0.438-0.421,0.875-0.631,1.312
					c2.328-0.273,7.748,0.494,6.651-3.576c-0.036-0.133-0.175-0.179-0.294-0.188c-2.751-0.229-5.453,0.751-7.023,3.102
					C44.196,38.773,44.998,38.865,45.354,38.372L45.354,38.372z"/>
			</g>
		</g>
		<g>
			<g>
				<path d="M33.269,21.363c-0.649-0.275-1.006-1.183-1.294-1.77c-0.429-0.877-0.806-1.769-1.346-2.586
					c-0.97-1.467-2.836-1.554-4.123-0.425c-2.194,1.925,3.785,5.14,5.077,5.736c0.276-0.386,0.554-0.772,0.83-1.158
					c-1.907-0.489-5.608-1.795-6.863,0.438c-0.692,1.234,0.653,2.514,1.789,2.604c1.676,0.134,3.258-0.968,4.765-1.513
					c-0.005-0.336-0.01-0.671-0.015-1.006c-2.053,1.304-4.421,2.669-4.673,5.334c-0.01,0.107,0.068,0.256,0.181,0.281
					c2.582,0.579,4.022-2.447,5.022-4.304c0.385-0.716-0.624-0.622-0.905-0.158c-0.66,1.088-1.426,3.346-2.912,3.413
					c-0.425,0.02,0.239-1.08,0.272-1.13c0.283-0.439,0.713-0.789,1.118-1.108c0.693-0.549,1.471-0.994,2.215-1.469
					c0.325-0.207,0.698-1.265-0.015-1.006c-1.049,0.381-2.029,0.915-3.095,1.253c-0.93,0.296-2.935,0.371-2.666-1.212
					c-0.042,0.248-0.04,0.13,0.233,0.073c0.264-0.054,0.549-0.036,0.814-0.031c0.516,0.01,1.03,0.087,1.538,0.168
					c0.798,0.128,1.582,0.333,2.365,0.529c0.507,0.127,1.464-0.87,0.83-1.158c-1.062-0.482-2.085-1.091-3.056-1.733
					c-0.604-0.399-1.185-0.841-1.701-1.351c-0.401-0.396-0.897-0.906-0.263-1.092c3.274-0.956,2.669,5.293,5.416,5.146
					C33.066,22.118,33.689,21.542,33.269,21.363L33.269,21.363z"/>
			</g>
		</g>
		<g>
			<g>
				<path d="M37.244,35.104c-2.822,0.007-6.189,1.112-7.203,4.001c-0.06,0.169,0.042,0.359,0.23,0.356
					c2.488-0.032,4.298-2.034,6.114-3.473c-0.17-0.171-0.34-0.341-0.511-0.511c-0.514,0.778-3.186,5.485-1.534,5.937
					c1.161,0.316,2.1-1.053,2.402-1.948c0.3-0.886,0.481-1.806,0.593-2.733c0.074-0.613,0.253-1.432-0.034-2.014
					c-0.281-0.571-1.156,0.249-1.129,0.673c0.062,0.946-0.011,1.906-0.147,2.843c-0.086,0.592-0.204,1.197-0.42,1.758
					c-0.082,0.214-0.651,0.695-0.72,0.258c-0.131-0.836,0.506-1.932,0.833-2.666c0.298-0.67,0.646-1.312,0.98-1.963
					c0.312-0.609-0.407-0.548-0.716-0.271c-1.404,1.262-3.225,3.214-5.259,3.169c0.062,0.158,0.124,0.317,0.187,0.477
					c0.808-2.103,3.827-2.806,5.841-2.869C37.202,36.113,37.882,35.102,37.244,35.104L37.244,35.104z"/>
			</g>
		</g>
		<g>
			<g>
				<path d="M39.242,61.016c-0.902,0.528-2.153,0.557-3.166,0.633c-1.144,0.085-2.563,0.155-3.608-0.398
					c-0.36-0.191-0.29-0.781,0.104-0.918c0.702-0.245,1.741,0.05,2.431,0.187c1.482,0.293,2.914,0.809,4.399,1.079
					c0.368,0.067,1.143-0.522,0.775-0.912c-1.742-1.848-4.484-2.782-5.488-5.262c-0.184,0.254-0.368,0.508-0.553,0.761
					c3.06-0.492,3.993,2.982,5.225,5.048c0.319,0.535,1.287-0.336,0.968-0.823c-1.575-2.4-2.474-5.581-5.97-5.113
					c-0.289,0.038-0.657,0.46-0.553,0.761c0.927,2.672,3.739,3.518,5.512,5.488c0.259-0.305,0.517-0.608,0.775-0.912
					c-1.996-0.496-3.949-1.181-6.007-1.391c-1.34-0.138-3.116,0.769-3,2.358c0.103,1.394,2.576,1.334,3.504,1.324
					c1.553-0.018,3.458-0.188,4.803-1.043C39.829,61.604,39.911,60.623,39.242,61.016L39.242,61.016z"/>
			</g>
		</g>
		<g>
			<g>
				<path d="M40.163,76.46c-1.43-0.515-3.416-0.167-4.879,0.081c-1.636,0.277-3.107,1.024-4.164,2.31
					c-0.179,0.218-0.232,0.624,0.127,0.662c3.011,0.313,5.174-1.577,7.995-2.124c-0.087-0.223-0.173-0.445-0.26-0.668
					c-0.894,1.102-6.611,4.008-4.361,6.011c2.244,1.998,4.859-4.427,5.296-5.752c0.252-0.766-0.923-0.188-1.088,0.271
					c-0.376,1.053-0.852,2.073-1.397,3.049c-0.296,0.529-0.654,1.104-1.128,1.493c-0.41,0.337-1.092-0.052-1.007-0.58
					c0.155-0.969,1.745-1.921,2.445-2.477c0.684-0.541,1.474-1.039,2.021-1.727c0.225-0.282,0.196-0.762-0.26-0.668
					c-2.701,0.555-4.875,2.537-7.755,2.126c0.006,0.264,0.012,0.527,0.018,0.791c2.064-2.38,5.345-1.276,8.005-1.985
					C39.986,77.216,40.598,76.617,40.163,76.46L40.163,76.46z"/>
			</g>
		</g>
		<g>
			<g>
				<path d="M17.287,87.576c-0.767-1.038-1.856-1.679-2.352-2.935c-0.137-0.347-0.351-1.231,0.105-1.451
					c0.617-0.296,1.207,0.5,1.433,0.937c0.629,1.22,0.455,2.608,0.449,3.924c-0.003,0.553,0.898-0.026,0.9-0.434
					c0.007-1.495,0.068-3.051,0.444-4.503c0.036-0.142,0.084-0.278,0.142-0.412c0.066-0.156-0.204-0.082,0.021,0.101
					c0.504,0.412,0.556,1.094,0.412,1.679c-0.324,1.328-1.696,2.431-2.503,3.482c-0.555,0.723,0.401,0.87,0.818,0.303
					c0.978-1.329,2.679-2.827,2.724-4.61c0.018-0.744-0.69-2.553-1.717-1.705c-0.834,0.689-0.941,1.895-1.067,2.899
					c-0.132,1.058-0.179,2.134-0.174,3.2c0.002,0.555,0.902-0.026,0.9-0.434c-0.006-1.309-0.175-6.701-2.946-5.24
					c-2.7,1.423-0.328,5.317,1.663,6.079C16.938,88.607,17.559,87.942,17.287,87.576L17.287,87.576z"/>
			</g>
		</g>
		<g>
			<g>
				<path d="M16.668,121.038c0.02-1.274-0.026-2.546,0.05-3.819c0.081-1.343,0.219-3.551,1.783-3.99
					c-0.121-0.047-0.242-0.094-0.362-0.141c1.119,2.61-0.674,5.938-2.182,8.045c0.215,0.037,0.429,0.074,0.644,0.112
					c0.727-1.702,1.612-4.901,3.649-5.388c-0.122-0.048-0.243-0.095-0.365-0.143c0.569,2.446-1.759,3.825-3.503,4.963
					c0.113,0.178,0.226,0.356,0.339,0.535c1.526-1.528,3.291-2.602,5.515-2.427c-0.094-0.095-0.188-0.189-0.283-0.283
					c0.176,2.244-3.541,1.851-5.013,1.955c-0.532,0.038-1.498,1.253-0.633,1.314c2.405,0.171,7.046-0.473,6.737-3.795
					c-0.017-0.172-0.107-0.271-0.283-0.283c-2.632-0.168-4.765,1.193-6.485,3.073c-0.249,0.273-0.286,0.828,0.228,0.602
					c2.423-1.071,5.021-3.466,4.358-6.354c-0.036-0.159-0.242-0.171-0.365-0.143c-2.769,0.655-3.786,4.139-4.638,6.465
					c-0.184,0.5,0.539,0.199,0.681,0.01c1.783-2.381,3.673-5.922,2.568-8.955c-0.055-0.152-0.225-0.173-0.362-0.141
					c-3.819,0.9-2.997,6.329-2.917,9.19C15.843,121.972,16.663,121.406,16.668,121.038L16.668,121.038z"/>
			</g>
		</g>
		<g>
			<g>
				<path d="M6.357,105.502c-1.738,0.104-5.571-1.072-6.299,1.318c-0.408,1.344,1.418,2.082,2.42,1.97
					c1.678-0.187,3.021-1.404,4.651-1.703c0.336-0.062,0.959-0.927,0.352-0.958c-2.362-0.118-4.141,2.297-5.218,4.104
					c-0.08,0.134-0.276,0.551,0.017,0.611c2.694,0.56,4.492-1.803,4.557-4.326c0.015-0.558-0.866-0.004-0.914,0.335
					c-0.24,1.692-0.858,3.485-2.957,3.034c0.006,0.203,0.012,0.408,0.017,0.611c0.843-1.404,2.168-3.52,4.032-3.396
					c0.155-0.324,0.312-0.648,0.467-0.973c-1.709,0.164-5.425,3.286-6.384,0.613c-0.099-0.274-0.154-0.043,0.004-0.1
					c0.244-0.088,0.523-0.119,0.779-0.149c0.516-0.06,1.041-0.051,1.559-0.041c0.806,0.015,1.646,0.116,2.449,0.026
					C6.295,106.433,6.965,105.466,6.357,105.502L6.357,105.502z"/>
			</g>
		</g>
		<g>
			<g>
				<path d="M13.828,100.869c0.902-1.552,2.575-2.484,4.306-2.795c-0.114-0.045-0.228-0.089-0.341-0.133
					c0.584,2.304-2.044,2.505-3.696,2.333c-0.149,0.311-0.298,0.621-0.447,0.932c0.916,0.067,2.03,0.146,2.806,0.705
					c0.215,0.155,0.455,0.47,0.188,0.681c-1.024,0.811-2.006-0.119-2.066-1.195c-0.031-0.565-0.932,0.025-0.908,0.438
					c0.104,1.859,1.864,2.553,3.307,1.397c0.504-0.403,0.976-1.116,0.623-1.761c-0.583-1.067-2.481-1.113-3.502-1.196
					c-0.415-0.033-1.035,0.86-0.447,0.932c2.602,0.312,5.686-0.782,5.054-3.917c-0.031-0.157-0.228-0.147-0.341-0.133
					c-2.212,0.303-4.204,1.698-5.194,3.705C12.895,101.414,13.646,101.184,13.828,100.869L13.828,100.869z"/>
			</g>
		</g>
		<g>
			<g>
				<path d="M18.625,129.863c-1.075-1.03-4.24-2.872-5.596-1.562c-0.697,0.674-0.143,1.886,0.593,2.272
					c1.325,0.698,2.972,0.5,4.407,0.371c0.109-0.299,0.22-0.598,0.329-0.896c-1.946,0.402-3.812,1.188-4.28,3.297
					c-0.041,0.183,0.03,0.298,0.212,0.328c1.899,0.313,3.079-1.14,4.211-2.431c-0.203-0.128-0.406-0.257-0.608-0.385
					c-1.185,1.412-1.831,3.138-1.504,4.979c0.038,0.215,0.365,0.162,0.49,0.094c1.828-0.988,2.792-3.838,1.756-5.717
					c-0.217-0.392-0.798,0.17-0.788,0.469c0.049,1.39,0.551,3.539-0.979,4.367c0.163,0.031,0.327,0.062,0.49,0.094
					c-0.268-1.505,0.293-2.877,1.246-4.021c0.432-0.519-0.228-0.822-0.608-0.385c-0.915,1.052-1.72,2.278-3.289,2.069
					c0.071,0.109,0.142,0.219,0.212,0.328c0.283-1.464,1.984-1.868,3.22-2.203c0.292-0.079,0.882-0.958,0.329-0.896
					c-0.974,0.108-1.945,0.183-2.925,0.101c-0.579-0.049-1.16-0.211-1.606-0.594c-0.211-0.181-0.298-0.485-0.341-0.747
					c-0.054-0.324-0.278,0.013-0.007,0c0.81-0.035,1.701,0.475,2.42,0.788c0.629,0.273,1.339,0.581,1.863,1.034
					C18.205,130.906,18.94,130.166,18.625,129.863L18.625,129.863z"/>
			</g>
		</g>
		<g>
			<g>
				<path d="M39.895,131.175c0.018-1.073,0.074-2.171,0.364-3.21c0.039-0.137,0.154-0.501,0.228-0.562
					c-0.074,0.062-0.004,0.051,0.074,0.139c0.316,0.361,0.248,1.087,0.19,1.516c-0.131,0.963-0.555,1.878-1.068,2.691
					c0.246,0.004,0.492,0.008,0.738,0.012c0.439-1.4,1.451-2.897,2.95-3.26c-0.127-0.049-0.253-0.098-0.379-0.147
					c0.496,1.824-1.293,2.13-2.501,2.759c-0.292,0.152-0.965,1.009-0.27,1.079c1.062,0.106,2.361-0.864,3.042-1.598
					c0.763-0.821,1.059-1.889,0.74-2.965c-0.047-0.16-0.244-0.183-0.379-0.147c-2.145,0.558-3.386,2.505-4.05,4.49
					c-0.178,0.532,0.585,0.246,0.738,0.012c0.703-1.077,1.235-2.232,1.372-3.521c0.061-0.579,0.035-1.521-0.539-1.864
					c-0.599-0.358-1.209,0.388-1.471,0.83c-0.693,1.175-0.624,2.828-0.574,4.129C39.121,132.059,39.889,131.519,39.895,131.175
					L39.895,131.175z"/>
			</g>
		</g>
		<g>
			<g>
				<path d="M38.425,154.688c-0.885-1.061-1.476-2.188-1.894-3.508c-0.205-0.648-0.337-1.319-0.409-1.996
					c-0.027-0.265-0.031-0.53-0.027-0.796c0.003-0.121,0.014-0.242,0.032-0.361c0.071-0.469,0.107,0.031-0.204-0.038
					c1.298,0.289,1.427,2.47,1.521,3.445c0.15,1.565,0.098,3.183,0.478,4.718c0.157,0.637,1.174-0.295,1.174-0.699
					c0.002-2.292-0.938-6.973,1.659-8.191c-0.193-0.037-0.386-0.074-0.579-0.111c1.337,2.978-0.593,5.792-2.029,8.332
					c-0.523,0.925,0.878,0.672,1.203,0.016c1.411-2.845,3.411-5.939,1.971-9.168c-0.106-0.238-0.381-0.203-0.579-0.111
					c-3.638,1.7-2.891,6.541-2.841,9.809c0.391-0.233,0.782-0.467,1.174-0.699c-0.273-1.026-0.393-10.294-3.356-8.211
					c-1.072,0.754-0.803,2.572-0.597,3.648c0.325,1.702,0.979,3.852,2.533,4.829C38.022,155.826,38.711,155.031,38.425,154.688
					L38.425,154.688z"/>
			</g>
		</g>
		<g>
			<g>
				<path d="M55.332,153.895c0.01-2.37,2.435-5.062,4.765-5.425c-0.149-0.058-0.3-0.116-0.449-0.175
					c0.551,2.853-1.718,4.617-4.245,5.203c-0.049,0.392-0.098,0.783-0.146,1.176c1.868-0.897,4.424-1.573,6.498-1.524
					c0.146,0.004,0.277,0.024,0.414,0.072c0.156,0.054,0.041-0.043,0.035-0.034c-0.484,0.699-1.273,0.945-2.066,1.076
					c-1.924,0.319-3.996-0.116-5.882-0.481c-0.622-0.12-1.801,1.164-1.014,1.416c2.236,0.716,5.104,0.849,7.368,0.212
					c0.958-0.269,3.371-1.773,2.874-3.092c-0.384-1.021-2.923-0.3-3.604-0.159c-1.547,0.32-3.206,0.713-4.64,1.397
					c-0.42,0.201-1.029,1.379-0.146,1.176c3.411-0.782,6.479-3.55,5.755-7.297c-0.04-0.205-0.302-0.198-0.449-0.175
					c-2.959,0.461-6.304,3.974-5.985,7.075C54.475,154.929,55.33,154.287,55.332,153.895L55.332,153.895z"/>
			</g>
		</g>
		<g>
			<g>
				<path d="M50.492,161.232c-2.9-0.095-5.48,1.973-6.422,4.646c-0.08,0.225,0.058,0.408,0.278,0.432
					c1.227,0.13,2.588,0.164,3.532-0.771c0.91-0.899,1.313-2.169,1.867-3.293c-0.352,0.044-0.702,0.088-1.053,0.132
					c-0.335,1.249-0.494,2.546-0.555,3.84c-0.041,0.891-0.215,3.021,0.93,3.379c1.3,0.406,2.404-1.464,2.469-2.496
					c0.126-2.013-0.853-3.859-1.371-5.752c-0.157-0.571-1.226,0.266-1.09,0.781c0.335,1.265,0.834,2.474,1.121,3.754
					c0.126,0.565,0.429,1.96-0.116,2.408c-0.314,0.259-0.459-0.198-0.536-0.438c-0.314-0.969-0.15-2.17-0.064-3.163
					c0.074-0.843,0.104-1.77,0.318-2.591c0.205-0.783-0.872-0.238-1.053,0.132c-0.388,0.8-0.688,1.669-1.171,2.417
					c-0.56,0.864-1.818,0.653-2.68,0.52c0.075,0.192,0.15,0.385,0.226,0.577c0.798-2.019,2.75-3.291,4.881-3.499
					C50.408,162.208,51.159,161.255,50.492,161.232L50.492,161.232z"/>
			</g>
		</g>
		<g>
			<g>
				<path d="M36.135,115.575c-1.074-0.197-2.125-0.061-3.083-0.708c-0.608-0.411-1.112-1.089-1.213-1.827
					c-0.08-0.587-0.12-0.605,0.379-0.377c1.16,0.532,1.869,2.14,2.394,3.194c0.263,0.527,1.233-0.285,1.023-0.734
					c-0.579-1.237-1.068-2.743-1.226-4.099c-0.014-0.12-0.016-0.241-0.015-0.361c0.002-0.174-0.654,0.155-0.277,0.325
					c0.525,0.237,0.897,0.791,1.088,1.306c0.465,1.259,0.074,2.693,0.059,3.989c-0.008,0.746,1.212-0.036,1.219-0.586
					c0.016-1.438,0.283-3.591-0.637-4.819c-0.488-0.651-1.602-1.537-2.24-0.513c-0.5,0.8-0.181,1.852,0.029,2.7
					c0.234,0.947,0.545,1.913,0.977,2.792c0.341-0.245,0.683-0.489,1.023-0.734c-0.636-1.221-1.535-3.104-2.968-3.574
					c-0.903-0.297-1.619,0.506-1.894,1.27c-0.97,2.688,2.691,4.527,4.839,3.841C35.844,116.585,36.749,115.688,36.135,115.575
					L36.135,115.575z"/>
			</g>
		</g>
		<g>
			<g>
				<path d="M15.041,155.83c-1.881-0.653-3.843-3.218-4.365-5.081c-0.134-0.478,0.164-0.263-0.207-0.155
					c0.246-0.071,0.578,0.062,0.81,0.128c0.688,0.2,1.047,0.973,1.311,1.569c0.311,0.7,0.507,1.455,0.709,2.191
					c0.162,0.589,0.222,1.368,0.549,1.885c0.351,0.552,1.146-0.29,1.053-0.754c-0.179-0.883-0.587-1.802-0.856-2.67
					c-0.276-0.893-0.62-1.76-1.174-2.518c-0.656-0.897-2.39-1.264-3.043-0.171c-0.653,1.096,0.408,2.509,1.023,3.372
					c0.865,1.216,2.104,2.622,3.605,3.023C14.826,156.749,15.484,155.984,15.041,155.83L15.041,155.83z"/>
			</g>
		</g>
		<g>
			<g>
				<path d="M15.192,155.962c0.11-0.981-0.326-2.152-0.452-3.124c-0.09-0.694-0.135-1.396-0.138-2.096
					c-0.001-0.3,0.029-0.594,0.096-0.887c0.043-0.188-0.056-0.082,0.173,0.096c0.727,0.567,0.287,2.577,0.177,3.312
					c-0.14,0.936-0.299,1.963-0.653,2.847c-0.324,0.806,0.747,0.546,0.957,0.012c0.509-1.289,2.103-7.059-0.19-7.337
					c-1.525-0.185-1.682,2-1.66,2.98c0.021,0.916,0.202,1.84,0.381,2.735c0.104,0.52,0.219,1.571,0.718,1.889
					C14.864,156.557,15.164,156.207,15.192,155.962L15.192,155.962z"/>
			</g>
		</g>
		<g>
			<g>
				<path d="M51.199,7.584c2.215-1.438,4.043-4.82,3.789-7.502c-0.019-0.195-0.287,0.004-0.308,0.113
					c-0.503,2.707-1.143,5.505-3.55,7.203C51,7.49,51.024,7.698,51.199,7.584L51.199,7.584z"/>
			</g>
		</g>
		<g>
			<g>
				<path d="M53.142,7.206c0.38-1.614,1.146-2.702,2.344-3.812c0.086-0.08,0.082-0.273-0.072-0.19
					c-1.46,0.788-2.226,2.527-2.557,4.072C52.812,7.485,53.11,7.336,53.142,7.206L53.142,7.206z"/>
			</g>
		</g>
		<g>
			<g>
				<path d="M53.251,10.115c0.539-1.493,1.666-2.494,2.955-3.348c0.119-0.078,0.157-0.345-0.043-0.244
					c-1.487,0.747-2.693,2.111-3.25,3.676C52.831,10.432,53.198,10.261,53.251,10.115L53.251,10.115z"/>
			</g>
		</g>
		<g>
			<g>
				<path d="M28.976,20.291c-1.216-0.245-2.464-0.259-3.684-0.498c-1.463-0.287-2.312-1.109-3.407-2.021
					c-0.116-0.096-0.338,0.119-0.288,0.245c1.033,2.565,4.845,2.582,7.136,2.682C28.883,20.705,29.188,20.334,28.976,20.291
					L28.976,20.291z"/>
			</g>
		</g>
		<g>
			<g>
				<path d="M26.123,21.734c-0.805-0.288-2.058-0.467-2.569,0.422c-0.054,0.093,0.027,0.152,0.112,0.113
					c0.353-0.157,0.617-0.355,1.019-0.392c0.404-0.036,0.811,0.078,1.19,0.204C26.035,22.135,26.308,21.8,26.123,21.734
					L26.123,21.734z"/>
			</g>
		</g>
		<g>
			<g>
				<path d="M25.747,22.73c-0.545,0.288-1.037,0.651-1.464,1.098c-0.334,0.349-0.745,0.802-0.808,1.297
					c-0.013,0.102,0.132,0.031,0.161,0.004c0.336-0.316,0.565-0.728,0.883-1.064c0.377-0.401,0.812-0.728,1.284-1.01
					C25.971,22.955,26.004,22.594,25.747,22.73L25.747,22.73z"/>
			</g>
		</g>
		<g>
			<g>
				<path d="M41.928,22.541c-1.681-0.117-2.844-1.196-3.656-2.603c-0.11-0.19-0.449,0.104-0.379,0.271
					c0.637,1.511,2.106,2.884,3.844,2.731C41.895,22.927,42.193,22.561,41.928,22.541L41.928,22.541z"/>
			</g>
		</g>
		<g>
			<g>
				<path d="M41.962,22.143c-0.451-0.135-0.821-0.357-1.124-0.72c-0.305-0.363-0.316-0.835-0.561-1.21
					c-0.064-0.1-0.225,0.086-0.239,0.143c-0.253,1.047,0.758,1.918,1.664,2.15C41.87,22.549,42.155,22.2,41.962,22.143
					L41.962,22.143z"/>
			</g>
		</g>
		<g>
			<g>
				<path d="M50.369,38.424c1.793-1.281,4.266-2.094,5.204-4.265c0.106-0.245-0.192-0.186-0.289-0.05
					c-0.768,1.072-1.596,1.847-2.715,2.542c-0.802,0.498-1.635,0.929-2.308,1.603C50.149,38.366,50.214,38.534,50.369,38.424
					L50.369,38.424z"/>
			</g>
		</g>
		<g>
			<g>
				<path d="M51.001,38.146c0.848-0.367,1.702-0.699,2.593-0.947c0.806-0.223,1.636-0.24,2.451-0.396
					c0.077-0.015,0.297-0.265,0.142-0.292c-1.721-0.306-3.662,0.628-5.189,1.324C50.831,37.912,50.74,38.26,51.001,38.146
					L51.001,38.146z"/>
			</g>
		</g>
		<g>
			<g>
				<path d="M51.036,38.087c0.462,0.162,0.923,0.325,1.379,0.502c0.513,0.198,1.023,0.532,1.562,0.631
					c0.113,0.021,0.343-0.155,0.234-0.275c-0.327-0.362-0.87-0.508-1.316-0.678c-0.526-0.201-1.065-0.368-1.602-0.539
					C51.128,37.674,50.846,38.021,51.036,38.087L51.036,38.087z"/>
			</g>
		</g>
		<g>
			<g>
				<path d="M35.323,36.898c-1.726,1.672-3.624,4.432-3.271,6.98c0.021,0.144,0.203-0.008,0.223-0.082
					c0.306-1.139,0.443-2.246,0.898-3.353c0.523-1.275,1.371-2.388,2.335-3.36C35.697,36.895,35.515,36.713,35.323,36.898
					L35.323,36.898z"/>
			</g>
		</g>
		<g>
			<g>
				<path d="M33.732,38.142c-1.068,1.144-2.636,2.591-2.872,4.218c-0.03,0.204,0.215,0.06,0.265-0.033
					c0.369-0.698,0.678-1.389,1.14-2.038c0.496-0.695,1.089-1.32,1.667-1.947C34.124,38.133,33.929,37.932,33.732,38.142
					L33.732,38.142z"/>
			</g>
		</g>
		<g>
			<g>
				<path d="M36.699,58.957c-1.356-1.4-3.48-2.658-5.481-2.658c-0.072,0-0.242,0.174-0.126,0.213
					c2.003,0.664,3.811,1.133,5.373,2.68C36.562,59.288,36.795,59.055,36.699,58.957L36.699,58.957z"/>
			</g>
		</g>
		<g>
			<g>
				<path d="M37.375,59.734c-1.745-2.845-7.229-1.784-8.274,1.294c-0.066,0.195,0.205,0.071,0.259,0.004
					c1.76-2.194,5.63-3.795,7.777-1.097C37.211,60.029,37.432,59.827,37.375,59.734L37.375,59.734z"/>
			</g>
		</g>
		<g>
			<g>
				<path d="M50.115,70.791c-0.902-0.643-1.63-1.426-2.197-2.378c-0.532-0.894-0.662-1.869-0.975-2.836
					c-0.041-0.13-0.222,0.065-0.228,0.136c-0.178,2.169,1.357,4.326,3.189,5.324C50.005,71.092,50.215,70.862,50.115,70.791
					L50.115,70.791z"/>
			</g>
		</g>
		<g>
			<g>
				<path d="M49.639,70.018c-1.079-1.675-1.339-3.89-0.056-5.495c0.086-0.108-0.013-0.178-0.115-0.115
					c-1.927,1.182-1.126,4.391-0.108,5.89C49.445,70.424,49.728,70.156,49.639,70.018L49.639,70.018z"/>
			</g>
		</g>
		<g>
			<g>
				<path d="M61.395,70.053c0.586,0.229,1.145,0.493,1.662,0.854c0.488,0.342,0.803,0.815,1.231,1.212
					c0.106,0.099,0.31-0.115,0.27-0.229c-0.407-1.154-1.896-1.764-2.954-2.127C61.471,69.716,61.24,69.993,61.395,70.053
					L61.395,70.053z"/>
			</g>
		</g>
		<g>
			<g>
				<path d="M62.343,70.224c1.718-0.14,3.187,0.059,4.788,0.683c0.126,0.048,0.396-0.216,0.265-0.312
					c-1.354-0.985-3.337-0.848-4.908-0.67C62.359,69.938,62.16,70.239,62.343,70.224L62.343,70.224z"/>
			</g>
		</g>
		<g>
			<g>
				<path d="M65.248,68.498c0.705,0.02,1.322,0.234,1.975,0.479c0.137,0.051,0.372-0.213,0.219-0.305
					c-0.613-0.365-1.317-0.512-2.025-0.521C65.26,68.148,65.032,68.492,65.248,68.498L65.248,68.498z"/>
			</g>
		</g>
		<g>
			<g>
				<path d="M37.274,77.669c-2.354,1.912-5.398,4.101-6.054,7.266c-0.032,0.158,0.177,0.054,0.212-0.026
					c1.307-2.981,3.495-4.895,5.957-6.929C37.59,77.813,37.545,77.449,37.274,77.669L37.274,77.669z"/>
			</g>
		</g>
		<g>
			<g>
				<path d="M36.533,77.943c-1.823,1.416-4.32,2.254-5.252,4.546c-0.084,0.207,0.164,0.164,0.244,0.043
					c1.328-1.994,3.312-2.853,5.105-4.327C36.798,78.066,36.768,77.762,36.533,77.943L36.533,77.943z"/>
			</g>
		</g>
		<g>
			<g>
				<path d="M61.41,88.414c0.102-2.216-0.255-5.488-2.057-7.027c-0.087-0.075-0.266,0.094-0.223,0.189
					c0.483,1.081,1.071,2.043,1.412,3.192c0.367,1.236,0.454,2.521,0.545,3.8C61.103,88.778,61.404,88.548,61.41,88.414
					L61.41,88.414z"/>
			</g>
		</g>
		<g>
			<g>
				<path d="M61.303,86.123c0.333-1.493,0.46-3.16-0.245-4.568c-0.076-0.153-0.32,0.079-0.285,0.205
					c0.417,1.502,0.549,2.892,0.255,4.432C60.988,86.395,61.274,86.249,61.303,86.123L61.303,86.123z"/>
			</g>
		</g>
		<g>
			<g>
				<path d="M62.238,85.493c0.389-0.883,0.698-2.052,0.478-3.015c-0.033-0.144-0.254,0.059-0.269,0.129
					c-0.195,0.979-0.131,1.936-0.521,2.882C61.815,85.754,62.164,85.663,62.238,85.493L62.238,85.493z"/>
			</g>
		</g>
		<g>
			<g>
				<path d="M52.656,103c1.429,1.567,2.373,3.274,2.749,5.368c0.033,0.185,0.365-0.081,0.36-0.215
					c-0.082-2.148-1.333-3.983-2.758-5.505C52.869,102.501,52.518,102.848,52.656,103L52.656,103z"/>
			</g>
		</g>
		<g>
			<g>
				<path d="M53.67,103.236c0.85,0.878,1.495,1.89,1.914,3.039c0.066,0.18,0.366-0.089,0.33-0.236
					c-0.307-1.217-1.047-2.246-1.92-3.127C53.861,102.779,53.539,103.1,53.67,103.236L53.67,103.236z"/>
			</g>
		</g>
		<g>
			<g>
				<path d="M33.519,112.69c-1.139-2.247-1.714-4.23-1.462-6.767c0.018-0.181-0.249,0.025-0.276,0.102
					c-0.848,2.354,0.287,4.854,1.365,6.933C33.245,113.148,33.6,112.852,33.519,112.69L33.519,112.69z"/>
			</g>
		</g>
		<g>
			<g>
				<path d="M33.52,111.772c-0.178-0.691-0.303-1.381-0.34-2.094c-0.043-0.808,0.193-1.53,0.363-2.303
					c0.035-0.162-0.173-0.08-0.222-0.004c-0.876,1.384-0.583,3.177-0.177,4.67C33.198,112.239,33.565,111.95,33.52,111.772
					L33.52,111.772z"/>
			</g>
		</g>
		<g>
			<g>
				<path d="M41.57,129.409c0.758-1.538,1.688-3.647,1.472-5.396c-0.021-0.165-0.227,0.012-0.25,0.093
					c-0.246,0.834-0.317,1.72-0.524,2.567c-0.231,0.946-0.591,1.854-1.008,2.732C41.138,129.661,41.49,129.572,41.57,129.409
					L41.57,129.409z"/>
			</g>
		</g>
		<g>
			<g>
				<path d="M42.302,128.125c0.494-0.662,1.019-1.316,1.406-2.049c0.1-0.189-0.153-0.143-0.229-0.04
					c-0.49,0.657-0.957,1.332-1.45,1.987C41.846,128.268,42.162,128.312,42.302,128.125L42.302,128.125z"/>
			</g>
		</g>
		<g>
			<g>
				<path d="M38.261,149.863c-0.239-1.307-0.38-2.615-0.425-3.943c-0.045-1.348,0.184-2.659,0.227-3.999
					c0.006-0.19-0.262,0.021-0.289,0.105c-0.788,2.535-0.376,5.54,0.13,8.093C37.94,150.304,38.292,150.033,38.261,149.863
					L38.261,149.863z"/>
			</g>
		</g>
		<g>
			<g>
				<path d="M38.761,149.405c-0.071-0.629-0.088-1.248-0.043-1.879s0.276-1.222,0.324-1.846c0.012-0.155-0.208,0.007-0.236,0.06
					c-0.593,1.113-0.552,2.621-0.402,3.837C38.431,149.802,38.779,149.566,38.761,149.405L38.761,149.405z"/>
			</g>
		</g>
		<g>
			<g>
				<path d="M60.001,152.319c1.424-0.699,3.263-1.84,3.747-3.453c0.062-0.212-0.229-0.098-0.29-0.005
					c-0.456,0.696-0.92,1.312-1.566,1.849c-0.603,0.5-1.285,0.891-1.942,1.313C59.803,152.117,59.759,152.438,60.001,152.319
					L60.001,152.319z"/>
			</g>
		</g>
		<g>
			<g>
				<path d="M60.058,151.909c1.061-2.116,3.58-4.155,3.34-6.739c-0.018-0.189-0.269,0.011-0.292,0.107
					c-0.341,1.379-0.725,2.507-1.533,3.694c-0.653,0.958-1.321,1.871-1.8,2.934C59.664,152.145,59.984,152.056,60.058,151.909
					L60.058,151.909z"/>
			</g>
		</g>
		<g>
			<g>
				<path d="M48.322,165.239c-0.871,1.473-1.943,4.591-0.377,5.972c0.117,0.104,0.333-0.122,0.29-0.247
					c-0.688-2.012-0.635-3.82,0.44-5.721C48.834,164.963,48.424,165.067,48.322,165.239L48.322,165.239z"/>
			</g>
		</g>
		<g>
			<g>
				<path d="M47.824,165.239c-0.507,0.997-1.031,1.987-1.506,3c-0.142,0.303,0.266,0.186,0.361,0.004
					c0.524-0.985,1.001-1.998,1.494-3C48.315,164.957,47.916,165.058,47.824,165.239L47.824,165.239z"/>
			</g>
		</g>
		<g>
			<g>
				<path d="M13.102,152.485c-0.136-2.729-1.583-5.944-3.745-7.686c-0.087-0.071-0.285,0.099-0.229,0.194
					c0.705,1.186,1.624,2.217,2.305,3.429c0.734,1.309,1.2,2.741,1.298,4.24C12.746,152.896,13.109,152.651,13.102,152.485
					L13.102,152.485z"/>
			</g>
		</g>
		<g>
			<g>
				<path d="M13.25,151.91c0.161-1.729,0.15-3.946-1.117-5.303c-0.103-0.109-0.334,0.125-0.284,0.241
					c0.317,0.754,0.686,1.44,0.89,2.239c0.248,0.972,0.24,1.991,0.176,2.984C12.901,152.276,13.236,152.055,13.25,151.91
					L13.25,151.91z"/>
			</g>
		</g>
		<g>
			<g>
				<path d="M16.825,132.733c-1.306,1.254-2.6,3.582-2.242,5.46c0.034,0.179,0.315-0.075,0.333-0.161
					c0.392-1.924,0.645-3.635,2.091-5.117C17.19,132.728,17.014,132.552,16.825,132.733L16.825,132.733z"/>
			</g>
		</g>
		<g>
			<g>
				<path d="M14.997,133.367c-0.38,0.139-0.621,0.716-0.794,1.048c-0.246,0.477-0.538,1.118-0.473,1.665
					c0.029,0.243,0.329-0.02,0.365-0.134c0.162-0.517,0.267-1.028,0.492-1.526c0.147-0.324,0.459-0.625,0.549-0.963
					C15.164,133.354,15.071,133.34,14.997,133.367L14.997,133.367z"/>
			</g>
		</g>
		<g>
			<g>
				<path d="M19.256,115.415c1.063-1.007,2.394-2.531,2.407-4.086c0.002-0.22-0.292,0.031-0.323,0.119
					c-0.537,1.489-1.192,2.612-2.266,3.785C18.897,115.426,19.065,115.596,19.256,115.415L19.256,115.415z"/>
			</g>
		</g>
		<g>
			<g>
				<path d="M20.417,115.31c0.965-0.394,1.535-1.473,1.698-2.451c0.05-0.3-0.358-0.08-0.4,0.1c-0.205,0.88-0.594,1.563-1.346,2.075
					C20.234,115.125,20.184,115.404,20.417,115.31L20.417,115.31z"/>
			</g>
		</g>
		<g>
			<g>
				<path d="M16.013,101.135c0.807,0.056,1.516,0.371,2.148,0.867c0.556,0.436,0.821,1.042,1.287,1.54
					c0.096,0.103,0.308-0.104,0.29-0.209c-0.255-1.529-2.185-2.49-3.587-2.485C16.027,100.849,15.83,101.122,16.013,101.135
					L16.013,101.135z"/>
			</g>
		</g>
		<g>
			<g>
				<path d="M16.697,101.262c0.492,0.094,0.983,0.189,1.474,0.294c0.443,0.095,0.884,0.265,1.34,0.251
					c0.082-0.003,0.318-0.19,0.198-0.275c-0.357-0.252-0.831-0.287-1.253-0.373c-0.509-0.104-1.02-0.19-1.53-0.279
					C16.769,100.852,16.513,101.227,16.697,101.262L16.697,101.262z"/>
			</g>
		</g>
		<g>
			<g>
				<path d="M3.987,108.146c-0.662,0.769-1.417,1.449-2.08,2.217c-0.478,0.553-1.132,1.342-1.128,2.11
					c0.001,0.146,0.198,0.03,0.236-0.028c0.489-0.767,0.862-1.525,1.473-2.219c0.572-0.649,1.183-1.262,1.727-1.937
					C4.373,108.095,4.129,107.982,3.987,108.146L3.987,108.146z"/>
			</g>
		</g>
		<g>
			<g>
				<path d="M3.33,108.573c-1.087,0.572-2.317,1.1-3.239,1.926c-0.1,0.089-0.089,0.277,0.077,0.204
					c1.095-0.485,2.115-1.215,3.166-1.794C3.503,108.816,3.602,108.43,3.33,108.573L3.33,108.573z"/>
			</g>
		</g>
		<g>
			<g>
				<path d="M17.009,83.573c0.089-1.351-0.204-3.466-1.495-4.219c-0.097-0.057-0.282,0.139-0.234,0.234
					c0.303,0.601,0.712,1.11,0.954,1.749c0.293,0.771,0.343,1.594,0.422,2.405C16.678,83.978,17,83.717,17.009,83.573L17.009,83.573
					z"/>
			</g>
		</g>
		<g>
			<g>
				<path d="M17.452,83.69c0.192-1.104,0.622-2.091,1.061-3.114c0.134-0.312-0.265-0.18-0.361-0.004
					c-0.549,0.989-0.922,2.104-1.105,3.22C16.996,84.092,17.419,83.882,17.452,83.69L17.452,83.69z"/>
			</g>
		</g>
	</g>
</g>
<g id="DESIGNED_BY_FREEPIK">
</g>
</svg>
