<?xml version="1.0" encoding="utf-8"?>
<!-- Generator: Adobe Illustrator 16.0.0, SVG Export Plug-In . SVG Version: 6.00 Build 0)  -->
<!DOCTYPE svg PUBLIC "-//W3C//DTD SVG 1.1//EN" "http://www.w3.org/Graphics/SVG/1.1/DTD/svg11.dtd">
<svg version="1.1" xmlns="http://www.w3.org/2000/svg" xmlns:xlink="http://www.w3.org/1999/xlink" x="0px" y="0px"
	 width="52.895px" height="142.177px" viewBox="0 0 52.895 142.177" enable-background="new 0 0 52.895 142.177"
	 xml:space="preserve">
<g id="BACKGROUND">
</g>
<g id="OBJECTS">
	<g>
		<g>
			<g>
				<path d="M18.13,140.858c0.079-3.928,0.289-7.852,0.364-11.779c0.076-3.954,0.679-7.919,1.123-11.845
					c0.906-8.003,1.407-16.032,2.148-24.05c0.755-8.159,1.693-16.3,2.673-24.435c0.489-4.055,0.977-8.11,1.45-12.167
					c0.478-4.085,0.81-8.229,1.595-12.269c1.135-5.849,3.419-11.418,4.19-17.346c0.116-0.89-1.126-0.275-1.199,0.3
					c-0.468,3.669-1.5,7.217-2.501,10.768c-1.01,3.579-1.827,7.143-2.27,10.838c-0.975,8.149-2.104,16.279-3.083,24.427
					c-1.938,16.122-3.031,32.314-4.895,48.44c-0.764,6.611-1.864,13.298-1.376,19.971C16.435,142.859,18.114,141.615,18.13,140.858
					L18.13,140.858z"/>
			</g>
		</g>
		<g>
			<g>
				<path d="M22.236,89.922c0.949-2.701,1.685-5.491,2.905-8.089c1.32-2.808,3.553-5.113,5.857-7.143
					c2.553-2.25,5.221-4.367,7.845-6.533c1.179-0.973,2.357-1.946,3.489-2.973c1.017-0.923,2.181-1.745,2.947-2.885
					c-0.275-0.048-0.552-0.097-0.827-0.145c-3.034,5.102-5.671,10.387-8.963,15.341c-1.642,2.471-3.375,4.987-5.385,7.173
					c-1.048,1.141-2.183,2.295-3.383,3.275c-1.241,1.013-2.625,2.198-4.317,1.949c-0.478-0.07-1.136,0.984-0.498,1.034
					c1.407,0.11,2.444-0.46,3.564-1.248c1.256-0.884,2.515-1.769,3.66-2.794c2.417-2.165,4.642-4.663,6.492-7.325
					c3.773-5.426,6.79-11.488,9.735-17.394c0.371-0.743-0.663-0.472-0.906-0.012c-0.674,1.274-2.086,2.287-3.143,3.241
					c-1.322,1.194-2.72,2.313-4.093,3.45c-2.644,2.189-5.206,4.516-7.908,6.629c-2.299,1.798-4.072,3.684-5.339,6.343
					c-1.258,2.638-1.88,5.527-2.645,8.332C21.144,90.82,22.105,90.293,22.236,89.922L22.236,89.922z"/>
			</g>
		</g>
		<g>
			<g>
				<path d="M19.12,116.621c0.343-3.265-0.712-6.094-2.318-8.896c-0.801-1.396-1.678-2.748-2.486-4.14
					c-0.941-1.621-1.64-3.332-2.354-5.06C8.674,90.575,5.263,82.688,1.58,74.914c-0.229-0.482-0.88,0.178-0.954,0.46
					c-1.873,7.16,0.778,14.902,3.721,21.394c1.607,3.546,3.547,6.918,5.749,10.127c2.222,3.24,4.475,6.578,7.86,8.712
					c0.586,0.369,1.798-1.035,1.053-1.472c-3.155-1.852-5.669-5.019-7.66-8.051c-2.078-3.163-3.882-6.537-5.477-9.967
					c-1.614-3.472-2.942-7.105-3.828-10.833c-0.775-3.262-1.2-6.846-0.461-10.15c-0.318,0.153-0.636,0.307-0.954,0.46
					c3.894,7.311,7.462,14.727,10.293,22.519c0.627,1.727,1.191,3.461,2.004,5.112c0.713,1.447,1.542,2.836,2.33,4.242
					c1.632,2.909,3.18,6.071,3.179,9.482C18.435,117.396,19.092,116.896,19.12,116.621L19.12,116.621z"/>
			</g>
		</g>
		<g>
			<g>
				<path d="M31.201,26.525c-1.24,0.16-2.291,5.14-3.886,3.437c-0.679-0.725,3.061-2.656,3.539-2.952
					c0.215-0.132,0.523-0.684,0.09-0.733c-0.45-0.051-0.961,0.322-1.33,0.537c-0.619,0.36-1.209,0.766-1.763,1.22
					c-0.716,0.587-2.106,1.791-1.437,2.829c0.296,0.459,1.071,0.541,1.549,0.478c0.779-0.102,1.526-0.781,1.99-1.359
					c0.52-0.646,0.91-1.401,1.283-2.139C31.4,27.521,32.014,26.42,31.201,26.525L31.201,26.525z"/>
			</g>
		</g>
		<g>
			<g>
				<path d="M30.466,26.875c0.248,2.385,0.697,4.788,1.618,7.012c0.141,0.34,0.584,0.062,0.751-0.089
					c2.082-1.894,1.044-5.695-0.918-7.354c-0.342-0.289-1.133,0.401-0.906,0.77c0.969,1.577,3.243,4.33,1.301,6.062
					c0.251-0.03,0.501-0.06,0.751-0.089c-0.859-2.186-1.129-4.521-1.895-6.729C31.042,26.092,30.438,26.614,30.466,26.875
					L30.466,26.875z"/>
			</g>
		</g>
		<g>
			<g>
				<path d="M30.759,26.684c0.793,0.535,1.621,1.011,2.366,1.615c0.392,0.317,0.735,0.681,0.967,1.131
					c0.308,0.596,0.045,1.057-0.216,1.601c-0.27,0.562,0.443,0.414,0.665,0.116c1.811-2.423-1.574-4.093-3.214-5.132
					C31.063,25.849,30.488,26.501,30.759,26.684L30.759,26.684z"/>
			</g>
		</g>
		<g>
			<g>
				<path d="M28.392,30.644c-0.143,0.578-0.172,1.249,0.331,1.664c0.474,0.392,1.28,0.238,1.719-0.12
					c0.153-0.126,0.585-0.762,0.093-0.758c-0.367,0.003-0.707,0.245-1.039-0.023c-0.3-0.242-0.268-0.747-0.228-1.084
					c0.023-0.192-0.191-0.254-0.337-0.217C28.685,30.166,28.453,30.396,28.392,30.644L28.392,30.644z"/>
			</g>
		</g>
		<g>
			<g>
				<path d="M31.358,27.342c2.057,0.268,4.043-0.464,5.979-1.042c2.121-0.634,4.139-1.563,6.086-2.607
					c1.723-0.924,3.378-2.038,4.797-3.386c1.312-1.247,2.883-3.2,2.914-5.097c0.006-0.377-0.52,0.04-0.571,0.209
					c-1.206,3.952-4.597,6.36-8.156,8.144c-1.649,0.826-3.419,1.442-5.198,1.923c-1.689,0.456-3.52,0.452-5.254,0.619
					C31.471,26.151,30.524,27.233,31.358,27.342L31.358,27.342z"/>
			</g>
		</g>
		<g>
			<g>
				<path d="M32.029,28.1c2.496,1.833,5.856,0.979,8.579,0.213c1.562-0.44,3.092-0.975,4.647-1.436
					c1.535-0.455,3.21-0.742,4.558-1.649c0.282-0.19,0.38-0.745-0.099-0.565c-2.806,1.057-5.612,2.125-8.552,2.772
					c-2.623,0.578-5.819,0.798-8.341-0.269C32.444,27.007,31.641,27.814,32.029,28.1L32.029,28.1z"/>
			</g>
		</g>
		<g>
			<g>
				<path d="M34.621,30.634c1.478,1.107,4.268,2.06,6.1,1.379c0.087-0.032,0.3-0.289,0.128-0.347
					c-0.847-0.288-1.84-0.177-2.73-0.416c-0.968-0.26-1.994-0.867-2.869-1.356C34.954,29.73,34.324,30.412,34.621,30.634
					L34.621,30.634z"/>
			</g>
		</g>
		<g>
			<g>
				<path d="M29.928,26.476c-0.707,0.061-1.352,0.396-2.055,0.484c-0.587,0.072-1.176-0.019-1.719,0.228
					c-0.075,0.034-0.27,0.229-0.155,0.318c0.434,0.341,1.257,0.171,1.785,0.155c0.77-0.023,1.371-0.019,2.051-0.435
					C30.009,27.12,30.394,26.436,29.928,26.476L29.928,26.476z"/>
			</g>
		</g>
		<g>
			<g>
				<path d="M30.65,26.107c-2.815-0.895-5.754-1.54-8.4-2.884c-1.34-0.681-2.576-1.624-3.719-2.593
					c-0.742-0.63-1.265-1.443-1.727-2.29c-0.465-0.852-0.454-1.826-0.795-2.718c-0.09-0.234-0.495,0.1-0.466,0.277
					c0.141,0.825,0.263,1.663,0.533,2.456c0.278,0.819,0.889,1.579,1.329,2.315c0.811,1.357,1.828,2.393,3.169,3.22
					c2.842,1.754,6.248,2.381,9.462,3.073C30.421,27.046,31.12,26.256,30.65,26.107L30.65,26.107z"/>
			</g>
		</g>
		<g>
			<g>
				<path d="M29.806,25.761c-0.713-0.504-1.293-1.185-1.887-1.821c-0.281-0.302-0.53-0.632-0.771-0.967
					c-0.238-0.332-0.396-0.699-0.772-0.88c-0.104-0.05-0.223,0.109-0.229,0.195c-0.057,0.815,0.7,1.643,1.191,2.235
					c0.597,0.72,1.357,1.173,2.199,1.555C29.665,26.137,29.937,25.855,29.806,25.761L29.806,25.761z"/>
			</g>
		</g>
		<g>
			<g>
				<path d="M25.409,20.024c-0.094-0.296-0.18-0.594-0.254-0.896c-0.063-0.258-0.059-0.479-0.204-0.7
					c-0.097-0.146-0.346,0.125-0.362,0.218c-0.101,0.555,0.226,1.149,0.439,1.651C25.114,20.501,25.464,20.195,25.409,20.024
					L25.409,20.024z"/>
			</g>
		</g>
		<g>
			<g>
				<path d="M31.681,26.214c-0.502-0.957-0.923-1.789-1.174-2.851c-0.271-1.146,0.188-2.452-0.16-3.527
					c-0.066-0.207-0.357,0.085-0.383,0.185c-0.29,1.14,0.069,2.466,0.049,3.637c-0.018,1.029,0.343,2.327,1.149,2.998
					C31.362,26.821,31.797,26.434,31.681,26.214L31.681,26.214z"/>
			</g>
		</g>
		<g>
			<g>
				<path d="M30.396,18.366c0.043-0.203,0.079-0.406,0.122-0.609c0.033-0.158-0.18-0.057-0.214,0.027
					c-0.085,0.208-0.162,0.417-0.247,0.625C29.941,18.693,30.352,18.581,30.396,18.366L30.396,18.366z"/>
			</g>
		</g>
		<g>
			<g>
				<path d="M31.91,26.574c2.777-1.508,5.001-3.791,6.457-6.599c0.116-0.224-0.182-0.169-0.271-0.047
					c-1.75,2.394-3.761,4.521-6.278,6.12C31.556,26.214,31.492,26.8,31.91,26.574L31.91,26.574z"/>
			</g>
		</g>
		<g>
			<g>
				<path d="M16.991,22.042c-0.764-0.349-1.504-0.727-2.202-1.194c-0.721-0.483-1.258-1.104-1.901-1.669
					c-0.036-0.032-0.111,0.04-0.094,0.08c0.687,1.544,2.571,2.39,4.027,3.02C16.927,22.324,17.113,22.099,16.991,22.042
					L16.991,22.042z"/>
			</g>
		</g>
		<g>
			<g>
				<path d="M12.388,18.111c0.237-0.06,0.397-0.011,0.605,0.103c0.041,0.022,0.12-0.063,0.085-0.1
					c-0.188-0.198-0.393-0.215-0.653-0.153C12.355,17.977,12.28,18.137,12.388,18.111L12.388,18.111z"/>
			</g>
		</g>
		<g>
			<g>
				<path d="M12.74,18.155c0.493-0.367,0.429-0.993,0.335-1.546c-0.061,0.051-0.12,0.103-0.18,0.154
					c0.226,0.132,0.462,0.243,0.688,0.375c0.085,0.05,0.19-0.105,0.176-0.176c-0.213-1.021-0.564-1.903-0.607-2.955
					c-0.003-0.072-0.094,0-0.108,0.027c-0.499,0.94,0.272,2.156,0.511,3.074c0.059-0.059,0.117-0.117,0.176-0.176
					c-0.226-0.132-0.462-0.243-0.688-0.375c-0.068-0.04-0.19,0.087-0.18,0.154c0.067,0.396,0.228,1.021-0.165,1.329
					C12.622,18.1,12.637,18.232,12.74,18.155L12.74,18.155z"/>
			</g>
		</g>
		<g>
			<g>
				<path d="M13.593,14.659c0.007,0.373,0.099,0.836,0.52,0.906c0.06,0.01,0.163-0.094,0.133-0.155
					c-0.162-0.32-0.373-0.477-0.4-0.872C13.833,14.378,13.591,14.548,13.593,14.659L13.593,14.659z"/>
			</g>
		</g>
		<g>
			<g>
				<path d="M14.432,17.101c-0.167-0.033-0.345-0.035-0.455,0.12c-0.124,0.173-0.091,0.403,0.107,0.479
					c0.07,0.026,0.162-0.062,0.174-0.126c-0.007,0.036,0.043-0.222,0.024-0.222C14.373,17.352,14.562,17.126,14.432,17.101
					L14.432,17.101z"/>
			</g>
		</g>
		<g>
			<g>
				<path d="M14.035,18.977c0.022-0.021,0.045-0.043,0.067-0.064c-0.054,0.02-0.107,0.04-0.162,0.06
					c0.07,0.033,0.141,0.064,0.212,0.094c0.068,0.029,0.195-0.09,0.159-0.16c-0.071-0.141-0.051-0.15-0.186-0.192
					c-0.057-0.018-0.124,0.019-0.161,0.06c-0.021,0.023-0.042,0.046-0.062,0.07C13.777,18.985,13.896,19.109,14.035,18.977
					L14.035,18.977z"/>
			</g>
		</g>
		<g>
			<g>
				<path d="M14.596,12.412c-0.032-0.396-0.173-1.954,0.626-1.442c0.523,0.334,0.832,1.005,1.038,1.563
					c0.033,0.09,0.189-0.044,0.168-0.12c-0.181-0.639-0.629-1.743-1.412-1.834c-0.882-0.103-0.725,1.526-0.674,1.956
					C14.36,12.695,14.605,12.526,14.596,12.412L14.596,12.412z"/>
			</g>
		</g>
		<g>
			<g>
				<path d="M16.71,13.712c0.253,0.514,0.454,1.042,0.685,1.564c0.035,0.082,0.166-0.041,0.148-0.106
					c-0.144-0.544-0.437-1.061-0.69-1.561C16.815,13.536,16.68,13.65,16.71,13.712L16.71,13.712z"/>
			</g>
		</g>
		<g>
			<g>
				<path d="M17.871,16.418c0.148,0.458,0.409,0.875,0.759,1.206c0.075,0.071,0.245-0.099,0.178-0.177
					c-0.312-0.359-0.586-0.713-0.741-1.169C18.031,16.175,17.842,16.327,17.871,16.418L17.871,16.418z"/>
			</g>
		</g>
		<g>
			<g>
				<path d="M17.176,11.245c-0.227-0.754-0.458-1.497-0.551-2.281c-0.071-0.597-0.068-2.087,1.049-1.871
					c0.165,0.032,0.336,0.124,0.511,0.097c0.892-0.137,1.131-1.007,1.297-1.798c0.022-0.107-0.119-0.036-0.143,0.018
					c-0.152,0.341-0.276,0.693-0.424,1.037c-0.637,1.48-0.811,0.216-1.311,0.363c-0.411,0.122-0.686,0.453-0.927,0.792
					c-0.782,1.098-0.124,2.727,0.209,3.85C16.932,11.603,17.217,11.381,17.176,11.245L17.176,11.245z"/>
			</g>
		</g>
		<g>
			<g>
				<path d="M20.328,3.321c0.468-1.517,1.466-1.984,2.864-2.413c0.227-0.07-0.118,1.379-0.141,1.478
					c-0.126,0.572-0.204,1.127-0.213,1.712c-0.001,0.122,0.153,0.044,0.196,0.004c0.272-0.251,0.128-0.157,0.126-0.105
					c-0.015,0.383-0.045,0.734,0.019,1.114c0.076,0.456,0.584,0.748,0.899,1.025c1.147,1.01,0.033,3.298-0.681,4.311
					c-0.092,0.131,0.067,0.141,0.141,0.052c0.64-0.779,1.109-2.131,1.202-3.123c0.056-0.599-0.112-0.935-0.541-1.361
					c-0.434-0.43-0.806-0.54-0.848-1.27c-0.021-0.356,0.027-0.72,0.041-1.076c0.004-0.102-0.135-0.042-0.17-0.004
					c0.014-0.015,0.101-1.218,0.131-1.355c0.124-0.563,0.25-1.118,0.332-1.688c0.011-0.077-0.029-0.143-0.116-0.117
					c-1.696,0.515-2.945,1.05-3.461,2.87C20.065,3.532,20.299,3.417,20.328,3.321L20.328,3.321z"/>
			</g>
		</g>
		<g>
			<g>
				<path d="M22.309,11.795c0.065,0,0.159-0.145,0.07-0.145C22.313,11.651,22.22,11.795,22.309,11.795L22.309,11.795z"/>
			</g>
		</g>
		<g>
			<g>
				<path d="M25.388,3.384c0.146-1.064,1.002-1.553,1.871-1.976c0.954-0.465,1.745-1.157,2.754-0.354c0.04,0.032,0.1,0,0.13-0.032
					c0.275-0.3,0.538-0.125,0.84-0.072c0.092,0.016,0.225-0.187,0.098-0.203c-0.255-0.034-1.013-0.002-1.228-0.13
					c-0.71-0.422-1.15-0.159-1.823,0.223c-1.197,0.68-2.663,1.049-2.857,2.625C25.156,3.586,25.376,3.47,25.388,3.384L25.388,3.384z
					"/>
			</g>
		</g>
		<g>
			<g>
				<path d="M24.903,1.255c0.099-0.324,0.229-0.633,0.503-0.847c0.306-0.238,0.668-0.052,0.969,0.07
					c0.1,0.041,0.313-0.17,0.21-0.247c-0.909-0.673-1.689,0.251-1.926,1.084C24.61,1.491,24.87,1.362,24.903,1.255L24.903,1.255z"/>
			</g>
		</g>
		<g>
			<g>
				<path d="M31.253,1.538c0.757,0.465,1.197,1.069,1.377,1.936c0.021,0.103,0.175-0.054,0.181-0.107
					c0.098-0.934-0.641-1.642-1.376-2.083C31.331,1.221,31.126,1.46,31.253,1.538L31.253,1.538z"/>
			</g>
		</g>
		<g>
			<g>
				<path d="M32.862,4.067c0.023,0.04,0.046,0.08,0.069,0.121c0.021,0.038,0.089-0.021,0.074-0.054
					c-0.019-0.043-0.037-0.086-0.056-0.129C32.93,3.959,32.842,4.03,32.862,4.067L32.862,4.067z"/>
			</g>
		</g>
		<g>
			<g>
				<path d="M33.855,4.982c1.212,0.402,1.804,1.42,1.92,2.649c0.151,1.609-0.854,2.443-2.212,2.988
					c-1.182,0.475-1.227,2.117-0.703,3.119c0.054,0.103,0.206-0.033,0.218-0.105c0.034-0.21-0.02-0.386-0.061-0.598
					c-0.233-1.202,0.004-2.043,1.282-2.502c0.698-0.25,1.124-0.703,1.456-1.355c0.812-1.601-0.137-3.8-1.799-4.339
					C33.891,4.818,33.78,4.957,33.855,4.982L33.855,4.982z"/>
			</g>
		</g>
		<g>
			<g>
				<path d="M34.852,3.418c0.364-0.381,0.729-0.494,1.196-0.282c0.316,0.144,0.514,0.428,0.816,0.583
					c0.048,0.025,0.112-0.058,0.101-0.101c-0.125-0.464-0.61-0.812-1.069-0.893c-0.474-0.084-0.885,0.226-1.185,0.552
					C34.575,3.425,34.711,3.566,34.852,3.418L34.852,3.418z"/>
			</g>
		</g>
		<g>
			<g>
				<path d="M38.165,3.673c1.355,0.333,3.691,0.412,4.146,2.039c0.047,0.168,0.353-0.079,0.316-0.227
					c-0.427-1.73-2.974-1.677-4.354-1.961C38.202,3.509,38.086,3.653,38.165,3.673L38.165,3.673z"/>
			</g>
		</g>
		<g>
			<g>
				<path d="M43.506,7.637c0.924-0.338,1.58,0.843,1.905,1.494c0.359,0.721,0.14,1.333-0.193,2.005
					c-0.597,1.207-1.666,2.926-2.938,3.501c-0.092,0.042-0.146,0.229,0.002,0.172c1.58-0.614,2.838-2.829,3.407-4.323
					c0.446-1.17-0.685-3.645-2.159-3.042C43.451,7.476,43.375,7.685,43.506,7.637L43.506,7.637z"/>
			</g>
		</g>
		<g>
			<g>
				<path d="M46.2,11.149c0.313,0.169,0.552,0.395,0.787,0.657c0.136,0.151,0.218,0.381,0.419,0.441
					c0.072,0.021,0.149-0.064,0.152-0.13c0.026-0.515-0.791-1.009-1.196-1.195C46.263,10.877,46.085,11.086,46.2,11.149L46.2,11.149
					z"/>
			</g>
		</g>
		<g>
			<g>
				<path d="M49.254,12.537c0.684,0.208,1.341,0.496,1.933,0.898c0.275,0.188,0.52,0.418,0.739,0.667
					c0.237,0.268,0.3,0.629,0.525,0.888c0.054,0.062,0.161-0.053,0.171-0.103c0.136-0.677-0.504-1.288-0.995-1.654
					c-0.64-0.479-1.419-0.774-2.193-0.949C49.319,12.259,49.117,12.495,49.254,12.537L49.254,12.537z"/>
			</g>
		</g>
		<g>
			<g>
				<path d="M52.065,17.163c1.364,0.39-0.309,2.096-0.297,2.909c0.001,0.097,0.137-0.006,0.148-0.055
					c0.202-0.804,1.873-2.758,0.33-3.109C52.13,16.882,51.929,17.124,52.065,17.163L52.065,17.163z"/>
			</g>
		</g>
		<g>
			<g>
				<path d="M51.749,21.539c0.061,0,0.146-0.132,0.064-0.132C51.753,21.407,51.668,21.539,51.749,21.539L51.749,21.539z"/>
			</g>
		</g>
		<g>
			<g>
				<path d="M51.74,21.681c0,0.062,0,0.125,0,0.188c0,0.05,0.082-0.002,0.082-0.04c0-0.062,0-0.125,0-0.188
					C51.822,21.59,51.74,21.643,51.74,21.681L51.74,21.681z"/>
			</g>
		</g>
		<g>
			<g>
				<path d="M51.529,22.534c0.081,1.19-2.021,1.782-2.886,2.077c-0.829,0.283-1.765,0.413-2.552,0.8
					c-0.094,0.046-0.232,0.296-0.032,0.262c1.307-0.225,2.662-0.722,3.875-1.248c0.785-0.34,1.986-0.988,1.849-2.014
					C51.762,22.25,51.521,22.422,51.529,22.534L51.529,22.534z"/>
			</g>
		</g>
		<g>
			<g>
				<path d="M51.148,24.481c1.455,0.932,0.432,2.358-0.156,3.491c-0.081,0.156,0.124,0.112,0.186,0.033
					c0.88-1.125,1.843-2.896,0.21-3.805C51.273,24.135,51.033,24.407,51.148,24.481L51.148,24.481z"/>
			</g>
		</g>
		<g>
			<g>
				<path d="M48.528,29.037c-1.721,0.017-4.97-0.666-5.93,1.311c-0.037,0.076,0.052,0.076,0.092,0.035
					c1.433-1.489,3.847-1.026,5.719-1.098C48.519,29.281,48.683,29.035,48.528,29.037L48.528,29.037z"/>
			</g>
		</g>
		<g>
			<g>
				<path d="M42.614,30.836c0.041,0.356,0.001,0.701-0.06,1.053c0.094-0.068,0.188-0.136,0.28-0.204
					c-0.309-0.096-0.753-0.006-0.963,0.252c-0.026,0.032-0.062,0.116-0.018,0.15c0.172,0.134,0.589-0.068,0.783-0.071
					c0.106-0.002,0.268-0.131,0.25-0.25c-0.051-0.344-0.008-0.689-0.064-1.032C42.802,30.604,42.604,30.743,42.614,30.836
					L42.614,30.836z"/>
			</g>
		</g>
		<g>
			<g>
				<path d="M17.601,24.638c0.346,0.121,0.65,0.31,0.929,0.546c0.146,0.125,0.271,0.274,0.356,0.446
					c0.129,0.26-0.229,0.387-0.39,0.497c-0.063,0.044-0.165,0.211-0.028,0.228c0.48,0.058,0.912-0.445,0.81-0.904
					c-0.127-0.563-0.95-0.982-1.44-1.142C17.685,24.259,17.427,24.577,17.601,24.638L17.601,24.638z"/>
			</g>
		</g>
		<g>
			<g>
				<path d="M18.645,27.11c0.745,0.567,0.849,1.832,1.692,2.248c1.175,0.58,1.852-0.308,2.82-0.771
					c0.086-0.041,0.209-0.288,0.03-0.241c-0.973,0.258-1.785,1.349-2.803,0.449c-0.651-0.576-0.709-1.481-1.493-1.977
					C18.778,26.749,18.529,27.022,18.645,27.11L18.645,27.11z"/>
			</g>
		</g>
		<g>
			<g>
				<path d="M23.49,28.889c0.282,0.242,0.528,0.255,0.82,0.038c0.082-0.061,0.12-0.233-0.03-0.175
					c-0.194-0.023-0.389-0.046-0.583-0.07C23.601,28.609,23.399,28.812,23.49,28.889L23.49,28.889z"/>
			</g>
		</g>
		<g>
			<g>
				<path d="M20.778,6.428c0.076,0.624,0.322,1.225,0.462,1.834c0.056,0.241,0.498-0.114,0.457-0.327
					c-0.111-0.568,0.014-1.413-0.385-1.892C21.143,5.839,20.755,6.243,20.778,6.428L20.778,6.428z"/>
			</g>
		</g>
		<g>
			<g>
				<path d="M18.731,8.533c-0.18,0.31,0.056,0.54,0.225,0.808c0.221,0.349,0.341,0.91,0.658,1.174
					c0.089,0.075,0.228-0.077,0.227-0.164c0-0.314-0.189-0.592-0.324-0.87c-0.155-0.318-0.265-0.637-0.312-0.989
					c-0.007-0.051-0.023-0.124-0.087-0.136c-0.024-0.005-0.05-0.009-0.074-0.014C18.905,8.316,18.796,8.421,18.731,8.533
					L18.731,8.533z"/>
			</g>
		</g>
		<g>
			<g>
				<path d="M22.085,13.712c0.066,0.169,0.109,0.284,0.236,0.408c0.017,0.016,0.051-0.017,0.048-0.034
					c-0.026-0.171-0.084-0.312-0.142-0.477C22.202,13.535,22.059,13.646,22.085,13.712L22.085,13.712z"/>
			</g>
		</g>
		<g>
			<g>
				<path d="M22.818,15.401c0.048,0,0.116-0.106,0.051-0.106C22.821,15.295,22.753,15.401,22.818,15.401L22.818,15.401z"/>
			</g>
		</g>
		<g>
			<g>
				<path d="M22.845,15.627c0.004,0.102,0.024,0.164,0.074,0.256c0.028,0.052,0.113-0.027,0.1-0.071
					c-0.031-0.078-0.048-0.16-0.051-0.244C22.965,15.493,22.843,15.572,22.845,15.627L22.845,15.627z"/>
			</g>
		</g>
		<g>
			<g>
				<path d="M28.686,3.818c0.085,0.285,0.289,0.56,0.43,0.826c0.158,0.296,0.046,0.834,0.06,1.163
					c0.003,0.057,0.078-0.006,0.086-0.032c0.138-0.435,0.102-0.832,0.108-1.282c0.005-0.339,0.035-0.798-0.267-1.028
					C28.923,3.328,28.63,3.632,28.686,3.818L28.686,3.818z"/>
			</g>
		</g>
		<g>
			<g>
				<path d="M26.536,5.093c0.505,0.36,0.381,1.179,0.622,1.674c0.026,0.054,0.101-0.011,0.115-0.042
					c0.169-0.366,0.224-0.801,0.172-1.199c-0.054-0.416-0.23-0.639-0.58-0.819C26.709,4.625,26.378,4.98,26.536,5.093L26.536,5.093z
					"/>
			</g>
		</g>
		<g>
			<g>
				<path d="M32.441,6.419c-0.006,0.183,0.002,0.365,0.007,0.548c0.008,0.29-0.156,0.503-0.227,0.771
					c-0.018,0.069,0.064,0.04,0.091,0.017c0.417-0.358,0.794-1.107,0.673-1.66C32.921,5.796,32.448,6.237,32.441,6.419L32.441,6.419
					z"/>
			</g>
		</g>
		<g>
			<g>
				<path d="M31.449,8.972c-0.246,0.487-0.552,0.946-0.785,1.438c-0.041,0.086,0.066,0.062,0.101,0.018
					c0.34-0.44,0.597-0.958,0.849-1.453C31.681,8.842,31.493,8.886,31.449,8.972L31.449,8.972z"/>
			</g>
		</g>
		<g>
			<g>
				<path d="M29.742,14.897c0.022,0.149,0.058,0.289,0.101,0.434c0.021,0.074,0.127-0.037,0.13-0.077
					c0.02-0.285,0.006-0.124-0.027-0.455C29.933,14.673,29.729,14.804,29.742,14.897L29.742,14.897z"/>
			</g>
		</g>
		<g>
			<g>
				<path d="M37.532,6.234c0.034,0.024,0.069,0.048,0.104,0.072c0.09,0.092,0.263-0.061,0.294-0.143
					c0.047-0.124,0.062-0.186,0.06-0.319C37.979,5.426,37.141,6.045,37.532,6.234L37.532,6.234z"/>
			</g>
		</g>
		<g>
			<g>
				<path d="M37.708,7.571c-0.229,0.304-0.562,0.786-0.493,1.184c0.014,0.077,0.105,0.006,0.124-0.031
					c0.188-0.369,0.266-0.753,0.516-1.099C37.951,7.492,37.783,7.471,37.708,7.571L37.708,7.571z"/>
			</g>
		</g>
		<g>
			<g>
				<path d="M38.748,7.174c0.038,0.351-0.119,0.634-0.119,0.968c-0.001,0.085,0.105,0.03,0.136,0.003
					c0.322-0.283,0.354-0.717,0.3-1.122C39.037,6.824,38.733,7.033,38.748,7.174L38.748,7.174z"/>
			</g>
		</g>
		<g>
			<g>
				<path d="M38.07,9.635c-0.104,0.292-0.226,0.699-0.456,0.921c-0.289,0.279,0.155,0.429,0.282,0.107
					c0.147-0.373,0.341-0.719,0.471-1.102C38.438,9.354,38.115,9.508,38.07,9.635L38.07,9.635z"/>
			</g>
		</g>
		<g>
			<g>
				<path d="M41.467,7.799c-0.26,0.202-0.331,0.557-0.455,0.85C40.9,8.912,40.599,9.3,40.675,9.594
					c0.02,0.077,0.121,0.053,0.171,0.033c0.549-0.227,0.802-1.142,0.952-1.663c0.026-0.094-0.004-0.162-0.082-0.211
					c-0.007-0.004-0.013-0.008-0.019-0.012C41.634,7.702,41.516,7.762,41.467,7.799L41.467,7.799z"/>
			</g>
		</g>
		<g>
			<g>
				<path d="M41.808,10.176c-0.01,0.166-0.067,0.298-0.099,0.456c-0.022,0.12,0.098,0.121,0.172,0.066
					c0.258-0.188,0.259-0.371,0.249-0.678C42.123,9.813,41.815,10.041,41.808,10.176L41.808,10.176z"/>
			</g>
		</g>
		<g>
			<g>
				<path d="M46.815,13.695c-0.463,0.482-1.075,1.032-1.263,1.694c-0.054,0.192,0.181,0.11,0.254,0.046
					c0.502-0.435,0.823-1.08,1.227-1.604C47.183,13.639,46.957,13.548,46.815,13.695L46.815,13.695z"/>
			</g>
		</g>
		<g>
			<g>
				<path d="M45.191,15.836c-0.182,0.126-0.356,0.254-0.518,0.405c-0.055,0.051-0.053,0.172,0.046,0.121
					c0.195-0.102,0.35-0.246,0.526-0.376C45.349,15.91,45.329,15.74,45.191,15.836L45.191,15.836z"/>
			</g>
		</g>
		<g>
			<g>
				<path d="M49.466,15.083c-0.074,0.272-0.197,0.5-0.354,0.734c-0.077,0.116-0.163,0.193-0.14,0.339
					c0.005,0.036,0.021,0.064,0.063,0.064c0.487-0.004,0.747-0.856,0.812-1.233C49.896,14.699,49.511,14.918,49.466,15.083
					L49.466,15.083z"/>
			</g>
		</g>
		<g>
			<g>
				<path d="M47.427,17.181c-0.45,0.522-1.03,0.796-1.543,1.231c-0.04,0.034-0.107,0.163,0.002,0.142
					c0.681-0.13,1.246-0.784,1.643-1.309C47.596,17.155,47.49,17.107,47.427,17.181L47.427,17.181z"/>
			</g>
		</g>
		<g>
			<g>
				<path d="M35.024,18.966c0.232-0.235,0.465-0.494,0.499-0.832c0.007-0.062-0.081-0.005-0.095,0.012
					c-0.182,0.232-0.316,0.488-0.516,0.709C34.808,18.972,34.911,19.081,35.024,18.966L35.024,18.966z"/>
			</g>
		</g>
		<g>
			<g>
				<path d="M35.802,17.856c0.154-0.256,0.352-0.476,0.457-0.757c0.022-0.062-0.048-0.047-0.072-0.013
					c-0.173,0.239-0.302,0.497-0.431,0.762C35.737,17.885,35.788,17.88,35.802,17.856L35.802,17.856z"/>
			</g>
		</g>
		<g>
			<g>
				<path d="M36.74,16.405c0.222-0.165,0.385-0.371,0.544-0.595c0.085-0.121-0.063-0.135-0.131-0.049
					c-0.145,0.186-0.27,0.378-0.456,0.53C36.624,16.351,36.636,16.483,36.74,16.405L36.74,16.405z"/>
			</g>
		</g>
		<g>
			<g>
				<path d="M42.72,18.024c0.175-0.095,0.318-0.188,0.416-0.363c0.03-0.054-0.039-0.056-0.066-0.025
					c-0.098,0.118-0.215,0.213-0.352,0.287C42.669,17.951,42.638,18.068,42.72,18.024L42.72,18.024z"/>
			</g>
		</g>
		<g>
			<g>
				<path d="M40.907,22.134c0.785-0.356,1.42-0.958,2.146-1.417c0.063-0.041,0.083-0.171-0.022-0.126
					c-0.77,0.327-1.386,0.958-2.125,1.346C40.806,21.989,40.741,22.21,40.907,22.134L40.907,22.134z"/>
			</g>
		</g>
		<g>
			<g>
				<path d="M41.161,20.219c0.277-0.002,0.689-0.125,0.647-0.477c-0.011-0.097-0.124-0.02-0.155,0.019
					c-0.082,0.132-0.207,0.204-0.377,0.216C41.177,19.986,41.007,20.22,41.161,20.219L41.161,20.219z"/>
			</g>
		</g>
		<g>
			<g>
				<path d="M32.2,16.884c0.1-0.419,0.361-0.548,0.707-0.737c0.019-0.01,0.094-0.091,0.038-0.104
					c-0.507-0.115-0.885,0.466-0.958,0.893C31.96,17.097,32.177,16.979,32.2,16.884L32.2,16.884z"/>
			</g>
		</g>
		<g>
			<g>
				<path d="M34.532,14.981c0.754-0.33,1.502-1.03,1.396-1.923c-0.014-0.111-0.164,0.012-0.168,0.08
					c-0.044,0.807-0.509,1.368-1.229,1.702C34.455,14.875,34.414,15.033,34.532,14.981L34.532,14.981z"/>
			</g>
		</g>
		<g>
			<g>
				<path d="M26.374,12.479c0.417,1.11-1.221,2.376-0.331,3.421c0.041,0.048,0.116-0.051,0.108-0.092
					c-0.084-0.428-0.204-0.764-0.089-1.203c0.082-0.314,0.271-0.594,0.41-0.883c0.22-0.453,0.296-0.908,0.091-1.378
					C26.521,12.243,26.342,12.393,26.374,12.479L26.374,12.479z"/>
			</g>
		</g>
		<g>
			<g>
				<path d="M26.403,17.038c0.312,0.277,0.582,0.581,0.852,0.898c0.065,0.077,0.243-0.096,0.178-0.177
					c-0.262-0.323-0.571-0.598-0.898-0.852C26.474,16.862,26.348,16.988,26.403,17.038L26.403,17.038z"/>
			</g>
		</g>
		<g>
			<g>
				<path d="M21.13,19.749c0.381,0.555,0.389,1.104,0.57,1.719c0.025,0.086,0.154-0.033,0.162-0.078
					c0.115-0.62-0.203-1.324-0.555-1.818C21.25,19.493,21.071,19.663,21.13,19.749L21.13,19.749z"/>
			</g>
		</g>
		<g>
			<g>
				<path d="M41.045,26.325c0.223-0.024,0.435-0.029,0.652-0.08c0.044-0.01,0.173-0.143,0.081-0.168
					c-0.244-0.069-0.452-0.034-0.686,0.058C41.04,26.155,40.928,26.337,41.045,26.325L41.045,26.325z"/>
			</g>
		</g>
		<g>
			<g>
				<path d="M47.127,22.722c0.649-0.003,1.524-0.105,1.939-0.673c0.024-0.034,0.009-0.074-0.036-0.055
					c-0.228,0.097-0.422,0.252-0.649,0.355c-0.376,0.172-0.786,0.236-1.195,0.251C47.132,22.602,47.051,22.722,47.127,22.722
					L47.127,22.722z"/>
			</g>
		</g>
		<g>
			<g>
				<path d="M49.856,21.111c0.253-0.287,0.602-0.485,0.821-0.794c0.039-0.055,0.047-0.176-0.056-0.144
					c-0.389,0.121-0.697,0.518-0.947,0.823C49.548,21.152,49.742,21.241,49.856,21.111L49.856,21.111z"/>
			</g>
		</g>
		<g>
			<g>
				<path d="M39.636,30.214c0.333,0.129,0.65,0.217,0.997,0.101c0.057-0.019,0.195-0.174,0.069-0.188
					c-0.312-0.032-0.6-0.043-0.9-0.146C39.696,29.945,39.512,30.167,39.636,30.214L39.636,30.214z"/>
			</g>
		</g>
		<g>
			<g>
				<path d="M41.657,29.323c0.469-0.223,0.979-0.349,1.438-0.588c0.054-0.028,0.141-0.183,0.02-0.158
					c-0.5,0.104-1.002,0.324-1.459,0.545C41.549,29.174,41.493,29.402,41.657,29.323L41.657,29.323z"/>
			</g>
		</g>
		<g>
			<g>
				<path d="M47.195,27.756c0.786-0.251,1.857-0.118,2.441-0.802c0.061-0.071,0.034-0.172-0.065-0.104
					c-0.723,0.498-1.523,0.448-2.329,0.715C47.159,27.593,47.062,27.799,47.195,27.756L47.195,27.756z"/>
			</g>
		</g>
		<g>
			<g>
				<path d="M22.164,26.827c-0.395-0.046-0.803-0.048-1.18,0.083c-0.036,0.013-0.126,0.094-0.062,0.127
					c0.323,0.167,0.748,0.12,1.101,0.083C22.137,27.108,22.362,26.85,22.164,26.827L22.164,26.827z"/>
			</g>
		</g>
		<g>
			<g>
				<path d="M20.75,26.637c0.064-0.425,0.003-0.92-0.465-1.07c-0.082-0.026-0.2,0.099-0.149,0.176
					c0.236,0.353,0.442,0.5,0.424,0.963C20.555,26.823,20.739,26.708,20.75,26.637L20.75,26.637z"/>
			</g>
		</g>
		<g>
			<g>
				<path d="M23.099,26.719c0.202,0.002,0.345,0.002,0.54-0.049c0.037-0.01,0.146-0.117,0.068-0.143
					c-0.174-0.061-0.306-0.051-0.493-0.049C23.106,26.478,22.948,26.718,23.099,26.719L23.099,26.719z"/>
			</g>
		</g>
		<g>
			<g>
				<path d="M20.895,16.576c-0.035-0.309-0.128-0.472-0.438-0.519c-0.076-0.011-0.172,0.103-0.149,0.174
					c0.064,0.198,0.2,0.347,0.243,0.55C20.587,16.955,20.909,16.711,20.895,16.576L20.895,16.576z"/>
			</g>
		</g>
		<g>
			<g>
				<path d="M20.103,15.089c-0.022-0.04-0.054-0.071-0.093-0.095c-0.086-0.067-0.231,0.071-0.225,0.162
					c0.006,0.07,0.013,0.107,0.033,0.175C19.864,15.482,20.221,15.247,20.103,15.089L20.103,15.089z"/>
			</g>
		</g>
		<g>
			<g>
				<path d="M19.262,13.639c0.037,0,0.09-0.082,0.039-0.082C19.264,13.557,19.211,13.639,19.262,13.639L19.262,13.639z"/>
			</g>
		</g>
		<g>
			<g>
				<path d="M19.058,12.803c0.186,0,0.448-0.409,0.197-0.409C19.069,12.394,18.807,12.803,19.058,12.803L19.058,12.803z"/>
			</g>
		</g>
		<g>
			<g>
				<path d="M21.761,15.205c-0.003-0.336,0.017-0.677-0.043-1.008c-0.023-0.13-0.238,0.051-0.249,0.12
					c-0.053,0.347-0.039,0.699-0.042,1.049C21.424,15.57,21.763,15.359,21.761,15.205L21.761,15.205z"/>
			</g>
		</g>
		<g>
			<g>
				<path d="M21.577,12.414c-0.042-0.079-0.09-0.145-0.149-0.212c-0.065-0.074-0.201,0.08-0.179,0.152
					c0.024,0.078,0.02,0.153-0.015,0.225C21.155,12.835,21.696,12.64,21.577,12.414L21.577,12.414z"/>
			</g>
		</g>
		<g>
			<g>
				<path d="M21.402,10.853c-0.015-0.213-0.032-0.422-0.104-0.624c-0.029-0.082-0.151,0.03-0.159,0.077
					c-0.036,0.229,0.007,0.432,0.021,0.663C21.17,11.12,21.409,10.962,21.402,10.853L21.402,10.853z"/>
			</g>
		</g>
		<g>
			<g>
				<path d="M24.97,14.415c0.116,0,0.282-0.258,0.123-0.258C24.977,14.157,24.811,14.415,24.97,14.415L24.97,14.415z"/>
			</g>
		</g>
		<g>
			<g>
				<path d="M25.311,11.423c0.181,0,0.438-0.399,0.191-0.399C25.321,11.023,25.064,11.423,25.311,11.423L25.311,11.423z"/>
			</g>
		</g>
		<g>
			<g>
				<path d="M25.82,8.707c-0.028-0.269-0.077-0.533-0.14-0.796c-0.024-0.103-0.171,0.055-0.177,0.106
					C25.469,8.3,25.497,8.58,25.492,8.865C25.488,9.058,25.837,8.867,25.82,8.707L25.82,8.707z"/>
			</g>
		</g>
		<g>
			<g>
				<path d="M28.576,10.514c0.15,0,0.364-0.332,0.16-0.332C28.586,10.182,28.372,10.514,28.576,10.514L28.576,10.514z"/>
			</g>
		</g>
		<g>
			<g>
				<path d="M28.887,12.644c0.154,0,0.374-0.342,0.164-0.342C28.896,12.302,28.677,12.644,28.887,12.644L28.887,12.644z"/>
			</g>
		</g>
		<g>
			<g>
				<path d="M29.619,7.494c0.188,0,0.455-0.416,0.199-0.416C29.631,7.078,29.363,7.494,29.619,7.494L29.619,7.494z"/>
			</g>
		</g>
		<g>
			<g>
				<path d="M34.592,10.09c-0.915,0.542-1.173,1.644-0.924,2.633c0.046,0.18,0.377-0.074,0.357-0.213
					c-0.124-0.881-0.036-1.579,0.646-2.209C34.766,10.214,34.759,9.992,34.592,10.09L34.592,10.09z"/>
			</g>
		</g>
		<g>
			<g>
				<path d="M34.034,11.907c0.024,0.262,0.063,0.52,0.131,0.775c0.036,0.137,0.229-0.072,0.237-0.142
					c0.031-0.282-0.018-0.516-0.128-0.776C34.222,11.64,34.025,11.817,34.034,11.907L34.034,11.907z"/>
			</g>
		</g>
		<g>
			<g>
				<path d="M25.697,13.731c-0.069,0.75-0.868,1.889-0.226,2.551c0.1,0.103,0.328-0.131,0.244-0.243
					c-0.537-0.708,0.384-1.643,0.274-2.449C25.964,13.393,25.708,13.616,25.697,13.731L25.697,13.731z"/>
			</g>
		</g>
		<g>
			<g>
				<path d="M25.409,16.907c-0.018,0.343,0.024,0.785,0.293,1.02c0.067,0.059,0.17-0.06,0.171-0.123
					c0.009-0.354-0.158-0.69-0.224-1.041C25.625,16.632,25.413,16.828,25.409,16.907L25.409,16.907z"/>
			</g>
		</g>
		<g>
			<g>
				<path d="M42.193,20.948c0.524-0.149,1.361-0.597,1.43-1.207c0.008-0.07-0.087-0.044-0.116-0.022
					c-0.174,0.124-0.268,0.281-0.412,0.44c-0.233,0.258-0.562,0.457-0.877,0.598C42.147,20.79,42.056,20.987,42.193,20.948
					L42.193,20.948z"/>
			</g>
		</g>
		<g>
			<g>
				<path d="M46.556,18.998c0.214-0.193,0.444-0.333,0.63-0.553c0.077-0.091,0.019-0.19-0.093-0.146
					c-0.278,0.109-0.499,0.318-0.711,0.524C46.2,19,46.372,19.164,46.556,18.998L46.556,18.998z"/>
			</g>
		</g>
		<g>
			<g>
				<path d="M46.626,23.352c0.908,0.209,2.543,0.269,3.143-0.61c0.042-0.062-0.006-0.117-0.068-0.069
					c-0.959,0.736-1.883,0.245-2.949,0.42C46.681,23.105,46.49,23.32,46.626,23.352L46.626,23.352z"/>
			</g>
		</g>
		<g>
			<g>
				<path d="M45.907,27.936c0.392-0.228,0.859-0.36,1.211-0.647c0.046-0.038,0.115-0.173-0.003-0.153
					c-0.437,0.074-0.875,0.392-1.235,0.64C45.804,27.828,45.781,28.009,45.907,27.936L45.907,27.936z"/>
			</g>
		</g>
		<g>
			<g>
				<path d="M20.85,20.723c0.03-0.433-0.122-0.731-0.456-1.001c-0.153-0.125-0.337-0.204-0.508-0.3
					c-0.239-0.134-0.424-0.361-0.672-0.467c-0.066-0.028-0.157,0.076-0.139,0.138c0.104,0.337,0.519,0.506,0.785,0.706
					c0.391,0.293,0.702,0.516,0.728,1.049C20.597,21.019,20.842,20.83,20.85,20.723L20.85,20.723z"/>
			</g>
		</g>
		<g>
			<g>
				<path d="M14.404,19.002c0.214,0.41,0.557,0.923,0.614,1.382c0.012,0.098,0.162-0.01,0.148-0.088
					c-0.055-0.298-0.033-0.595-0.142-0.879c-0.087-0.229-0.224-0.435-0.381-0.62C14.564,18.704,14.354,18.905,14.404,19.002
					L14.404,19.002z"/>
			</g>
		</g>
		<g>
			<g>
				<path d="M20.049,27.05c0.192,0.577,0.573,0.992,1.193,1.103c0.047,0.008,0.14-0.086,0.078-0.108
					c-0.562-0.201-0.868-0.583-1.057-1.147C20.226,26.784,20.016,26.95,20.049,27.05L20.049,27.05z"/>
			</g>
		</g>
		<g>
			<g>
				<path d="M39.345,29.94c0.195-0.098,0.398-0.127,0.603-0.195c0.04-0.013,0.175-0.139,0.081-0.168
					c-0.264-0.083-0.496,0.045-0.713,0.196C39.237,29.827,39.207,30.009,39.345,29.94L39.345,29.94z"/>
			</g>
		</g>
		<g>
			<g>
				<path d="M38.267,30.384c0.146,0,0.353-0.322,0.154-0.322C38.275,30.062,38.068,30.384,38.267,30.384L38.267,30.384z"/>
			</g>
		</g>
		<g>
			<g>
				<path d="M38.456,30.066c-0.182-0.079-0.332-0.173-0.529-0.209c-0.081-0.016-0.288,0.141-0.187,0.22
					c0.158,0.122,0.308,0.224,0.491,0.303C38.372,30.441,38.62,30.137,38.456,30.066L38.456,30.066z"/>
			</g>
		</g>
		<g>
			<g>
				<path d="M23.575,28.267c0.152,0,0.37-0.338,0.162-0.338C23.585,27.929,23.367,28.267,23.575,28.267L23.575,28.267z"/>
			</g>
		</g>
		<g>
			<g>
				<path d="M23.976,27.855c0.091-0.094,0.178-0.188,0.259-0.291c0.074-0.094-0.014-0.181-0.107-0.107
					c-0.103,0.081-0.196,0.168-0.29,0.259C23.692,27.854,23.837,28,23.976,27.855L23.976,27.855z"/>
			</g>
		</g>
		<g>
			<g>
				<path d="M21.223,25.533c0.11,0,0.269-0.245,0.117-0.245C21.229,25.288,21.071,25.533,21.223,25.533L21.223,25.533z"/>
			</g>
		</g>
		<g>
			<g>
				<path d="M21.4,25.792c0.155,0.101,0.27,0.198,0.44,0.273c0.068,0.03,0.188-0.088,0.157-0.157
					c-0.087-0.19-0.155-0.262-0.336-0.378C21.53,25.444,21.281,25.715,21.4,25.792L21.4,25.792z"/>
			</g>
		</g>
		<g>
			<g>
				<path d="M24.833,24.063c0.138,0,0.335-0.306,0.146-0.306C24.842,23.758,24.645,24.063,24.833,24.063L24.833,24.063z"/>
			</g>
		</g>
		<g>
			<g>
				<path d="M24.647,23.247c0.134,0,0.325-0.297,0.143-0.297C24.656,22.95,24.465,23.247,24.647,23.247L24.647,23.247z"/>
			</g>
		</g>
		<g>
			<g>
				<path d="M25.582,23.378c0.14,0,0.339-0.31,0.148-0.31C25.591,23.068,25.392,23.378,25.582,23.378L25.582,23.378z"/>
			</g>
		</g>
		<g>
			<g>
				<path d="M22.825,21.703c0.152,0,0.367-0.335,0.162-0.335C22.835,21.368,22.62,21.703,22.825,21.703L22.825,21.703z"/>
			</g>
		</g>
		<g>
			<g>
				<path d="M22.709,20.061c0.136,0,0.328-0.3,0.145-0.3C22.718,19.761,22.525,20.061,22.709,20.061L22.709,20.061z"/>
			</g>
		</g>
		<g>
			<g>
				<path d="M28.146,20.437c0.138,0,0.332-0.303,0.146-0.303C28.154,20.134,27.96,20.437,28.146,20.437L28.146,20.437z"/>
			</g>
		</g>
		<g>
			<g>
				<path d="M28.456,22.192c0.142,0,0.343-0.312,0.15-0.312C28.465,21.879,28.264,22.192,28.456,22.192L28.456,22.192z"/>
			</g>
		</g>
		<g>
			<g>
				<path d="M27.662,20.841c0.106,0,0.258-0.235,0.113-0.235C27.669,20.605,27.518,20.841,27.662,20.841L27.662,20.841z"/>
			</g>
		</g>
		<g>
			<g>
				<path d="M33.341,21.297c0.123,0,0.3-0.273,0.131-0.273C33.349,21.024,33.172,21.297,33.341,21.297L33.341,21.297z"/>
			</g>
		</g>
		<g>
			<g>
				<path d="M33.595,22.29c0.116,0,0.282-0.258,0.123-0.258C33.602,22.032,33.436,22.29,33.595,22.29L33.595,22.29z"/>
			</g>
		</g>
		<g>
			<g>
				<path d="M32.682,19.988c0.069,0,0.169-0.154,0.074-0.154C32.687,19.833,32.587,19.988,32.682,19.988L32.682,19.988z"/>
			</g>
		</g>
		<g>
			<g>
				<path d="M34.084,21.123c0.136,0,0.328-0.3,0.145-0.3C34.093,20.823,33.9,21.123,34.084,21.123L34.084,21.123z"/>
			</g>
		</g>
		<g>
			<g>
				<path d="M34.133,21.839c0.161,0,0.392-0.357,0.172-0.357C34.144,21.482,33.913,21.839,34.133,21.839L34.133,21.839z"/>
			</g>
		</g>
		<g>
			<g>
				<path d="M33.386,20.333c0.156,0,0.378-0.345,0.166-0.345C33.396,19.988,33.174,20.333,33.386,20.333L33.386,20.333z"/>
			</g>
		</g>
		<g>
			<g>
				<path d="M32.152,21.862c0.125,0,0.304-0.277,0.133-0.277C32.16,21.584,31.981,21.862,32.152,21.862L32.152,21.862z"/>
			</g>
		</g>
		<g>
			<g>
				<path d="M39.358,18.452c0.207,0,0.502-0.457,0.221-0.457C39.372,17.995,39.077,18.452,39.358,18.452L39.358,18.452z"/>
			</g>
		</g>
		<g>
			<g>
				<path d="M39.697,17.022c0.157,0,0.382-0.348,0.168-0.348C39.708,16.674,39.483,17.022,39.697,17.022L39.697,17.022z"/>
			</g>
		</g>
		<g>
			<g>
				<path d="M40.33,18.443c0.143,0,0.347-0.315,0.152-0.315C40.34,18.128,40.136,18.443,40.33,18.443L40.33,18.443z"/>
			</g>
		</g>
		<g>
			<g>
				<path d="M40.82,17.402c0.161,0,0.392-0.357,0.172-0.357C40.831,17.044,40.601,17.402,40.82,17.402L40.82,17.402z"/>
			</g>
		</g>
		<g>
			<g>
				<path d="M40.704,16.133c0.145,0,0.35-0.319,0.154-0.319C40.714,15.813,40.509,16.133,40.704,16.133L40.704,16.133z"/>
			</g>
		</g>
		<g>
			<g>
				<path d="M39.504,13.723c0.169,0,0.409-0.374,0.18-0.374C39.515,13.349,39.274,13.723,39.504,13.723L39.504,13.723z"/>
			</g>
		</g>
		<g>
			<g>
				<path d="M39.825,15.016c0.152,0,0.367-0.335,0.162-0.335C39.835,14.681,39.62,15.016,39.825,15.016L39.825,15.016z"/>
			</g>
		</g>
		<g>
			<g>
				<path d="M40.373,14.11c0.445,0,0.269-0.506,0.042-0.344C40.337,13.823,40.155,14.11,40.373,14.11L40.373,14.11z"/>
			</g>
		</g>
		<g>
			<g>
				<path d="M39.518,12.568c0.143,0,0.347-0.315,0.152-0.315C39.527,12.253,39.323,12.568,39.518,12.568L39.518,12.568z"/>
			</g>
		</g>
		<g>
			<g>
				<path d="M36.279,13.544c0.121,0,0.293-0.268,0.129-0.268C36.287,13.277,36.115,13.544,36.279,13.544L36.279,13.544z"/>
			</g>
		</g>
		<g>
			<g>
				<path d="M36.506,14.53c0.165,0,0.399-0.364,0.176-0.364C36.517,14.166,36.282,14.53,36.506,14.53L36.506,14.53z"/>
			</g>
		</g>
		<g>
			<g>
				<path d="M33.066,9.535c0.169,0,0.409-0.374,0.18-0.374C33.077,9.161,32.837,9.535,33.066,9.535L33.066,9.535z"/>
			</g>
		</g>
		<g>
			<g>
				<path d="M33.752,7.977c0.173,0,0.42-0.383,0.184-0.383C33.763,7.594,33.516,7.977,33.752,7.977L33.752,7.977z"/>
			</g>
		</g>
		<g>
			<g>
				<path d="M34.204,9.197c0.146,0,0.353-0.322,0.154-0.322C34.213,8.875,34.006,9.197,34.204,9.197L34.204,9.197z"/>
			</g>
		</g>
		<g>
			<g>
				<path d="M30.393,7.979c0.11,0.028,0.159,0.021,0.265-0.024c0.063-0.027,0.118-0.097,0.121-0.166
					c0.005-0.093-0.003-0.116-0.074-0.177C30.504,7.445,30.199,7.931,30.393,7.979L30.393,7.979z"/>
			</g>
		</g>
		<g>
			<g>
				<path d="M31.07,6.839c0.161,0,0.392-0.357,0.172-0.357C31.081,6.482,30.851,6.839,31.07,6.839L31.07,6.839z"/>
			</g>
		</g>
		<g>
			<g>
				<path d="M30.595,6.375c0.001,0.021,0.002,0.041,0.003,0.061c0.014,0.239,0.358-0.024,0.367-0.176
					c0.001-0.021,0.002-0.043,0.003-0.064C30.979,5.981,30.584,6.191,30.595,6.375L30.595,6.375z"/>
			</g>
		</g>
		<g>
			<g>
				<path d="M31.506,5.219c0.165,0,0.402-0.367,0.176-0.367C31.517,4.852,31.279,5.219,31.506,5.219L31.506,5.219z"/>
			</g>
		</g>
		<g>
			<g>
				<path d="M30.697,4.772c0.157,0,0.382-0.348,0.168-0.348C30.708,4.424,30.483,4.772,30.697,4.772L30.697,4.772z"/>
			</g>
		</g>
		<g>
			<g>
				<path d="M26.655,10.019c0.008-0.011,0.018-0.022,0.025-0.033c0.112-0.142-0.02-0.275-0.162-0.163
					c-0.011,0.009-0.022,0.018-0.033,0.026C26.235,10.047,26.457,10.269,26.655,10.019L26.655,10.019z"/>
			</g>
		</g>
		<g>
			<g>
				<path d="M26.578,9.323c0.147,0,0.356-0.325,0.156-0.325C26.587,8.998,26.378,9.323,26.578,9.323L26.578,9.323z"/>
			</g>
		</g>
		<g>
			<g>
				<path d="M19.648,7.504c0.002,0.019,0.004,0.039,0.005,0.058c0.021,0.252,0.369-0.03,0.381-0.183
					c0.001-0.021,0.003-0.042,0.005-0.062C20.056,7.099,19.633,7.306,19.648,7.504L19.648,7.504z"/>
			</g>
		</g>
		<g>
			<g>
				<path d="M20.457,9.378c0.14,0,0.339-0.31,0.148-0.31C20.466,9.068,20.267,9.378,20.457,9.378L20.457,9.378z"/>
			</g>
		</g>
		<g>
			<g>
				<path d="M21.503,3.297c0.006,0.397,0.008,0.848,0.316,1.139c0.021,0.02,0.052-0.02,0.054-0.039
					c0.04-0.416-0.053-0.831-0.063-1.248C21.804,2.959,21.501,3.159,21.503,3.297L21.503,3.297z"/>
			</g>
		</g>
		<g>
			<g>
				<path d="M21.902,4.833c0.046,0.13,0.07,0.244,0.142,0.363c0.032,0.053,0.107-0.028,0.1-0.071
					c-0.025-0.137-0.058-0.257-0.108-0.387C22.008,4.667,21.88,4.772,21.902,4.833L21.902,4.833z"/>
			</g>
		</g>
		<g>
			<g>
				<path d="M22.228,5.966c0.008,0.055,0.012,0.08,0.031,0.13c0.035,0.091,0.158-0.037,0.171-0.083
					c0.017-0.06,0.022-0.098,0.03-0.159C22.475,5.732,22.211,5.841,22.228,5.966L22.228,5.966z"/>
			</g>
		</g>
		<g>
			<g>
				<path d="M43.357,10.619c0.032,0.22-0.056,0.426-0.021,0.637c0.008,0.049,0.056,0.039,0.088,0.017
					c0.279-0.193,0.332-0.499,0.28-0.821C43.671,10.234,43.334,10.463,43.357,10.619L43.357,10.619z"/>
			</g>
		</g>
		<g>
			<g>
				<path d="M43.175,11.534c-0.228,0.395-0.567,0.896-0.877,1.226c-0.324,0.347-0.798,0.567-1.056,0.965
					c-0.057,0.087-0.117,0.288,0.055,0.288c0.51,0,1.095-0.633,1.377-1.016c0.156-0.212,0.173-0.382,0.265-0.609
					c0.117-0.293,0.306-0.569,0.449-0.851C43.477,11.362,43.234,11.432,43.175,11.534L43.175,11.534z"/>
			</g>
		</g>
		<g>
			<g>
				<path d="M45.52,12.774c-0.337,0.232-0.595,0.525-0.86,0.834c-0.319,0.373-0.68,0.603-1.061,0.896
					c-0.057,0.044-0.281,0.33-0.092,0.364c0.912,0.166,1.706-1.2,2.229-1.754C45.953,12.884,45.839,12.554,45.52,12.774
					L45.52,12.774z"/>
			</g>
		</g>
		<g>
			<g>
				<path d="M47.92,15.221c-0.308,0.439-0.579,0.908-0.845,1.374c-0.068,0.119-0.047,0.308,0.121,0.31
					c0.186,0.002,0.332-0.156,0.416-0.303c0.245-0.428,0.49-0.863,0.691-1.313C48.449,14.965,48.047,15.04,47.92,15.221
					L47.92,15.221z"/>
			</g>
		</g>
		<g>
			<g>
				<path d="M44.532,25.601c0.115,0,0.279-0.255,0.123-0.255C44.54,25.346,44.376,25.601,44.532,25.601L44.532,25.601z"/>
			</g>
		</g>
		<g>
			<g>
				<path d="M44.495,25.678c0.186,0,0.448-0.409,0.197-0.409C44.507,25.269,44.244,25.678,44.495,25.678L44.495,25.678z"/>
			</g>
		</g>
		<g>
			<g>
				<path d="M44.717,25.13c0.042-0.125,0.069-0.223,0.037-0.352c-0.026-0.108-0.184,0.046-0.196,0.094
					c-0.023,0.096-0.049,0.191-0.075,0.287C44.404,25.363,44.672,25.265,44.717,25.13L44.717,25.13z"/>
			</g>
		</g>
		<g>
			<g>
				<path d="M45.197,24.959c0.157,0,0.382-0.348,0.168-0.348C45.208,24.612,44.983,24.959,45.197,24.959L45.197,24.959z"/>
			</g>
		</g>
		<g>
			<g>
				<path d="M43.268,25.506c0.143,0,0.347-0.315,0.152-0.315C43.277,25.19,43.073,25.506,43.268,25.506L43.268,25.506z"/>
			</g>
		</g>
		<g>
			<g>
				<path d="M44.651,29.113c0.127,0,0.307-0.28,0.135-0.28C44.659,28.833,44.479,29.113,44.651,29.113L44.651,29.113z"/>
			</g>
		</g>
		<g>
			<g>
				<path d="M44.55,28.337c0.011-0.003,0.021-0.005,0.033-0.008c0.088-0.02,0.344-0.284,0.162-0.337
					c-0.009-0.002-0.018-0.005-0.025-0.007C44.473,27.914,44.295,28.396,44.55,28.337L44.55,28.337z"/>
			</g>
		</g>
		<g>
			<g>
				<path d="M50.643,26.256c0.143,0,0.347-0.315,0.152-0.315C50.652,25.94,50.448,26.256,50.643,26.256L50.643,26.256z"/>
			</g>
		</g>
		<g>
			<g>
				<path d="M49.12,28.117c0.186,0,0.451-0.412,0.197-0.412C49.132,27.705,48.866,28.117,49.12,28.117L49.12,28.117z"/>
			</g>
		</g>
		<g>
			<g>
				<path d="M41.235,31.324c0.204,0,0.494-0.451,0.217-0.451C41.248,30.873,40.958,31.324,41.235,31.324L41.235,31.324z"/>
			</g>
		</g>
		<g>
			<g>
				<path d="M17.316,23.535c0.011-0.001,0.021-0.001,0.032-0.002c0.149-0.011,0.422-0.35,0.178-0.369
					c-0.01-0.001-0.021-0.001-0.03-0.002C17.307,23.146,17.106,23.55,17.316,23.535L17.316,23.535z"/>
			</g>
		</g>
		<g>
			<g>
				<path d="M18.465,23.799c0.125,0,0.304-0.277,0.133-0.277C18.473,23.522,18.294,23.799,18.465,23.799L18.465,23.799z"/>
			</g>
		</g>
		<g>
			<g>
				<path d="M15.939,20.29c0.173,0,0.42-0.383,0.184-0.383C15.95,19.907,15.703,20.29,15.939,20.29L15.939,20.29z"/>
			</g>
		</g>
		<g>
			<g>
				<path d="M15.502,14.29c0.173,0,0.42-0.383,0.184-0.383C15.513,13.907,15.266,14.29,15.502,14.29L15.502,14.29z"/>
			</g>
		</g>
		<g>
			<g>
				<path d="M21.884,17.963c0.16,0,0.388-0.354,0.17-0.354C21.894,17.608,21.666,17.963,21.884,17.963L21.884,17.963z"/>
			</g>
		</g>
		<g>
			<g>
				<path d="M32.284,24.23c0.011-0.005,0.021-0.01,0.032-0.015c-0.064-0.001-0.13-0.003-0.194-0.004
					c0.008,0.007,0.017,0.015,0.024,0.022c0.214,0.193,0.565-0.197,0.562-0.405c-0.005-0.369-0.498-0.003-0.568,0.142
					c0.046-0.043,0.092-0.086,0.138-0.129C32.081,23.944,31.96,24.385,32.284,24.23L32.284,24.23z"/>
			</g>
		</g>
		<g>
			<g>
				<path d="M37.929,23.938c0.193,0,0.469-0.429,0.205-0.429C37.94,23.509,37.665,23.938,37.929,23.938L37.929,23.938z"/>
			</g>
		</g>
		<g>
			<g>
				<path d="M38.565,22.849c0.171,0,0.413-0.377,0.182-0.377C38.576,22.472,38.334,22.849,38.565,22.849L38.565,22.849z"/>
			</g>
		</g>
		<g>
			<g>
				<path d="M22.045,90.008c2.216-2.593,3.464-5.983,5.255-8.866c0.073-0.117-0.058-0.125-0.121-0.045
					c-2.139,2.674-3.306,6.021-5.268,8.827C21.827,90.043,21.961,90.106,22.045,90.008L22.045,90.008z"/>
			</g>
		</g>
		<g>
			<g>
				<path d="M32.21,75.673c3.857-3.633,6.798-8.146,11.409-10.929c0.142-0.085,0.17-0.394-0.048-0.275
					c-4.728,2.564-7.653,7.469-11.469,11.097C31.989,75.672,32.099,75.778,32.21,75.673L32.21,75.673z"/>
			</g>
		</g>
		<g>
			<g>
				<path d="M22.527,90.305c3.993-3.247,7.405-7.039,10.355-11.249c3.179-4.535,5.409-9.722,9.028-13.933
					c0.161-0.188-0.006-0.367-0.176-0.176c-3.438,3.881-5.531,8.77-8.44,13.041c-3.069,4.506-6.648,8.619-10.844,12.111
					C22.319,90.209,22.348,90.451,22.527,90.305L22.527,90.305z"/>
			</g>
		</g>
		<g>
			<g>
				<path d="M0.718,76.459c0.342,2.115,0.931,4.16,1.622,6.184c0.72,2.105,1.394,4.343,2.329,6.359
					c0.033,0.07,0.152-0.03,0.143-0.084c-0.333-1.939-1.162-3.824-1.799-5.68c-0.781-2.283-1.521-4.574-1.918-6.959
					C1.056,76.042,0.69,76.291,0.718,76.459L0.718,76.459z"/>
			</g>
		</g>
		<g>
			<g>
				<path d="M6.402,93.598c1.564,3.682,3.271,7.331,5.272,10.798c1.907,3.304,4.027,6.698,6.555,9.566
					c0.138,0.156,0.467-0.187,0.354-0.354c-1.079-1.586-2.361-3.048-3.478-4.615c-1.196-1.681-2.297-3.426-3.341-5.206
					c-1.955-3.331-3.666-6.766-5.188-10.315C6.537,93.383,6.369,93.52,6.402,93.598L6.402,93.598z"/>
			</g>
		</g>
	</g>
</g>
<g id="DESIGNED_BY_FREEPIK">
</g>
</svg>
