<?xml version="1.0" encoding="utf-8"?>
<!-- Generator: Adobe Illustrator 16.0.0, SVG Export Plug-In . SVG Version: 6.00 Build 0)  -->
<!DOCTYPE svg PUBLIC "-//W3C//DTD SVG 1.1//EN" "http://www.w3.org/Graphics/SVG/1.1/DTD/svg11.dtd">
<svg version="1.1" xmlns="http://www.w3.org/2000/svg" xmlns:xlink="http://www.w3.org/1999/xlink" x="0px" y="0px" width="32.01px"
	 height="59.014px" viewBox="0 0 32.01 59.014" enable-background="new 0 0 32.01 59.014" xml:space="preserve">
<g id="BACKGROUND">
</g>
<g id="OBJECTS">
	<g>
		<g>
			<g>
				<path d="M10.32,47.06c0.062-0.535,0.004-0.882,0.544-0.94c0.627-0.068,1.306,0.226,1.633,0.777
					c0.305,0.514,0.214,1.061-0.434,1.133c-0.83,0.093-1.38-0.428-1.728-1.117c-0.314-0.625-1.378,0.322-1.191,0.854
					c0.457,1.304,1.778,1.693,2.987,1.237c1.158-0.437,1.808-1.635,1.59-2.827c-0.234-1.282-1.475-1.763-2.652-1.464
					C9.933,45,8.443,46.495,9.182,47.738C9.532,48.33,10.273,47.463,10.32,47.06z"/>
			</g>
		</g>
		<g>
			<g>
				<path d="M10.864,44.91c-0.827-0.961-1.546-1.719-1.876-2.992c-0.414-1.595,0.239-2.896,1.813-3.346
					c1.321-0.378,2.606-0.02,2.854,1.449c0.302,1.793-0.973,3.765-1.694,5.307c-0.472,1.008,0.946,0.703,1.238,0.016
					c0.794-1.873,1.717-4.461,1.156-6.521c-0.491-1.804-2.618-1.544-3.972-1.094c-1.573,0.523-2.438,1.945-2.599,3.531
					c-0.162,1.598,0.633,3.999,2.227,4.653C10.443,46.091,11.206,45.308,10.864,44.91L10.864,44.91z"/>
			</g>
		</g>
		<g>
			<g>
				<path d="M9.795,48.591c-1.118,2.394-3.765,7.629,0.675,8.277c1.795,0.262,3.538-0.407,4.422-2.04
					c1.259-2.328-1.495-4.197-1.594-6.395c-0.028-0.647-1.136,0.011-1.062,0.511c0.256,1.764,1.639,2.996,1.926,4.716
					c0.392,2.347-2.49,2.522-4.01,1.928c-2.651-1.036-0.165-5.414,0.411-7.093C10.748,47.954,9.927,48.308,9.795,48.591
					L9.795,48.591z"/>
			</g>
		</g>
		<g>
			<g>
				<path d="M13.283,46.323c1.601-0.932,5.461-3.602,6.854-1.232c0.849,1.446,0.708,4.353-1.388,4.444
					c-1.981,0.086-3.03-1.888-4.845-2.215c-0.462-0.083-1.194,0.872-0.693,0.969c2.114,0.409,3.645,2.825,6.061,1.919
					c1.921-0.72,2.144-2.76,1.996-4.55c-0.372-4.521-6.172-1.471-8.105-0.031C12.851,45.858,12.727,46.647,13.283,46.323
					L13.283,46.323z"/>
			</g>
		</g>
		<g>
			<g>
				<path d="M9.472,46.117c-1.029-1.187-3.219-1.564-4.702-1.442c-1.766,0.146-2.932,1.463-3.251,3.14
					c-0.342,1.794,0.922,3.739,2.808,3.901c2.334,0.201,4.216-1.78,5.597-3.42c0.415-0.494-0.186-0.664-0.551-0.348
					c-1.316,1.136-2.395,2.787-4.298,2.886c-1.646,0.085-2.613-1.604-2.619-3.044c-0.017-3.767,4.67-1.565,6.493-1.058
					C9.212,46.806,9.695,46.375,9.472,46.117L9.472,46.117z"/>
			</g>
		</g>
		<g>
			<g>
				<path d="M11.278,45.525c0.099-1.849,0.201-3.913-0.144-5.737c-0.027-0.145-0.266,0.057-0.276,0.134
					c-0.284,1.878,0.005,3.89,0.043,5.784C10.906,45.947,11.27,45.685,11.278,45.525L11.278,45.525z"/>
			</g>
		</g>
		<g>
			<g>
				<path d="M12.027,45.057c0.007-0.93,0.132-1.835,0.326-2.743c0.147-0.693,0.407-1.367,0.462-2.076
					c0.014-0.171-0.235,0.002-0.266,0.067c-0.701,1.477-0.944,3.313-0.905,4.937C11.65,45.481,12.026,45.227,12.027,45.057
					L12.027,45.057z"/>
			</g>
		</g>
		<g>
			<g>
				<path d="M13.381,46.767c1.65,0.028,3.531-0.127,5.068-0.76c0.09-0.037,0.298-0.355,0.085-0.339
					c-1.676,0.131-3.282,0.678-4.985,0.751C13.399,46.426,13.16,46.764,13.381,46.767L13.381,46.767z"/>
			</g>
		</g>
		<g>
			<g>
				<path d="M13.56,47.206c1.435,0.122,2.901,0.47,4.342,0.395c0.107-0.005,0.382-0.293,0.198-0.332
					c-1.409-0.3-2.918-0.365-4.354-0.449C13.572,46.81,13.316,47.185,13.56,47.206L13.56,47.206z"/>
			</g>
		</g>
		<g>
			<g>
				<path d="M10.861,48.734c-0.304,1.769-0.489,3.924-0.09,5.684c0.031,0.141,0.252-0.056,0.265-0.127
					c0.324-1.844-0.083-3.775,0.188-5.647C11.264,48.374,10.891,48.564,10.861,48.734L10.861,48.734z"/>
			</g>
		</g>
		<g>
			<g>
				<path d="M11.415,48.639c0.083,1.281,0.003,2.676,0.271,3.93c0.037,0.176,0.297-0.092,0.307-0.183
					c0.141-1.274-0.103-2.651-0.204-3.927C11.77,48.225,11.403,48.471,11.415,48.639L11.415,48.639z"/>
			</g>
		</g>
		<g>
			<g>
				<path d="M9.467,46.993c-1.79,0.126-3.547,0.139-5.334,0.191c-0.102,0.003-0.348,0.24-0.181,0.304
					c1.614,0.622,3.652,0.079,5.317-0.083C9.447,47.388,9.719,46.975,9.467,46.993L9.467,46.993z"/>
			</g>
		</g>
		<g>
			<g>
				<path d="M9.273,47.533c-1.28,0.426-2.607,0.854-3.819,1.449C5.36,49.027,5.221,49.3,5.421,49.249
					c1.284-0.325,2.511-0.929,3.763-1.36C9.338,47.836,9.521,47.45,9.273,47.533L9.273,47.533z"/>
			</g>
		</g>
	</g>
	<g>
		<g>
			<path d="M21.256,27.405c-0.812-1.7-1.701-3.698-1.821-5.591c-0.015-0.223-0.003-0.433,0.05-0.649
				c-0.058,0.235-0.104,0.113,0.278,0.146c0.719,0.062,0.919,1.021,1.052,1.582c0.4,1.688,0.143,3.429-0.251,5.083
				c-0.213,0.899,0.994,0.276,1.199-0.15c0.666-1.385,2.045-3.317,3.42-4.042c0.304-0.16,0.404,0.183,0.472,0.415
				c0.208,0.72-0.335,1.063-0.89,1.365c-1.101,0.598-2.348,0.845-3.534,1.209c-0.57,0.175-1.287,1.569-0.33,1.316
				c1.439-0.38,3.21-1.185,4.708-0.776c0.193,0.053,0.794,0.656,0.345,0.818c-0.521,0.188-1.219,0.042-1.744-0.052
				c-0.442-0.08-2.385-0.307-2.557-0.503c-0.244,0.405-0.488,0.811-0.732,1.216c-0.406,0.067-0.203,0.048,0.063,0.293
				c0.259,0.237,0.503,0.489,0.744,0.744c0.51,0.538,1.022,1.136,1.252,1.852c0.008,0.25,0.029,0.225,0.064-0.075
				c-0.259,0.057-0.518,0.052-0.774-0.015c-0.481-0.112-0.694-0.591-0.842-1.008c-0.293-0.83-0.214-1.877-0.066-2.728
				c0.155-0.899-0.965-0.269-1.175,0.147c-0.467,0.925-3.132,1.96-3.64,0.646c-0.449-1.161,1.426-0.531,1.924-0.392
				c0.653,0.183,1.28,0.44,1.95,0.554c0.604,0.103,1.486-1.227,0.646-1.344c-1.335-0.185-2.704-1.101-4.092-0.771
				c-1.334,0.317-1.995,1.572-1.721,2.878c0.275,1.303,2.115,1.053,3.012,0.79c1.173-0.345,2.557-1.16,3.035-2.346
				c-0.397,0.1-0.796,0.199-1.193,0.298c-0.007,1.189-0.242,2.796,0.561,3.806c0.799,1.003,2.272,0.958,3.183,0.125
				c0.861-0.789,0.3-1.878-0.238-2.65c-0.407-0.583-1.548-2.229-2.37-2.095c-0.417,0.068-1.1,0.792-0.731,1.216
				c0.276,0.319,1.271,0.309,1.679,0.407c0.85,0.204,1.702,0.403,2.58,0.424c1.408,0.033,2.499-0.943,2.636-2.328
				c0.257-2.597-5.097-0.762-6.176-0.448c-0.11,0.439-0.22,0.877-0.33,1.316c1.708-0.571,3.667-0.926,5.053-2.16
				c0.843-0.751,1.724-2.69,0.355-3.426c-1.075-0.578-2.657,1.287-3.227,1.927c-0.905,1.016-1.837,2.161-2.458,3.38
				c0.399-0.05,0.8-0.1,1.199-0.15c0.518-2.042,0.709-4.138,0.122-6.19c-0.396-1.387-2.117-2.163-3.215-0.95
				c-1.814,2.005,0.238,5.803,1.371,7.711C20.443,28.808,21.496,27.907,21.256,27.405L21.256,27.405z"/>
		</g>
	</g>
	<g>
		<g>
			<path d="M23.868,8.403c-1.309-1.01-1.891-2.915-1.66-4.526c0.058-0.399-0.311-0.241,0.076,0.007
				c0.483,0.311,0.684,0.833,0.827,1.361c0.342,1.249,0.029,2.661-0.13,3.913c-0.077,0.599,0.448,0.585,0.845,0.329
				C24.582,9,26.603,7.493,27.462,8.273c0.784,0.712-1.038,0.777-1.345,0.786c-0.647,0.018-1.343-0.072-1.903-0.413
				c-0.34,0.474-0.68,0.949-1.02,1.423c0.597,0.356,1.028,1.074,1.345,1.666c0.278,0.519,0.913,1.775-0.059,1.515
				c-1.199-0.322-0.554-3.705-0.529-4.58c0.022-0.836-1.107,0.028-1.263,0.315c-0.354,0.657-3.664,1.445-3.515,0.259
				c-0.271,0.18-0.26,0.226,0.033,0.14c0.23-0.021,0.469,0.012,0.697,0.037c0.479,0.051,0.952,0.193,1.415,0.321
				c0.735,0.203,1.466,0.486,2.229,0.566c0.637,0.067,1.562-1.318,0.678-1.411C22.75,8.74,21.41,7.957,19.893,7.956
				c-1.185,0-2.391,1.08-2.135,2.332c0.261,1.283,1.991,1.054,2.926,0.847c1.219-0.27,2.622-0.958,3.185-2.135
				c-0.421,0.105-0.842,0.21-1.263,0.315c-0.012,1.718-0.632,6.677,2.637,5.078c2.429-1.188,0.625-4.745-1.028-5.748
				c-0.577-0.35-1.727,0.986-1.02,1.423c1.805,1.114,5.642,0.46,5.874-2.012c0.128-1.36-1.324-1.521-2.282-1.291
				c-1.193,0.288-2.343,1.018-3.325,1.732c0.288,0.056,0.577,0.111,0.865,0.167c0.095-1.666,0.422-3.74-0.502-5.233
				c-0.557-0.9-1.541-1.206-2.307-0.379c-1.461,1.578-0.58,5.694,1.506,6.346C23.416,9.52,24.299,8.735,23.868,8.403L23.868,8.403z"
				/>
		</g>
	</g>
</g>
<g id="DESIGNED_BY_FREEPIK">
</g>
</svg>
