<?xml version="1.0" encoding="utf-8"?>
<!-- Generator: Adobe Illustrator 16.0.0, SVG Export Plug-In . SVG Version: 6.00 Build 0)  -->
<!DOCTYPE svg PUBLIC "-//W3C//DTD SVG 1.1//EN" "http://www.w3.org/Graphics/SVG/1.1/DTD/svg11.dtd">
<svg version="1.1" xmlns="http://www.w3.org/2000/svg" xmlns:xlink="http://www.w3.org/1999/xlink" x="0px" y="0px" width="25.92px"
	 height="53.388px" viewBox="0 0 25.92 53.388" enable-background="new 0 0 25.92 53.388" xml:space="preserve">
<g id="BACKGROUND">
</g>
<g id="OBJECTS">
	<g>
		<g>
			<g>
				<path d="M0.572,53.316c1.271-0.668,2.314-1.771,3.336-2.762c1.146-1.113,2.208-2.309,3.239-3.527
					c2.186-2.578,4.194-5.293,6.143-8.054c4.023-5.699,7.727-11.606,12.268-16.927c0.547-0.64-0.027-1.252-0.597-0.597
					c-4.398,5.063-8.296,10.584-12.225,16.013c-1.983,2.742-3.93,5.502-6.062,8.133c-1.064,1.314-2.195,2.568-3.351,3.803
					c-1.033,1.104-2.243,2.064-3.183,3.248C-0.163,53.031,0.043,53.593,0.572,53.316L0.572,53.316z"/>
			</g>
		</g>
		<g>
			<g>
				<path d="M25.564,21.833c-0.516-3.812-1.127-7.611-1.626-11.426c-0.254-1.937-0.464-3.878-0.605-5.827
					c-0.061-0.842-0.11-1.685-0.064-2.529c0.033-0.628,0.223-1.314-0.024-1.911c-0.151-0.364-0.688,0.074-0.765,0.282
					c-0.471,1.255-0.035,2.886,0.053,4.2c0.129,1.93,0.349,3.856,0.58,5.776c0.475,3.95,1.088,7.888,1.854,11.792
					C25.024,22.484,25.597,22.073,25.564,21.833L25.564,21.833z"/>
			</g>
		</g>
		<g>
			<g>
				<path d="M7.277,46.585c2.336-0.873,4.748-1.511,7.172-2.089c2.326-0.555,4.734-0.906,7.016-1.627
					c0.092-0.028,0.301-0.324,0.111-0.302c-2.354,0.284-4.704,0.914-7.01,1.459c-2.481,0.587-4.923,1.303-7.293,2.244
					C7.099,46.341,7.01,46.685,7.277,46.585L7.277,46.585z"/>
			</g>
		</g>
		<g>
			<g>
				<path d="M15.593,44.481c2.595,1.94,5.3,3.532,7.619,5.825c0.143,0.141,0.45-0.182,0.337-0.338
					c-1.875-2.586-5.053-4.129-7.706-5.781C15.729,44.117,15.477,44.394,15.593,44.481L15.593,44.481z"/>
			</g>
		</g>
		<g>
			<g>
				<path d="M22.632,25.265c-1.94-2.939-4.413-5.517-6.916-7.978c-1.369-1.347-2.782-2.648-4.217-3.925
					c-1.364-1.215-2.718-2.535-4.236-3.555C7.148,9.73,6.921,9.94,7.02,10.05c1.13,1.249,2.492,2.306,3.743,3.431
					c1.426,1.283,2.833,2.585,4.211,3.92c2.643,2.561,5.09,5.285,7.277,8.245C22.379,25.819,22.754,25.451,22.632,25.265
					L22.632,25.265z"/>
			</g>
		</g>
		<g>
			<g>
				<path d="M14.535,16.265c0.287-1.325,0.189-2.794,0.298-4.148c0.135-1.686,0.512-3.479,0.396-5.166
					c-0.015-0.216-0.308,0.011-0.333,0.122c-0.361,1.562-0.384,3.247-0.52,4.842c-0.118,1.385-0.479,3.132-0.135,4.491
					C14.282,16.563,14.519,16.34,14.535,16.265L14.535,16.265z"/>
			</g>
		</g>
		<g>
			<path d="M22.073,40.678c-1.45,0.89-1.727,2.743,0.397,3.117c1.692,0.266,2.78-1.214,1.931-2.583
				C23.961,40.576,22.889,40.419,22.073,40.678"/>
		</g>
		<g>
			<path d="M14.319,4.166c-1.45,0.89-1.727,2.743,0.397,3.117c1.692,0.265,2.78-1.214,1.931-2.583
				C16.207,4.063,15.135,3.906,14.319,4.166"/>
		</g>
		<g>
			<path d="M5.163,7.434c-1.45,0.89-1.727,2.743,0.397,3.117c1.692,0.265,2.779-1.214,1.931-2.583
				C7.051,7.331,5.978,7.173,5.163,7.434"/>
		</g>
		<g>
			<path d="M23.296,49.654c-1.45,0.889-1.727,2.744,0.397,3.117c1.693,0.266,2.78-1.213,1.931-2.584
				C25.185,49.55,24.111,49.394,23.296,49.654"/>
		</g>
	</g>
</g>
<g id="DESIGNED_BY_FREEPIK">
</g>
</svg>
