<?xml version="1.0" encoding="utf-8"?>
<!-- Generator: Adobe Illustrator 16.0.0, SVG Export Plug-In . SVG Version: 6.00 Build 0)  -->
<!DOCTYPE svg PUBLIC "-//W3C//DTD SVG 1.1//EN" "http://www.w3.org/Graphics/SVG/1.1/DTD/svg11.dtd">
<svg version="1.1" id="Layer_1" xmlns="http://www.w3.org/2000/svg" xmlns:xlink="http://www.w3.org/1999/xlink" x="0px" y="0px"
	 width="658.667px" height="309px" viewBox="0 0 658.667 309" enable-background="new 0 0 658.667 309" xml:space="preserve">
<g>
	<g>
		<g>
			<g opacity="0.8">
				<g opacity="0.8">
					<path fill="#FFFFFF" d="M391.944,198.541c0.811,15.63,4.366,5.928,8.042,0.439c-0.589-0.376-1.178-0.815-1.773-1.279
						C396.139,198.018,394.051,198.34,391.944,198.541z"/>
					<path fill="#FFFFFF" d="M398.212,197.701c0.596,0.464,1.185,0.903,1.773,1.279c0.462-0.688,0.914-1.289,1.36-1.768
						C400.315,197.388,399.265,197.549,398.212,197.701z"/>
					<path fill="#FFFFFF" d="M391.773,190.572c0,3.198,0.063,5.806,0.171,7.969c2.107-0.2,4.195-0.522,6.269-0.84
						C396.03,195.987,393.871,193.692,391.773,190.572z"/>
					<path fill="#FFFFFF" d="M401.346,197.212c1.101-0.2,2.227-0.312,3.314-0.552C403.631,195.445,402.502,195.948,401.346,197.212z
						"/>
					<path fill="#FFFFFF" d="M486.257,73.541c-26.58-4.922-52.901-9.282-79.098-13.091c7.279,8.354,14.352,16.851,20.69,22.466
						C446.901,100.914,466.574,84.932,486.257,73.541z"/>
					<path fill="#FFFFFF" d="M367.969,56.465c-8.774-1.006-17.559-1.968-26.347-2.871C350.165,57.627,359.015,59.668,367.969,56.465
						z"/>
					<path fill="#FFFFFF" d="M484.967,77.725c-19.679,11.382-39.353,27.368-58.398,9.375c-6.345-5.61-13.42-14.106-20.699-22.471
						c-20.839-3.042-41.604-5.771-62.378-8.164c-8.962,3.203-17.805,1.162-26.347-2.871
						c-82.141-8.457-164.819-12.144-252.671-12.144c-5.152,0-32.216,7.104-37.368,19.272l-9.018,9.121v5.615
						c7.951,0.562,15.813,2.881,24.475-0.527c5.163,0,10.306-6.089,15.466-6.089c23.196,0,43.81,6.089,69.583-6.094
						c7.736-6.074,20.612,18.262,28.352,12.183c30.924-6.089,56.697,18.262,85.043,12.168c23.195-6.089,38.657-18.257,61.852-12.168
						c5.153,0,12.888-6.089,18.039-6.089c33.5,6.089,67.008,12.168,100.512,24.351c7.728,0,15.462,24.346,23.193,18.257
						c10.312-12.158,20.616-18.257,30.93-24.351c2.576,0,5.152,18.262,10.304,18.262c19.878,4.688,38.22-12.256,56.206-11.909
						c-1.009-1.816-2.018-3.481-3.035-5.059C520.851,84.571,502.844,81.026,484.967,77.725z"/>
					<g>
						<path fill="#FFFFFF" d="M595.083,95.259c-2.853,2.969-5.64,5.537-8.303,7.393c16.876,12.246,36.783,14.258,55.296,3.633
							C626.253,102.413,610.614,98.741,595.083,95.259z"/>
						<path fill="#FFFFFF" d="M566.529,93.453c0.184,0.35,0.364,0.694,0.546,1.04c-9.402-2.104-18.766-4.146-28.066-6.099
							c1.018,1.577,2.026,3.242,3.035,5.059c5.342,0.088,10.648,1.646,15.96,5.84c1.405,1.191,2.847,2.295,4.3,3.359
							c2.008-1.401,4.102-3.306,6.235-5.386c0.355,0.684,0.709,1.299,1.061,2.026c4.44,8.389,10.415,8.086,17.182,3.359
							c-1.445-1.064-2.896-2.168-4.302-3.359C577.178,95.098,571.861,93.541,566.529,93.453z"/>
					</g>
					<path fill="#FFFFFF" d="M559.285,257.53c-18.037-18.262-28.348,12.188-46.388,0c-13.158-7.759-25.856-6.694-38.481-3.872
						c28.753,7.832,56.488,15.161,84.45,14.561C558.442,265.22,558.4,261.729,559.285,257.53z"/>
					<path fill="#FFFFFF" d="M633.113,180.362c-5.204,9.136-11.84,13.545-20.996,10.21c-15.462-6.079-28.346-24.336-41.231-24.336
						c-36.076-6.089-77.319,42.607-113.397,0c-33.504-36.528-72.159-12.178-110.819-12.178c-7.733,0-18.037,12.178-25.77,12.178
						c-25.768,0-48.961,0-72.161,0c-18.042,0-20.614-30.439-41.238-24.346c-2.572,0-7.724-12.183-10.304-12.183
						c-59.329,5.84-121.007,0.425-180.526-10.776c-0.56,13.345-0.562,26.304,0.021,38.232c40.913-3.242,83.028,15.928,121.23,21.24
						c51.542,12.168,103.087,0,154.632,12.168c24.166,5.2,50.189,10.312,74.913,7.969c-0.115-2.163-0.173-4.771-0.173-7.969
						c2.1,3.12,4.25,5.415,6.441,7.129c1.05-0.151,2.09-0.312,3.134-0.488c1.147-1.265,2.282-1.768,3.309-0.552
						c-1.092,0.239-2.208,0.352-3.309,0.552c-0.454,0.479-0.907,1.079-1.366,1.768c18.856,11.904,39.845-18.999,51.066-8.408
						c38.651,36.533,87.623-6.079,121.12,12.183c34.072,12.69,63.147,10.64,88.099-16.367
						C634.834,184.498,633.933,182.5,633.113,180.362z"/>
					<path fill="#FFFFFF" d="M630.934,123.628c-1.038-3.73-1.985-6.938-2.758-9.409c-23.178,32.896-55.982,31.562-85.641,27.671
						c-2.574,0-7.727-12.183-12.889-18.262c-12.884-6.089-20.615,24.341-30.919,18.262c-90.203-48.696-180.4-12.183-270.604-6.094
						c-5.156,0,0-30.435-7.738-36.504c-20.61-6.099-38.654,0-56.693-18.281c-2.578-6.079-10.306,12.183-18.04,18.281
						c-28.348,18.247-54.12-12.192-82.467,0c-15.28,8.999-30.556,1.343-45.835,6.68c-0.283,4.336-0.504,8.662-0.68,12.959
						c59.52,11.201,121.197,16.616,180.526,10.776c2.58,0,7.732,12.183,10.304,12.183c15.927-4.712,18.507,24.346,41.238,24.346
						c23.624,0,46.009,0,72.161,0c7.732,0,18.036-12.178,25.77-12.178c38.66,0,77.315-24.351,110.819,12.178
						c36.078,42.607,77.321-6.089,113.397,0c12.886,0,25.77,18.257,41.231,24.336c9.156,3.335,15.792-1.074,20.996-10.21
						c-5.679-14.99-8.104-35.864-8.104-56.733C626.466,123.628,628.754,123.628,630.934,123.628z"/>
					<path fill="#FFFFFF" d="M644.336,169.268c-7.079-57.817-18.301-76.978-8.501-41.538c-2.175,0-4.459,0-5.921,0
						c0,20.879,2.421,41.753,8.104,56.724C640.39,180.284,642.465,175.137,644.336,169.268z"/>
					<path fill="#FFFFFF" d="M626.292,108.404c-2.913-0.709-5.799-1.412-8.701-2.119c-18.516,10.625-38.418,8.613-55.288-3.633
						c-6.772,4.727-12.743,5.029-17.19-3.359c-1.019-2.114-2.042-3.999-3.069-5.84c-17.986-0.347-36.328,16.597-56.206,11.909
						c-5.151,0-7.728-18.262-10.304-18.262c-10.313,6.094-20.617,12.192-30.93,24.351c-7.731,6.089-15.466-18.257-23.193-18.257
						c-33.504-12.183-67.012-18.262-100.512-24.351c-5.151,0-12.886,6.089-18.039,6.089c-23.194-6.089-38.656,6.079-61.852,12.168
						c-28.346,6.094-54.12-18.257-85.043-12.168c-7.74,6.079-20.616-18.257-28.352-12.183c-25.773,12.183-46.387,6.094-69.583,6.094
						c-5.16,0-10.304,6.089-15.466,6.089c-8.662,3.408-16.524,1.089-24.475,0.527v20.767c-0.281,3.247-0.521,6.489-0.738,9.746
						c15.28-5.337,30.556,2.319,45.835-6.68c28.348-12.192,54.12,18.247,82.467,0c7.734-6.099,15.462-24.36,18.04-18.281
						c18.04,18.281,36.083,12.183,56.693,18.281c7.738,6.069,2.582,36.504,7.738,36.504c90.204-6.089,180.401-42.603,270.604,6.094
						c10.304,6.079,18.035-24.351,30.919-18.262c5.162,6.079,10.314,18.262,12.889,18.262c29.658,3.892,62.463,5.225,85.641-27.671
						C627.037,110.538,626.292,108.404,626.292,108.404z"/>
					<path fill="#FFFFFF" d="M306.606,227.691c11.291,0.288,22.885,1.03,34.905,2.456c0.748,0,2.559,0.186,5.09,0.464
						C333.353,227.828,319.653,224.244,306.606,227.691z"/>
					<path fill="#FFFFFF" d="M366.135,233.125c12.908,1.733,27.531,3.74,35.368,4.653c-8.542-9.961-17.556-16.768-27.769-16.768
						C373.735,221.011,368.756,232.74,366.135,233.125z"/>
					<g>
						<path fill="#FFFFFF" d="M578.503,266.377c18.664-3.12,37.56-10.469,57.051-24.248
							C615.995,239.092,597.167,250.196,578.503,266.377z"/>
						<path fill="#FFFFFF" d="M635.788,186.387c-24.951,27.007-54.026,29.058-88.099,16.367
							c-33.497-18.262-82.469,24.351-121.12-12.183c-11.222-10.591-32.21,20.312-51.066,8.408c-3.672,5.488-7.233,15.19-8.036-0.439
							c-24.724,2.344-50.747-2.769-74.913-7.969c-51.545-12.168-103.091,0-154.632-12.168c-38.203-5.312-80.317-24.482-121.23-21.24
							c1.714,34.888,8.563,60.815,22.009,60.815c53.071,18.794,97.948,18.208,143.068,14.922
							c16.932-7.593,33.708-11.44,50.127-8.218c-8.493,1.504-17.052,4.36-25.646,8.218c20.446-1.499,40.967-3.491,62.287-4.575
							c-0.62-0.269-1.25-0.41-1.877-0.659c5.103-0.063,10.226-0.103,15.462,0.024c13.047-3.447,26.745,0.137,40.004,2.92
							c4.637,0.527,11.757,1.475,19.53,2.515c2.615-0.386,26.819-5.308,35.362,4.653c2.654,0.288,4.538,0.479,5.301,0.479
							c23.493,3.257,45.846,9.473,67.617,15.4c12.621-2.822,25.316-3.887,38.478,3.872c18.044,12.188,45.542,7.69,45.972,10.688
							c6.523-0.137,13.068-0.752,19.632-1.841c18.664-16.182,37.502-27.285,57.062-24.248c5.032-3.56,10.097-7.534,15.214-11.982
							c9.262-8.062,13.248-21.353,14.224-36.24C638.777,191.749,637.206,189.219,635.788,186.387z"/>
					</g>
				</g>
			</g>
		</g>
	</g>
</g>
</svg>
